<svg class="main-svg" xmlns="http://www.w3.org/2000/svg" xmlns:xlink="http://www.w3.org/1999/xlink" width="1000" height="500" style="" viewBox="0 0 1000 500"><rect x="0" y="0" width="1000" height="500" style="fill: rgb(0, 0, 0); fill-opacity: 0;"/><defs id="defs-fba8c1"><g class="clips"><clipPath id="clipfba8c1xyplot" class="plotclip"><rect width="733" height="320"/></clipPath><clipPath class="axesclip" id="clipfba8c1x"><rect x="80" y="0" width="733" height="500"/></clipPath><clipPath class="axesclip" id="clipfba8c1y"><rect x="0" y="100" width="1000" height="320"/></clipPath><clipPath class="axesclip" id="clipfba8c1xy"><rect x="80" y="100" width="733" height="320"/></clipPath></g><g class="gradients"/><g class="patterns"/></defs><g class="bglayer"><rect class="bg" x="80" y="100" width="733" height="320" style="fill: rgb(0, 0, 0); fill-opacity: 0; stroke-width: 0;"/></g><g class="layer-below"><g class="imagelayer"/><g class="shapelayer"/></g><g class="cartesianlayer"><g class="subplot xy"><g class="layer-subplot"><g class="shapelayer"/><g class="imagelayer"/></g><g class="minor-gridlayer"><g class="x"/><g class="y"/></g><g class="gridlayer"><g class="x"/><g class="y"/></g><g class="zerolinelayer"/><path class="xlines-below"/><path class="ylines-below"/><g class="overlines-below"/><g class="xaxislayer-below"/><g class="yaxislayer-below"/><g class="overaxes-below"/><g class="plot" transform="translate(80,100)" clip-path="url(#clipfba8c1xyplot)"><g class="scatterlayer mlayer"><g class="trace scatter tracea04f2a" style="stroke-miterlimit: 2; opacity: 1;"><g class="fills"/><g class="errorbars"/><g class="lines"><path class="js-line" d="M0,-36.28L0.75,183.68L0.76,183.58L0.77,183.63L1.59,186.96L1.6,186.56L1.61,186.69L2.5,189.39L2.56,189.3L2.57,189.01L2.77,189.91L2.84,188.05L3.33,189.42L3.34,189.14L4.11,190.73L4.12,190.53L4.25,190.37L4.93,191.65L4.94,191.45L4.95,191.39L5.29,190.85L5.72,192.68L5.73,191.41L6.2,193.12L6.5,192.67L6.51,192.61L6.62,192.45L7.39,193.36L7.44,193.32L7.45,193.25L8.45,193.97L8.5,193.93L8.51,193.85L9.16,193.64L9.4,195.07L9.45,195.03L9.46,194.56L9.66,193.97L9.75,195.06L10.2,194.65L10.21,194.53L10.85,195.37L10.98,195.34L10.99,194.74L11.7,195.53L11.76,195.48L11.77,195.48L11.9,195.02L12.05,195.76L12.52,195.5L12.53,195.48L12.6,195.24L13.12,196.63L13.34,196.2L13.35,196.06L13.49,196.34L13.52,195.76L14.02,196.28L14.03,196.38L14.65,196.32L14.75,196.51L14.76,196.58L15.59,196.86L15.6,196.65L15.61,196.2L16.34,197.77L16.39,197.55L16.4,196.88L16.43,197.77L16.52,195.95L17.15,197.07L17.16,197.01L17.53,196.87L17.7,197.48L17.81,197.4L17.82,197.55L17.89,197.31L18.37,197.84L18.54,197.6L18.55,197.8L18.69,197.49L19.05,198.33L19.28,197.99L19.29,198.05L19.47,198.43L19.48,197.47L20.12,199.01L20.13,197.17L20.24,197.78L20.25,197.57L20.45,197.35L21.2,198.43L21.21,198.35L21.22,198.05L21.86,198.77L21.98,198.67L21.99,198.69L22.94,199.1L22.97,198.65L22.98,198.26L23.42,199.19L23.43,198.13L23.74,198.95L23.75,198.88L24.95,199.42L24.96,199.33L24.97,199.13L25.2,198.93L25.49,199.6L25.75,199.38L25.76,199.41L25.94,198.78L26.39,200.02L26.52,199.85L26.53,199.22L26.77,200.15L27,198.86L27.28,199.46L27.29,199.1L27.92,199.96L28.05,199.86L28.06,199.9L28.09,199.65L28.77,200.07L28.8,199.99L28.81,200.09L28.96,200.22L29.59,199.94L29.68,200.16L29.69,200.2L29.82,199.72L30.08,201.12L30.29,199.98L30.3,200.89L30.76,200.23L31.06,200.51L31.07,200.57L31.15,200.71L31.59,200.39L31.81,200.73L31.82,200.75L33.27,201.21L33.28,199.92L33.3,199.91L33.86,201.3L34.05,200.68L34.06,200.66L34.19,200.42L34.81,201.14L34.88,201.02L34.89,200.93L34.99,200.76L35.71,201.37L35.72,201.28L36.05,201.19L36.25,201.87L36.49,201.58L36.5,201.62L37.04,202.14L37.05,201.66L37.06,201.21L37.17,202.36L37.3,200.52L37.81,201.37L37.82,201.47L37.87,200.8L38.43,201.89L38.49,201.51L38.5,201.74L38.89,201.21L39.2,202.08L39.3,201.84L39.31,201.82L39.43,201.81L39.69,202.55L40.08,202.29L40.09,202.27L40.3,201.53L40.62,202.61L40.83,202.41L40.84,202.16L40.98,201.87L41.35,202.46L41.6,202.33L41.61,202.27L43.14,202.58L43.15,202.08L43.86,203.42L43.93,203.26L43.94,203.18L44.04,203.42L44.24,202.19L44.71,202.7L44.72,202.98L45.09,202.4L45.43,203.14L45.47,202.89L45.48,202.75L45.67,202.61L46.32,203.29L46.36,203.24L46.37,203.15L47,203.61L47.01,202.84L47.02,202.35L47.06,202.19L47.45,203.56L47.81,203.25L47.82,203.12L47.93,202.86L48.48,203.44L48.59,203.27L48.6,203.29L48.73,203.23L49.32,203.64L49.38,203.44L49.39,203.3L50.3,204L50.31,203.99L50.6,203.31L50.84,204.28L50.85,203.49L50.86,203.44L51.05,204.28L51.11,202.58L51.6,203.58L51.61,203.61L51.76,203.77L52.29,203.66L52.33,203.76L52.34,203.97L52.35,203.49L52.84,204.3L53.08,204.02L53.09,204.13L53.24,204.43L53.25,203.9L53.76,204.41L53.77,204.47L53.92,204.79L53.94,204.22L53.95,203.74L54.06,203.03L54.31,204.51L54.5,204.04L54.51,204.79L54.52,203.34L55.26,204.18L55.27,204.25L56.26,204.56L56.27,204.24L56.91,205.03L57.04,204.89L57.05,204.88L57.36,204.5L57.7,205.59L57.74,205.16L57.75,204.31L57.76,205.45L57.94,203.9L58.5,204.79L58.51,204.86L58.57,204.52L59.06,205.21L59.23,204.97L59.24,205.06L59.61,205.26L59.85,204.65L59.98,205.07L59.99,205.1L60.16,204.8L60.75,205.18L60.76,205.2L61.04,204.71L61.19,205.99L61.49,205.42L61.5,205.47L61.71,205.77L62.37,205.17L62.42,205.39L62.43,205.4L63.36,205.74L63.41,205.64L63.42,205.59L64.23,205.82L64.24,205.37L64.44,206.44L64.81,204.84L64.98,205.39L64.99,205.32L65.07,205.06L65.65,205.88L65.68,205.82L65.7,205.89L66.17,206.25L66.37,205.79L66.42,206.01L66.43,206.1L66.81,205.77L67.08,206.06L67.09,206.32L67.76,205.82L67.77,206.78L67.85,205.89L67.86,205.97L67.87,205.66L68.14,206.78L68.59,206.09L68.6,206.41L68.66,206.72L68.67,205.9L69.34,206.52L69.35,206.49L69.84,206.75L70.14,206.61L70.15,206.44L70.31,206.39L70.93,206.96L70.94,206.94L71.52,206.34L71.59,207.46L71.66,207.15L71.67,206.78L71.68,207.24L71.73,206.21L72.41,206.74L72.42,206.77L72.78,207.06L72.87,206.64L73.15,206.91L73.16,207.02L74.41,207.39L74.44,207.33L74.45,206.68L74.89,206.33L75.12,207.6L75.21,207.29L75.22,207.28L75.48,207.59L75.49,206.89L75.98,207.13L75.99,207.43L76.76,207.4L76.83,207.52L76.84,207.56L77.1,207.77L77.57,207.31L77.61,207.47L77.62,207.55L78.27,208.13L78.28,207.9L78.29,207.32L78.4,208.15L78.64,206.31L79.04,207.52L79.05,207.53L80.07,208.16L80.12,208.04L80.13,208.03L80.88,208.35L80.94,208.26L80.95,208.06L81.04,207.41L81.66,208.69L81.7,208.17L81.71,208.06L81.83,209.05L81.89,207.46L82.48,208.35L82.49,208.32L82.82,208.16L83.18,208.8L83.23,208.37L83.24,208.48L83.29,208.33L83.42,208.7L83.93,208.78L83.94,208.81L84.71,208.71L84.81,208.84L84.82,208.86L84.91,209.33L85.52,207.59L85.61,208.63L85.62,208.64L85.64,208.33L86.3,209.04L86.35,208.92L86.36,209.02L86.48,208.68L86.88,209.28L87.05,209.29L87.06,209.32L87.82,209.31L87.83,209.39L87.84,209.48L88.35,208.93L88.44,209.85L88.55,209.23L88.56,209.87L88.72,209.97L88.79,208.46L89.31,209.28L89.32,209.51L89.56,209.24L90.04,209.79L90.05,209.78L90.06,209.75L91.11,209.96L91.12,210.04L91.78,209.81L91.8,209.91L91.81,210.44L92.38,209.13L92.56,209.76L92.57,209.71L92.77,209.58L93.68,210.36L93.71,210.33L93.72,210.31L95.21,210.99L95.22,210.16L95.77,209.79L95.83,211.37L95.99,210.85L96,210.82L96.15,211.01L96.58,210.82L96.63,210.93L96.64,211.28L96.68,211.05L97.16,211.45L97.38,211.41L97.39,211.4L98.87,212.26L98.88,212.03L98.89,212.37L99.39,210.65L99.69,211.53L99.7,211.71L99.77,211.4L100.4,212.06L100.43,211.92L100.44,211.97L101.15,212.07L101.2,212.24L101.22,212.24L102.08,212.74L102.09,212.44L102.1,211.8L102.62,211.65L102.69,212.82L102.88,212.35L102.89,212.22L103.03,212.19L103.64,212.75L103.69,212.58L103.7,212.63L105.56,213.4L105.58,213.28L105.59,212.8L106.04,213.79L106.34,213.28L106.35,213.26L106.93,212.89L106.98,213.53L107.08,213.28L107.09,213.44L107.29,213.59L107.7,213.21L107.84,213.47L107.85,213.55L107.86,213.32L108.39,213.8L108.59,213.72L108.6,213.73L108.99,214.22L109.01,213.95L109.02,213.12L109.09,213L109.69,214.17L109.81,213.57L109.82,213.54L110.75,214.13L110.77,214.09L110.78,214.02L111.99,214.8L112.03,214.58L112.04,214.58L112.72,215.08L112.74,214.64L112.75,214.23L112.9,215.11L113.51,214.8L113.52,214.79L113.67,214.45L113.9,215.02L114.26,214.96L114.27,214.95L114.41,215.13L114.45,214.68L115,215.14L115.01,215.19L116.09,215.13L116.1,214.92L116.17,215.89L116.86,215.45L116.87,215.39L117.79,215.88L117.84,215.68L117.85,215.64L117.93,215.61L118.61,216.16L118.67,216.07L118.68,216.11L119.66,216.47L119.67,216.45L119.68,215.69L119.84,216.65L120.43,216.35L120.44,216.36L120.8,216.25L121.2,216.6L121.21,216.39L121.26,216.38L122.04,217.01L122.05,216.73L122.75,217.28L122.8,217.12L122.81,216.94L122.85,217.47L123.35,216.62L123.54,217.02L123.55,217.1L123.72,216.95L124.37,217.68L124.42,217.49L124.43,217.45L125.36,217.99L125.42,217.88L125.43,217.8L126.18,218.67L126.22,218.26L126.23,218.12L126.59,218.76L126.79,217.33L126.96,217.83L126.97,217.9L127.03,217.46L127.63,218.5L127.65,218.32L127.66,218.4L129.5,219.32L129.61,219.04L129.62,218.7L130.02,219.83L130.21,218.5L130.38,219.18L130.39,219.1L131.58,219.73L131.62,219.63L131.63,219.63L132.62,220.01L132.63,219.73L133.09,220.49L133.13,219.53L133.39,220.22L133.4,219.85L133.5,220.57L133.67,219.68L134.15,220.28L134.16,220.26L135.78,220.89L135.85,220.78L135.86,220.7L136.1,220.34L136.59,221.29L136.65,220.94L136.66,220.93L136.95,221.72L137.03,220.4L137.41,221.03L137.42,221.18L137.45,220.93L138.07,221.46L138.14,221.38L138.15,221.41L140.28,222.59L140.41,221.96L140.42,221.88L140.44,222.54L140.61,221.37L141.18,222.31L141.19,222.28L142.45,222.82L142.46,222.8L142.47,222.75L142.61,222.6L143.42,223.74L143.43,222.77L144.09,223.63L144.21,223.49L144.22,223.34L144.36,223.27L145.12,223.69L145.14,223.64L145.15,223.57L146.02,223.99L146.03,223.98L146.04,223.98L147.19,224.72L147.2,224.4L147.21,223.99L147.22,224.75L147.52,223.87L147.96,224.31L147.97,224.41L150.31,225.73L150.32,224.97L150.53,225.72L150.85,224.77L151.09,225.4L151.1,225.28L151.18,225.2L152.07,225.94L152.13,225.85L152.14,225.8L152.89,226.22L152.94,226.2L152.95,226.12L153.77,226.77L153.85,226.49L153.86,226.39L154.08,227L154.14,226.3L154.62,226.66L154.63,226.6L155.08,226.25L155.28,226.99L155.43,226.91L155.44,226.87L155.47,226.8L156.22,227.28L156.23,227.25L156.24,227.26L157.35,227.87L157.43,227.6L157.44,227.46L158.19,228.12L158.22,228.08L158.23,228.01L159.12,228.42L159.13,228.36L161.02,229.08L161.03,228.8L161.04,228.61L161.29,228.55L161.82,229.31L161.83,229.2L163.17,229.83L163.21,229.79L163.22,229.72L163.95,230.38L164.21,230.12L164.22,229.95L164.32,229.88L164.5,230.59L164.98,230.41L164.99,230.33L166.23,230.94L166.24,230.84L167.67,231.65L167.81,231.35L167.82,230.99L167.86,230.93L168.52,231.6L168.58,231.49L168.59,231.49L171.32,232.83L171.33,232.42L171.34,232.23L171.42,232L171.95,232.89L172.11,232.74L172.12,232.75L174.86,234.15L174.87,233.86L174.88,233.55L175.01,233.14L175.63,234L175.65,233.98L175.66,233.92L176.66,234.42L176.67,234.37L178.11,235.31L178.17,234.92L178.18,234.8L179,235.3L179.01,235.14L179.77,235.55L179.81,235.51L179.82,235.54L181.42,236.45L181.45,236.34L181.46,235.96L181.66,236.67L181.89,235.71L182.21,236.21L182.22,236.28L182.28,236.13L182.48,236.55L182.9,236.52L182.91,236.61L184.23,237.19L184.28,237.02L184.29,236.98L188.52,238.84L188.54,238.58L188.55,238.88L188.73,238.2L189.3,238.66L189.31,238.75L191.17,239.73L191.18,239.31L192.12,240.23L192.21,240.16L192.22,239.74L192.25,239.44L192.87,240.1L192.94,240.03L192.95,239.98L194.01,240.54L194.02,240.48L195.42,241.29L195.43,240.93L195.54,241.38L195.64,240.49L196.18,241.15L196.19,241.15L198.43,242.2L198.44,242.23L198.69,242.38L198.91,241.88L199.12,242.12L199.13,242.41L199.14,242.1L199.61,242.55L199.87,242.53L199.89,242.52L202.16,243.49L202.21,243.33L202.22,243.14L202.29,243L203.02,243.69L203.03,243.63L204.92,244.63L204.97,244.3L204.98,244.28L205.76,244.78L205.79,244.53L205.8,244.32L205.99,244.26L206.53,244.89L206.57,244.82L206.58,244.76L207.5,245.32L207.51,245.2L208.79,245.96L208.84,245.84L208.85,245.7L209.08,246.09L209.33,245.37L209.6,245.8L209.61,245.78L211.25,246.58L211.26,246.53L211.36,246.34L212.24,247.16L212.32,246.72L212.33,246.7L213.03,247.2L213.1,247.12L213.11,247.08L213.19,247L213.84,247.48L213.87,247.42L213.88,247.46L216.26,248.49L216.35,248.18L216.36,247.88L216.37,247.69L217.06,248.55L217.07,248.52L217.08,248.5L218.69,249.24L218.74,249.11L218.75,249.04L219.53,249.58L219.65,249.52L219.66,249.42L219.71,249.22L219.9,249.68L220.39,249.56L220.4,249.59L222.89,250.79L222.91,250.68L222.92,250.48L223.02,250.88L223.16,250.34L223.67,250.65L223.68,250.66L224.64,251.2L224.68,251.18L224.7,251.16L226.04,251.56L226.05,251.8L226.54,251.87L226.72,251.36L226.8,251.63L226.81,251.62L229.83,253L229.86,252.74L229.87,252.64L230.12,252.39L230.64,253.05L230.65,253.05L232.63,253.76L232.64,253.81L234.03,254.18L234.04,254.13L234.05,254L235.08,254.6L235.1,254.49L235.11,254.47L236.34,254.95L236.35,254.88L236.36,254.76L236.61,255.26L236.97,254.55L237.14,254.97L237.15,254.97L238.53,255.62L238.54,255.56L238.55,255.53L239.97,256.12L239.98,256.07L239.99,255.96L241.07,256.39L241.08,256.33L242.64,256.92L242.65,256.82L244.98,257.67L245.05,257.51L245.06,257.49L245.93,257.97L245.99,257.89L246,257.86L250.43,259.31L250.46,259.2L250.47,259.01L250.74,258.85L251.22,259.45L251.23,259.41L251.24,259.37L253.11,260.1L253.12,260.08L253.13,259.95L256.58,261.06L256.59,261.02L258.36,261.53L258.37,261.49L259.48,261.94L259.5,261.88L259.51,261.74L260.25,262.14L260.28,262.13L260.29,262.17L261.95,262.63L261.97,262.48L261.98,262.48L262.89,262.96L262.9,262.89L263.93,263.29L263.99,263.18L264,262.96L264.75,263.45L264.77,263.42L264.78,263.44L267.63,264.35L267.64,264.28L267.65,264.21L267.7,264.1L268.45,264.43L268.46,264.38L268.47,264.3L269.26,264.75L269.3,264.66L269.31,264.66L270.34,265.05L270.35,264.96L270.37,264.87L271.29,265.42L271.31,265.32L271.32,265.22L271.38,265.04L271.8,265.48L272.03,265.46L272.04,265.46L274.73,266.25L274.79,266.06L274.8,265.97L275.74,266.58L275.84,266.5L275.85,266.49L277.15,266.92L277.16,266.85L278.05,267.32L278.07,267.19L278.08,267.02L278.25,266.92L278.95,267.36L278.97,267.33L278.98,267.32L281.12,268.11L281.14,267.87L281.15,267.82L283.14,268.47L283.15,268.44L283.16,268.38L284.68,268.97L284.69,268.82L285.99,269.24L286,269.15L286.01,269.15L287.43,269.55L287.44,269.53L287.45,269.52L288.13,269.64L288.19,269.75L288.2,269.82L288.46,270.01L288.65,269.75L288.94,270.03L288.95,270.1L301.59,273.18L301.6,273.19L316.05,276.45L316.06,276.3L319.45,277.2L319.47,277.11L319.48,276.94L321.93,277.68L321.94,277.65L321.95,277.53L322.93,277.93L323.01,277.79L323.02,277.62L323.04,277.46L323.72,278.03L323.73,278.01L326.44,278.6L326.45,278.56L326.46,278.47L327.42,278.84L327.43,278.83L327.44,278.84L333.35,279.72L333.36,279.64L334.19,280.16L334.21,280.13L334.22,280.14L336.75,280.66L336.82,280.45L336.83,280.42L337.79,280.91L337.82,280.88L337.83,280.88L340.2,281.24L340.22,281.11L340.23,281.01L341.07,281.53L341.09,281.52L341.1,281.53L359.92,284.7L359.93,284.71L364.02,285.31L364.03,285.27L365.12,285.52L365.13,285.51L365.14,285.45L367.75,285.91L367.76,285.75L368.97,286.16L368.98,286.14L378.05,287.34L378.07,287.05L378.2,286.9L378.86,287.52L378.88,287.46L378.89,287.47L381.31,287.9L381.32,287.83L383.63,288.16L383.64,288.14L394.26,289.56L394.27,289.6L419.4,292.33L419.41,292.22L420.89,292.54L420.9,292.49L422.79,292.73L422.81,292.62L422.82,292.56L424.09,292.92L424.1,292.92L439.78,294.27L439.79,294.2L440.94,294.45L440.95,294.44L440.96,294.43L453.84,295.44L453.85,295.37L453.86,295.22L454.32,295.56L454.59,295.52L454.6,295.55L459.74,295.95L459.75,295.96L463.65,296.27L463.66,296.23L466.86,296.49L466.87,296.5L505.47,298.54L505.48,298.36L506.27,298.89L506.28,298.86L506.29,298.85L511.75,299.22L511.76,299.2L514.02,299.3L514.03,299.33L520.44,299.6L520.45,299.61L525.33,299.83L525.34,299.84L532.98,300.14L532.99,300.07L533.87,300.18L533.88,300.18L538.34,300.33L538.35,300.3L540.77,300.48L540.78,300.47L545.35,300.63L545.36,300.62L548.76,300.76L548.77,300.75L553.23,300.91L553.24,300.9L557.24,301.04L557.25,301.06L560.38,301.17L560.39,301.2L561.42,301.19L561.43,301.19L568.49,301.39L568.5,301.4L570.82,301.44L570.83,301.39L570.84,301.38L572,301.55L572.01,301.54L578.82,301.74L578.83,301.75L586.88,301.97L586.89,301.99L594.08,302.17L594.09,302.18L598.12,302.26L598.13,302.22L605.45,302.41L605.46,302.42L607.11,302.39L607.12,302.43L622.29,302.79L622.3,302.72L625.9,302.79L625.91,302.68L626.98,302.88L626.99,302.86L633.35,303.04L633.36,303.06L634.67,303.01L634.68,303.04L636.55,303.07L636.56,303.1L640.1,303.12L640.11,303.14L645.05,303.19L645.06,303.21L649.56,303.35L649.57,303.34L654.35,303.38L654.36,303.4L659.15,303.46L659.16,303.47L663.84,303.42L663.85,303.29L664.74,303.59L664.75,303.56L677.98,303.73L677.99,303.71L679.85,303.81L679.86,303.79L683.35,303.81L683.36,303.83L687.56,303.94L687.57,303.91L692.89,303.89L692.9,303.77L694.41,304.03L694.42,304.01L694.43,304L732.98,304.34L732.98,304.39" style="vector-effect: non-scaling-stroke; fill: none; stroke: rgb(136, 204, 238); stroke-opacity: 1; stroke-width: 2px; opacity: 1;"/></g><g class="points"/><g class="text"/></g><g class="trace scatter tracede6177" style="stroke-miterlimit: 2; opacity: 1;"><g class="fills"/><g class="errorbars"/><g class="lines"><path class="js-line" d="M0,311.62L0.76,318.65L0.77,318.65L9.5,318.49L9.51,318.49L247.15,318.98L247.16,318.99L530.23,319.24L530.24,318.28L530.25,319.4L530.98,319.23L531,319.23L732.98,319.16L732.98,319.16" style="vector-effect: non-scaling-stroke; fill: none; stroke: rgb(17, 119, 51); stroke-opacity: 1; stroke-width: 2px; opacity: 1;"/></g><g class="points"/><g class="text"/></g><g class="trace scatter trace00463f" style="stroke-miterlimit: 2; opacity: 1;"><g class="fills"/><g class="errorbars"/><g class="lines"><path class="js-line" d="M0,176.45L0.77,315.54L0.78,315.56L2.32,316.64L2.33,316.64L6.85,317.08L6.86,317.07L22.63,317.37L22.64,317.37L38.18,317.59L38.19,317.59L731.41,318.34L731.42,318.35L732.98,317.9" style="vector-effect: non-scaling-stroke; fill: none; stroke: rgb(51, 34, 136); stroke-opacity: 1; stroke-width: 2px; opacity: 1;"/></g><g class="points"/><g class="text"/></g><g class="trace scatter traced87b98" style="stroke-miterlimit: 2; opacity: 1;"><g class="fills"/><g class="errorbars"/><g class="lines"><path class="js-line" d="M0,257.46L0.76,318.75L0.77,318.76L2.99,319.25L3,319.25L16.58,319.42L16.59,319.41L28.01,319.42L28.02,319.42L732.98,319.83L732.98,319.83" style="vector-effect: non-scaling-stroke; fill: none; stroke: rgb(170, 68, 153); stroke-opacity: 1; stroke-width: 2px; opacity: 1;"/></g><g class="points"/><g class="text"/></g><g class="trace scatter trace59e308" style="stroke-miterlimit: 2; opacity: 1;"><g class="fills"/><g class="errorbars"/><g class="lines"><path class="js-line" d="M0,187.33L0.36,260.93L0.78,259.93L0.79,259.74L3.23,256.46L3.24,256.55L4.14,255.98L4.19,256.03L4.2,256.05L5.24,255.67L5.25,255.79L5.29,255.81L5.86,255.51L6.01,255.59L6.02,255.62L6.88,255.42L6.91,255.51L6.92,255.55L7.79,255.41L7.83,255.48L7.84,255.54L8.84,255.49L8.85,255.63L8.91,255.65L9.6,255.53L9.63,255.62L9.64,255.67L12.46,255.96L12.47,256.14L12.5,255.95L13.2,256.27L13.21,256.09L13.22,256.28L13.23,256.09L13.89,256.42L13.97,256.26L13.98,256.43L13.99,256.24L14.61,256.58L14.72,256.46L14.73,256.55L15.61,256.66L15.62,256.8L15.63,256.61L16.25,256.94L16.36,256.92L16.37,256.83L17.31,257.22L17.32,257.03L18.04,257.41L18.08,257.4L18.09,257.28L19.06,257.67L19.07,257.52L19.82,257.86L19.84,257.85L19.85,257.78L21.02,258.16L21.03,258.15L21.04,258.14L22.96,258.83L22.97,258.66L23.7,259.07L23.74,259.06L23.75,258.94L24.9,259.42L24.91,259.25L25.58,259.69L25.68,259.63L25.69,259.59L27.27,260.22L27.28,260.04L28.05,260.46L28.06,260.33L28.92,260.77L28.93,260.59L29.62,261L29.69,260.94L29.7,260.94L31.12,261.48L31.13,261.35L31.88,261.78L31.9,261.75L31.91,261.65L33.04,262.14L33.05,262.05L33.09,262.04L33.86,262.47L33.87,262.32L34.55,262.73L34.64,262.67L34.65,262.65L35.81,263.14L35.82,263.03L36.56,263.43L36.58,263.42L36.59,263.27L37.31,263.69L37.36,263.62L37.37,263.59L38.37,264.06L38.38,263.9L39.12,264.34L39.15,264.22L39.16,264.27L41.01,265.01L41.02,264.84L41.9,265.33L41.94,265.29L41.95,265.25L43.1,265.76L43.11,265.6L43.87,266L43.88,265.88L44.59,266.28L44.64,266.26L44.65,266.17L45.42,266.58L45.43,266.44L46.33,266.88L46.34,266.81L47.52,267.31L47.53,267.23L48.52,267.72L48.53,267.57L49.29,268L49.3,267.87L50.25,268.33L50.26,268.18L51.02,268.6L51.04,268.48L51.76,268.89L51.81,268.77L51.82,268.87L54.76,269.93L54.77,269.8L54.78,269.94L66.62,274.02L66.63,273.88L67.57,274.33L67.58,274.2L68.5,274.64L68.52,274.5L69.33,274.9L69.35,274.87L69.36,274.85L71.1,275.43L71.11,275.36L72.11,275.78L72.12,275.65L73.21,276.09L73.22,276.06L75.01,276.66L75.02,276.57L76.03,276.96L76.04,276.92L78.98,277.86L78.99,277.74L79.75,278.11L79.76,277.98L80.92,278.46L80.93,278.33L82.25,278.82L82.26,278.72L83.33,279.15L83.34,279.04L84.51,279.49L84.52,279.36L85.55,279.75L85.58,279.71L85.59,279.72L87.58,280.34L87.59,280.21L88.54,280.6L88.56,280.59L88.57,280.48L89.76,280.89L89.77,280.86L91.49,281.37L91.5,281.26L92.69,281.64L92.7,281.63L94.91,282.21L94.92,282.15L96.9,282.75L96.91,282.63L98.37,283.09L98.38,283.02L99.59,283.38L99.6,283.29L100.74,283.67L100.75,283.57L101.79,283.9L101.8,283.83L103.48,284.31L103.49,284.2L104.4,284.53L104.41,284.42L106.63,285L106.64,284.91L107.7,285.23L107.71,285.13L108.72,285.47L108.73,285.35L109.92,285.67L109.93,285.65L111.5,286.02L111.51,285.94L112.46,286.22L112.47,286.18L114.48,286.66L114.49,286.55L115.74,286.89L115.75,286.8L117.53,287.25L117.54,287.15L118.83,287.46L118.84,287.45L121.41,287.97L121.42,287.89L122.81,288.23L122.82,288.14L124.2,288.47L124.21,288.39L125.76,288.75L125.77,288.66L127.57,289.07L127.58,288.98L129.45,289.4L129.46,289.3L130.6,289.6L130.61,289.5L132.28,289.87L132.29,289.76L133.53,290.06L133.54,289.98L134.88,290.28L134.89,290.2L136.23,290.49L136.24,290.41L137.89,290.75L137.9,290.67L139.31,290.96L139.32,290.86L140.58,291.16L140.59,291.06L141.78,291.34L141.79,291.24L143.39,291.53L143.4,291.48L144.66,291.74L144.67,291.65L146.19,291.95L146.2,291.87L148.91,292.34L148.92,292.26L150.47,292.52L150.48,292.5L153.11,292.91L153.12,292.82L154.63,293.11L154.64,293.02L156.01,293.28L156.02,293.18L157.49,293.46L157.5,293.37L160.1,293.78L160.11,293.71L161.7,293.97L161.71,293.93L164.06,294.26L164.07,294.2L166.2,294.53L166.21,294.44L167.86,294.69L167.87,294.67L169.99,294.96L170.01,294.88L171.4,295.1L171.41,295.04L173.3,295.31L173.31,295.25L175.29,295.54L175.3,295.45L176.6,295.66L176.61,295.62L199.68,297.8L199.69,297.89L201.03,297.92L201.04,298L202.51,298.07L202.52,298.11L215.48,299.16L215.49,299.08L216.93,299.24L216.94,299.23L220.93,299.55L220.94,299.52L232.13,300.36L232.14,300.29L233.75,300.45L233.76,300.43L236.6,300.65L236.61,300.59L238.57,300.79L238.58,300.71L240.56,300.91L240.57,300.86L242.37,301L242.38,300.97L244.09,301.13L244.1,301.08L253.49,301.71L253.5,301.63L255.55,301.82L255.56,301.75L257.21,301.9L257.22,301.87L260,302.07L260.01,302.01L262.36,302.2L262.37,302.14L263.98,302.3L263.99,302.24L266.5,302.43L266.51,302.37L268.66,302.55L268.68,302.48L270.56,302.64L270.57,302.58L272.29,302.71L272.3,302.69L275.32,302.9L275.33,302.83L277.33,303L277.34,302.94L309.77,304.47L309.78,304.41L312.08,304.55L312.1,304.52L318.73,304.77L318.74,304.83L320.88,304.85L320.89,304.91L322.64,304.92L322.65,304.98L324.43,305L324.44,305.04L326.59,305.06L326.6,305.12L347.5,305.77L347.51,305.82L349.71,305.82L349.72,305.88L357.46,306.05L357.47,306.11L359.13,306.11L359.14,306.12L363.61,306.24L363.62,306.28L380.92,306.71L380.93,306.68L383.23,306.77L383.24,306.72L386.36,306.85L386.37,306.8L393.62,307.03L393.63,306.99L396.98,307.1L396.99,307.06L399.54,307.17L399.55,307.12L414.48,307.43L414.49,307.39L417.69,307.5L417.7,307.47L423.94,307.62L423.95,307.57L427.02,307.66L427.03,307.61L429.62,307.72L429.63,307.67L432.1,307.75L432.11,307.7L434.28,307.77L434.29,307.76L490.84,308.46L490.85,308.51L492.79,308.49L492.8,308.51L504.78,308.61L504.79,308.57L507.32,308.65L507.33,308.61L667.37,309.3L667.38,309.36L678.25,309.29L678.26,309.33L681.35,309.29L681.36,309.34L683.77,309.32L683.78,309.32L694.53,309.32L694.54,309.29L696,309.32L696.01,309.31L701.74,309.27L701.75,309.32L705.37,309.33L705.38,309.28L715.87,309.33L715.88,309.28L726.53,309.29L726.54,309.33L732.98,309.28L732.98,309.35" style="vector-effect: non-scaling-stroke; fill: none; stroke: rgb(221, 204, 119); stroke-opacity: 1; stroke-width: 2px; opacity: 1;"/></g><g class="points"/><g class="text"/></g><g class="trace scatter trace8d87ca" style="stroke-miterlimit: 2; opacity: 1;"><g class="fills"/><g class="errorbars"/><g class="lines"><path class="js-line" d="M0,244L0.76,308.6L0.77,308.61L3.92,308.91L3.93,308.89L17.34,309.06L17.35,309.05L34.19,309.46L34.2,309.44L51.53,309.87L51.54,309.87L58.4,310.05L58.41,310.04L74.53,310.39L74.54,310.38L89.99,310.69L90,310.68L104.28,310.92L104.29,310.9L110.74,311.03L110.75,311.01L117.1,311.13L117.11,311.1L130.96,311.31L130.97,311.29L137.21,311.38L137.22,311.36L140.33,311.42L140.34,311.41L153.6,311.57L153.61,311.56L166.53,311.7L166.54,311.68L179.45,311.82L179.46,311.8L183.46,311.84L183.47,311.83L187.44,311.87L187.45,311.86L200.28,311.98L200.29,311.96L206.28,312.01L206.29,312L212.22,312.07L212.23,312.05L224.12,312.13L224.14,312.11L236.23,312.18L236.24,312.17L463.45,312.91L463.46,312.92L466.48,312.89L466.49,312.89L477.74,312.91L477.75,312.93L488.9,312.91L488.91,312.93L500.14,312.92L500.15,312.93L511.74,312.88L511.75,312.9L523.49,312.9L523.5,312.89L527.42,312.91L527.43,312.91L732.99,312.81" style="vector-effect: non-scaling-stroke; fill: none; stroke: rgb(68, 170, 153); stroke-opacity: 1; stroke-width: 2px; opacity: 1;"/></g><g class="points"/><g class="text"/></g><g class="trace scatter trace509288" style="stroke-miterlimit: 2; opacity: 1;"><g class="fills"/><g class="errorbars"/><g class="lines"><path class="js-line" d="M0,-452.02L0.12,61.29L0.8,43.86L0.81,43.81L1.88,37.16L1.91,37.26L1.92,37.45L2.77,35.16L2.78,35.33L2.84,35.69L3.32,33.45L3.42,33.64L3.43,33.55L4.22,31.77L4.4,32.08L4.41,32.09L4.49,32.33L5,30.98L5.01,31.14L5.02,31L5.79,31.72L5.81,31.54L5.82,31.45L6.07,31.33L6.3,31.97L6.49,31.66L6.5,30.43L6.6,29.62L7.25,30.19L7.26,30.08L7.43,29.86L7.87,30.51L7.96,30.36L7.97,30.46L8.06,30.22L8.6,30.99L8.73,30.82L8.75,30.51L8.84,29.4L9.5,29.74L9.51,29.87L10.34,30.87L10.37,30.84L10.38,30.78L10.76,31.16L10.85,30.01L10.86,30.12L10.87,29.93L11.67,30.9L11.77,30.82L11.78,30.69L12.13,30.11L12.57,30.62L12.58,30.88L12.66,30.42L13.13,31.46L13.26,31.37L13.27,31.39L13.46,31.69L13.69,30.9L14,31.42L14.01,31.23L14.14,31.11L15.05,32.54L15.07,32.51L15.08,32.36L15.18,32.3L15.86,33.59L15.88,33.55L15.89,33.45L16.03,33.25L16.28,33.98L16.36,33.89L16.37,34L16.53,33.76L16.97,34.74L17.14,34.25L17.15,34.09L17.51,34.64L17.7,32.92L17.97,33.27L17.98,33.39L18.09,33.27L18.83,34.62L18.84,34.46L19.25,35.22L19.62,34.81L19.63,34.61L20.2,35.75L20.42,34.77L20.43,34.62L21.23,36.06L21.27,35.78L21.28,35.74L21.31,34.59L22.03,35.28L22.04,34.91L23.11,36.04L23.13,35.91L23.14,35.91L23.87,36.87L23.95,36.81L23.97,36.75L24.06,36.15L24.62,37.29L24.72,37.03L24.73,36.9L24.8,36.86L25.65,38.36L25.71,38.29L25.72,38.02L25.92,37.62L26.55,38.47L26.58,38.17L26.59,36.97L26.61,36.61L27,37.69L27.31,37.34L27.32,37.46L27.39,37.06L27.98,38.09L28.04,37.93L28.05,38.18L28.17,38.33L28.32,37.35L28.79,38.23L28.8,38.24L29.73,38.9L29.85,38.63L29.86,38.43L29.96,38.35L30.52,39.79L30.69,39.36L30.7,39.2L31.49,39.93L31.5,39.8L32.3,40.91L32.31,40.8L32.32,40.93L33.28,42.41L33.33,42.3L33.34,42.04L33.4,42.22L33.51,40.92L34.18,41.36L34.19,41.44L34.86,42.45L35.03,42.31L35.04,42.21L36.03,43.21L36.04,43.02L36.19,42.57L36.59,43.27L36.6,43.42L37,44.1L37.04,43.08L37.05,42.37L37.06,42.16L37.74,43.22L37.76,43.1L37.77,43.15L37.81,42.85L38.44,43.68L38.47,43.48L38.48,43.63L38.97,44.51L39.25,44.23L39.26,43.66L39.43,43.49L39.97,44.5L40.03,44.24L40.04,44.33L40.1,44.32L40.85,45.29L40.87,45.27L40.89,45.08L41.32,45.69L41.8,45.36L41.81,45.32L42.67,46.05L42.68,45.93L43.58,47.05L43.63,46.88L43.64,46.8L45.9,48.45L45.91,48.27L46.82,49.49L46.84,49.41L46.85,49.25L47,48.97L47.68,50.38L47.7,50.22L47.71,50.17L47.93,49.77L48.4,50.55L48.47,50.43L48.48,50.24L49.36,51.53L49.43,51.11L49.44,51.09L49.52,50.72L50.06,51.77L50.1,51.61L50.11,51.8L50.25,51.55L51.64,53.89L51.69,53.5L51.7,52.82L51.72,52.61L52.39,53.51L52.41,53.4L52.42,53.54L52.99,53.94L53.07,53.05L53.14,53.65L53.15,53.73L53.81,52.86L54.06,53.52L54.07,53.63L54.15,53.33L54.66,54.29L54.78,54.22L54.79,54.17L55.67,55.31L55.68,54.72L56.04,55.3L56.23,54.59L56.36,54.94L56.37,55.06L56.97,55.74L56.98,55.81L57.59,56.23L57.76,55.82L57.77,55.71L58.69,56.97L58.7,56.83L59.76,58.37L59.77,58.23L60.37,58.05L60.55,58.68L60.56,58.54L61.38,59.3L61.39,59.22L62.19,60.37L62.21,60.33L62.22,60.14L62.54,60.44L62.93,59.62L62.97,60.06L62.98,60.05L64.26,61.28L64.33,61.1L64.34,60.98L64.41,60.95L65.28,62.01L65.3,61.87L65.31,61.84L65.46,61.66L66.03,62.53L66.13,62.39L66.14,62.27L66.61,63.02L66.91,62.52L66.92,62.59L67.36,63.02L67.56,61.93L67.79,62.22L67.8,62.38L67.91,62.3L68.7,63.2L68.71,63.1L68.78,62.92L69.25,63.65L69.33,63.51L69.34,63.73L69.55,63.39L70.57,64.69L70.59,64.61L70.6,64.43L71.04,65.08L71.25,64.18L71.37,64.55L71.38,64.48L71.6,63.95L72.54,65.12L72.56,65.01L72.57,64.88L73.07,65.85L73.38,65.71L73.39,65.77L75.25,67.7L75.29,67.39L75.3,67.16L75.37,66.98L75.8,67.77L75.9,67.57L75.91,67.74L75.99,67.59L76.11,68.14L76.58,68.07L76.59,68.1L76.78,68.42L77.03,67.48L77.29,67.9L77.3,67.73L77.4,67.45L77.9,68.22L77.98,68.19L77.99,68.23L78.88,69.61L79.11,68.71L79.12,68.66L79.24,68.47L80.01,69.95L80.03,69.94L80.04,69.97L81.44,71.15L81.47,70.97L81.49,70.62L83.43,72.71L83.78,72.14L83.79,72.02L84.62,73.11L84.79,72.91L84.8,72.9L86.64,73.96L86.66,73.86L86.67,73.77L87.5,74.74L87.58,74.5L87.59,74.5L89.64,76.54L89.67,76.42L89.68,75.79L89.71,75.5L90.29,76.12L90.42,75.92L90.43,75.89L91.67,76.51L91.68,76.56L91.95,76.51L92.39,76.94L92.45,76.77L92.46,76.8L93.37,77.82L93.38,77.79L93.39,77.68L94.37,78.09L94.43,77.94L94.45,77.86L95.34,78.08L95.35,78.07L95.36,78.02L95.53,77.93L96.24,78.82L96.25,78.8L96.26,78.78L97.46,79.61L97.47,79.69L97.54,79.53L97.9,80.14L98.06,80.2L98.07,80.26L98.17,80.01L98.61,80.69L98.64,80.67L98.65,80.75L107.45,86.63L107.46,86.73L107.56,85.61L108.21,86.12L108.22,86.11L109.13,86.84L109.14,86.81L109.15,86.77L109.2,86.92L109.49,86.14L109.87,86.58L109.88,86.52L111.24,87.41L111.26,87.28L111.27,87.29L112.11,88.04L112.12,88L112.13,87.89L113.02,88.74L113.04,88.68L113.06,88.61L113.41,89.02L113.47,88.12L113.79,88.49L113.8,88.47L114.07,89L114.11,88.43L114.59,88.87L114.6,88.82L116.24,90.15L116.25,90.1L116.26,90.04L117.26,90.75L117.38,90.6L117.39,90.54L118.23,91.31L118.29,90.94L118.3,90.81L119.35,91.89L119.45,91.81L119.46,91.69L120.13,92.68L120.31,92.36L120.32,92.31L121.2,93.2L121.42,92.64L121.43,92.61L121.73,92.87L121.77,92L122.16,92.4L122.17,92.35L123.32,93.08L123.33,93L123.34,92.87L124.37,93.41L124.39,93.34L124.4,93.24L125.04,93.96L125.21,93.9L125.22,93.85L126.12,94.54L126.14,94.51L126.15,94.45L126.21,94.3L126.67,94.98L126.74,94.83L126.75,94.97L126.87,95.11L127.01,94.7L127.45,95.19L127.46,95.24L128.53,96.05L128.7,95.65L128.71,95.55L129.45,96.4L129.53,96.11L129.54,96.17L130.3,96.65L130.32,96.57L130.33,96.49L131.17,97.21L131.26,97.18L131.27,97.16L131.83,97.65L132.11,96.85L132.12,96.95L132.13,97.07L134.06,98.18L134.07,98.14L134.08,98.06L134.99,98.76L135.01,98.7L135.02,98.72L135.92,99.35L135.98,99.22L135.99,99.2L137.12,100.18L137.13,100.11L137.14,99.85L137.71,100.19L137.73,99.61L137.87,99.68L137.88,99.63L139.19,100.84L139.27,100.69L139.28,100.66L139.54,101.1L140.05,100.89L140.06,100.9L145.11,103.61L145.12,103.43L145.13,103.14L145.84,103.46L145.85,103.58L145.86,103.6L146.64,103.8L146.7,103.94L146.71,103.98L148.86,105.62L149.05,105.39L149.06,105.27L149.29,104.81L149.84,105.18L149.86,105.11L149.87,105.04L151.04,106L151.05,105.95L151.06,105.91L151.65,106.07L151.71,106.24L151.72,106.28L152.32,106.32L152.45,106.48L152.46,106.58L154.56,107.85L154.61,107.57L154.62,107.5L155.46,107.4L155.54,107.48L155.55,107.52L159.1,109.46L159.18,109.35L159.19,109.26L160.23,110L160.37,109.68L160.38,109.65L160.56,109.22L161.09,109.73L161.1,109.78L162.57,110.48L162.58,110.55L165.59,112.17L165.61,111.63L165.62,111.5L167.01,112.19L167.03,112.09L167.04,112.03L168.25,112.76L168.26,112.7L168.27,112.65L169.07,113.08L169.08,113.03L174.22,115.57L174.23,115.49L174.24,115.23L174.25,114.99L174.97,115.43L174.98,115.42L174.99,115.38L175.16,115.26L176.12,115.78L176.13,115.77L176.14,115.67L176.96,116.09L177.01,116L177.02,115.91L177.91,116.31L177.92,116.25L177.93,116.16L179.12,116.84L179.18,116.75L179.19,116.7L180.29,117.49L180.3,117.44L181.44,117.77L181.46,117.9L181.47,117.94L182.74,118.59L182.75,118.62L182.96,118.37L184.02,118.88L184.03,118.84L184.04,118.83L185.23,119.48L185.25,119.46L185.26,119.45L186.02,120.08L186.12,120.04L186.13,120.01L187.12,120.57L187.13,120.55L187.14,120.42L187.41,120.27L187.85,120.71L187.93,120.63L187.94,120.59L188.27,120.78L188.36,120.19L188.37,120L189.49,120.61L189.52,120.58L189.53,120.58L191.02,121.42L191.04,121.32L191.05,121.32L192.22,121.91L192.23,121.8L193.11,122.39L193.13,122.34L193.37,121.83L193.79,122.27L193.86,122.16L193.87,122.12L194.13,121.95L194.58,122.41L194.66,122.32L194.67,122.25L195.11,122.6L195.2,121.96L195.4,122.11L195.41,122.08L208.39,127.43L208.41,127.16L208.42,127.02L208.86,127.3L209.25,127.14L209.26,127.15L211.13,127.49L211.15,127.41L211.17,127.36L212.07,127.83L212.1,127.77L212.11,127.74L214.44,128.72L214.45,128.75L216.6,129.24L216.61,129.25L219.74,130.26L219.75,130.28L219.8,130.1L220.44,130.5L220.48,130.45L220.49,130.46L220.65,130.29L220.99,130.7L221.22,130.61L221.23,130.68L222.62,131.3L222.63,131.38L222.72,131.14L223.38,131.47L223.39,131.5L223.43,131.35L223.94,131.78L224.09,131.71L224.1,131.76L226.67,132.33L226.71,132.21L226.72,132.12L227.67,132.59L227.68,132.53L227.69,132.36L228.29,132.45L228.39,132.62L228.4,132.68L229.47,133L229.48,133.07L229.49,133.13L230.94,133.78L230.96,133.71L230.97,133.65L232.06,133.64L232.09,133.59L232.1,133.57L234.34,134.43L234.35,134.36L234.36,134.3L235.39,134.76L235.4,134.73L235.42,134.67L236.76,135.32L236.8,135.27L236.81,135.22L237.32,135.09L237.56,135.33L237.57,135.43L238.34,135.43L238.4,135.53L238.41,135.58L239.75,136.17L239.76,136.15L239.77,136.04L241.14,136.57L241.15,136.58L241.57,136.81L241.71,136.1L241.72,135.96L242.72,136.46L242.98,136.18L242.99,136.17L245.1,137.14L245.11,137.04L245.12,137.03L246,137.47L246.05,137.43L246.06,137.29L247.03,137.89L247.13,137.78L247.14,137.71L248.07,138.16L248.08,138.11L248.09,138.02L249.15,138.2L249.17,138.13L249.18,138.12L250.64,138.85L250.65,138.79L251.35,138.85L251.42,138.97L251.43,139.04L251.88,138.87L252.2,139.11L252.21,139.15L253.73,139.53L253.74,139.61L258.67,141.1L258.69,141.02L258.7,140.99L260.21,141.74L260.23,141.64L261.01,141.81L261.03,141.53L261.04,141.52L262.04,141.9L262.06,141.81L262.07,141.71L262.98,142.05L263.04,141.94L263.05,141.88L263.88,142.1L263.95,141.98L263.96,141.92L264.91,142.41L264.94,142.34L264.95,142.33L267.45,143.15L267.46,143.18L268.35,143.43L268.36,143.46L269.69,143.62L269.7,143.58L270.81,144.15L270.82,144.07L271.94,144.45L271.96,144.38L271.97,144.33L273.79,144.69L273.81,144.64L273.82,144.59L274.76,145.1L274.78,145.04L274.79,145.02L276.69,145.72L276.7,145.7L276.71,145.63L278.87,146.01L278.88,145.97L278.89,145.91L280.04,146.38L280.05,146.22L280.13,146.03L280.78,146.32L280.8,146.26L280.81,146.29L290.72,148.91L290.73,148.86L291.65,149.22L291.68,149.12L291.69,149.12L310.27,153.44L310.28,153.58L311.04,153.98L311.05,153.91L317.86,155.05L317.87,154.99L318.87,155.4L318.88,155.36L323.62,156.64L323.63,156.72L324.72,156.85L324.73,156.89L324.74,156.9L326.44,157.18L326.45,157.25L327.86,157.58L327.87,157.6L330.29,157.86L330.3,157.82L338.33,159.6L338.34,159.63L339.34,159.67L339.35,159.72L339.36,159.76L344.56,160.75L344.57,160.8L345.4,160.81L345.41,160.85L345.42,160.89L347.68,161.49L347.69,161.45L351.15,162.33L351.16,162.26L352.36,162.51L352.37,162.49L352.38,162.47L353.14,162.49L353.15,162.57L353.16,162.6L353.19,162.38L353.92,162.56L353.93,162.57L355.41,162.8L355.42,162.88L356.47,163.07L356.48,163.13L357.58,163.28L357.59,163.31L357.6,163.37L358.7,163.54L358.71,163.59L359.53,163.59L359.56,163.66L359.57,163.67L366.83,164.92L366.84,164.88L368.77,165.37L368.78,165.35L368.79,165.3L370.41,165.76L370.42,165.72L370.43,165.69L372.37,166.26L372.39,166.23L372.4,166.16L373.27,166.28L373.29,166.22L373.3,166.18L395.82,170.15L395.83,170.07L395.84,170.03L396.61,170.33L396.75,170.25L396.76,170.27L397.55,170.3L397.6,170.35L397.61,170.35L400.67,170.87L400.68,170.93L402.71,171.28L402.73,171.24L402.74,171.17L406.03,171.94L406.05,171.88L406.06,171.85L407.58,172.27L407.6,172.21L407.61,172.15L408.59,172.59L408.61,172.56L408.62,172.48L410.08,172.56L410.1,172.62L410.11,172.63L412.36,173.12L412.38,173.07L412.39,173.07L424.22,174.77L424.23,174.71L425.21,175.02L425.22,174.95L427.86,175.73L427.87,175.72L536.65,190.01L536.66,189.97L538.39,190.27L538.4,190.24L543.12,190.74L543.13,190.73L544.99,191.08L545,191.01L548.61,191.52L548.62,191.54L550.66,191.76L550.67,191.77L580.54,195.12L580.55,195.05L582.76,195.34L582.77,195.29L583.99,195.54L584.01,195.52L584.02,195.44L586.44,195.71L586.45,195.66L588.39,195.84L588.4,195.81L607.74,197.71L607.75,197.67L609.84,197.96L609.85,197.9L614.13,198.29L614.14,198.23L615.78,198.51L615.79,198.47L617.35,198.63L617.36,198.56L638.3,200.67L638.31,200.7L642.76,201.07L642.77,201.1L644.22,201.14L644.23,201.19L644.24,201.2L647.48,201.48L647.49,201.52L652.24,201.86L652.25,201.91L665.11,202.95L665.12,202.9L666.44,203.18L666.45,203.13L668.21,203.3L668.22,203.26L674.52,203.8L674.53,203.78L676.47,204.02L676.48,203.97L679.82,204.25L679.83,204.23L683.29,204.42L683.3,204.37L684.61,204.51L684.62,204.47L686.29,204.66L686.3,204.59L687.95,204.77L687.96,204.75L693.75,205.23L693.76,205.2L696.96,205.5L696.97,205.47L701.03,205.85L701.04,205.8L702.62,205.99L702.63,205.93L708.14,206.37L708.15,206.3L709.75,206.44L709.76,206.4L711.43,206.61L711.45,206.57L711.46,206.56L713.32,206.7L713.33,206.66L713.34,206.66L719.39,207.17L719.4,207.12L722.96,207.39L722.97,207.33L725.03,207.49L725.04,207.46L725.05,207.38L726.29,207.43L726.3,207.45L726.31,207.47L732.98,207.98" style="vector-effect: non-scaling-stroke; fill: none; stroke: rgb(153, 153, 51); stroke-opacity: 1; stroke-width: 2px; opacity: 1;"/></g><g class="points"/><g class="text"/></g></g></g><g class="overplot"/><path class="xlines-above crisp" d="M78,421H813" style="fill: none; stroke-width: 2px; stroke: rgb(0, 0, 0); stroke-opacity: 1;"/><path class="ylines-above crisp" d="M79,100V420" style="fill: none; stroke-width: 2px; stroke: rgb(0, 0, 0); stroke-opacity: 1;"/><g class="overlines-above"/><g class="xaxislayer-above"><path class="xtick ticks crisp" d="M0,422v5" transform="translate(80,0)" style="stroke: rgb(68, 68, 68); stroke-opacity: 1; stroke-width: 1px;"/><path class="xtick ticks crisp" d="M0,422v5" transform="translate(202.17000000000002,0)" style="stroke: rgb(68, 68, 68); stroke-opacity: 1; stroke-width: 1px;"/><path class="xtick ticks crisp" d="M0,422v5" transform="translate(324.33000000000004,0)" style="stroke: rgb(68, 68, 68); stroke-opacity: 1; stroke-width: 1px;"/><path class="xtick ticks crisp" d="M0,422v5" transform="translate(446.5,0)" style="stroke: rgb(68, 68, 68); stroke-opacity: 1; stroke-width: 1px;"/><path class="xtick ticks crisp" d="M0,422v5" transform="translate(568.6700000000001,0)" style="stroke: rgb(68, 68, 68); stroke-opacity: 1; stroke-width: 1px;"/><path class="xtick ticks crisp" d="M0,422v5" transform="translate(690.83,0)" style="stroke: rgb(68, 68, 68); stroke-opacity: 1; stroke-width: 1px;"/><path class="xtick ticks crisp" d="M0,422v5" transform="translate(813,0)" style="stroke: rgb(68, 68, 68); stroke-opacity: 1; stroke-width: 1px;"/><g class="xtick"><text text-anchor="middle" x="0" y="448.6" transform="translate(80,0)" style="font-family: 'Times New Roman', monospace; font-size: 18px; fill: rgb(105, 105, 105); fill-opacity: 1; white-space: pre; opacity: 1;">0</text></g><g class="xtick"><text text-anchor="middle" x="0" y="448.6" style="font-family: 'Times New Roman', monospace; font-size: 18px; fill: rgb(105, 105, 105); fill-opacity: 1; white-space: pre; opacity: 1;" transform="translate(202.17000000000002,0)">20</text></g><g class="xtick"><text text-anchor="middle" x="0" y="448.6" style="font-family: 'Times New Roman', monospace; font-size: 18px; fill: rgb(105, 105, 105); fill-opacity: 1; white-space: pre; opacity: 1;" transform="translate(324.33000000000004,0)">40</text></g><g class="xtick"><text text-anchor="middle" x="0" y="448.6" style="font-family: 'Times New Roman', monospace; font-size: 18px; fill: rgb(105, 105, 105); fill-opacity: 1; white-space: pre; opacity: 1;" transform="translate(446.5,0)">60</text></g><g class="xtick"><text text-anchor="middle" x="0" y="448.6" style="font-family: 'Times New Roman', monospace; font-size: 18px; fill: rgb(105, 105, 105); fill-opacity: 1; white-space: pre; opacity: 1;" transform="translate(568.6700000000001,0)">80</text></g><g class="xtick"><text text-anchor="middle" x="0" y="448.6" style="font-family: 'Times New Roman', monospace; font-size: 18px; fill: rgb(105, 105, 105); fill-opacity: 1; white-space: pre; opacity: 1;" transform="translate(690.83,0)">100</text></g><g class="xtick"><text text-anchor="middle" x="0" y="448.6" style="font-family: 'Times New Roman', monospace; font-size: 18px; fill: rgb(105, 105, 105); fill-opacity: 1; white-space: pre; opacity: 1;" transform="translate(813,0)">120</text></g></g><g class="yaxislayer-above"><path class="ytick ticks crisp" d="M78,0h-5" transform="translate(0,420)" style="stroke: rgb(68, 68, 68); stroke-opacity: 1; stroke-width: 1px;"/><path class="ytick ticks crisp" d="M78,0h-5" transform="translate(0,356)" style="stroke: rgb(68, 68, 68); stroke-opacity: 1; stroke-width: 1px;"/><path class="ytick ticks crisp" d="M78,0h-5" transform="translate(0,292)" style="stroke: rgb(68, 68, 68); stroke-opacity: 1; stroke-width: 1px;"/><path class="ytick ticks crisp" d="M78,0h-5" transform="translate(0,228)" style="stroke: rgb(68, 68, 68); stroke-opacity: 1; stroke-width: 1px;"/><path class="ytick ticks crisp" d="M78,0h-5" transform="translate(0,164)" style="stroke: rgb(68, 68, 68); stroke-opacity: 1; stroke-width: 1px;"/><path class="ytick ticks crisp" d="M78,0h-5" transform="translate(0,100)" style="stroke: rgb(68, 68, 68); stroke-opacity: 1; stroke-width: 1px;"/><g class="ytick"><text text-anchor="end" x="69.4" y="6.3" transform="translate(0,420)" style="font-family: 'Times New Roman', monospace; font-size: 18px; fill: rgb(105, 105, 105); fill-opacity: 1; white-space: pre; opacity: 1;">0</text></g><g class="ytick"><text text-anchor="end" x="69.4" y="6.3" style="font-family: 'Times New Roman', monospace; font-size: 18px; fill: rgb(105, 105, 105); fill-opacity: 1; white-space: pre; opacity: 1;" transform="translate(0,356)">5</text></g><g class="ytick"><text text-anchor="end" x="69.4" y="6.3" style="font-family: 'Times New Roman', monospace; font-size: 18px; fill: rgb(105, 105, 105); fill-opacity: 1; white-space: pre; opacity: 1;" transform="translate(0,292)">10</text></g><g class="ytick"><text text-anchor="end" x="69.4" y="6.3" style="font-family: 'Times New Roman', monospace; font-size: 18px; fill: rgb(105, 105, 105); fill-opacity: 1; white-space: pre; opacity: 1;" transform="translate(0,228)">15</text></g><g class="ytick"><text text-anchor="end" x="69.4" y="6.3" style="font-family: 'Times New Roman', monospace; font-size: 18px; fill: rgb(105, 105, 105); fill-opacity: 1; white-space: pre; opacity: 1;" transform="translate(0,164)">20</text></g><g class="ytick"><text text-anchor="end" x="69.4" y="6.3" style="font-family: 'Times New Roman', monospace; font-size: 18px; fill: rgb(105, 105, 105); fill-opacity: 1; white-space: pre; opacity: 1;" transform="translate(0,100)">25</text></g></g><g class="overaxes-above"/></g></g><g class="polarlayer"/><g class="smithlayer"/><g class="ternarylayer"/><g class="geolayer"/><g class="funnelarealayer"/><g class="pielayer"/><g class="iciclelayer"/><g class="treemaplayer"/><g class="sunburstlayer"/><g class="glimages"/><defs id="topdefs-fba8c1"><g class="clips"/><clipPath id="legendfba8c1"><rect width="160" height="195" x="0" y="0"/></clipPath></defs><g class="layer-above"><g class="imagelayer"/><g class="shapelayer"/></g><g class="infolayer"><g class="legend" pointer-events="all" transform="translate(827.66,100)"><rect class="bg" shape-rendering="crispEdges" width="160" height="195" x="0" y="0" style="stroke: rgb(68, 68, 68); stroke-opacity: 1; fill: rgb(0, 0, 0); fill-opacity: 0; stroke-width: 0px;"/><g class="scrollbox" transform="" clip-path="url(#legendfba8c1)"><g class="groups"><g class="traces" transform="translate(0,18.200000000000003)" style="opacity: 1;"><text class="legendtext" text-anchor="start" x="40" y="7.0200000000000005" style="font-family: 'Times New Roman', monospace; font-size: 18px; fill: rgb(105, 105, 105); fill-opacity: 1; white-space: pre;">IrO​<tspan style="font-size:70%" dy="0.3em">x</tspan><tspan dy="-0.21em">​</tspan></text><g class="layers" style="opacity: 1;"><g class="legendfill"/><g class="legendlines"><path class="js-line" d="M5,0h30" style="fill: none; stroke: rgb(136, 204, 238); stroke-opacity: 1; stroke-width: 2px;"/></g><g class="legendsymbols"><g class="legendpoints"/></g></g><rect class="legendtoggle" x="0" y="-13.200000000000001" width="154.8125" height="26.400000000000002" style="fill: rgb(0, 0, 0); fill-opacity: 0;"/></g><g class="traces" transform="translate(0,44.6)" style="opacity: 1;"><text class="legendtext" text-anchor="start" x="40" y="7.0200000000000005" style="font-family: 'Times New Roman', monospace; font-size: 18px; fill: rgb(105, 105, 105); fill-opacity: 1; white-space: pre;">FeN​<tspan style="font-size:70%" dy="0.3em">x</tspan><tspan dy="-0.21em">​</tspan></text><g class="layers" style="opacity: 1;"><g class="legendfill"/><g class="legendlines"><path class="js-line" d="M5,0h30" style="fill: none; stroke: rgb(17, 119, 51); stroke-opacity: 1; stroke-width: 2px;"/></g><g class="legendsymbols"><g class="legendpoints"/></g></g><rect class="legendtoggle" x="0" y="-13.200000000000001" width="154.8125" height="26.400000000000002" style="fill: rgb(0, 0, 0); fill-opacity: 0;"/></g><g class="traces" transform="translate(0,71)" style="opacity: 1;"><text class="legendtext" text-anchor="start" x="40" y="7.0200000000000005" style="font-family: 'Times New Roman', monospace; font-size: 18px; fill: rgb(105, 105, 105); fill-opacity: 1; white-space: pre;">CoN​<tspan style="font-size:70%" dy="0.3em">x</tspan><tspan dy="-0.21em">​</tspan></text><g class="layers" style="opacity: 1;"><g class="legendfill"/><g class="legendlines"><path class="js-line" d="M5,0h30" style="fill: none; stroke: rgb(51, 34, 136); stroke-opacity: 1; stroke-width: 2px;"/></g><g class="legendsymbols"><g class="legendpoints"/></g></g><rect class="legendtoggle" x="0" y="-13.200000000000001" width="154.8125" height="26.400000000000002" style="fill: rgb(0, 0, 0); fill-opacity: 0;"/></g><g class="traces" transform="translate(0,97.4)" style="opacity: 1;"><text class="legendtext" text-anchor="start" x="40" y="7.0200000000000005" style="font-family: 'Times New Roman', monospace; font-size: 18px; fill: rgb(105, 105, 105); fill-opacity: 1; white-space: pre;">NiN​<tspan style="font-size:70%" dy="0.3em">x</tspan><tspan dy="-0.21em">​</tspan></text><g class="layers" style="opacity: 1;"><g class="legendfill"/><g class="legendlines"><path class="js-line" d="M5,0h30" style="fill: none; stroke: rgb(170, 68, 153); stroke-opacity: 1; stroke-width: 2px;"/></g><g class="legendsymbols"><g class="legendpoints"/></g></g><rect class="legendtoggle" x="0" y="-13.200000000000001" width="154.8125" height="26.400000000000002" style="fill: rgb(0, 0, 0); fill-opacity: 0;"/></g><g class="traces" transform="translate(0,123.80000000000001)" style="opacity: 1;"><text class="legendtext" text-anchor="start" x="40" y="7.0200000000000005" style="font-family: 'Times New Roman', monospace; font-size: 18px; fill: rgb(105, 105, 105); fill-opacity: 1; white-space: pre;">Co​<tspan style="font-size:70%" dy="0.3em">30</tspan><tspan dy="-0.21em">​</tspan>Ni​<tspan style="font-size:70%" dy="0.3em">60</tspan><tspan dy="-0.21em">​</tspan>Fe​<tspan style="font-size:70%" dy="0.3em">10</tspan><tspan dy="-0.21em">​</tspan>N​<tspan style="font-size:70%" dy="0.3em">x</tspan><tspan dy="-0.21em">​</tspan></text><g class="layers" style="opacity: 1;"><g class="legendfill"/><g class="legendlines"><path class="js-line" d="M5,0h30" style="fill: none; stroke: rgb(221, 204, 119); stroke-opacity: 1; stroke-width: 2px;"/></g><g class="legendsymbols"><g class="legendpoints"/></g></g><rect class="legendtoggle" x="0" y="-13.200000000000001" width="154.8125" height="26.400000000000002" style="fill: rgb(0, 0, 0); fill-opacity: 0;"/></g><g class="traces" transform="translate(0,150.2)" style="opacity: 1;"><text class="legendtext" text-anchor="start" x="40" y="7.0200000000000005" style="font-family: 'Times New Roman', monospace; font-size: 18px; fill: rgb(105, 105, 105); fill-opacity: 1; white-space: pre;">Co​<tspan style="font-size:70%" dy="0.3em">45</tspan><tspan dy="-0.21em">​</tspan>Ni​<tspan style="font-size:70%" dy="0.3em">45</tspan><tspan dy="-0.21em">​</tspan>Fe​<tspan style="font-size:70%" dy="0.3em">10</tspan><tspan dy="-0.21em">​</tspan>N​<tspan style="font-size:70%" dy="0.3em">x</tspan><tspan dy="-0.21em">​</tspan></text><g class="layers" style="opacity: 1;"><g class="legendfill"/><g class="legendlines"><path class="js-line" d="M5,0h30" style="fill: none; stroke: rgb(68, 170, 153); stroke-opacity: 1; stroke-width: 2px;"/></g><g class="legendsymbols"><g class="legendpoints"/></g></g><rect class="legendtoggle" x="0" y="-13.200000000000001" width="154.8125" height="26.400000000000002" style="fill: rgb(0, 0, 0); fill-opacity: 0;"/></g><g class="traces" transform="translate(0,176.6)" style="opacity: 1;"><text class="legendtext" text-anchor="start" x="40" y="7.0200000000000005" style="font-family: 'Times New Roman', monospace; font-size: 18px; fill: rgb(105, 105, 105); fill-opacity: 1; white-space: pre;">Co​<tspan style="font-size:70%" dy="0.3em">57</tspan><tspan dy="-0.21em">​</tspan>Ni​<tspan style="font-size:70%" dy="0.3em">14</tspan><tspan dy="-0.21em">​</tspan>Fe​<tspan style="font-size:70%" dy="0.3em">29</tspan><tspan dy="-0.21em">​</tspan>N​<tspan style="font-size:70%" dy="0.3em">x</tspan><tspan dy="-0.21em">​</tspan></text><g class="layers" style="opacity: 1;"><g class="legendfill"/><g class="legendlines"><path class="js-line" d="M5,0h30" style="fill: none; stroke: rgb(153, 153, 51); stroke-opacity: 1; stroke-width: 2px;"/></g><g class="legendsymbols"><g class="legendpoints"/></g></g><rect class="legendtoggle" x="0" y="-13.200000000000001" width="154.8125" height="26.400000000000002" style="fill: rgb(0, 0, 0); fill-opacity: 0;"/></g></g></g><rect class="scrollbar" rx="20" ry="3" width="0" height="0" x="0" y="0" style="fill: rgb(128, 139, 164); fill-opacity: 1;"/></g><g class="g-gtitle"/><g class="g-xtitle"><text class="xtitle" x="446.5" y="483.009375" text-anchor="middle" style="font-family: 'Times New Roman', monospace; font-size: 22px; fill: rgb(105, 105, 105); opacity: 1; font-weight: normal; white-space: pre;">Time (min)</text></g><g class="g-ytitle" transform="translate(2.259765625,0)"><text class="ytitle" transform="rotate(-90,20.990625,260)" x="20.990625" y="260" text-anchor="middle" style="font-family: 'Times New Roman', monospace; font-size: 22px; fill: rgb(105, 105, 105); opacity: 1; font-weight: normal; white-space: pre;">Current (mA/cm​<tspan style="font-size:70%" dy="-0.6em">2</tspan><tspan dy="0.42em">​</tspan>/mg)</text></g></g></svg>