<svg class="main-svg" xmlns="http://www.w3.org/2000/svg" xmlns:xlink="http://www.w3.org/1999/xlink" width="600" height="500" style="" viewBox="0 0 600 500"><rect x="0" y="0" width="600" height="500" style="fill: rgb(0, 0, 0); fill-opacity: 0;"/><defs id="defs-9e5e42"><g class="clips"><clipPath id="clip9e5e42xyplot" class="plotclip"><rect width="340" height="320"/></clipPath><clipPath class="axesclip" id="clip9e5e42x"><rect x="80" y="0" width="340" height="500"/></clipPath><clipPath class="axesclip" id="clip9e5e42y"><rect x="0" y="100" width="600" height="320"/></clipPath><clipPath class="axesclip" id="clip9e5e42xy"><rect x="80" y="100" width="340" height="320"/></clipPath></g><g class="gradients"/><g class="patterns"/></defs><g class="bglayer"><rect class="bg" x="80" y="100" width="340" height="320" style="fill: rgb(0, 0, 0); fill-opacity: 0; stroke-width: 0;"/></g><g class="layer-below"><g class="imagelayer"/><g class="shapelayer"/></g><g class="cartesianlayer"><g class="subplot xy"><g class="layer-subplot"><g class="shapelayer"/><g class="imagelayer"/></g><g class="minor-gridlayer"><g class="x"/><g class="y"/></g><g class="gridlayer"><g class="x"/><g class="y"/></g><g class="zerolinelayer"><path class="yzl zl crisp" transform="translate(0,407.2)" d="M80,0h340" style="stroke: rgb(128, 128, 128); stroke-opacity: 1; stroke-width: 1px;"/></g><path class="xlines-below"/><path class="ylines-below"/><g class="overlines-below"/><g class="xaxislayer-below"/><g class="yaxislayer-below"/><g class="overaxes-below"/><g class="plot" transform="translate(80,100)" clip-path="url(#clip9e5e42xyplot)"><g class="scatterlayer mlayer"><g class="trace scatter tracef0fa4c" style="stroke-miterlimit: 2; opacity: 1;"><g class="fills"/><g class="errorbars"/><g class="lines"><path class="js-line" d="M-139.12,307.32L-110.62,306.95L-110.47,306.95L-13.61,306.92L-14.1,306.93L-12.41,306.93L-12.65,306.93L126.1,306.18L126.9,306.14L143.66,303.34L143.98,303.2L152.95,299.86L152.81,299.66L152.59,299.45L156.06,298.08L156.25,297.84L156.09,297.6L157.46,297.35L157.04,297.1L158.19,296.84L157.63,296.58L158.82,296.32L159,296.06L161.89,294.64L161.26,294.35L163.42,293.44L163.04,292.82L163.63,292.51L165.51,291.53L165.39,291.2L166.9,290.15L166.6,289.81L168.65,288.73L168.41,288.37L170.36,287.23L169.84,286.84L172.45,284.86L172.7,284.45L174.72,282.79L174.83,282.35L176.04,281.06L176.41,280.6L177.75,279.1L178.18,278.66L180.51,276.33L179.87,275.84L180.32,275.37L181.97,274.89L181.28,274.41L181.92,273.88L181.66,273.41L183.13,272.94L182.91,271.93L183.96,271.43L186.68,268.31L186.36,267.75L187.74,266.18L188.34,265.61L188.21,265.08L188.88,264.54L190.96,261.13L191.04,260.55L191.06,259.98L192.01,259.44L192.36,258.25L192.51,257.66L194.96,255.88L193.45,255.27L195.7,254.08L195.87,253.42L195.66,252.8L196.34,252.23L197.53,249.73L198.81,249.12L198.44,248.47L199.16,247.79L198.61,247.17L200.22,246.53L199.85,244.56L201.24,243.93L202.32,242.6L201.43,241.93L203.32,240.65L203.54,239.95L202.85,239.24L204.42,238.57L204.46,237.89L205.31,237.17L204.87,235.78L205.05,235.1L206.95,234.38L206.18,233.68L206.95,232.34L208.57,231.6L207.39,230.85L208.6,230.14L208.34,229.47L209.58,228.76L209.18,227.24L209.92,226.52L211.04,225.07L210.7,224.36L210.86,223.66L212.26,222.94L212.41,220.6L213.45,219.83L214.21,216.84L215.7,216.09L214.74,215.26L215.81,214.5L215.21,213.75L216.76,212.96L216.8,211.38L217.31,210.65L218.56,208.31L217.99,207.31L219.21,205.47L219.24,204.65L220.93,201.44L221.06,200.6L222.21,198.08L222.23,197.24L222.73,196.43L224.09,195.68L223.79,193.22L225.13,192.41L224.66,191.52L225.66,190.69L225.31,189.83L226.57,189.01L227.15,185.67L227.9,184.79L227.62,183.88L228.25,183.01L228.4,182.2L229.41,181.35L230.44,177.01L231.13,176.1L230.15,175.22L231.58,174.33L232.92,173.48L231.4,172.62L233.55,170.03L233.54,169.05L235.05,165.37L234.59,164.49L236.67,161.77L236.15,160.81L238.48,155.3L238.91,154.34L239.37,152.45L239.22,151.53L240.25,149.67L240.47,148.8L242.02,143.75L242.54,142.86L242.13,141.01L243.35,140.1L244.2,138.24L244.14,137.31L244.14,136.28L245.14,135.37L245.71,133.39L245.34,132.36L246.97,130.38L246.96,129.37L246.51,128.44L247.35,127.54L248.2,125.53L247.8,124.48L249.52,122.63L249.18,121.67L249.06,119.77L251.15,118.84L250.17,116.71L251.33,115.67L251.2,114.57L252.47,113.62L251.68,112.61L252.06,111.62L252.55,110.67L253.91,109.71L253.67,107.82L253.69,106.78L254.96,105.78L254.62,104.71L254.5,102.76L256.07,101.67L256.36,98.63L257.28,97.58L258.75,89.31L260,88.41L260.42,85.47L261.51,84.43L260.62,82.18L261.69,81.18L262.69,77.94L262.44,76.94L263.93,74.94L263.55,73.56L266.78,64.38L266.09,63.39L266.7,61.35L267.08,60.01L268.45,55.68L268.42,54.46L271.81,45.55L271.28,44.42L272.76,41.32L272.36,40.31L273.64,36.78L273.59,35.73L274.77,33.45L274.09,34.53L274.42,35.89L272.92,39.84L273.4,40.79L271.83,43.41L272.1,44.63L272.44,45.76L271.76,47.01L270.88,48.46L271.41,49.75L269.51,53.35L270.15,54.53L268.44,61.8L267.34,62.84L267.66,66.5L265.74,67.52L266.3,68.72L265.79,70L266.62,71.06L265.29,72.19L264.85,73.22L265.34,74.47L265.02,76.84L263.82,77.84L263.36,78.84L264.08,80.01L264.08,81.12L262.83,82.29L261.76,83.51L262.4,84.81L262.83,85.84L261.95,86.93L261.04,89.43L261.56,90.39L259.85,93.82L260.4,95.02L258.78,97.14L258.96,98.25L259.12,99.38L258.09,100.4L257.13,101.54L257.49,102.63L258.04,103.7L257.62,104.76L256.4,105.85L256.6,106.96L254.9,112.47L254.37,113.55L254.09,115.79L253.8,116.8L254.09,117.86L252.79,118.91L252.36,119.9L252.82,121.01L252.29,123.15L251.49,124.29L251.34,127.37L250.26,128.42L248.51,134.77L248.84,135.71L247.49,137.85L247.43,138.92L247.53,139.97L246.42,140.91L245.77,142.96L246.43,143.96L246.19,144.9L244.88,145.84L244.41,146.9L245.33,147.91L243.88,149.87L243.84,150.91L240.97,159.83L241.29,160.75L239.52,162.7L238.78,163.71L240.03,164.76L239.2,165.65L238.08,167.51L239.02,168.46L237.05,170.28L237.46,171.21L236.41,173.05L236.36,173.92L235.47,175.83L235.49,176.75L234.13,179.56L234.74,180.55L233.04,183.14L233.03,184.04L231.67,186.7L231.73,187.54L229.6,191.03L229.84,191.9L228.27,194.55L228.79,195.46L225.77,200.52L225.93,201.43L225.81,203.14L224.95,203.98L223.82,207.21L222.88,208.04L222.67,210.22L221.69,211.05L219.51,216.69L218.92,217.45L218.97,219.13L217.87,219.9L217.16,221.44L217.56,222.2L215.96,224.46L215.42,225.24L215.89,226.71L214.48,227.5L213.1,230.45L213.27,231.21L212.28,233.32L211.05,234.09L211.42,235.5L210.43,236.18L209.77,236.95L210.25,237.66L210.25,238.35L209.28,239.03L208.76,240.45L208.68,241.11L206.92,242.45L207.9,243.15L205.38,245.14L205.99,245.86L205.14,247.17L203.98,247.82L204.54,249.17L203.63,249.78L202.15,251.02L202.84,251.67L200.38,254.16L201.34,254.78L199.32,255.97L199.63,256.61L198.97,257.8L197.71,258.35L197.66,260.16L197.03,260.71L195.72,261.32L196.11,261.92L196.63,262.48L194.6,264.21L195.07,264.77L192.88,266.94L193.09,267.43L191.04,268.53L191.56,269.07L192.14,269.57L189.72,270.07L190.19,271.13L189.76,271.64L188.04,273.16L188.43,273.63L186.56,275.13L186.31,275.6L186.42,276.05L185.66,276.52L184.07,278.36L183,278.81L183.48,279.29L182.84,279.72L181.57,281.07L182.04,281.47L179.83,282.31L180.51,282.75L178.25,284.37L178.72,284.76L176.43,286.35L176.54,286.72L174.1,288.57L173.47,288.92L173.95,289.26L173.48,289.63L172.25,289.94L169.64,291.62L170.63,291.97L169.26,292.6L168.24,292.88L167.9,293.2L168.78,293.52L165.65,295.23L164.96,295.65L165.3,295.9L164.66,296.17L163.58,296.42L162.09,297.43L161.44,297.69L160.43,298.4L159.95,298.62L156.26,300.32L155.9,300.52L156.36,300.72L155.62,300.9L154.96,301.08L150.52,302.59L150.84,302.75L150.93,302.9L149.72,303.04L131.72,306.57L131.08,306.59L113.51,307.28L113.07,307.3L-162.3,307.27" style="vector-effect: non-scaling-stroke; fill: none; stroke: rgb(136, 204, 238); stroke-opacity: 1; stroke-width: 2px; opacity: 1;"/></g><g class="points"/><g class="text"/></g><g class="trace scatter trace6e440d" style="stroke-miterlimit: 2; opacity: 1;"><g class="fills"/><g class="errorbars"/><g class="lines"><path class="js-line" d="M-139.25,307.21L233.1,306.46L233.4,306.45L313.81,303.93L199.16,306.98L198.79,306.98L164.83,307.13L164.11,307.14L-147.1,307.22" style="vector-effect: non-scaling-stroke; fill: none; stroke: rgb(204, 102, 119); stroke-opacity: 1; stroke-width: 2px; opacity: 1;"/></g><g class="points"/><g class="text"/></g><g class="trace scatter trace9084aa" style="stroke-miterlimit: 2; opacity: 1;"><g class="fills"/><g class="errorbars"/><g class="lines"><path class="js-line" d="M-135.42,307.21L207.82,306.46L208.88,306.44L230.01,304.43L230.28,304.36L237.6,303.18L238.17,303.1L260.49,297.65L260.52,297.52L265.83,296.07L265.53,295.93L273.27,293.46L273.18,293.31L276.62,292.23L276.56,292.07L276.79,291.91L289.38,287.02L289.29,286.84L291.56,285.76L292.63,285.58L294.91,284.29L295.68,284.1L301.49,281.17L301.21,280.97L305.11,279.42L304.84,279.23L308.41,278.08L308.56,277.88L308.38,277.47L309.73,277.33L309.11,277.76L308.38,278L306.06,279.32L306.32,279.59L306,279.85L302.58,281.61L303.18,281.86L294.39,287.06L293.11,287.25L288.68,289.41L288.59,289.59L280.15,292.99L280.1,293.15L271.16,296.13L271.48,296.26L263.94,298.22L263.73,298.34L241.37,302.84L240.92,302.91L221.85,305.17L220.67,305.21L208.41,306.12L207.75,306.14L175.04,307.09L174.65,307.09L-255.82,307.22" style="vector-effect: non-scaling-stroke; fill: none; stroke: rgb(17, 119, 51); stroke-opacity: 1; stroke-width: 2px; opacity: 1;"/></g><g class="points"/><g class="text"/></g><g class="trace scatter trace387959" style="stroke-miterlimit: 2; opacity: 1;"><g class="fills"/><g class="errorbars"/><g class="lines"><path class="js-line" d="M-135.02,307.95L-26.28,307.25L-25.5,307.25L90.58,306.5L91.29,306.49L130.29,305.74L130.78,305.73L162.51,304.66L163.31,304.63L198.81,301.99L198.86,301.94L229.14,296.88L229.36,296.78L253.33,290.08L253.52,289.93L260.05,287.52L260.45,287.38L263.68,286.42L263.54,286.27L264.49,285.98L265.22,285.84L311.54,268.21L309.9,268.72L309.99,269.05L304.37,272.68L303.67,272.86L293.09,278.17L293.51,278.4L285.94,281.34L286.02,281.49L274.23,286.09L273.99,286.29L273.23,286.63L272.37,286.79L269.15,287.98L268.36,288.13L264.65,289.59L264.09,289.73L258.2,291.48L257.83,291.63L256.4,292.34L255.7,292.46L248.98,294.16L249.01,294.26L248.91,294.39L237.65,297.12L237.79,297.21L232.39,298.23L232.25,298.32L217.89,300.74L218.12,300.81L183.67,304.57L182.59,304.6L182.75,304.67L176.73,305.07L175.54,305.11L108.9,307.55L107.95,307.56L69.27,307.99L68.46,307.99L68.73,307.99L-228.35,307.86" style="vector-effect: non-scaling-stroke; fill: none; stroke: rgb(51, 34, 136); stroke-opacity: 1; stroke-width: 2px; opacity: 1;"/></g><g class="points"/><g class="text"/></g><g class="trace scatter trace9efa4c" style="stroke-miterlimit: 2; opacity: 1;"><g class="fills"/><g class="errorbars"/><g class="lines"><path class="js-line" d="M-135.26,307.2L269.57,306.45L270.12,306.44L308.85,305.69L309.2,305.68L317.46,305.5L216.9,307.04L216.56,307.04L-135.46,307.2" style="vector-effect: non-scaling-stroke; fill: none; stroke: rgb(170, 68, 153); stroke-opacity: 1; stroke-width: 2px; opacity: 1;"/></g><g class="points"/><g class="text"/></g><g class="trace scatter trace7ab073" style="stroke-miterlimit: 2; opacity: 1;"><g class="fills"/><g class="errorbars"/><g class="lines"><path class="js-line" d="M-139.14,307.33L-19.23,307.21L-18.54,307.21L66.28,306.46L66.26,306.45L144.93,305.53L144.92,305.49L144.79,305.44L160.81,303.22L160.64,303.13L159.39,303.03L165.09,302.09L164.51,301.98L164.8,301.86L168.77,300.89L169.19,300.75L169,300.62L170.19,300.49L175.95,298.6L175.62,298.45L175.72,298.29L179.44,297.3L179.26,297.13L179.59,296.96L179.17,296.78L180.08,296.61L181.52,296.43L181.16,296.08L181.97,295.89L184.92,294.95L184.88,294.76L184.46,294.56L189.39,292.32L190.2,292.1L191.48,291.23L192.34,291.01L193.4,290.33L193.87,290.1L195.42,289.16L195.93,288.93L198.17,287.46L198.66,287.21L204.54,283.26L205.25,282.98L205.83,282.14L206.73,281.87L207.07,281.29L208.27,280.99L208.59,280.12L209.38,279.82L217.28,273.39L217.41,273.03L218.93,272.07L218.73,271.72L219.01,271.35L222.46,268.91L222.19,268.52L225.43,265.96L224.97,265.61L225.17,265.27L226.56,264.89L227.34,264.47L226.87,264.09L226.76,263.69L228.69,262.6L228.37,262.19L230.02,261L230.42,260.63L236.06,254.54L236.67,254.12L237.81,252.44L238.3,252.04L239.94,249.87L240.82,249.45L244.15,244.57L244.89,244.11L245.48,242.83L245.69,242.34L247.37,240.98L247.58,240.47L248.52,239.1L248.81,238.62L251.1,236.3L251.21,235.84L252.55,234.93L250.95,234.47L254.44,233.07L254.01,232.57L252.72,232.14L256.13,231.19L255.46,230.67L254.59,230.22L257.12,228.81L256.02,228.32L258.92,226.89L258.47,226.38L258.83,225.92L260.39,224.43L260.04,223.91L259.98,222.96L260.95,222.5L262.59,221.49L261.35,220.98L261.78,220.47L263.79,219.97L264.73,219.42L263.64,218.95L263.52,218.43L265.4,217.97L265.43,217.46L264.21,217.02L267.89,214.58L266.99,214.03L266.66,213.59L267.72,213.04L269.23,212.48L268.44,212.04L268.27,211.56L270.61,210.54L270.34,210L269,209.48L272.24,208.28L271.93,207.74L270.79,207.21L273.05,206.21L272.56,205.7L272.67,205.2L274.63,203.41L274.8,202.88L273.81,202.27L275.23,201.78L276.97,199.79L276.78,199.22L279.13,195.57L279.57,195.02L280.43,193.36L281.54,192.84L282.02,192.38L281.46,191.75L282.32,190.73L283.04,190.14L284.48,186.97L285.28,186.46L286.04,185.3L285.85,184.74L286.18,184.26L287.46,183.78L288.52,181.53L288.36,181.47L289.2,180.81L288.86,181.49L287.63,182.17L287.04,183.77L286.82,184.25L285.77,187.19L284.88,188.01L284.84,189.94L284.9,190.73L282.87,192.62L283.58,193.23L282.26,194.49L281.5,195.1L281.57,196.47L281.69,197.09L279.77,198.38L280.35,199.14L280.8,199.82L279.8,200.54L278.39,201.7L278.9,202.31L274.85,207.54L273.89,208.26L273.62,210.07L272.19,210.66L272.53,211.88L272.6,212.48L270.39,212.91L271.52,213.48L269.27,215.89L269.5,216.49L267.66,218.66L267.85,219.24L266.29,221.34L266,221.88L263.59,224.56L263.34,225.11L262.68,226.46L261.75,227.01L261.13,229.15L260.29,229.68L256.23,235.58L255.36,236.01L254.98,237.4L254.01,237.75L253.79,239.2L252.99,239.67L252.2,240.91L250.67,241.3L250.42,241.82L251.39,242.29L251.1,242.77L249.56,243.22L249.57,244.1L249.39,244.59L247.7,245.44L248.12,245.9L246.08,246.68L246.76,247.15L245.75,248.01L244.81,248.43L245.21,249.33L243.88,249.76L242.73,250.2L243.18,250.58L243.39,250.78L241.58,252.5L241.14,252.9L240.72,253.74L239.66,254.14L239.04,254.53L239.79,254.93L239.64,255.2L237.46,256.45L237.77,256.86L234.79,259.57L234.73,259.93L232.41,261.77L231.87,262.15L229.95,264.28L229.3,264.64L224.49,268.66L224.77,269L224.86,269.32L223.66,269.68L222.67,270.96L222.23,271.29L219.53,272.6L220.25,272.9L220.19,273.2L218.05,274.13L218.25,274.43L217.66,274.73L214.83,276.25L215.25,276.51L215.03,276.81L212.2,278.51L212.02,278.77L210.24,279.89L211,280.15L206.54,281.73L206.48,282L207.25,282.28L207.03,282.54L205.84,282.78L203.7,284.02L203.86,284.11L203.98,284.38L199.73,285.84L199.73,286.07L200.35,286.32L199.99,286.53L198.82,286.76L196.65,287.89L197.37,288.12L197.65,288.35L195.71,288.56L193.6,288.78L194.78,289.41L193.24,289.62L193.63,290.05L191.83,290.25L190.93,290.45L191.85,290.87L191.27,291.06L189.69,291.26L186.87,292.75L187.02,292.93L179.38,296.31L177.69,296.47L170.31,298.99L171.07,299.13L170.76,299.25L165.02,300.65L165.23,300.78L144.55,304.98L143.94,305.04L131.11,306.39L130.12,306.42L130.46,306.45L125.37,306.72L125.43,306.74L125.14,306.76L59.59,307.46L58.11,307.46L58.46,307.46L-216.38,307.3" style="vector-effect: non-scaling-stroke; fill: none; stroke: rgb(221, 204, 119); stroke-opacity: 1; stroke-width: 2px; opacity: 1;"/></g><g class="points"/><g class="text"/></g><g class="trace scatter traceda2fe8" style="stroke-miterlimit: 2; opacity: 1;"><g class="fills"/><g class="errorbars"/><g class="lines"><path class="js-line" d="M-134.94,307.42L30.03,306.67L30.94,306.64L100.86,305.71L102.11,305.72L134.41,305.46L135.65,305.36L147.6,303.6L149.11,303.29L161.22,299.43L162.42,298.88L172.73,293.53L173.79,292.76L182.57,286.64L183.53,285.65L187.4,282.57L188.68,281.5L196.92,273.17L198.32,271.89L207.11,260.75L208.24,259.24L211.84,254.62L212.81,253.01L216.31,248.05L217.37,246.34L219.63,242.95L220.47,241.17L223.76,235.81L224.32,233.97L227.07,230.2L227.86,228.32L230.06,224.46L231.14,222.45L233.49,218.48L234.34,216.46L252.64,176.89L253.09,174.52L255.22,169.88L256.15,167.46L262.24,152.88L263.13,150.39L272.53,125.25L273.64,122.72L281,101.93L279.89,106.47L279.17,109.54L276.75,118.18L275.48,120.77L273.27,129.1L271.89,130.44L268.79,138.05L268.17,140.89L266.77,141.89L265.39,143.82L263.89,148.89L262.95,151.31L257.2,166.62L256.51,169.1L254.17,173.87L253.49,176.23L249.48,185.75L248.37,187.92L236.19,213.82L234.81,214.57L230.89,222.48L229.59,224.49L223.48,235.69L222.18,237.44L219.09,242.71L217.71,244.37L212.33,252.52L211.37,254.07L204.66,262.91L203.73,264.27L193.64,274.5L192.68,275.66L174.47,290.39L173.35,291.17L156.12,299.56L155.02,300.05L141.79,304L140.59,304.29L126.57,306.36L125.44,306.48L107.08,307.34L106.14,307.37L-135.41,307.43" style="vector-effect: non-scaling-stroke; fill: none; stroke: rgb(68, 170, 153); stroke-opacity: 1; stroke-width: 2px; opacity: 1;"/></g><g class="points"/><g class="text"/></g></g></g><g class="overplot"/><path class="xlines-above crisp" d="M78,421H420" style="fill: none; stroke-width: 2px; stroke: rgb(0, 0, 0); stroke-opacity: 1;"/><path class="ylines-above crisp" d="M79,100V420" style="fill: none; stroke-width: 2px; stroke: rgb(0, 0, 0); stroke-opacity: 1;"/><g class="overlines-above"/><g class="xaxislayer-above"><path class="xtick ticks crisp" d="M0,422v5" transform="translate(80,0)" style="stroke: rgb(68, 68, 68); stroke-opacity: 1; stroke-width: 1px;"/><path class="xtick ticks crisp" d="M0,422v5" transform="translate(125.33,0)" style="stroke: rgb(68, 68, 68); stroke-opacity: 1; stroke-width: 1px;"/><path class="xtick ticks crisp" d="M0,422v5" transform="translate(170.67000000000002,0)" style="stroke: rgb(68, 68, 68); stroke-opacity: 1; stroke-width: 1px;"/><path class="xtick ticks crisp" d="M0,422v5" transform="translate(216,0)" style="stroke: rgb(68, 68, 68); stroke-opacity: 1; stroke-width: 1px;"/><path class="xtick ticks crisp" d="M0,422v5" transform="translate(261.33000000000004,0)" style="stroke: rgb(68, 68, 68); stroke-opacity: 1; stroke-width: 1px;"/><path class="xtick ticks crisp" d="M0,422v5" transform="translate(306.66999999999996,0)" style="stroke: rgb(68, 68, 68); stroke-opacity: 1; stroke-width: 1px;"/><path class="xtick ticks crisp" d="M0,422v5" transform="translate(352,0)" style="stroke: rgb(68, 68, 68); stroke-opacity: 1; stroke-width: 1px;"/><path class="xtick ticks crisp" d="M0,422v5" transform="translate(397.33,0)" style="stroke: rgb(68, 68, 68); stroke-opacity: 1; stroke-width: 1px;"/><g class="xtick"><text text-anchor="middle" x="0" y="448.6" transform="translate(80,0)" style="font-family: 'Times New Roman', monospace; font-size: 18px; fill: rgb(105, 105, 105); fill-opacity: 1; white-space: pre; opacity: 1;">0</text></g><g class="xtick"><text text-anchor="middle" x="0" y="448.6" style="font-family: 'Times New Roman', monospace; font-size: 18px; fill: rgb(105, 105, 105); fill-opacity: 1; white-space: pre; opacity: 1;" transform="translate(125.33,0)">0.1</text></g><g class="xtick"><text text-anchor="middle" x="0" y="448.6" style="font-family: 'Times New Roman', monospace; font-size: 18px; fill: rgb(105, 105, 105); fill-opacity: 1; white-space: pre; opacity: 1;" transform="translate(170.67000000000002,0)">0.2</text></g><g class="xtick"><text text-anchor="middle" x="0" y="448.6" style="font-family: 'Times New Roman', monospace; font-size: 18px; fill: rgb(105, 105, 105); fill-opacity: 1; white-space: pre; opacity: 1;" transform="translate(216,0)">0.3</text></g><g class="xtick"><text text-anchor="middle" x="0" y="448.6" style="font-family: 'Times New Roman', monospace; font-size: 18px; fill: rgb(105, 105, 105); fill-opacity: 1; white-space: pre; opacity: 1;" transform="translate(261.33000000000004,0)">0.4</text></g><g class="xtick"><text text-anchor="middle" x="0" y="448.6" style="font-family: 'Times New Roman', monospace; font-size: 18px; fill: rgb(105, 105, 105); fill-opacity: 1; white-space: pre; opacity: 1;" transform="translate(306.66999999999996,0)">0.5</text></g><g class="xtick"><text text-anchor="middle" x="0" y="448.6" style="font-family: 'Times New Roman', monospace; font-size: 18px; fill: rgb(105, 105, 105); fill-opacity: 1; white-space: pre; opacity: 1;" transform="translate(352,0)">0.6</text></g><g class="xtick"><text text-anchor="middle" x="0" y="448.6" style="font-family: 'Times New Roman', monospace; font-size: 18px; fill: rgb(105, 105, 105); fill-opacity: 1; white-space: pre; opacity: 1;" transform="translate(397.33,0)">0.7</text></g></g><g class="yaxislayer-above"><path class="ytick ticks crisp" d="M78,0h-5" transform="translate(0,407.2)" style="stroke: rgb(68, 68, 68); stroke-opacity: 1; stroke-width: 1px;"/><path class="ytick ticks crisp" d="M78,0h-5" transform="translate(0,356)" style="stroke: rgb(68, 68, 68); stroke-opacity: 1; stroke-width: 1px;"/><path class="ytick ticks crisp" d="M78,0h-5" transform="translate(0,304.8)" style="stroke: rgb(68, 68, 68); stroke-opacity: 1; stroke-width: 1px;"/><path class="ytick ticks crisp" d="M78,0h-5" transform="translate(0,253.6)" style="stroke: rgb(68, 68, 68); stroke-opacity: 1; stroke-width: 1px;"/><path class="ytick ticks crisp" d="M78,0h-5" transform="translate(0,202.4)" style="stroke: rgb(68, 68, 68); stroke-opacity: 1; stroke-width: 1px;"/><path class="ytick ticks crisp" d="M78,0h-5" transform="translate(0,151.2)" style="stroke: rgb(68, 68, 68); stroke-opacity: 1; stroke-width: 1px;"/><path class="ytick ticks crisp" d="M78,0h-5" transform="translate(0,100)" style="stroke: rgb(68, 68, 68); stroke-opacity: 1; stroke-width: 1px;"/><g class="ytick"><text text-anchor="end" x="69.4" y="6.3" transform="translate(0,407.2)" style="font-family: 'Times New Roman', monospace; font-size: 18px; fill: rgb(105, 105, 105); fill-opacity: 1; white-space: pre; opacity: 1;">0</text></g><g class="ytick"><text text-anchor="end" x="69.4" y="6.3" style="font-family: 'Times New Roman', monospace; font-size: 18px; fill: rgb(105, 105, 105); fill-opacity: 1; white-space: pre; opacity: 1;" transform="translate(0,356)">20</text></g><g class="ytick"><text text-anchor="end" x="69.4" y="6.3" style="font-family: 'Times New Roman', monospace; font-size: 18px; fill: rgb(105, 105, 105); fill-opacity: 1; white-space: pre; opacity: 1;" transform="translate(0,304.8)">40</text></g><g class="ytick"><text text-anchor="end" x="69.4" y="6.3" style="font-family: 'Times New Roman', monospace; font-size: 18px; fill: rgb(105, 105, 105); fill-opacity: 1; white-space: pre; opacity: 1;" transform="translate(0,253.6)">60</text></g><g class="ytick"><text text-anchor="end" x="69.4" y="6.3" style="font-family: 'Times New Roman', monospace; font-size: 18px; fill: rgb(105, 105, 105); fill-opacity: 1; white-space: pre; opacity: 1;" transform="translate(0,202.4)">80</text></g><g class="ytick"><text text-anchor="end" x="69.4" y="6.3" style="font-family: 'Times New Roman', monospace; font-size: 18px; fill: rgb(105, 105, 105); fill-opacity: 1; white-space: pre; opacity: 1;" transform="translate(0,151.2)">100</text></g><g class="ytick"><text text-anchor="end" x="69.4" y="6.3" style="font-family: 'Times New Roman', monospace; font-size: 18px; fill: rgb(105, 105, 105); fill-opacity: 1; white-space: pre; opacity: 1;" transform="translate(0,100)">120</text></g></g><g class="overaxes-above"/></g></g><g class="polarlayer"/><g class="smithlayer"/><g class="ternarylayer"/><g class="geolayer"/><g class="funnelarealayer"/><g class="pielayer"/><g class="iciclelayer"/><g class="treemaplayer"/><g class="sunburstlayer"/><g class="glimages"/><defs id="topdefs-9e5e42"><g class="clips"/><clipPath id="legend9e5e42"><rect width="161" height="195" x="0" y="0"/></clipPath></defs><g class="layer-above"><g class="imagelayer"/><g class="shapelayer"/></g><g class="infolayer"><g class="legend" pointer-events="all" transform="translate(426.8,100)"><rect class="bg" shape-rendering="crispEdges" width="161" height="195" x="0" y="0" style="stroke: rgb(68, 68, 68); stroke-opacity: 1; fill: rgb(0, 0, 0); fill-opacity: 0; stroke-width: 0px;"/><g class="scrollbox" transform="" clip-path="url(#legend9e5e42)"><g class="groups"><g class="traces" transform="translate(0,18.200000000000003)" style="opacity: 1;"><text class="legendtext" text-anchor="start" x="40" y="7.0200000000000005" style="font-family: 'Times New Roman', monospace; font-size: 18px; fill: rgb(105, 105, 105); fill-opacity: 1; white-space: pre;">IrO​<tspan style="font-size:70%" dy="0.3em">x</tspan><tspan dy="-0.21em">​</tspan></text><g class="layers" style="opacity: 1;"><g class="legendfill"/><g class="legendlines"><path class="js-line" d="M5,0h30" style="fill: none; stroke: rgb(136, 204, 238); stroke-opacity: 1; stroke-width: 2px;"/></g><g class="legendsymbols"><g class="legendpoints"/></g></g><rect class="legendtoggle" x="0" y="-13.200000000000001" width="155.8125" height="26.400000000000002" style="fill: rgb(0, 0, 0); fill-opacity: 0;"/></g><g class="traces" transform="translate(0,44.6)" style="opacity: 1;"><text class="legendtext" text-anchor="start" x="40" y="7.0200000000000005" style="font-family: 'Times New Roman', monospace; font-size: 18px; fill: rgb(105, 105, 105); fill-opacity: 1; white-space: pre;">Ni​<tspan style="font-size:70%" dy="0.3em">60</tspan><tspan dy="-0.21em">​</tspan>Co​<tspan style="font-size:70%" dy="0.3em">30</tspan><tspan dy="-0.21em">​</tspan>Fe​<tspan style="font-size:70%" dy="0.3em">10</tspan><tspan dy="-0.21em">​</tspan>O​<tspan style="font-size:70%" dy="0.3em">x</tspan><tspan dy="-0.21em">​</tspan></text><g class="layers" style="opacity: 1;"><g class="legendfill"/><g class="legendlines"><path class="js-line" d="M5,0h30" style="fill: none; stroke: rgb(204, 102, 119); stroke-opacity: 1; stroke-width: 2px;"/></g><g class="legendsymbols"><g class="legendpoints"/></g></g><rect class="legendtoggle" x="0" y="-13.200000000000001" width="155.8125" height="26.400000000000002" style="fill: rgb(0, 0, 0); fill-opacity: 0;"/></g><g class="traces" transform="translate(0,71)" style="opacity: 1;"><text class="legendtext" text-anchor="start" x="40" y="7.0200000000000005" style="font-family: 'Times New Roman', monospace; font-size: 18px; fill: rgb(105, 105, 105); fill-opacity: 1; white-space: pre;">FeN​<tspan style="font-size:70%" dy="0.3em">x</tspan><tspan dy="-0.21em">​</tspan></text><g class="layers" style="opacity: 1;"><g class="legendfill"/><g class="legendlines"><path class="js-line" d="M5,0h30" style="fill: none; stroke: rgb(17, 119, 51); stroke-opacity: 1; stroke-width: 2px;"/></g><g class="legendsymbols"><g class="legendpoints"/></g></g><rect class="legendtoggle" x="0" y="-13.200000000000001" width="155.8125" height="26.400000000000002" style="fill: rgb(0, 0, 0); fill-opacity: 0;"/></g><g class="traces" transform="translate(0,97.4)" style="opacity: 1;"><text class="legendtext" text-anchor="start" x="40" y="7.0200000000000005" style="font-family: 'Times New Roman', monospace; font-size: 18px; fill: rgb(105, 105, 105); fill-opacity: 1; white-space: pre;">CoN​<tspan style="font-size:70%" dy="0.3em">x</tspan><tspan dy="-0.21em">​</tspan></text><g class="layers" style="opacity: 1;"><g class="legendfill"/><g class="legendlines"><path class="js-line" d="M5,0h30" style="fill: none; stroke: rgb(51, 34, 136); stroke-opacity: 1; stroke-width: 2px;"/></g><g class="legendsymbols"><g class="legendpoints"/></g></g><rect class="legendtoggle" x="0" y="-13.200000000000001" width="155.8125" height="26.400000000000002" style="fill: rgb(0, 0, 0); fill-opacity: 0;"/></g><g class="traces" transform="translate(0,123.80000000000001)" style="opacity: 1;"><text class="legendtext" text-anchor="start" x="40" y="7.0200000000000005" style="font-family: 'Times New Roman', monospace; font-size: 18px; fill: rgb(105, 105, 105); fill-opacity: 1; white-space: pre;">NiN​<tspan style="font-size:70%" dy="0.3em">x</tspan><tspan dy="-0.21em">​</tspan></text><g class="layers" style="opacity: 1;"><g class="legendfill"/><g class="legendlines"><path class="js-line" d="M5,0h30" style="fill: none; stroke: rgb(170, 68, 153); stroke-opacity: 1; stroke-width: 2px;"/></g><g class="legendsymbols"><g class="legendpoints"/></g></g><rect class="legendtoggle" x="0" y="-13.200000000000001" width="155.8125" height="26.400000000000002" style="fill: rgb(0, 0, 0); fill-opacity: 0;"/></g><g class="traces" transform="translate(0,150.2)" style="opacity: 1;"><text class="legendtext" text-anchor="start" x="40" y="7.0200000000000005" style="font-family: 'Times New Roman', monospace; font-size: 18px; fill: rgb(105, 105, 105); fill-opacity: 1; white-space: pre;">Co​<tspan style="font-size:70%" dy="0.3em">30</tspan><tspan dy="-0.21em">​</tspan>Ni​<tspan style="font-size:70%" dy="0.3em">60</tspan><tspan dy="-0.21em">​</tspan>Fe​<tspan style="font-size:70%" dy="0.3em">10</tspan><tspan dy="-0.21em">​</tspan>N​<tspan style="font-size:70%" dy="0.3em">x</tspan><tspan dy="-0.21em">​</tspan></text><g class="layers" style="opacity: 1;"><g class="legendfill"/><g class="legendlines"><path class="js-line" d="M5,0h30" style="fill: none; stroke: rgb(221, 204, 119); stroke-opacity: 1; stroke-width: 2px;"/></g><g class="legendsymbols"><g class="legendpoints"/></g></g><rect class="legendtoggle" x="0" y="-13.200000000000001" width="155.8125" height="26.400000000000002" style="fill: rgb(0, 0, 0); fill-opacity: 0;"/></g><g class="traces" transform="translate(0,176.6)" style="opacity: 1;"><text class="legendtext" text-anchor="start" x="40" y="7.0200000000000005" style="font-family: 'Times New Roman', monospace; font-size: 18px; fill: rgb(105, 105, 105); fill-opacity: 1; white-space: pre;">Co​<tspan style="font-size:70%" dy="0.3em">45</tspan><tspan dy="-0.21em">​</tspan>Ni​<tspan style="font-size:70%" dy="0.3em">45</tspan><tspan dy="-0.21em">​</tspan>Fe​<tspan style="font-size:70%" dy="0.3em">10</tspan><tspan dy="-0.21em">​</tspan>N​<tspan style="font-size:70%" dy="0.3em">x</tspan><tspan dy="-0.21em">​</tspan></text><g class="layers" style="opacity: 1;"><g class="legendfill"/><g class="legendlines"><path class="js-line" d="M5,0h30" style="fill: none; stroke: rgb(68, 170, 153); stroke-opacity: 1; stroke-width: 2px;"/></g><g class="legendsymbols"><g class="legendpoints"/></g></g><rect class="legendtoggle" x="0" y="-13.200000000000001" width="155.8125" height="26.400000000000002" style="fill: rgb(0, 0, 0); fill-opacity: 0;"/></g></g></g><rect class="scrollbar" rx="20" ry="3" width="0" height="0" x="0" y="0" style="fill: rgb(128, 139, 164); fill-opacity: 1;"/></g><g class="g-gtitle"/><g class="g-xtitle"><text class="xtitle" x="250" y="483.009375" text-anchor="middle" style="font-family: 'Times New Roman', monospace; font-size: 22px; fill: rgb(105, 105, 105); opacity: 1; font-weight: normal; white-space: pre;">Overpotential, η(V) - iR​<tspan style="font-size:70%" dy="0.3em">u</tspan><tspan dy="-0.21em">​</tspan></text></g><g class="g-ytitle" transform="translate(11.259765625,0)"><text class="ytitle" transform="rotate(-90,11.990624999999994,260)" x="11.990624999999994" y="260" text-anchor="middle" style="font-family: 'Times New Roman', monospace; font-size: 22px; fill: rgb(105, 105, 105); opacity: 1; font-weight: normal; white-space: pre;">Current (mA/cm​<tspan style="font-size:70%" dy="-0.6em">2</tspan><tspan dy="0.42em">​</tspan>/mg)</text></g></g></svg>