<svg class="main-svg" xmlns="http://www.w3.org/2000/svg" xmlns:xlink="http://www.w3.org/1999/xlink" width="1000" height="500" style="" viewBox="0 0 1000 500"><rect x="0" y="0" width="1000" height="500" style="fill: rgb(0, 0, 0); fill-opacity: 0;"/><defs id="defs-433728"><g class="clips"><clipPath id="clip433728xyplot" class="plotclip"><rect width="653" height="320"/></clipPath><clipPath class="axesclip" id="clip433728x"><rect x="80" y="0" width="653" height="500"/></clipPath><clipPath class="axesclip" id="clip433728y"><rect x="0" y="100" width="1000" height="320"/></clipPath><clipPath class="axesclip" id="clip433728xy"><rect x="80" y="100" width="653" height="320"/></clipPath></g><g class="gradients"/><g class="patterns"/></defs><g class="bglayer"><rect class="bg" x="80" y="100" width="653" height="320" style="fill: rgb(0, 0, 0); fill-opacity: 0; stroke-width: 0;"/></g><g class="layer-below"><g class="imagelayer"/><g class="shapelayer"/></g><g class="cartesianlayer"><g class="subplot xy"><g class="layer-subplot"><g class="shapelayer"/><g class="imagelayer"/></g><g class="minor-gridlayer"><g class="x"/><g class="y"/></g><g class="gridlayer"><g class="x"/><g class="y"/></g><g class="zerolinelayer"/><path class="xlines-below"/><path class="ylines-below"/><g class="overlines-below"/><g class="xaxislayer-below"/><g class="yaxislayer-below"/><g class="overaxes-below"/><g class="plot" transform="translate(80,100)" clip-path="url(#clip433728xyplot)"><g class="scatterlayer mlayer"><g class="trace scatter trace9182d7" style="stroke-miterlimit: 2; opacity: 1;"><g class="fills"/><g class="errorbars"/><g class="lines"><path class="js-line" d="M0,310.15L0.19,314.97L0.77,314.67L0.78,314.67L4.32,313.72L4.33,313.74L8.54,313.1L8.55,313.13L11.37,312.82" style="vector-effect: non-scaling-stroke; fill: none; stroke: rgb(225, 95, 153); stroke-opacity: 1; stroke-width: 2px; opacity: 1;"/></g><g class="points"/><g class="text"/></g><g class="trace scatter traceee766c" style="stroke-miterlimit: 2; opacity: 1;"><g class="fills"/><g class="errorbars"/><g class="lines"><path class="js-line" d="M0,318.33L0.82,319.65L0.86,319.66L652.95,319.15" style="vector-effect: non-scaling-stroke; fill: none; stroke: rgb(251, 13, 13); stroke-opacity: 1; stroke-width: 2px; opacity: 1;"/></g><g class="points"/><g class="text"/></g><g class="trace scatter trace2d2ca2" style="stroke-miterlimit: 2; opacity: 1;"><g class="fills"/><g class="errorbars"/><g class="lines"><path class="js-line" d="M0,309.06L0.77,319.55L0.78,319.55L7.08,319.64L7.09,319.64L652.99,319.54" style="vector-effect: non-scaling-stroke; fill: none; stroke: rgb(0, 160, 139); stroke-opacity: 1; stroke-width: 2px; opacity: 1;"/></g><g class="points"/><g class="text"/></g><g class="trace scatter trace38dae2" style="stroke-miterlimit: 2; opacity: 1;"><g class="fills"/><g class="errorbars"/><g class="lines"><path class="js-line" d="M0,235.78L0.05,256.29L0.75,240.67L0.76,240.61L1.84,236.08L1.85,236.11L1.89,236.21L2.88,234.19L2.89,234.44L3.71,233.2L3.72,233.53L4.25,232.45L4.55,232.61L4.56,232.91L5.31,232.08L5.33,232.27L5.34,232.37L6,231.52L6.1,231.98L6.11,231.99L6.29,232.12L6.82,231.41L6.87,231.62L6.88,231.83L6.97,231.9L7.61,231.1L7.68,231.32L7.69,231.43L8.03,231.56L8.21,231.05L8.45,231.2L8.46,231.5L9.23,230.77L9.24,230.96L9.25,231.21L10.05,230.73L10.06,231.18L10.38,230.51L10.83,230.95L10.84,231.08L11.03,231.1L11.51,230.62L11.6,230.81L11.61,231.05L11.64,231.06L12.28,230.55L12.39,230.72L12.4,230.89L12.48,231.04L12.94,230.49L13.18,230.77L13.19,230.84L13.49,231.15L13.79,230.56L13.93,230.87L13.94,230.78L14.08,230.49L14.19,231.08L14.69,230.92L14.7,230.85L14.86,230.61L15.37,231.28L15.43,230.97L15.44,231.11L15.54,231.21L16.17,230.65L16.24,230.9L16.25,231.17L16.37,230.87L16.43,231.42L17,231.11L17.01,231.08L17.08,230.85L17.43,231.33L17.76,231.11L17.77,230.89L18.16,230.75L18.24,231.39L18.53,231.25L18.54,231.02L18.91,231.52L19.07,230.81L19.29,231.31L19.3,231.17L19.44,230.97L19.68,231.52L20.06,231.43L20.07,231.18L20.4,231.04L20.7,231.79L20.83,231.56L20.84,231.56L21.05,231.32L21.1,231.9L21.54,231.46L21.55,231.26L21.78,231.19L22.32,232.05L22.33,231.74L22.34,231.56L22.41,231.97L22.53,231.31L23.09,231.83L23.1,231.74L23.57,231.44L23.78,232.18L23.87,232.05L23.88,231.58L23.93,232.37L24.22,231.49L24.63,231.65L24.64,231.88L24.82,231.8L25.16,232.4L25.42,232.13L25.43,232.13L25.46,231.93L25.7,232.67L26.15,232.29L26.16,232.52L26.31,232.06L26.51,232.81L26.9,232.36L26.91,232.57L27.04,232.22L27.48,232.8L27.65,232.75L27.66,232.78L28,232.41L28.33,233.1L28.41,232.79L28.41,232.9L28.43,232.57L29.03,233.11L29.15,232.91L29.16,232.97L29.63,233.55L29.7,232.65L29.89,233.09L29.9,233.21L29.93,232.86L30.52,233.49L30.64,233.34L30.65,233.33L30.97,233.66L31.03,233.09L31.37,233.53L31.38,233.66L31.82,233.26L32.05,233.8L32.13,233.52L32.14,233.75L32.47,234.02L32.7,233.5L32.87,233.88L32.88,233.96L32.99,234.05L33.62,233.84L33.63,234.16L33.81,233.79L34.32,234.41L34.38,234.17L34.39,234.35L34.52,234L35,234.64L35.13,234.44L35.14,234.45L35.49,234.77L35.87,234.06L35.88,234.55L35.89,234.58L35.93,234.33L36.48,235.09L36.62,234.74L36.63,234.97L37.02,235.25L37.1,234.79L37.37,234.91L37.38,235.07L37.44,234.96L38.16,235.55L38.23,235.42L38.24,235.2L38.42,235.1L38.98,235.75L39,235.5L39.01,235.64L39.13,235.41L39.65,236.05L39.7,235.94L39.71,236.01L40.01,235.63L40.4,236.24L40.45,236.09L40.46,236.03L40.6,235.78L40.68,236.36L41.2,236.2L41.21,236.24L41.49,236.59L41.76,236.23L41.9,236.45L41.91,236.56L42.13,236.28L42.47,236.92L42.65,236.7L42.66,236.73L42.75,236.41L43.28,237.01L43.39,236.75L43.4,237.02L43.71,237.32L43.73,236.83L44.14,237L44.15,237.19L44.23,236.94L44.79,237.63L44.88,237.45L44.89,237.67L44.98,237.2L45.63,237.81L45.64,237.58L45.65,237.71L45.67,237.47L46.34,238.07L46.38,237.6L46.39,238.08L46.55,238.21L46.73,237.68L47.13,238.16L47.14,238.25L47.57,237.99L47.87,238.55L47.88,238.56L48.31,238.28L48.6,238.74L48.62,238.56L48.63,238.72L48.66,238.5L49.29,239.06L49.36,238.9L49.37,238.99L49.58,238.76L50.92,239.73L50.92,239.65L50.93,239.44L51.25,239.83L51.57,239.35L51.68,239.73L51.69,239.65L51.92,239.53L52.64,240.37L52.68,240.17L52.68,239.94L52.81,239.83L53.05,240.49L53.43,240.36L53.44,240.32L54.37,240.84L54.41,240.78L54.42,240.52L55.09,241.03L55.18,240.97L55.19,240.9L55.86,240.71L55.92,241.22L55.99,241.12L56,241.14L56.08,240.96L56.87,241.82L56.97,241.76L56.97,241.54L57,241.51L57.74,242.02L57.75,241.88L57.84,241.78L58.42,242.55L58.69,242.28L58.7,242.1L58.75,242.03L59.36,242.66L59.47,242.57L59.48,242.63L59.79,242.88L60,242.44L60.19,242.64L60.2,242.9L60.32,242.47L60.75,243.33L60.93,243L60.94,243.06L62.13,243.51L62.13,243.51L62.14,243.31L62.89,244L62.92,243.91L62.93,243.83L63.14,243.65L63.96,244.18L63.97,243.94L64.17,243.87L64.74,244.74L64.75,244.59L64.86,244.24L65.41,244.82L65.49,244.64L65.5,244.73L65.73,244.92L66.15,244.74L66.19,245L66.2,245.06L66.7,244.87L66.82,245.41L66.9,245.16L66.91,245.34L67.01,245.08L67.3,245.56L67.65,245.5L67.66,245.37L68.44,245.85L68.45,245.62L69.18,246.12L69.21,246.1L69.22,245.99L69.39,245.93L69.99,246.47L70.02,246.41L70.03,246.48L70.15,246.16L70.53,246.76L70.71,246.67L70.71,246.72L70.78,246.43L71.07,247.05L71.42,246.64L71.43,246.98L71.72,246.8L72.05,247.38L72.15,247.18L72.16,247.28L72.32,247.04L73.25,247.89L73.31,247.68L73.32,247.45L73.83,247.97L74.08,247.87L74.09,247.81L74.87,248.38L75.02,248.28L75.03,248.05L75.79,248.54L75.8,248.54L76.88,249.12L76.95,248.99L76.95,248.78L77.06,248.72L77.63,249.36L77.71,249.16L77.72,249.09L77.81,249.06L78.45,249.55L78.49,249.46L78.5,249.57L78.65,249.27L79.19,249.9L79.24,249.63L79.25,249.89L79.65,249.61L79.98,249.98L79.99,250.06L81.21,250.62L81.24,250.59L81.25,250.38L81.45,250.37L81.96,250.9L82.01,250.71L82.02,250.7L82.99,251.19L83.05,251.11L83.06,250.85L83.72,251.51L83.83,251.47L83.84,251.41L83.92,251.35L84.71,251.78L84.72,251.49L85.43,252.16L85.49,252.14L85.5,252.06L86.68,252.56L86.69,252.34L87.38,252.84L87.44,252.71L87.45,252.67L89.6,253.45L89.61,253.41L89.62,253.25L90.27,253.79L90.37,253.67L90.38,253.63L90.4,253.52L91.17,254.12L91.18,254.03L91.18,253.92L91.31,253.79L92.08,254.36L92.11,254.29L92.12,254.22L92.88,254.69L92.89,254.61L92.9,254.59L93.1,254.49L93.6,254.95L93.66,254.75L93.67,254.85L94.49,255.05L94.5,255.12L94.51,255.2L94.68,255L95.19,255.49L95.25,255.39L95.26,255.54L95.4,255.26L95.49,255.69L96,255.62L96.01,255.75L97.29,256.19L97.31,256.05L97.32,255.99L97.33,255.96L97.91,256.38L98.07,256.24L98.08,256.34L98.12,256.13L98.78,256.68L98.79,256.59L98.8,256.68L99.23,256.39L99.56,256.63L99.57,256.82L101.22,257.44L101.23,257.34L101.24,257.22L102.01,257.73L102.02,257.58L102.79,257.95L102.88,257.87L102.89,257.77L103.85,258.34L103.98,258.17L103.99,258.11L104.78,258.58L104.79,258.25L105.42,258.86L105.56,258.8L105.57,258.71L107.17,259.33L107.21,259.26L107.22,259.08L107.24,259.06L107.97,259.57L107.99,259.54L108,259.53L109.28,259.73L109.29,259.82L109.3,259.89L111.05,260.39L111.06,260.49L111.12,260.29L111.7,260.7L111.81,260.54L111.82,260.66L111.84,260.5L111.91,260.83L112.56,260.75L112.57,260.84L114,261.18L114.01,261.34L114.08,261.18L114.43,261.49L114.75,261.37L114.76,261.49L114.92,261.64L115.44,261.49L115.54,261.6L115.54,261.77L115.6,261.52L116.2,262.02L116.28,261.89L116.29,261.88L119.96,263L119.97,262.81L119.98,263.06L120.11,262.85L120.39,263.21L120.72,263.1L120.73,263.12L121.57,263.22L121.6,263.34L121.61,263.43L121.73,263.18L122.17,263.6L122.35,263.46L122.36,263.52L124.12,264.08L124.13,263.92L124.9,264.3L124.93,264.28L124.94,264.3L125.39,264.48L125.67,264.21L125.68,264.4L125.69,264.48L126.64,264.57L126.7,264.69L126.71,264.71L130.4,265.65L130.41,265.52L131.14,265.92L131.29,265.83L131.3,265.78L132.39,266.18L132.44,266.14L132.45,266.02L133.13,266.38L133.21,266.36L133.22,266.27L134.51,266.68L134.52,266.61L134.53,266.51L135.3,266.93L135.31,266.88L136.06,266.91L136.08,267.08L136.09,267.11L136.62,267.04L136.85,267.22L136.86,267.24L136.89,267.05L137.38,267.42L137.59,267.41L137.6,267.42L137.91,267.27L138.25,267.68L138.32,267.47L138.33,267.63L139.23,267.69L139.24,267.71L139.25,267.81L140.3,267.91L140.3,268.08L141.11,268.13L141.13,268.19L141.14,268.26L141.51,268.14L141.87,268.38L141.88,268.46L141.89,268.28L142.42,268.6L142.63,268.45L142.64,268.45L143.99,268.88L144,268.79L145.36,269.24L145.44,269.11L145.45,269.09L146.68,269.5L146.69,269.41L146.7,269.3L147.44,269.7L147.47,269.62L147.48,269.53L148.87,269.99L148.92,269.86L148.93,269.8L149.8,270.12L149.81,269.95L150.43,270.32L150.57,270.2L150.58,270.26L179.48,275.56L179.48,275.54L179.49,275.43L180.32,275.86L180.4,275.8L180.41,275.71L183.71,276.33L183.72,276.24L184.56,276.43L184.57,276.4L186.7,276.81L186.71,276.74L188.03,277.02L188.04,276.94L188.18,276.92L188.8,277.17L188.81,277.09L190.3,277.38L190.31,277.34L190.32,277.28L191.42,277.51L191.43,277.37L192.14,277.68L192.19,277.65L192.2,277.64L194.61,278L194.62,278.07L196.56,278.21L196.57,278.32L197.79,278.39L197.8,278.46L197.8,278.53L198.81,278.58L198.82,278.66L202.16,279.02L202.17,279.1L203.45,279.21L203.46,279.24L203.47,279.26L206.06,279.56L206.07,279.67L207.09,279.71L207.14,279.81L207.15,279.81L217.27,281.1L217.28,281.18L221.01,281.54L221.02,281.65L221.85,281.64L221.86,281.65L223.56,281.92L223.57,281.88L223.58,281.86L224.8,282.07L224.81,282.01L225.8,282.21L225.82,282.16L225.83,282.1L226.88,282.3L226.89,282.27L226.9,282.26L228.23,282.51L228.26,282.45L228.27,282.41L230.16,282.74L230.16,282.67L255.31,285.42L255.32,285.36L257.11,285.62L257.12,285.6L257.13,285.58L273.19,287.1L273.2,287.03L274.31,287.22L274.32,287.14L276.13,287.34L276.14,287.29L278.12,287.57L278.13,287.5L283.97,288.03L283.98,287.95L286.37,288.18L286.38,288.16L378.6,293.96L378.61,293.9L382.14,294.12L382.15,294.1L398.09,294.8L398.09,294.83L399.8,294.87L399.81,294.91L402.31,294.98L402.32,295L409.2,295.22L409.2,295.25L409.21,295.27L416.32,295.49L416.33,295.53L423.58,295.76L423.59,295.77L425.77,295.8L425.78,295.84L430.43,295.95L430.44,295.99L434.79,296.1L434.8,296.09L436.94,296.21L436.95,296.18L461.38,296.89L461.39,296.93L465.99,297.02L466,297.05L468.65,297.09L468.66,297.1L472.18,297.18L472.19,297.21L475.62,297.27L475.63,297.29L479.01,297.35L479.02,297.38L483.92,297.47L483.93,297.48L487.19,297.54L487.2,297.55L495.11,297.73L495.12,297.74L499.93,297.8L499.94,297.83L502.18,297.85L502.18,297.87L506.21,297.92L506.22,297.91L520.62,298.17L520.63,298.15L526.94,298.26L526.95,298.22L529.02,298.31L529.03,298.3L535.25,298.42L535.26,298.38L536.98,298.45L536.99,298.42L537,298.41L541.14,298.53L541.15,298.48L543.63,298.57L543.64,298.53L548.45,298.63L548.46,298.64L551.25,298.67L551.26,298.67L555.97,298.78L555.98,298.79L557.92,298.77L557.93,298.78L563.57,298.81L563.58,298.79L566.19,298.9L566.2,298.87L569.21,298.91L569.22,298.89L572.79,298.92L572.8,298.93L575.03,298.97L575.04,298.99L579.93,299.07L579.94,299.08L583.53,299.11L583.54,299.13L584.69,299.07L584.7,299.11L589.61,299.16L589.62,299.17L592.43,299.16L592.43,299.17L595.22,299.19L595.23,299.2L604.2,299.29L604.21,299.31L606.51,299.3L606.52,299.33L606.53,299.33L652.99,299.63" style="vector-effect: non-scaling-stroke; fill: none; stroke: rgb(178, 130, 141); stroke-opacity: 1; stroke-width: 2px; opacity: 1;"/></g><g class="points"/><g class="text"/></g></g></g><g class="overplot"/><path class="xlines-above crisp" d="M78,421H733" style="fill: none; stroke-width: 2px; stroke: rgb(0, 0, 0); stroke-opacity: 1;"/><path class="ylines-above crisp" d="M79,100V420" style="fill: none; stroke-width: 2px; stroke: rgb(0, 0, 0); stroke-opacity: 1;"/><g class="overlines-above"/><g class="xaxislayer-above"><path class="xtick ticks crisp" d="M0,422v5" transform="translate(80,0)" style="stroke: rgb(68, 68, 68); stroke-opacity: 1; stroke-width: 1px;"/><path class="xtick ticks crisp" d="M0,422v5" transform="translate(188.82999999999998,0)" style="stroke: rgb(68, 68, 68); stroke-opacity: 1; stroke-width: 1px;"/><path class="xtick ticks crisp" d="M0,422v5" transform="translate(297.66999999999996,0)" style="stroke: rgb(68, 68, 68); stroke-opacity: 1; stroke-width: 1px;"/><path class="xtick ticks crisp" d="M0,422v5" transform="translate(406.5,0)" style="stroke: rgb(68, 68, 68); stroke-opacity: 1; stroke-width: 1px;"/><path class="xtick ticks crisp" d="M0,422v5" transform="translate(515.3299999999999,0)" style="stroke: rgb(68, 68, 68); stroke-opacity: 1; stroke-width: 1px;"/><path class="xtick ticks crisp" d="M0,422v5" transform="translate(624.17,0)" style="stroke: rgb(68, 68, 68); stroke-opacity: 1; stroke-width: 1px;"/><path class="xtick ticks crisp" d="M0,422v5" transform="translate(733,0)" style="stroke: rgb(68, 68, 68); stroke-opacity: 1; stroke-width: 1px;"/><g class="xtick"><text text-anchor="middle" x="0" y="448.6" transform="translate(80,0)" style="font-family: 'Times New Roman', monospace; font-size: 18px; fill: rgb(105, 105, 105); fill-opacity: 1; white-space: pre; opacity: 1;">0</text></g><g class="xtick"><text text-anchor="middle" x="0" y="448.6" style="font-family: 'Times New Roman', monospace; font-size: 18px; fill: rgb(105, 105, 105); fill-opacity: 1; white-space: pre; opacity: 1;" transform="translate(188.82999999999998,0)">20</text></g><g class="xtick"><text text-anchor="middle" x="0" y="448.6" style="font-family: 'Times New Roman', monospace; font-size: 18px; fill: rgb(105, 105, 105); fill-opacity: 1; white-space: pre; opacity: 1;" transform="translate(297.66999999999996,0)">40</text></g><g class="xtick"><text text-anchor="middle" x="0" y="448.6" style="font-family: 'Times New Roman', monospace; font-size: 18px; fill: rgb(105, 105, 105); fill-opacity: 1; white-space: pre; opacity: 1;" transform="translate(406.5,0)">60</text></g><g class="xtick"><text text-anchor="middle" x="0" y="448.6" style="font-family: 'Times New Roman', monospace; font-size: 18px; fill: rgb(105, 105, 105); fill-opacity: 1; white-space: pre; opacity: 1;" transform="translate(515.3299999999999,0)">80</text></g><g class="xtick"><text text-anchor="middle" x="0" y="448.6" style="font-family: 'Times New Roman', monospace; font-size: 18px; fill: rgb(105, 105, 105); fill-opacity: 1; white-space: pre; opacity: 1;" transform="translate(624.17,0)">100</text></g><g class="xtick"><text text-anchor="middle" x="0" y="448.6" style="font-family: 'Times New Roman', monospace; font-size: 18px; fill: rgb(105, 105, 105); fill-opacity: 1; white-space: pre; opacity: 1;" transform="translate(733,0)">120</text></g></g><g class="yaxislayer-above"><path class="ytick ticks crisp" d="M78,0h-5" transform="translate(0,420)" style="stroke: rgb(68, 68, 68); stroke-opacity: 1; stroke-width: 1px;"/><path class="ytick ticks crisp" d="M78,0h-5" transform="translate(0,356)" style="stroke: rgb(68, 68, 68); stroke-opacity: 1; stroke-width: 1px;"/><path class="ytick ticks crisp" d="M78,0h-5" transform="translate(0,292)" style="stroke: rgb(68, 68, 68); stroke-opacity: 1; stroke-width: 1px;"/><path class="ytick ticks crisp" d="M78,0h-5" transform="translate(0,228)" style="stroke: rgb(68, 68, 68); stroke-opacity: 1; stroke-width: 1px;"/><path class="ytick ticks crisp" d="M78,0h-5" transform="translate(0,164)" style="stroke: rgb(68, 68, 68); stroke-opacity: 1; stroke-width: 1px;"/><path class="ytick ticks crisp" d="M78,0h-5" transform="translate(0,100)" style="stroke: rgb(68, 68, 68); stroke-opacity: 1; stroke-width: 1px;"/><g class="ytick"><text text-anchor="end" x="69.4" y="6.3" transform="translate(0,420)" style="font-family: 'Times New Roman', monospace; font-size: 18px; fill: rgb(105, 105, 105); fill-opacity: 1; white-space: pre; opacity: 1;">0</text></g><g class="ytick"><text text-anchor="end" x="69.4" y="6.3" style="font-family: 'Times New Roman', monospace; font-size: 18px; fill: rgb(105, 105, 105); fill-opacity: 1; white-space: pre; opacity: 1;" transform="translate(0,356)">5</text></g><g class="ytick"><text text-anchor="end" x="69.4" y="6.3" style="font-family: 'Times New Roman', monospace; font-size: 18px; fill: rgb(105, 105, 105); fill-opacity: 1; white-space: pre; opacity: 1;" transform="translate(0,292)">10</text></g><g class="ytick"><text text-anchor="end" x="69.4" y="6.3" style="font-family: 'Times New Roman', monospace; font-size: 18px; fill: rgb(105, 105, 105); fill-opacity: 1; white-space: pre; opacity: 1;" transform="translate(0,228)">15</text></g><g class="ytick"><text text-anchor="end" x="69.4" y="6.3" style="font-family: 'Times New Roman', monospace; font-size: 18px; fill: rgb(105, 105, 105); fill-opacity: 1; white-space: pre; opacity: 1;" transform="translate(0,164)">20</text></g><g class="ytick"><text text-anchor="end" x="69.4" y="6.3" style="font-family: 'Times New Roman', monospace; font-size: 18px; fill: rgb(105, 105, 105); fill-opacity: 1; white-space: pre; opacity: 1;" transform="translate(0,100)">25</text></g></g><g class="overaxes-above"/></g></g><g class="polarlayer"/><g class="smithlayer"/><g class="ternarylayer"/><g class="geolayer"/><g class="funnelarealayer"/><g class="pielayer"/><g class="iciclelayer"/><g class="treemaplayer"/><g class="sunburstlayer"/><g class="glimages"/><defs id="topdefs-433728"><g class="clips"/><clipPath id="legend433728"><rect width="242" height="116" x="0" y="0"/></clipPath></defs><g class="layer-above"><g class="imagelayer"/><g class="shapelayer"/></g><g class="infolayer"><g class="legend" pointer-events="all" transform="translate(746.0600000000001,100)"><rect class="bg" shape-rendering="crispEdges" width="242" height="116" x="0" y="0" style="stroke: rgb(68, 68, 68); stroke-opacity: 1; fill: rgb(0, 0, 0); fill-opacity: 0; stroke-width: 0px;"/><g class="scrollbox" transform="" clip-path="url(#legend433728)"><g class="groups"><g class="traces" transform="translate(0,18.200000000000003)" style="opacity: 1;"><text class="legendtext" text-anchor="start" x="40" y="7.0200000000000005" style="font-family: 'Times New Roman', monospace; font-size: 18px; fill: rgb(105, 105, 105); fill-opacity: 1; white-space: pre;">Co0 Ni50 Fe50 400C 2h</text><g class="layers" style="opacity: 1;"><g class="legendfill"/><g class="legendlines"><path class="js-line" d="M5,0h30" style="fill: none; stroke: rgb(225, 95, 153); stroke-opacity: 1; stroke-width: 2px;"/></g><g class="legendsymbols"><g class="legendpoints"/></g></g><rect class="legendtoggle" x="0" y="-13.200000000000001" width="236.015625" height="26.400000000000002" style="fill: rgb(0, 0, 0); fill-opacity: 0;"/></g><g class="traces" transform="translate(0,44.6)" style="opacity: 1;"><text class="legendtext" text-anchor="start" x="40" y="7.0200000000000005" style="font-family: 'Times New Roman', monospace; font-size: 18px; fill: rgb(105, 105, 105); fill-opacity: 1; white-space: pre;">Co33 Ni33 Fe33 800C 2h</text><g class="layers" style="opacity: 1;"><g class="legendfill"/><g class="legendlines"><path class="js-line" d="M5,0h30" style="fill: none; stroke: rgb(251, 13, 13); stroke-opacity: 1; stroke-width: 2px;"/></g><g class="legendsymbols"><g class="legendpoints"/></g></g><rect class="legendtoggle" x="0" y="-13.200000000000001" width="236.015625" height="26.400000000000002" style="fill: rgb(0, 0, 0); fill-opacity: 0;"/></g><g class="traces" transform="translate(0,71)" style="opacity: 1;"><text class="legendtext" text-anchor="start" x="40" y="7.0200000000000005" style="font-family: 'Times New Roman', monospace; font-size: 18px; fill: rgb(105, 105, 105); fill-opacity: 1; white-space: pre;">Co0 Ni25 Fe75 600C 12h</text><g class="layers" style="opacity: 1;"><g class="legendfill"/><g class="legendlines"><path class="js-line" d="M5,0h30" style="fill: none; stroke: rgb(0, 160, 139); stroke-opacity: 1; stroke-width: 2px;"/></g><g class="legendsymbols"><g class="legendpoints"/></g></g><rect class="legendtoggle" x="0" y="-13.200000000000001" width="236.015625" height="26.400000000000002" style="fill: rgb(0, 0, 0); fill-opacity: 0;"/></g><g class="traces" transform="translate(0,97.4)" style="opacity: 1;"><text class="legendtext" text-anchor="start" x="40" y="7.0200000000000005" style="font-family: 'Times New Roman', monospace; font-size: 18px; fill: rgb(105, 105, 105); fill-opacity: 1; white-space: pre;">Co50 Ni25 Fe25 400C 24h</text><g class="layers" style="opacity: 1;"><g class="legendfill"/><g class="legendlines"><path class="js-line" d="M5,0h30" style="fill: none; stroke: rgb(178, 130, 141); stroke-opacity: 1; stroke-width: 2px;"/></g><g class="legendsymbols"><g class="legendpoints"/></g></g><rect class="legendtoggle" x="0" y="-13.200000000000001" width="236.015625" height="26.400000000000002" style="fill: rgb(0, 0, 0); fill-opacity: 0;"/></g></g></g><rect class="scrollbar" rx="20" ry="3" width="0" height="0" x="0" y="0" style="fill: rgb(128, 139, 164); fill-opacity: 1;"/></g><g class="g-gtitle"/><g class="g-xtitle"><text class="xtitle" x="406.5" y="483.009375" text-anchor="middle" style="font-family: 'Times New Roman', monospace; font-size: 22px; fill: rgb(105, 105, 105); opacity: 1; font-weight: normal; white-space: pre;">Time (min)</text></g><g class="g-ytitle" transform="translate(2.259765625,0)"><text class="ytitle" transform="rotate(-90,20.990625,260)" x="20.990625" y="260" text-anchor="middle" style="font-family: 'Times New Roman', monospace; font-size: 22px; fill: rgb(105, 105, 105); opacity: 1; font-weight: normal; white-space: pre;">Current (mA/cm​<tspan style="font-size:70%" dy="-0.6em">2</tspan><tspan dy="0.42em">​</tspan>/mg)</text></g></g></svg>