<svg class="main-svg" xmlns="http://www.w3.org/2000/svg" xmlns:xlink="http://www.w3.org/1999/xlink" width="600" height="500" style="" viewBox="0 0 600 500"><rect x="0" y="0" width="600" height="500" style="fill: rgb(255, 255, 255); fill-opacity: 1;"/><defs id="defs-2aa550"><g class="clips"><clipPath id="clip2aa550xyplot" class="plotclip"><rect width="261" height="320"/></clipPath><clipPath class="axesclip" id="clip2aa550x"><rect x="80" y="0" width="261" height="500"/></clipPath><clipPath class="axesclip" id="clip2aa550y"><rect x="0" y="100" width="600" height="320"/></clipPath><clipPath class="axesclip" id="clip2aa550xy"><rect x="80" y="100" width="261" height="320"/></clipPath></g><g class="gradients"/><g class="patterns"/></defs><g class="bglayer"><rect class="bg" x="80" y="100" width="261" height="320" style="fill: rgb(0, 0, 0); fill-opacity: 0; stroke-width: 0;"/></g><g class="layer-below"><g class="imagelayer"/><g class="shapelayer"/></g><g class="cartesianlayer"><g class="subplot xy"><g class="layer-subplot"><g class="shapelayer"/><g class="imagelayer"/></g><g class="minor-gridlayer"><g class="x"/><g class="y"/></g><g class="gridlayer"><g class="x"/><g class="y"/></g><g class="zerolinelayer"><path class="yzl zl crisp" transform="translate(0,408.15)" d="M80,0h261" style="stroke: rgb(128, 128, 128); stroke-opacity: 1; stroke-width: 1px;"/></g><path class="xlines-below"/><path class="ylines-below"/><g class="overlines-below"/><g class="xaxislayer-below"/><g class="yaxislayer-below"/><g class="overaxes-below"/><g class="plot" transform="translate(80,100)" clip-path="url(#clip2aa550xyplot)"><g class="scatterlayer mlayer"><g class="trace scatter trace7dda04" style="stroke-miterlimit: 2; opacity: 1;"><g class="fills"/><g class="errorbars"/><g class="lines"><path class="js-line" d="M-122.06,308.17L-32.85,308.13L-32.49,308.13L133.16,307.38L133.39,307.37L152.56,305.74L152.94,305.7L179.29,301.25L179.4,301.17L188.35,298.76L188.67,298.66L204.22,292.76L204.42,292.61L223.73,282.07L224.02,281.88L229.4,278.54L229.71,278.34L234.01,275.55L234.26,275.31L237.38,273.26L235.8,274.95L235.52,275.32L232.85,278.31L232.55,278.61L227.25,283.04L227.09,283.27L224.06,285.38L223.82,285.6L209.06,293.4L208.68,293.54L193.41,298.8L192.88,298.9L188.74,300.08L188.5,300.17L153.32,305.91L153.11,305.94L139.73,307.02L139.35,307.05L103.57,308.08L103.05,308.09L-106.81,308.16L138.26,307.42L138.67,307.4L158.57,305.71L158.81,305.67L174.07,303.29L174.58,303.22L188.14,299.93L188.31,299.83L194.91,297.76L195.14,297.64L223.07,285.19L223.2,285.02L226.83,283.15L227.07,282.96L237.84,276.44L236.54,277.74L236.33,278.03L229.01,283.72L228.97,283.95L221.31,288.55L221.01,288.73L217.07,290.69L216.62,290.85L214.74,291.74L214.35,291.89L190.78,299.92L190.33,300.01L182.73,301.85L182.3,301.92L154.26,306.04L153.88,306.07L135.52,307.37L135.2,307.39L107.58,308.06L107.16,308.06L87.4,308.14L87.01,308.14L-107.03,308.16L136.93,307.44L137.32,307.42L153.8,306.07L154.24,306.03L170.68,303.51L171.06,303.45L184.41,300.26L184.55,300.16L199.78,294.75L200.05,294.61L216.6,286.81L216.94,286.63L221.59,284.17L221.92,283.98L228.34,280.56L228.49,280.36L237.7,274.93L236.1,276.5L235.73,276.79L228.59,282.44L228.39,282.66L212.93,291.08L212.48,291.23L205.57,294.09L205.16,294.22L203.98,294.73L203.57,294.86L184.31,300.81L183.94,300.89L151.06,306.19L150.7,306.22L136.86,307.26L136.35,307.28L121.69,307.86L121.34,307.86L77.05,308.15L76.7,308.15L-106.97,308.15" style="vector-effect: non-scaling-stroke; fill: none; stroke: rgb(225, 95, 153); stroke-opacity: 1; stroke-width: 2px; opacity: 1;"/></g><g class="points"/><g class="text"/></g><g class="trace scatter trace591409" style="stroke-miterlimit: 2; opacity: 1;"><g class="fills"/><g class="errorbars"/><g class="lines"><path class="js-line" d="M-107.07,308.15L178.51,307.4L178.76,307.39L198.92,306.16L199.25,306.13L213.41,303.72L213.71,303.63L220.19,301.83L220.83,301.74L222.83,301.13L223.47,301.05L232.02,298.9L232.45,298.81L234.64,298.33L235.27,298.23L239.87,297.34L232.73,299.67L232.63,299.74L221.92,302.61L221.38,302.69L214.97,303.99L214.5,304.04L206.05,305.24L205.43,305.28L188.16,306.79L187.69,306.82L161.39,307.8L160.95,307.8L135.54,308.07L135.15,308.08L-106.94,308.16L183.06,307.42L183.3,307.4L221.08,303.8L221.35,303.74L240.08,300.18L205.02,305.84L204.6,305.87L195.48,306.61L195.22,306.63L147.98,308.02L147.62,308.02L-107.04,308.15L183.81,307.41L184.25,307.4L217.25,304.65L217.6,304.61L228.53,302.96L228.97,302.89L235.42,301.69L235.94,301.63L240.12,300.81L204.33,306.05L203.93,306.08L183.48,307.32L183.16,307.33L159.33,307.92L158.88,307.92L125.11,308.12L124.57,308.12L-107.15,308.16" style="vector-effect: non-scaling-stroke; fill: none; stroke: rgb(251, 13, 13); stroke-opacity: 1; stroke-width: 2px; opacity: 1;"/></g><g class="points"/><g class="text"/></g><g class="trace scatter trace5cee04" style="stroke-miterlimit: 2; opacity: 1;"><g class="fills"/><g class="errorbars"/><g class="lines"><path class="js-line" d="M-146.79,308.1L-68.56,308.14L-68.26,308.14L197.21,307.39L197.81,307.38L212.41,305.89L212.89,305.81L221.14,301.81L221.24,301.51L223.26,299.5L223.64,299.14L224.29,298.04L225.01,297.66L225.58,296.54L226.24,296.17L226.6,295.11L227.37,294.76L227.86,293.82L228.52,293.54L230.15,291.92L231.28,291.76L232.98,291.04L233.6,291.02L237.8,291.36L238.66,291.45L238.96,291.63L238.53,292.3L237.88,292.71L233.98,297.34L233.49,297.6L231.82,298.78L231.6,298.99L228.4,300.97L227.63,301.13L219.52,303.86L219.42,303.94L211.08,305.37L211.23,305.42L186.58,307.36L186.08,307.37L146.37,308.08L145.84,308.08L-107.14,308.15L194.73,307.4L194.94,307.38L224.75,304.96L225.18,304.92L235.72,303.49L236.02,303.44L240.17,302.8L221.92,305.66L221.51,305.69L189.31,307.56L188.79,307.57L158.31,308.04L157.84,308.04L108.62,308.14L108.08,308.14L-107.32,308.14L198.23,307.41L198.98,307.39L234.82,304.76L234.89,304.71L240.79,304.04L226.22,305.73L225.64,305.77L225.79,305.8L223.03,306.01L222.7,306.05L208.27,307L207.57,307.01L178.22,307.86L177.85,307.86L110.27,308.14L109.91,308.14L-106.87,308.15L-106.76,308.15" style="vector-effect: non-scaling-stroke; fill: none; stroke: rgb(0, 160, 139); stroke-opacity: 1; stroke-width: 2px; opacity: 1;"/></g><g class="points"/><g class="text"/></g><g class="trace scatter trace42f7d4" style="stroke-miterlimit: 2; opacity: 1;"><g class="fills"/><g class="errorbars"/><g class="lines"><path class="js-line" d="M-123.55,308.16L-6.84,308.07L-6.52,308.07L75.79,307.32L76.21,307.31L101.44,306.56L101.81,306.54L115.54,304.97L115.83,304.9L123.68,302.05L124,301.89L129.67,298.29L129.89,298.06L134.45,294.05L134.76,293.76L140.28,287.47L140.54,287.1L149.14,273.99L149.35,273.53L161.66,248.51L161.87,247.94L168.19,232.37L168.43,231.73L176.33,209.36L176.48,208.68L179.01,201.1L179.16,200.39L182.59,189.88L182.85,189.2L188.74,169.4L188.97,168.73L191.7,158.86L191.91,158.11L195.09,146.6L195.3,145.8L198.07,135.73L198.2,134.96L201.14,123.8L201.3,122.98L205.36,107.2L205.41,106.8L201.04,130.73L200.84,131.51L199.67,136.68L199.44,137.27L189.08,180.77L188.79,181.52L183.65,199.56L183.4,200.3L181.48,206.79L181.31,207.49L164.6,250.6L164.29,251.13L155.64,267.16L155.34,267.61L149.89,275.89L149.58,276.28L139.61,288.26L139.25,288.56L135.27,292.16L135,292.42L131.74,295.14L131.34,295.37L129.6,296.7L129.22,296.91L118.08,302.96L117.68,303.09L109.47,305.65L109.11,305.72L100.56,307.16L100.22,307.2L79.54,308.2L79.23,308.2L39.9,308.37L39.55,308.37L-107.06,308.2L75.82,307.62L76.17,307.61L105.43,306.86L105.7,306.83L117.25,304.65L117.47,304.55L124.64,301.4L124.9,301.22L132.9,295.19L133.23,294.91L137.32,290.6L137.68,290.26L147.15,276.62L147.32,276.16L149.78,271.91L150.02,271.4L159.4,251.41L159.54,250.81L165.38,235.92L165.55,235.28L168.05,228L168.26,227.31L172.56,214L172.7,213.31L174.37,208.36L174.6,207.52L176.25,201.68L176.57,200.92L181.86,182.18L182.07,181.43L185.66,167.96L185.82,167.23L188.12,158.14L188.3,157.27L191.1,145.95L191.35,145.15L203.51,96.43L201.8,105.23L201.61,106.17L198.8,119.98L198.6,120.91L196.74,129.88L196.53,130.79L193.13,146.67L192.95,147.52L191.92,151.69L191.67,152.57L189.74,161L189.53,161.83L181.77,192.44L181.52,193.21L178.27,204.37L178.06,205.06L175.83,212.11L175.65,212.81L162.27,249.47L161.96,250.04L152.82,268.8L152.51,269.27L139.47,287.81L139.16,288.14L127.3,298.44L127.03,298.64L114.78,304.36L114.44,304.46L107.11,306.27L106.8,306.33L95.8,307.65L95.44,307.67L72.23,308.31L71.93,308.31L43.07,308.39L42.67,308.39L-107.08,308.22L78.61,307.65L79.04,307.64L106.07,306.91L106.3,306.88L115.59,305.37L115.91,305.28L126.31,300.99L126.59,300.81L133.06,296L133.38,295.73L137.54,291.6L137.82,291.27L148.99,275.32L149.21,274.86L156.25,261.22L156.48,260.68L157.87,257.36L158.2,256.81L160.46,251.64L160.67,251.04L171.11,223.04L171.23,222.35L178.06,199.62L178.32,198.86L181.06,189.27L181.26,188.53L182.75,183.23L183,182.47L185.06,174.68L185.31,173.97L188.79,160.23L188.97,159.35L194.08,139.03L194.28,138.11L201.99,105.2L202.13,104.21L203.79,97.45L197.04,130.02L196.94,130.88L195.03,139.67L194.74,140.43L186.74,173.52L186.44,174.26L183.11,186.85L182.88,187.57L181.95,191.34L181.7,192.1L179.47,199.76L179.39,200.49L164.27,244.67L163.94,245.28L160.24,253.94L160.05,254.51L148.8,275.8L148.54,276.23L144.13,282.68L143.85,283.05L136.61,291.38L136.31,291.68L131.51,295.93L131.18,296.17L127.44,298.88L127.08,299.07L116.81,303.96L116.48,304.08L108.46,306.15L108.11,306.22L98.26,307.51L97.88,307.54L81.93,308.2L81.59,308.21L-107.03,308.23" style="vector-effect: non-scaling-stroke; fill: none; stroke: rgb(178, 130, 141); stroke-opacity: 1; stroke-width: 2px; opacity: 1;"/></g><g class="points"/><g class="text"/></g></g></g><g class="overplot"/><path class="xlines-above crisp" d="M78,421H341" style="fill: none; stroke-width: 2px; stroke: rgb(0, 0, 0); stroke-opacity: 1;"/><path class="ylines-above crisp" d="M79,100V420" style="fill: none; stroke-width: 2px; stroke: rgb(0, 0, 0); stroke-opacity: 1;"/><g class="overlines-above"/><g class="xaxislayer-above"><path class="xtick ticks crisp" d="M0,422v5" transform="translate(80,0)" style="stroke: rgb(68, 68, 68); stroke-opacity: 1; stroke-width: 1px;"/><path class="xtick ticks crisp" d="M0,422v5" transform="translate(114.8,0)" style="stroke: rgb(68, 68, 68); stroke-opacity: 1; stroke-width: 1px;"/><path class="xtick ticks crisp" d="M0,422v5" transform="translate(149.6,0)" style="stroke: rgb(68, 68, 68); stroke-opacity: 1; stroke-width: 1px;"/><path class="xtick ticks crisp" d="M0,422v5" transform="translate(184.4,0)" style="stroke: rgb(68, 68, 68); stroke-opacity: 1; stroke-width: 1px;"/><path class="xtick ticks crisp" d="M0,422v5" transform="translate(219.2,0)" style="stroke: rgb(68, 68, 68); stroke-opacity: 1; stroke-width: 1px;"/><path class="xtick ticks crisp" d="M0,422v5" transform="translate(254,0)" style="stroke: rgb(68, 68, 68); stroke-opacity: 1; stroke-width: 1px;"/><path class="xtick ticks crisp" d="M0,422v5" transform="translate(288.8,0)" style="stroke: rgb(68, 68, 68); stroke-opacity: 1; stroke-width: 1px;"/><path class="xtick ticks crisp" d="M0,422v5" transform="translate(323.6,0)" style="stroke: rgb(68, 68, 68); stroke-opacity: 1; stroke-width: 1px;"/><g class="xtick"><text text-anchor="middle" x="0" y="448.6" transform="translate(80,0)" style="font-family: 'Times New Roman', monospace; font-size: 18px; fill: rgb(105, 105, 105); fill-opacity: 1; white-space: pre; opacity: 1;">0</text></g><g class="xtick"><text text-anchor="middle" x="0" y="448.6" style="font-family: 'Times New Roman', monospace; font-size: 18px; fill: rgb(105, 105, 105); fill-opacity: 1; white-space: pre; opacity: 1;" transform="translate(114.8,0)">0.1</text></g><g class="xtick"><text text-anchor="middle" x="0" y="448.6" style="font-family: 'Times New Roman', monospace; font-size: 18px; fill: rgb(105, 105, 105); fill-opacity: 1; white-space: pre; opacity: 1;" transform="translate(149.6,0)">0.2</text></g><g class="xtick"><text text-anchor="middle" x="0" y="448.6" style="font-family: 'Times New Roman', monospace; font-size: 18px; fill: rgb(105, 105, 105); fill-opacity: 1; white-space: pre; opacity: 1;" transform="translate(184.4,0)">0.3</text></g><g class="xtick"><text text-anchor="middle" x="0" y="448.6" style="font-family: 'Times New Roman', monospace; font-size: 18px; fill: rgb(105, 105, 105); fill-opacity: 1; white-space: pre; opacity: 1;" transform="translate(219.2,0)">0.4</text></g><g class="xtick"><text text-anchor="middle" x="0" y="448.6" style="font-family: 'Times New Roman', monospace; font-size: 18px; fill: rgb(105, 105, 105); fill-opacity: 1; white-space: pre; opacity: 1;" transform="translate(254,0)">0.5</text></g><g class="xtick"><text text-anchor="middle" x="0" y="448.6" style="font-family: 'Times New Roman', monospace; font-size: 18px; fill: rgb(105, 105, 105); fill-opacity: 1; white-space: pre; opacity: 1;" transform="translate(288.8,0)">0.6</text></g><g class="xtick"><text text-anchor="middle" x="0" y="448.6" style="font-family: 'Times New Roman', monospace; font-size: 18px; fill: rgb(105, 105, 105); fill-opacity: 1; white-space: pre; opacity: 1;" transform="translate(323.6,0)">0.7</text></g></g><g class="yaxislayer-above"><path class="ytick ticks crisp" d="M78,0h-5" transform="translate(0,408.15)" style="stroke: rgb(68, 68, 68); stroke-opacity: 1; stroke-width: 1px;"/><path class="ytick ticks crisp" d="M78,0h-5" transform="translate(0,360.74)" style="stroke: rgb(68, 68, 68); stroke-opacity: 1; stroke-width: 1px;"/><path class="ytick ticks crisp" d="M78,0h-5" transform="translate(0,313.33000000000004)" style="stroke: rgb(68, 68, 68); stroke-opacity: 1; stroke-width: 1px;"/><path class="ytick ticks crisp" d="M78,0h-5" transform="translate(0,265.93)" style="stroke: rgb(68, 68, 68); stroke-opacity: 1; stroke-width: 1px;"/><path class="ytick ticks crisp" d="M78,0h-5" transform="translate(0,218.51999999999998)" style="stroke: rgb(68, 68, 68); stroke-opacity: 1; stroke-width: 1px;"/><path class="ytick ticks crisp" d="M78,0h-5" transform="translate(0,171.11)" style="stroke: rgb(68, 68, 68); stroke-opacity: 1; stroke-width: 1px;"/><path class="ytick ticks crisp" d="M78,0h-5" transform="translate(0,123.7)" style="stroke: rgb(68, 68, 68); stroke-opacity: 1; stroke-width: 1px;"/><g class="ytick"><text text-anchor="end" x="69.4" y="6.3" transform="translate(0,408.15)" style="font-family: 'Times New Roman', monospace; font-size: 18px; fill: rgb(105, 105, 105); fill-opacity: 1; white-space: pre; opacity: 1;">0</text></g><g class="ytick"><text text-anchor="end" x="69.4" y="6.3" style="font-family: 'Times New Roman', monospace; font-size: 18px; fill: rgb(105, 105, 105); fill-opacity: 1; white-space: pre; opacity: 1;" transform="translate(0,360.74)">20</text></g><g class="ytick"><text text-anchor="end" x="69.4" y="6.3" style="font-family: 'Times New Roman', monospace; font-size: 18px; fill: rgb(105, 105, 105); fill-opacity: 1; white-space: pre; opacity: 1;" transform="translate(0,313.33000000000004)">40</text></g><g class="ytick"><text text-anchor="end" x="69.4" y="6.3" style="font-family: 'Times New Roman', monospace; font-size: 18px; fill: rgb(105, 105, 105); fill-opacity: 1; white-space: pre; opacity: 1;" transform="translate(0,265.93)">60</text></g><g class="ytick"><text text-anchor="end" x="69.4" y="6.3" style="font-family: 'Times New Roman', monospace; font-size: 18px; fill: rgb(105, 105, 105); fill-opacity: 1; white-space: pre; opacity: 1;" transform="translate(0,218.51999999999998)">80</text></g><g class="ytick"><text text-anchor="end" x="69.4" y="6.3" style="font-family: 'Times New Roman', monospace; font-size: 18px; fill: rgb(105, 105, 105); fill-opacity: 1; white-space: pre; opacity: 1;" transform="translate(0,171.11)">100</text></g><g class="ytick"><text text-anchor="end" x="69.4" y="6.3" style="font-family: 'Times New Roman', monospace; font-size: 18px; fill: rgb(105, 105, 105); fill-opacity: 1; white-space: pre; opacity: 1;" transform="translate(0,123.7)">120</text></g></g><g class="overaxes-above"/></g></g><g class="polarlayer"/><g class="smithlayer"/><g class="ternarylayer"/><g class="geolayer"/><g class="funnelarealayer"/><g class="pielayer"/><g class="iciclelayer"/><g class="treemaplayer"/><g class="sunburstlayer"/><g class="glimages"/><defs id="topdefs-2aa550"><g class="clips"/><clipPath id="legend2aa550"><rect width="242" height="116" x="0" y="0"/></clipPath></defs><g class="layer-above"><g class="imagelayer"/><g class="shapelayer"/></g><g class="infolayer"><g class="legend" pointer-events="all" transform="translate(346.22,100)"><rect class="bg" shape-rendering="crispEdges" width="242" height="116" x="0" y="0" style="stroke: rgb(68, 68, 68); stroke-opacity: 1; fill: rgb(255, 255, 255); fill-opacity: 1; stroke-width: 0px;"/><g class="scrollbox" transform="" clip-path="url(#legend2aa550)"><g class="groups"><g class="traces" transform="translate(0,18.200000000000003)" style="opacity: 1;"><text class="legendtext" text-anchor="start" x="40" y="7.0200000000000005" style="font-family: 'Times New Roman', monospace; font-size: 18px; fill: rgb(105, 105, 105); fill-opacity: 1; white-space: pre;">Co0 Ni50 Fe50 400C 2h</text><g class="layers" style="opacity: 1;"><g class="legendfill"/><g class="legendlines"><path class="js-line" d="M5,0h30" style="fill: none; stroke: rgb(225, 95, 153); stroke-opacity: 1; stroke-width: 2px;"/></g><g class="legendsymbols"><g class="legendpoints"/></g></g><rect class="legendtoggle" x="0" y="-13.200000000000001" width="236.015625" height="26.400000000000002" style="fill: rgb(0, 0, 0); fill-opacity: 0;"/></g><g class="traces" transform="translate(0,44.6)" style="opacity: 1;"><text class="legendtext" text-anchor="start" x="40" y="7.0200000000000005" style="font-family: 'Times New Roman', monospace; font-size: 18px; fill: rgb(105, 105, 105); fill-opacity: 1; white-space: pre;">Co33 Ni33 Fe33 800C 2h</text><g class="layers" style="opacity: 1;"><g class="legendfill"/><g class="legendlines"><path class="js-line" d="M5,0h30" style="fill: none; stroke: rgb(251, 13, 13); stroke-opacity: 1; stroke-width: 2px;"/></g><g class="legendsymbols"><g class="legendpoints"/></g></g><rect class="legendtoggle" x="0" y="-13.200000000000001" width="236.015625" height="26.400000000000002" style="fill: rgb(0, 0, 0); fill-opacity: 0;"/></g><g class="traces" transform="translate(0,71)" style="opacity: 1;"><text class="legendtext" text-anchor="start" x="40" y="7.0200000000000005" style="font-family: 'Times New Roman', monospace; font-size: 18px; fill: rgb(105, 105, 105); fill-opacity: 1; white-space: pre;">Co0 Ni25 Fe75 600C 12h</text><g class="layers" style="opacity: 1;"><g class="legendfill"/><g class="legendlines"><path class="js-line" d="M5,0h30" style="fill: none; stroke: rgb(0, 160, 139); stroke-opacity: 1; stroke-width: 2px;"/></g><g class="legendsymbols"><g class="legendpoints"/></g></g><rect class="legendtoggle" x="0" y="-13.200000000000001" width="236.015625" height="26.400000000000002" style="fill: rgb(0, 0, 0); fill-opacity: 0;"/></g><g class="traces" transform="translate(0,97.4)" style="opacity: 1;"><text class="legendtext" text-anchor="start" x="40" y="7.0200000000000005" style="font-family: 'Times New Roman', monospace; font-size: 18px; fill: rgb(105, 105, 105); fill-opacity: 1; white-space: pre;">Co50 Ni25 Fe25 400C 24h</text><g class="layers" style="opacity: 1;"><g class="legendfill"/><g class="legendlines"><path class="js-line" d="M5,0h30" style="fill: none; stroke: rgb(178, 130, 141); stroke-opacity: 1; stroke-width: 2px;"/></g><g class="legendsymbols"><g class="legendpoints"/></g></g><rect class="legendtoggle" x="0" y="-13.200000000000001" width="236.015625" height="26.400000000000002" style="fill: rgb(0, 0, 0); fill-opacity: 0;"/></g></g></g><rect class="scrollbar" rx="20" ry="3" width="0" height="0" x="0" y="0" style="fill: rgb(128, 139, 164); fill-opacity: 1;"/></g><g class="g-gtitle"/><g class="g-xtitle"><text class="xtitle" x="210.5" y="483.009375" text-anchor="middle" style="font-family: 'Times New Roman', monospace; font-size: 22px; fill: rgb(105, 105, 105); opacity: 1; font-weight: normal; white-space: pre;">Overpotential, η(V) - iR​<tspan style="font-size:70%" dy="0.3em">u</tspan><tspan dy="-0.21em">​</tspan></text></g><g class="g-ytitle" transform="translate(11.259765625,0)"><text class="ytitle" transform="rotate(-90,11.990624999999994,260)" x="11.990624999999994" y="260" text-anchor="middle" style="font-family: 'Times New Roman', monospace; font-size: 22px; fill: rgb(105, 105, 105); opacity: 1; font-weight: normal; white-space: pre;">Current (mA/cm​<tspan style="font-size:70%" dy="-0.6em">2</tspan><tspan dy="0.42em">​</tspan>)</text></g></g></svg>