<svg class="main-svg" xmlns="http://www.w3.org/2000/svg" xmlns:xlink="http://www.w3.org/1999/xlink" width="500" height="500" style="" viewBox="0 0 500 500"><rect x="0" y="0" width="500" height="500" style="fill: rgb(255, 255, 255); fill-opacity: 1;"/><defs id="defs-32d06f"><g class="clips"><clipPath id="clip32d06fxyplot" class="plotclip"><rect width="400" height="400"/></clipPath><clipPath class="axesclip" id="clip32d06fx"><rect x="86" y="0" width="400" height="500"/></clipPath><clipPath class="axesclip" id="clip32d06fy"><rect x="0" y="15" width="500" height="400"/></clipPath><clipPath class="axesclip" id="clip32d06fxy"><rect x="86" y="15" width="400" height="400"/></clipPath></g><g class="gradients"/><g class="patterns"/></defs><g class="bglayer"><rect class="bg" x="86" y="15" width="400" height="400" style="fill: rgb(0, 0, 0); fill-opacity: 0; stroke-width: 0;"/></g><g class="layer-below"><g class="imagelayer"/><g class="shapelayer"/></g><g class="cartesianlayer"><g class="subplot xy"><g class="layer-subplot"><g class="shapelayer"/><g class="imagelayer"/></g><g class="minor-gridlayer"><g class="x"/><g class="y"/></g><g class="gridlayer"><g class="x"/><g class="y"/></g><g class="zerolinelayer"/><path class="xlines-below"/><path class="ylines-below"/><g class="overlines-below"/><g class="xaxislayer-below"/><g class="yaxislayer-below"/><g class="overaxes-below"/><g class="plot" transform="translate(86,15)" clip-path="url(#clip32d06fxyplot)"><g class="scatterlayer mlayer"><g class="trace scatter trace86f9be" style="stroke-miterlimit: 2; opacity: 1;"><g class="fills"/><g class="errorbars"/><g class="lines"><path class="js-line" d="M0,229.95L0.6,200.96L0.77,201.87L0.78,201.72L2.11,199.74L2.19,200.03L2.2,200.33L2.25,200.59L2.79,199.61L2.9,199.7L2.91,199.69L3.1,199.57L3.15,200.42L3.22,200.47L3.23,200.52L4.04,199.52L4.09,199.55L4.1,199.55L4.19,200.62L4.73,199.56L4.74,199.53L5.33,199.71L5.56,199.49L5.57,199.46L7.2,200.14L7.25,199.93L7.26,199.87L7.82,200.57L7.83,200.66L8.08,200.08L8.15,201.02L8.4,200.16L8.41,200.11L8.69,200.87L9.09,199.91L9.2,200.16L9.21,200.17L9.69,200.48L10.06,199.73L10.11,199.79L10.12,199.8L10.31,200.08L11.03,199.86L11.06,200.05L11.06,200.15L11.3,200.78L11.65,199.81L11.84,199.91L11.85,199.88L12.65,200.38L12.66,200.6L13.01,199.92L13.1,201.36L13.11,202.08L13.18,210.87L13.65,199.82L13.81,199.82L13.82,199.81L15.72,199.92L15.73,200.06L15.74,200.31L15.81,200.83L16.02,199.86L16.4,199.9L16.41,199.88L16.87,200.68L17.22,199.84L17.23,199.81L19.31,199.45L19.32,199.89L19.33,200.03L20.11,199.39L20.19,199.46L20.2,199.44L21.8,199.3L21.81,199.42L21.81,199.67L21.92,199.73L22.49,199.19L22.55,199.6L22.56,199.79L23.32,199.17L23.37,199.23L23.38,199.34L23.71,199.21L23.96,199.75L24.13,199.37L24.14,199.37L25.06,200.03L25.31,199.66L25.31,199.61L26.11,199.46L26.16,199.51L26.17,199.62L26.22,200.4L26.85,199.29L26.9,199.38L26.91,199.37L27.87,200L27.88,200.06L28.76,199.12L28.77,199.15L29.5,199.26L29.54,199.14L29.55,199.1L30.38,199.45L30.48,199.22L30.49,199.21L30.65,199.08L30.73,199.92L31.27,199.45L31.28,199.31L31.44,199.8L32.03,198.94L32.16,199.22L32.17,199.22L32.42,199.68L32.81,199.03L32.9,199.06L32.91,199.06L33.74,198.99L33.75,198.95L34.02,198.92L34.46,199.36L34.49,198.96L34.5,198.92L34.8,199.5L35.31,198.92L35.32,198.93L35.41,198.89L35.45,199.57L36.07,199.03L36.08,199L36.79,199.28L36.84,199.07L36.85,199.04L37.25,199.09L37.28,199.58L37.29,199.63L37.82,198.96L38.08,199.09L38.09,199.08L39.64,199.63L39.65,199.7L40.44,199.1L40.45,199.13L40.46,199.14L41.33,199.68L41.34,199.75L41.37,199.97L41.66,198.97L42.01,199.17L42.02,199.08L43.29,198.85L43.36,198.96L43.37,198.99L43.4,199.25L43.45,197.18L44.1,198.84L44.11,198.85L45.96,199.34L45.97,199.51L46.51,199.72L46.75,198.96L46.78,199.26L46.79,199.39L47.06,199.49L47.22,198.91L47.57,199.1L47.58,199.1L48.32,198.81L48.42,199.05L48.43,199.09L48.95,198.77L49.21,198.9L49.22,198.92L50.17,199.44L50.18,199.58L50.95,198.77L50.98,198.9L50.99,198.93L51.14,199.41L51.81,198.76L51.82,198.77L51.83,198.96L51.9,198.73L52.06,199.32L52.57,198.84L52.58,198.79L53.41,199.04L53.42,199.03L55,198.81L55.02,199.01L55.03,199.2L55.28,199.65L55.56,198.85L55.76,198.89L55.77,198.91L57.31,199.6L57.42,198.99L57.43,198.96L59.92,198.74L59.95,199.27L59.96,199.39L60.78,198.72L60.79,198.69L63.56,199.04L63.56,199.19L63.58,199.35L63.94,198.56L64.24,198.63L64.25,198.66L64.44,199.35L64.48,198.61L65.07,199.05L65.08,199.01L65.79,198.61L65.91,198.83L65.92,198.95L66.04,199.35L66.75,198.74L66.76,198.75L68.01,198.86L68.02,198.83L68.03,198.81L69.03,198.83L69.04,199.04L69.05,199.21L69.07,199.43L69.59,198.68L69.78,198.79L69.79,198.74L70.96,198.88L71.07,198.68L71.08,198.64L71.81,199.06L71.85,198.74L71.86,198.68L72.83,198.99L72.89,198.87L72.9,198.84L73.03,198.99L73.69,198.69L73.8,198.93L73.81,198.93L74.87,198.75L74.9,198.81L74.91,198.83L75.62,198.87L75.64,199.2L75.65,199.28L76.4,198.7L76.45,198.77L76.46,198.77L77.05,199.33L77.2,198.71L77.21,198.68L78.12,198.6L78.13,198.75L78.14,198.96L78.63,198.5L78.9,198.67L78.91,198.72L79.38,199.13L79.58,198.59L79.67,198.68L79.68,198.69L79.86,198.79L80.39,198.55L80.43,198.74L80.44,198.77L81.48,198.44L81.54,198.73L81.55,198.82L82.23,198.42L82.36,198.46L82.37,198.5L83.68,198.63L83.71,198.57L83.72,198.55L84.44,198.66L84.55,198.56L84.56,198.55L86.01,198.66L86.02,198.61L89.23,199.18L89.24,199.27L90.07,198.65L90.1,198.72L90.11,198.72L90.97,199L91.05,198.86L91.06,198.85L91.86,198.66L91.9,198.71L91.91,198.89L92.46,198.55L92.66,199.21L92.67,199.18L92.68,198.99L93.43,198.61L93.44,198.68L93.45,198.82L94.23,198.69L94.25,198.7L94.26,198.83L94.93,198.63L94.96,199.06L94.97,199.16L95.63,198.66L95.8,198.71L95.81,198.71L103.61,198.64L103.62,198.59L105.88,199.05L105.92,198.75L105.93,198.73L107.34,198.67L107.35,199.01L107.36,199.4L107.38,199.82L107.67,198.57L108.09,198.91L108.1,198.87L108.47,199.12L108.9,198.59L108.93,198.68L108.94,198.71L109.22,198.58L109.65,198.92L109.67,198.71L109.68,198.66L109.84,198.99L110.44,198.64L110.45,198.64L111.27,198.84L111.29,198.72L111.3,198.72L114.47,198.69L114.49,198.89L114.5,198.95L115.22,198.5L115.28,198.69L115.29,198.7L115.65,199L116.07,198.63L116.08,198.68L116.32,198.57L116.8,199.01L116.85,198.59L116.86,198.58L117.22,199.14L117.62,198.64L117.63,198.63L120.53,198.72L120.54,198.69L120.7,198.61L121.31,198.99L121.32,198.96L121.38,198.67L121.76,201L121.77,202.24L121.81,208.35L122.49,198.52L122.5,198.55L123.63,198.36L123.67,198.48L123.68,198.49L124.64,198.29L124.65,198.43L124.66,198.56L125.23,198.25L125.32,198.73L125.38,198.34L125.39,198.31L126.2,198.61L126.3,198.27L126.31,198.26L127.33,198.31L127.35,198.35L127.36,198.37L127.41,198.67L128.12,198.46L128.13,198.41L129.08,198.35L129.13,198.73L129.14,198.79L129.17,198.4L129.89,198.65L129.9,198.65L131.56,198.65L131.58,198.83L131.59,198.95L132.48,198.59L132.52,198.63L132.53,198.62L133.19,199L133.44,198.66L133.44,198.64L134.04,198.8L134.22,198.74L134.23,198.69L134.87,198.83L135.07,198.6L135.08,198.57L135.76,198.84L135.92,198.66L135.93,198.62L136.77,198.96L136.91,198.68L136.92,198.68L136.95,198.89L137.01,198.52L137.67,198.67L137.68,198.66L138.65,198.82L138.74,198.65L138.75,198.64L140.38,198.61L140.39,198.68L140.47,198.56L140.59,198.87L141.14,198.68L141.15,198.66L142.06,198.83L142.09,198.68L142.1,198.63L144.11,198.84L144.12,198.96L144.13,199.06L144.94,198.74L144.96,198.78L144.97,198.77L145.93,198.92L145.98,198.84L145.99,198.81L146.28,199.01L146.74,198.76L146.75,198.73L148.72,198.73L148.74,198.83L148.75,198.88L149.78,198.61L149.79,198.62L149.8,198.73L150.66,198.66L150.69,198.83L150.69,198.9L150.86,199.05L151.19,198.58L151.51,198.81L151.52,198.8L155.84,198.83L155.85,198.78L157.04,199.05L157.11,198.82L157.12,198.8L157.87,199.11L158,199.01L158.01,198.95L165.73,198.89L165.74,198.96L166.56,198.73L166.56,198.73L166.57,198.76L167.9,199.04L167.91,199.21L167.92,199.26L168.49,198.86L168.69,199.07L168.7,199.06L170.02,199.02L170.04,199.08L170.05,199.11L172.46,198.95L172.47,198.87L173.84,199.06L173.85,199.04L173.86,199.02L177.81,199.04L177.81,199.19L177.82,199.23L178.63,199.05L178.64,199.07L178.65,199.1L182.63,199.09L182.64,199.21L182.65,199.27L183.33,199.04L183.41,199.08L183.42,199.13L184.31,199.04L184.38,199.14L184.39,199.15L215.19,199.69L215.19,199.73L215.2,199.77L216.08,199.69L216.13,199.76L216.14,199.79L217.42,200.23L217.51,199.87L217.52,199.8L218.57,199.85L218.59,199.74L218.6,199.7L219.71,199.66L219.75,199.56L219.76,199.54L220.51,199.8L220.54,199.62L220.55,199.6L221.81,199.59L221.84,199.49L221.85,199.45L222.81,199.62L222.86,199.56L222.87,199.57L227.07,199.89L227.08,199.94L227.94,199.75L227.97,199.88L227.98,199.9L228.86,199.81L228.87,199.83L228.88,199.85L231.18,199.76L231.19,200.11L231.2,200.39L231.29,209.94L231.82,199.89L231.83,199.87L233.26,199.75L233.29,199.68L233.3,199.66L246.84,200.03L246.85,200.02L248.73,200.05L248.74,200.01L250.19,200.08L250.2,200.01L250.21,199.97L251.4,200.08L251.41,200.04L251.42,199.99L252.56,200.11L252.58,200.05L252.59,200.04L257.63,199.96L257.64,200.07L258.45,200.06L258.46,200.09L258.47,200.14L263.4,200.48L263.41,200.52L264.99,200.2L265,200.25L265.01,200.29L268,200.48L268.01,200.57L268.73,200.42L268.8,200.54L268.81,200.56L270.06,200.47L270.07,200.5L270.08,200.55L273.01,200.63L273.02,200.63L274.35,200.5L274.36,200.55L276.5,200.42L276.51,200.45L276.52,200.47L277.61,200.28L277.64,200.38L277.65,200.41L279.9,200.46L279.91,200.5L279.92,200.54L282.49,200.62L282.5,200.54L282.51,200.47L283.48,200.61L283.52,200.56L283.53,200.53L319.16,200.96L319.17,200.99L320.35,200.89L320.37,200.94L320.38,200.96L322.04,200.94L322.05,200.86L323.17,201L323.18,200.93L323.19,200.91L325.43,200.94L325.45,201.04L325.46,201.05L326.45,200.99L326.46,201L326.47,201.06L327.75,200.94L327.79,201.04L327.8,201.07L330.62,201.07L330.63,201.09L334.73,201.46L334.74,201.47L336.15,201.47L336.16,201.5L340.12,201.19L340.13,200.7L340.18,198.83L340.32,201.48L340.86,201.41L340.87,201.45L341.75,201.57L341.76,201.6L341.77,201.63L342.89,201.5L342.93,201.55L342.94,201.61L354.65,201.7L354.66,201.67L355.88,201.89L355.89,201.83L356.91,201.86L356.92,201.82L356.93,201.8L358.49,201.92L358.5,201.91L359.78,201.94L359.79,201.91L359.8,201.91L361.19,201.84L361.22,201.91L361.23,201.95L362.29,201.89L362.3,201.91L362.31,201.98L367.92,201.86L367.93,201.88L370.46,202.09L370.47,202.09L371.43,202.04L371.45,202.07L371.46,202.11L375.87,202.13L375.88,202.04L377.14,202.1L377.15,202.08L377.16,202.05L378.03,202.19L378.04,202.18L378.05,202.14L379.14,202.16L379.15,202.08L381.44,202.09L381.45,202.05L382.39,202.12L382.42,202.06L382.43,202L383.47,202.05L383.5,202.01L383.51,201.98L384.81,202.11L384.81,202.01L386.56,202.47L386.56,202.46L386.57,202.41L387.6,202.51L387.62,202.45L387.63,202.45L390.55,202.47L390.56,202.52L392.04,202.45L392.05,202.39L393.16,202.62L393.18,202.53L393.19,202.5L394.4,202.59L394.43,202.51L394.44,202.49L396.5,202.44L396.51,202.38L397.71,202.47L397.73,202.43L397.74,202.37L398.77,202.38L398.78,202.35L399.56,202.52L399.67,202.41L399.68,202.38L401.4,202.39L401.43,202.31L401.44,202.28L402.43,202.38L402.44,202.37L402.44,202.33L405.51,202.51L405.52,202.57L405.53,202.6L405.81,202.68L405.82,203.31L405.83,203.91L405.9,211.83L406.5,202.65L406.65,202.78L406.66,202.78L407.9,202.68L407.91,202.69L407.92,202.75L410.37,202.61L410.38,202.65L413.07,202.78L413.08,202.85L416.71,202.76L416.72,202.79L418.46,202.82L418.47,202.84L418.48,202.89L421,202.86L421.01,202.88L421.02,202.92L425.35,202.85L425.36,202.76L438.81,203.12L438.81,203.06L438.82,202.97L449.91,202.85L449.92,202.81L457.04,203.3L457.05,203.24L457.06,203.22L591.81,208.09L591.81,209.5L591.86,214.97L594.68,204.91L596.2,205.02L596.21,205.02L617.2,204.99L617.27,202.13L617.28,201.71L622.08,205.49L622.31,205.45L622.32,205.47L634.68,205.41" style="vector-effect: non-scaling-stroke; fill: none; stroke: rgb(46, 145, 229); stroke-opacity: 1; stroke-width: 3px; opacity: 1;"/></g><g class="points"/><g class="text"/></g><g class="trace scatter trace91048b" style="stroke-miterlimit: 2; opacity: 1;"><g class="fills"/><g class="errorbars"/><g class="lines"><path class="js-line" d="M0,406.26L0.18,201.65L0.75,201.88L0.76,201.9L1.09,201.76L1.6,202.47L1.62,202.17L1.62,202.16L1.8,202.09L1.96,202.65L2.37,202.33L2.38,202.38L2.58,202.27L2.91,203L3.13,202.74L3.14,202.78L3.3,202.3L3.78,203.58L3.78,203.67L3.85,216.67L4.35,203.12L4.52,203.57L4.53,203.62L4.87,203.23L5.22,203.88L5.28,203.74L5.29,203.76L5.67,203.29L5.98,203.86L5.98,203.92L6.17,203.46L6.61,204.06L6.73,203.9L6.74,203.94L6.87,203.64L7.53,204.24L7.53,204.13L7.53,204.04L7.58,203.82L8.05,204.45L8.29,204.09L8.3,204.12L8.54,203.93L8.84,204.52L9.05,204.21L9.06,204.29L9.08,204.12L9.21,204.86L9.81,204.61L9.82,204.61L9.93,204.35L10.56,204.95L10.6,204.79L10.61,204.73L10.72,204.57L11.2,205.08L11.36,204.85L11.37,204.94L11.76,204.56L11.85,205.22L12.12,204.95L12.12,205L12.3,205.22L12.43,204.73L12.85,205.09L12.85,205.14L12.97,205.42L13.27,204.83L13.57,205.41L13.57,205.44L14.15,204.92L14.3,205.53L14.32,205.36L14.32,205.44L14.4,205.66L15.06,204.97L15.08,205.27L15.08,205.31L15.44,205.69L15.48,205.1L15.82,205.44L15.82,205.54L15.9,205.84L16.42,204.96L16.57,205.38L16.58,205.43L16.7,205.17L17.08,205.95L17.28,205.71L17.29,205.73L17.29,205.52L17.42,206.14L18.04,205.78L18.05,205.8L18.43,205.54L18.53,206.29L18.81,205.88L18.81,205.81L18.83,205.76L18.98,206.35L19.56,206.06L19.57,206.15L19.62,205.87L20.13,206.36L20.32,206.17L20.33,206.14L20.69,205.87L21.04,206.55L21.08,206.21L21.09,206.24L21.48,205.91L21.76,206.49L21.84,206.23L21.85,206.18L22.01,206.08L22.51,206.73L22.63,206.44L22.63,206.39L22.71,206.14L23.43,206.85L23.45,206.68L23.46,206.66L23.63,206.25L24.12,206.78L24.16,206.5L24.16,206.35L24.25,206.21L24.36,206.88L24.91,206.47L24.92,206.51L24.93,206.21L25.57,206.93L25.64,206.85L25.64,206.9L25.73,207.19L26.17,206.66L26.39,206.99L26.4,207.08L26.45,207.21L26.85,206.69L27.15,207L27.16,207.04L27.22,206.74L27.91,207.33L27.92,207.09L27.92,207.06L28.07,207.45L28.46,206.95L28.59,207.34L28.59,207.46L28.96,207.62L29.33,207.02L29.34,207.32L29.35,207.38L29.49,207.02L29.63,207.58L30.1,207.31L30.1,207.43L30.34,207.57L30.81,206.97L30.85,207.23L30.86,207.28L30.86,207.07L31.27,207.68L31.61,207.43L31.62,207.39L31.71,207.13L32.3,207.76L32.44,207.48L32.44,207.39L32.5,207.83L33.03,207.2L33.19,207.71L33.2,207.7L33.59,208L33.94,207.09L33.95,207.48L33.96,207.66L33.99,207.27L34.23,207.86L34.71,207.61L34.72,207.6L34.82,207.37L35.34,208.14L35.47,207.62L35.48,207.58L35.52,208.12L36.23,207.74L36.24,207.76L36.66,208.28L36.78,207.68L36.99,207.97L37,207.94L37.07,208.27L37.63,207.67L37.75,207.94L37.76,207.93L37.94,207.67L38.29,208.28L38.51,208L38.52,208.02L38.56,207.9L38.86,208.44L39.28,208.16L39.28,208.14L39.49,207.91L39.58,208.55L40.03,208.26L40.04,208.21L40.24,208.62L40.65,207.88L40.79,208.35L40.8,208.32L40.95,208.08L41.49,208.65L41.53,208.23L41.54,208.15L42.26,208.84L42.29,208.6L42.3,208.6L42.39,208.11L42.9,208.94L43.05,208.66L43.06,208.66L43.11,208.27L43.18,208.91L43.81,208.72L43.82,208.7L44.01,208.37L44.49,208.95L44.57,208.72L44.58,208.69L44.86,209.15L45.05,208.48L45.33,208.73L45.33,208.67L45.63,208.51L45.96,209.24L46.08,208.77L46.09,208.75L46.42,208.54L46.67,209.25L46.84,209.01L46.85,208.99L46.89,209.22L47.34,208.63L47.6,208.96L47.61,208.93L47.85,208.74L47.96,209.38L48.38,208.92L48.38,208.83L48.44,209.49L48.54,208.71L49.13,209.21L49.14,209.18L49.42,209.53L49.65,208.94L49.88,209.33L49.88,209.44L50.03,208.78L50.36,209.65L50.64,209.12L50.64,209.2L50.85,208.97L51.05,209.8L51.4,209.26L51.4,209.18L51.86,209.04L52.14,209.72L52.16,209.44L52.17,209.43L52.36,209.72L52.61,209.22L52.92,209.42L52.93,209.37L53.04,209.2L53.12,209.87L53.68,209.64L53.69,209.63L54.11,209.93L54.32,209.31L54.44,209.7L54.45,209.71L54.49,209.92L54.61,209.29L55.2,209.71L55.21,209.63L55.31,209.33L55.41,209.9L55.95,209.78L55.95,209.81L55.96,209.99L56.48,209.3L56.69,209.64L56.69,209.6L56.72,209.49L57.27,210.14L57.44,209.71L57.44,209.66L57.54,209.48L58.17,210.31L58.19,209.96L58.2,210.1L58.34,210.48L58.54,209.78L58.94,210.14L58.94,210.32L59.65,210.44L59.69,209.78L59.72,210.06L59.73,210.02L60.21,210.57L60.54,210.22L60.54,210.16L61.11,209.96L61.22,210.68L61.29,210.17L61.29,210.13L61.69,209.89L62.01,210.62L62.04,210.31L62.04,210.21L62.31,210.06L62.38,210.72L62.79,210.32L62.8,210.35L63,210.16L63.17,210.79L63.55,210.4L63.56,210.38L63.57,210.14L64.03,210.89L64.31,210.75L64.32,210.69L64.4,210.44L64.49,221.64L65.07,210.73L65.08,210.79L65.17,211.25L65.23,210.6L65.83,210.87L65.84,210.94L66.14,210.61L66.46,211.28L66.58,211.06L66.58,211.1L66.85,210.75L66.95,211.46L67.32,211.18L67.32,211.28L67.52,210.73L68.04,211.38L68.06,211.26L68.06,211.36L68.08,211.57L68.44,210.94L68.81,211.2L68.82,211.26L69.05,211.5L69.46,210.96L69.56,211.28L69.57,211.28L69.69,211L70.27,211.57L70.31,211.43L70.31,211.51L70.5,211.82L70.71,211.1L71.06,211.26L71.07,211.25L71.15,211.01L71.54,211.67L71.82,211.33L71.83,211.32L72.1,211.92L72.47,211.23L72.58,211.53L72.59,211.56L72.87,211.25L73.31,211.98L73.34,211.89L73.35,211.94L73.42,212.18L73.85,211.31L74.1,211.82L74.11,211.76L74.37,212.09L74.59,211.44L74.87,211.58L74.87,211.62L74.99,211.49L75.23,212.22L75.62,211.94L75.63,211.97L75.83,211.5L75.97,212.18L76.34,212.04L76.34,212.16L76.79,211.66L76.95,212.36L77.1,211.89L77.1,211.96L77.25,211.62L77.57,212.18L77.85,211.99L77.85,211.91L77.9,211.78L78.42,212.54L78.6,212.01L78.61,211.98L78.76,211.77L79.36,212.54L79.36,212.3L79.37,212.31L79.85,211.84L80.03,212.7L80.12,212.36L80.13,212.3L80.19,212.03L80.33,212.72L80.88,212.27L80.88,212.23L81.05,211.99L81.43,212.5L81.62,212.14L81.62,212.1L82.01,212.64L82.28,211.96L82.37,212.13L82.38,212.13L82.48,211.99L82.56,212.67L83.13,212.26L83.14,212.27L83.22,212.06L83.72,212.75L83.89,212.18L83.9,212.16L83.92,212.14L84.33,212.78L84.66,212.32L84.67,212.29L84.69,212L84.85,212.71L85.42,212.35L85.43,212.37L85.55,212.07L85.96,212.88L86.17,212.45L86.17,212.51L86.73,212L86.88,212.65L86.89,212.26L86.9,212.23L86.92,212.14L87.25,212.74L87.65,212.37L87.66,212.37L88.34,213.04L88.41,212.81L88.42,212.82L88.78,212.36L88.95,213.07L89.17,212.58L89.18,212.52L89.34,213.08L89.62,212.22L89.93,212.77L89.94,212.77L90.14,212.49L90.42,213.23L90.69,212.99L90.7,213.05L91.31,213.18L91.42,212.56L91.45,212.8L91.46,212.74L91.75,213.28L91.97,212.51L92.21,212.76L92.22,212.73L92.3,212.62L92.69,213.25L92.97,212.72L92.97,212.71L93,212.62L93.41,213.43L93.75,212.9L93.75,212.86L94.12,213.44L94.29,212.7L94.52,213.21L94.52,213.16L94.81,212.82L95.1,213.41L95.26,213.08L95.27,213.06L95.37,212.79L95.63,213.45L96.01,212.88L96.01,212.86L96.14,212.64L96.77,213.43L96.78,213.18L96.79,213.13L97.07,212.62L97.45,213.41L97.51,213.28L97.51,213.36L97.67,212.77L97.87,213.45L98.26,213.26L98.26,213.3L98.55,213.55L98.75,212.91L99.01,213.12L99.02,213.1L99.52,212.76L99.78,213.4L99.81,213.17L99.81,213.11L100.08,212.78L100.44,213.52L100.55,213.13L100.56,213.09L100.56,213.46L100.84,212.82L101.31,213.13L101.32,213.09L101.44,212.86L102,213.55L102.07,213.46L102.08,213.46L102.1,213.59L102.68,212.91L102.83,213.23L102.84,213.21L103,212.9L103.24,213.78L103.59,213.21L103.6,213.23L104.23,213.02L104.33,213.67L104.36,213.43L104.36,213.36L104.45,213.2L104.86,213.94L105.1,213.37L105.11,213.32L105.3,213.81L105.66,213.18L105.8,213.67L105.8,213.73L106.01,213.88L106.3,213.26L106.54,213.79L106.55,213.79L106.91,213.27L107.11,214.11L107.3,213.77L107.3,213.87L107.9,213.35L108.07,213.55L108.07,213.6L108.54,213.3L108.62,213.89L108.81,213.63L108.82,213.68L109.05,213.47L109.33,213.85L109.52,213.45L109.53,213.41L109.72,213.32L110.16,213.98L110.28,213.49L110.29,213.52L110.33,213.33L110.96,213.96L111.05,213.66L111.05,213.55L111.59,213.48L111.7,214.05L111.81,213.82L111.82,213.78L112.05,213.49L112.54,214.04L112.58,213.86L112.59,213.79L112.61,214.16L113.26,213.42L113.34,213.59L113.35,213.62L113.44,213.46L113.85,214.06L114.16,213.79L114.16,213.73L114.25,213.52L114.63,214.22L114.94,213.85L114.95,213.78L114.99,213.48L115.35,214.19L115.7,213.87L115.71,213.9L115.74,213.56L116.09,214.24L116.46,214.12L116.47,214.19L116.6,213.79L116.78,214.45L117.22,214.17L117.22,214.2L117.53,214.47L117.83,213.83L117.97,214.07L117.98,214.09L118.3,213.75L118.55,214.38L118.73,214.21L118.74,214.2L118.77,214.46L119.12,213.87L119.49,213.91L119.5,213.89L119.51,213.83L119.61,214.47L120.25,214.17L120.26,214.18L120.34,213.89L120.94,214.52L121,214.34L121,214.4L121.05,214.5L121.56,213.92L121.82,214.26L121.82,214.31L122.05,213.92L122.49,214.41L122.52,214.1L122.52,214.03L122.67,213.85L123.15,214.58L123.28,214.41L123.29,214.37L123.4,214.65L123.8,213.99L124.04,214.17L124.05,214.18L124.22,214.61L124.57,213.96L124.8,214.34L124.81,214.37L124.9,213.96L125.39,214.68L125.56,214.55L125.57,214.54L125.7,214.74L125.97,214.03L126.32,214.08L126.33,214.08L126.72,214.04L127,214.71L127.08,214.4L127.09,214.47L127.15,214.65L127.53,214.02L127.82,214.23L127.83,214.26L128.21,214.18L128.56,214.71L128.58,214.38L128.58,214.34L128.78,214.76L129.13,214.19L129.33,214.42L129.34,214.39L129.77,214.76L129.99,214.12L130.08,214.38L130.09,214.41L130.18,214.01L130.31,214.64L130.84,214.64L130.85,214.63L131.26,213.96L131.6,214.44L131.61,214.43L131.71,214.84L131.96,214.06L132.36,214.47L132.37,214.5L132.54,214.85L132.86,214.07L133.13,214.39L133.14,214.49L133.54,214.68L133.82,214.06L133.89,214.41L133.9,214.46L134.1,214.03L134.59,214.58L134.64,214.38L134.64,214.3L134.74,214.04L135.23,214.69L135.39,214.26L135.39,214.35L135.4,214.11L135.91,214.71L136.13,214.37L136.14,214.4L136.32,214.66L136.6,214.07L136.89,214.27L136.9,214.26L137.1,214.04L137.53,214.65L137.65,214.42L137.66,214.4L137.99,214.59L138.1,214.02L138.41,214.36L138.42,214.35L138.81,214.6L139.05,214.01L139.16,214.52L139.16,214.54L139.3,214.79L139.88,214.01L139.94,214.22L139.94,214.32L140.5,214.09L140.72,214.67L140.74,214.55L140.74,214.49L140.89,214.25L141.19,214.75L141.49,214.54L141.5,214.53L141.61,214.75L141.74,214.19L142.21,214.22L142.22,214.2L142.38,214.78L142.74,214.18L142.97,214.53L142.98,214.54L143.3,214.71L143.69,214.11L143.73,214.34L143.74,214.3L143.76,214.02L144.13,214.74L144.49,214.41L144.5,214.39L144.57,214.14L144.84,214.86L145.25,214.35L145.26,214.32L145.57,214.22L145.73,214.85L146.01,214.68L146.02,214.74L146.05,214.36L146.54,215.1L146.77,214.71L146.78,214.68L147.07,215.3L147.53,215.02L147.54,215.06L147.85,214.76L148.07,215.48L148.29,215.04L148.29,215.1L148.41,214.95L148.74,215.56L149.04,215.1L149.04,215.02L149.08,214.98L149.67,215.46L149.8,215.36L149.8,215.28L150.08,215.58L150.31,214.91L150.55,215.31L150.56,215.21L150.95,214.99L151.29,215.73L151.31,215.5L151.32,215.53L151.41,215.59L151.61,214.97L152.11,215.32L152.11,215.41L152.13,215.56L152.21,215.04L152.86,215.33L152.86,215.48L153.36,215.17L153.61,215.68L153.61,215.67L153.62,215.61L153.91,215.75L154.34,215.18L154.37,215.5L154.37,215.55L154.75,215.1L155.06,215.62L155.09,215.39L155.09,215.32L155.16,215.04L155.78,215.72L155.84,215.6L155.85,215.57L155.86,215.76L156.34,215.14L156.6,215.28L156.61,215.37L156.8,215.19L157.06,215.87L157.36,215.56L157.37,215.55L157.52,215.74L157.62,215.16L158.12,215.56L158.12,215.61L158.24,215.86L158.68,215.23L158.89,215.45L158.89,215.6L159.05,215.19L159.22,215.74L159.63,215.63L159.64,215.65L159.66,215.8L159.78,215.1L160.39,215.56L160.4,215.58L160.42,215.7L161.09,215.23L161.15,215.48L161.16,215.48L161.56,215.01L161.82,215.75L161.89,215.38L161.9,215.37L161.91,215.22L162.44,215.83L162.63,215.63L162.64,215.62L162.84,215.9L163.08,215.38L163.38,215.63L163.39,215.64L163.76,215.9L164.14,215.24L164.14,215.42L164.15,215.38L164.3,215.87L164.42,215.29L164.9,215.52L164.91,215.41L165.01,215.75L165.23,215.13L165.66,215.45L165.67,215.46L165.74,215.76L165.87,215.18L166.42,215.56L166.43,215.6L166.5,215.84L166.75,215.33L167.18,215.78L167.19,215.75L167.27,215.35L167.68,216L167.94,215.64L167.95,215.61L168.42,215.49L168.59,216.02L168.7,215.72L168.71,215.76L168.75,215.6L169.09,216.14L169.47,215.83L169.47,215.78L169.75,216.18L170.07,215.63L170.2,215.95L170.2,215.99L170.52,215.59L170.62,216.18L170.92,215.85L170.93,215.79L171.26,215.58L171.46,216.19L171.67,215.91L171.67,215.99L171.93,216.22L172.09,215.58L172.41,215.99L172.41,216.13L172.8,215.58L173.16,215.89L173.17,215.87L173.53,215.52L173.9,216.18L173.94,215.92L173.94,215.89L174.63,216.34L174.67,215.68L174.69,215.96L174.69,215.9L174.78,215.69L175.44,216.27L175.47,216.09L175.47,216.06L175.62,215.82L175.75,225.37L176.22,216.36L176.23,216.38L176.41,216.74L176.54,216.06L176.98,216.34L176.99,216.38L177.15,216.65L177.63,216.19L177.74,216.32L177.74,216.42L177.78,216.12L177.94,216.69L178.49,216.29L178.5,216.33L178.65,216.62L178.93,215.91L179.26,216.26L179.26,216.3L179.45,216.04L179.86,216.61L180.01,216.29L180.01,216.22L180.31,215.91L180.55,216.6L180.76,216.32L180.76,216.27L180.86,216.02L181.07,216.54L181.5,216.21L181.51,216.23L181.51,216.08L181.64,216.74L182.26,216.52L182.27,216.56L182.32,216.75L182.54,216.2L183,216.69L183.01,216.72L183.22,216.26L183.65,216.84L183.76,216.79L183.77,216.73L184.27,216.96L184.48,216.36L184.52,216.61L184.53,216.61L184.87,216.21L185.29,216.83L185.29,216.7L185.29,216.66L185.46,216.23L186.01,216.86L186.02,216.78L186.02,216.82L186.21,216.98L186.46,216.31L186.77,216.73L186.78,216.78L187,216.5L187.12,217.06L187.53,216.91L187.54,216.82L187.57,216.94L187.68,216.41L188.29,216.65L188.3,216.66L188.38,216.46L188.92,217L189.05,216.68L189.05,216.64L189.19,216.34L189.7,217.03L189.74,216.94L189.74,216.98L189.87,216.51L190.44,217.16L190.49,216.98L190.5,216.95L190.88,217.06L191.18,216.52L191.25,216.69L191.26,216.72L191.53,217.21L191.65,216.35L191.99,216.86L192,216.86L192.02,216.54L192.52,217.2L192.75,216.85L192.76,216.87L192.78,216.62L193.2,217.27L193.51,217.02L193.52,217.08L193.74,217.29L193.9,216.66L194.26,217.12L194.27,217.08L194.4,217.32L194.84,216.8L195.01,217.01L195.01,216.96L195.03,217.37L195.18,216.73L195.75,216.85L195.76,216.86L196,216.72L196.25,217.34L196.51,217.08L196.52,217.15L196.57,217.29L196.88,216.66L197.27,216.96L197.28,216.94L197.39,216.81L197.8,217.37L198.05,217.12L198.05,217.07L198.24,216.87L198.46,217.41L198.8,217.07L198.8,216.99L199.36,217.43L199.53,216.83L199.54,216.87L199.55,216.81L199.95,217.46L200.3,217.04L200.31,217.07L200.79,216.82L201.04,217.35L201.05,217.24L201.06,217.2L201.54,217.38L201.7,216.88L201.81,217.21L201.81,217.22L202.16,216.78L202.35,217.53L202.54,217.09L202.55,217.01L202.59,217.39L202.83,216.8L203.3,217.04L203.31,217.07L203.67,216.84L204.05,217.38L204.07,217.07L204.07,216.96L204.53,217.37L204.76,216.84L204.82,216.98L204.83,216.94L205.18,217.47L205.24,216.83L205.58,216.86L205.59,216.91L205.81,217.35L206.01,216.77L206.34,217.17L206.35,217.2L206.61,216.7L206.99,217.41L207.1,217.23L207.11,217.22L207.67,216.85L207.82,217.36L207.86,217.15L207.86,217.27L208,217.43L208.45,216.86L208.61,217.18L208.62,217.16L208.89,216.91L209.22,217.57L209.37,217.24L209.38,217.27L209.57,216.94L209.96,217.58L210.13,217.31L210.14,217.33L210.73,217.64L210.75,216.51L210.75,216.43L210.8,214.08L211.06,217.65L211.5,217.2L211.51,217.31L211.79,217.63L212.02,217.1L212.25,217.4L212.26,217.39L212.32,217.16L212.52,217.76L213.01,217.38L213.02,217.41L213.05,217.71L213.69,217.09L213.77,217.25L213.78,217.32L213.82,217.08L214.43,217.67L214.52,217.26L214.53,217.22L214.54,217.06L215.24,217.71L215.25,217.63L215.26,217.62L215.37,217.21L215.82,217.85L216.02,217.49L216.02,217.51L216.11,217.77L216.77,217.15L216.78,217.37L216.78,217.39L216.78,217.11L217.11,217.82L217.53,217.59L217.54,217.57L217.91,217.22L218.28,217.87L218.29,217.58L218.29,217.51L218.55,217.28L218.94,217.9L219.04,217.5L219.04,217.44L219.25,217.28L219.43,217.88L219.79,217.54L219.8,217.59L219.81,217.81L220.16,217.23L220.55,217.63L220.56,217.65L220.72,217.33L221.2,217.87L221.31,217.51L221.32,217.49L221.36,217.22L221.66,217.85L222.05,217.67L222.06,217.72L222.43,217.22L222.72,217.83L222.81,217.53L222.82,217.49L223.07,217.29L223.43,217.87L223.57,217.53L223.57,217.43L223.85,217.88L224.32,217.63L224.32,217.56L224.56,217.87L224.69,217.29L225.07,217.42L225.08,217.42L225.15,217.22L225.75,217.99L225.83,217.65L225.84,217.61L226.49,217.98L226.55,217.43L226.59,217.67L226.6,217.6L227.09,217.37L227.32,218.02L227.35,217.63L227.36,217.6L227.54,218.01L227.92,217.44L228.11,217.88L228.12,217.92L228.64,218.1L228.75,217.53L228.86,217.96L228.86,218.04L229.3,217.53L229.5,218.05L229.61,217.87L229.62,217.9L229.81,218.13L230.01,217.62L230.36,218.04L230.36,218.1L230.55,217.6L231.11,217.99L231.12,217.9L231.26,218.15L231.48,217.56L231.87,217.84L231.88,217.78L231.93,217.57L232.46,218.17L232.61,217.94L232.61,218.02L233.04,218.16L233.32,217.66L233.37,217.78L233.37,217.81L233.51,218.18L233.77,217.7L234.13,217.87L234.14,217.88L234.39,217.66L234.63,218.15L234.89,217.99L234.89,217.92L235.21,217.61L235.56,218.19L235.62,217.82L235.62,217.8L235.7,218.31L236.33,217.64L236.36,217.76L236.37,217.76L236.39,217.57L236.72,218.24L237.09,217.98L237.09,218.07L237.24,218.18L237.62,217.58L237.87,217.93L237.87,218L237.9,218.25L238.39,217.69L238.62,217.93L238.63,218.04L238.85,217.65L238.96,218.26L239.38,217.91L239.39,217.77L239.56,218.21L240.07,217.71L240.14,217.88L240.15,217.94L240.29,217.72L240.5,218.32L240.89,217.91L240.9,217.86L241.18,217.7L241.24,218.21L241.66,217.98L241.67,217.87L241.73,218.35L242.16,217.63L242.42,217.85L242.43,217.9L242.57,218.27L243.06,217.63L243.18,217.89L243.19,217.95L243.22,217.77L243.7,218.43L243.94,218.27L243.95,218.18L244.15,217.85L244.49,218.42L244.7,218.07L244.71,218.08L244.92,218.35L245.04,217.77L245.46,218.08L245.47,218.1L245.79,218.47L246.2,217.89L246.22,217.99L246.23,217.99L246.37,217.75L246.94,218.35L246.98,218.12L246.99,218.08L247.22,217.9L247.42,218.49L247.74,218.24L247.75,218.25L247.83,217.94L248.17,218.49L248.47,218.08L248.47,218.05L249.02,218.56L249.09,217.99L249.22,218.22L249.23,218.19L249.31,218.44L249.91,217.9L250,218.11L250,218.21L250.2,217.92L250.26,218.45L250.72,218.03L250.72,217.99L250.95,218.48L251.3,217.89L251.47,218.15L251.48,218.18L251.68,217.84L251.81,218.49L252.23,218.31L252.24,218.29L252.26,218.41L252.6,217.87L252.99,218.09L253,218.04L253.25,218.48L253.5,217.9L253.75,218.08L253.76,218.11L253.91,217.89L254.49,218.44L254.51,218.24L254.52,218.19L254.79,218.38L255.01,217.82L255.27,218.12L255.28,218.17L255.33,217.98L255.57,218.54L256.03,218.22L256.03,218.11L256.07,218L256.62,218.61L256.8,218.42L256.8,218.35L257.06,218.02L257.26,218.58L257.54,218.15L257.55,218.15L257.63,218.52L257.71,218.04L258.3,218.38L258.31,218.39L258.95,218.58L259.03,218.12L259.06,218.29L259.06,218.33L259.17,218.61L259.36,218.01L259.8,218.15L259.8,218.09L260.05,218.57L260.39,218.05L260.55,218.26L260.56,218.14L260.74,218.08L260.82,218.56L261.31,218.2L261.32,218.27L261.77,218.59L262.02,218.09L262.08,218.22L262.08,218.4L262.32,218.58L262.47,218.01L262.83,218.36L262.84,218.34L263.4,218.03L263.52,218.54L263.59,218.26L263.6,218.25L264.02,218.05L264.11,218.56L264.35,218.24L264.36,218.27L264.44,217.94L265.1,218.45L265.12,218.28L265.12,218.21L265.23,218.4L265.81,217.89L265.87,217.99L265.88,218.02L265.91,217.9L266.61,218.53L266.64,218.22L266.65,218.32L267.09,218.62L267.27,218.04L267.4,218.17L267.41,218.2L267.58,217.91L268.09,218.32L268.11,218.12L268.12,218.01L268.36,217.81L268.64,218.4L268.87,218.01L268.88,218.02L269.04,217.85L269.48,218.47L269.64,218.3L269.64,218.18L269.98,217.86L270.09,218.44L270.38,218.17L270.39,218.16L270.62,218.51L271.04,218L271.14,218.09L271.15,218.08L271.28,217.96L271.88,218.4L271.95,218.14L271.95,218.07L272.19,217.76L272.65,218.29L272.69,218.04L272.7,217.99L272.79,218.43L272.88,217.75L273.45,218.15L273.46,218.22L274.05,217.87L274.1,218.45L274.21,218.1L274.22,218.06L274.3,218.56L274.81,217.94L274.97,218.1L274.98,218.08L274.99,217.89L275.52,218.44L275.72,218.22L275.73,218.18L275.74,218.01L276.48,218.72L276.48,218.46L276.49,218.4L276.66,218.14L277.21,218.72L277.32,218.45L277.32,218.42L277.34,218.28L278.02,218.83L278.08,218.58L278.09,218.58L278.13,218.37L278.63,218.89L278.84,218.39L278.85,218.57L279.32,218.93L279.47,218.31L279.58,218.82L279.58,218.91L279.82,218.28L280.33,218.48L280.34,218.51L280.44,218.31L280.99,218.92L281.09,218.66L281.1,218.69L281.18,218.98L281.44,218.22L281.85,218.51L281.86,218.48L281.89,218.16L282.24,218.76L282.61,218.59L282.62,218.58L283,218.92L283.1,218.26L283.37,218.67L283.38,218.66L283.39,218.79L283.49,218.22L284.13,218.41L284.14,218.4L284.68,218.2L284.77,218.83L284.89,218.56L284.9,218.58L285.12,218.29L285.32,218.81L285.62,218.46L285.62,218.39L286.26,218.16L286.36,218.77L286.37,218.57L286.38,218.52L286.45,218.78L286.73,218.08L287.11,218.36L287.11,218.31L287.14,218.2L287.86,218.68L287.87,218.38L287.87,218.36L288.19,218.18L288.31,218.81L288.62,218.61L288.63,218.64L289.08,218.87L289.26,218.34L289.38,218.61L289.38,218.64L289.44,218.43L290.01,219.06L290.14,218.85L290.15,218.82L290.51,218.39L290.68,219.02L290.9,218.53L290.91,218.6L291.12,218.54L291.32,219.05L291.67,218.78L291.67,218.7L291.86,218.48L291.96,219.01L292.41,218.56L292.42,218.59L292.6,218.52L293.01,219.08L293.18,218.65L293.19,218.61L293.39,219L293.81,218.44L293.94,218.79L293.95,218.77L294.2,218.55L294.69,219.06L294.73,218.77L294.73,218.73L295.11,218.55L295.38,219.14L295.48,218.77L295.49,218.83L295.59,219.06L296.13,218.57L296.24,218.88L296.24,218.91L296.29,218.54L296.38,219.08L296.99,218.86L296.99,218.91L297.38,219.16L297.63,218.63L297.73,219L297.73,219.03L298.09,219.1L298.27,218.51L298.48,218.9L298.49,218.92L298.9,218.61L299.06,219.15L299.24,218.91L299.25,218.85L299.46,219.19L299.95,218.51L300,218.73L300.01,218.74L300.07,219.06L300.73,218.6L300.76,218.72L300.76,218.81L300.97,218.61L301.09,219.18L301.51,218.79L301.52,218.79L301.84,218.67L301.95,219.19L302.27,218.9L302.28,218.86L302.35,218.73L303.02,219.25L303.04,218.94L303.04,218.85L303.3,219.14L303.72,218.64L303.79,218.88L303.8,218.84L303.9,219.21L304.12,218.62L304.56,218.91L304.56,218.84L304.72,218.64L305.13,219.11L305.31,218.86L305.31,218.8L305.64,218.62L305.83,219.23L306.06,218.75L306.07,218.71L306.55,219.17L306.82,218.58L306.82,218.76L306.83,218.79L306.9,218.53L307.39,219.16L307.58,218.92L307.59,218.86L308.06,219.09L308.23,218.64L308.34,218.89L308.35,218.86L308.42,218.61L308.79,219.15L309.1,218.88L309.1,218.83L309.32,218.5L309.71,219.14L309.83,219.02L309.83,219.05L310.04,219.14L310.4,218.57L310.58,218.89L310.59,218.82L311.1,218.46L311.2,219.05L311.33,218.77L311.34,218.77L311.56,218.48L312.08,219.06L312.1,218.83L312.1,218.79L312.27,218.56L312.82,219.09L312.87,218.83L312.87,218.7L313.36,218.48L313.59,219.08L313.62,218.9L313.63,218.87L313.7,219.12L313.87,218.51L314.37,218.92L314.38,218.97L314.39,219.02L314.53,218.4L315.13,218.82L315.14,218.82L315.27,218.58L315.82,219.01L315.88,218.75L315.88,218.66L316.2,218.51L316.39,219.04L316.62,218.66L316.63,218.65L316.67,219.02L316.92,218.39L317.38,218.73L317.39,218.74L317.68,218.56L318,219.14L318.12,218.92L318.12,218.95L318.68,218.65L318.85,219.24L318.87,218.96L318.87,219L319.45,219.21L319.59,218.74L319.61,219.11L319.62,219.1L319.86,219.41L320.02,218.74L320.37,219.08L320.37,219.04L320.77,219.41L321.02,218.8L321.12,219.07L321.13,219.07L321.19,218.83L321.68,219.43L321.89,219.26L321.89,219.17L322.32,219.57L322.49,218.89L322.63,219.1L322.63,219.01L322.67,218.94L323.3,219.52L323.42,219.18L323.42,219.13L323.71,219.55L324.17,218.97L324.17,219.01L324.18,219.08L324.31,219.5L324.76,218.94L324.93,219.17L324.94,219.3L325.25,218.9L325.45,219.54L325.69,219.28L325.7,219.23L326.25,218.94L326.35,219.5L326.42,219.35L326.43,219.43L326.6,219.5L327.05,218.94L327.18,219.06L327.19,219.09L327.21,218.93L327.32,224.01L327.32,224.15L327.35,227.95L327.96,219.08L328.07,219.6L328.08,219.59L328.39,219.71L328.7,219.07L328.83,219.52L328.84,219.47L329.17,218.97L329.31,219.6L329.56,219.12L329.57,219.09L329.72,219.01L330.08,219.56L330.32,219.07L330.33,219.1L330.44,219.54L330.98,218.95L331.08,219.33L331.09,219.37L331.13,219.57L331.81,218.88L331.86,219.02L331.86,219.21L331.97,218.94L332.62,219.58L332.64,219.39L332.64,219.32L332.73,218.96L333.22,219.65L333.38,219.35L333.39,219.32L333.44,219.02L333.88,219.61L334.14,219.32L334.14,219.24L334.52,218.89L334.61,219.6L334.9,219.38L334.9,219.36L335.12,219.59L335.57,218.86L335.65,219.38L335.65,219.39L335.71,219.55L335.86,218.99L336.41,219.34L336.41,219.39L336.45,219.63L336.72,218.96L337.16,219.45L337.17,219.39L337.69,218.97L337.83,219.61L337.89,219.15L337.89,219.11L338.18,218.96L338.35,219.49L338.64,219.3L338.65,219.3L338.74,219.58L339.26,219L339.4,219.29L339.4,219.35L339.48,218.91L339.59,219.53L340.14,219.37L340.15,219.37L340.2,219.56L340.48,219.03L340.91,219.29L340.92,219.31L340.94,218.83L341.59,219.57L341.67,219.45L341.68,219.43L341.79,219.11L342.29,219.75L342.43,219.29L342.44,219.28L342.49,219.2L342.92,219.89L343.19,219.47L343.2,219.49L343.44,219.85L343.81,219.29L343.95,219.58L343.96,219.55L344.02,219.32L344.24,219.87L344.71,219.45L344.72,219.45L344.89,219.96L345.01,219.35L345.47,219.73L345.48,219.76L346.04,219.37L346.26,219.63L346.26,219.68L346.53,220.01L347.03,219.36L347.03,219.42L347.03,219.65L347.1,219.36L347.66,219.92L347.77,219.74L347.78,219.69L348,219.92L348.18,219.39L348.53,219.5L348.54,219.49L348.61,219.36L349.06,219.92L349.29,219.56L349.3,219.52L349.34,219.91L349.54,219.36L350.05,219.81L350.06,219.81L350.52,220L350.74,219.46L350.81,219.57L350.82,219.55L351,219.9L351.12,219.36L351.57,219.71L351.58,219.77L351.67,220.05L351.86,219.35L352.34,219.8L352.34,219.73L352.54,219.91L352.65,219.27L353.07,219.83L353.07,219.94L353.19,219.37L353.73,219.98L353.82,219.74L353.83,219.73L354.12,219.39L354.26,219.99L354.58,219.74L354.58,219.79L354.67,219.92L354.9,219.37L355.32,219.75L355.32,219.78L355.43,219.49L355.67,220.04L356.07,219.67L356.08,219.69L356.19,220.01L356.66,219.45L356.83,219.8L356.84,219.79L356.95,219.37L357.51,220.05L357.59,219.72L357.6,219.65L357.81,219.49L358.13,219.96L358.35,219.87L358.36,219.85L358.7,219.42L358.96,220.11L359.11,219.86L359.11,219.89L359.46,219.48L359.82,220.06L359.85,219.85L359.86,219.9L359.88,220.04L360.33,219.52L360.61,219.87L360.62,219.96L360.9,220.02L361.02,219.44L361.37,219.75L361.38,219.74L361.67,219.5L362.02,220.01L362.12,219.82L362.13,219.85L362.71,219.52L362.78,220.18L362.88,220.02L362.89,220.02L362.97,219.66L363.33,220.18L363.64,219.97L363.65,219.99L363.8,220.21L364.17,219.66L364.42,219.93L364.42,219.98L364.81,220.21L365.03,219.52L365.17,219.93L365.18,220L365.45,219.61L365.74,220.2L365.93,219.75L365.94,219.68L366.26,219.38L366.69,220.15L366.69,219.81L366.7,219.8L366.7,220.2L367.19,219.54L367.45,219.86L367.46,219.86L367.59,220.13L368.1,219.51L368.21,219.93L368.22,219.91L368.34,219.52L368.58,220.09L368.97,219.9L368.98,219.88L369.54,220.22L369.73,219.6L369.73,219.84L369.74,219.88L370.15,220.17L370.32,219.56L370.49,220L370.5,219.99L371.05,220.2L371.17,219.58L371.25,219.97L371.25,220.05L371.64,220.13L371.69,219.52L372,219.87L372.01,219.86L372.46,219.58L372.7,220.11L372.76,219.87L372.77,219.85L373.01,220.1L373.31,219.46L373.52,219.84L373.53,219.86L373.81,220.1L374.06,219.48L374.27,219.99L374.28,219.96L374.31,220.12L374.54,219.58L375.03,219.84L375.04,219.81L375.28,220.1L375.72,219.7L375.75,219.98L375.75,220.04L376.46,219.53L376.5,219.83L376.51,219.8L376.7,219.5L377.28,220.05L377.29,219.83L377.3,219.83L377.57,220.11L377.69,219.53L378.04,219.88L378.05,219.9L378.25,219.4L378.62,220.03L378.8,219.74L378.81,219.71L379.01,219.52L379.36,220.08L379.56,219.8L379.57,219.78L379.77,219.57L380.29,220.2L380.39,219.9L380.4,219.86L380.74,220.15L380.79,219.65L381.15,219.94L381.16,220.03L381.54,220.28L381.91,219.69L381.91,220.04L381.91,220.08L382.22,220.26L382.48,219.76L382.65,220.08L382.66,220.12L382.9,220.23L383,219.69L383.42,219.94L383.42,219.99L383.64,220.32L384.08,219.8L384.14,220.16L384.15,220.2L384.62,219.64L384.72,220.29L384.91,219.9L384.92,219.93L384.96,220.28L385.47,219.74L385.67,219.95L385.67,219.89L385.79,219.73L385.95,220.28L386.41,220.06L386.42,219.99L386.64,219.62L387.05,220.32L387.17,219.85L387.18,219.86L387.19,219.71L387.76,220.32L387.92,220L387.92,220.05L388.37,219.76L388.65,220.32L388.66,220.31L389.04,219.65L389.41,220L389.42,219.95L389.79,220.33L390.16,219.73L390.17,220.01L390.18,220L390.29,219.81L390.82,220.3L390.93,219.98L390.93,219.93L391.02,219.64L391.44,220.25L391.69,219.78L391.69,219.82L392.27,219.77L392.45,220.27L392.45,220.11L392.45,220.09L392.8,219.78L393.01,220.35L393.19,220.06L393.2,220.03L393.56,220.35L393.69,219.74L393.93,220.14L393.94,220.17L393.97,220.49L394.08,219.76L394.67,220.08L394.67,220.05L394.7,219.97L395.05,220.45L395.42,220.11L395.43,220.09L395.61,220.41L395.71,219.86L396.18,220.24L396.18,220.14L396.57,220.4L396.76,219.79L396.93,220.08L396.93,220.17L397.34,220.45L397.43,219.84L397.69,220.08L397.69,220.14L397.9,219.8L398.35,220.37L398.45,219.97L398.45,220.02L398.54,219.76L399.19,220.32L399.2,220.18L399.21,220.13L399.36,220.25L399.62,219.75L399.97,220.13L399.97,220.17L400.39,219.69L400.66,220.31L400.73,220.05L400.74,220.02L400.97,220.41L401.37,219.81L401.48,219.84L401.48,219.77L401.94,220.47L402.27,220.25L402.28,220.3L402.59,220.4L402.68,219.91L403.08,220.27L403.09,220.27L403.15,220.47L403.46,219.86L403.92,220.17L403.92,220.24L404.48,219.81L404.73,220.38L404.74,220.1L404.74,220.03L404.81,219.93L405.38,220.36L405.57,219.93L405.58,219.91L405.61,219.87L405.8,220.42L406.45,220.19L406.46,220.25L406.74,220.47L407.15,219.87L407.34,220.3L407.34,220.45L407.55,219.83L408.24,220.14L408.25,220.19L408.26,220.38L408.76,219.79L409.16,220.12L409.17,220.07L409.37,220.33L409.59,219.82L410.1,220.09L410.11,220.05L410.34,220.23L411.05,219.79L411.09,219.99L411.09,220.07L411.53,219.66L411.97,220.28L412.02,219.92L412.02,219.78L412.8,220.28L413.01,220.05L413.02,220.05L413.14,219.87L413.86,220.23L414.04,219.89L414.04,219.8L414.42,219.65L414.7,220.22L415.07,220L415.08,220.02L415.31,219.85L416.03,220.24L416.19,219.96L416.19,219.87L416.38,219.63L417.25,220.27L417.27,220.23L417.28,220.22L417.33,220.36L418,219.7L418.37,220.07L418.38,220.06L418.55,219.72L419.32,220.33L419.49,220.17L419.5,220.09L419.6,219.92L420.63,220.52L420.67,220.31L420.67,220.27L420.92,220.06L421.04,220.61L421.83,220.32L421.83,220.24L422.47,219.98L423,220.48L423.03,220.35L423.03,220.32L424.75,220L424.76,220.39L424.76,220.51L424.86,220.66L425.89,220.12L426.01,220.38L426.01,220.4L426.17,220.57L426.61,219.99L427.28,220.12L427.28,220.26L428.56,220.58L428.61,220.2L428.61,220.13L428.7,220.09L429.87,220.56L429.94,220.35L429.94,220.2L431.11,220.68L431.31,220.35L431.31,220.34L431.45,220.19L432.55,220.66L432.73,220.33L432.73,220.25L433.47,220.7L433.75,220.07L434.13,220.32L434.13,220.27L435.8,220.69L435.94,220.31L435.94,220.25L437.27,220.66L437.42,220.37L437.42,220.36L437.78,220.69L438.9,220.32L438.96,220.6L438.96,220.7L439.24,220.79L439.68,220.14L440.48,220.61L440.49,220.6L441.02,220.74L441.97,220.27L442.03,220.69L442.04,220.67L442.19,220.85L443.22,220.18L443.63,220.58L443.63,220.61L443.95,220.77L445.33,220.27L445.34,220.45L445.34,220.54L447.27,220.28L447.33,220.72L447.33,220.77L447.73,220.82L448.69,220.3L449.01,220.55L449.02,220.52L449.36,220.3L450.71,220.83L450.85,220.52L450.85,220.39L450.91,220.23L452.54,220.85L452.61,220.49L452.62,220.55L454.8,220.82L454.81,220.53L454.81,220.45L454.98,220.35L456.73,220.91L456.74,220.61L456.74,220.53L456.83,229.11L458.45,220.9L458.46,220.89L458.74,220.76L459.7,221.34L460.3,220.52L460.3,220.46L460.35,217.82L461.95,221.29L462.18,220.86L462.19,220.88L464.41,221.29L464.49,220.98L464.5,220.94L467.38,221.43L467.4,221.08L467.4,221.05L469.71,221.31L469.76,221.06L469.76,220.98L470.03,220.84L471.02,221.5L471.85,221.21L471.86,221.15L476.09,221.41L476.11,221.09L476.11,221.04L479.23,221.34L479.29,221.04L479.29,221L485.77,221.22L485.77,221.02L485.77,220.95L488.3,221.47L488.32,221.1L488.33,221.09L491.85,221.39L491.9,221.17L491.9,221.11L494.93,221.48L495.04,221.04L495.04,220.96L495.42,220.86L497.11,221.65L497.7,221.41L497.71,221.37L502.96,221.17L503.03,221.53L503.03,221.55L508.31,221.18L508.34,221.49L508.34,221.58L511.72,221.1L511.76,221.37L511.76,221.5L515.4,221.17L515.46,221.51L515.46,221.56L521.02,221.25L521.03,221.46L521.03,221.64L521.11,221.67L522.82,221.13L524.12,221.5L524.13,221.48L536.14,221.18L536.14,221.4L536.14,221.43L548.49,220.78L548.5,221.17L548.5,221.24L553.56,221.27L553.65,221.68L553.65,221.74L560.19,221.34L560.25,221.58L560.25,221.71L563.77,221.17L563.85,221.49L563.85,221.49L563.88,221.63L566.5,220.97L567.76,221.24L567.76,221.41L571.85,225.32L571.85,225.44L571.89,229.59L574.14,221.45L575.83,221.96L575.84,221.99L583.32,221.32L583.36,221.5" style="vector-effect: non-scaling-stroke; fill: none; stroke: rgb(225, 95, 153); stroke-opacity: 1; stroke-width: 3px; opacity: 1;"/></g><g class="points"/><g class="text"/></g><g class="trace scatter trace7388f1" style="stroke-miterlimit: 2; opacity: 1;"><g class="fills"/><g class="errorbars"/><g class="lines"><path class="js-line" d="M0,248.54L0.03,244.49L0.75,246.41L0.76,246.38L2.67,245.5L2.68,245.52L4.83,245.07L4.84,245.09L11.86,243.54L11.87,243.5L14.49,242.77L14.5,242.73L17.17,241.99L17.18,241.96L27.64,239.88L27.65,239.84L28.4,240.57L28.41,241.14L28.47,247.83L29.02,239.56L29.1,239.59L29.11,239.55L31.05,239.3L31.06,239.32L32.52,239.19L32.53,239.22L35.01,238.82L35.02,238.79L41.07,237.92L41.08,237.93L43.84,237.5L43.85,237.51L47.97,237.16L47.98,237.19L49.31,237.04L49.34,237.09L49.35,237.12L50.57,236.87L50.58,236.91L51.88,236.62L51.89,236.65L51.9,236.67L54.54,236.46L54.55,236.4L90.45,233.37L90.46,233.34L94.17,233.04L94.18,233.08L94.19,233.11L98.01,232.79L98.02,232.82L99.81,232.62L99.81,232.65L99.82,232.67L104.46,232.65L104.47,232.6L106.3,232.53L106.31,232.49L107.45,232.52L107.46,232.5L107.47,232.46L108.4,232.36L108.41,232.32L110.53,232.23L110.54,232.17L110.55,232.14L113.07,231.95L113.08,231.94L114.19,232.17L114.2,232.14L114.21,232.07L116.23,232.01L116.24,231.98L122.14,231.67L122.15,231.64L123.41,231.65L123.42,231.63L123.43,231.61L126.81,231.39L126.81,231.37L126.82,231.33L131.62,231.23L131.63,231.19L133.61,231.22L133.62,231.19L143.95,230.52L143.96,230.52L145.84,230.34L145.85,230.39L151.02,230.42L151.03,230.47L152.08,230.46L152.09,230.5L152.1,230.52L153.22,230.2L153.23,230.22L153.24,230.25L154.1,230.32L154.17,230.25L154.18,230.23L159.65,229.89L159.66,229.84L165.21,229.89L165.22,229.85L166.27,229.86L166.28,229.85L166.29,229.79L168.65,229.57L168.66,229.51L170.18,229.68L170.19,229.6L170.2,229.57L171.57,229.58L171.58,229.54L171.59,229.48L173.33,229.42L173.34,229.45L187.54,229.27L187.55,229.8L187.62,238.19L188.2,229.09L188.25,229.18L188.26,229.19L191.17,228.96L191.18,229L191.19,229.05L192.54,228.94L192.55,228.97L194.66,228.81L194.67,228.78L195.72,228.74L195.73,228.69L195.74,228.66L200.43,228.56L200.44,228.53L202.69,228.33L202.69,228.39L205.21,228.26L205.22,228.31L205.23,228.34L216.93,228.17L216.94,228.23L222.07,228.13L222.08,228.17L223.59,228.08L223.6,228.12L223.61,228.16L227.66,227.97L227.67,227.93L228.71,228.07L228.73,227.98L228.74,227.98L232.71,227.81L232.72,227.81L233.78,227.85L233.8,227.79L233.81,227.74L235.02,227.77L235.03,227.73L235.04,227.68L236.16,227.86L236.19,227.83L236.19,227.82L239.07,227.75L239.08,227.81L239.09,227.83L256.29,227.28L256.3,227.34L259.22,227.46L259.23,227.48L260.45,227.4L260.46,227.42L260.47,227.43L265.16,227.19L265.17,227.23L266.13,227.05L266.14,227.1L266.15,227.11L280.59,226.58L280.6,226.39L280.64,225.66L280.77,226.87L281.32,226.83L281.33,226.78L283.42,226.75L283.43,226.71L284.62,226.72L284.64,226.69L284.65,226.66L287.06,226.63L287.07,226.67L288.58,226.52L288.59,226.5L295.72,226.78L295.73,226.76L302.84,226.55L302.85,226.57L308.92,226.43L308.93,226.46L312.98,226.63L312.99,226.67L314.05,226.53L314.06,226.57L314.06,226.62L315.19,226.52L315.19,226.56L319.35,226.46L319.36,226.48L320.53,226.47L320.54,226.49L321.56,226.29L321.56,226.31L324.9,226.2L324.91,226.26L328.2,226.27L328.21,226.34L329.26,226.35L329.27,226.38L329.28,226.44L331.03,226.24L331.06,226.33L331.07,226.39L333.93,226.26L333.94,226.2L335.06,226.33L335.08,226.3L335.09,226.27L339.81,226.22L339.82,226.32L339.83,226.36L340.97,226.24L340.98,226.26L340.99,226.32L341.94,226.17L341.95,226.23L341.96,226.28L344.57,226.07L344.58,226.13L344.59,226.18L345.71,225.91L345.72,225.99L345.73,226.05L347.11,226.06L347.12,226.09L347.13,226.13L352.43,226.11L352.44,226.15L353.48,226L353.53,226.11L353.54,226.13L354.55,226.04L354.58,226.09L354.59,226.13L356.02,225.93L356.03,225.96L356.04,226.02L359.19,226.11L359.19,226.12L359.2,226.15L360.4,225.97L360.41,226.01L361.56,226.03L361.56,226.04L361.57,226.1L363.49,225.98L363.5,226.02L363.51,226.07L364.49,225.92L364.51,226.03L364.52,226.05L366.63,225.87L366.64,225.91L366.65,225.97L369.56,225.82L369.57,225.86L369.58,225.91L370.64,225.85L370.65,225.89L370.66,225.93L371.64,225.77L371.65,225.82L371.66,225.87L373.74,225.76L373.75,225.8L380.29,225.92L380.3,225.95L381.38,226.24L381.39,226.72L381.46,235L382.01,225.92L382.08,225.93L382.09,225.97L383.41,225.87L383.42,225.9L383.43,225.93L390.77,225.7L390.78,225.67L392.04,225.79L392.06,225.74L392.07,225.69L393.13,225.73L393.14,225.67L394.3,225.72L394.31,225.66L395.36,225.79L395.41,225.7L395.42,225.7L396.61,225.57L396.65,225.62L396.66,225.64L397.69,225.49L397.72,225.56L397.73,225.59L400.19,225.61L400.19,225.64L400.2,225.68L401.69,225.67L401.72,225.78L401.73,225.81L402.78,225.76L402.79,225.8L402.8,225.84L405.92,225.58L405.93,225.57L408.14,225.67L408.15,225.6L410.27,225.65L410.28,225.62L410.29,225.58L424.94,225.19L424.94,225.25L429.12,225.58L429.13,225.54L438.02,225.6L438.03,225.61L454.56,225.63L454.56,225.66L454.57,225.67L463.31,225.33L463.32,225.37L463.33,225.43L468.39,225.19L468.4,225.22L468.41,225.29L472.16,225.09L472.17,225.14L507.99,225.3L508,225.36L581.88,227.62L581.89,228.96L581.93,234.18L585.81,224.4L586.09,224.5L586.1,224.45L668.58,224.18" style="vector-effect: non-scaling-stroke; fill: none; stroke: rgb(28, 167, 28); stroke-opacity: 1; stroke-width: 3px; opacity: 1;"/></g><g class="points"/><g class="text"/></g><g class="trace scatter trace6d79a5" style="stroke-miterlimit: 2; opacity: 1;"><g class="fills"/><g class="errorbars"/><g class="lines"><path class="js-line" d="M0,413.24L0.55,216.24L0.75,216.32L0.76,216.31L2.57,215.68L2.6,215.99L2.6,216.01L3.26,215.59L3.41,215.65L3.42,215.64L5.98,215.1L5.98,215.18L5.98,215.2L6.79,214.8L6.8,214.91L6.8,214.93L7.06,215.05L7.33,214.62L7.54,214.83L7.55,214.84L8.63,214.37L8.66,214.52L8.66,214.53L10.81,214.08L10.82,214.23L10.83,214.25L12.03,213.98L12.06,214.12L12.06,214.13L13.13,213.84L13.17,214.06L13.17,214.09L15.55,213.48L15.55,213.43L15.55,213.41L16.09,213.28L16.34,213.65L16.34,213.58L16.35,213.58L17.1,213.3L17.18,213.5L17.18,213.52L18.09,213.27L18.13,213.41L18.13,213.43L18.57,213.01L18.82,213.77L18.82,213.82L18.84,214.09L19.41,213.14L19.53,213.31L19.54,213.29L21.24,212.99L21.24,212.87L21.24,212.85L21.73,212.7L21.99,213.03L22.01,212.93L22.01,212.91L22.99,212.98L23.02,212.83L23.02,212.81L23.18,212.75L23.76,212.95L23.8,212.87L23.8,212.83L24.63,212.77L24.65,212.69L24.65,212.65L25.13,213.34L25.13,213.39L25.21,223.25L25.78,212.54L25.88,212.71L25.89,212.72L26.05,212.82L26.51,212.43L26.68,212.56L26.69,212.55L26.98,212.64L27.39,212.34L27.45,212.41L27.45,212.43L28.3,212.57L28.32,212.44L28.32,212.43L28.59,212.25L29.07,212.52L29.08,212.36L29.09,212.36L34.65,212.16L34.65,212.24L34.65,212.25L35.53,211.91L35.55,212.07L35.55,212.08L36.41,212L36.43,212.14L36.44,212.15L37.22,211.86L37.22,211.88L37.23,211.89L38.54,211.98L38.57,211.85L38.57,211.84L38.85,211.7L39.22,211.99L39.3,211.69L39.31,211.72L39.97,212.1L40.07,211.98L40.08,211.99L40.14,212.09L40.67,211.75L40.83,211.9L40.84,211.89L41.62,211.71L41.65,211.85L41.65,211.87L45.64,211.52L45.64,211.44L45.64,211.42L46.13,211.79L46.4,211.59L46.41,211.61L47.71,211.43L47.75,211.7L47.75,211.71L48.4,211.31L48.58,211.53L48.59,211.55L48.74,211.7L49.34,211.34L49.48,211.55L49.49,211.55L51.03,211.36L51.06,211.51L51.06,211.52L51.71,211.21L51.84,211.41L51.84,211.42L51.97,211.45L52.09,211.12L52.62,211.32L52.62,211.34L52.67,211.37L53.25,211.09L53.38,211.28L53.38,211.29L54.18,211.01L54.28,211.31L54.28,211.34L55.08,211.15L55.13,211.33L55.13,211.35L55.43,211.4L55.62,211.11L55.89,211.28L55.89,211.29L56.74,211.43L56.77,211.33L56.77,211.3L57.64,211.31L57.66,211.2L57.66,211.18L58.5,211.39L58.51,211.27L58.51,211.25L58.63,211.15L59.37,211.27L59.37,211.23L59.37,211.21L60.17,211.1L60.18,211.16L60.18,211.18L62.09,210.99L62.11,211.14L62.11,211.16L62.2,211.21L62.86,210.92L62.88,211.04L62.89,211.05L63.83,210.9L63.86,211L63.86,211.02L65.4,210.97L65.43,211.1L65.43,211.12L66.54,210.85L66.55,211L66.55,211.02L67.7,210.91L67.72,211.1L67.72,211.12L68.54,210.83L68.55,210.91L68.55,210.93L69.44,211.01L69.5,210.91L69.5,210.9L70.07,210.97L70.28,210.71L70.28,210.69L71.04,210.85L71.06,210.79L71.06,210.76L71.93,210.55L71.96,210.81L71.96,210.82L73.21,210.95L73.25,210.8L73.25,210.78L73.52,211.09L73.72,210.66L73.99,210.69L74,210.69L74.28,211.03L74.76,210.74L74.76,210.72L75.36,210.9L75.54,210.73L75.54,210.68L75.7,210.6L76.24,210.82L76.33,210.65L76.33,210.63L76.64,210.5L76.89,210.85L77.09,210.74L77.1,210.72L77.22,210.81L77.84,210.5L77.87,210.67L77.87,210.7L79.87,210.52L79.88,210.62L79.89,210.63L80.32,210.41L80.65,210.61L80.65,210.62L81.4,210.36L81.58,210.66L81.58,210.68L82.02,210.41L82.33,210.67L82.33,210.69L82.44,210.74L83.02,210.48L83.11,210.75L83.11,210.76L83.65,210.43L83.89,210.71L83.9,210.73L88.28,210.7L88.28,210.72L89.08,210.42L89.09,210.55L89.1,210.58L89.85,210.37L89.86,210.54L89.87,210.56L90.85,210.39L90.89,210.6L90.89,210.62L91.46,210.3L91.63,210.65L91.64,210.66L92.25,210.23L92.48,210.34L92.48,210.37L92.65,210.53L93.15,210.25L93.27,210.42L93.28,210.45L93.44,210.6L94.17,210.31L94.24,210.48L94.24,210.51L94.43,210.58L95.08,210.13L95.09,210.25L95.09,210.28L96.05,210.4L96.07,210.25L96.07,210.22L96.24,210.17L96.58,210.57L96.85,210.34L96.86,210.33L97.95,210.55L97.98,210.39L97.98,210.37L98.83,210.28L98.86,210.48L98.86,210.51L99.6,210.1L99.71,210.37L99.71,210.38L104.84,210.48L104.84,210.65L104.84,210.7L104.94,220.57L105.05,211.13L105.06,211.1L105.53,210.3L105.81,210.41L105.82,210.41L105.96,210.52L106.62,210.34L106.64,210.54L106.64,210.55L107.31,210.21L107.42,210.49L107.42,210.53L108.24,210.16L108.25,210.3L108.26,210.34L109.24,210.27L109.26,210.46L109.26,210.49L109.41,210.53L109.7,210.22L110.01,210.36L110.02,210.37L110.12,210.51L110.62,210.19L110.78,210.38L110.78,210.39L110.87,210.43L111.53,210.26L111.55,210.39L111.55,210.41L111.7,210.29L112.18,210.53L112.29,210.3L112.29,210.26L112.95,210.63L113.08,210.57L113.08,210.56L113.99,210.29L114.02,210.47L114.02,210.5L114.36,210.17L114.79,210.37L114.79,210.4L115.64,210.39L115.65,210.49L115.65,210.52L116.16,210.19L116.41,210.43L116.41,210.45L117.14,210.2L117.19,210.32L117.19,210.33L117.33,210.4L117.66,210.12L117.94,210.27L117.95,210.28L117.98,210.08L118.25,210.49L118.7,210.31L118.7,210.34L119.49,210.49L119.58,210.26L119.58,210.24L119.68,210.12L120.34,210.46L120.42,210.28L120.43,210.29L120.6,210.23L121.17,210.36L121.19,210.25L121.19,210.22L121.3,210.15L121.96,210.39L122,210.26L122,210.22L123.08,210.35L123.1,210.46L123.1,210.49L123.25,210.53L123.85,210.22L123.88,210.37L123.88,210.4L124.78,210.22L124.8,210.3L124.8,210.33L125.68,210.19L125.72,210.34L125.72,210.35L125.8,210.37L126.45,210.08L126.49,210.22L126.5,210.21L127.91,209.98L127.91,210.05L127.91,210.09L128.88,210.2L128.91,210.05L128.91,210.02L129.65,210.28L129.77,210L129.77,209.98L129.86,210.25L130.37,209.82L130.52,209.98L130.53,209.98L131.97,210.23L132.05,210.07L132.05,210.03L132.2,209.96L132.65,210.29L132.83,210.13L132.83,210.12L133.52,209.89L133.57,210.19L133.58,210.06L133.59,210.03L133.73,210L134.09,210.28L134.35,210.08L134.35,210.05L135.22,210.03L135.23,210.16L135.23,210.18L137,210.03L137,210.15L137,210.18L137.09,210.23L137.83,209.85L137.86,210.02L137.86,210.05L138.99,209.89L139,210.03L139,210.05L139.09,210.11L139.76,209.89L139.78,210.06L139.79,210.06L140.51,209.89L140.55,210.06L140.56,210.06L141.55,209.92L141.56,210.12L141.57,210.13L141.63,210.16L142.21,209.92L142.33,210.13L142.34,210.15L143.2,209.84L143.22,209.93L143.22,209.94L144.61,209.88L144.63,210.07L144.63,210.08L145.4,209.87L145.41,209.96L145.41,210.01L145.72,210.1L146.2,209.88L146.2,209.93L146.2,209.95L147.72,209.92L147.73,209.82L147.74,209.79L147.83,209.74L148.41,210.04L148.54,209.88L148.55,209.9L149.32,210.13L149.43,209.93L149.43,209.9L150.81,210.04L150.83,209.9L150.83,209.89L150.98,209.83L151.55,210.12L151.59,209.88L151.6,209.89L151.78,210.15L152.12,209.76L152.35,209.95L152.35,209.92L152.49,210.05L153.07,209.75L153.14,209.86L153.14,209.88L153.27,209.99L154,209.75L154.01,209.85L154.01,209.9L154.84,209.64L154.85,209.72L154.86,209.74L156.55,209.92L156.59,209.73L156.59,209.7L157.33,209.86L157.35,209.74L157.36,209.74L157.55,209.84L158.06,209.59L158.15,209.79L158.15,209.81L158.91,209.62L158.93,209.78L158.94,209.77L159.1,209.83L159.64,209.61L159.7,209.75L159.71,209.75L160.52,209.71L160.61,209.9L160.61,209.93L161.45,209.73L161.56,209.99L161.56,210L162.3,209.64L162.36,209.82L162.36,209.83L163.52,209.76L163.55,209.93L163.55,209.94L163.88,210.05L164.29,209.81L164.31,209.92L164.32,209.92L165.65,209.72L165.7,209.95L165.7,209.96L167.51,209.63L167.54,209.83L167.54,209.85L167.7,209.94L168.23,209.67L168.31,209.84L168.31,209.88L169.35,209.61L169.38,209.84L169.38,209.86L170.15,209.73L170.17,209.84L170.17,209.85L171.88,209.87L171.88,209.84L171.88,209.8L173.03,209.95L173.05,209.84L173.05,209.82L173.14,209.75L173.79,210L173.8,209.87L173.81,209.83L174.54,210.01L174.59,209.82L174.59,209.8L174.85,209.98L174.88,209.7L175.34,209.76L175.34,209.74L176.02,210.03L176.1,209.83L176.1,209.78L176.21,209.71L176.86,209.88L176.89,209.76L176.89,209.73L177.71,209.97L177.73,209.89L177.73,209.86L178.15,210.04L178.16,209.29L178.16,209.27L178.2,207.95L178.48,209.95L178.83,209.79L178.84,209.82L179.76,209.71L179.85,209.95L179.85,209.96L180.52,209.75L180.62,209.93L180.62,209.94L181.29,209.53L181.4,209.8L181.4,209.81L181.54,209.84L182.14,209.61L182.18,209.72L182.18,209.73L183.06,209.67L183.08,209.79L183.08,209.83L183.58,209.58L183.83,209.83L183.84,209.83L184.33,209.5L184.65,209.72L184.66,209.73L185.43,209.65L185.46,209.77L185.46,209.8L186.2,209.71L186.24,209.84L186.24,209.88L186.55,209.94L186.89,209.66L187.01,209.77L187.01,209.78L188.26,209.82L188.27,209.74L188.27,209.72L188.35,209.62L188.86,209.96L189.04,209.72L189.04,209.71L189.69,209.98L189.81,209.88L189.81,209.84L190.94,209.87L190.96,209.73L190.96,209.71L191.03,209.67L191.71,209.86L191.73,209.69L191.74,209.69L192.6,209.89L192.62,209.8L192.62,209.77L193.82,209.82L193.83,209.9L193.83,209.91L194.89,209.6L194.91,209.77L194.91,209.79L195.78,209.63L195.79,209.7L195.79,209.72L196.75,209.53L196.75,209.62L196.75,209.64L196.86,209.69L197.58,209.46L197.6,209.53L197.6,209.55L199.49,209.75L199.5,209.64L199.5,209.63L200,209.95L200.27,209.75L200.27,209.74L201.23,209.89L201.26,209.76L201.26,209.75L201.53,209.61L201.92,209.84L202.02,209.74L202.03,209.71L203.23,209.85L203.25,209.69L203.26,209.65L203.58,209.5L204.07,209.82L204.1,209.72L204.1,209.69L204.92,209.81L205,209.63L205,209.61L205.12,209.53L205.4,212.09L205.4,212.19L205.47,219.99L205.97,209.56L206.15,209.63L206.16,209.63L206.84,209.74L206.95,209.59L206.95,209.58L207.76,209.79L207.79,209.69L207.79,209.67L208.65,209.59L208.66,209.66L208.66,209.69L209.44,209.56L209.45,209.71L209.45,209.74L209.84,209.86L210.19,209.54L210.22,209.71L210.22,209.73L210.96,209.59L211,209.74L211,209.75L211.2,209.48L211.62,209.84L211.77,209.63L211.77,209.64L212.81,209.5L212.84,209.61L212.84,209.63L213.82,209.65L213.82,209.73L213.82,209.76L214.65,209.46L214.66,209.53L214.66,209.56L215.54,209.69L215.55,209.58L215.55,209.57L216.36,209.37L216.47,209.62L216.47,209.63L216.5,209.42L216.52,209.67L217.22,209.59L217.22,209.62L218.28,209.45L218.3,209.55L218.3,209.58L218.39,209.65L219.05,209.4L219.06,209.51L219.07,209.55L220.5,209.33L220.53,209.5L220.53,209.52L220.76,209.64L221.26,209.34L221.34,209.45L221.34,209.47L222.31,209.72L222.32,209.58L222.33,209.55L222.43,209.5L223.08,209.81L223.13,209.73L223.14,209.7L224.97,209.53L224.99,209.7L224.99,209.72L225.88,209.58L225.91,209.7L225.91,209.72L226.25,209.47L226.68,209.73L226.68,209.75L226.83,209.81L227.35,209.58L227.45,209.75L227.45,209.77L228.12,209.54L228.24,209.68L228.24,209.71L229.18,209.53L229.22,209.69L229.22,209.71L229.46,209.79L229.97,209.57L229.98,209.68L229.99,209.7L230.06,209.73L230.71,209.46L230.77,209.63L230.77,209.65L230.85,209.78L231.42,209.48L231.52,209.69L231.53,209.68L231.6,209.75L232.34,209.43L232.34,209.5L232.35,209.51L233.14,209.7L233.21,209.54L233.21,209.52L233.64,209.38L233.77,209.67L233.96,209.5L233.97,209.49L234.34,209.35L234.52,209.63L234.73,209.51L234.73,209.47L235.6,209.68L235.64,209.47L235.64,209.45L235.71,209.44L236.38,209.8L236.41,209.67L236.42,209.67L237.35,209.51L237.37,209.61L237.37,209.63L238.5,209.59L238.52,209.7L238.52,209.71L240,209.62L240,209.58L240,209.54L240.76,209.78L240.79,209.6L240.8,209.58L241.6,209.69L241.65,209.54L241.65,209.53L242.46,209.71L242.54,209.59L242.54,209.55L243.3,209.7L243.33,209.54L243.33,209.52L243.56,209.48L244.01,209.75L244.1,209.66L244.1,209.63L244.98,209.65L244.99,209.56L244.99,209.55L246.47,209.61L246.48,209.49L246.48,209.45L247.15,209.71L247.26,209.57L247.27,209.56L248.7,209.54L248.7,209.45L248.7,209.43L249.44,209.63L249.48,209.43L249.48,209.39L250.36,209.58L250.39,209.39L250.4,209.38L251.07,209.6L251.19,209.44L251.19,209.43L251.76,209.61L251.94,209.38L251.95,209.37L252.84,209.53L252.89,209.34L252.89,209.32L253.77,209.4L253.8,209.25L253.8,209.23L254.24,209.15L254.3,209.44L254.56,209.28L254.56,209.26L254.88,209.17L255.3,209.43L255.33,209.31L255.33,209.29L255.56,209.22L256.05,209.51L256.11,209.34L256.12,209.34L257.62,209.53L257.64,209.42L257.64,209.39L257.71,209.32L258.35,209.7L258.42,209.58L258.42,209.55L260.44,209.74L260.47,209.53L260.47,209.51L260.99,209.76L261.25,209.49L261.25,209.47L261.91,209.68L262.03,209.55L262.04,209.57L264.96,209.47L264.97,209.63L264.97,209.65L265.64,209.37L265.76,209.63L265.76,209.65L266.25,209.41L266.52,209.52L266.53,209.55L266.59,209.62L267.12,209.32L267.32,209.42L267.32,209.44L268.31,209.62L268.32,209.51L268.33,209.49L269.45,209.62L269.48,209.44L269.48,209.42L269.56,209.39L270.21,209.64L270.25,209.47L270.25,209.45L270.98,209.73L271.03,209.56L271.03,209.54L271.14,209.61L271.79,209.55L271.79,209.65L271.8,209.67L273.83,209.45L273.83,209.56L273.83,209.58L273.91,209.63L274.56,209.4L274.59,209.52L274.59,209.55L275.38,209.33L275.38,209.4L275.38,209.42L275.56,209.27L276.14,209.54L276.17,209.36L276.17,209.35L276.59,209.65L276.94,209.42L276.94,209.4L277.51,209.6L277.71,209.45L277.71,209.42L278.83,209.54L278.86,209.39L278.86,209.38L279.9,209.56L279.94,209.44L279.94,209.41L280.02,209.33L280.6,209.55L280.69,209.41L280.7,209.38L281.52,209.58L281.55,209.47L281.55,209.44L282.33,209.29L282.38,209.5L282.39,209.5L282.52,209.57L283.1,209.32L283.14,209.5L283.14,209.52L283.36,209.59L283.71,209.34L283.89,209.46L283.9,209.48L284.72,209.23L284.84,209.44L284.85,209.45L285.13,209.55L285.58,209.26L285.6,209.36L285.61,209.34L285.7,209.29L286.37,209.51L286.39,209.38L286.39,209.36L287.6,209.41L287.63,209.3L287.63,209.26L288.69,209.52L288.71,209.43L288.71,209.4L289.99,209.63L290,209.49L290,209.47L290.32,209.29L290.75,209.54L290.78,209.4L290.78,209.38L291.55,209.48L291.55,209.38L291.56,209.38L291.63,209.35L292.13,209.55L292.32,209.39L292.32,209.36L293.22,209.58L293.26,209.37L293.26,209.35L293.97,209.52L294.02,209.48L294.03,209.46L294.64,209.26L294.84,209.4L294.84,209.41L295.55,209.24L295.6,209.37L295.6,209.38L296.27,209.16L296.38,209.29L296.38,209.31L296.51,209.38L296.63,209.13L297.12,209.39L297.13,209.39L297.85,209.12L297.89,209.34L297.9,209.34L298.7,209.27L298.73,209.52L298.73,209.54L299.25,209.28L299.5,209.5L299.5,209.52L299.67,209.61L300.09,209.32L300.26,209.57L300.27,209.59L301.08,209.33L301.09,209.41L301.09,209.44L302.13,209.58L302.14,209.67L302.14,209.71L302.2,209.76L302.8,209.37L302.92,209.47L302.92,209.5L304.14,209.52L304.17,209.37L304.17,209.34L304.75,209.66L304.94,209.39L304.94,209.38L305.6,209.74L305.71,209.5L305.71,209.48L306.59,209.61L306.61,209.45L306.62,209.42L307.36,209.59L307.39,209.36L307.39,209.35L308.14,209.6L308.18,209.43L308.18,209.41L308.31,209.38L308.91,209.64L308.95,209.59L308.95,209.53L309.06,209.59L309.72,209.37L309.73,209.52L309.73,209.54L310.54,209.3L310.55,209.44L310.55,209.46L310.82,209.61L311.34,209.31L311.35,209.51L311.35,209.53L311.43,209.58L312.17,209.36L312.17,209.43L312.17,209.45L312.28,209.52L313.03,209.27L313.03,209.38L313.03,209.41L313.18,209.27L313.91,209.53L313.92,209.38L313.92,209.37L314.01,209.33L314.59,209.61L314.72,209.38L314.72,209.36L315.59,209.5L315.63,209.26L315.63,209.23L315.72,209.21L316.29,209.45L316.38,209.29L316.39,209.26L317.37,209.38L317.38,209.3L317.39,209.26L318.38,209.5L318.41,209.36L318.41,209.34L318.55,209.32L318.97,209.57L319.16,209.45L319.17,209.44L319.91,209.65L319.93,209.48L319.93,209.46L320.01,209.44L320.6,209.72L320.69,209.46L320.7,209.47L321.52,209.74L321.54,209.62L321.54,209.59L321.67,209.72L322.39,209.5L322.41,209.65L322.42,209.66L323.01,209.46L323.07,210.06L323.07,210.14L323.16,219.72L323.78,209.4L323.82,209.49L323.83,209.5L323.97,209.55L324.47,209.18L324.58,209.44L324.59,209.44L325.23,209.14L325.35,209.33L325.36,209.32L325.4,209.1L325.74,209.45L326.11,209.34L326.11,209.37L326.21,209.42L326.78,209.22L326.89,209.44L326.89,209.46L327.63,209.14L327.66,209.36L327.66,209.39L328.77,209.17L328.8,209.27L328.8,209.3L329.86,209.24L329.88,209.38L329.88,209.4L330.06,209.46L330.63,209.31L330.64,209.43L330.65,209.46L332.42,209.54L332.42,209.44L332.42,209.42L332.61,209.37L333.04,209.66L333.17,209.49L333.18,209.46L334.05,209.65L334.07,209.46L334.07,209.45L334.24,209.41L334.51,209.69L334.84,209.51L334.84,209.48L335.1,209.35L335.58,209.65L335.62,209.47L335.63,209.46L335.78,209.39L336.38,209.57L336.39,209.45L336.39,209.43L337.46,209.39L337.5,209.59L337.5,209.61L338.57,209.43L338.59,209.52L338.59,209.56L338.75,209.64L339.34,209.32L339.37,209.47L339.37,209.49L339.74,209.6L339.78,209.34L340.12,209.51L340.12,209.53L340.2,209.58L340.86,209.27L340.94,209.34L340.94,209.37L341.95,209.53L341.96,209.43L341.96,209.42L344.08,209.39L344.08,209.28L344.09,209.26L344.12,209.47L344.64,209.19L344.84,209.23L344.85,209.23L345.52,209.39L345.62,209.21L345.62,209.2L345.92,209.09L346.27,209.37L346.39,209.21L346.39,209.2L347.27,209.32L347.31,209.15L347.32,209.14L347.39,209.1L347.9,209.39L348.08,209.19L348.08,209.17L348.36,209.48L348.84,209.33L348.85,209.35L348.93,209.31L349.5,209.68L349.62,209.5L349.63,209.5L349.69,209.45L350.35,209.7L350.39,209.5L350.39,209.48L350.6,209.42L351.03,209.65L351.16,209.54L351.16,209.51L351.98,209.73L351.98,209.63L351.99,209.62L352.3,209.43L352.73,209.6L352.75,209.53L352.75,209.51L353.62,209.49L353.64,209.6L353.64,209.62L354.61,209.38L354.64,209.55L354.64,209.57L355.46,209.35L355.49,209.46L355.49,209.49L356.98,209.63L357.01,209.46L357.01,209.44L357.24,209.37L357.67,209.61L357.79,209.52L357.79,209.51L358.81,209.72L358.84,209.59L358.84,209.57L359.01,209.49L359.59,209.7L359.64,209.56L359.64,209.55L359.81,209.74L359.85,209.49L360.39,209.55L360.39,209.53L360.62,209.41L361.05,209.7L361.15,209.51L361.15,209.5L362.21,209.58L362.23,209.45L362.24,209.43L362.31,209.39L362.74,209.69L362.99,209.49L363,209.5L364.04,209.56L364.07,209.44L364.07,209.42L364.9,209.64L364.91,209.54L364.91,209.5L365.88,209.63L365.91,209.45L365.91,209.43L366.73,209.72L366.73,209.64L366.74,209.62L367.77,209.47L367.79,209.62L367.79,209.64L368.04,209.69L368.53,209.45L368.56,209.59L368.56,209.6L368.73,209.68L369.32,209.47L369.34,209.58L369.34,209.62L370.08,209.4L370.11,209.56L370.11,209.59L371.08,209.34L371.09,209.43L371.09,209.45L372.7,209.25L372.73,209.44L372.73,209.45L372.88,209.54L373.31,209.33L373.48,209.52L373.49,209.52L373.57,209.57L374.22,209.36L374.28,209.46L374.28,209.47L374.41,209.56L374.86,209.3L375.03,209.49L375.04,209.51L375.19,209.55L375.77,209.35L375.8,209.47L375.8,209.48L376.54,209.18L376.58,209.34L376.59,209.33L377.22,209.24L377.35,209.48L377.36,209.49L377.62,209.24L377.73,209.59L378.11,209.42L378.11,209.44L379.59,209.51L379.6,209.39L379.6,209.38L380.25,209.71L380.37,209.51L380.38,209.53L381.36,209.73L381.38,209.62L381.38,209.61L382.28,209.69L382.29,209.6L382.29,209.57L383.19,209.76L383.22,209.55L383.22,209.54L383.31,209.5L383.81,209.7L383.99,209.52L383.99,209.5L384.72,209.72L384.77,209.59L384.77,209.58L385.58,209.75L385.61,209.6L385.61,209.57L386.03,209.88L386.37,209.66L386.38,209.68L387.28,209.77L387.29,209.67L387.29,209.63L387.41,209.53L388.03,209.73L388.06,209.61L388.06,209.59L388.79,209.75L388.83,209.6L388.84,209.6L389.66,209.75L389.73,209.57L389.73,209.56L390.49,209.84L390.52,209.64L390.52,209.62L391.2,209.77L391.29,209.6L391.29,209.57L391.37,209.53L392.04,209.76L392.09,209.65L392.09,209.63L393.04,209.68L393.06,209.56L393.06,209.53L394.11,209.7L394.12,209.57L394.13,209.54L395.27,209.75L395.32,209.6L395.32,209.58L395.4,209.53L396.07,209.78L396.1,209.66L396.1,209.65L396.95,209.68L396.97,209.56L396.98,209.56L398.09,209.64L398.1,209.53L398.1,209.5L398.54,209.45L398.66,209.74L398.85,209.54L398.86,209.52L399.89,209.63L399.91,209.54L399.91,209.49L400.8,209.51L400.83,209.3L400.83,209.27L400.91,209.24L401.72,209.59L401.74,209.53L401.74,209.52L402.03,209.59L402.45,209.38L402.54,209.55L402.55,209.53L403.61,209.5L403.64,209.64L403.64,209.67L403.98,209.36L404.47,209.64L404.48,209.65L405.61,209.51L405.62,209.6L405.62,209.62L406.91,209.45L406.93,209.56L406.93,209.57L407.95,209.7L407.97,209.66L407.97,209.61L409.84,209.39L409.89,209.57L409.89,209.6L410.91,209.33L410.97,209.49L410.98,209.49L412.47,209.38L412.47,209.5L412.47,209.52L432.68,209.56L432.68,209.66L432.68,209.71L432.78,219.26L433.82,209.32L433.83,209.37L433.84,209.36L436.95,209.39L436.97,209.18L436.98,209.15L440.34,209.5L440.37,209.35L440.37,209.32L444.05,209.37L444.06,209.25L444.06,209.23L447.56,209.47L447.59,209.27L447.59,209.25L452.47,209.38L452.48,208.92L452.48,208.9L452.52,207.14L454.17,209.29L454.24,209.16L454.25,209.19L460.55,209.56L460.55,209.64L460.55,209.67L465.21,209.29L465.23,209.47L465.23,209.49L468.29,209.2L468.31,209.38L468.31,209.39L476.25,209.53L476.28,209.36L476.28,209.34L482.11,209.58L482.13,209.44L482.13,209.43L488.78,209.64L488.81,209.5L488.81,209.48L506.97,209.49L506.97,209.44L506.97,209.41L519.04,209.42L519.04,209.36L519.04,209.33L534.61,209.65L534.64,209.42L534.64,209.41L542.47,209.56L542.49,209.41L542.49,209.4L553.5,213.06L553.5,213.18L553.56,219.03L556.26,209.18L557.1,209.22L557.11,209.23L578.28,209.64L578.28,209.59" style="vector-effect: non-scaling-stroke; fill: none; stroke: rgb(182, 129, 0); stroke-opacity: 1; stroke-width: 3px; opacity: 1;"/></g><g class="points"/><g class="text"/></g></g></g><g class="overplot"/><path class="xlines-above crisp" d="M84,416H486" style="fill: none; stroke-width: 2px; stroke: rgb(0, 0, 0); stroke-opacity: 1;"/><path class="ylines-above crisp" d="M85,15V415" style="fill: none; stroke-width: 2px; stroke: rgb(0, 0, 0); stroke-opacity: 1;"/><g class="overlines-above"/><g class="xaxislayer-above"><path class="xtick ticks crisp" d="M0,417v5" transform="translate(86,0)" style="stroke: rgb(68, 68, 68); stroke-opacity: 1; stroke-width: 1px;"/><path class="xtick ticks crisp" d="M0,417v5" transform="translate(152.67000000000002,0)" style="stroke: rgb(68, 68, 68); stroke-opacity: 1; stroke-width: 1px;"/><path class="xtick ticks crisp" d="M0,417v5" transform="translate(219.33,0)" style="stroke: rgb(68, 68, 68); stroke-opacity: 1; stroke-width: 1px;"/><path class="xtick ticks crisp" d="M0,417v5" transform="translate(286,0)" style="stroke: rgb(68, 68, 68); stroke-opacity: 1; stroke-width: 1px;"/><path class="xtick ticks crisp" d="M0,417v5" transform="translate(352.67,0)" style="stroke: rgb(68, 68, 68); stroke-opacity: 1; stroke-width: 1px;"/><path class="xtick ticks crisp" d="M0,417v5" transform="translate(419.33,0)" style="stroke: rgb(68, 68, 68); stroke-opacity: 1; stroke-width: 1px;"/><path class="xtick ticks crisp" d="M0,417v5" transform="translate(486,0)" style="stroke: rgb(68, 68, 68); stroke-opacity: 1; stroke-width: 1px;"/><g class="xtick"><text text-anchor="middle" x="0" y="455.6" transform="translate(86,0)" style="font-family: 'Times New Roman', monospace; font-size: 28px; fill: rgb(0, 0, 0); fill-opacity: 1; white-space: pre; opacity: 1;">0</text></g><g class="xtick"><text text-anchor="middle" x="0" y="455.6" style="font-family: 'Times New Roman', monospace; font-size: 28px; fill: rgb(0, 0, 0); fill-opacity: 1; white-space: pre; opacity: 1;" transform="translate(152.67000000000002,0)">2</text></g><g class="xtick"><text text-anchor="middle" x="0" y="455.6" style="font-family: 'Times New Roman', monospace; font-size: 28px; fill: rgb(0, 0, 0); fill-opacity: 1; white-space: pre; opacity: 1;" transform="translate(219.33,0)">4</text></g><g class="xtick"><text text-anchor="middle" x="0" y="455.6" style="font-family: 'Times New Roman', monospace; font-size: 28px; fill: rgb(0, 0, 0); fill-opacity: 1; white-space: pre; opacity: 1;" transform="translate(286,0)">6</text></g><g class="xtick"><text text-anchor="middle" x="0" y="455.6" style="font-family: 'Times New Roman', monospace; font-size: 28px; fill: rgb(0, 0, 0); fill-opacity: 1; white-space: pre; opacity: 1;" transform="translate(352.67,0)">8</text></g><g class="xtick"><text text-anchor="middle" x="0" y="455.6" style="font-family: 'Times New Roman', monospace; font-size: 28px; fill: rgb(0, 0, 0); fill-opacity: 1; white-space: pre; opacity: 1;" transform="translate(419.33,0)">10</text></g><g class="xtick"><text text-anchor="middle" x="0" y="455.6" style="font-family: 'Times New Roman', monospace; font-size: 28px; fill: rgb(0, 0, 0); fill-opacity: 1; white-space: pre; opacity: 1;" transform="translate(486,0)">12</text></g></g><g class="yaxislayer-above"><path class="ytick ticks crisp" d="M84,0h-5" transform="translate(0,415)" style="stroke: rgb(68, 68, 68); stroke-opacity: 1; stroke-width: 1px;"/><path class="ytick ticks crisp" d="M84,0h-5" transform="translate(0,335)" style="stroke: rgb(68, 68, 68); stroke-opacity: 1; stroke-width: 1px;"/><path class="ytick ticks crisp" d="M84,0h-5" transform="translate(0,255)" style="stroke: rgb(68, 68, 68); stroke-opacity: 1; stroke-width: 1px;"/><path class="ytick ticks crisp" d="M84,0h-5" transform="translate(0,175)" style="stroke: rgb(68, 68, 68); stroke-opacity: 1; stroke-width: 1px;"/><path class="ytick ticks crisp" d="M84,0h-5" transform="translate(0,95)" style="stroke: rgb(68, 68, 68); stroke-opacity: 1; stroke-width: 1px;"/><path class="ytick ticks crisp" d="M84,0h-5" transform="translate(0,15)" style="stroke: rgb(68, 68, 68); stroke-opacity: 1; stroke-width: 1px;"/><g class="ytick"><text text-anchor="end" x="73.4" y="9.799999999999999" transform="translate(0,415)" style="font-family: 'Times New Roman', monospace; font-size: 28px; fill: rgb(0, 0, 0); fill-opacity: 1; white-space: pre; opacity: 1;">1.6</text></g><g class="ytick"><text text-anchor="end" x="73.4" y="9.799999999999999" style="font-family: 'Times New Roman', monospace; font-size: 28px; fill: rgb(0, 0, 0); fill-opacity: 1; white-space: pre; opacity: 1;" transform="translate(0,335)">1.8</text></g><g class="ytick"><text text-anchor="end" x="73.4" y="9.799999999999999" style="font-family: 'Times New Roman', monospace; font-size: 28px; fill: rgb(0, 0, 0); fill-opacity: 1; white-space: pre; opacity: 1;" transform="translate(0,255)">2</text></g><g class="ytick"><text text-anchor="end" x="73.4" y="9.799999999999999" style="font-family: 'Times New Roman', monospace; font-size: 28px; fill: rgb(0, 0, 0); fill-opacity: 1; white-space: pre; opacity: 1;" transform="translate(0,175)">2.2</text></g><g class="ytick"><text text-anchor="end" x="73.4" y="9.799999999999999" style="font-family: 'Times New Roman', monospace; font-size: 28px; fill: rgb(0, 0, 0); fill-opacity: 1; white-space: pre; opacity: 1;" transform="translate(0,95)">2.4</text></g><g class="ytick"><text text-anchor="end" x="73.4" y="9.799999999999999" style="font-family: 'Times New Roman', monospace; font-size: 28px; fill: rgb(0, 0, 0); fill-opacity: 1; white-space: pre; opacity: 0;" transform="translate(0,15)">2.6</text></g></g><g class="overaxes-above"/></g></g><g class="polarlayer"/><g class="smithlayer"/><g class="ternarylayer"/><g class="geolayer"/><g class="funnelarealayer"/><g class="pielayer"/><g class="iciclelayer"/><g class="treemaplayer"/><g class="sunburstlayer"/><g class="glimages"/><defs id="topdefs-32d06f"><g class="clips"/><clipPath id="legend32d06f"><rect width="224" height="168" x="0" y="0"/></clipPath></defs><g class="layer-above"><g class="imagelayer"/><g class="shapelayer"/></g><g class="infolayer"><g class="legend" pointer-events="all" transform="translate(86,19.000000000000004)"><rect class="bg" shape-rendering="crispEdges" width="224" height="168" x="0" y="0" style="stroke: rgb(68, 68, 68); stroke-opacity: 1; fill: rgb(255, 255, 255); fill-opacity: 1; stroke-width: 0px;"/><g class="scrollbox" transform="" clip-path="url(#legend32d06f)"><g class="groups"><g class="traces" transform="translate(0,24.7)" style="opacity: 1;"><text class="legendtext" text-anchor="start" x="40" y="10.92" style="font-family: 'Times New Roman', monospace; font-size: 28px; fill: rgb(0, 0, 0); fill-opacity: 1; white-space: pre;">IrO<tspan style="font-size:70%" dy="0.3em">x</tspan><tspan dy="-0.21em"></tspan></text><g class="layers" style="opacity: 1;"><g class="legendfill"/><g class="legendlines"><path class="js-line" d="M5,0h30" style="fill: none; stroke: rgb(46, 145, 229); stroke-opacity: 1; stroke-width: 3px;"/></g><g class="legendsymbols"><g class="legendpoints"/></g></g><rect class="legendtoggle" x="0" y="-19.7" width="218.703125" height="39.4" style="fill: rgb(0, 0, 0); fill-opacity: 0;"/></g><g class="traces" transform="translate(0,64.1)" style="opacity: 1;"><text class="legendtext" text-anchor="start" x="40" y="10.92" style="font-family: 'Times New Roman', monospace; font-size: 28px; fill: rgb(0, 0, 0); fill-opacity: 1; white-space: pre;">NiCoFeO<tspan style="font-size:70%" dy="0.3em">x</tspan><tspan dy="-0.21em"></tspan></text><g class="layers" style="opacity: 1;"><g class="legendfill"/><g class="legendlines"><path class="js-line" d="M5,0h30" style="fill: none; stroke: rgb(225, 95, 153); stroke-opacity: 1; stroke-width: 3px;"/></g><g class="legendsymbols"><g class="legendpoints"/></g></g><rect class="legendtoggle" x="0" y="-19.7" width="218.703125" height="39.4" style="fill: rgb(0, 0, 0); fill-opacity: 0;"/></g><g class="traces" transform="translate(0,103.5)" style="opacity: 1;"><text class="legendtext" text-anchor="start" x="40" y="10.92" style="font-family: 'Times New Roman', monospace; font-size: 28px; fill: rgb(0, 0, 0); fill-opacity: 1; white-space: pre;">Co<tspan style="font-size:70%" dy="0.3em">57</tspan><tspan dy="-0.21em"></tspan>Ni<tspan style="font-size:70%" dy="0.3em">14</tspan><tspan dy="-0.21em"></tspan>Fe<tspan style="font-size:70%" dy="0.3em">29</tspan><tspan dy="-0.21em"></tspan>N<tspan style="font-size:70%" dy="0.3em">x</tspan><tspan dy="-0.21em"></tspan></text><g class="layers" style="opacity: 1;"><g class="legendfill"/><g class="legendlines"><path class="js-line" d="M5,0h30" style="fill: none; stroke: rgb(28, 167, 28); stroke-opacity: 1; stroke-width: 3px;"/></g><g class="legendsymbols"><g class="legendpoints"/></g></g><rect class="legendtoggle" x="0" y="-19.7" width="218.703125" height="39.4" style="fill: rgb(0, 0, 0); fill-opacity: 0;"/></g><g class="traces" transform="translate(0,142.89999999999998)" style="opacity: 1;"><text class="legendtext" text-anchor="start" x="40" y="10.92" style="font-family: 'Times New Roman', monospace; font-size: 28px; fill: rgb(0, 0, 0); fill-opacity: 1; white-space: pre;">Co<tspan style="font-size:70%" dy="0.3em">45</tspan><tspan dy="-0.21em"></tspan>Ni<tspan style="font-size:70%" dy="0.3em">45</tspan><tspan dy="-0.21em"></tspan>Fe<tspan style="font-size:70%" dy="0.3em">10</tspan><tspan dy="-0.21em"></tspan>N<tspan style="font-size:70%" dy="0.3em">x</tspan><tspan dy="-0.21em"></tspan></text><g class="layers" style="opacity: 1;"><g class="legendfill"/><g class="legendlines"><path class="js-line" d="M5,0h30" style="fill: none; stroke: rgb(182, 129, 0); stroke-opacity: 1; stroke-width: 3px;"/></g><g class="legendsymbols"><g class="legendpoints"/></g></g><rect class="legendtoggle" x="0" y="-19.7" width="218.703125" height="39.4" style="fill: rgb(0, 0, 0); fill-opacity: 0;"/></g></g></g><rect class="scrollbar" rx="20" ry="3" width="0" height="0" x="0" y="0" style="fill: rgb(128, 139, 164); fill-opacity: 1;"/></g><g class="g-gtitle"/><g class="g-xtitle" transform="translate(0,-7.409375000000011)"><text class="xtitle" x="286" y="500.409375" text-anchor="middle" style="font-family: 'Times New Roman', monospace; font-size: 34px; fill: rgb(0, 0, 0); opacity: 1; font-weight: normal; white-space: pre;">Time (h)</text></g><g class="g-ytitle" transform="translate(30.4091796875,0)"><text class="ytitle" transform="rotate(-90,-0.40937499999999716,215)" x="-0.40937499999999716" y="215" text-anchor="middle" style="font-family: 'Times New Roman', monospace; font-size: 34px; fill: rgb(0, 0, 0); opacity: 1; font-weight: normal; white-space: pre;">Cell Potential (V)</text></g></g></svg>