<svg class="main-svg" xmlns="http://www.w3.org/2000/svg" xmlns:xlink="http://www.w3.org/1999/xlink" width="500" height="500" style="" viewBox="0 0 500 500"><rect x="0" y="0" width="500" height="500" style="fill: rgb(255, 255, 255); fill-opacity: 1;"/><defs id="defs-f96a13"><g class="clips"><clipPath id="clipf96a13xyplot" class="plotclip"><rect width="417" height="416"/></clipPath><clipPath class="axesclip" id="clipf96a13x"><rect x="72" y="0" width="417" height="500"/></clipPath><clipPath class="axesclip" id="clipf96a13y"><rect x="0" y="12" width="500" height="416"/></clipPath><clipPath class="axesclip" id="clipf96a13xy"><rect x="72" y="12" width="417" height="416"/></clipPath></g><g class="gradients"/><g class="patterns"/></defs><g class="bglayer"><rect class="bg" x="72" y="12" width="417" height="416" style="fill: rgb(0, 0, 0); fill-opacity: 0; stroke-width: 0;"/></g><g class="layer-below"><g class="imagelayer"/><g class="shapelayer"/></g><g class="cartesianlayer"><g class="subplot xy"><g class="layer-subplot"><g class="shapelayer"/><g class="imagelayer"/></g><g class="minor-gridlayer"><g class="x"/><g class="y"/></g><g class="gridlayer"><g class="x"/><g class="y"/></g><g class="zerolinelayer"/><path class="xlines-below"/><path class="ylines-below"/><g class="overlines-below"/><g class="xaxislayer-below"/><g class="yaxislayer-below"/><g class="overaxes-below"/><g class="plot" transform="translate(72,12)" clip-path="url(#clipf96a13xyplot)"><g class="scatterlayer mlayer"><g class="trace scatter trace411262" style="stroke-miterlimit: 2; opacity: 1;"><g class="fills"/><g class="errorbars"/><g class="lines"><path class="js-line" d="M0,239.15L0.63,209L0.77,210.04L0.78,210.05L1.79,207.83L1.8,207.82L2.3,208.34L2.31,208.49L3.15,207.55L3.19,207.6L3.2,207.63L3.37,208.54L3.9,207.67L3.91,207.69L4.12,207.51L4.37,208.64L4.68,207.64L4.69,207.62L5.56,207.7L5.62,207.57L5.63,207.54L6.93,207.75L6.94,207.77L7.85,208.03L7.96,207.91L7.97,207.87L8.49,209.07L8.67,208.08L8.68,208.06L9.01,207.87L9.06,208.9L9.42,208.08L9.43,207.95L10.1,208.5L10.28,207.84L10.29,207.83L11.5,207.86L11.51,207.97L11.65,207.79L11.78,208.82L12.25,207.9L12.26,207.88L13.2,208.62L13.53,207.95L13.54,207.93L13.67,210.16L13.68,211.21L13.74,219.31L14.23,207.81L14.4,207.81L14.41,207.8L16.45,208.25L16.46,208.42L16.49,208.87L16.7,207.86L17.18,207.87L17.19,207.88L17.49,207.79L17.59,208.71L17.94,207.84L17.95,207.83L20.13,207.43L20.14,207.63L20.15,207.89L20.18,208.11L20.62,207.34L20.9,207.44L20.91,207.45L23.49,207.2L23.5,207.58L23.51,207.78L24.32,207.14L24.36,207.2L24.37,207.31L24.72,207.18L24.99,207.74L25.11,207.35L25.12,207.42L25.72,207.53L25.75,207.8L25.76,208L26.64,207.42L26.65,207.44L27.34,208.41L27.46,207.48L27.47,207.45L27.61,208.14L27.66,207.36L28.1,207.29L28.11,207.3L29.03,207.37L29.05,207.85L29.05,208.01L29.08,208.16L29.65,207.22L29.66,207.21L30.19,207.59L30.45,207.22L30.46,207.16L31.99,207.14L32.01,207.53L32.02,207.7L32.04,207.92L32.72,207.07L32.73,207.07L32.74,207.19L32.78,207.79L33.37,206.9L33.48,207.08L33.49,207.1L33.79,207.67L34.26,207.04L34.27,207.04L34.82,207.54L34.83,207.64L35.56,206.88L35.65,206.94L35.66,206.95L36.77,207.21L36.81,206.95L36.82,206.87L36.91,206.84L36.96,207.55L37.58,206.92L37.59,206.94L38.83,207.05L38.85,207.38L38.86,207.56L39.06,207.59L39.43,206.92L39.66,207.06L39.67,207.09L40.81,206.95L40.83,207.33L40.84,207.51L41.23,206.89L41.34,207.7L41.64,207.14L41.65,207.16L41.83,207.1L42.39,207.34L42.42,207.21L42.43,207.2L43.01,206.95L43.08,207.49L43.09,207.67L43.13,207.97L43.43,206.93L43.75,207.07L43.76,207.02L45.2,206.92L45.22,207.03L45.23,207.15L45.3,205.07L45.9,206.77L45.91,206.79L46.53,206.75L46.56,207.22L46.56,207.46L46.62,206.8L47.33,206.97L47.34,206.96L48.33,207.46L48.36,207L48.37,206.9L48.49,207.71L49,206.91L49.01,206.9L49.07,207.47L49.22,206.86L49.77,207.08L49.78,207.04L51.03,206.72L51.04,206.74L51.05,206.76L52.2,206.89L52.24,206.78L52.25,206.76L52.32,207.59L52.99,206.87L53,206.89L53.31,207.39L54.02,206.71L54.03,206.72L54.04,206.92L54.1,206.68L54.28,207.3L54.78,206.83L54.79,206.81L55.73,207.01L55.74,207L57.34,206.76L57.37,207.17L57.38,207.35L57.63,207.64L57.92,206.81L58.06,206.87L58.07,206.87L59.45,206.91L59.48,207.02L59.49,207.16L59.75,207.58L60.2,206.81L60.28,207.12L60.29,207.22L61.07,206.82L61.08,206.83L62.33,206.64L62.34,206.78L62.35,206.97L62.51,207.37L63.14,206.66L63.16,206.67L63.17,206.71L63.28,206.95L63.91,206.55L63.92,206.49L64.97,206.62L64.98,206.58L66.5,206.6L66.51,206.59L67.1,206.65L67.13,207.08L67.14,207.17L67.17,207.32L67.22,206.56L67.85,206.97L67.86,206.91L68.58,206.56L68.71,206.79L68.72,206.9L68.84,207.33L69.38,206.64L69.56,206.72L69.57,206.73L71.96,206.78L71.97,207L71.98,207.17L72,207.41L72.55,206.62L72.71,206.96L72.72,206.85L73.25,206.62L73.51,206.7L73.52,206.68L74.34,206.69L74.35,206.65L75.45,206.67L75.46,206.64L75.47,206.58L75.52,207.15L76.21,206.68L76.22,206.7L77.14,206.64L77.16,207.06L77.17,207.09L77.65,206.65L77.98,206.73L77.99,206.73L79.33,206.87L79.35,206.72L79.36,206.62L80.02,207.29L80.19,206.85L80.2,206.76L80.32,207.31L80.37,206.6L80.76,206.59L80.76,206.55L81.46,206.92L81.54,206.72L81.55,206.71L82.31,206.46L82.46,206.58L82.47,206.61L82.75,207.09L83.22,206.49L83.23,206.47L83.93,206.75L83.99,206.6L84,206.59L84.31,207.08L84.93,206.36L85,206.68L85.01,206.77L85.73,206.36L85.83,206.44L85.84,206.45L92.08,206.52L92.09,206.46L93.04,207.27L93.11,206.83L93.12,206.8L94.07,206.68L94.1,206.93L94.1,206.98L94.24,207.2L94.72,206.58L94.86,206.9L94.87,206.87L95.77,206.61L95.8,206.66L95.81,206.85L96.39,206.49L96.59,207.18L96.6,207.18L97.37,206.56L97.38,206.58L98.17,206.98L98.19,206.89L98.2,206.81L98.96,206.58L98.97,206.63L98.98,206.81L99.02,207.19L99.24,206.57L99.73,206.8L99.74,206.85L100.66,206.59L100.67,206.61L100.68,206.7L102.08,206.61L102.09,206.76L102.49,206.89L102.68,206.55L102.84,206.7L102.85,206.87L103.38,206.47L103.6,206.87L103.61,206.93L104.34,206.45L104.37,206.85L104.38,206.91L104.6,206.46L105.14,206.61L105.15,206.6L106.41,206.71L106.42,206.66L108.34,206.59L108.35,206.7L108.36,206.82L108.51,206.55L108.87,206.94L109.12,206.59L109.13,206.62L111.9,206.62L111.91,206.97L111.92,207.37L111.94,207.82L112.24,206.51L112.65,206.59L112.66,206.71L112.98,206.5L113.08,207.09L113.38,206.51L113.39,206.49L114.2,206.58L114.21,206.55L114.51,206.95L114.94,206.54L114.95,206.48L115.86,206.8L115.92,206.67L115.93,206.67L121.74,206.87L121.75,206.96L122.2,207.11L122.5,206.53L122.56,206.59L122.57,206.59L126.91,206.92L126.91,207.52L126.99,216.69L127.36,206.61L127.59,206.65L127.6,206.62L128.57,206.34L128.61,206.41L128.62,206.42L129.84,206.2L129.85,206.34L129.86,206.4L129.98,206.7L130.56,206.18L130.6,206.45L130.61,206.56L131.43,206.18L131.48,206.24L131.49,206.26L131.91,206L132.15,206.61L132.27,206.29L132.28,206.3L133.42,206.32L133.43,206.36L134.35,206.2L134.36,206.21L134.37,206.27L141.64,206.58L141.64,206.55L142.58,206.91L142.66,206.68L142.67,206.66L142.83,206.46L143.44,206.71L143.48,206.62L143.49,206.58L147.35,206.57L147.36,206.74L147.37,206.83L148.02,206.5L148.13,206.63L148.14,206.57L150.11,206.95L150.12,206.99L150.26,207.06L150.93,206.71L150.94,206.73L150.95,206.76L152.23,206.71L152.26,206.97L152.27,207.04L153.1,206.63L153.11,206.63L154.46,206.6L154.47,206.59L155.09,206.95L155.26,206.83L155.27,206.69L156.7,206.67L156.71,206.73L157.7,206.56L157.76,206.69L157.77,206.69L158.37,206.96L158.52,206.65L158.53,206.66L159.89,206.83L159.9,206.77L159.91,206.76L162.95,206.88L162.96,206.83L162.97,206.83L164.52,206.86L164.57,207.05L164.58,207.07L165.36,206.67L165.41,206.74L165.42,206.82L166.26,206.73L166.28,206.75L166.29,206.75L167.58,206.76L167.59,206.79L167.6,206.86L168.34,206.67L168.51,206.82L168.52,206.82L194.68,207.32L194.69,207.37L194.8,207.43L195.27,207.09L195.48,207.3L195.49,207.33L196.29,207.32L196.31,207.19L196.32,207.14L197.02,207.36L197.19,207.18L197.2,207.16L197.34,207.13L197.89,207.35L197.96,207.33L197.97,207.18L207.86,207.22L207.87,207.18L208.88,207.35L208.89,207.3L208.9,207.26L210.24,207.63L210.26,207.42L210.27,207.4L218.81,207.52L218.82,207.57L219.73,207.38L219.76,207.46L219.76,207.58L220.44,207.33L220.56,207.37L220.57,207.4L222.38,207.24L222.4,207.31L222.41,207.33L223.18,207.4L223.22,207.49L223.23,207.49L225.82,207.82L225.83,207.78L227.73,207.85L227.76,207.7L227.77,207.68L228.58,207.77L228.6,207.74L228.61,207.65L229.44,207.51L229.48,207.54L229.49,207.59L235.95,207.81L235.96,207.84L237.3,207.96L237.32,207.93L237.33,207.85L241.02,208.11L241.03,208.41L241.12,218.34L241.62,207.92L241.64,207.97L241.65,207.93L270.42,208.3L270.43,208.31L271.84,208.32L271.85,208.35L271.86,208.39L273.71,208.38L273.72,208.42L273.73,208.46L274.72,208.44L274.73,208.45L274.74,208.5L275.84,208.37L275.85,208.38L275.86,208.42L277.05,208.34L277.08,208.45L277.09,208.49L277.86,208.27L277.87,208.38L277.88,208.38L281.76,208.49L281.77,208.43L282.98,208.53L282.99,208.48L283,208.45L284.49,208.61L284.5,208.56L285.59,208.6L285.61,208.53L285.62,208.51L288.7,208.39L288.7,208.42L288.71,208.44L289.71,208.33L289.72,208.39L290.85,208.27L290.87,208.38L290.88,208.42L296.29,208.46L296.3,208.42L306.81,208.45L306.82,208.5L307.77,208.56L307.79,208.61L307.8,208.64L311.11,208.6L311.12,208.55L312.22,208.73L312.26,208.68L312.27,208.63L313.69,208.76L313.7,208.7L314.88,208.82L314.89,208.85L316.69,208.85L316.7,208.91L318.04,208.76L318.05,208.83L318.06,208.91L318.84,208.7L318.85,208.74L318.86,208.75L322.29,208.76L322.3,208.79L328.72,208.54L328.73,208.59L328.92,208.39L329.46,208.66L329.48,208.59L329.49,208.6L330.62,208.64L330.63,208.71L330.64,208.76L331.64,208.8L331.67,208.86L331.68,208.9L332.61,208.82L332.64,208.93L332.65,208.98L342.78,208.99L342.79,208.94L343.78,209.08L343.82,209.01L343.83,208.95L345.24,209.15L345.28,209.05L345.29,209L346.21,209.03L346.22,209.01L346.23,208.98L347.63,209.39L347.72,209.27L347.73,209.25L348.61,209.54L348.73,209.45L348.74,209.43L351.57,209.5L351.58,209.44L352.79,209.5L352.8,209.42L354.57,209.66L354.58,209.24L354.59,208.72L354.63,206.78L354.79,209.54L355.34,209.44L355.35,209.47L361.37,209.73L361.38,209.65L361.39,209.61L362.63,209.75L362.66,209.69L362.67,209.65L363.98,209.82L363.99,209.78L364,209.78L365.68,209.9L365.7,209.84L365.71,209.84L376.32,209.9L376.33,209.9L402.53,210.46L402.54,210.53L403.74,210.46L403.75,210.51L403.76,210.56L407.13,210.58L407.13,210.6L408.32,210.58L408.33,210.61L408.34,210.66L409.3,210.54L409.32,210.74L409.33,210.91L410.14,210.6L410.21,210.68L410.22,210.7L411.28,210.5L411.31,210.62L411.32,210.66L412.32,210.45L412.35,210.55L412.36,210.59L413.52,210.54L413.53,210.47L414.46,210.66L414.5,210.62L414.51,210.59L415.73,210.45L415.74,210.5L417.14,210.51L417.14,210.43L418.07,210.5L418.08,210.41L420.72,210.49L420.73,210.43L423.05,210.79L423.06,210.89L423.15,220.3L423.78,210.76L423.84,210.88L423.85,210.82L428.13,210.71L428.14,210.77L428.15,210.8L616.94,214.53L616.95,215.19L617.02,223.57L619.95,213.11L621.34,213.21L621.35,213.24L643.43,213.19L643.47,211.51L643.48,211.14L643.52,209.46L648.05,213.68L648.33,213.65L648.34,213.62L661.65,213.63" style="vector-effect: non-scaling-stroke; fill: none; stroke: rgb(46, 145, 229); stroke-opacity: 1; stroke-width: 2px; opacity: 1;"/></g><g class="points"/><g class="text"/></g><g class="trace scatter trace0d1114" style="stroke-miterlimit: 2; opacity: 1;"><g class="fills"/><g class="errorbars"/><g class="lines"><path class="js-line" d="M0,422.51L0.19,209.71L0.75,209.85L0.76,209.84L1.28,210.68L1.55,210.27L1.56,210.22L1.87,210.18L2.04,210.76L2.31,210.49L2.32,210.35L2.37,210.3L3.03,211.12L3.07,210.84L3.08,210.73L3.44,210.39L3.75,211.22L3.81,210.87L3.82,210.92L4.01,225.33L4.56,211.6L4.57,211.64L4.89,211.89L5.07,211.36L5.32,211.69L5.33,211.71L5.45,212.04L5.59,211.42L6.08,211.9L6.09,211.85L6.14,211.56L6.65,212.21L6.82,211.91L6.83,211.99L7.47,211.75L7.55,212.42L7.58,212.24L7.59,212.23L7.73,211.9L8.03,212.59L8.34,212.48L8.35,212.43L8.47,212.03L8.8,212.69L9.1,212.37L9.11,212.42L9.17,212.14L9.6,213.06L9.84,212.74L9.85,212.73L9.96,212.49L10.42,213.19L10.6,212.73L10.61,212.7L11.51,213.19L11.54,212.96L11.54,212.93L12.12,213.36L12.26,212.74L12.29,212.96L12.3,212.93L12.61,212.88L12.82,213.43L13.05,213.21L13.06,213.17L13.18,212.97L13.6,213.64L13.82,213.08L13.82,213.04L13.83,213.03L14.24,213.7L14.57,213.28L14.58,213.23L14.75,213.12L15.01,213.89L15.35,213.54L15.35,213.5L15.7,213.17L16.1,213.92L16.11,213.69L16.11,213.59L16.58,214.07L16.76,213.37L16.82,213.61L16.82,213.75L17.12,213.15L17.54,213.96L17.57,213.86L17.58,213.78L17.71,213.59L18.17,214.38L18.38,213.92L18.39,213.88L18.47,213.77L19.06,214.32L19.14,214.09L19.15,214.05L19.21,213.76L19.78,214.61L19.9,214.21L19.91,214.2L20.15,214.01L20.52,214.56L20.65,214.37L20.65,214.44L20.74,214.6L21.17,214.12L21.38,214.54L21.39,214.6L21.57,214.1L21.93,214.81L22.14,214.49L22.15,214.46L22.59,214.15L22.68,214.75L22.88,214.54L22.88,214.65L22.94,214.32L23.47,215L23.62,214.69L23.63,214.63L23.98,214.33L24.21,215.06L24.38,214.9L24.39,214.93L24.64,214.5L24.75,215.13L25.13,214.77L25.13,214.72L25.28,214.45L25.83,215.13L25.89,215.07L25.89,215.01L25.99,214.45L26.63,215.12L26.64,215.01L26.65,215.07L26.82,215.48L27.29,214.93L27.36,215.32L27.36,215.38L27.39,214.95L27.57,215.49L28.11,215.26L28.12,215.34L28.38,215.01L28.85,215.61L28.87,215.37L28.88,215.38L28.98,215.09L29.53,215.73L29.64,215.44L29.65,215.38L29.67,215.23L30.19,215.93L30.41,215.54L30.41,215.5L30.74,215.3L30.89,215.88L31.15,215.59L31.15,215.69L31.63,215.87L31.86,215.31L31.9,215.72L31.9,215.77L32.12,215.25L32.6,215.99L32.63,215.79L32.64,215.89L32.93,215.95L33.05,215.41L33.39,215.87L33.4,215.84L33.47,215.47L33.88,216.15L34.15,215.96L34.16,215.97L34.43,215.49L34.77,216.25L34.9,215.98L34.91,216.04L35.01,216.32L35.38,215.37L35.62,215.83L35.62,215.78L35.68,216.18L35.86,215.65L36.38,216L36.39,215.94L36.43,215.85L36.84,216.46L37.15,216.1L37.15,216.05L37.29,215.93L37.88,216.45L37.9,216.12L37.91,216.11L38.22,216.61L38.36,215.98L38.66,216.33L38.67,216.27L38.73,216.57L39.23,215.98L39.42,216.18L39.43,216.16L39.55,215.98L39.92,216.61L40.16,216.35L40.17,216.37L40.3,216.74L40.82,216.22L40.9,216.49L40.9,216.55L41.17,216.23L41.27,216.89L41.65,216.59L41.65,216.66L41.95,216.96L42.38,216.19L42.41,216.35L42.41,216.43L42.48,216.21L42.81,217L43.16,216.81L43.17,216.77L43.3,216.47L43.92,217.08L43.92,217.04L43.93,216.97L44.05,217.19L44.2,216.44L44.66,216.81L44.66,216.75L44.73,217.3L44.85,216.61L45.41,216.79L45.41,216.72L45.88,216.71L45.98,217.26L46.16,217.11L46.17,217.21L46.47,216.81L46.77,217.52L46.92,217.01L46.93,216.93L46.96,216.82L47.12,217.43L47.68,217.15L47.69,217.16L47.92,217.6L48.39,216.88L48.44,217.1L48.45,217.04L48.65,217.62L49.21,217.21L49.21,217.19L49.35,216.98L49.83,217.59L49.96,217.36L49.97,217.31L50.49,217.87L50.61,217.06L50.72,217.54L50.73,217.51L50.82,217.83L50.94,217.21L51.45,217.68L51.46,217.72L51.52,217.91L52.16,217.14L52.21,217.42L52.22,217.42L52.3,217.31L52.5,218.04L52.98,217.65L52.98,217.62L53.01,217.33L53.22,218.19L53.69,217.75L53.69,217.88L53.85,218.14L54.07,217.4L54.44,217.87L54.45,217.82L54.58,218.11L54.92,217.59L55.19,217.91L55.2,217.96L55.3,217.57L55.38,218.27L55.95,217.98L55.96,218L56.41,218.32L56.63,217.68L56.71,217.81L56.72,217.79L56.8,218.32L56.93,217.66L57.47,217.85L57.48,217.89L57.66,217.7L57.76,218.3L58.23,217.92L58.24,217.91L58.34,218.38L58.88,217.67L58.99,218.15L59,218.09L59.13,217.87L59.7,218.55L59.77,218.22L59.77,218.21L59.99,217.86L60.53,218.65L60.53,218.43L60.54,218.38L60.82,218.9L61.03,218.18L61.29,218.33L61.3,218.45L61.45,218.81L61.83,218.3L62.05,218.48L62.06,218.46L62.23,218.17L62.77,219L62.79,218.74L62.8,218.77L62.97,218.26L63.29,218.97L63.55,218.58L63.56,218.65L63.83,219.11L64.31,218.29L64.31,218.35L64.32,218.31L65.03,219.15L65.07,218.92L65.08,218.89L65.43,218.5L65.58,219.17L65.82,218.98L65.82,219.13L65.86,219.22L66.28,218.55L66.57,218.83L66.58,218.88L66.58,218.83L67.23,230.5L67.33,220.68L67.34,220.67L68,219.03L68.09,219.25L68.1,219.32L68.13,219.7L68.8,219.03L68.85,219.33L68.86,219.36L68.95,219.04L69.57,219.76L69.62,219.6L69.63,219.56L69.7,219.18L69.8,219.92L70.36,219.63L70.36,219.69L70.39,219.16L70.97,220.04L71.11,219.68L71.12,219.7L71.35,219.38L71.64,220.02L71.87,219.62L71.87,219.66L71.99,219.96L72.41,219.4L72.61,219.67L72.61,219.73L72.9,219.47L73.3,220.04L73.32,220.03L73.33,220.01L73.48,220.29L73.72,219.54L74.08,219.72L74.09,219.71L74.17,219.45L74.58,220.14L74.84,219.84L74.85,219.96L75.17,220.4L75.55,219.68L75.6,219.88L75.61,219.97L75.7,220.3L75.96,219.7L76.34,220.04L76.34,220.28L76.54,220.66L76.99,219.76L77.1,220.07L77.1,220.18L77.31,219.87L77.53,220.57L77.85,220.33L77.86,220.27L78.18,219.95L78.43,220.71L78.6,220.24L78.6,220.36L79.05,219.96L79.2,220.66L79.35,220.33L79.36,220.35L79.67,220.77L79.85,220.13L80.11,220.41L80.12,220.35L80.22,220.86L80.53,220.09L80.88,220.49L80.88,220.48L81.48,220.32L81.51,220.95L81.53,220.88L81.53,220.96L81.75,221.04L82.11,220.24L82.28,220.72L82.29,220.71L82.52,220.47L82.73,221.04L83.03,220.78L83.03,220.84L83.24,220.31L83.74,221.23L83.77,220.92L83.77,221.08L83.82,221.17L84.5,220.47L84.52,220.69L84.53,220.68L84.56,221.02L84.71,220.44L85.28,220.76L85.29,220.69L85.49,221.15L85.78,220.43L86.04,220.86L86.05,220.84L86.07,221.18L86.3,220.48L86.8,220.92L86.81,220.85L86.94,220.56L87.28,221.26L87.56,220.97L87.57,220.98L87.91,221.29L88.29,220.48L88.32,220.86L88.33,220.88L88.46,221.22L88.77,220.55L89.08,220.84L89.08,220.93L89.19,220.55L89.61,221.39L89.83,220.95L89.83,221.01L90.41,220.48L90.53,221.13L90.55,220.76L90.55,220.72L90.62,220.62L90.96,221.25L91.3,220.98L91.31,220.95L91.31,220.76L91.85,221.55L92.06,221.33L92.07,221.39L92.55,220.86L92.73,221.6L92.81,221.28L92.81,221.26L93.14,221.61L93.43,220.71L93.56,221.31L93.57,221.3L93.7,221.01L94.26,221.76L94.34,221.44L94.34,221.41L94.46,221.07L94.57,221.67L95.07,221.56L95.07,221.67L95.31,221.06L95.59,221.81L95.83,221.3L95.83,221.4L95.88,221.01L96.01,221.7L96.56,221.52L96.57,221.65L96.63,221.78L96.93,221.09L97.32,221.66L97.32,221.68L97.37,221.97L97.79,221.29L98.06,221.77L98.06,221.82L98.12,221.98L98.3,221.21L98.81,221.65L98.82,221.65L98.89,221.96L99.42,221.3L99.57,221.67L99.57,221.71L99.69,221.99L100.22,221.14L100.35,221.62L100.35,221.63L100.88,221.96L101.09,221.12L101.1,221.18L101.11,221.22L101.2,221.12L101.59,221.95L101.86,221.63L101.87,221.61L101.93,221.36L102.03,221.99L102.62,221.63L102.63,221.58L102.74,222.09L102.95,221.43L103.38,221.8L103.39,221.81L103.46,222.07L103.91,221.28L104.14,221.77L104.14,221.86L104.34,221.29L104.7,222.06L104.89,221.8L104.89,221.86L105.18,221.33L105.4,222L105.64,221.79L105.64,221.88L105.75,221.37L106.33,222.09L106.39,221.65L106.4,221.68L106.44,222.13L107.05,221.43L107.15,221.7L107.16,221.7L107.38,221.42L107.63,222.33L107.91,221.73L107.92,221.71L108.41,222.15L108.48,221.58L108.66,221.63L108.66,221.55L109.31,222.5L109.42,221.96L109.42,221.87L109.61,221.7L109.78,222.36L110.16,221.9L110.17,221.88L110.24,221.78L110.51,222.44L110.95,221.91L110.95,221.86L111.27,221.8L111.66,222.68L111.72,222.36L111.73,222.34L111.73,222.57L112.2,221.89L112.48,221.91L112.49,221.89L113.15,221.83L113.24,222.44L113.24,222.24L113.25,222.19L113.26,221.95L113.4,222.45L114,222.09L114,222.17L114.38,221.85L114.68,222.49L114.75,222.11L114.75,222.22L114.84,222.54L115.02,221.86L115.5,222.28L115.51,222.31L115.67,222.52L115.77,222.02L116.25,222.31L116.26,222.35L116.33,222.02L116.69,222.67L117.01,222.47L117.02,222.57L117.4,222.73L117.76,222.01L117.77,222.04L117.78,222.03L117.96,222.52L118.07,221.96L118.53,222.17L118.54,222.16L118.56,222.08L119.32,222.63L119.32,222.42L119.32,222.35L119.5,222.79L119.61,221.98L120.07,222.46L120.07,222.38L120.25,222.75L120.39,222.1L120.82,222.39L120.82,222.34L120.83,222.14L121.42,222.87L121.56,222.48L121.56,222.49L121.75,223.03L121.94,222.41L122.33,222.89L122.33,222.8L122.52,223.04L122.84,222.38L123.07,222.6L123.08,222.5L123.33,222.3L123.82,223.04L123.83,222.86L123.84,222.82L124.02,223.04L124.59,222.38L124.59,222.74L124.6,222.74L124.69,223.05L125.18,222.41L125.35,222.84L125.36,222.86L125.46,222.45L126.08,223.1L126.11,222.99L126.12,223.01L126.73,222.48L126.81,223.13L126.87,222.88L126.88,222.92L127.06,223.06L127.55,222.48L127.65,222.75L127.65,222.79L127.89,222.41L128.39,223.17L128.43,222.9L128.43,222.79L128.64,223.23L129.06,222.55L129.18,222.81L129.19,222.83L129.5,223.2L129.86,222.52L129.94,222.88L129.95,222.88L130.21,222.51L130.67,223.22L130.68,223.06L130.69,223.1L131.05,223.33L131.32,222.59L131.44,222.97L131.45,222.97L131.86,223.23L132.11,222.6L132.2,222.95L132.21,222.95L132.4,223.3L132.95,222.58L132.96,222.79L132.97,222.76L133.04,222.65L133.6,223.27L133.78,223.08L133.78,223.02L134.06,222.82L134.26,223.35L134.51,222.84L134.52,222.83L135.06,223.29L135.16,222.73L135.27,222.99L135.28,223.04L135.28,223.35L135.72,222.57L136.03,222.86L136.04,222.84L136.39,223.23L136.78,222.58L136.79,222.87L136.8,222.78L136.84,222.52L137.31,223.44L137.55,222.94L137.56,222.93L138.17,223.45L138.29,222.64L138.31,222.76L138.31,222.82L138.51,222.63L138.89,223.2L139.04,222.95L139.05,223.07L139.21,223.27L139.8,222.59L139.8,222.59L139.81,222.65L140.31,223.16L140.45,222.6L140.56,222.81L140.57,222.84L140.97,223.28L141.13,222.66L141.32,222.95L141.33,222.92L141.68,223.3L141.95,222.71L142.08,223.12L142.09,223.09L142.41,222.64L142.78,223.18L142.82,222.89L142.82,222.83L142.93,222.6L143.38,223.23L143.57,223L143.58,223L143.86,223.17L143.97,222.58L144.33,222.89L144.34,222.89L144.71,223.19L144.96,222.57L145.07,223.04L145.07,223.1L145.22,223.38L145.83,222.57L145.85,222.87L145.85,222.9L146.28,223.29L146.47,222.65L146.6,222.9L146.61,222.89L146.75,222.84L147.37,223.32L147.4,223.17L147.4,223.08L147.62,223.33L147.76,222.75L148.14,222.84L148.14,222.77L148.43,223.37L148.81,222.75L148.89,223.03L148.9,223.23L149.01,223.32L149.12,222.72L149.65,222.93L149.66,223.11L149.87,222.59L150.26,223.33L150.41,223.15L150.42,223.14L150.72,222.7L150.99,223.46L151.17,223.08L151.18,223.08L151.22,223.31L151.76,222.79L151.92,223.18L151.92,223.24L152.12,222.86L152.41,223.6L152.67,223.25L152.67,223.16L153.32,223.91L153.42,223.71L153.43,223.63L153.61,223.36L153.72,223.84L154.16,223.48L154.16,223.42L154.23,223.38L154.93,224.11L154.93,224.01L154.94,223.97L155.07,224.18L155.42,223.58L155.69,223.84L155.7,223.79L155.86,223.56L156.44,224.19L156.45,224.14L156.46,224.08L156.52,224.19L156.7,223.5L157.21,224.06L157.22,224L157.37,223.59L157.72,224.36L157.97,224.1L157.98,224.13L158.05,223.57L158.59,224.18L158.73,223.84L158.74,223.87L158.82,223.71L159.5,224.21L159.5,223.94L159.51,223.84L159.88,223.78L160.14,224.31L160.26,224.08L160.27,224.02L160.45,224.38L160.89,223.78L161.02,224.15L161.03,224.11L161.05,224.28L161.75,223.64L161.76,223.81L161.77,223.82L162.03,223.7L162.48,224.39L162.54,224.03L162.54,223.94L162.98,223.74L163.17,224.35L163.29,224.05L163.3,224.01L163.46,223.79L163.73,224.5L164.03,224.16L164.04,224.2L164.22,224.37L164.32,223.76L164.79,224.22L164.79,224.29L164.97,224.49L165.24,223.81L165.54,224.23L165.54,224.27L165.81,223.8L165.99,224.37L166.29,223.97L166.3,223.99L166.45,224.43L166.57,223.7L167.05,223.97L167.06,223.99L167.1,223.84L167.74,224.31L167.82,224.13L167.83,224.09L168.29,224.36L168.43,223.61L168.58,224.19L168.59,224.12L168.79,223.83L168.96,224.42L169.34,224.41L169.35,224.46L169.63,223.97L169.76,224.54L170.1,224.28L170.11,224.28L170.46,223.92L170.72,224.54L170.86,224.23L170.87,224.25L171.01,224.51L171.41,223.9L171.63,224.26L171.63,224.33L171.64,224.49L172.25,223.74L172.38,224L172.39,223.98L172.92,223.79L173.04,224.4L173.14,223.98L173.15,224.02L173.35,223.91L173.58,224.48L173.9,224.2L173.91,224.19L174.03,223.99L174.57,224.53L174.67,224.34L174.68,224.3L174.71,224.1L175.18,224.65L175.43,224.23L175.44,224.26L175.58,224.11L176.07,224.72L176.2,224.37L176.21,224.35L176.7,224.25L176.96,224.82L176.96,224.72L176.97,224.62L177.08,224.8L177.71,224.33L177.73,224.57L177.73,224.61L177.87,224.83L178.12,224.2L178.48,224.54L178.48,224.56L178.54,224.2L179.13,224.85L179.22,224.51L179.23,224.42L179.23,224.87L179.4,224.21L179.98,224.36L179.99,224.32L180.15,224.2L180.64,224.77L180.74,224.62L180.75,224.54L180.91,224.14L181.37,224.84L181.5,224.54L181.5,224.6L182.05,224.99L182.09,224.31L182.25,224.62L182.25,224.68L182.31,224.33L182.89,224.92L182.98,224.83L182.98,224.91L183.09,224.45L183.22,234.38L183.73,225.1L183.74,225.01L183.91,225.41L184.05,224.7L184.48,224.97L184.49,224.9L184.54,224.82L185.23,225.33L185.24,225.15L185.25,225.12L185.33,224.77L185.5,225.36L186,225.01L186.01,224.97L186.24,225.28L186.53,224.55L186.76,225.01L186.77,225.05L186.79,224.67L187.5,225.27L187.52,225.18L187.53,225.22L187.97,224.55L188.22,225.26L188.28,224.97L188.29,225L188.55,224.66L188.77,225.2L189.03,224.82L189.03,224.79L189.18,224.63L189.36,225.41L189.78,225.22L189.79,225.23L190.07,225.42L190.3,224.85L190.54,225.17L190.55,225.23L191.01,224.91L191.21,225.5L191.3,225.1L191.31,225.08L191.34,225.02L191.69,225.53L192.07,225.41L192.08,225.4L192.1,225.63L192.73,224.86L192.83,225.14L192.84,225.09L193.16,225.5L193.35,224.88L193.59,225.36L193.6,225.3L193.71,224.96L194.19,225.66L194.33,225.16L194.33,225.12L194.38,224.96L195.07,225.75L195.09,225.36L195.1,225.4L195.18,225.71L195.66,225.07L195.85,225.36L195.86,225.32L196.39,225.12L196.51,225.67L196.61,225.3L196.62,225.27L196.95,225.68L197.23,225L197.37,225.31L197.38,225.25L197.76,225.71L197.94,225.17L198.13,225.47L198.14,225.45L198.33,225.21L198.54,225.84L198.89,225.52L198.9,225.53L199.02,225.35L199.67,225.89L199.72,225.49L199.72,225.46L199.8,225L200.37,225.75L200.47,225.56L200.48,225.53L200.48,225.26L200.7,225.89L201.23,225.79L201.24,225.84L201.79,225.36L201.97,225.98L201.99,225.72L202,225.76L202.14,225.33L202.66,226.01L202.75,225.65L202.76,225.64L203.32,226.07L203.47,225.4L203.51,225.7L203.51,225.63L203.71,225.39L203.89,225.91L204.26,225.63L204.26,225.59L204.33,225.39L204.59,226.03L205.01,225.6L205.01,225.56L205.25,225.33L205.42,225.96L205.76,225.8L205.77,225.82L205.78,225.48L206.2,226.07L206.52,225.84L206.53,225.83L206.67,225.55L206.88,226.11L207.28,225.91L207.29,225.94L207.84,226.13L208.03,225.43L208.06,225.82L208.07,225.82L208.45,226.16L208.67,225.52L208.82,225.88L208.83,225.82L209.32,225.49L209.58,226.03L209.59,226.04L209.65,225.55L210.11,226.08L210.34,225.83L210.35,225.85L210.75,225.46L210.95,226.24L211.1,225.8L211.11,225.79L211.2,226.09L211.45,225.47L211.85,225.73L211.86,225.76L212.33,225.51L212.47,226.05L212.6,225.72L212.6,225.64L212.61,225.53L212.73,226.08L213.35,225.9L213.36,225.88L213.9,226.17L213.96,225.5L214.11,225.76L214.12,225.79L214.7,226.04L214.76,225.44L214.85,225.63L214.86,225.62L214.9,226.02L215.39,225.37L215.61,225.74L215.62,225.7L215.72,225.49L215.78,226.1L216.37,225.89L216.38,225.84L216.5,225.52L216.84,226.13L217.14,226L217.14,225.96L217.26,225.54L217.37,226.11L217.89,226.07L217.9,226.05L218.11,226.27L218.48,225.62L218.65,226.14L218.66,226.25L218.79,225.78L219.31,226.4L219.41,226.11L219.42,226.04L219.69,226.35L219.75,222.65L219.76,222.64L220.03,226.36L220.51,226.04L220.52,226L220.79,226.33L221.03,225.78L221.26,226.02L221.27,225.98L221.35,225.84L221.9,226.46L222.05,226.21L222.05,226.16L222.14,226.42L222.38,225.83L222.76,225.91L222.76,225.86L222.91,225.77L223.11,226.35L223.52,226L223.53,226.01L223.66,225.74L224.25,226.35L224.27,226.1L224.28,226.07L224.53,225.9L224.99,226.56L225.03,226.17L225.04,226.17L225.3,226.48L225.68,225.95L225.79,226.33L225.8,226.34L226,225.79L226.34,226.54L226.56,226.28L226.57,226.24L226.75,226.48L227.17,225.91L227.32,226.25L227.33,226.3L227.55,226.58L227.84,225.97L228.08,226.51L228.09,226.49L228.25,226.61L228.57,225.97L228.84,226.17L228.85,226.26L229,226.53L229.52,225.92L229.6,226.27L229.6,226.33L230.1,226.03L230.18,226.54L230.35,226.28L230.36,226.31L230.77,225.91L231.08,226.56L231.11,226.3L231.11,226.24L231.19,226.04L231.48,226.56L231.84,226.17L231.85,226.12L231.89,225.91L232.61,226.5L232.64,226.31L232.64,226.27L232.72,226.04L233.36,226.6L233.39,226.4L233.4,226.39L233.55,226.55L233.66,226.11L234.15,226.35L234.15,226.44L234.72,225.91L234.86,226.61L234.89,226.61L234.89,226.63L235.12,226.1L235.34,226.71L235.64,226.29L235.65,226.35L236.12,226.7L236.31,226.11L236.4,226.44L236.41,226.55L236.74,226.06L236.98,226.74L237.16,226.52L237.17,226.57L237.21,226.73L237.6,226.14L237.94,226.47L237.95,226.51L238.08,226.22L238.36,226.82L238.7,226.46L238.71,226.44L239.05,226.23L239.26,226.77L239.46,226.44L239.46,226.38L239.78,226.33L240.15,226.85L240.22,226.72L240.22,226.65L240.47,226.81L240.73,226.31L240.96,226.64L240.97,226.69L241.09,226.88L241.32,226.26L241.72,226.63L241.73,226.59L241.79,226.27L242.34,226.89L242.48,226.52L242.49,226.53L242.94,226.89L243.23,226.37L243.24,226.42L243.25,226.48L243.25,226.4L243.44,226.91L244,226.51L244.01,226.48L244.35,226.37L244.6,226.88L244.76,226.49L244.77,226.47L244.96,226.93L245.21,226.32L245.52,226.64L245.53,226.64L245.72,227.04L245.97,226.4L246.28,226.6L246.28,226.67L246.44,226.27L246.78,226.97L247.03,226.7L247.03,226.72L247.15,226.9L247.72,226.29L247.8,226.66L247.81,226.71L248.01,226.98L248.52,226.4L248.56,226.67L248.57,226.7L249,226.35L249.11,226.99L249.32,226.77L249.33,226.82L249.41,226.95L249.56,226.46L250.08,226.57L250.09,226.56L250.27,226.42L250.72,227.05L250.84,226.63L250.85,226.67L250.87,227.01L251.43,226.41L251.59,226.65L251.59,226.58L251.63,226.44L252,227.09L252.34,226.75L252.35,226.7L252.45,226.34L252.88,227L253.1,226.69L253.11,226.73L253.39,226.34L253.82,227.05L253.86,226.85L253.87,226.81L254.06,227.17L254.2,226.54L254.62,226.79L254.63,226.78L254.89,227.16L255.22,226.61L255.38,226.77L255.39,226.77L255.45,226.48L256.01,227.12L256.14,226.88L256.15,226.8L256.23,227.21L256.84,226.46L256.9,226.68L256.91,226.66L257.06,226.5L257.44,227.08L257.64,226.94L257.64,227.02L257.72,226.61L258.31,227.26L258.39,226.79L258.4,226.87L258.42,226.7L258.72,227.23L259.15,226.97L259.16,226.97L259.22,226.76L259.6,227.31L259.92,226.98L259.92,226.94L260.03,227.13L260.53,226.62L260.65,227.16L260.66,227.17L260.84,226.63L260.9,227.19L261.41,226.91L261.42,226.95L261.5,226.61L261.62,227.22L262.17,226.96L262.17,226.92L262.37,226.56L262.51,227.23L262.92,226.85L262.93,226.85L262.98,227.15L263.34,226.59L263.68,226.88L263.69,226.89L264.01,227.22L264.27,226.62L264.42,227L264.42,227.13L264.48,227.15L264.7,226.61L265.17,227.04L265.17,227.07L265.31,227.18L265.85,226.54L265.93,226.83L265.93,226.87L266.32,227.27L266.61,226.74L266.65,227.05L266.65,227.08L266.85,226.62L267.3,227.26L267.39,227.09L267.4,227.09L267.52,227.36L267.98,226.74L268.15,227.1L268.15,227.13L268.19,227.32L268.67,226.76L268.9,227.13L268.9,227.19L269.11,226.78L269.55,227.27L269.65,226.95L269.66,226.98L270.18,227.35L270.39,226.73L270.41,226.86L270.42,226.84L270.77,226.75L271.1,227.31L271.17,227.07L271.18,227L271.46,226.78L271.91,227.3L271.92,226.95L271.93,226.94L272,227.3L272.46,226.77L272.68,227.17L272.69,227.16L272.9,227.34L273.42,226.75L273.44,227.04L273.45,226.99L273.47,227.32L273.62,226.73L274.19,226.98L274.2,226.93L274.32,226.79L274.72,227.29L274.96,227.01L274.96,226.94L275.34,227.31L275.68,226.66L275.71,226.92L275.72,226.94L276.1,227.21L276.21,226.71L276.47,226.92L276.47,226.97L276.5,227.14L277.22,226.61L277.23,226.98L277.24,226.96L277.44,226.66L277.94,227.27L277.99,227.08L278,227.1L278.39,226.75L278.44,227.36L278.75,226.94L278.76,226.93L278.86,227.22L279.51,226.57L279.52,226.83L279.52,226.96L279.77,226.52L280.06,227.14L280.27,226.84L280.28,226.82L280.47,226.57L280.93,227.21L281.03,226.78L281.04,226.81L281.45,226.58L281.56,227.18L281.78,226.84L281.79,226.85L281.82,226.72L282.13,227.25L282.54,226.87L282.55,226.95L282.82,227.2L283.11,226.56L283.3,226.94L283.3,227L283.43,227.13L283.76,226.47L284.06,226.72L284.06,226.82L284.38,227.17L284.48,226.46L284.8,226.88L284.81,226.9L285.18,227.16L285.54,226.67L285.56,226.73L285.57,226.82L285.7,226.58L285.96,227.3L286.32,226.88L286.33,226.87L286.37,227.3L286.67,226.6L287.08,226.84L287.09,226.85L287.2,226.71L287.72,227.35L287.86,226.99L287.86,226.95L288.02,226.85L288.23,227.47L288.62,227.24L288.63,227.24L288.72,226.93L289.35,227.6L289.36,227.4L289.37,227.44L289.54,227.1L290.07,227.63L290.12,227.37L290.13,227.45L290.33,227.1L290.48,227.65L290.88,227.22L290.89,227.34L291.2,227.69L291.35,227.04L291.64,227.29L291.65,227.33L291.81,227.59L292.35,227.04L292.38,227.4L292.38,227.44L292.58,227.11L293.13,227.74L293.14,227.54L293.14,227.49L293.87,226.89L293.99,227.26L293.99,227.32L294.5,226.98L294.63,227.54L294.74,227.18L294.75,227.19L294.81,227.04L295.03,227.68L295.5,227.24L295.5,227.18L295.54,226.95L295.99,227.54L296.25,227.26L296.25,227.25L296.78,226.93L296.88,227.59L297,227.35L297.01,227.41L297.06,227.59L297.24,227.02L297.76,227.12L297.77,227.15L298.25,227.52L298.43,226.89L298.52,227.32L298.53,227.31L298.63,227.53L298.91,226.81L299.28,227.01L299.29,227.01L299.82,226.9L300.03,227.43L300.04,227.12L300.05,227.1L300.44,226.91L300.56,227.56L300.8,227.37L300.81,227.35L301.35,227.62L301.56,227.07L301.56,227.39L301.57,227.42L301.74,227.17L301.96,227.72L302.32,227.65L302.33,227.69L302.34,227.82L302.85,227.13L303.08,227.43L303.09,227.44L303.25,227.17L303.7,227.81L303.84,227.48L303.84,227.41L304.27,227.22L304.37,227.77L304.59,227.54L304.59,227.47L304.73,227.72L305.24,227.24L305.34,227.47L305.34,227.49L305.47,227.84L305.98,227.28L306.09,227.53L306.09,227.58L306.3,227.18L306.51,227.75L306.84,227.57L306.84,227.68L306.86,227.27L307.06,227.87L307.59,227.54L307.59,227.62L307.65,227.29L307.94,227.9L308.34,227.54L308.35,227.55L308.57,227.84L308.85,227.28L309.1,227.61L309.11,227.56L309.15,227.81L309.52,227.34L309.86,227.55L309.87,227.65L310.02,227.93L310.46,227.34L310.62,227.62L310.63,227.59L310.76,227.86L310.95,227.25L311.38,227.77L311.39,227.78L311.77,227.91L312.06,227.35L312.14,227.76L312.15,227.8L312.43,227.94L312.7,227.25L312.87,227.58L312.87,227.47L313.11,227.29L313.24,227.83L313.62,227.6L313.62,227.57L313.77,227.35L313.89,227.95L314.37,227.63L314.37,227.61L314.66,227.42L314.78,227.96L315.12,227.6L315.13,227.72L315.54,227.45L315.74,228.03L315.88,227.86L315.89,227.86L315.9,228.02L316.12,227.45L316.62,227.61L316.63,227.55L316.82,227.97L317.36,227.34L317.38,227.57L317.39,227.49L317.42,227.41L318.1,227.87L318.14,227.48L318.14,227.44L318.63,227.37L318.83,227.99L318.89,227.77L318.9,227.71L319.07,227.36L319.57,227.94L319.65,227.66L319.66,227.63L319.94,227.27L320.19,227.82L320.41,227.7L320.42,227.74L320.46,227.93L320.87,227.39L321.17,227.5L321.18,227.61L321.53,227.36L321.91,227.92L321.94,227.69L321.94,227.61L322.47,227.24L322.61,227.83L322.69,227.64L322.7,227.62L322.87,227.91L323.41,227.39L323.45,227.61L323.45,227.67L323.59,227.31L323.66,227.9L324.2,227.49L324.21,227.54L324.43,227.81L324.8,227.22L324.94,227.76L324.95,227.87L325.54,227.31L325.7,227.57L325.71,227.57L325.83,227.88L326.35,227.29L326.46,227.51L326.47,227.56L327.03,227.88L327.21,227.25L327.22,227.36L327.23,227.43L327.75,227.78L327.9,227.14L327.98,227.47L327.98,227.46L328.09,227.27L328.63,227.77L328.73,227.5L328.73,227.47L328.78,227.83L329.08,227.3L329.48,227.7L329.49,227.68L329.52,227.81L329.64,227.25L330.24,227.4L330.25,227.51L330.39,227.12L330.51,227.72L330.99,227.57L331,227.63L331.18,227.3L331.68,227.96L331.75,227.56L331.76,227.63L332.22,227.4L332.4,228.01L332.5,227.72L332.5,227.78L333.17,227.49L333.23,228.04L333.24,227.79L333.24,227.96L333.45,228.18L333.62,227.49L333.99,227.94L333.99,227.99L334.4,228.18L334.66,227.55L334.74,227.6L334.75,227.62L334.76,227.58L334.96,228.23L335.5,227.86L335.51,227.85L336.02,228.36L336.2,227.64L336.25,227.8L336.26,227.79L336.36,227.66L337.04,228.3L337.06,228.08L337.06,228.04L337.26,227.82L337.5,228.33L337.8,227.96L337.81,227.98L338.09,228.28L338.56,227.7L338.57,227.73L339.07,227.65L339.28,228.32L339.32,228.04L339.33,228.02L339.81,227.72L339.92,228.2L340.07,227.92L340.07,227.83L340.12,227.7L340.48,228.28L340.82,227.89L340.82,227.88L341.12,227.69L341.26,237.07L341.55,228.44L341.56,228.44L341.89,227.84L342.25,228.46L342.27,228.2L342.27,228.18L342.34,228.5L342.67,227.84L343.01,228.07L343.01,228.02L343.16,227.73L343.3,228.38L343.76,228.09L343.76,228.02L344.11,228.34L344.36,227.77L344.48,228.2L344.48,228.31L345.05,227.71L345.2,228.35L345.23,228.17L345.24,228.22L345.92,227.63L345.99,228.14L346,228.15L346.62,227.73L346.72,228.35L346.74,228.2L346.75,228.22L346.96,227.73L347.38,228.44L347.52,228.15L347.53,228.14L347.61,227.78L347.94,228.42L348.28,228.16L348.29,228.17L348.73,227.65L348.83,228.38L349.04,228.12L349.05,228.15L349.36,228.37L349.6,227.75L349.8,227.99L349.81,228.02L349.83,227.61L349.98,228.33L350.54,228.06L350.54,228.12L350.75,228.41L351.03,227.72L351.28,228.06L351.29,228.09L351.47,228.39L352,227.8L352.04,227.97L352.05,227.88L352.19,228.39L352.55,227.72L352.8,227.91L352.81,227.85L352.94,227.71L353.52,228.35L353.57,228L353.57,227.98L353.9,227.66L354.12,228.31L354.31,227.86L354.31,227.85L354.48,227.75L354.7,228.35L355.06,228.14L355.07,228.12L355.17,228.26L355.43,227.58L355.83,227.94L355.83,228L356.01,227.81L356.43,228.38L356.57,228.12L356.57,228.2L356.78,228.53L356.96,227.89L357.31,228.3L357.31,228.34L357.36,228.16L358.04,228.65L358.07,228.4L358.07,228.36L358.42,228.06L358.8,228.61L358.82,228.34L358.82,228.3L359.19,228.13L359.55,228.76L359.58,228.58L359.58,228.52L359.82,228.12L359.93,228.68L360.35,228.39L360.35,228.43L360.74,228.14L361.07,228.74L361.08,228.69L361.09,228.67L361.26,228.82L361.85,228.13L361.85,228.39L361.86,228.39L361.92,228.2L362.43,228.71L362.61,228.42L362.62,228.43L362.78,228.71L362.97,228.17L363.37,228.27L363.38,228.28L363.43,228.13L363.89,228.72L364.13,228.32L364.14,228.28L364.18,228.7L364.39,228.14L364.89,228.52L364.9,228.45L365.41,228.8L365.65,228.24L365.65,228.44L365.66,228.39L365.92,228.7L366.05,228.14L366.4,228.4L366.41,228.34L366.62,228.86L366.96,228.1L367.16,228.55L367.17,228.57L367.27,228.71L367.64,228.04L367.92,228.43L367.93,228.49L368.06,228.75L368.2,228.14L368.68,228.6L368.69,228.57L369.17,228.16L369.31,228.79L369.44,228.59L369.45,228.63L369.57,228.75L369.99,228.14L370.2,228.4L370.21,228.43L370.54,228.27L370.78,228.84L370.96,228.54L370.97,228.56L371.33,228.81L371.47,228.28L371.72,228.56L371.72,228.67L371.97,228.79L372.13,228.15L372.48,228.62L372.48,228.7L372.71,228.85L373.02,228.27L373.23,228.38L373.24,228.44L373.6,228.77L373.94,228.2L373.99,228.42L374,228.42L374.22,228.92L374.73,228.26L374.75,228.52L374.76,228.5L374.84,228.37L375.11,228.86L375.49,228.43L375.5,228.36L375.64,228.3L375.91,228.83L376.25,228.5L376.26,228.58L376.47,228.23L376.54,228.78L377.02,228.52L377.02,228.58L377.04,228.28L377.41,228.81L377.77,228.53L377.77,228.66L378.12,228.3L378.2,228.98L378.52,228.66L378.53,228.73L378.55,228.46L378.77,228.99L379.26,228.97L379.26,228.99L379.65,228.45L380.02,228.65L380.03,228.75L380.31,229.02L380.54,228.3L380.78,228.71L380.78,228.84L381.28,229.01L381.46,228.43L381.55,228.8L381.55,228.85L381.83,228.15L382.27,228.96L382.29,228.93L382.29,229.01L382.8,228.32L383.04,228.71L383.05,228.7L383.21,228.94L383.75,228.29L383.82,228.45L383.82,228.53L383.99,228.3L384.25,228.89L384.57,228.6L384.58,228.51L384.87,228.39L385.24,229.03L385.33,228.95L385.34,228.92L385.88,228.98L386.06,228.34L386.11,228.63L386.12,228.67L386.46,228.39L386.82,229.01L386.85,228.81L386.86,228.86L387.43,228.93L387.49,228.31L387.62,228.66L387.62,228.8L387.67,228.91L388.29,228.36L388.37,228.72L388.38,228.7L388.54,228.91L388.95,228.28L389.13,228.5L389.14,228.53L389.17,228.24L389.7,228.91L389.89,228.58L389.9,228.56L389.96,228.26L390.58,228.92L390.65,228.56L390.66,228.5L391.03,228.36L391.23,228.9L391.41,228.57L391.42,228.63L391.46,228.95L392.02,228.36L392.16,228.57L392.17,228.54L392.57,228.83L392.71,228.28L392.91,228.46L392.92,228.43L393.13,228.21L393.62,228.91L393.67,228.43L393.68,228.46L394.14,228.8L394.33,228.18L394.43,228.49L394.44,228.55L394.71,228.83L395.12,228.3L395.19,228.74L395.2,228.74L395.35,228.32L395.49,228.88L395.95,228.62L395.96,228.6L396.13,228.33L396.45,229L396.71,228.7L396.72,228.74L396.98,228.44L397.47,229.02L397.47,229.02L397.48,228.93L397.76,229.09L398.14,228.47L398.23,228.76L398.24,228.81L398.46,229.07L398.74,228.55L398.99,228.71L399,228.74L399.17,229.04L399.27,228.47L399.75,228.61L399.76,228.61L399.78,228.55L399.95,229.13L400.54,228.81L400.54,228.74L400.86,228.43L401.07,229.11L401.29,228.77L401.29,228.71L401.31,229.09L401.86,228.53L402.04,228.86L402.05,229L402.19,228.52L402.35,229.09L402.8,228.75L402.81,228.75L403.18,229.08L403.44,228.54L403.5,229L403.5,229.04L403.64,228.5L404.24,229.13L404.25,228.85L404.26,228.86L404.52,228.54L405.01,229.1L405.02,228.91L405.02,228.89L405.17,229.13L405.58,228.44L405.77,228.84L405.78,228.86L406.36,229.14L406.52,228.56L406.53,228.84L406.54,228.85L406.74,228.52L406.91,229.08L407.29,228.87L407.3,228.95L407.43,229.11L407.64,228.43L408.05,228.88L408.06,228.78L408.33,228.51L408.47,229.08L408.81,228.88L408.82,228.83L408.95,228.56L409.17,229.15L409.57,228.77L409.58,228.75L410.2,228.56L410.29,229.17L410.33,228.67L410.34,228.62L410.42,228.53L410.72,229.31L411.09,228.88L411.1,228.86L411.24,228.76L411.84,229.27L411.85,229.11L411.86,229.13L411.88,229.25L412.53,228.66L412.61,228.93L412.62,228.92L412.72,229.09L413.25,228.6L413.35,229.05L413.35,229.09L413.43,229.22L413.62,228.58L414.1,228.86L414.11,228.85L414.23,229.27L414.81,228.59L414.86,228.94L414.87,228.94L414.95,229.14L415.64,228.56L415.65,228.72L415.65,228.86L415.65,228.6L415.82,229.15L416.4,228.81L416.41,228.85L416.6,228.54L416.97,229.03L417.16,228.68L417.17,228.72L417.4,228.48L417.89,229.14L417.93,228.96L417.94,228.94L418.54,228.56L418.64,229.17L418.72,228.95L418.73,228.9L418.92,228.69L419.03,229.29L419.52,228.84L419.53,228.8L419.8,228.71L420.28,229.29L420.34,228.98L420.35,229.01L420.61,228.65L421.14,229.27L421.18,228.92L421.19,228.9L421.33,229.21L421.67,228.6L422.03,228.96L422.04,228.98L422.26,229.24L422.84,228.67L422.89,229.11L422.89,229.14L422.99,228.74L423.05,229.23L423.76,229.01L423.77,229.03L424.02,229.29L424.45,228.66L424.65,229.13L424.65,229.18L424.73,229.21L424.87,228.62L425.56,228.85L425.56,229.07L425.62,229.2L426.13,228.58L426.48,228.93L426.49,228.93L427,228.61L427.35,229.12L427.42,228.81L427.42,228.77L427.66,228.55L428.3,229.09L428.37,228.7L428.38,228.77L428.73,229.18L429.02,228.44L429.37,228.85L429.38,228.87L429.48,229.09L430.17,228.65L430.37,228.94L430.37,229L430.81,229.14L431.25,228.57L431.38,228.9L431.39,228.89L431.53,228.96L432.56,228.5L432.56,228.84L432.56,228.87L433.74,229.02L433.77,228.75L433.77,228.63L433.97,229.07L434.08,228.42L434.84,228.79L434.85,228.8L434.97,228.69L435.96,229.08L436.02,228.71L436.02,228.68L436.15,228.52L437.15,229.14L437.18,228.98L437.18,228.88L437.73,229.28L438.03,228.74L438.29,229.1L438.29,229.16L438.41,228.83L438.94,229.43L439.44,229.27L439.45,229.19L439.58,229.31L440.27,228.86L440.35,229.03L440.35,229L441.82,229.31L441.82,229.25L441.82,229.19L442.13,229.41L442.8,228.8L443.06,229.24L443.06,229.26L443.26,229.46L444.43,228.88L444.58,229.34L444.59,229.39L445.49,228.88L445.8,229.55L445.89,229.2L445.89,229.22L446.11,229L447.05,229.34L447.14,228.99L447.15,228.97L447.95,228.91L448.44,229.47L448.46,229.3L448.47,229.24L448.74,228.96L449.81,229.46L449.84,229.36L449.84,229.26L450.06,229.49L451.13,229.05L451.26,229.4L451.27,229.51L452.66,228.83L452.69,229.09L452.7,229.11L452.93,228.89L454.22,229.36L454.22,229.08L454.23,229.05L455.69,229.46L455.72,229.22L455.72,229.09L456.03,228.91L457.01,229.65L457.32,229.3L457.32,229.24L459.18,229.41L459.18,229.17L459.18,229.12L459.72,228.96L460.55,229.6L460.72,229.49L460.73,229.48L460.98,229.68L462.05,228.99L462.3,229.43L462.3,229.49L464.26,229.09L464.33,229.44L464.34,229.5L464.43,229.65L465.74,228.97L465.97,229.32L465.98,229.33L466.34,229.63L467.51,229.11L467.7,229.64L467.7,229.66L468.28,229.73L469.35,229.1L469.39,229.52L469.4,229.44L469.86,229.66L471.19,229.17L471.2,229.52L471.2,229.55L473.24,229.18L473.3,229.65L473.3,229.72L475.13,229.19L475.15,229.48L475.16,229.58L476.15,229.35L476.18,231.04L476.18,231.13L476.24,238.28L477.34,229.66L477.9,229.78L477.9,229.72L478.23,229.59L479.23,230.2L479.86,229.83L479.86,229.76L479.92,226.53L481.58,230.14L481.77,229.65L481.78,229.65L483.88,230.19L483.9,229.91L483.9,229.9L490.6,230.06L490.6,229.81L490.6,229.74L492.71,230.25L492.74,229.94L492.74,229.86L496.33,230.27L496.41,229.85L496.41,229.8L499.06,230.26L499.14,229.86L499.14,229.85L503.12,230.09L503.15,229.8L503.15,229.77L509.9,230.16L509.91,230.01L509.91,229.9L514.44,230.32L514.48,229.84L514.48,229.83L517.65,230.54L517.71,230.18L517.71,230.15L523.57,230.36L523.59,230.05L523.59,229.97L526.29,230.64L526.59,230.2L526.59,230.1L530.65,230.23L530.66,229.97L530.66,229.87L534.24,230.41L534.34,230.08L534.34,230.03L540.51,230.33L540.51,230.13L540.51,230.05L544.91,230.4L544.96,230.15L544.96,230.08L549.61,230.46L549.64,230.2L549.64,230.03L554.12,230.52L554.15,230.24L554.15,230.18L562.43,230.16L562.44,229.85L562.44,229.83L567.34,230.07L567.38,229.79L567.38,229.68L572.33,230.06L572.34,229.82L572.34,229.68L580.16,230.6L580.22,230.16L580.22,230.11L587.87,230.49L587.89,230.12L587.89,230.03L596.15,234.69L596.15,234.79L596.19,238.77L598.54,230.31L600.13,230.79L600.14,230.77L608.12,230.17L608.15,230.36" style="vector-effect: non-scaling-stroke; fill: none; stroke: rgb(225, 95, 153); stroke-opacity: 1; stroke-width: 2px; opacity: 1;"/></g><g class="points"/><g class="text"/></g><g class="trace scatter trace90e5ba" style="stroke-miterlimit: 2; opacity: 1;"><g class="fills"/><g class="errorbars"/><g class="lines"><path class="js-line" d="M0,258.49L0.03,254.27L0.75,256.26L0.76,256.26L2.29,255.41L2.3,255.42L2.31,255.45L4.69,254.92L4.7,254.94L4.71,254.95L8.07,254.35L8.08,254.38L27.24,249.84L27.25,249.86L29.59,249.46L29.6,249.7L29.61,250.19L29.68,257.74L30.25,249.14L30.36,249.14L30.37,249.17L31.47,248.9L31.55,248.98L31.55,249L35.02,248.57L35.03,248.6L36.55,248.34L36.56,248.37L37.97,248.1L37.98,248.15L37.99,248.17L42.35,247.47L42.36,247.43L46.14,246.96L46.15,246.93L48.22,246.63L48.24,246.69L48.25,246.73L49.46,246.62L49.47,246.64L52.78,246.35L52.79,246.32L55.44,246.02L55.45,246.05L66.68,245.2L66.69,245.22L68.26,244.9L68.28,244.96L68.29,244.96L69.63,244.71L69.65,244.79L69.66,244.82L71.47,244.51L71.48,244.54L71.49,244.58L73.42,244.4L73.43,244.44L77.28,244.08L77.29,244.11L78.84,243.79L78.87,243.83L78.88,243.86L79.95,243.8L79.96,243.83L79.97,243.88L81.04,243.91L81.08,243.81L81.09,243.79L82.51,243.82L82.52,243.77L83.62,243.8L83.63,243.77L123.67,241.26L123.68,241.31L124.4,241.19L124.49,241.23L124.5,241.23L127.01,241L127.02,240.97L140.16,240.34L140.17,240.32L141.17,240.33L141.21,240.23L141.22,240.22L142.63,240.27L142.65,240.23L142.66,240.22L143.51,240.32L143.54,240.26L143.55,240.25L148.3,239.75L148.31,239.77L151.65,239.53L151.65,239.49L153.53,239.84L153.54,239.78L153.55,239.75L155.15,239.7L155.16,239.64L155.17,239.61L156.03,239.64L156.04,239.56L157.04,239.66L157.05,239.63L160.8,239.41L160.81,239.38L166.46,239.04L166.47,239.01L172.22,239.14L172.22,239.12L172.23,239.08L173.48,239.04L173.49,239.01L173.5,238.99L178.98,238.66L178.99,238.62L180.69,238.58L180.7,238.6L180.71,238.63L195.51,238.44L195.52,238.99L195.59,247.72L196.2,238.25L196.21,238.28L196.22,238.31L200.24,238.08L200.25,238.13L200.26,238.14L218.61,237.46L218.62,237.51L219.79,237.57L219.8,237.59L220.99,237.51L221,237.55L221.01,237.61L222.53,237.39L222.54,237.46L222.55,237.46L225.28,237.29L225.29,237.32L225.3,237.33L237.53,237.15L237.54,237.19L238.63,237.1L238.64,237.12L238.65,237.18L239.68,237.08L239.71,237.11L239.72,237.13L246.93,236.96L246.94,236.87L248.77,236.96L248.78,236.89L251.4,236.84L251.41,236.89L251.42,236.9L252.43,236.78L252.44,236.81L252.45,236.86L253.47,236.64L253.48,236.65L253.49,236.69L259.8,236.5L259.81,236.55L261.33,236.39L261.34,236.43L282.87,235.91L282.88,235.86L283.81,235.96L283.82,235.9L285.27,236.1L285.28,236.07L286.46,236.15L286.47,236.11L286.48,236.08L287.57,236.15L287.6,236.11L287.61,236.05L289.02,236.13L289.03,236.08L289.04,236.03L292.5,236.08L292.51,235.91L292.52,235.65L292.57,234.69L292.71,235.95L293.25,235.89L293.26,235.94L294.82,235.78L294.84,235.84L294.85,235.89L297.68,235.79L297.69,235.73L297.7,235.69L299.46,235.73L299.47,235.69L300.46,235.67L300.47,235.65L300.48,235.62L311.11,235.62L311.12,235.6L313.16,235.72L313.17,235.68L313.17,235.63L314.2,235.75L314.24,235.63L314.25,235.59L318.38,235.46L318.39,235.4L320.29,235.4L320.3,235.34L321.44,235.34L321.45,235.32L322.93,235.61L322.96,235.54L322.97,235.52L324.7,235.79L324.71,235.71L327.17,235.63L327.18,235.58L330.58,235.54L330.59,235.51L337.23,235.33L337.24,235.31L347.49,235.4L347.5,235.33L359.57,235.22L359.58,235.23L363.52,235.01L363.53,234.98L366.67,235.08L366.68,235.12L367.88,235.1L367.9,235.18L367.91,235.2L368.82,235.06L368.87,235.15L368.88,235.15L379.19,235.1L379.2,235.13L380.13,235L380.17,235.09L380.18,235.09L395.22,234.69L395.23,234.74L396.4,234.85L396.41,234.87L396.42,234.94L397.59,235.29L397.6,235.79L397.68,244.4L398.24,234.96L398.3,235.01L398.31,234.97L406.72,234.81L406.73,234.78L407.92,234.79L407.93,234.77L407.94,234.74L409.18,234.8L409.19,234.77L409.2,234.74L410.78,234.77L410.79,234.73L412.53,234.65L412.54,234.68L412.55,234.71L413.71,234.53L413.73,234.63L413.74,234.65L415.55,234.38L415.57,234.45L415.58,234.48L417.02,234.55L417.03,234.61L417.04,234.62L421.07,234.83L421.08,234.8L423.23,234.7L423.24,234.6L423.25,234.6L424.62,234.64L424.63,234.6L427.88,234.6L427.89,234.56L434.77,234.37L434.78,234.31L438.18,234.21L438.19,234.2L445.38,234.56L445.39,234.54L450.83,234.48L450.84,234.44L461.16,234.44L461.17,234.4L476.15,234.56L476.16,234.47L485.23,234.23L485.24,234.18L500.59,234.36L500.6,234.27L500.61,234.26L524.14,234.21L524.15,234.19L537.79,234.12L537.8,234.05L563.66,233.9L563.67,233.97L578.09,234.04L578.1,234.08L578.1,234.13L592.17,233.82L592.21,233.98L592.22,234.03L606.56,233.62L606.61,236.72L606.62,238.11L606.66,243.54L610.7,233.38L610.82,233.46L610.83,233.5L650.74,233.69L650.75,233.72L684,233.26L684.01,233.29L697,233.14" style="vector-effect: non-scaling-stroke; fill: none; stroke: rgb(28, 167, 28); stroke-opacity: 1; stroke-width: 2px; opacity: 1;"/></g><g class="points"/><g class="text"/></g><g class="trace scatter tracee79dc7" style="stroke-miterlimit: 2; opacity: 1;"><g class="fills"/><g class="errorbars"/><g class="lines"><path class="js-line" d="M0,429.77L0.58,224.89L0.75,225L0.76,225.01L2.67,224.31L2.68,224.46L2.68,224.47L2.71,224.65L3.34,224.21L3.41,224.29L3.41,224.28L3.46,224.46L3.97,223.92L4.14,224.12L4.15,224.11L4.28,224.18L5.03,223.73L5.04,223.9L5.04,223.93L5.24,223.8L5.52,223.95L5.77,223.74L5.77,223.72L6,223.85L6.51,223.68L6.56,223.78L6.56,223.79L7.39,223.29L7.42,223.45L7.42,223.48L7.64,223.2L8.16,223.4L8.22,223.29L8.22,223.25L9.8,222.91L9.86,223.11L9.86,223.12L10.61,222.59L10.68,222.81L10.69,222.83L10.81,222.91L11.56,222.54L11.58,222.63L11.58,222.65L12.9,222.7L12.92,222.58L12.92,222.55L13.26,222.35L13.52,222.7L13.67,222.47L13.67,222.44L14.42,222.69L14.43,222.45L14.44,222.45L15.24,222.53L15.31,222.38L15.32,222.36L15.36,222.4L15.85,221.97L16.09,222.04L16.1,222.05L16.22,221.91L16.9,222.18L16.92,222.14L16.92,222.11L18.06,222.04L18.09,221.84L18.09,221.82L18.32,222.07L18.65,221.72L18.84,221.85L18.85,221.86L19.51,221.61L19.62,222L19.62,222.05L19.64,222.65L20.23,221.66L20.37,221.84L20.38,221.83L26.17,220.91L26.19,221.36L26.19,221.42L26.28,232.18L26.87,221.04L26.94,221.27L26.95,221.26L27.86,220.87L27.88,221L27.88,221.02L32.26,220.99L32.26,221.05L32.27,221.07L33.06,220.68L33.08,220.86L33.08,220.87L34.83,220.73L34.84,220.82L34.84,220.85L35.55,220.47L35.74,220.65L35.74,220.66L36.75,220.39L36.85,220.65L36.85,220.67L37.65,220.37L37.68,220.61L37.68,220.62L38.91,220.26L38.93,220.42L38.94,220.42L40.13,220.3L40.15,220.45L40.15,220.47L40.23,220.53L40.97,220.15L41,220.33L41.01,220.33L42.1,220.49L42.1,220.43L42.1,220.4L43.68,220.37L43.69,220.28L43.69,220.24L44.56,220.34L44.59,220.2L44.59,220.18L58.35,219.84L58.35,219.87L58.35,219.89L59.19,219.68L59.23,219.87L59.23,219.88L60.41,219.66L60.44,219.85L60.44,219.88L61.55,219.53L61.57,219.66L61.57,219.69L62.56,219.57L62.58,219.66L62.58,219.7L63.44,219.38L63.48,219.57L63.48,219.6L64.23,219.29L64.27,219.49L64.27,219.51L65.05,219.3L65.13,219.51L65.14,219.54L66.03,219.28L66.04,219.35L66.04,219.37L68.15,219.42L68.15,219.54L68.15,219.56L68.37,219.6L68.84,219.23L68.92,219.45L68.92,219.46L69.18,219.58L69.55,219.28L69.67,219.36L69.68,219.38L69.7,219.2L70.07,219.59L70.41,219.52L70.42,219.5L70.6,219.58L71.17,219.29L71.17,219.44L71.18,219.44L71.95,219.29L71.96,219.42L71.96,219.44L73.19,219.25L73.2,219.18L73.2,219.12L74.13,219.32L74.16,219.19L74.16,219.16L74.88,219.33L74.97,219.16L74.97,219.13L74.99,218.97L75.18,219.4L75.7,219.33L75.7,219.35L75.79,219.2L76.47,219.47L76.47,219.42L76.47,219.39L78.05,219.15L78.07,219.31L78.07,219.33L78.78,219.07L78.87,219.23L78.87,219.26L78.97,219.35L79.64,218.97L79.67,219.09L79.67,219.12L79.89,218.92L80.38,219.22L80.42,219.01L80.42,219L80.6,218.89L81.21,219.23L81.24,219.15L81.24,219.13L82.41,219.14L82.46,218.85L82.46,218.84L83.04,219.14L83.3,219L83.3,218.98L83.34,218.76L83.92,219.17L84.04,219.07L84.05,219.04L84.86,218.78L85.04,219.08L85.04,219.11L85.5,218.83L85.8,219.09L85.8,219.11L86.55,218.9L86.64,219.12L86.65,219.15L87.2,218.84L87.43,219.1L87.44,219.11L88.41,219.22L88.43,219.13L88.43,219.1L88.57,219.16L88.86,218.85L89.18,219.15L89.18,219.17L90.21,218.85L90.24,219.12L90.24,219.13L90.5,219.2L90.7,218.88L91.01,219.05L91.02,219.07L92.18,219.06L92.18,218.99L92.19,218.97L93.29,218.98L93.32,218.8L93.32,218.76L93.96,219.03L94.07,218.72L94.07,218.71L94.76,219.06L94.84,218.9L94.85,218.89L95.8,219.09L95.9,218.82L95.9,218.79L96.84,218.95L96.88,218.72L96.88,218.71L97.11,218.66L97.64,218.98L97.67,218.88L97.67,218.86L97.74,218.78L98.27,218.99L98.42,218.76L98.42,218.74L98.86,218.96L99.12,218.53L99.16,218.76L99.17,218.77L99.57,218.97L99.92,218.67L99.93,218.76L99.94,218.79L100.16,218.6L100.69,219L100.71,218.83L100.71,218.8L101.75,218.63L101.78,218.87L101.78,218.89L102.26,218.64L102.54,218.91L102.55,218.91L103.62,218.66L103.65,218.87L103.65,218.88L104.47,218.63L104.48,218.73L104.48,218.76L105.76,218.72L105.76,218.83L105.76,218.85L105.98,218.92L106.5,218.68L106.52,218.79L106.52,218.82L107.77,218.67L107.83,218.88L107.83,218.91L109.28,218.81L109.3,219.19L109.3,219.23L109.4,229.39L110.02,218.71L110.05,218.91L110.06,218.91L110.74,218.68L110.92,218.97L110.92,218.98L111.63,218.65L111.72,218.8L111.72,218.82L112.67,218.78L112.68,218.9L112.68,218.94L113.39,218.61L113.47,218.78L113.47,218.8L113.59,218.94L114.2,218.63L114.27,218.79L114.28,218.8L114.47,218.91L115,218.7L115.03,218.91L115.04,218.92L116.06,218.68L116.07,218.89L116.08,218.91L116.91,218.78L116.94,218.91L116.95,218.94L117.46,218.7L117.71,218.93L117.71,218.96L120.68,218.72L120.68,218.68L120.68,218.63L121.36,218.87L121.49,218.72L121.5,218.7L121.63,218.52L122.32,218.81L122.35,218.7L122.35,218.67L122.46,218.57L123.12,218.78L123.14,218.69L123.14,218.66L124.03,218.82L124.04,218.62L124.05,218.6L124.4,218.98L124.8,218.7L124.81,218.68L126.01,218.82L126.05,218.64L126.05,218.61L126.3,218.54L126.41,218.81L126.8,218.57L126.8,218.55L126.85,218.48L127.53,218.8L127.57,218.7L127.57,218.69L127.67,218.66L128.33,218.93L128.36,218.82L128.36,218.8L129.44,218.85L129.47,218.68L129.47,218.66L130.16,218.83L130.23,218.57L130.23,218.55L130.91,218.78L131.01,218.66L131.02,218.64L131.15,218.78L131.89,218.51L131.92,218.6L131.92,218.61L132.8,218.45L132.83,218.6L132.83,218.63L133.59,218.49L133.62,218.64L133.62,218.67L134.39,218.39L134.42,218.44L134.42,218.46L135.16,218.69L135.28,218.4L135.28,218.38L135.38,218.66L135.91,218.21L136.04,218.42L136.04,218.41L136.12,218.49L136.79,218.41L136.81,218.51L136.82,218.51L138.59,218.71L138.62,218.53L138.62,218.5L139.2,218.28L139.31,218.7L139.37,218.52L139.38,218.52L140.28,218.51L140.31,218.32L140.31,218.3L140.48,218.26L141.08,218.67L141.11,218.55L141.11,218.53L142.17,218.37L142.2,218.52L142.2,218.54L142.98,218.37L143.03,218.61L143.03,218.64L143.69,218.24L143.79,218.38L143.8,218.39L144.65,218.28L144.7,218.5L144.7,218.51L144.92,218.55L145.44,218.27L145.47,218.38L145.47,218.4L145.49,218.57L145.87,218.16L146.22,218.39L146.22,218.37L147.1,218.62L147.2,218.43L147.2,218.4L147.97,218.56L148.01,218.39L148.02,218.36L148.69,218.59L148.81,218.48L148.81,218.44L149.91,218.47L149.96,218.25L149.97,218.22L150.72,218.48L150.75,218.35L150.75,218.32L150.98,218.19L151.42,218.5L151.51,218.41L151.52,218.39L152.49,218.27L152.52,218.36L152.52,218.39L153.23,218.13L153.35,218.35L153.35,218.36L154.35,218.16L154.38,218.28L154.38,218.3L165.54,218.18L165.54,218.23L165.54,218.24L166.51,218.02L166.54,218.12L166.54,218.14L167.68,218.35L167.7,218.26L167.7,218.23L168.66,218.42L168.67,218.29L168.68,218.28L169.53,218.12L169.56,218.31L169.56,218.33L170.05,218.08L170.32,218.24L170.33,218.25L171.22,218.39L171.27,218.21L171.27,218.2L171.33,218.18L171.71,218.46L172.03,218.24L172.03,218.23L173.08,218.33L173.1,218.16L173.1,218.14L173.59,217.95L173.64,218.32L173.88,218.19L173.88,218.16L176.32,218.17L176.33,218.08L176.33,218.04L176.46,217.98L177.07,218.39L177.1,218.3L177.1,218.26L177.25,218.4L177.92,218.2L177.95,218.37L177.96,218.38L178.74,218.09L178.83,218.29L178.84,218.32L179.86,218.16L179.87,218.22L179.88,218.24L180.12,218.34L180.5,218.14L180.62,218.3L180.63,218.33L180.76,218.44L181.39,218.17L181.41,218.29L181.41,218.31L182.23,218.3L182.24,218.2L182.24,218.18L182.31,218.09L182.85,218.39L183.01,218.25L183.02,218.26L184.03,218.13L184.04,218.26L184.05,218.27L184.75,218.04L184.83,218.13L184.83,218.16L185.72,218.45L185.73,218.05L185.73,217.99L185.77,216.27L186.06,218.35L186.48,218.17L186.49,218.18L187.84,218.39L187.85,218.28L187.85,218.27L188.71,218.3L188.74,218.14L188.74,218.12L189.98,218.24L190.02,218.04L190.02,218.01L191.1,218.13L191.1,218.05L191.1,218.01L191.39,217.97L191.66,218.25L191.85,218.1L191.86,218.11L192.79,218.05L192.81,218.14L192.81,218.16L193.57,218.11L193.6,218.23L193.6,218.26L193.99,218.34L194.37,218.08L194.37,218.2L194.37,218.22L195.35,218.36L195.38,218.19L195.38,218.17L195.57,218.07L196.07,218.3L196.17,218.2L196.17,218.16L197.64,218.25L197.65,218.16L197.65,218.12L198.04,218.04L198.15,218.34L198.41,218.16L198.42,218.16L199.34,218.11L199.37,218.25L199.37,218.27L199.52,218.33L200.12,218.05L200.17,218.18L200.17,218.2L201.07,218.11L201.08,218.25L201.08,218.27L201.98,218.1L202,218.2L202,218.21L203.07,218.2L203.08,218.11L203.08,218.1L204.02,218.22L204.05,218.02L204.05,218.01L204.21,217.9L204.82,218.13L204.85,217.98L204.86,217.98L205.41,217.78L205.54,218.07L205.59,217.88L205.59,217.85L206.42,218.06L206.44,217.91L206.44,217.9L206.53,217.86L207.15,218.18L207.27,218.07L207.27,218.04L207.34,218L208.03,218.25L208.03,218.12L208.04,218.12L209.14,218.26L209.18,218.08L209.19,218.06L209.26,218.04L209.87,218.31L209.97,218.1L209.98,218.11L210.91,217.96L210.96,218.13L210.97,218.14L211.14,218.22L211.67,217.94L211.73,218.15L211.73,218.17L212.91,218.27L212.95,218.05L212.95,218.04L213.56,218.24L213.73,218.02L213.73,218.01L213.83,217.91L214.13,221.04L214.13,221.16L214.2,228.78L214.53,218.09L214.53,218.2L214.54,218.21L214.67,218.25L214.72,217.95L215.29,218.05L215.3,218.09L215.38,218.15L215.68,217.9L216.04,218.18L216.05,218.18L216.13,218.22L216.71,217.92L216.83,218.1L216.83,218.11L217.76,217.88L217.79,218.1L217.8,218.12L218.12,218.21L218.42,217.86L218.58,218.03L218.58,218.05L218.74,218.24L219.54,217.9L219.57,218.08L219.57,218.09L219.88,218.18L220.18,217.86L220.33,218.04L220.33,218.07L221.21,217.89L221.24,218.05L221.24,218.09L222.09,217.9L222.09,217.96L222.1,218.01L222.93,218.18L223.05,217.95L223.05,217.93L223.57,218.12L223.81,217.89L223.82,217.9L224.54,218.05L224.57,217.83L224.57,217.82L225.35,218.12L225.36,217.95L225.37,217.95L226.21,217.84L226.28,218.02L226.28,218.03L227.06,217.73L227.11,217.99L227.11,218.01L227.18,218.02L227.61,217.7L227.88,217.85L227.88,217.88L228.86,217.9L228.89,217.78L228.89,217.76L229.85,217.89L229.87,217.74L229.87,217.72L230.14,218.02L230.64,217.84L230.64,217.82L232.19,217.99L232.19,217.91L232.19,217.88L232.8,218.18L232.98,218.1L232.98,218.07L233.06,217.99L233.67,218.17L233.78,218.05L233.78,218.02L235.05,218.25L235.08,218.05L235.08,218.01L235.25,217.92L235.84,218.12L235.85,218L235.85,217.97L236.65,218.17L236.67,218.06L236.67,218.04L237.36,218.19L237.44,218L237.44,217.99L238.27,218.09L238.28,218L238.28,217.97L238.36,217.93L238.97,218.15L239.06,218.04L239.06,218L239.94,218.1L240.02,217.86L240.03,217.86L240.66,218.17L240.79,218L240.8,217.98L244.03,217.97L244.04,218.05L244.04,218.08L244.3,217.72L244.8,217.9L244.81,217.92L244.91,217.96L245.49,217.83L245.55,218.03L245.55,218.06L245.74,217.82L245.87,218.11L246.3,218.05L246.31,218.07L246.43,218.19L247.18,217.83L247.21,217.93L247.21,217.98L248.32,218.04L248.34,218.16L248.34,218.18L249.1,217.97L249.11,218L249.11,218.02L249.23,218.12L249.84,217.97L249.87,218.15L249.88,218.14L250.64,217.89L250.66,218.04L250.67,218.03L251.75,217.88L251.81,218.03L251.81,218.05L252.04,218.12L252.39,217.87L252.57,218L252.57,218.03L253.66,218.06L253.67,217.92L253.67,217.9L253.92,217.85L254.38,218.14L254.46,218.08L254.46,218.04L254.59,218.2L255.44,217.85L255.46,217.97L255.46,217.98L256.98,217.83L257,218L257,218.02L257.71,217.84L257.76,217.99L257.76,218.01L258.57,217.82L258.6,217.96L258.6,217.99L258.76,218.09L259.37,217.79L259.38,217.91L259.39,217.94L259.49,218.03L260.17,217.75L260.21,217.95L260.22,217.96L260.98,217.77L260.99,217.84L260.99,217.86L262.76,217.75L262.78,217.88L262.78,217.9L263.54,217.69L263.55,217.77L263.55,217.79L264.83,217.65L264.86,217.77L264.86,217.8L265.05,217.52L265.62,217.65L265.63,217.68L265.75,217.76L266.42,217.59L266.45,217.75L266.45,217.76L267.46,217.72L267.49,217.9L267.49,217.91L268.61,217.78L268.62,217.92L268.62,217.94L268.67,217.69L269.02,218.08L269.35,218.04L269.36,218.04L269.66,218.1L269.87,217.84L270.12,218L270.12,218.01L271.27,218.14L271.3,217.99L271.3,217.96L272.08,218.15L272.11,218.02L272.11,218.01L273.16,217.9L273.17,217.99L273.18,218.01L274.05,217.78L274.06,217.86L274.06,217.88L275,217.81L275.05,218.01L275.05,218.02L275.63,217.75L275.82,217.9L275.82,217.92L277.62,217.86L277.62,217.93L277.63,217.96L277.76,218.04L278.46,217.69L278.51,217.84L278.51,217.88L278.9,218L279.25,217.79L279.27,217.85L279.27,217.86L279.54,218.08L280.03,217.88L280.04,217.85L280.85,217.79L280.87,217.94L280.87,217.96L281.64,217.79L281.66,217.94L281.67,217.94L281.77,218.01L282.46,217.85L282.48,218L282.48,218.03L283.26,217.96L283.28,218.05L283.28,218.07L283.45,218.16L284.08,217.85L284.11,218.02L284.11,218.04L284.81,217.8L284.88,217.97L284.88,218L286.14,217.78L286.19,217.93L286.19,217.95L286.39,217.64L286.95,217.85L286.96,217.84L287.16,217.97L287.75,217.67L287.79,217.89L287.8,217.92L287.92,217.7L288.34,218.03L288.54,217.94L288.55,217.93L289.38,217.72L289.4,217.83L289.4,217.85L289.55,217.92L289.89,217.68L290.16,217.8L290.16,217.83L291.79,217.85L291.79,217.93L291.79,217.94L292.57,217.7L292.6,217.85L292.61,217.87L292.75,217.99L293.22,217.66L293.37,217.81L293.37,217.83L294.29,217.9L294.32,217.75L294.32,217.72L295.08,217.9L295.12,217.71L295.13,217.69L295.21,217.68L295.64,217.96L295.9,217.89L295.9,217.84L296.97,217.67L296.99,217.8L296.99,217.82L298.27,217.68L298.29,217.85L298.29,217.86L299.05,217.63L299.07,217.76L299.07,217.77L300.11,217.64L300.13,217.78L300.13,217.81L300.82,217.68L300.91,217.8L300.91,217.81L302.15,218.01L302.17,217.9L302.17,217.88L302.66,217.66L302.78,217.99L302.91,217.79L302.92,217.76L303.83,217.84L303.84,217.75L303.84,217.73L304.8,217.85L304.83,217.78L304.83,217.74L304.99,217.69L305.6,217.94L305.6,217.86L305.6,217.85L306.77,217.65L306.78,217.82L306.79,217.86L307.55,217.58L307.61,217.69L307.61,217.72L308.68,217.6L308.68,217.7L308.69,217.72L308.79,217.76L309.4,217.53L309.48,217.64L309.49,217.67L310.32,217.71L310.35,217.57L310.35,217.54L311.2,217.89L311.23,217.75L311.24,217.74L312.48,218L312.52,217.79L312.52,217.76L312.83,217.7L313.12,217.99L313.28,217.9L313.29,217.87L317.46,217.89L317.46,217.95L317.46,217.99L317.7,218.04L318.14,217.75L318.22,217.88L318.23,217.89L319.76,217.87L319.76,217.96L319.76,217.98L320.46,217.69L320.56,217.9L320.56,217.92L320.66,217.96L321.19,217.71L321.36,217.86L321.36,217.89L322.37,217.97L322.39,217.84L322.39,217.81L323.25,217.94L323.26,217.83L323.26,217.8L324.33,217.72L324.36,217.84L324.36,217.86L324.67,217.97L325.03,217.73L325.12,217.81L325.12,217.85L326,217.69L326.01,217.8L326.02,217.82L327,217.73L327.02,217.86L327.02,217.89L327.83,217.7L327.86,217.89L327.86,217.9L327.96,217.99L328.67,217.57L328.7,217.75L328.71,217.73L328.84,217.89L329.6,217.56L329.62,217.68L329.63,217.69L329.76,217.59L330.54,217.85L330.56,217.73L330.57,217.69L331.66,217.83L331.66,217.74L331.66,217.71L332.46,217.92L332.49,217.77L332.49,217.75L332.56,217.74L333.09,218.05L333.25,217.95L333.26,217.96L334.1,217.88L334.18,218.08L334.18,218.11L334.99,217.84L335.01,217.96L335.01,217.97L335.81,218.07L335.84,217.9L335.84,217.86L336.63,218.06L336.63,217.96L336.63,217.93L336.8,218.68L336.8,218.78L336.89,228.51L337.54,217.78L337.55,217.84L337.56,217.83L337.74,217.93L338.27,217.55L338.36,217.75L338.37,217.79L339.05,217.5L339.17,217.66L339.17,217.67L339.34,217.78L339.8,217.57L339.91,217.77L339.92,217.79L339.98,217.83L340.67,217.59L340.69,217.66L340.69,217.69L341.07,217.52L341.43,217.82L341.44,217.67L341.45,217.68L341.66,217.86L342.35,217.47L342.36,217.58L342.36,217.62L343.72,217.58L343.74,217.72L343.74,217.74L343.83,217.8L344.52,217.71L344.54,217.76L344.54,217.78L344.68,217.68L345.11,218.01L345.31,217.81L345.31,217.8L345.49,217.66L346.08,217.95L346.09,217.84L346.09,217.81L347.45,218.01L347.48,217.85L347.48,217.83L348.24,218.04L348.27,217.89L348.27,217.88L348.45,217.79L348.72,218.07L349,217.77L349.01,217.75L349.76,218.04L349.77,217.98L349.78,218L349.84,218.03L350.53,217.69L350.56,217.8L350.56,217.82L351.53,217.98L351.54,217.87L351.55,217.85L351.73,217.74L352.34,218.02L352.37,217.82L352.37,217.79L352.52,217.74L353.14,218.03L353.16,217.87L353.17,217.86L354.17,217.99L354.2,217.83L354.2,217.82L354.96,217.96L355.01,217.78L355.01,217.76L355.94,217.91L355.97,217.76L355.97,217.73L356.08,217.7L356.42,217.95L356.74,217.81L356.74,217.77L356.87,217.7L357.46,217.94L357.57,217.79L357.57,217.75L357.67,217.67L358.34,217.91L358.37,217.73L358.37,217.7L358.55,217.62L359.08,217.83L359.15,217.72L359.15,217.69L360.32,217.58L360.35,217.69L360.35,217.72L360.43,217.76L361.02,217.46L361.13,217.63L361.13,217.66L362.16,217.47L362.19,217.68L362.19,217.71L362.87,217.52L362.97,217.69L362.97,217.71L364.01,217.74L364.03,217.92L364.03,217.94L365.06,217.79L365.06,217.9L365.06,217.92L365.24,218.08L365.85,217.77L365.86,217.92L365.87,217.94L366.88,217.88L366.93,218.06L366.93,218.08L367.94,217.75L367.95,217.89L367.95,217.91L368.77,218L368.81,217.83L368.81,217.79L368.97,217.75L369.33,218.01L369.57,217.88L369.58,217.88L369.63,217.99L370.26,217.7L370.35,217.85L370.35,217.87L371.46,217.85L371.49,218.02L371.49,218.03L371.81,218.08L372.26,217.81L372.26,217.89L372.27,217.91L373.13,217.91L373.17,218.09L373.17,218.12L374.1,217.91L374.12,218.04L374.12,218.08L375.24,217.94L375.24,218.04L375.24,218.08L376.51,217.84L376.54,217.97L376.54,217.99L376.94,218.15L377.23,217.85L377.31,217.98L377.32,217.99L378.11,217.83L378.14,217.98L378.15,218L378.29,218.04L378.91,217.77L378.94,217.91L378.95,217.94L380.03,217.82L380.05,217.96L380.06,217.99L380.24,218.04L380.84,217.77L380.84,217.88L380.84,217.91L382.23,217.93L382.25,218.03L382.25,218.05L382.32,218.11L382.92,217.78L383.02,218L383.03,218L383.79,217.83L383.82,217.92L383.82,217.95L384.65,218.04L384.69,217.87L384.69,217.85L385.14,217.73L385.38,218.05L385.46,217.92L385.46,217.87L385.97,217.66L386.09,218L386.21,217.78L386.21,217.77L386.28,217.73L386.66,217.98L386.98,217.81L386.98,217.79L388.01,217.82L388.04,217.66L388.04,217.64L388.73,217.92L388.83,217.72L388.83,217.68L389.45,217.95L389.62,217.78L389.62,217.75L389.72,217.68L390.41,217.91L390.44,217.81L390.44,217.78L391.78,217.87L391.8,217.75L391.8,217.74L393.39,217.87L393.41,217.66L393.41,217.64L394.1,217.92L394.2,217.79L394.2,217.75L395.08,217.86L395.11,217.72L395.11,217.69L395.96,217.98L395.96,217.9L395.97,217.89L397.32,218.13L397.36,217.97L397.37,217.94L397.47,218.19L397.66,217.91L398.12,218.09L398.13,218.09L398.27,218.16L398.89,217.98L398.92,218.09L398.93,218.1L399.17,218.15L399.42,217.86L399.68,217.99L399.69,218.02L400.48,217.87L400.5,218.05L400.5,218.07L401.85,217.94L401.89,218.11L401.89,218.14L402.44,218.28L402.5,217.98L402.64,218.13L402.64,218.14L404.5,217.95L404.52,218.09L404.52,218.1L404.6,218.19L405.14,217.87L405.29,218.04L405.3,218.05L406.84,218.05L406.85,218.18L406.85,218.19L407.09,218.23L407.6,217.9L407.62,218.07L407.63,218.05L408.9,218.01L408.92,218.09L408.92,218.11L409.62,217.86L409.72,218.02L409.72,218.06L410.5,217.87L410.52,218.01L410.52,218.04L411.29,217.86L411.33,217.98L411.34,217.98L412.51,217.94L412.53,218.13L412.53,218.14L413.58,217.85L413.61,217.96L413.61,217.97L414.64,218.04L414.66,217.92L414.66,217.9L414.74,217.86L415.28,218.08L415.43,218.03L415.43,218L415.6,218.13L416.2,217.79L416.21,217.88L416.22,217.89L417.69,217.84L417.7,217.71L417.71,217.68L417.89,217.6L418.46,217.93L418.52,217.81L418.52,217.8L420.15,217.9L420.15,218L420.16,218.01L423.66,217.9L423.66,217.87L423.66,217.83L424.73,218.09L424.75,217.96L424.75,217.93L425.92,218.01L425.95,217.86L425.95,217.84L427.07,218.09L427.15,217.83L427.15,217.8L428.35,217.92L428.37,217.75L428.37,217.73L429.46,217.92L429.5,217.73L429.5,217.71L430.81,218.1L430.87,217.95L430.87,217.89L432.04,218.15L432.09,218.06L432.1,218.01L433.96,218.06L433.98,217.91L433.98,217.87L435.63,217.94L435.66,217.8L435.66,217.77L437.32,217.85L437.36,217.68L437.36,217.66L439.08,217.86L439.11,217.7L439.11,217.68L441.1,218.03L441.16,217.86L441.16,217.85L444.06,218.03L444.08,217.87L444.08,217.86L451.06,217.79L451.08,218.6L451.08,218.7L451.17,228.03L452.35,217.67L452.46,217.79L452.47,217.8L455.04,217.86L455.08,217.63L455.08,217.6L457.07,217.84L457.08,217.7L457.08,217.69L460.93,217.88L460.93,217.75L460.93,217.71L464.19,217.73L464.2,217.59L464.21,217.57L467.31,217.83L467.34,217.55L467.34,217.52L470.44,217.68L470.47,217.54L470.47,217.52L471.69,217.78L471.73,216.38L471.73,216.3L471.76,215.42L471.95,217.62L473.44,217.56L473.45,217.57L480.7,217.91L480.7,217.99L480.7,218L485.47,217.69L485.5,217.83L485.5,217.86L492.12,217.72L492.15,217.91L492.15,217.92L511.42,217.84L511.42,217.8L511.42,217.78L517.34,217.89L517.36,217.76L517.36,217.75L541.81,217.67L541.81,217.66L541.81,217.62L557.28,217.9L557.28,217.79L557.28,217.77L567.52,218L567.54,217.83L567.54,217.81L576.97,217.74L577.01,220.11L577.02,220.24L577.09,227.79L579.9,217.55L580.71,217.69L580.72,217.68L602.86,217.97L602.86,217.97" style="vector-effect: non-scaling-stroke; fill: none; stroke: rgb(182, 129, 0); stroke-opacity: 1; stroke-width: 2px; opacity: 1;"/></g><g class="points"/><g class="text"/></g></g></g><g class="overplot"/><path class="xlines-above crisp" d="M70,429H489" style="fill: none; stroke-width: 2px; stroke: rgb(0, 0, 0); stroke-opacity: 1;"/><path class="ylines-above crisp" d="M71,12V428" style="fill: none; stroke-width: 2px; stroke: rgb(0, 0, 0); stroke-opacity: 1;"/><g class="overlines-above"/><g class="xaxislayer-above"><path class="xtick ticks crisp" d="M0,430v5" transform="translate(72,0)" style="stroke: rgb(68, 68, 68); stroke-opacity: 1; stroke-width: 1px;"/><path class="xtick ticks crisp" d="M0,430v5" transform="translate(141.5,0)" style="stroke: rgb(68, 68, 68); stroke-opacity: 1; stroke-width: 1px;"/><path class="xtick ticks crisp" d="M0,430v5" transform="translate(211,0)" style="stroke: rgb(68, 68, 68); stroke-opacity: 1; stroke-width: 1px;"/><path class="xtick ticks crisp" d="M0,430v5" transform="translate(280.5,0)" style="stroke: rgb(68, 68, 68); stroke-opacity: 1; stroke-width: 1px;"/><path class="xtick ticks crisp" d="M0,430v5" transform="translate(350,0)" style="stroke: rgb(68, 68, 68); stroke-opacity: 1; stroke-width: 1px;"/><path class="xtick ticks crisp" d="M0,430v5" transform="translate(419.5,0)" style="stroke: rgb(68, 68, 68); stroke-opacity: 1; stroke-width: 1px;"/><path class="xtick ticks crisp" d="M0,430v5" transform="translate(489,0)" style="stroke: rgb(68, 68, 68); stroke-opacity: 1; stroke-width: 1px;"/><g class="xtick"><text text-anchor="middle" x="0" y="461.4" transform="translate(72,0)" style="font-family: 'Times New Roman', monospace; font-size: 22px; fill: rgb(105, 105, 105); fill-opacity: 1; white-space: pre; opacity: 1;">0</text></g><g class="xtick"><text text-anchor="middle" x="0" y="461.4" style="font-family: 'Times New Roman', monospace; font-size: 22px; fill: rgb(105, 105, 105); fill-opacity: 1; white-space: pre; opacity: 1;" transform="translate(141.5,0)">2</text></g><g class="xtick"><text text-anchor="middle" x="0" y="461.4" style="font-family: 'Times New Roman', monospace; font-size: 22px; fill: rgb(105, 105, 105); fill-opacity: 1; white-space: pre; opacity: 1;" transform="translate(211,0)">4</text></g><g class="xtick"><text text-anchor="middle" x="0" y="461.4" style="font-family: 'Times New Roman', monospace; font-size: 22px; fill: rgb(105, 105, 105); fill-opacity: 1; white-space: pre; opacity: 1;" transform="translate(280.5,0)">6</text></g><g class="xtick"><text text-anchor="middle" x="0" y="461.4" style="font-family: 'Times New Roman', monospace; font-size: 22px; fill: rgb(105, 105, 105); fill-opacity: 1; white-space: pre; opacity: 1;" transform="translate(350,0)">8</text></g><g class="xtick"><text text-anchor="middle" x="0" y="461.4" style="font-family: 'Times New Roman', monospace; font-size: 22px; fill: rgb(105, 105, 105); fill-opacity: 1; white-space: pre; opacity: 1;" transform="translate(419.5,0)">10</text></g><g class="xtick"><text text-anchor="middle" x="0" y="461.4" style="font-family: 'Times New Roman', monospace; font-size: 22px; fill: rgb(105, 105, 105); fill-opacity: 1; white-space: pre; opacity: 1;" transform="translate(489,0)">12</text></g></g><g class="yaxislayer-above"><path class="ytick ticks crisp" d="M70,0h-5" transform="translate(0,428)" style="stroke: rgb(68, 68, 68); stroke-opacity: 1; stroke-width: 1px;"/><path class="ytick ticks crisp" d="M70,0h-5" transform="translate(0,344.8)" style="stroke: rgb(68, 68, 68); stroke-opacity: 1; stroke-width: 1px;"/><path class="ytick ticks crisp" d="M70,0h-5" transform="translate(0,261.6)" style="stroke: rgb(68, 68, 68); stroke-opacity: 1; stroke-width: 1px;"/><path class="ytick ticks crisp" d="M70,0h-5" transform="translate(0,178.4)" style="stroke: rgb(68, 68, 68); stroke-opacity: 1; stroke-width: 1px;"/><path class="ytick ticks crisp" d="M70,0h-5" transform="translate(0,95.2)" style="stroke: rgb(68, 68, 68); stroke-opacity: 1; stroke-width: 1px;"/><path class="ytick ticks crisp" d="M70,0h-5" transform="translate(0,12)" style="stroke: rgb(68, 68, 68); stroke-opacity: 1; stroke-width: 1px;"/><g class="ytick"><text text-anchor="end" x="60.6" y="7.699999999999999" transform="translate(0,428)" style="font-family: 'Times New Roman', monospace; font-size: 22px; fill: rgb(105, 105, 105); fill-opacity: 1; white-space: pre; opacity: 1;">1.6</text></g><g class="ytick"><text text-anchor="end" x="60.6" y="7.699999999999999" style="font-family: 'Times New Roman', monospace; font-size: 22px; fill: rgb(105, 105, 105); fill-opacity: 1; white-space: pre; opacity: 1;" transform="translate(0,344.8)">1.8</text></g><g class="ytick"><text text-anchor="end" x="60.6" y="7.699999999999999" style="font-family: 'Times New Roman', monospace; font-size: 22px; fill: rgb(105, 105, 105); fill-opacity: 1; white-space: pre; opacity: 1;" transform="translate(0,261.6)">2</text></g><g class="ytick"><text text-anchor="end" x="60.6" y="7.699999999999999" style="font-family: 'Times New Roman', monospace; font-size: 22px; fill: rgb(105, 105, 105); fill-opacity: 1; white-space: pre; opacity: 1;" transform="translate(0,178.4)">2.2</text></g><g class="ytick"><text text-anchor="end" x="60.6" y="7.699999999999999" style="font-family: 'Times New Roman', monospace; font-size: 22px; fill: rgb(105, 105, 105); fill-opacity: 1; white-space: pre; opacity: 1;" transform="translate(0,95.2)">2.4</text></g><g class="ytick"><text text-anchor="end" x="60.6" y="7.699999999999999" style="font-family: 'Times New Roman', monospace; font-size: 22px; fill: rgb(105, 105, 105); fill-opacity: 1; white-space: pre; opacity: 0;" transform="translate(0,12)">2.6</text></g></g><g class="overaxes-above"/></g></g><g class="polarlayer"/><g class="smithlayer"/><g class="ternarylayer"/><g class="geolayer"/><g class="funnelarealayer"/><g class="pielayer"/><g class="iciclelayer"/><g class="treemaplayer"/><g class="sunburstlayer"/><g class="glimages"/><defs id="topdefs-f96a13"><g class="clips"/><clipPath id="legendf96a13"><rect width="185" height="137" x="0" y="0"/></clipPath></defs><g class="layer-above"><g class="imagelayer"/><g class="shapelayer"/></g><g class="infolayer"><g class="legend" pointer-events="all" transform="translate(72,16.160000000000004)"><rect class="bg" shape-rendering="crispEdges" width="185" height="137" x="0" y="0" style="stroke: rgb(68, 68, 68); stroke-opacity: 1; fill: rgb(255, 255, 255); fill-opacity: 1; stroke-width: 0px;"/><g class="scrollbox" transform="" clip-path="url(#legendf96a13)"><g class="groups"><g class="traces" transform="translate(0,20.8)" style="opacity: 1;"><text class="legendtext" text-anchor="start" x="40" y="8.58" style="font-family: 'Times New Roman', monospace; font-size: 22px; fill: rgb(105, 105, 105); fill-opacity: 1; white-space: pre;">IrO<tspan style="font-size:70%" dy="0.3em">x</tspan><tspan dy="-0.21em"></tspan></text><g class="layers" style="opacity: 1;"><g class="legendfill"/><g class="legendlines"><path class="js-line" d="M5,0h30" style="fill: none; stroke: rgb(46, 145, 229); stroke-opacity: 1; stroke-width: 2px;"/></g><g class="legendsymbols"><g class="legendpoints"/></g></g><rect class="legendtoggle" x="0" y="-15.8" width="179.765625" height="31.6" style="fill: rgb(0, 0, 0); fill-opacity: 0;"/></g><g class="traces" transform="translate(0,52.400000000000006)" style="opacity: 1;"><text class="legendtext" text-anchor="start" x="40" y="8.58" style="font-family: 'Times New Roman', monospace; font-size: 22px; fill: rgb(105, 105, 105); fill-opacity: 1; white-space: pre;">NiCoFeO<tspan style="font-size:70%" dy="0.3em">x</tspan><tspan dy="-0.21em"></tspan></text><g class="layers" style="opacity: 1;"><g class="legendfill"/><g class="legendlines"><path class="js-line" d="M5,0h30" style="fill: none; stroke: rgb(225, 95, 153); stroke-opacity: 1; stroke-width: 2px;"/></g><g class="legendsymbols"><g class="legendpoints"/></g></g><rect class="legendtoggle" x="0" y="-15.8" width="179.765625" height="31.6" style="fill: rgb(0, 0, 0); fill-opacity: 0;"/></g><g class="traces" transform="translate(0,84)" style="opacity: 1;"><text class="legendtext" text-anchor="start" x="40" y="8.58" style="font-family: 'Times New Roman', monospace; font-size: 22px; fill: rgb(105, 105, 105); fill-opacity: 1; white-space: pre;">Co<tspan style="font-size:70%" dy="0.3em">57</tspan><tspan dy="-0.21em"></tspan>Ni<tspan style="font-size:70%" dy="0.3em">14</tspan><tspan dy="-0.21em"></tspan>Fe<tspan style="font-size:70%" dy="0.3em">29</tspan><tspan dy="-0.21em"></tspan>N<tspan style="font-size:70%" dy="0.3em">x</tspan><tspan dy="-0.21em"></tspan></text><g class="layers" style="opacity: 1;"><g class="legendfill"/><g class="legendlines"><path class="js-line" d="M5,0h30" style="fill: none; stroke: rgb(28, 167, 28); stroke-opacity: 1; stroke-width: 2px;"/></g><g class="legendsymbols"><g class="legendpoints"/></g></g><rect class="legendtoggle" x="0" y="-15.8" width="179.765625" height="31.6" style="fill: rgb(0, 0, 0); fill-opacity: 0;"/></g><g class="traces" transform="translate(0,115.60000000000001)" style="opacity: 1;"><text class="legendtext" text-anchor="start" x="40" y="8.58" style="font-family: 'Times New Roman', monospace; font-size: 22px; fill: rgb(105, 105, 105); fill-opacity: 1; white-space: pre;">Co<tspan style="font-size:70%" dy="0.3em">45</tspan><tspan dy="-0.21em"></tspan>Ni<tspan style="font-size:70%" dy="0.3em">45</tspan><tspan dy="-0.21em"></tspan>Fe<tspan style="font-size:70%" dy="0.3em">10</tspan><tspan dy="-0.21em"></tspan>N<tspan style="font-size:70%" dy="0.3em">x</tspan><tspan dy="-0.21em"></tspan></text><g class="layers" style="opacity: 1;"><g class="legendfill"/><g class="legendlines"><path class="js-line" d="M5,0h30" style="fill: none; stroke: rgb(182, 129, 0); stroke-opacity: 1; stroke-width: 2px;"/></g><g class="legendsymbols"><g class="legendpoints"/></g></g><rect class="legendtoggle" x="0" y="-15.8" width="179.765625" height="31.6" style="fill: rgb(0, 0, 0); fill-opacity: 0;"/></g></g></g><rect class="scrollbar" rx="20" ry="3" width="0" height="0" x="0" y="0" style="fill: rgb(128, 139, 164); fill-opacity: 1;"/></g><g class="g-gtitle"/><g class="g-xtitle" transform="translate(0,-5.606249999999989)"><text class="xtitle" x="280.5" y="499.60625" text-anchor="middle" style="font-family: 'Times New Roman', monospace; font-size: 26px; fill: rgb(105, 105, 105); opacity: 1; font-weight: normal; white-space: pre;">Time (h)</text></g><g class="g-ytitle" transform="translate(23.1064453125,0)"><text class="ytitle" transform="rotate(-90,-0.10625000000000284,220)" x="-0.10625000000000284" y="220" text-anchor="middle" style="font-family: 'Times New Roman', monospace; font-size: 26px; fill: rgb(105, 105, 105); opacity: 1; font-weight: normal; white-space: pre;">Cell Potential (V)</text></g></g></svg>