<svg class="main-svg" xmlns="http://www.w3.org/2000/svg" xmlns:xlink="http://www.w3.org/1999/xlink" width="500" height="500" style="" viewBox="0 0 500 500"><rect x="0" y="0" width="500" height="500" style="fill: rgb(0, 0, 0); fill-opacity: 0;"/><defs id="defs-3cb9e5"><g class="clips"><clipPath id="clip3cb9e5xyplot" class="plotclip"><rect width="340" height="320"/></clipPath><clipPath class="axesclip" id="clip3cb9e5x"><rect x="80" y="0" width="340" height="500"/></clipPath><clipPath class="axesclip" id="clip3cb9e5y"><rect x="0" y="100" width="500" height="320"/></clipPath><clipPath class="axesclip" id="clip3cb9e5xy"><rect x="80" y="100" width="340" height="320"/></clipPath></g><g class="gradients"/><g class="patterns"/></defs><g class="bglayer"><rect class="bg" x="80" y="100" width="340" height="320" style="fill: rgb(0, 0, 0); fill-opacity: 0; stroke-width: 0;"/></g><g class="layer-below"><g class="imagelayer"/><g class="shapelayer"/></g><g class="cartesianlayer"><g class="subplot xy"><g class="layer-subplot"><g class="shapelayer"/><g class="imagelayer"/></g><g class="minor-gridlayer"><g class="x"/><g class="y"/></g><g class="gridlayer"><g class="x"/><g class="y"/></g><g class="zerolinelayer"/><path class="xlines-below"/><path class="ylines-below"/><g class="overlines-below"/><g class="xaxislayer-below"/><g class="yaxislayer-below"/><g class="overaxes-below"/><g class="plot" transform="translate(80,100)" clip-path="url(#clip3cb9e5xyplot)"><g class="scatterlayer mlayer"><g class="trace scatter trace18b780" style="stroke-miterlimit: 2; opacity: 1;"><g class="fills"/><g class="errorbars"/><g class="lines"><path class="js-line" d="M-239.91,584.19L-62.66,569.15L16.95,511.3L49.8,450.51L67.99,404.84L80.41,334.4L84.44,320.88L89.54,310.19L95.11,301.08L102.26,292.67L111.05,284.3L121.74,276.12L135.6,267.23L152.91,258.6L174.79,252.85L199.28,252.18L222.43,257.03L241.59,266.75L254.55,277.24L278.97,307.64L281.2,308.55L281.52,312.02L283.93,311.88L287.16,313.23L285.76,313.79L286.64,317.93L288.44,315.31L286.87,317.24L287.78,316.07L286.94,314.21L285.73,314" style="vector-effect: non-scaling-stroke; fill: none; stroke: rgb(225, 95, 153); stroke-opacity: 1; stroke-width: 2px; opacity: 1;"/></g><g class="points"/><g class="text"/></g><g class="trace scatter tracecd25dc" style="stroke-miterlimit: 2; opacity: 1;"><g class="fills"/><g class="errorbars"/><g class="lines"><path class="js-line" d="M-320.75,641.27L-100.88,641.03L2.68,565.09L37.68,491.27L57.35,436.81L62.58,374.29L63.09,354.62L65.58,331.08L67.03,323.81L70.65,312.89L73.02,307.95L80.83,296.51L87.01,289.13L96.68,281.22L110.66,273.1L129.27,268.52L149.43,270.07L166.72,277.62L177.82,287.17L195,312.65L196.6,313.52L196.88,315.51L197.87,317.02L200.45,316.38L200.64,318.2L202.38,316.76L203.2,316.1L202.7,316.56" style="vector-effect: non-scaling-stroke; fill: none; stroke: rgb(28, 167, 28); stroke-opacity: 1; stroke-width: 2px; opacity: 1;"/></g><g class="points"/><g class="text"/></g><g class="trace scatter traceb2f765" style="stroke-miterlimit: 2; opacity: 1;"><g class="fills"/><g class="errorbars"/><g class="lines"><path class="js-line" d="M-306.18,645.92L-94.32,639.74L2.56,562.09L38.14,490.25L58.9,433.58L69.46,344.81L73.3,328.69L77.69,316.45L83.42,306.25L90.05,297.57L98.28,289.37L108.2,281.74L120.08,274.03L134.97,266.67L153.48,260.62L174.32,257.88L195.72,260.64L214.69,266.57L228.62,274.73L239.93,282.45L247.75,289.41L253.86,294.97L258.18,300.17L261.66,304.37L265.19,307.42L267.83,312.42L269.58,314.11L268.98,315.23L269.79,316.96L272.85,315.67L272.38,316.56L274.11,316.79" style="vector-effect: non-scaling-stroke; fill: none; stroke: rgb(182, 129, 0); stroke-opacity: 1; stroke-width: 2px; opacity: 1;"/></g><g class="points"/><g class="text"/></g></g></g><g class="overplot"/><path class="xlines-above crisp" d="M78,421H420" style="fill: none; stroke-width: 2px; stroke: rgb(0, 0, 0); stroke-opacity: 1;"/><path class="ylines-above crisp" d="M79,100V420" style="fill: none; stroke-width: 2px; stroke: rgb(0, 0, 0); stroke-opacity: 1;"/><g class="overlines-above"/><g class="xaxislayer-above"><path class="xtick ticks crisp" d="M0,422v5" transform="translate(80,0)" style="stroke: rgb(68, 68, 68); stroke-opacity: 1; stroke-width: 1px;"/><path class="xtick ticks crisp" d="M0,422v5" transform="translate(136.67000000000002,0)" style="stroke: rgb(68, 68, 68); stroke-opacity: 1; stroke-width: 1px;"/><path class="xtick ticks crisp" d="M0,422v5" transform="translate(193.32999999999998,0)" style="stroke: rgb(68, 68, 68); stroke-opacity: 1; stroke-width: 1px;"/><path class="xtick ticks crisp" d="M0,422v5" transform="translate(250,0)" style="stroke: rgb(68, 68, 68); stroke-opacity: 1; stroke-width: 1px;"/><path class="xtick ticks crisp" d="M0,422v5" transform="translate(306.66999999999996,0)" style="stroke: rgb(68, 68, 68); stroke-opacity: 1; stroke-width: 1px;"/><path class="xtick ticks crisp" d="M0,422v5" transform="translate(363.33,0)" style="stroke: rgb(68, 68, 68); stroke-opacity: 1; stroke-width: 1px;"/><path class="xtick ticks crisp" d="M0,422v5" transform="translate(420,0)" style="stroke: rgb(68, 68, 68); stroke-opacity: 1; stroke-width: 1px;"/><g class="xtick"><text text-anchor="middle" x="0" y="448.6" transform="translate(80,0)" style="font-family: 'Times New Roman', monospace; font-size: 18px; fill: rgb(105, 105, 105); fill-opacity: 1; white-space: pre; opacity: 1;">0</text></g><g class="xtick"><text text-anchor="middle" x="0" y="448.6" style="font-family: 'Times New Roman', monospace; font-size: 18px; fill: rgb(105, 105, 105); fill-opacity: 1; white-space: pre; opacity: 1;" transform="translate(136.67000000000002,0)">0.1</text></g><g class="xtick"><text text-anchor="middle" x="0" y="448.6" style="font-family: 'Times New Roman', monospace; font-size: 18px; fill: rgb(105, 105, 105); fill-opacity: 1; white-space: pre; opacity: 1;" transform="translate(193.32999999999998,0)">0.2</text></g><g class="xtick"><text text-anchor="middle" x="0" y="448.6" style="font-family: 'Times New Roman', monospace; font-size: 18px; fill: rgb(105, 105, 105); fill-opacity: 1; white-space: pre; opacity: 1;" transform="translate(250,0)">0.3</text></g><g class="xtick"><text text-anchor="middle" x="0" y="448.6" style="font-family: 'Times New Roman', monospace; font-size: 18px; fill: rgb(105, 105, 105); fill-opacity: 1; white-space: pre; opacity: 1;" transform="translate(306.66999999999996,0)">0.4</text></g><g class="xtick"><text text-anchor="middle" x="0" y="448.6" style="font-family: 'Times New Roman', monospace; font-size: 18px; fill: rgb(105, 105, 105); fill-opacity: 1; white-space: pre; opacity: 1;" transform="translate(363.33,0)">0.5</text></g><g class="xtick"><text text-anchor="middle" x="0" y="448.6" style="font-family: 'Times New Roman', monospace; font-size: 18px; fill: rgb(105, 105, 105); fill-opacity: 1; white-space: pre; opacity: 1;" transform="translate(420,0)">0.6</text></g></g><g class="yaxislayer-above"><path class="ytick ticks crisp" d="M78,0h-5" transform="translate(0,420)" style="stroke: rgb(68, 68, 68); stroke-opacity: 1; stroke-width: 1px;"/><path class="ytick ticks crisp" d="M78,0h-5" transform="translate(0,366.67)" style="stroke: rgb(68, 68, 68); stroke-opacity: 1; stroke-width: 1px;"/><path class="ytick ticks crisp" d="M78,0h-5" transform="translate(0,313.33000000000004)" style="stroke: rgb(68, 68, 68); stroke-opacity: 1; stroke-width: 1px;"/><path class="ytick ticks crisp" d="M78,0h-5" transform="translate(0,260)" style="stroke: rgb(68, 68, 68); stroke-opacity: 1; stroke-width: 1px;"/><path class="ytick ticks crisp" d="M78,0h-5" transform="translate(0,206.67000000000002)" style="stroke: rgb(68, 68, 68); stroke-opacity: 1; stroke-width: 1px;"/><path class="ytick ticks crisp" d="M78,0h-5" transform="translate(0,153.32999999999998)" style="stroke: rgb(68, 68, 68); stroke-opacity: 1; stroke-width: 1px;"/><path class="ytick ticks crisp" d="M78,0h-5" transform="translate(0,100)" style="stroke: rgb(68, 68, 68); stroke-opacity: 1; stroke-width: 1px;"/><g class="ytick"><text text-anchor="end" x="69.4" y="6.3" transform="translate(0,420)" style="font-family: 'Times New Roman', monospace; font-size: 18px; fill: rgb(105, 105, 105); fill-opacity: 1; white-space: pre; opacity: 1;">0</text></g><g class="ytick"><text text-anchor="end" x="69.4" y="6.3" style="font-family: 'Times New Roman', monospace; font-size: 18px; fill: rgb(105, 105, 105); fill-opacity: 1; white-space: pre; opacity: 1;" transform="translate(0,366.67)">0.1</text></g><g class="ytick"><text text-anchor="end" x="69.4" y="6.3" style="font-family: 'Times New Roman', monospace; font-size: 18px; fill: rgb(105, 105, 105); fill-opacity: 1; white-space: pre; opacity: 1;" transform="translate(0,313.33000000000004)">0.2</text></g><g class="ytick"><text text-anchor="end" x="69.4" y="6.3" style="font-family: 'Times New Roman', monospace; font-size: 18px; fill: rgb(105, 105, 105); fill-opacity: 1; white-space: pre; opacity: 1;" transform="translate(0,260)">0.3</text></g><g class="ytick"><text text-anchor="end" x="69.4" y="6.3" style="font-family: 'Times New Roman', monospace; font-size: 18px; fill: rgb(105, 105, 105); fill-opacity: 1; white-space: pre; opacity: 1;" transform="translate(0,206.67000000000002)">0.4</text></g><g class="ytick"><text text-anchor="end" x="69.4" y="6.3" style="font-family: 'Times New Roman', monospace; font-size: 18px; fill: rgb(105, 105, 105); fill-opacity: 1; white-space: pre; opacity: 1;" transform="translate(0,153.32999999999998)">0.5</text></g><g class="ytick"><text text-anchor="end" x="69.4" y="6.3" style="font-family: 'Times New Roman', monospace; font-size: 18px; fill: rgb(105, 105, 105); fill-opacity: 1; white-space: pre; opacity: 1;" transform="translate(0,100)">0.6</text></g></g><g class="overaxes-above"/></g></g><g class="polarlayer"/><g class="smithlayer"/><g class="ternarylayer"/><g class="geolayer"/><g class="funnelarealayer"/><g class="pielayer"/><g class="iciclelayer"/><g class="treemaplayer"/><g class="sunburstlayer"/><g class="glimages"/><defs id="topdefs-3cb9e5"><g class="clips"/><clipPath id="legend3cb9e5"><rect width="185" height="105" x="0" y="0"/></clipPath></defs><g class="layer-above"><g class="imagelayer"/><g class="shapelayer"/></g><g class="infolayer"><g class="legend" pointer-events="all" transform="translate(80,103.2)"><rect class="bg" shape-rendering="crispEdges" width="185" height="105" x="0" y="0" style="stroke: rgb(68, 68, 68); stroke-opacity: 1; fill: rgb(0, 0, 0); fill-opacity: 0; stroke-width: 0px;"/><g class="scrollbox" transform="" clip-path="url(#legend3cb9e5)"><g class="groups"><g class="traces" transform="translate(0,20.8)" style="opacity: 1;"><text class="legendtext" text-anchor="start" x="40" y="8.58" style="font-family: 'Times New Roman', monospace; font-size: 22px; fill: rgb(105, 105, 105); fill-opacity: 1; white-space: pre;">NiCoFeO​<tspan style="font-size:70%" dy="0.3em">x</tspan><tspan dy="-0.21em">​</tspan></text><g class="layers" style="opacity: 1;"><g class="legendfill"/><g class="legendlines"><path class="js-line" d="M5,0h30" style="fill: none; stroke: rgb(225, 95, 153); stroke-opacity: 1; stroke-width: 2px;"/></g><g class="legendsymbols"><g class="legendpoints"/></g></g><rect class="legendtoggle" x="0" y="-15.8" width="179.765625" height="31.6" style="fill: rgb(0, 0, 0); fill-opacity: 0;"/></g><g class="traces" transform="translate(0,52.400000000000006)" style="opacity: 1;"><text class="legendtext" text-anchor="start" x="40" y="8.58" style="font-family: 'Times New Roman', monospace; font-size: 22px; fill: rgb(105, 105, 105); fill-opacity: 1; white-space: pre;">Co​<tspan style="font-size:70%" dy="0.3em">57</tspan><tspan dy="-0.21em">​</tspan>Ni​<tspan style="font-size:70%" dy="0.3em">14</tspan><tspan dy="-0.21em">​</tspan>Fe​<tspan style="font-size:70%" dy="0.3em">29</tspan><tspan dy="-0.21em">​</tspan>N​<tspan style="font-size:70%" dy="0.3em">x</tspan><tspan dy="-0.21em">​</tspan></text><g class="layers" style="opacity: 1;"><g class="legendfill"/><g class="legendlines"><path class="js-line" d="M5,0h30" style="fill: none; stroke: rgb(28, 167, 28); stroke-opacity: 1; stroke-width: 2px;"/></g><g class="legendsymbols"><g class="legendpoints"/></g></g><rect class="legendtoggle" x="0" y="-15.8" width="179.765625" height="31.6" style="fill: rgb(0, 0, 0); fill-opacity: 0;"/></g><g class="traces" transform="translate(0,84)" style="opacity: 1;"><text class="legendtext" text-anchor="start" x="40" y="8.58" style="font-family: 'Times New Roman', monospace; font-size: 22px; fill: rgb(105, 105, 105); fill-opacity: 1; white-space: pre;">Co​<tspan style="font-size:70%" dy="0.3em">45</tspan><tspan dy="-0.21em">​</tspan>Ni​<tspan style="font-size:70%" dy="0.3em">45</tspan><tspan dy="-0.21em">​</tspan>Fe​<tspan style="font-size:70%" dy="0.3em">10</tspan><tspan dy="-0.21em">​</tspan>N​<tspan style="font-size:70%" dy="0.3em">x</tspan><tspan dy="-0.21em">​</tspan></text><g class="layers" style="opacity: 1;"><g class="legendfill"/><g class="legendlines"><path class="js-line" d="M5,0h30" style="fill: none; stroke: rgb(182, 129, 0); stroke-opacity: 1; stroke-width: 2px;"/></g><g class="legendsymbols"><g class="legendpoints"/></g></g><rect class="legendtoggle" x="0" y="-15.8" width="179.765625" height="31.6" style="fill: rgb(0, 0, 0); fill-opacity: 0;"/></g></g></g><rect class="scrollbar" rx="20" ry="3" width="0" height="0" x="0" y="0" style="fill: rgb(128, 139, 164); fill-opacity: 1;"/></g><g class="g-gtitle"/><g class="g-xtitle"><text class="xtitle" x="250" y="483.009375" text-anchor="middle" style="font-family: 'Times New Roman', monospace; font-size: 22px; fill: rgb(105, 105, 105); opacity: 1; font-weight: normal; white-space: pre;">Re(Z) (ohm⋅cm​<tspan style="font-size:70%" dy="-0.6em">2</tspan><tspan dy="0.42em">​</tspan>)</text></g><g class="g-ytitle" transform="translate(6.759765625,0)"><text class="ytitle" transform="rotate(-90,16.490625,260)" x="16.490625" y="260" text-anchor="middle" style="font-family: 'Times New Roman', monospace; font-size: 22px; fill: rgb(105, 105, 105); opacity: 1; font-weight: normal; white-space: pre;">-Im(Z) (ohm⋅cm​<tspan style="font-size:70%" dy="-0.6em">2</tspan><tspan dy="0.42em">​</tspan>)</text></g></g></svg>