<svg class="main-svg" xmlns="http://www.w3.org/2000/svg" xmlns:xlink="http://www.w3.org/1999/xlink" width="500" height="500" style="" viewBox="0 0 500 500"><rect x="0" y="0" width="500" height="500" style="fill: rgb(255, 255, 255); fill-opacity: 1;"/><defs id="defs-37641d"><g class="clips"><clipPath id="clip37641dxyplot" class="plotclip"><rect width="393" height="309"/></clipPath><clipPath class="axesclip" id="clip37641dx"><rect x="86" y="0" width="393" height="500"/></clipPath><clipPath class="axesclip" id="clip37641dy"><rect x="0" y="106" width="500" height="309"/></clipPath><clipPath class="axesclip" id="clip37641dxy"><rect x="86" y="106" width="393" height="309"/></clipPath></g><g class="gradients"/><g class="patterns"/></defs><g class="bglayer"><rect class="bg" x="86" y="106" width="393" height="309" style="fill: rgb(0, 0, 0); fill-opacity: 0; stroke-width: 0;"/></g><g class="layer-below"><g class="imagelayer"/><g class="shapelayer"/></g><g class="cartesianlayer"><g class="subplot xy"><g class="layer-subplot"><g class="shapelayer"/><g class="imagelayer"/></g><g class="minor-gridlayer"><g class="x"/><g class="y"/></g><g class="gridlayer"><g class="x"/><g class="y"/></g><g class="zerolinelayer"/><path class="xlines-below"/><path class="ylines-below"/><g class="overlines-below"/><g class="xaxislayer-below"/><g class="yaxislayer-below"/><g class="overaxes-below"/><g class="plot" transform="translate(86,106)" clip-path="url(#clip37641dxyplot)"><g class="scatterlayer mlayer"><g class="trace scatter trace94a4d0" style="stroke-miterlimit: 2; opacity: 1;"><g class="fills"/><g class="errorbars"/><g class="lines"><path class="js-line" d="M0,106.18L0.27,76.67L0.75,77.13L0.76,77.12L0.8,77.91L1.51,76.23L1.51,76.41L1.52,76.44L1.95,77.22L2.05,74.53L2.27,76.23L2.28,76.21L2.61,76.92L3.03,75.84L3.03,76.01L3.04,76L3.26,76.7L3.71,75.8L3.79,76.03L3.8,76.04L3.87,75.71L4.21,76.57L4.55,76.09L4.56,76.05L4.59,75.78L5.06,77.08L5.31,75.92L5.32,75.9L5.74,85.31L5.97,75.4L6.07,75.58L6.08,75.62L6.8,76.38L6.84,76.06L6.84,76.03L7.04,75.84L7.39,76.49L7.59,76.08L7.6,76.09L7.72,75.94L7.98,76.59L8.35,76.22L8.36,76.24L8.48,76.19L8.85,76.8L9.11,76.67L9.12,76.62L9.3,76.39L9.51,76.9L9.86,76.74L9.86,76.76L10.05,76.46L10.25,77.47L10.59,77L10.6,76.95L10.64,76.9L10.9,78.83L10.9,80.05L10.91,86.85L10.98,76.83L11.59,77.38L11.6,77.4L11.71,77.47L12.04,77.06L12.3,77.6L12.3,77.64L12.5,77.39L12.78,77.9L13.07,77.61L13.07,77.63L13.21,77.87L13.84,77.46L13.9,77.7L13.9,77.77L13.9,77.61L14.3,78.13L14.65,77.74L14.66,77.78L14.88,77.61L15.41,78.32L15.43,78.17L15.44,78.19L16.04,78.81L16.04,77.08L16.04,76.7L16.04,76.12L16.77,79.14L16.79,79.01L16.8,79.01L17.75,79.42L17.77,79.24L17.77,79.23L17.95,79.14L18.52,80L18.58,79.71L18.58,79.63L18.97,79.41L19.14,88.67L19.33,79.78L19.34,79.79L19.49,80.05L19.95,79.86L20.02,80.09L20.02,80.12L20.48,79.77L20.61,80.32L20.76,80.17L20.77,80.17L21.26,79.93L21.43,80.52L21.48,80.39L21.48,80.42L21.8,80.15L21.98,80.68L22.22,80.46L22.23,80.46L22.61,80.88L22.89,80.57L22.93,80.73L22.93,80.77L23.31,80.41L23.54,81.04L23.65,80.95L23.65,81.01L23.9,80.89L24.55,81.43L24.55,81.36L24.55,81.29L24.64,81.2L25.38,81.6L25.41,81.48L25.41,81.42L25.48,81.37L25.87,81.88L26.28,81.63L26.28,81.55L26.74,82.08L27.03,81.67L27.04,81.66L27.55,82.19L27.8,81.96L27.81,81.95L27.82,81.93L27.91,91.71L28.05,82.12L28.06,82.07L28.13,82.02L28.46,82.42L28.82,82.05L28.83,82.08L28.95,82.23L29.11,81.45L29.11,80.97L29.11,78.61L29.45,82.63L29.86,82.25L29.87,82.26L29.93,82.55L29.93,82.48" style="vector-effect: non-scaling-stroke; fill: none; stroke: rgb(46, 145, 229); stroke-opacity: 1; stroke-width: 3px; opacity: 1;"/></g><g class="points"/><g class="text"/></g><g class="trace scatter trace86538a" style="stroke-miterlimit: 2; opacity: 1;"><g class="fills"/><g class="errorbars"/><g class="lines"><path class="js-line" d="M0,86.41L0.01,78.84L0.18,93.34L0.75,82.46L0.76,82.47L0.77,82.03L1.47,84.67L1.51,84.6L1.52,84.55L1.6,84.09L2.26,86.31L2.27,85.93L2.28,85.94L2.29,85.66L3.03,87.82L3.03,87.65L3.04,87.62L3.04,87.33L3.04,98.14L3.79,89.25L3.8,89.28L3.88,88.79L4.51,90.24L4.55,89.82L4.56,89.9L4.57,89.43L5.31,90.93L5.31,90.74L5.32,90.7L5.34,90.21L6.07,91.5L6.07,91.39L6.08,91.36L6.19,90.73L6.83,91.6L6.83,91.29L6.84,91.32L6.85,90.98L7.41,92.57L7.59,92.23L7.6,92.16L7.62,91.74L8.29,101.74L8.35,93.22L8.36,93.23L8.5,92.61L9.11,93.93L9.11,93.61L9.12,93.58L9.14,93.34L9.87,94.21L9.87,94.1L9.88,94.14L9.94,90.84L10.63,94.54L10.63,94.22L10.64,94.22L10.71,94.02L11.34,94.94L11.39,94.55L11.4,94.5L11.42,94.28L12.1,95.22L12.15,94.72L12.16,94.75L12.6,95.23L12.87,94.39L12.91,94.84L12.92,94.76L12.92,94.51L13.26,95.58L13.67,95.32L13.68,95.39L13.7,95.01L14.28,95.85L14.43,95.54L14.44,95.54L14.95,95L15.15,96.03L15.19,95.85L15.2,95.88L15.44,104.24L15.83,95.46L15.95,95.94L15.96,95.93L16.08,95.43L16.58,96.61L16.71,96.32L16.72,96.46L16.74,95.95L17.43,96.78L17.47,96.47L17.48,96.41L17.84,95.99L18.09,96.87L18.23,96.39L18.24,96.41L18.35,96.22L18.58,97.04L18.99,96.82L19,96.79L19.04,97.03L19.64,96.21L19.75,96.49L19.76,96.55L19.77,96.36L20.29,97.32L20.51,96.99L20.52,96.99L20.64,96.65L21.18,97.43L21.27,96.99L21.28,96.99L21.54,105.36L21.71,94.46L22.03,97.82L22.04,97.85L22.21,98.02L22.73,97.19L22.79,97.38L22.8,97.43L22.82,97.21L23.42,98.18L23.55,97.71L23.56,97.67L23.56,97.54L23.81,98.27L24.31,97.97L24.32,97.95L24.38,98.29L24.55,97.54L25.07,97.9L25.08,97.88L25.1,98.22L25.83,97.29L25.83,97.61L25.84,97.56L25.94,97.22L26.11,98.37L26.59,98.03L26.6,97.94L26.72,97.5L26.97,105.82L27.35,98.18L27.36,98.26L27.46,98.5L27.51,97.83L27.51,98.01" style="vector-effect: non-scaling-stroke; fill: none; stroke: rgb(225, 95, 153); stroke-opacity: 1; stroke-width: 3px; opacity: 1;"/></g><g class="points"/><g class="text"/></g><g class="trace scatter tracedc7df8" style="stroke-miterlimit: 2; opacity: 1;"><g class="fills"/><g class="errorbars"/><g class="lines"><path class="js-line" d="M0,124.13L0.75,118.08L0.75,118.11L0.76,118.11L1.34,115.63L1.34,118.67L1.34,119.76L1.34,123.44L2.09,113.33L2.09,113.34L2.1,113.35L3.32,111L3.32,111.04L3.32,111.1L4.28,109.35L4.29,109.38L4.29,109.43L5.54,107.97L5.62,108.14L5.62,108.2L6.65,106.77L6.65,106.83L6.65,106.88L7.39,106.21L7.4,106.25L7.41,106.25L8.25,105.48L8.44,105.68L8.44,105.72L8.83,105.21L8.85,110.92L8.85,112.21L8.85,114.13L9.58,104.58L9.6,104.59L9.61,104.59L9.84,104.35L10,104.76L10.33,104.38L10.33,104.32L10.55,104.5L11.2,103.98L11.21,104.1L11.21,104.13L11.3,104.2L12.06,103.42L12.12,103.71L12.12,103.74L12.2,103.84L12.8,103.12L12.94,103.43L12.94,103.47L13.23,102.03L13.74,103.04L13.74,103.07L14.18,103.07L14.34,102.69L14.39,102.75L14.4,102.72L14.69,103.06L15.41,102.44L15.48,102.61L15.48,102.68L16.82,102.26L16.83,102.42L16.83,102.47L16.95,102.56L17.5,102.1L17.6,102.15L17.6,102.21L17.86,101.8L17.99,106.63L17.99,107.91L17.99,111.05L18.74,101.85L18.75,101.87L19.02,102.29L19.58,101.74L19.58,101.82L19.58,101.86L20,101.43L20.2,102.07L20.33,101.93L20.34,101.91L21.11,101.53L21.16,101.85L21.16,101.92L21.44,102.05L22.03,101.48L22.06,101.6L22.06,101.69L22.4,101.35L22.62,101.81L22.82,101.62L22.82,101.64L23.45,101.17L23.62,101.69L23.62,101.72L23.67,101.78L24.37,101.33L24.41,101.54L24.41,101.61L24.65,101.72L25.08,100.01L25.17,101.33L25.18,101.31L25.36,100.97L25.65,101.6L25.95,101.27L25.95,101.3L26.71,101.54L26.86,101.29L26.86,101.24L27.41,100.88L27.44,110.25L27.57,100.99L27.58,100.98L27.94,100.62L28.1,101.3L28.37,100.93L28.37,100.97L28.83,100.67L28.94,101.16L29.13,100.98L29.13,101L29.44,101.13L30.02,100.53L30.05,100.69L30.05,100.72L30.21,100.95L30.68,100.4L30.74,100.5L30.74,100.43L31.02,100.87L31.53,100.6" style="vector-effect: non-scaling-stroke; fill: none; stroke: rgb(28, 167, 28); stroke-opacity: 1; stroke-width: 3px; opacity: 1;"/></g><g class="points"/><g class="text"/></g><g class="trace scatter trace4b32ae" style="stroke-miterlimit: 2; opacity: 1;"><g class="fills"/><g class="errorbars"/><g class="lines"><path class="js-line" d="M0,98.06L0.73,90.16L0.75,90.19L0.76,90.18L1.19,99.7L1.51,89.01L1.51,89.16L1.52,89.16L1.52,89.31L2.2,88.19L2.27,88.47L2.28,88.46L2.3,88.55L2.98,87.67L3.03,87.94L3.04,87.93L3.21,88.03L3.77,87.24L3.81,87.5L3.81,87.52L3.99,87.72L4.48,87.03L4.56,87.28L4.57,87.29L4.7,87L4.95,97.11L5.32,87.38L5.33,87.37L5.34,87.48L6.01,86.85L6.1,87.07L6.1,87.1L6.25,87.21L6.52,86.63L6.85,86.89L6.86,86.9L7.16,87.05L7.51,86.46L7.61,86.81L7.62,86.8L7.73,86.96L7.85,86.49L8.37,86.83L8.37,86.85L8.4,86.95L8.4,84.93L9.02,86.77L9.03,86.77L9.29,86.33L9.69,96.55L9.78,86.6L9.79,86.57L10.3,86.26L10.55,86.76L10.55,86.53L10.55,86.52L10.63,86.77L11.08,86.26L11.3,86.57L11.31,86.55L11.52,86.72L11.96,86.08L12.07,86.38L12.08,86.37L12.09,86.21L12.82,86.69L12.83,86.54L12.84,86.53L12.9,86.62L13.55,86.07L13.61,86.38L13.61,86.41L13.67,86.58L14.05,86.06L14.34,86.56L14.34,86.57L14.41,86.66L14.95,86.12L15.09,86.45L15.1,86.45L15.14,86.32L15.24,92.07L15.24,92.21L15.24,96.29L15.5,86.03L15.99,86.26L16,86.27L16.31,86.03L16.6,86.68L16.75,86.44L16.76,86.46L16.9,86.72L17.46,86.22L17.51,86.39L17.52,86.38L17.77,86.03L17.97,86.75L18.21,86.7L18.21,86.73L18.23,86.8L18.9,86.16L18.96,86.34L18.97,86.37L19.42,86.23L19.54,86.67L19.72,86.34L19.72,86.3L19.73,86.19L20.41,95.84L20.47,86.34L20.48,86.38L20.52,86.59L21.01,86.03L21.22,86.22L21.22,86.2L21.34,84.14L21.68,86.64L21.97,86.23L21.98,86.24L22.06,86.08L22.21,86.58L22.73,86.47L22.74,86.47L22.99,86.23L23.29,86.62L23.43,86.25L23.43,86.2L23.6,86.06L23.72,86.66L24.19,86.38L24.19,86.35L24.62,86.09L24.92,86.62L24.94,86.34L24.94,86.33L25.24,86.63L25.31,86.17L25.69,86.41L25.7,86.39L26.11,95.62L26.35,86.04L26.45,86.11L26.46,86.11L26.77,85.79L27.17,86.73L27.17,86.74L27.26,86.46L27.27,86.51" style="vector-effect: non-scaling-stroke; fill: none; stroke: rgb(182, 129, 0); stroke-opacity: 1; stroke-width: 3px; opacity: 1;"/></g><g class="points"/><g class="text"/></g></g></g><g class="overplot"/><path class="xlines-above crisp" d="M84,416H479" style="fill: none; stroke-width: 2px; stroke: rgb(0, 0, 0); stroke-opacity: 1;"/><path class="ylines-above crisp" d="M85,106V415" style="fill: none; stroke-width: 2px; stroke: rgb(0, 0, 0); stroke-opacity: 1;"/><g class="overlines-above"/><g class="xaxislayer-above"><path class="xtick ticks crisp" d="M0,417v5" transform="translate(86,0)" style="stroke: rgb(68, 68, 68); stroke-opacity: 1; stroke-width: 1px;"/><path class="xtick ticks crisp" d="M0,417v5" transform="translate(164.6,0)" style="stroke: rgb(68, 68, 68); stroke-opacity: 1; stroke-width: 1px;"/><path class="xtick ticks crisp" d="M0,417v5" transform="translate(243.2,0)" style="stroke: rgb(68, 68, 68); stroke-opacity: 1; stroke-width: 1px;"/><path class="xtick ticks crisp" d="M0,417v5" transform="translate(321.8,0)" style="stroke: rgb(68, 68, 68); stroke-opacity: 1; stroke-width: 1px;"/><path class="xtick ticks crisp" d="M0,417v5" transform="translate(400.4,0)" style="stroke: rgb(68, 68, 68); stroke-opacity: 1; stroke-width: 1px;"/><path class="xtick ticks crisp" d="M0,417v5" transform="translate(479,0)" style="stroke: rgb(68, 68, 68); stroke-opacity: 1; stroke-width: 1px;"/><g class="xtick"><text text-anchor="middle" x="0" y="455.6" transform="translate(86,0)" style="font-family: 'Times New Roman', monospace; font-size: 28px; fill: rgb(0, 0, 0); fill-opacity: 1; white-space: pre; opacity: 1;">0</text></g><g class="xtick"><text text-anchor="middle" x="0" y="455.6" style="font-family: 'Times New Roman', monospace; font-size: 28px; fill: rgb(0, 0, 0); fill-opacity: 1; white-space: pre; opacity: 1;" transform="translate(164.6,0)">50</text></g><g class="xtick"><text text-anchor="middle" x="0" y="455.6" style="font-family: 'Times New Roman', monospace; font-size: 28px; fill: rgb(0, 0, 0); fill-opacity: 1; white-space: pre; opacity: 1;" transform="translate(243.2,0)">100</text></g><g class="xtick"><text text-anchor="middle" x="0" y="455.6" style="font-family: 'Times New Roman', monospace; font-size: 28px; fill: rgb(0, 0, 0); fill-opacity: 1; white-space: pre; opacity: 1;" transform="translate(321.8,0)">150</text></g><g class="xtick"><text text-anchor="middle" x="0" y="455.6" style="font-family: 'Times New Roman', monospace; font-size: 28px; fill: rgb(0, 0, 0); fill-opacity: 1; white-space: pre; opacity: 1;" transform="translate(400.4,0)">200</text></g><g class="xtick"><text text-anchor="middle" x="0" y="455.6" style="font-family: 'Times New Roman', monospace; font-size: 28px; fill: rgb(0, 0, 0); fill-opacity: 1; white-space: pre; opacity: 1;" transform="translate(479,0)">250</text></g></g><g class="yaxislayer-above"><path class="ytick ticks crisp" d="M84,0h-5" transform="translate(0,415)" style="stroke: rgb(68, 68, 68); stroke-opacity: 1; stroke-width: 1px;"/><path class="ytick ticks crisp" d="M84,0h-5" transform="translate(0,376.38)" style="stroke: rgb(68, 68, 68); stroke-opacity: 1; stroke-width: 1px;"/><path class="ytick ticks crisp" d="M84,0h-5" transform="translate(0,337.75)" style="stroke: rgb(68, 68, 68); stroke-opacity: 1; stroke-width: 1px;"/><path class="ytick ticks crisp" d="M84,0h-5" transform="translate(0,299.13)" style="stroke: rgb(68, 68, 68); stroke-opacity: 1; stroke-width: 1px;"/><path class="ytick ticks crisp" d="M84,0h-5" transform="translate(0,260.5)" style="stroke: rgb(68, 68, 68); stroke-opacity: 1; stroke-width: 1px;"/><path class="ytick ticks crisp" d="M84,0h-5" transform="translate(0,221.88)" style="stroke: rgb(68, 68, 68); stroke-opacity: 1; stroke-width: 1px;"/><path class="ytick ticks crisp" d="M84,0h-5" transform="translate(0,183.25)" style="stroke: rgb(68, 68, 68); stroke-opacity: 1; stroke-width: 1px;"/><path class="ytick ticks crisp" d="M84,0h-5" transform="translate(0,144.62)" style="stroke: rgb(68, 68, 68); stroke-opacity: 1; stroke-width: 1px;"/><path class="ytick ticks crisp" d="M84,0h-5" transform="translate(0,106)" style="stroke: rgb(68, 68, 68); stroke-opacity: 1; stroke-width: 1px;"/><g class="ytick"><text text-anchor="end" x="73.4" y="9.799999999999999" transform="translate(0,415)" style="font-family: 'Times New Roman', monospace; font-size: 28px; fill: rgb(0, 0, 0); fill-opacity: 1; white-space: pre; opacity: 1;">1.5</text></g><g class="ytick"><text text-anchor="end" x="73.4" y="9.799999999999999" style="font-family: 'Times New Roman', monospace; font-size: 28px; fill: rgb(0, 0, 0); fill-opacity: 1; white-space: pre; opacity: 1;" transform="translate(0,376.38)">1.6</text></g><g class="ytick"><text text-anchor="end" x="73.4" y="9.799999999999999" style="font-family: 'Times New Roman', monospace; font-size: 28px; fill: rgb(0, 0, 0); fill-opacity: 1; white-space: pre; opacity: 1;" transform="translate(0,337.75)">1.7</text></g><g class="ytick"><text text-anchor="end" x="73.4" y="9.799999999999999" style="font-family: 'Times New Roman', monospace; font-size: 28px; fill: rgb(0, 0, 0); fill-opacity: 1; white-space: pre; opacity: 1;" transform="translate(0,299.13)">1.8</text></g><g class="ytick"><text text-anchor="end" x="73.4" y="9.799999999999999" style="font-family: 'Times New Roman', monospace; font-size: 28px; fill: rgb(0, 0, 0); fill-opacity: 1; white-space: pre; opacity: 1;" transform="translate(0,260.5)">1.9</text></g><g class="ytick"><text text-anchor="end" x="73.4" y="9.799999999999999" style="font-family: 'Times New Roman', monospace; font-size: 28px; fill: rgb(0, 0, 0); fill-opacity: 1; white-space: pre; opacity: 1;" transform="translate(0,221.88)">2</text></g><g class="ytick"><text text-anchor="end" x="73.4" y="9.799999999999999" style="font-family: 'Times New Roman', monospace; font-size: 28px; fill: rgb(0, 0, 0); fill-opacity: 1; white-space: pre; opacity: 1;" transform="translate(0,183.25)">2.1</text></g><g class="ytick"><text text-anchor="end" x="73.4" y="9.799999999999999" style="font-family: 'Times New Roman', monospace; font-size: 28px; fill: rgb(0, 0, 0); fill-opacity: 1; white-space: pre; opacity: 1;" transform="translate(0,144.62)">2.2</text></g><g class="ytick"><text text-anchor="end" x="73.4" y="9.799999999999999" style="font-family: 'Times New Roman', monospace; font-size: 28px; fill: rgb(0, 0, 0); fill-opacity: 1; white-space: pre; opacity: 1;" transform="translate(0,106)">2.3</text></g></g><g class="overaxes-above"/></g></g><g class="polarlayer"/><g class="smithlayer"/><g class="ternarylayer"/><g class="geolayer"/><g class="funnelarealayer"/><g class="pielayer"/><g class="iciclelayer"/><g class="treemaplayer"/><g class="sunburstlayer"/><g class="glimages"/><defs id="topdefs-37641d"><g class="clips"/><clipPath id="legend37641d"><rect width="224" height="168" x="0" y="0"/></clipPath></defs><g class="layer-above"><g class="imagelayer"/><g class="shapelayer"/></g><g class="infolayer"><g class="legend" pointer-events="all" transform="translate(255,0)"><rect class="bg" shape-rendering="crispEdges" width="224" height="168" x="0" y="0" style="stroke: rgb(68, 68, 68); stroke-opacity: 1; fill: rgb(255, 255, 255); fill-opacity: 1; stroke-width: 0px;"/><g class="scrollbox" transform="" clip-path="url(#legend37641d)"><g class="groups"><g class="traces" transform="translate(0,24.7)" style="opacity: 1;"><text class="legendtext" text-anchor="start" x="40" y="10.92" style="font-family: 'Times New Roman', monospace; font-size: 28px; fill: rgb(0, 0, 0); fill-opacity: 1; white-space: pre;">IrO​<tspan style="font-size:70%" dy="0.3em">x</tspan><tspan dy="-0.21em">​</tspan></text><g class="layers" style="opacity: 1;"><g class="legendfill"/><g class="legendlines"><path class="js-line" d="M5,0h30" style="fill: none; stroke: rgb(46, 145, 229); stroke-opacity: 1; stroke-width: 3px;"/></g><g class="legendsymbols"><g class="legendpoints"/></g></g><rect class="legendtoggle" x="0" y="-19.7" width="218.703125" height="39.4" style="fill: rgb(0, 0, 0); fill-opacity: 0;"/></g><g class="traces" transform="translate(0,64.1)" style="opacity: 1;"><text class="legendtext" text-anchor="start" x="40" y="10.92" style="font-family: 'Times New Roman', monospace; font-size: 28px; fill: rgb(0, 0, 0); fill-opacity: 1; white-space: pre;">NiCoFeO​<tspan style="font-size:70%" dy="0.3em">x</tspan><tspan dy="-0.21em">​</tspan></text><g class="layers" style="opacity: 1;"><g class="legendfill"/><g class="legendlines"><path class="js-line" d="M5,0h30" style="fill: none; stroke: rgb(225, 95, 153); stroke-opacity: 1; stroke-width: 3px;"/></g><g class="legendsymbols"><g class="legendpoints"/></g></g><rect class="legendtoggle" x="0" y="-19.7" width="218.703125" height="39.4" style="fill: rgb(0, 0, 0); fill-opacity: 0;"/></g><g class="traces" transform="translate(0,103.5)" style="opacity: 1;"><text class="legendtext" text-anchor="start" x="40" y="10.92" style="font-family: 'Times New Roman', monospace; font-size: 28px; fill: rgb(0, 0, 0); fill-opacity: 1; white-space: pre;">Co​<tspan style="font-size:70%" dy="0.3em">57</tspan><tspan dy="-0.21em">​</tspan>Ni​<tspan style="font-size:70%" dy="0.3em">14</tspan><tspan dy="-0.21em">​</tspan>Fe​<tspan style="font-size:70%" dy="0.3em">29</tspan><tspan dy="-0.21em">​</tspan>N​<tspan style="font-size:70%" dy="0.3em">x</tspan><tspan dy="-0.21em">​</tspan></text><g class="layers" style="opacity: 1;"><g class="legendfill"/><g class="legendlines"><path class="js-line" d="M5,0h30" style="fill: none; stroke: rgb(28, 167, 28); stroke-opacity: 1; stroke-width: 3px;"/></g><g class="legendsymbols"><g class="legendpoints"/></g></g><rect class="legendtoggle" x="0" y="-19.7" width="218.703125" height="39.4" style="fill: rgb(0, 0, 0); fill-opacity: 0;"/></g><g class="traces" transform="translate(0,142.89999999999998)" style="opacity: 1;"><text class="legendtext" text-anchor="start" x="40" y="10.92" style="font-family: 'Times New Roman', monospace; font-size: 28px; fill: rgb(0, 0, 0); fill-opacity: 1; white-space: pre;">Co​<tspan style="font-size:70%" dy="0.3em">45</tspan><tspan dy="-0.21em">​</tspan>Ni​<tspan style="font-size:70%" dy="0.3em">45</tspan><tspan dy="-0.21em">​</tspan>Fe​<tspan style="font-size:70%" dy="0.3em">10</tspan><tspan dy="-0.21em">​</tspan>N​<tspan style="font-size:70%" dy="0.3em">x</tspan><tspan dy="-0.21em">​</tspan></text><g class="layers" style="opacity: 1;"><g class="legendfill"/><g class="legendlines"><path class="js-line" d="M5,0h30" style="fill: none; stroke: rgb(182, 129, 0); stroke-opacity: 1; stroke-width: 3px;"/></g><g class="legendsymbols"><g class="legendpoints"/></g></g><rect class="legendtoggle" x="0" y="-19.7" width="218.703125" height="39.4" style="fill: rgb(0, 0, 0); fill-opacity: 0;"/></g></g></g><rect class="scrollbar" rx="20" ry="3" width="0" height="0" x="0" y="0" style="fill: rgb(128, 139, 164); fill-opacity: 1;"/></g><g class="g-gtitle"/><g class="g-xtitle" transform="translate(0,-7.409375000000011)"><text class="xtitle" x="282.5" y="500.409375" text-anchor="middle" style="font-family: 'Times New Roman', monospace; font-size: 34px; fill: rgb(0, 0, 0); opacity: 1; font-weight: normal; white-space: pre;">Time (h)</text></g><g class="g-ytitle" transform="translate(30.4091796875,0)"><text class="ytitle" transform="rotate(-90,-0.40937499999999716,260.5)" x="-0.40937499999999716" y="260.5" text-anchor="middle" style="font-family: 'Times New Roman', monospace; font-size: 34px; fill: rgb(0, 0, 0); opacity: 1; font-weight: normal; white-space: pre;">Cell Potential (V)</text></g></g></svg>