<svg class="main-svg" xmlns="http://www.w3.org/2000/svg" xmlns:xlink="http://www.w3.org/1999/xlink" width="500" height="500" style="" viewBox="0 0 500 500"><rect x="0" y="0" width="500" height="500" style="fill: rgb(255, 255, 255); fill-opacity: 1;"/><defs id="defs-52fa0a"><g class="clips"><clipPath id="clip52fa0axyplot" class="plotclip"><rect width="393" height="395"/></clipPath><clipPath class="axesclip" id="clip52fa0ax"><rect x="86" y="0" width="393" height="500"/></clipPath><clipPath class="axesclip" id="clip52fa0ay"><rect x="0" y="20" width="500" height="395"/></clipPath><clipPath class="axesclip" id="clip52fa0axy"><rect x="86" y="20" width="393" height="395"/></clipPath></g><g class="gradients"/><g class="patterns"/></defs><g class="bglayer"><rect class="bg" x="86" y="20" width="393" height="395" style="fill: rgb(0, 0, 0); fill-opacity: 0; stroke-width: 0;"/></g><g class="layer-below"><g class="imagelayer"/><g class="shapelayer"/></g><g class="cartesianlayer"><g class="subplot xy"><g class="layer-subplot"><g class="shapelayer"/><g class="imagelayer"/></g><g class="minor-gridlayer"><g class="x"/><g class="y"/></g><g class="gridlayer"><g class="x"/><g class="y"/></g><g class="zerolinelayer"/><path class="xlines-below"/><path class="ylines-below"/><g class="overlines-below"/><g class="xaxislayer-below"/><g class="yaxislayer-below"/><g class="overaxes-below"/><g class="plot" transform="translate(86,20)" clip-path="url(#clip52fa0axyplot)"><g class="scatterlayer mlayer"><g class="trace scatter tracefba19d" style="stroke-miterlimit: 2; opacity: 1;"><g class="fills"/><g class="errorbars"/><g class="lines"><path class="js-line" d="M0,166.4L0.21,172.5L0.28,90.28L0.75,165.25L0.76,165.02L0.78,167.46L1.5,156.57L1.51,158.4L1.52,158.82L1.55,159.63L2.26,151.52L2.27,151.75L2.28,151.36L2.28,154.73L3,146.94L3.03,149.47L3.04,148.39L3.09,150.4L3.78,143.47L3.79,144.38L3.8,144.4L3.87,147.15L4.51,141L4.55,142.08L4.56,140.92L4.66,144.15L5.26,137.52L5.31,138.57L5.32,139.58L5.33,141.68L5.98,136.23L6.07,136.75L6.08,136.41L6.28,139.19L6.82,134.23L6.83,136.28L6.84,135.85L6.87,137.78L7.49,132.71L7.59,134.53L7.6,134.31L7.71,136.44L8.31,131.15L8.35,134.61L8.36,134.27L8.43,134.73L9.1,129.85L9.11,130.34L9.12,130.81L9.21,134.03L9.73,128.42L9.87,130.01L9.88,131.19L9.96,132.24L10.57,127.94L10.63,129.11L10.64,129.22L11.04,131.48L11.33,127.24L11.39,127.74L11.4,128.09L11.42,130.79L11.73,126.69L12.15,128.93L12.16,128.81L12.49,129.75L12.76,125.04L12.91,127.91L12.92,128.39L13.05,128.96L13.5,124.39L13.67,126.69L13.68,126.7L14.27,129.93L14.42,122.79L14.43,124.79L14.44,125.76L14.73,128.3L15.11,123.04L15.19,123.36L15.2,123.44L15.39,126.45L15.9,122.38L15.95,123.75L15.96,123.4L16.31,135.29L16.66,121.3L16.71,123.78L16.72,122.99L16.89,125.76L17.43,121.19L17.47,121.9L17.48,121.7L17.94,125.33L18.14,120.31L18.23,123.02L18.24,122.2L18.6,132.5L18.82,120.14L18.99,122.71L19,122.7L19.46,124.93L19.61,119.56L19.75,120.77L19.76,121.5L19.79,124.12L20.47,119.21L20.51,121.98L20.52,122.17L20.61,123.77L21.27,118.92L21.27,119.59L21.28,124.24L21.61,118.11L22.03,119.91L22.04,119.92L22.3,122.22L22.59,117.94L22.79,120.23L22.8,120.3L22.81,121.7L23.26,116.86L23.55,117.78L23.56,117.61L23.76,121.41L24.07,98.12L24.31,119.79L24.32,119.44L24.85,120.68L24.96,116.37L25.07,119.16L25.08,119.26L25.11,120.25L25.54,115.82L25.83,117.51L25.84,117.95L26.01,119.96L26.36,115.99L26.59,118.3L26.6,118.79L26.99,115.61L27.34,119.48L27.35,117.41L27.36,117.64L27.52,119.43L27.83,114.94L28.11,115.9L28.12,115.18L28.66,114.41L28.78,118.59L28.87,115.67L28.88,115.91L29.09,114.18L29.12,118.28L29.63,115.64L29.64,115.69L30.18,118.49L30.36,113.79L30.39,115.06L30.4,115.01L30.67,113.65L31.02,117.93L31.15,115.41L31.16,115.96L31.2,113.69L31.62,117.83L31.91,114.66L31.92,114.56L32.24,117.83L32.44,112.49L32.67,115.69L32.68,116L33.09,112.98L33.39,117.32L33.4,117.15L33.64,117.59L33.74,113.25L34.15,114.11L34.16,114.79L34.42,112.23L34.87,117.07L34.91,115.16L34.92,114.56L35.01,117.28L35.59,112.61L35.67,114.81L35.68,115.77L35.74,116.68L36.42,111.66L36.43,112.52L36.44,111.19L36.8,111L37.17,115.4L37.19,112.86L37.2,111.63L37.44,114.9L37.84,110.14L37.95,112.42L37.96,113.31L38.3,114.72L38.58,110.18L38.71,111.18L38.72,111.25L39.3,114.55L39.46,109.9L39.47,110.81L39.48,112.64L39.81,114.4L40.21,109.55L40.23,113.06L40.24,111.92L40.48,113.93L40.97,109.67L40.99,110.78L41,111.98L41.21,109.32L41.62,113.82L41.75,110.64L41.76,110.83L41.85,113.81L42.3,109.22L42.51,112.84L42.52,111.54L42.55,113.27L43.16,108.09L43.27,112.4L43.28,110.73L43.66,112.84L43.99,108.59L44.03,109.23L44.04,110.96L44.17,107.83L44.73,112.67L44.79,110.62L44.8,108.86L45.28,108.21L45.46,113.17L45.55,109.64L45.56,110.41L45.61,112.48L45.88,107.63L46.31,111.43L46.32,111.73L46.54,111.91L46.83,107.05L47.07,111.03L47.08,109.39L47.12,107.08L47.32,112.01L47.83,107.87L47.84,107.49L48.13,111.49L48.51,106.72L48.59,107.36L48.6,107.89L48.83,106.83L49.33,111.86L49.35,110.79L49.36,109.46L49.57,111.58L49.73,106.47L50.11,108.11L50.12,108.52L50.18,111.17L50.76,106.1L50.87,109.72L50.88,108.68L51.06,110.96L51.54,105.69L51.63,109.31L51.64,109.05L51.83,105.61L51.86,111L52.39,108.77L52.4,108.24L52.63,110.63L53.11,106.09L53.15,109.35L53.16,109.25L53.46,110.35L53.52,105.81L53.91,108.33L53.92,107.73L54.2,110.37L54.25,105.89L54.67,106.82L54.68,108.11L54.8,110.78L55.22,105.4L55.43,106.8L55.44,106.7L55.79,105.49L56.12,109.75L56.19,106.23L56.2,106.96L56.31,105.19L56.49,110.8L56.95,106.98L56.96,108.2L57.22,109.66L57.46,104.36L57.71,105.89L57.72,106.52L57.79,108.97L58.41,104.31L58.47,106.93L58.48,106.82L58.83,104.48L58.9,109.35L59.23,107.19L59.24,107.47L59.27,109.39L59.83,104.07L59.99,105.4L60,105.75L60.23,109.11L60.65,103.58L60.75,106.85L60.76,108.54L61.1,103.75L61.51,106.96L61.52,105.52L61.7,109.12L61.98,103.94L62.27,104.41L62.28,106.07L62.44,108.12L62.76,103.45L63.03,107.49L63.04,106.24L63.24,103.66L63.76,108.36L63.79,105.32L63.8,106.28L64,108.37L64.07,103.12L64.55,107.95L64.56,107.88L65.14,102.09L65.31,104.13L65.32,103.6L65.53,107.51L65.86,101.93L66.07,103.31L66.08,105.18L66.13,107.3L66.42,101.73L66.83,102.92L66.84,102.47L66.95,101.95L67.57,106.66L67.59,102.27L67.6,101.92L67.83,101.76L68.3,107.12L68.35,105.94L68.36,105.95L68.46,106.47L69.11,100.95L69.11,103.62L69.12,104.36L69.33,101.86L69.62,106.71L69.87,105.26L69.88,105.4L69.96,106.55L70.36,101.55L70.63,103.18L70.64,103.8L70.83,106.52L71.24,101.59L71.39,102.67L71.4,103.94L71.45,106.07L71.93,101.52L72.15,103.12L72.16,103.64L72.4,101.77L72.49,106.54L72.91,102.9L72.92,101.99L72.92,101.16L73.32,106.12L73.67,103.96L73.68,103.72L73.7,101.13L74.14,106.03L74.43,104.76L74.44,105.39L74.61,105.95L75.19,100.83L75.19,103.08L75.2,103.93L75.35,100.66L75.84,105.03L75.95,104.39L75.96,104.67L75.99,105.21L76.68,100.65L76.71,104.06L76.72,102.89L77.08,100.43L77.44,105.02L77.47,101.21L77.48,101.53L77.51,104.47L77.52,100.37L78.23,103.13L78.24,102.79L78.67,104.48L78.98,100.27L78.99,101.79L79,101.21L79.02,99.38L79.64,104.19L79.75,103.43L79.76,103.24L79.91,104.71L80.01,99.98L80.51,102.02L80.52,102.78L81.12,100.13L81.2,104.64L81.27,101.6L81.28,101.36L81.65,104.74L81.93,100.11L82.03,103.64L82.04,103.38L82.14,100.59L82.79,104.73L82.8,104.93L83.53,99.83L83.55,102.26L83.56,102.93L83.63,103.94L83.8,100.06L84.31,101.34L84.32,100.62L84.37,100.07L84.69,103.87L85.07,103.33L85.08,102.53L85.38,103.9L85.82,99.64L85.83,101.97L85.84,103.34L85.95,104.02L86.18,99.48L86.59,101.89L86.6,101.47L86.84,104.24L86.91,99.41L87.35,101.12L87.36,100.94L87.39,104.32L87.99,99.96L88.11,101.69L88.12,101.71L88.37,103.08L88.55,99.3L88.87,100.85L88.88,101.46L89.08,99.92L89.27,103.97L89.63,102.89L89.64,103.13L89.84,99.5L90.18,104.14L90.39,102.89L90.4,102.59L90.47,103.98L90.86,99.62L91.15,100.91L91.16,100.86L91.33,98.9L91.56,103.34L91.91,102.33L91.92,101.82L92.2,103.39L92.33,99.38L92.67,101.57L92.68,101.24L92.78,103.55L92.84,99.06L93.43,99.38L93.44,100.04L93.64,98.33L93.88,102.57L94.19,100.18L94.2,100.7L94.21,98.4L94.82,102.73L94.95,99.42L94.96,99.05L95.01,98.84L95.38,102.96L95.71,100.15L95.72,100.35L95.91,103.26L96.03,98.09L96.47,99.25L96.48,98.84L96.75,102.76L97.04,98.19L97.23,100.1L97.24,99.83L97.34,102.26L97.47,97.74L97.99,99.21L98,99.72L98.13,98.47L98.42,102.33L98.75,99.78L98.76,99.61L98.93,102.63L99.5,97.4L99.51,99.15L99.52,98.49L99.54,98.37L100.25,102.7L100.27,102.09L100.28,102.56L100.59,97.72L101.03,99.39L101.04,99.9L101.08,98.29L101.2,101.73L101.79,100.08L101.8,99.67L101.92,97.45L102.38,101.53L102.55,100.38L102.56,99.67L102.83,97.35L102.87,101.52L103.31,100.47L103.32,100.45L103.54,100.67L103.77,96.79L104.07,98.06L104.08,96.97L104.2,96.96L104.7,100.88L104.83,99.51L104.84,97.85L104.87,101.86L105.18,96.76L105.59,97.59L105.6,97.49L105.8,97.35L106.3,101.58L106.35,98.74L106.36,98.76L106.39,97.19L106.45,101.11L107.11,99.58L107.12,98.89L107.35,101.43L107.81,96.94L107.87,98.42L107.88,98.07L108.06,96.37L108.58,100.41L108.63,99.27L108.64,98.61L108.94,96.32L109.07,100.7L109.39,98.79L109.4,97.38L109.55,100.4L110.13,96.04L110.15,97.35L110.16,98.32L110.2,96.15L110.34,100.35L110.91,98.58L110.92,98.28L110.96,96.55L111.41,100.67L111.67,99.14L111.68,99.18L111.97,101.19L112.25,96.81L112.43,98.68L112.44,97.93L112.87,96.15L113.04,100.59L113.19,98.88L113.2,98.72L113.4,97.18L113.42,100.85L113.95,97.93L113.96,97.88L114.37,96.6L114.44,101.03L114.71,99.25L114.72,98.53L115,96.01L115.35,100.68L115.47,100.4L115.48,101.09L116.21,96.08L116.23,97.05L116.24,97.3L116.68,100.25L116.92,96.29L116.97,97.97L116.98,98.26L116.98,99.49L117.49,95.4L117.73,98.15L117.74,98.19L118.05,95.42L118.27,99.26L118.49,97.68L118.5,97.61L118.99,99.98L119.1,95.81L119.25,96.56L119.26,96.61L119.64,99.66L119.77,95.42L120.01,97.13L120.02,96.12L120.38,100.09L120.59,95.44L120.77,98.11L120.78,97.82L120.83,98.96L121.16,95.39L121.53,96.95L121.54,96.9L121.75,95.35L122.04,99.22L122.29,98.05L122.3,96.98L122.58,98.86L122.61,95.23L123.05,97.28L123.06,97.08L123.09,98.5L123.23,94.38L123.81,95.85L123.82,95.09L124.07,94.59L124.3,98.99L124.57,95.86L124.58,95.37L124.61,98.91L125.16,94.32L125.33,96.31L125.34,96.53L125.64,94.62L126.07,98.27L126.09,96.15L126.1,96.16L126.38,93.42L126.67,97.73L126.85,96.68L126.86,97.33L126.9,98.21L127.39,94.07L127.61,94.99L127.62,95.33L127.74,97.29L127.92,93.7L128.37,97.25L128.38,96.52L128.68,98.46L128.98,93.99L129.13,94.02L129.14,94.33L129.27,93.59L129.67,97.9L129.89,94.84L129.9,95.86L130.04,97.41L130.27,93.09L130.65,96.28L130.66,96.63L131.09,92.87L131.32,97.44L131.41,96.32L131.42,96.66L131.64,93.09L132.15,97.64L132.17,95.86L132.18,95.17L132.63,93.18L132.89,97.21L132.93,95.91L132.94,96.13L133.22,97.51L133.27,93.25L133.69,95.63L133.7,96.1L133.82,92.78L133.98,96.75L134.45,95.45L134.46,95.05L134.51,98.68L134.91,93.4L135.09,94.13L135.1,94.24L135.11,97.03L135.46,92.74L135.85,95.53L135.86,95.36L136.04,97.71L136.15,93.47L136.61,96.12L136.62,96.27L136.64,97.55L137.11,92.6L137.37,95.06L137.38,94.97L137.41,92.71L137.87,98.53L138.13,95.74L138.14,96.07L138.5,93.24L138.85,97.71L138.89,95.79L138.9,96.17L139.54,97.96L139.56,93.18L139.65,93.79L139.66,94.42L139.8,98.63L140.26,93.21L140.41,96.47L140.42,96.32L140.93,98.82L141.09,94.19L141.17,97.22L141.18,97.31L141.57,94.16L141.75,139.23L141.93,121.25L141.94,121.7L142.43,129.98L142.5,114.45L142.69,117.61L142.7,117.68L142.76,116.18L143.3,132.02L143.45,123.19L143.46,124.07L143.5,121.35L144.1,128.51L144.21,125.2L144.22,124.12L144.28,122.4L144.95,137.87L144.97,128.99L144.98,128.5L145.01,168.88L145.73,134.25L145.74,134.42L145.8,131.33L146.47,141.55L146.49,140.07L146.5,140.05L146.9,144.96L147.11,139.44L147.25,142.04L147.26,141.93L147.34,140.94L147.9,149.38L148.01,145.45L148.02,145.42L148.07,142.72L148.77,149.96L148.77,149.25L148.78,149.69L149.51,153.21L149.52,146.66L149.53,147.05L149.54,147.04L149.88,149.39L150.23,139.87L150.29,144.19L150.3,144.23L150.83,150.3L151.05,142.57L151.05,143.15L151.06,142.43L151.16,142.11L151.29,158.79L151.81,146.5L151.82,147.04L151.82,145.78L152.54,154.77L152.57,152.58L152.58,152.42L152.88,151.58L153.04,157.8L153.33,154.87L153.34,155.31L153.46,154.06L153.48,160.86L154.09,156.21L154.1,156.66L154.1,156.43L154.55,160.09L154.85,158.42L154.86,158.5L155.33,161.51L155.57,157.17L155.61,158.21L155.62,158.02L155.63,166.21L155.68,156.5L156.37,159.97L156.38,159.85L156.4,168.19L157.03,158.06L157.13,159.51L157.14,157.44L157.58,161.66L157.89,159.77L157.9,159.74L158.33,161.11L158.36,156.25L158.65,157.02L158.66,157.59L158.8,157.43L159.3,163.77L159.41,160.33L159.42,160L159.74,156.93L160.14,163.23L160.17,160.93L160.18,159.87L160.33,163.24L160.77,152.76L160.93,154.93L160.94,154.66L161.11,169.54L161.5,151.02L161.69,155.32L161.7,155.04L161.91,159.48L162.33,149.71L162.45,151.96L162.46,151.96L162.55,151.13L163.17,159.06L163.21,157.49L163.22,157.43L163.45,167.37L163.46,152.81L163.97,154.14L163.98,154.84L164.11,158.32L164.51,152.21L164.73,154.94L164.74,154.97L164.93,153.39L165.07,161.66L165.49,158.75L165.5,158.37L165.52,157.67L165.99,163.37L166.25,159.92L166.26,159.64L166.46,159.3L166.99,164.59L167.01,161.2L167.02,160.99L167.1,159.34L167.53,164.37L167.77,163.47L167.78,162.96L168.08,165.82L168.35,161.39L168.53,162.78L168.54,162.58L168.85,170.46L169.28,158L169.29,159.51L169.3,160.15L169.7,167.67L170.04,158.23L170.05,159.12L170.06,159.46L170.16,157.33L170.46,168.23L170.81,157.67L170.82,158.5L171.25,157.66L171.53,162.7L171.57,159.34L171.58,159.91L171.96,167.86L172.07,156.39L172.33,158.23L172.34,158.23L172.45,156.06L172.77,166.6L173.09,158.01L173.1,158.39L173.12,157.5L173.73,162.31L173.85,160.36L173.86,159.9L174.57,156.29L174.6,163.76L174.61,162.99L174.62,163.4L174.7,167.25L174.87,154.76L175.37,158.94L175.38,158.83L175.39,157.38L175.69,169.76L176.13,162.35L176.14,161.94L176.18,161.07L176.62,165.31L176.89,164.2L176.9,163.87L177.08,162.97L177.47,167.32L177.65,165.7L177.66,166.1L177.69,167.78L178.29,156.26L178.41,158.28L178.42,158.16L178.52,156.15L179.12,160.28L179.17,157.33L179.18,157.99L179.56,165.36L179.59,157.83L179.93,160.46L179.94,160.65L180.31,157.74L180.44,164.73L180.69,159.87L180.7,159.95L180.9,158.68L181.36,163.28L181.45,162.02L181.46,162.01L181.5,163.46L182.09,156.79L182.21,158.59L182.22,159.07L182.38,162.36L182.68,156.53L182.97,157.35L182.98,157.53L183.29,160.17L183.73,154.89L183.74,155.41L184.07,154.4L184.47,160.09L184.49,157.2L184.5,157L184.93,160.84L185.03,154.09L185.25,156.31L185.26,156.37L185.46,158.8L185.64,154.14L186.01,156.6L186.02,156.63L186.11,168.4L186.18,153.84L186.77,156.92L186.78,156.91L186.85,154.59L187.39,163.02L187.53,156.1L187.54,156.18L188.15,159.72L188.23,154.93L188.29,157.45L188.3,157.01L188.35,154.4L188.5,161.7L189.05,157.12L189.06,158.45L189.7,151.38L189.73,166.82L189.81,155.55L189.82,155.02L189.9,153.08L189.91,166.66L190.57,156.8L190.58,157.45L190.81,154.03L191.07,162.67L191.33,157.36L191.34,157.24L191.58,155.16L192.08,158.93L192.09,157.61L192.1,156.82L192.41,153.13L192.49,158.36L192.85,157.01L192.86,156.77L192.92,165.49L193.61,149.79L193.61,151.02L193.62,151.16L194.08,150.23L194.24,154.03L194.37,151.77L194.38,152.03L194.97,156.9L195.07,149.55L195.13,150.72L195.14,151.01L195.2,149.59L195.8,158.46L195.89,151.17L195.9,150.92L196.06,155.94L196.12,147.7L196.65,154.21L196.66,152.61L197.29,148.18L197.39,167.07L197.41,152.11L197.42,151.65L197.46,152.68L197.73,147.2L198.17,150.71L198.18,150.72L198.5,171L198.72,144.66L198.93,146.2L198.94,146.04L198.95,146.03L199.19,152.29L199.69,147.75L199.7,147.99L199.97,154.9L200.3,144.78L200.45,147.07L200.46,146.83L200.94,145.02L201.15,149.72L201.21,148.3L201.22,148.55L201.52,146.77L201.95,156.79L201.97,149.76L201.98,149.37L202.08,146.64L202.37,151.44L202.73,149.38L202.74,149.19L202.85,147.86L203.44,153.58L203.49,152.5L203.5,152.12L203.68,149.63L204.14,164.47L204.25,150.23L204.26,150.64L204.29,149.69L204.8,156.14L205.01,152.38L205.02,152.37L205.22,163.22L205.4,147.22L205.77,150.08L205.78,147.82L205.8,163.26L206.13,146.21L206.53,148.61L206.54,148.64L207.13,148.14L207.23,152.45L207.29,149.2L207.3,149.15L207.36,148.35L207.9,154.52L208.05,149.29L208.06,149.7L208.07,149.24L208.78,155.82L208.81,153.54L208.82,153.15L208.83,152.59L209.36,159.5L209.57,155.42L209.58,155.72L209.58,155.83L210.1,152.72L210.33,153.72L210.34,154.17L210.36,153.28L210.66,166.06L211.09,155.63L211.1,155.54L211.47,159.8L211.73,152.2L211.85,153.17L211.86,152.96L212,159.52L212.51,152.15L212.61,153.72L212.62,153.72L213.13,151.53L213.35,157.46L213.37,155.05L213.38,154.34L213.63,154.92L213.89,150.16L214.13,151.43L214.14,151.36L214.4,153.6L214.66,149.89L214.89,150.73L214.9,151.15L215.43,152.44L215.58,148.58L215.65,150.26L215.66,149.66L215.93,147.58L215.96,152.39L216.41,149.16L216.42,149.65L216.59,151.46L216.98,147L217.17,148.82L217.18,148.36L217.3,146.67L217.72,152.43L217.93,149.63L217.94,149.63L218.59,152.59L218.68,148.16L218.69,150.19L218.7,149.79L218.91,153.52L219.38,147.87L219.45,149.1L219.46,149.15L219.71,147.65L219.94,150.96L220.21,148.91L220.22,148.9L220.68,152.49L220.96,147.87L220.97,148.2L220.98,148.09L221.02,146.93L221.49,155.34L221.73,148.15L221.74,148.25L222.03,152.3L222.38,146.51L222.49,147.93L222.5,147.48L222.6,149.93L222.88,145.77L223.25,147.49L223.26,147.59L223.72,166.06L223.85,135.79L224.01,139.41L224.02,139.44L224.04,137.32L224.24,151.14L224.77,140.92L224.78,141.02L224.96,142.98L225.36,137.98L225.53,139.71L225.54,139.93L225.66,138.62L226.07,143.16L226.29,141.99L226.3,142.19L226.57,139.43L227.03,144.87L227.05,141.87L227.06,141.54L227.24,140.5L227.59,144.6L227.81,142.33L227.82,142.99L227.95,144.83L228.4,140.52L228.57,142.15L228.58,142.61L228.94,144.18L229.25,140.4L229.33,143.29L229.34,142.97L229.54,139.63L230.09,155.42L230.09,151.83L230.1,151.07L230.52,155.05L230.75,141.72L230.85,143.33L230.86,143.43L230.92,138.19L231.47,144.17L231.61,143.03L231.62,142.28L231.93,136.32L232.32,144.03L232.37,139.55L232.38,139.77L232.82,136.07L233.03,140.82L233.13,138.46L233.14,138.42L233.64,136.24L233.78,141.39L233.89,138.37L233.9,138.7L234.35,150.9L234.5,136.12L234.65,138.83L234.66,139.1L235.22,147.18L235.41,136.07L235.41,136.39L235.42,137.34L235.47,135.67L236.04,140.63L236.17,139.19L236.18,139.03L236.3,141.58L236.54,135.23L236.93,137.37L236.94,137.55L237.21,142.34L237.27,136.63L237.69,137.38L237.7,137.47L237.75,136.86L238.25,148.72L238.45,138.01L238.46,137.77L238.49,135.67L238.51,147.74L239.21,139L239.22,139.05L239.52,137.24L239.89,144.42L239.97,139.71L239.98,139.61L240.07,146.02L240.1,137.34L240.73,141.9L240.74,142.41L240.87,144.12L241.34,138.56L241.49,140.98L241.5,141.53L241.74,155.52L241.75,135.95L242.25,139.35L242.26,139.33L242.58,141.97L243.01,137.51L243.01,138.45L243.02,138.87L243.64,144.09L243.72,136.05L243.77,137.26L243.78,137.5L243.85,135.66L244.21,150.79L244.53,138.64L244.54,138.67L244.65,155.25L244.81,133.41L245.29,135.63L245.3,135.92L245.31,137.31L246.05,133.78L246.06,134.31L246.14,137.55L246.3,133.29L246.81,135.08L246.82,135.17L247.04,141.17L247.29,133.4L247.57,135.56L247.58,135.94L248.01,139.37L248.23,134.27L248.33,136.06L248.34,136.01L248.35,134.51L249.08,138.61L249.09,138.35L249.1,138.76L249.39,140.67L249.75,133.75L249.85,135.11L249.86,134.61L250.11,138.2L250.27,134.03L250.61,137.98L250.62,138.17L250.82,139.3L250.98,133.96L251.37,136.52L251.38,136.41L251.76,152.05L251.78,132.04L252.13,132.88L252.14,133.81L252.17,132.33L252.54,137.19L252.89,135.61L252.9,135.98L253.15,134.15L253.26,139.09L253.65,135.83L253.66,135.73L253.92,139.94L254.41,132.9L254.42,133.98L255.04,129.03L255.06,154.4L255.17,129.79L255.18,129.9L255.18,129.39L255.82,133.57L255.93,131.9L255.94,132.2L256.29,165.06L256.69,129.58L256.69,131.81L256.7,132.78L256.82,148.22L256.95,126.88L257.45,131.65L257.46,131.85L257.84,127.12L258.13,143.63L258.21,130.84L258.22,130.97L258.36,129.57L258.89,134.93L258.97,132.7L258.98,132.72L259.45,141.24L259.66,132.31L259.73,134.22L259.74,134.3L259.98,150.1L260.45,132.47L260.49,134.33L260.5,134.25L261.16,143.86L261.17,129.3L261.25,132.41L261.26,132.91L261.38,131.65L261.51,137.34L262.01,136.06L262.02,135.62L262.1,132.91L262.75,139.63L262.77,136.75L262.78,137.1L263.04,144.33L263.52,131.8L263.53,134.06L263.54,133.83L263.59,131.53L263.72,138.83L264.29,136.8L264.3,137.49L264.96,138.66L265.02,132.73L265.05,134.26L265.06,134.35L265.34,150.5L265.45,132.63L265.81,135.53L265.82,135.34L266.29,133.46L266.52,143.39L266.57,134.96L266.58,134.38L266.58,133.63L267.24,138.49L267.33,135.89L267.34,135.58L267.47,135.32L268.02,142.67L268.09,137.84L268.1,137.86L268.31,137.35L268.84,142.5L268.85,140.27L268.86,140.5L268.98,149.44L269.45,135.18L269.61,137.38L269.62,137.27L269.62,136.66L269.89,140.31L270.37,139.26L270.38,138.87L270.61,155.65L270.9,136.56L271.13,137.74L271.14,138.1L271.15,136.76L271.77,146.77L271.89,139.07L271.9,138.35L272,140.19L272.3,134.74L272.65,137.91L272.66,138.42L272.8,142.71L272.91,135.22L273.41,137.78L273.42,137.93L273.81,160.2L274.16,134.7L274.17,135.45L274.18,135.55L274.21,135.25L274.91,159.32L274.93,136.57L274.94,136.36L274.98,135.21L275.43,140.58L275.69,139.99L275.7,139.51L275.9,137.71L276.32,143.89L276.45,141.55L276.46,142.55L277.05,144.95L277.05,140.83L277.21,142.37L277.22,142.24L277.49,135.37L277.55,154.64L277.97,140.61L277.98,141.52L278.2,136.13L278.71,147.62L278.73,144.38L278.74,144.02L278.87,137.82L278.91,155.85L279.49,142.05L279.5,142.28L279.64,152.68L280.23,139.13L280.25,141.82L280.26,141.22L280.27,139.24L280.75,147.52L281.01,141.99L281.02,142.51L281.05,140.73L281.55,157L281.77,146.82L281.78,146.56L282.16,161.79L282.17,142.23L282.53,146.04L282.54,147.1L282.84,148.53L283.29,143.64L283.29,144.25L283.3,143.47L283.65,145.53L283.84,141.1L284.05,142.34L284.06,142.54L284.07,141.31L284.19,146.36L284.81,145.67L284.82,145.43L285.29,148.27L285.37,141.77L285.57,143L285.58,143.1L285.63,142.49L285.94,160.89L286.33,145.35L286.34,145.09L286.47,143.75L286.87,148.66L287.09,146.54L287.1,147.21L287.34,166.14L287.34,140.12L287.85,143.78L287.86,145.18L288.17,140.54L288.56,146.25L288.61,143.95L288.62,144.1L289.08,139.68L289.16,157.06L289.37,142.95L289.38,143.42L289.39,142.54L289.84,155.71L290.07,145.35L290.07,145.83L290.4,143.65L290.63,147.18L290.82,144.85L290.83,144.98L291.07,143.75L291.16,149.69L291.58,147.89L291.59,147.75L291.96,145.35L292.06,149.28L292.34,147.39L292.35,147.71L292.64,144.86L293.09,151.68L293.1,150.92L293.11,150.84L293.15,147.9L293.72,154.28L293.86,151.63L293.87,151.28L294.37,155.73L294.62,149.51L294.62,151.28L294.63,150.9L294.64,149.21L295.2,153.93L295.38,152.3L295.39,152.81L295.43,150.6L296.04,155.73L296.14,152.35L296.15,152.45L296.17,166.48L296.86,150.67L296.9,152.99L296.91,152.38L296.98,151.31L297.15,168.08L297.66,155.31L297.67,156.19L297.8,153.66L298.12,160.32L298.42,156.63L298.43,156.54L298.75,158.46L299.08,152.77L299.18,154.05L299.19,154.39L299.35,152.45L299.83,165.99L299.94,154.27L299.95,153.6L300.57,161.07L300.6,150.64L300.7,153.09L300.71,153.03L300.93,156.58L301.25,150.33L301.46,151.56L301.47,151.87L301.71,150.3L302.03,167.94L302.22,158.14L302.23,156.63L302.33,149.17L302.55,165.85L302.98,153.54L302.99,153.61L303.38,145.45L303.7,165.27L303.74,149.05L303.75,148.62L303.79,146.9L304.48,152.47L304.5,151.11L304.51,151.34L304.76,153.36L304.84,147.9L305.26,150.89L305.27,151.79L305.42,152.35L305.53,147.83L306.02,150.37L306.03,149.57L306.4,151.44L306.78,147.31L306.78,148.1L306.79,147.74L306.81,146.99L307.48,151.3L307.54,149.09L307.55,149.41L307.57,149.63L307.95,145.76L308.3,148.89L308.31,148.92L308.42,146.77L309.01,152.48L309.06,150.5L309.07,149.61L309.56,152.59L309.78,145.62L309.82,146.84L309.83,147.83L310.08,144.28L310.51,164.07L310.58,147.58L310.59,147.64L310.81,168.56L311.18,144.08L311.34,146.01L311.35,146.89L311.41,148.79L311.69,142.3L312.1,143.2L312.11,144.55L312.3,143.06L312.94,148.53L312.97,147.87L312.97,146.9L313,146.48L313.42,151.64L313.64,148.32L313.65,149.08L314.23,156.23L314.32,141.75L314.4,142.08L314.41,142.53L314.44,141.55L314.81,152.82L315.16,148.69L315.17,147.77L315.51,150.13L315.64,146.07L315.92,147.53L315.93,147.17L315.96,146.37L316.5,153.35L316.68,149.42L316.69,148.7L316.88,147.33L317.15,153.22L317.44,150.24L317.45,149.88L318.16,163.43L318.18,148.37L318.2,150.04L318.21,149.25L318.72,169.29L318.91,140.6L318.96,144.56L318.97,144.81L318.99,143.94L319.71,152.62L319.72,151.13L319.73,151.99L319.9,150.03L320.29,154.93L320.48,151.84L320.49,152.36L320.54,151.05L320.86,155.36L321.24,153.18L321.25,153.33L321.59,155.75L321.72,151.96L322,153.68L322.01,153.45L322.72,161.94L322.73,149.42L322.76,150.88L322.77,151.87L322.77,150.68L323.36,156.56L323.52,156.23L323.53,156.09L323.63,157.4L323.68,153.2L324.28,155.2L324.29,154.96L324.8,167.92L324.81,150.61L325.04,155.62L325.05,155.2L325.17,162.41L325.31,152.46L325.8,156.99L325.81,156.07L326.36,162.54L326.53,153.03L326.56,154.42L326.57,154.1L327.1,146.52L327.23,171.33L327.32,148.5L327.33,148.65L328.05,143.53L328.08,165L328.09,145.19L328.2,143.96L328.52,156.65L328.84,148.78L328.85,148.62L328.86,162.34L328.9,147.31L329.6,149.37L329.61,149.5L330.01,148.32L330.04,155.34L330.36,151.97L330.37,151.7L330.37,149.26L331.04,169.63L331.12,152.98L331.13,152.28L331.6,156.48L331.65,147.03L331.88,150.14L331.89,151.58L331.91,151.93L332.6,146.13L332.64,149.93L332.65,152L332.72,147.78L333.14,153.96L333.4,151.18L333.41,151.89L333.69,158.36L333.92,146.77L334.16,149.31L334.17,150.26L334.33,155.58L334.4,148.52L334.92,150.01L334.93,149.26L335.09,151.91L335.62,148.47L335.68,149.88L335.69,149.79L336.25,149.28L336.39,153.03L336.44,151.77L336.45,150.71L336.67,161.19L336.87,150.08L337.2,153.29L337.21,153.21L337.23,158.9L337.48,145.86L337.96,149.42L337.97,149.52L338.07,148.47L338.66,157.31L338.72,151.51L338.73,152.07L338.96,151.3L339.16,155.22L339.48,152.99L339.49,153.32L339.5,151.92L339.56,167.87L340.24,154.17L340.25,153.7L340.26,153.13L340.94,157.64L341,156.44L341.01,156.09L341.32,158.73L341.4,154.09L341.76,155.74L341.77,156.65L341.99,158.44L342.16,155.25L342.52,157.16L342.53,157.68L342.6,157.94L343.23,153.87L343.28,154.86L343.29,155.64L343.77,158.08L343.91,154.07L344.04,155.55L344.05,156.03L344.11,162.69L344.73,154.16L344.8,155.62L344.81,155.6L345.05,161.63L345.56,152.65L345.57,153.59L345.8,153.23L345.83,160.13L346.32,156.48L346.33,155.96L346.33,155.76L347.04,162.72L347.08,156.59L347.09,155.86L347.21,161.57L347.82,153.72L347.84,154.86L347.85,154.93L347.89,153.21L348.36,158.23L348.6,155.54L348.61,154.98L348.99,159.47L349.29,154.26L349.36,157.8L349.37,157.61L349.78,154.46L350.07,165.67L350.12,157.42L350.13,156.68L350.4,166.2L350.85,153.58L350.88,155L350.89,156.22L351.51,163.13L351.52,150.07L351.64,155.02L351.65,154.42L351.86,158.23L352.32,146.98L352.4,150.92L352.41,149.69L352.67,147.66L353.12,152.96L353.16,151.24L353.17,151.71L353.26,155.93L353.85,149.9L353.92,152.17L353.93,151.3L353.99,152.52L354.04,148.85L354.68,151.28L354.69,151.3L354.7,150.87L354.91,157.24L355.44,153.5L355.45,153.33L355.85,170.4L355.9,149.38L356.2,152.62L356.21,152.19L356.33,151.1L356.65,156.2L356.96,154.1L356.97,154.19L357.07,153.07L357.52,156.89L357.72,155.23L357.73,154.49L358.19,157.72L358.46,153.61L358.48,154.67L358.49,154.58L358.59,152.56L359,157.71L359.24,156.56L359.25,156.87L359.51,152.88L359.87,159.82L360,154.73L360.01,154.08L360.36,150.13L360.66,167.83L360.76,153.23L360.77,153.14L360.93,150.57L361.48,156.68L361.52,154.4L361.53,154.39L361.83,160.59L361.95,147.1L362.28,152.95L362.29,152.92L362.33,151.21L362.74,167.7L363.04,153.79L363.05,153.2L363.42,162.52L363.78,148.27L363.8,150.42L363.81,150.14L364.09,157.06L364.56,154.4L364.57,154.39L364.66,151.27L364.78,155.33L365.32,154.31L365.33,154.31L365.82,145.96L365.88,161.01L366.08,149.3L366.09,149.23L366.21,148.82L366.6,153.37L366.84,152.18L366.85,151.49L366.88,150.37L367.27,153.81L367.6,153.28L367.61,153.13L367.8,157L368.21,151.21L368.36,152.65L368.37,153.17L368.75,149.51L368.96,156.4L369.12,152.78L369.13,152.91L369.48,154.79L369.75,148.46L369.82,150.14" style="vector-effect: non-scaling-stroke; fill: none; stroke: rgb(46, 145, 229); stroke-opacity: 1; stroke-width: 3px; opacity: 1;"/></g><g class="points"/><g class="text"/></g></g></g><g class="overplot"/><path class="xlines-above crisp" d="M84,416H479" style="fill: none; stroke-width: 2px; stroke: rgb(0, 0, 0); stroke-opacity: 1;"/><path class="ylines-above crisp" d="M85,20V415" style="fill: none; stroke-width: 2px; stroke: rgb(0, 0, 0); stroke-opacity: 1;"/><g class="overlines-above"/><g class="xaxislayer-above"><path class="xtick ticks crisp" d="M0,417v5" transform="translate(86,0)" style="stroke: rgb(68, 68, 68); stroke-opacity: 1; stroke-width: 1px;"/><path class="xtick ticks crisp" d="M0,417v5" transform="translate(164.6,0)" style="stroke: rgb(68, 68, 68); stroke-opacity: 1; stroke-width: 1px;"/><path class="xtick ticks crisp" d="M0,417v5" transform="translate(243.2,0)" style="stroke: rgb(68, 68, 68); stroke-opacity: 1; stroke-width: 1px;"/><path class="xtick ticks crisp" d="M0,417v5" transform="translate(321.8,0)" style="stroke: rgb(68, 68, 68); stroke-opacity: 1; stroke-width: 1px;"/><path class="xtick ticks crisp" d="M0,417v5" transform="translate(400.4,0)" style="stroke: rgb(68, 68, 68); stroke-opacity: 1; stroke-width: 1px;"/><path class="xtick ticks crisp" d="M0,417v5" transform="translate(479,0)" style="stroke: rgb(68, 68, 68); stroke-opacity: 1; stroke-width: 1px;"/><g class="xtick"><text text-anchor="middle" x="0" y="455.6" transform="translate(86,0)" style="font-family: 'Times New Roman', monospace; font-size: 28px; fill: rgb(0, 0, 0); fill-opacity: 1; white-space: pre; opacity: 1;">0</text></g><g class="xtick"><text text-anchor="middle" x="0" y="455.6" style="font-family: 'Times New Roman', monospace; font-size: 28px; fill: rgb(0, 0, 0); fill-opacity: 1; white-space: pre; opacity: 1;" transform="translate(164.6,0)">50</text></g><g class="xtick"><text text-anchor="middle" x="0" y="455.6" style="font-family: 'Times New Roman', monospace; font-size: 28px; fill: rgb(0, 0, 0); fill-opacity: 1; white-space: pre; opacity: 1;" transform="translate(243.2,0)">100</text></g><g class="xtick"><text text-anchor="middle" x="0" y="455.6" style="font-family: 'Times New Roman', monospace; font-size: 28px; fill: rgb(0, 0, 0); fill-opacity: 1; white-space: pre; opacity: 1;" transform="translate(321.8,0)">150</text></g><g class="xtick"><text text-anchor="middle" x="0" y="455.6" style="font-family: 'Times New Roman', monospace; font-size: 28px; fill: rgb(0, 0, 0); fill-opacity: 1; white-space: pre; opacity: 1;" transform="translate(400.4,0)">200</text></g><g class="xtick"><text text-anchor="middle" x="0" y="455.6" style="font-family: 'Times New Roman', monospace; font-size: 28px; fill: rgb(0, 0, 0); fill-opacity: 1; white-space: pre; opacity: 1;" transform="translate(479,0)">250</text></g></g><g class="yaxislayer-above"><path class="ytick ticks crisp" d="M84,0h-5" transform="translate(0,415)" style="stroke: rgb(68, 68, 68); stroke-opacity: 1; stroke-width: 1px;"/><path class="ytick ticks crisp" d="M84,0h-5" transform="translate(0,365.63)" style="stroke: rgb(68, 68, 68); stroke-opacity: 1; stroke-width: 1px;"/><path class="ytick ticks crisp" d="M84,0h-5" transform="translate(0,316.25)" style="stroke: rgb(68, 68, 68); stroke-opacity: 1; stroke-width: 1px;"/><path class="ytick ticks crisp" d="M84,0h-5" transform="translate(0,266.88)" style="stroke: rgb(68, 68, 68); stroke-opacity: 1; stroke-width: 1px;"/><path class="ytick ticks crisp" d="M84,0h-5" transform="translate(0,217.5)" style="stroke: rgb(68, 68, 68); stroke-opacity: 1; stroke-width: 1px;"/><path class="ytick ticks crisp" d="M84,0h-5" transform="translate(0,168.13)" style="stroke: rgb(68, 68, 68); stroke-opacity: 1; stroke-width: 1px;"/><path class="ytick ticks crisp" d="M84,0h-5" transform="translate(0,118.75)" style="stroke: rgb(68, 68, 68); stroke-opacity: 1; stroke-width: 1px;"/><path class="ytick ticks crisp" d="M84,0h-5" transform="translate(0,69.38)" style="stroke: rgb(68, 68, 68); stroke-opacity: 1; stroke-width: 1px;"/><path class="ytick ticks crisp" d="M84,0h-5" transform="translate(0,20)" style="stroke: rgb(68, 68, 68); stroke-opacity: 1; stroke-width: 1px;"/><g class="ytick"><text text-anchor="end" x="73.4" y="9.799999999999999" transform="translate(0,415)" style="font-family: 'Times New Roman', monospace; font-size: 28px; fill: rgb(0, 0, 0); fill-opacity: 1; white-space: pre; opacity: 1;">1.5</text></g><g class="ytick"><text text-anchor="end" x="73.4" y="9.799999999999999" style="font-family: 'Times New Roman', monospace; font-size: 28px; fill: rgb(0, 0, 0); fill-opacity: 1; white-space: pre; opacity: 1;" transform="translate(0,365.63)">1.6</text></g><g class="ytick"><text text-anchor="end" x="73.4" y="9.799999999999999" style="font-family: 'Times New Roman', monospace; font-size: 28px; fill: rgb(0, 0, 0); fill-opacity: 1; white-space: pre; opacity: 1;" transform="translate(0,316.25)">1.7</text></g><g class="ytick"><text text-anchor="end" x="73.4" y="9.799999999999999" style="font-family: 'Times New Roman', monospace; font-size: 28px; fill: rgb(0, 0, 0); fill-opacity: 1; white-space: pre; opacity: 1;" transform="translate(0,266.88)">1.8</text></g><g class="ytick"><text text-anchor="end" x="73.4" y="9.799999999999999" style="font-family: 'Times New Roman', monospace; font-size: 28px; fill: rgb(0, 0, 0); fill-opacity: 1; white-space: pre; opacity: 1;" transform="translate(0,217.5)">1.9</text></g><g class="ytick"><text text-anchor="end" x="73.4" y="9.799999999999999" style="font-family: 'Times New Roman', monospace; font-size: 28px; fill: rgb(0, 0, 0); fill-opacity: 1; white-space: pre; opacity: 1;" transform="translate(0,168.13)">2</text></g><g class="ytick"><text text-anchor="end" x="73.4" y="9.799999999999999" style="font-family: 'Times New Roman', monospace; font-size: 28px; fill: rgb(0, 0, 0); fill-opacity: 1; white-space: pre; opacity: 1;" transform="translate(0,118.75)">2.1</text></g><g class="ytick"><text text-anchor="end" x="73.4" y="9.799999999999999" style="font-family: 'Times New Roman', monospace; font-size: 28px; fill: rgb(0, 0, 0); fill-opacity: 1; white-space: pre; opacity: 1;" transform="translate(0,69.38)">2.2</text></g><g class="ytick"><text text-anchor="end" x="73.4" y="9.799999999999999" style="font-family: 'Times New Roman', monospace; font-size: 28px; fill: rgb(0, 0, 0); fill-opacity: 1; white-space: pre; opacity: 1;" transform="translate(0,20)">2.3</text></g></g><g class="overaxes-above"/></g></g><g class="polarlayer"/><g class="smithlayer"/><g class="ternarylayer"/><g class="geolayer"/><g class="funnelarealayer"/><g class="pielayer"/><g class="iciclelayer"/><g class="treemaplayer"/><g class="sunburstlayer"/><g class="glimages"/><defs id="topdefs-52fa0a"><g class="clips"/></defs><g class="layer-above"><g class="imagelayer"/><g class="shapelayer"/></g><g class="infolayer"><g class="g-gtitle"/><g class="g-xtitle" transform="translate(0,-7.409375000000011)"><text class="xtitle" x="282.5" y="500.409375" text-anchor="middle" style="font-family: 'Times New Roman', monospace; font-size: 34px; fill: rgb(0, 0, 0); opacity: 1; font-weight: normal; white-space: pre;">Time (h)</text></g><g class="g-ytitle" transform="translate(30.4091796875,0)"><text class="ytitle" transform="rotate(-90,-0.40937499999999716,217.5)" x="-0.40937499999999716" y="217.5" text-anchor="middle" style="font-family: 'Times New Roman', monospace; font-size: 34px; fill: rgb(0, 0, 0); opacity: 1; font-weight: normal; white-space: pre;">Cell Potential (V)</text></g></g></svg>