<svg class="main-svg" xmlns="http://www.w3.org/2000/svg" xmlns:xlink="http://www.w3.org/1999/xlink" width="500" height="500" style="" viewBox="0 0 500 500"><rect x="0" y="0" width="500" height="500" style="fill: rgb(255, 255, 255); fill-opacity: 1;"/><defs id="defs-adf778"><g class="clips"><clipPath id="clipadf778xyplot" class="plotclip"><rect width="396" height="408"/></clipPath><clipPath class="axesclip" id="clipadf778x"><rect x="87" y="0" width="396" height="500"/></clipPath><clipPath class="axesclip" id="clipadf778y"><rect x="0" y="16" width="500" height="408"/></clipPath><clipPath class="axesclip" id="clipadf778xy"><rect x="87" y="16" width="396" height="408"/></clipPath></g><g class="gradients"/><g class="patterns"/></defs><g class="bglayer"><rect class="bg" x="87" y="16" width="396" height="408" style="fill: rgb(0, 0, 0); fill-opacity: 0; stroke-width: 0;"/></g><g class="layer-below"><g class="imagelayer"/><g class="shapelayer"/></g><g class="cartesianlayer"><g class="subplot xy"><g class="layer-subplot"><g class="shapelayer"/><g class="imagelayer"/></g><g class="minor-gridlayer"><g class="x"/><g class="y"/></g><g class="gridlayer"><g class="x"/><g class="y"/></g><g class="zerolinelayer"><path class="yzl zl crisp" transform="translate(0,398.5)" d="M87,0h396" style="stroke: rgb(128, 128, 128); stroke-opacity: 1; stroke-width: 1px;"/></g><path class="xlines-below"/><path class="ylines-below"/><g class="overlines-below"/><g class="xaxislayer-below"/><g class="yaxislayer-below"/><g class="overaxes-below"/><g class="plot" transform="translate(87,16)" clip-path="url(#clipadf778xyplot)"><g class="scatterlayer mlayer"><g class="trace scatter tracec0126c" style="stroke-miterlimit: 2; opacity: 1;"><g class="fills"/><g class="errorbars"/><g class="lines"><path class="js-line" d="M-173.61,382.65L-143.41,382.2L-144.24,382.2L-142.45,382.2L153.56,381.51L153.19,381.48L154.62,381.44L170.77,379.84L169.99,379.73L183.71,376.36L183.48,376.17L183.58,375.97L190.55,373.48L190.38,373.22L190.1,372.96L192.43,371.86L193.47,371.59L196.08,370.39L195.54,370.08L197.95,368.8L199.38,368.45L199.71,367.42L201.5,367.05L200.7,366.7L201.48,366.33L201.85,365.96L203.36,365.58L203.02,365.21L202.85,364.82L205.88,363.22L205.72,362.82L207.56,361.54L207.17,361.11L209.68,359.79L209.36,359.34L211.32,358.89L210.81,358.42L211.76,357.94L211.08,357.47L211.9,357L213.9,356.02L213.36,355.52L215.54,354.01L214.84,353.5L218.08,351.42L217.71,350.88L219.43,349.25L219.09,348.48L221.76,346.81L221.13,346.26L223.97,344.53L223.14,343.93L223.69,343.36L225.72,342.77L224.85,342.17L225.61,341.53L225.28,340.95L227.09,340.37L226.78,339.12L228.06,338.52L229.94,335.95L229.93,335.33L231.33,334.68L230.9,333.99L232,333.34L231.33,332.71L233.29,331.36L233.1,330.7L234.69,328.67L235.01,327.96L236.4,326.61L236.37,325.85L236.44,324.43L237.6,323.77L238.48,323.05L237.99,322.31L238.16,321.58L239.59,320.89L239.62,320.16L241.14,319.39L239.23,318.64L241.11,317.92L242.17,316.37L241.88,315.6L243.98,313.35L243.61,312.56L244.08,311.82L245.66,311.07L245.16,310.28L246.03,309.44L245.33,308.68L247.3,307.89L246.77,305.47L248.47,304.7L249.76,303.06L248.62,302.23L250.93,300.66L251.18,299.8L250.29,298.92L252.21,298.11L252.23,297.27L253.27,296.38L252.39,295.49L252.66,294.67L252.86,293.83L255.19,292.95L254.21,292.09L254.47,291.25L255.12,290.44L257.1,289.53L255.59,288.61L257.08,287.73L256.72,286.91L258.24,286.04L257.68,284.17L258.58,283.28L259.91,281.51L259.45,280.63L259.62,279.76L261.34,278.88L261.46,276.94L261.44,276.01L263.09,274.13L263.02,273.19L262.87,272.3L263.52,271.38L265.34,270.46L264.12,269.43L265.42,268.51L264.64,267.58L266.54,266.61L266.1,265.64L268.58,260.89L267.84,259.66L269.4,258.44L269.28,257.39L269.87,255.43L270.55,254.47L271.6,253.47L271.26,252.44L272.12,250.36L272.86,249.34L272.7,247.28L273.29,246.29L274.95,245.36L274.59,244.29L275.18,243.31L274.48,242.33L276.12,241.34L275.5,240.24L276.71,239.22L276.24,238.16L277.77,237.16L277.86,236.11L277.47,235.07L278.35,234.09L278.36,233.05L279.26,231.97L278.87,230.85L279.61,229.77L279.77,228.78L281,227.74L281.08,224.57L282.09,223.53L282.1,222.4L282.92,221.28L281.66,220.2L283.41,219.1L285.05,218.06L283.12,217L285.69,213.82L285.63,212.61L287.36,208.08L286.76,207.01L288.23,204.83L289.24,203.66L288.55,202.48L289.16,201.33L292.22,192.19L291.98,191.07L293.27,189.91L293.2,188.78L293.67,186.36L294.83,185.15L294.15,183.93L295.1,182.7L295.93,179.22L295.18,178.12L297.55,175.84L297.64,174.72L297.48,172.31L298.69,171.19L299.33,168.76L298.82,167.49L300.77,165.05L300.72,163.81L300.11,162.67L301.13,161.56L302.1,159.09L301.56,157.8L303.63,155.53L303.17,154.35L303.46,153.16L302.93,152.01L305.51,150.87L305.21,149.58L304.19,148.24L305.59,146.96L305.38,145.61L306.94,144.45L305.9,143.2L306.33,141.98L306.91,140.82L308.56,139.64L307.87,138.5L308.19,137.31L308.17,136.04L309.7,134.81L309.01,131.1L310.92,129.76L310.56,127.18L311.15,126.01L312.44,123.48L312.55,122.3L312.96,119.73L313.74,118.34L313.74,114.55L315.27,113.45L315.38,111.05L315.66,109.82L316.99,108.55L316.77,107.06L315.78,105.79L317.07,104.55L317.96,101.82L318.19,100.56L317.83,99.34L319.18,98.1L319.61,96.88L319.07,95.19L320.95,87.69L321.22,86.42L322.71,83.89L321.81,82.68L322.5,80.16L322.91,78.52L323.62,77L323.36,75.66L324.44,73.2L324.34,71.69L327.66,62.12L328.2,60.73L327.5,59.34L328.03,57.99L329.21,55.54L328.67,54.29L329.42,51.58L330.12,49.95L330.51,47.6L330.77,46.56L331.39,45.86L330.59,47.18L331.06,48.86L329.36,53.71L329.99,54.89L328.45,56.59L328.14,58.11L329,60.99L328.21,62.53L327.17,64.32L327.88,65.9L326.23,68.76L325.66,70.32L326.51,71.78L326.13,73.36L324.99,77.87L325.47,79.4L323.35,81.99L323.44,83.5L323.9,86.5L321.56,87.75L322.3,89.23L321.72,90.8L322.8,92.1L321.18,93.5L320.69,94.77L321.35,96.31L321.04,99.22L319.59,100.45L319.06,101.67L320.01,103.12L320.05,104.48L318.54,105.91L317.25,107.42L318.11,109.02L318.69,110.28L317.64,111.63L316.61,114.7L317.29,115.88L316.28,118.47L315.31,120.1L316.05,121.57L315.08,122.89L314.11,124.17L314.38,125.55L314.63,126.94L313.39,128.19L312.24,129.59L312.73,130.93L313.46,132.24L312.99,133.55L311.5,134.89L311.8,136.26L309.91,143.03L309.3,144.36L309.63,145.73L309.04,147.12L309.13,149.65L307.55,150.95L307.05,152.17L307.67,153.53L307.1,156.17L306.15,157.56L306.1,161.35L304.79,162.65L302.87,170.46L303.33,171.61L301.73,174.24L301.71,175.56L301.87,176.85L300.52,178.01L299.8,180.53L300.66,181.76L300.4,182.91L298.81,184.07L298.27,185.37L299.45,186.61L297.73,189.03L297.73,190.31L296.01,196.56L295.88,197.78L294.66,200.08L294.52,201.27L294.95,202.4L294.41,203.57L291.95,206.04L293.55,207.34L291.24,210.71L292.44,211.89L290.06,214.12L290.62,215.27L289.39,217.54L289.36,218.6L288.3,219.79L288.33,220.95L287.78,223.16L286.88,224.35L286.81,225.54L287.62,226.75L285.61,229.94L285.63,231.04L285.15,232.09L283.71,233.22L284.15,235.35L283.24,236.41L281.64,239.65L281.98,240.71L280.13,243.96L280.82,245.09L279.77,247.28L278.34,248.34L278.9,249.37L277.58,250.36L277.49,252.43L277.74,253.51L275.11,259.54L273.97,260.56L273.79,263.24L272.61,264.26L272.25,265.35L272.71,266.37L270.81,269.28L270.96,270.26L269.42,272.14L269.46,273.16L269.56,274.19L268.21,275.14L267.4,277.04L267.92,277.98L266.8,279.82L266.02,280.75L265.38,281.71L266.16,282.62L266.03,283.51L264.3,284.49L263.78,285.42L264.29,286.35L262.53,289.95L262.4,290.81L260.3,292.59L260.6,293.48L260.82,294.33L259.62,295.16L258.82,296.11L259.45,296.99L259.48,297.83L258.29,298.67L257.71,300.41L257.63,301.23L255.49,302.88L256.76,303.73L253.69,306.19L254.48,307.07L254.36,307.9L253.47,308.68L252.05,309.48L252.24,310.29L252.8,311.13L251.7,311.89L249.91,313.41L250.79,314.21L247.83,317.28L249.05,318.04L246.58,319.5L246.99,320.29L246.22,321.75L244.67,322.42L244.68,324.65L243.93,325.33L242.31,326.07L242.83,326.81L243.49,327.5L242.68,328.17L241.03,329.63L241.65,330.32L239.02,332.31L239,332.99L239.28,333.59L237.88,334.24L236.77,334.95L237.44,335.61L238.19,336.22L235.19,336.84L235.82,338.14L235.31,338.77L234.21,339.96L233.22,340.64L233.73,341.22L232.38,341.82L232.41,342.4L231.46,343.06L230.39,344.77L229.85,345.38L228.48,347.04L227.17,347.59L227.79,348.18L227.01,348.71L225.48,350.37L226.08,350.86L223.36,351.89L224.23,352.43L221.48,354.43L222.08,354.91L219.65,356.37L219.29,356.86L219.44,357.32L218.47,357.73L217.46,358.24L218.35,358.72L215.71,360.02L216.32,360.44L213.24,362.58L211.78,362.94L211.04,363.34L212.29,363.78L210.61,364.55L209.34,364.89L208.93,365.28L210.04,365.67L206.87,366.73L207.47,367.15L207.25,367.47L205.37,368.29L205.81,368.6L205.01,368.93L202.93,369.88L203.1,370.2L199.83,371.67L199.24,371.95L196.42,373.79L194.7,374.04L193.11,374.98L191.91,375.21L192.75,375.43L192.03,375.64L190.54,375.84L187.64,376.83L188.04,377.03L188.17,377.21L183.48,378.2L183.87,378.37L183.68,378.51L174.38,380.45L174.35,380.53L137.45,382.65L136.06,382.66L137.29,382.67L60.14,382.79L58.3,382.78L-202.53,382.58" style="vector-effect: non-scaling-stroke; fill: none; stroke: rgb(46, 145, 229); stroke-opacity: 1; stroke-width: 3px; opacity: 1;"/></g><g class="points"/><g class="text"/></g><g class="trace scatter trace7fe7ee" style="stroke-miterlimit: 2; opacity: 1;"><g class="fills"/><g class="errorbars"/><g class="lines"><path class="js-line" d="M-173.59,382.55L257.11,381.8L257.75,381.79L354.66,379.53L355.28,379.51L390.96,378.32L374.05,379.32L373.47,379.34L319.46,381.14L318.94,381.15L215.46,382.33L214.79,382.33L-173.79,382.53L-173.72,382.54" style="vector-effect: non-scaling-stroke; fill: none; stroke: rgb(225, 95, 153); stroke-opacity: 1; stroke-width: 3px; opacity: 1;"/></g><g class="points"/><g class="text"/></g></g></g><g class="overplot"/><path class="xlines-above crisp" d="M85,425H483" style="fill: none; stroke-width: 2px; stroke: rgb(0, 0, 0); stroke-opacity: 1;"/><path class="ylines-above crisp" d="M86,16V424" style="fill: none; stroke-width: 2px; stroke: rgb(0, 0, 0); stroke-opacity: 1;"/><g class="overlines-above"/><g class="xaxislayer-above"><path class="xtick ticks crisp" d="M0,426v5" transform="translate(87,0)" style="stroke: rgb(68, 68, 68); stroke-opacity: 1; stroke-width: 1px;"/><path class="xtick ticks crisp" d="M0,426v5" transform="translate(143.57,0)" style="stroke: rgb(68, 68, 68); stroke-opacity: 1; stroke-width: 1px;"/><path class="xtick ticks crisp" d="M0,426v5" transform="translate(200.14,0)" style="stroke: rgb(68, 68, 68); stroke-opacity: 1; stroke-width: 1px;"/><path class="xtick ticks crisp" d="M0,426v5" transform="translate(256.71000000000004,0)" style="stroke: rgb(68, 68, 68); stroke-opacity: 1; stroke-width: 1px;"/><path class="xtick ticks crisp" d="M0,426v5" transform="translate(313.28999999999996,0)" style="stroke: rgb(68, 68, 68); stroke-opacity: 1; stroke-width: 1px;"/><path class="xtick ticks crisp" d="M0,426v5" transform="translate(369.86,0)" style="stroke: rgb(68, 68, 68); stroke-opacity: 1; stroke-width: 1px;"/><path class="xtick ticks crisp" d="M0,426v5" transform="translate(426.43,0)" style="stroke: rgb(68, 68, 68); stroke-opacity: 1; stroke-width: 1px;"/><path class="xtick ticks crisp" d="M0,426v5" transform="translate(483,0)" style="stroke: rgb(68, 68, 68); stroke-opacity: 1; stroke-width: 1px;"/><g class="xtick"><text text-anchor="middle" x="0" y="459.8" transform="translate(87,0)" style="font-family: Arial, monospace; font-size: 24px; fill: rgb(0, 0, 0); fill-opacity: 1; white-space: pre; opacity: 1;">0</text></g><g class="xtick"><text text-anchor="middle" x="0" y="459.8" style="font-family: Arial, monospace; font-size: 24px; fill: rgb(0, 0, 0); fill-opacity: 1; white-space: pre; opacity: 1;" transform="translate(143.57,0)">0.1</text></g><g class="xtick"><text text-anchor="middle" x="0" y="459.8" style="font-family: Arial, monospace; font-size: 24px; fill: rgb(0, 0, 0); fill-opacity: 1; white-space: pre; opacity: 1;" transform="translate(200.14,0)">0.2</text></g><g class="xtick"><text text-anchor="middle" x="0" y="459.8" style="font-family: Arial, monospace; font-size: 24px; fill: rgb(0, 0, 0); fill-opacity: 1; white-space: pre; opacity: 1;" transform="translate(256.71000000000004,0)">0.3</text></g><g class="xtick"><text text-anchor="middle" x="0" y="459.8" style="font-family: Arial, monospace; font-size: 24px; fill: rgb(0, 0, 0); fill-opacity: 1; white-space: pre; opacity: 1;" transform="translate(313.28999999999996,0)">0.4</text></g><g class="xtick"><text text-anchor="middle" x="0" y="459.8" style="font-family: Arial, monospace; font-size: 24px; fill: rgb(0, 0, 0); fill-opacity: 1; white-space: pre; opacity: 1;" transform="translate(369.86,0)">0.5</text></g><g class="xtick"><text text-anchor="middle" x="0" y="459.8" style="font-family: Arial, monospace; font-size: 24px; fill: rgb(0, 0, 0); fill-opacity: 1; white-space: pre; opacity: 1;" transform="translate(426.43,0)">0.6</text></g><g class="xtick"><text text-anchor="middle" x="0" y="459.8" style="font-family: Arial, monospace; font-size: 24px; fill: rgb(0, 0, 0); fill-opacity: 1; white-space: pre; opacity: 1;" transform="translate(483,0)">0.7</text></g></g><g class="yaxislayer-above"><path class="ytick ticks crisp" d="M85,0h-5" transform="translate(0,398.5)" style="stroke: rgb(68, 68, 68); stroke-opacity: 1; stroke-width: 1px;"/><path class="ytick ticks crisp" d="M85,0h-5" transform="translate(0,347.5)" style="stroke: rgb(68, 68, 68); stroke-opacity: 1; stroke-width: 1px;"/><path class="ytick ticks crisp" d="M85,0h-5" transform="translate(0,296.5)" style="stroke: rgb(68, 68, 68); stroke-opacity: 1; stroke-width: 1px;"/><path class="ytick ticks crisp" d="M85,0h-5" transform="translate(0,245.5)" style="stroke: rgb(68, 68, 68); stroke-opacity: 1; stroke-width: 1px;"/><path class="ytick ticks crisp" d="M85,0h-5" transform="translate(0,194.5)" style="stroke: rgb(68, 68, 68); stroke-opacity: 1; stroke-width: 1px;"/><path class="ytick ticks crisp" d="M85,0h-5" transform="translate(0,143.5)" style="stroke: rgb(68, 68, 68); stroke-opacity: 1; stroke-width: 1px;"/><path class="ytick ticks crisp" d="M85,0h-5" transform="translate(0,92.5)" style="stroke: rgb(68, 68, 68); stroke-opacity: 1; stroke-width: 1px;"/><path class="ytick ticks crisp" d="M85,0h-5" transform="translate(0,41.5)" style="stroke: rgb(68, 68, 68); stroke-opacity: 1; stroke-width: 1px;"/><g class="ytick"><text text-anchor="end" x="75.2" y="8.399999999999999" transform="translate(0,398.5)" style="font-family: Arial, monospace; font-size: 24px; fill: rgb(0, 0, 0); fill-opacity: 1; white-space: pre; opacity: 1;">0</text></g><g class="ytick"><text text-anchor="end" x="75.2" y="8.399999999999999" style="font-family: Arial, monospace; font-size: 24px; fill: rgb(0, 0, 0); fill-opacity: 1; white-space: pre; opacity: 1;" transform="translate(0,347.5)">20</text></g><g class="ytick"><text text-anchor="end" x="75.2" y="8.399999999999999" style="font-family: Arial, monospace; font-size: 24px; fill: rgb(0, 0, 0); fill-opacity: 1; white-space: pre; opacity: 1;" transform="translate(0,296.5)">40</text></g><g class="ytick"><text text-anchor="end" x="75.2" y="8.399999999999999" style="font-family: Arial, monospace; font-size: 24px; fill: rgb(0, 0, 0); fill-opacity: 1; white-space: pre; opacity: 1;" transform="translate(0,245.5)">60</text></g><g class="ytick"><text text-anchor="end" x="75.2" y="8.399999999999999" style="font-family: Arial, monospace; font-size: 24px; fill: rgb(0, 0, 0); fill-opacity: 1; white-space: pre; opacity: 1;" transform="translate(0,194.5)">80</text></g><g class="ytick"><text text-anchor="end" x="75.2" y="8.399999999999999" style="font-family: Arial, monospace; font-size: 24px; fill: rgb(0, 0, 0); fill-opacity: 1; white-space: pre; opacity: 1;" transform="translate(0,143.5)">100</text></g><g class="ytick"><text text-anchor="end" x="75.2" y="8.399999999999999" style="font-family: Arial, monospace; font-size: 24px; fill: rgb(0, 0, 0); fill-opacity: 1; white-space: pre; opacity: 1;" transform="translate(0,92.5)">120</text></g><g class="ytick"><text text-anchor="end" x="75.2" y="8.399999999999999" style="font-family: Arial, monospace; font-size: 24px; fill: rgb(0, 0, 0); fill-opacity: 1; white-space: pre; opacity: 1;" transform="translate(0,41.5)">140</text></g></g><g class="overaxes-above"/></g></g><g class="polarlayer"/><g class="smithlayer"/><g class="ternarylayer"/><g class="geolayer"/><g class="funnelarealayer"/><g class="pielayer"/><g class="iciclelayer"/><g class="treemaplayer"/><g class="sunburstlayer"/><g class="glimages"/><defs id="topdefs-adf778"><g class="clips"/><clipPath id="legendadf778"><rect width="155" height="79" x="0" y="0"/></clipPath></defs><g class="layer-above"><g class="imagelayer"/><g class="shapelayer"/></g><g class="infolayer"><g class="legend" pointer-events="all" transform="translate(87,0)"><rect class="bg" shape-rendering="crispEdges" width="155" height="79" x="0" y="0" style="stroke: rgb(68, 68, 68); stroke-opacity: 1; fill: rgb(255, 255, 255); fill-opacity: 1; stroke-width: 0px;"/><g class="scrollbox" transform="" clip-path="url(#legendadf778)"><g class="groups"><g class="traces" transform="translate(0,22.1)" style="opacity: 1;"><text class="legendtext" text-anchor="start" x="40" y="9.360000000000001" style="font-family: Arial, monospace; font-size: 24px; fill: rgb(0, 0, 0); fill-opacity: 1; white-space: pre;">IrO​<tspan style="font-size:70%" dy="0.3em">x</tspan><tspan dy="-0.21em">​</tspan></text><g class="layers" style="opacity: 1;"><g class="legendfill"/><g class="legendlines"><path class="js-line" d="M5,0h30" style="fill: none; stroke: rgb(46, 145, 229); stroke-opacity: 1; stroke-width: 3px;"/></g><g class="legendsymbols"><g class="legendpoints"/></g></g><rect class="legendtoggle" x="0" y="-17.1" width="149.03125" height="34.2" style="fill: rgb(0, 0, 0); fill-opacity: 0;"/></g><g class="traces" transform="translate(0,56.300000000000004)" style="opacity: 1;"><text class="legendtext" text-anchor="start" x="40" y="9.360000000000001" style="font-family: Arial, monospace; font-size: 24px; fill: rgb(0, 0, 0); fill-opacity: 1; white-space: pre;">NiCoFeO​<tspan style="font-size:70%" dy="0.3em">x</tspan><tspan dy="-0.21em">​</tspan></text><g class="layers" style="opacity: 1;"><g class="legendfill"/><g class="legendlines"><path class="js-line" d="M5,0h30" style="fill: none; stroke: rgb(225, 95, 153); stroke-opacity: 1; stroke-width: 3px;"/></g><g class="legendsymbols"><g class="legendpoints"/></g></g><rect class="legendtoggle" x="0" y="-17.1" width="149.03125" height="34.2" style="fill: rgb(0, 0, 0); fill-opacity: 0;"/></g></g></g><rect class="scrollbar" rx="20" ry="3" width="0" height="0" x="0" y="0" style="fill: rgb(128, 139, 164); fill-opacity: 1;"/></g><g class="g-gtitle"/><g class="g-xtitle" transform="translate(0,-10.206250000000011)"><text class="xtitle" x="285" y="500.1125" text-anchor="middle" style="font-family: Arial, monospace; font-size: 29px; fill: rgb(0, 0, 0); opacity: 1; font-weight: normal; white-space: pre;">Overpotential, η(V) - iR​<tspan style="font-size:70%" dy="0.3em">u</tspan><tspan dy="-0.21em">​</tspan></text></g><g class="g-ytitle" transform="translate(30.3310546875,0)"><text class="ytitle" transform="rotate(-90,-0.14374999999999716,220)" x="-0.14374999999999716" y="220" text-anchor="middle" style="font-family: Arial, monospace; font-size: 29px; fill: rgb(0, 0, 0); opacity: 1; font-weight: normal; white-space: pre;">Current Density (mA/cm​<tspan style="font-size:70%" dy="-0.6em">2</tspan><tspan dy="0.42em">​</tspan>)</text></g></g></svg>