<svg class="main-svg" xmlns="http://www.w3.org/2000/svg" xmlns:xlink="http://www.w3.org/1999/xlink" width="500" height="500" style="" viewBox="0 0 500 500"><rect x="0" y="0" width="500" height="500" style="fill: rgb(255, 255, 255); fill-opacity: 1;"/><defs id="defs-f688bd"><g class="clips"><clipPath id="clipf688bdxyplot" class="plotclip"><rect width="396" height="408"/></clipPath><clipPath class="axesclip" id="clipf688bdx"><rect x="87" y="0" width="396" height="500"/></clipPath><clipPath class="axesclip" id="clipf688bdy"><rect x="0" y="16" width="500" height="408"/></clipPath><clipPath class="axesclip" id="clipf688bdxy"><rect x="87" y="16" width="396" height="408"/></clipPath></g><g class="gradients"/><g class="patterns"/></defs><g class="bglayer"><rect class="bg" x="87" y="16" width="396" height="408" style="fill: rgb(0, 0, 0); fill-opacity: 0; stroke-width: 0;"/></g><g class="layer-below"><g class="imagelayer"/><g class="shapelayer"/></g><g class="cartesianlayer"><g class="subplot xy"><g class="layer-subplot"><g class="shapelayer"/><g class="imagelayer"/></g><g class="minor-gridlayer"><g class="x"/><g class="y"/></g><g class="gridlayer"><g class="x"/><g class="y"/></g><g class="zerolinelayer"><path class="yzl zl crisp" transform="translate(0,398.5)" d="M87,0h396" style="stroke: rgb(128, 128, 128); stroke-opacity: 1; stroke-width: 1px;"/></g><path class="xlines-below"/><path class="ylines-below"/><g class="overlines-below"/><g class="xaxislayer-below"/><g class="yaxislayer-below"/><g class="overaxes-below"/><g class="plot" transform="translate(87,16)" clip-path="url(#clipf688bdxyplot)"><g class="scatterlayer mlayer"><g class="trace scatter trace440239" style="stroke-miterlimit: 2; opacity: 1;"><g class="fills"/><g class="errorbars"/><g class="lines"><path class="js-line" d="M-173.71,382.56L-26.62,382.48L-26.05,382.48L189.65,381.73L190.2,381.71L209.67,380.34L210.21,380.27L223.55,378.16L224.13,378.05L236.43,374.83L236.96,374.66L247.92,370.45L248.46,370.21L261.62,362.94L262.09,362.61L273.85,353.39L274.31,352.97L282.33,345.16L282.76,344.65L293.12,332.19L293.52,331.63L299.21,323.82L299.64,323.18L304.36,316.01L304.72,315.37L310.59,305.64L311,304.92L318.34,291.79L318.76,291.05L350.22,226.82L350.6,225.71L355.28,215.97L355.65,215.19L355.9,214.66L346.9,240.41L346.41,240.96L339.96,255.68L339.69,256.69L321.15,294.39L320.74,295.08L313.26,307.95L312.84,308.54L304.75,320.77L304.27,321.42L301.63,324.62L301.21,325.19L286.26,342.83L285.77,343.32L276.81,351.63L276.35,352.04L266.09,359.66L265.6,359.98L248.31,369.13L247.79,369.35L237.71,373.11L237.18,373.28L220.53,377.63L219.96,377.74L205.8,380.07L205.25,380.13L185.63,381.78L185.07,381.8L157.86,382.39L157.25,382.4L-222.36,382.57" style="vector-effect: non-scaling-stroke; fill: none; stroke: rgb(235, 102, 59); stroke-opacity: 1; stroke-width: 3px; opacity: 1;"/></g><g class="points"/><g class="text"/></g><g class="trace scatter trace1504ab" style="stroke-miterlimit: 2; opacity: 1;"><g class="fills"/><g class="errorbars"/><g class="lines"><path class="js-line" d="M-204.04,382.51L-71.97,382.39L-70.23,382.39L129.95,380.92L131.57,380.8L169.35,377.17L170.99,376.98L191.35,373.82L193.04,373.45L206.24,369.64L207.87,369.05L220.69,363.35L222.33,362.51L234.87,355.16L236.38,354.15L247.27,346.78L248.7,345.69L264.1,334.24L265.5,333.07L280.69,320.8L282.12,319.55L295.6,307.95L297.12,306.62L322.48,283.39L323.88,282L349.19,259.45L350.75,258.4L355.35,254.66L356.8,253.58L359.65,250.02L361.07,248.85L365.94,245.16L365.25,246.52L357.44,260.94L356.17,262.98L349.17,271.91L347.73,273.66L339.16,283.49L337.43,283.98L331.71,289.83L330.17,291.37L324.07,296.36L322.63,297.68L304.8,313.49L303.04,314.32L272.5,336.39L270.81,337.02L256.74,345.5L255.16,346.44L237.94,356.26L236.3,357.11L218.67,365.67L217.1,366.36L200.73,372.67L199.01,373.2L182.45,377.58L180.73,377.93L165.56,380.33L163.86,380.52L139.66,382.25L137.83,382.33L90.9,383.42L89.31,383.45L40.48,383.29L38.67,383.25L-343.53,383.45L-328.71,383.38L-326.98,383.37L-203.99,382.48" style="vector-effect: non-scaling-stroke; fill: none; stroke: rgb(81, 28, 251); stroke-opacity: 1; stroke-width: 3px; opacity: 1;"/></g><g class="points"/><g class="text"/></g><g class="trace scatter traceaeb250" style="stroke-miterlimit: 2; opacity: 1;"><g class="fills"/><g class="errorbars"/><g class="lines"><path class="js-line" d="M-173.52,383.09L-25.7,381.83L-25.15,381.83L111.73,378.73L112.31,378.69L163.74,375.09L164.31,375.04L174.68,373.31L175.28,373.18L184.32,370.23L184.82,370.01L198.1,362.4L198.52,362.04L209.15,352.73L209.66,352.26L215.81,345.86L216.23,345.34L229.41,328.89L229.87,328.28L234.79,321.35L235.14,320.69L241.16,311.3L241.68,310.65L244.08,306.34L244.57,305.64L249.92,295.65L250.29,294.82L253.54,288.55L253.99,287.68L256.4,282.83L256.86,282.05L261.99,271.17L262.36,270.21L265.06,263.91L265.32,262.46L268.66,253.13L269.03,252.21L271.58,245.26L271.88,244.13L274.19,238.7L274.6,237.24L276.54,230.78L276.92,229.74L279.18,221.22L279.59,220.29L287.62,191.88L287.81,190.02L288.78,186.43L289.13,185.31L290.09,179.38L290.5,178.31L292.77,169.82L293.08,168.43L294.75,162.6L294.97,161.2L296.72,155.66L296.85,153.28L298.12,145.34L298.37,144.16L300.15,136L300.49,134.67L303.49,121.61L303.86,120.63L305.47,114.74L305.78,113.37L307.09,105.8L307.4,104.56L309.19,95.88L309.6,94.73L310.84,89.6L311.2,88.28L312.67,82.35L313.16,81.21L314.94,73.42L314.97,70.61L318.14,55.53L318.62,54.69L319.67,51.56L319.88,49.74L320.66,45.21L320.99,43.87L321.48,40.58L321.65,38.56L322.59,35.16L321.95,39.04L321.63,40.49L320.89,42.36L320.68,44.03L318.93,52.94L318.59,53.94L317.61,54.55L317.22,55.91L316.12,61.48L315.85,62.97L314.22,71.72L313.99,73.51L310.64,84.65L310.16,85.7L306.61,104.4L306.31,105.74L299,137.41L298.54,138.22L296.55,147.47L296.31,148.85L294.48,154.4L294.24,155.75L288.33,180L288.05,181.27L280.16,207.16L279.79,208.31L276.57,219.9L276.18,220.87L271.04,236.02L270.8,237.23L268.47,244.78L268.04,245.74L253.05,284.79L252.6,285.75L250.34,290.79L249.98,291.64L248.26,294.88L247.89,295.8L236.92,317.75L236.45,318.45L223.85,339.31L223.33,339.9L206.43,360.03L205.94,360.48L193.79,370.36L193.28,370.7L184.32,375.69L183.81,375.93L177.56,378.5L177.06,378.68L169.71,380.92L169.01,381.05L158.59,383.09L157.95,383.16L142.52,384.73L141.9,384.77L114.82,385.85L114.25,385.86L79.72,385.81L79.15,385.8L38.2,385.05L37.72,385.04L-316.62,382.78" style="vector-effect: non-scaling-stroke; fill: none; stroke: rgb(251, 0, 209); stroke-opacity: 1; stroke-width: 3px; opacity: 1;"/></g><g class="points"/><g class="text"/></g><g class="trace scatter traced1ec9e" style="stroke-miterlimit: 2; opacity: 1;"><g class="fills"/><g class="errorbars"/><g class="lines"><path class="js-line" d="M-173.6,382.89L-17.94,381.27L-17.38,381.27L57.78,380.65L58.35,380.65L122.58,378.78L123.13,378.75L162.35,376.78L162.93,376.71L173.81,374.6L174.36,374.45L183.27,371.07L183.78,370.82L193.3,365.05L193.82,364.69L201.54,358.33L202.08,357.89L205.41,354.64L205.96,354.06L215.14,343.87L215.61,343.33L223.23,333.62L223.7,333.01L231.46,321.64L231.91,320.97L239.09,309.09L239.44,308.34L247.62,292.8L247.99,291.97L260.25,263.61L260.63,262.6L275.51,222.23L275.79,220.71L277.44,214.9L277.75,213.84L284.91,190.96L285.16,189.33L288.47,178.2L288.84,177.11L293.36,160.6L293.62,159.33L308.09,102.48L308.34,100.51L312.06,85.68L312.37,84.47L315.09,73.03L315.39,71.88L318.21,60.96L318.6,59.78L321.09,50.3L321.35,48.66L322.32,45.43L321.24,50.07L321.07,51.58L313.74,84.63L313.3,85.66L310.07,100.09L309.73,101.07L304.83,121.29L304.54,122.57L288.81,180.53L288.42,181.53L279.68,208L279.4,209.14L274.56,224.09L274.19,225.09L266.72,246.32L266.33,247.22L250.08,284.7L249.64,285.55L244.12,296.98L243.67,297.76L240.5,304.05L240.08,304.81L232.23,318.69L231.8,319.41L216.61,341.83L216.18,342.42L202.51,358.28L201.96,358.75L193.39,366.44L192.91,366.82L182.28,373.94L181.76,374.22L174.03,377.85L173.51,378.06L164.98,380.76L164.52,380.9L150.12,383.35L149.57,383.41L128.34,384.67L127.76,384.69L83.08,384.86L82.56,384.85L-452.86,382.67" style="vector-effect: non-scaling-stroke; fill: none; stroke: rgb(0, 160, 139); stroke-opacity: 1; stroke-width: 3px; opacity: 1;"/></g><g class="points"/><g class="text"/></g></g></g><g class="overplot"/><path class="xlines-above crisp" d="M85,425H483" style="fill: none; stroke-width: 2px; stroke: rgb(0, 0, 0); stroke-opacity: 1;"/><path class="ylines-above crisp" d="M86,16V424" style="fill: none; stroke-width: 2px; stroke: rgb(0, 0, 0); stroke-opacity: 1;"/><g class="overlines-above"/><g class="xaxislayer-above"><path class="xtick ticks crisp" d="M0,426v5" transform="translate(87,0)" style="stroke: rgb(68, 68, 68); stroke-opacity: 1; stroke-width: 1px;"/><path class="xtick ticks crisp" d="M0,426v5" transform="translate(143.57,0)" style="stroke: rgb(68, 68, 68); stroke-opacity: 1; stroke-width: 1px;"/><path class="xtick ticks crisp" d="M0,426v5" transform="translate(200.14,0)" style="stroke: rgb(68, 68, 68); stroke-opacity: 1; stroke-width: 1px;"/><path class="xtick ticks crisp" d="M0,426v5" transform="translate(256.71000000000004,0)" style="stroke: rgb(68, 68, 68); stroke-opacity: 1; stroke-width: 1px;"/><path class="xtick ticks crisp" d="M0,426v5" transform="translate(313.28999999999996,0)" style="stroke: rgb(68, 68, 68); stroke-opacity: 1; stroke-width: 1px;"/><path class="xtick ticks crisp" d="M0,426v5" transform="translate(369.86,0)" style="stroke: rgb(68, 68, 68); stroke-opacity: 1; stroke-width: 1px;"/><path class="xtick ticks crisp" d="M0,426v5" transform="translate(426.43,0)" style="stroke: rgb(68, 68, 68); stroke-opacity: 1; stroke-width: 1px;"/><path class="xtick ticks crisp" d="M0,426v5" transform="translate(483,0)" style="stroke: rgb(68, 68, 68); stroke-opacity: 1; stroke-width: 1px;"/><g class="xtick"><text text-anchor="middle" x="0" y="459.8" transform="translate(87,0)" style="font-family: Arial, monospace; font-size: 24px; fill: rgb(0, 0, 0); fill-opacity: 1; white-space: pre; opacity: 1;">0</text></g><g class="xtick"><text text-anchor="middle" x="0" y="459.8" style="font-family: Arial, monospace; font-size: 24px; fill: rgb(0, 0, 0); fill-opacity: 1; white-space: pre; opacity: 1;" transform="translate(143.57,0)">0.1</text></g><g class="xtick"><text text-anchor="middle" x="0" y="459.8" style="font-family: Arial, monospace; font-size: 24px; fill: rgb(0, 0, 0); fill-opacity: 1; white-space: pre; opacity: 1;" transform="translate(200.14,0)">0.2</text></g><g class="xtick"><text text-anchor="middle" x="0" y="459.8" style="font-family: Arial, monospace; font-size: 24px; fill: rgb(0, 0, 0); fill-opacity: 1; white-space: pre; opacity: 1;" transform="translate(256.71000000000004,0)">0.3</text></g><g class="xtick"><text text-anchor="middle" x="0" y="459.8" style="font-family: Arial, monospace; font-size: 24px; fill: rgb(0, 0, 0); fill-opacity: 1; white-space: pre; opacity: 1;" transform="translate(313.28999999999996,0)">0.4</text></g><g class="xtick"><text text-anchor="middle" x="0" y="459.8" style="font-family: Arial, monospace; font-size: 24px; fill: rgb(0, 0, 0); fill-opacity: 1; white-space: pre; opacity: 1;" transform="translate(369.86,0)">0.5</text></g><g class="xtick"><text text-anchor="middle" x="0" y="459.8" style="font-family: Arial, monospace; font-size: 24px; fill: rgb(0, 0, 0); fill-opacity: 1; white-space: pre; opacity: 1;" transform="translate(426.43,0)">0.6</text></g><g class="xtick"><text text-anchor="middle" x="0" y="459.8" style="font-family: Arial, monospace; font-size: 24px; fill: rgb(0, 0, 0); fill-opacity: 1; white-space: pre; opacity: 1;" transform="translate(483,0)">0.7</text></g></g><g class="yaxislayer-above"><path class="ytick ticks crisp" d="M85,0h-5" transform="translate(0,398.5)" style="stroke: rgb(68, 68, 68); stroke-opacity: 1; stroke-width: 1px;"/><path class="ytick ticks crisp" d="M85,0h-5" transform="translate(0,347.5)" style="stroke: rgb(68, 68, 68); stroke-opacity: 1; stroke-width: 1px;"/><path class="ytick ticks crisp" d="M85,0h-5" transform="translate(0,296.5)" style="stroke: rgb(68, 68, 68); stroke-opacity: 1; stroke-width: 1px;"/><path class="ytick ticks crisp" d="M85,0h-5" transform="translate(0,245.5)" style="stroke: rgb(68, 68, 68); stroke-opacity: 1; stroke-width: 1px;"/><path class="ytick ticks crisp" d="M85,0h-5" transform="translate(0,194.5)" style="stroke: rgb(68, 68, 68); stroke-opacity: 1; stroke-width: 1px;"/><path class="ytick ticks crisp" d="M85,0h-5" transform="translate(0,143.5)" style="stroke: rgb(68, 68, 68); stroke-opacity: 1; stroke-width: 1px;"/><path class="ytick ticks crisp" d="M85,0h-5" transform="translate(0,92.5)" style="stroke: rgb(68, 68, 68); stroke-opacity: 1; stroke-width: 1px;"/><path class="ytick ticks crisp" d="M85,0h-5" transform="translate(0,41.5)" style="stroke: rgb(68, 68, 68); stroke-opacity: 1; stroke-width: 1px;"/><g class="ytick"><text text-anchor="end" x="75.2" y="8.399999999999999" transform="translate(0,398.5)" style="font-family: Arial, monospace; font-size: 24px; fill: rgb(0, 0, 0); fill-opacity: 1; white-space: pre; opacity: 1;">0</text></g><g class="ytick"><text text-anchor="end" x="75.2" y="8.399999999999999" style="font-family: Arial, monospace; font-size: 24px; fill: rgb(0, 0, 0); fill-opacity: 1; white-space: pre; opacity: 1;" transform="translate(0,347.5)">20</text></g><g class="ytick"><text text-anchor="end" x="75.2" y="8.399999999999999" style="font-family: Arial, monospace; font-size: 24px; fill: rgb(0, 0, 0); fill-opacity: 1; white-space: pre; opacity: 1;" transform="translate(0,296.5)">40</text></g><g class="ytick"><text text-anchor="end" x="75.2" y="8.399999999999999" style="font-family: Arial, monospace; font-size: 24px; fill: rgb(0, 0, 0); fill-opacity: 1; white-space: pre; opacity: 1;" transform="translate(0,245.5)">60</text></g><g class="ytick"><text text-anchor="end" x="75.2" y="8.399999999999999" style="font-family: Arial, monospace; font-size: 24px; fill: rgb(0, 0, 0); fill-opacity: 1; white-space: pre; opacity: 1;" transform="translate(0,194.5)">80</text></g><g class="ytick"><text text-anchor="end" x="75.2" y="8.399999999999999" style="font-family: Arial, monospace; font-size: 24px; fill: rgb(0, 0, 0); fill-opacity: 1; white-space: pre; opacity: 1;" transform="translate(0,143.5)">100</text></g><g class="ytick"><text text-anchor="end" x="75.2" y="8.399999999999999" style="font-family: Arial, monospace; font-size: 24px; fill: rgb(0, 0, 0); fill-opacity: 1; white-space: pre; opacity: 1;" transform="translate(0,92.5)">120</text></g><g class="ytick"><text text-anchor="end" x="75.2" y="8.399999999999999" style="font-family: Arial, monospace; font-size: 24px; fill: rgb(0, 0, 0); fill-opacity: 1; white-space: pre; opacity: 1;" transform="translate(0,41.5)">140</text></g></g><g class="overaxes-above"/></g></g><g class="polarlayer"/><g class="smithlayer"/><g class="ternarylayer"/><g class="geolayer"/><g class="funnelarealayer"/><g class="pielayer"/><g class="iciclelayer"/><g class="treemaplayer"/><g class="sunburstlayer"/><g class="glimages"/><defs id="topdefs-f688bd"><g class="clips"/><clipPath id="legendf688bd"><rect width="168" height="147" x="0" y="0"/></clipPath></defs><g class="layer-above"><g class="imagelayer"/><g class="shapelayer"/></g><g class="infolayer"><g class="legend" pointer-events="all" transform="translate(87,0)"><rect class="bg" shape-rendering="crispEdges" width="168" height="147" x="0" y="0" style="stroke: rgb(68, 68, 68); stroke-opacity: 1; fill: rgb(255, 255, 255); fill-opacity: 1; stroke-width: 0px;"/><g class="scrollbox" transform="" clip-path="url(#legendf688bd)"><g class="groups"><g class="traces" transform="translate(0,22.1)" style="opacity: 1;"><text class="legendtext" text-anchor="start" x="40" y="9.360000000000001" style="font-family: Arial, monospace; font-size: 24px; fill: rgb(0, 0, 0); fill-opacity: 1; white-space: pre;">Ni​<tspan style="font-size:70%" dy="0.3em">90</tspan><tspan dy="-0.21em">​</tspan>Co​<tspan style="font-size:70%" dy="0.3em">10</tspan><tspan dy="-0.21em">​</tspan>N​<tspan style="font-size:70%" dy="0.3em">x</tspan><tspan dy="-0.21em">​</tspan></text><g class="layers" style="opacity: 1;"><g class="legendfill"/><g class="legendlines"><path class="js-line" d="M5,0h30" style="fill: none; stroke: rgb(235, 102, 59); stroke-opacity: 1; stroke-width: 3px;"/></g><g class="legendsymbols"><g class="legendpoints"/></g></g><rect class="legendtoggle" x="0" y="-17.1" width="162.375" height="34.2" style="fill: rgb(0, 0, 0); fill-opacity: 0;"/></g><g class="traces" transform="translate(0,56.300000000000004)" style="opacity: 1;"><text class="legendtext" text-anchor="start" x="40" y="9.360000000000001" style="font-family: Arial, monospace; font-size: 24px; fill: rgb(0, 0, 0); fill-opacity: 1; white-space: pre;">Ni​<tspan style="font-size:70%" dy="0.3em">90</tspan><tspan dy="-0.21em">​</tspan>Fe​<tspan style="font-size:70%" dy="0.3em">10</tspan><tspan dy="-0.21em">​</tspan>N​<tspan style="font-size:70%" dy="0.3em">x</tspan><tspan dy="-0.21em">​</tspan></text><g class="layers" style="opacity: 1;"><g class="legendfill"/><g class="legendlines"><path class="js-line" d="M5,0h30" style="fill: none; stroke: rgb(81, 28, 251); stroke-opacity: 1; stroke-width: 3px;"/></g><g class="legendsymbols"><g class="legendpoints"/></g></g><rect class="legendtoggle" x="0" y="-17.1" width="162.375" height="34.2" style="fill: rgb(0, 0, 0); fill-opacity: 0;"/></g><g class="traces" transform="translate(0,90.5)" style="opacity: 1;"><text class="legendtext" text-anchor="start" x="40" y="9.360000000000001" style="font-family: Arial, monospace; font-size: 24px; fill: rgb(0, 0, 0); fill-opacity: 1; white-space: pre;">Co​<tspan style="font-size:70%" dy="0.3em">90</tspan><tspan dy="-0.21em">​</tspan>Ni​<tspan style="font-size:70%" dy="0.3em">10</tspan><tspan dy="-0.21em">​</tspan>N​<tspan style="font-size:70%" dy="0.3em">x</tspan><tspan dy="-0.21em">​</tspan></text><g class="layers" style="opacity: 1;"><g class="legendfill"/><g class="legendlines"><path class="js-line" d="M5,0h30" style="fill: none; stroke: rgb(251, 0, 209); stroke-opacity: 1; stroke-width: 3px;"/></g><g class="legendsymbols"><g class="legendpoints"/></g></g><rect class="legendtoggle" x="0" y="-17.1" width="162.375" height="34.2" style="fill: rgb(0, 0, 0); fill-opacity: 0;"/></g><g class="traces" transform="translate(0,124.70000000000002)" style="opacity: 1;"><text class="legendtext" text-anchor="start" x="40" y="9.360000000000001" style="font-family: Arial, monospace; font-size: 24px; fill: rgb(0, 0, 0); fill-opacity: 1; white-space: pre;">Co​<tspan style="font-size:70%" dy="0.3em">90</tspan><tspan dy="-0.21em">​</tspan>Fe​<tspan style="font-size:70%" dy="0.3em">10</tspan><tspan dy="-0.21em">​</tspan>N​<tspan style="font-size:70%" dy="0.3em">x</tspan><tspan dy="-0.21em">​</tspan></text><g class="layers" style="opacity: 1;"><g class="legendfill"/><g class="legendlines"><path class="js-line" d="M5,0h30" style="fill: none; stroke: rgb(0, 160, 139); stroke-opacity: 1; stroke-width: 3px;"/></g><g class="legendsymbols"><g class="legendpoints"/></g></g><rect class="legendtoggle" x="0" y="-17.1" width="162.375" height="34.2" style="fill: rgb(0, 0, 0); fill-opacity: 0;"/></g></g></g><rect class="scrollbar" rx="20" ry="3" width="0" height="0" x="0" y="0" style="fill: rgb(128, 139, 164); fill-opacity: 1;"/></g><g class="g-gtitle"/><g class="g-xtitle" transform="translate(0,-10.206250000000011)"><text class="xtitle" x="285" y="500.1125" text-anchor="middle" style="font-family: Arial, monospace; font-size: 29px; fill: rgb(0, 0, 0); opacity: 1; font-weight: normal; white-space: pre;">Overpotential, η(V) - iR​<tspan style="font-size:70%" dy="0.3em">u</tspan><tspan dy="-0.21em">​</tspan></text></g><g class="g-ytitle" transform="translate(30.3310546875,0)"><text class="ytitle" transform="rotate(-90,-0.14374999999999716,220)" x="-0.14374999999999716" y="220" text-anchor="middle" style="font-family: Arial, monospace; font-size: 29px; fill: rgb(0, 0, 0); opacity: 1; font-weight: normal; white-space: pre;">Current Density (mA/cm​<tspan style="font-size:70%" dy="-0.6em">2</tspan><tspan dy="0.42em">​</tspan>)</text></g></g></svg>