<svg class="main-svg" xmlns="http://www.w3.org/2000/svg" xmlns:xlink="http://www.w3.org/1999/xlink" width="500" height="500" style="" viewBox="0 0 500 500"><rect x="0" y="0" width="500" height="500" style="fill: rgb(255, 255, 255); fill-opacity: 1;"/><defs id="defs-d1117b"><g class="clips"><clipPath id="clipd1117bxyplot" class="plotclip"><rect width="392" height="399"/></clipPath><clipPath class="axesclip" id="clipd1117bx"><rect x="98" y="0" width="392" height="500"/></clipPath><clipPath class="axesclip" id="clipd1117by"><rect x="0" y="16" width="500" height="399"/></clipPath><clipPath class="axesclip" id="clipd1117bxy"><rect x="98" y="16" width="392" height="399"/></clipPath></g><g class="gradients"/><g class="patterns"/></defs><g class="bglayer"><rect class="bg" x="98" y="16" width="392" height="399" style="fill: rgb(0, 0, 0); fill-opacity: 0; stroke-width: 0;"/></g><g class="layer-below"><g class="imagelayer"/><g class="shapelayer"/></g><g class="cartesianlayer"><g class="subplot xy"><g class="layer-subplot"><g class="shapelayer"/><g class="imagelayer"/></g><g class="minor-gridlayer"><g class="x"/><g class="y"/></g><g class="gridlayer"><g class="x"/><g class="y"/></g><g class="zerolinelayer"><path class="yzl zl crisp" transform="translate(0,408.46)" d="M98,0h392" style="stroke: rgb(128, 128, 128); stroke-opacity: 1; stroke-width: 1px;"/></g><path class="xlines-below"/><path class="ylines-below"/><g class="overlines-below"/><g class="xaxislayer-below"/><g class="yaxislayer-below"/><g class="overaxes-below"/><g class="plot" transform="translate(98,16)" clip-path="url(#clipd1117bxyplot)"><g class="scatterlayer mlayer"><g class="trace scatter trace92c78f" style="stroke-miterlimit: 2; opacity: 1;"><g class="fills"/><g class="errorbars"/><g class="lines"><path class="js-line" d="M-171.45,393.25L-46.58,392.47L-46.21,392.46L44,391.71L44.85,391.7L146.29,389.27L146.94,389.24L184.64,387.1L185.09,387.06L214.17,383.62L214.6,383.53L229.33,380.77L229.73,380.65L244.77,376.92L245.1,376.77L258.99,372.48L259.52,372.3L275.65,366.07L276.12,365.87L289.77,359.77L290.09,359.52L320.49,342.72L320.97,342.39L340.51,330.25L340.79,329.9L370.2,311.37L370.84,311.17L372.01,310.65L370.68,311.93L370.3,312.43L356.43,324.61L355.73,324.97L347.71,331.39L347,331.64L333.83,340.63L333.31,340.85L329.18,343.26L328.76,343.55L309.52,354.21L308.84,354.42L295.31,361.04L294.71,361.3L284.33,365.71L284.06,365.92L265.2,372.79L264.58,372.95L253.74,376.24L253.58,376.4L243.8,379.02L243.32,379.16L232.97,381.69L232.23,381.82L226.79,383.11L226.03,383.22L200.2,387.79L199.57,387.87L168.89,391.26L168.24,391.3L153.05,392.37L152.53,392.4L103.78,394.13L103.19,394.14L72.48,394.45L72.11,394.45L-172.08,393.31" style="vector-effect: non-scaling-stroke; fill: none; stroke: rgb(117, 13, 134); stroke-opacity: 1; stroke-width: 3px; opacity: 1;"/></g><g class="points"/><g class="text"/></g><g class="trace scatter trace083926" style="stroke-miterlimit: 2; opacity: 1;"><g class="fills"/><g class="errorbars"/><g class="lines"><path class="js-line" d="M-171.6,392.85L-30.04,390.78L-29.37,390.78L49.85,390.42L50.69,390.37L60.11,388.94L60.52,388.86L68.37,388.74L69.01,388.79L100.62,390.47L101.23,390.48L137.61,390.38L138.18,390.36L154.32,389.38L154.77,389.31L165.09,387.15L165.59,386.98L173.09,383.89L173.37,383.61L183.13,376.88L183.49,376.45L188.21,371.82L188.77,371.32L192.05,367.66L192.45,367.12L198.89,359.42L199.12,358.81L216.78,330.77L217.1,329.93L237.42,289.85L237.7,288.95L241.9,280L242.2,279L264.88,223.77L265.23,222.62L271.8,204.88L272.12,203.69L277,189.63L277.35,188.65L279.28,183.07L279.7,181.99L296.4,131.91L296.68,130.26L299.15,123.25L299.45,122.09L300.88,117.55L301.31,116.55L304.39,107.42L304.65,106.19L305.35,101.5L305.46,97.46L307.92,89.18L308.34,88.01L313.61,69.65L313.82,67.72L317.66,54.39L318.1,53.16L318.95,50.96L319.21,49.64L320.25,46.01L320.65,44.72L326.11,25.54L325.97,26.19L325.7,27.62L319.19,53.12L318.65,54.43L317.59,59.97L316.94,61.3L316.17,64.34L315.65,65.39L313.3,75.87L312.65,77.18L311.74,81.15L311.48,82.4L309.95,87.2L309.77,88.67L308.08,93.36L307.99,94.75L307.51,96.04L306.85,95.54L306.25,95.32L305.94,96.77L303.78,104.21L303.35,105.04L300.86,113.9L300.64,115.26L296.77,128.08L296.21,129.19L294.72,134.26L294.58,135.47L292.56,142.75L292.19,143.84L291.01,147.4L290.72,148.68L289.48,151.99L289.28,153.14L283.6,170.29L283.3,171.47L277.88,186.83L277.54,187.95L274.93,195.38L274.48,196.34L264.88,222.49L264.49,223.41L259.23,237.48L258.71,238.43L256.31,244.4L255.96,245.38L243.07,275.19L242.58,276.1L229.66,303.18L229.18,304.04L216.35,327.59L215.84,328.33L212.96,333.45L212.48,334.17L203.16,348.6L202.84,349.24L200.16,353.11L199.42,353.74L196.69,357.41L196.53,358.02L178.88,377.08L178.1,377.5L171.54,382.55L170.99,382.88L169.24,384.17L168.64,384.48L158.27,389.28L157.67,389.47L149.65,391.53L149.04,391.62L135.16,393.01L134.7,393.04L100.09,393.51L99.54,393.52L26.74,394.25L26.19,394.27L4.35,395.23L3.75,395.18L-28.42,393.9L-28.91,393.89L-172.02,392.86" style="vector-effect: non-scaling-stroke; fill: none; stroke: rgb(28, 167, 28); stroke-opacity: 1; stroke-width: 3px; opacity: 1;"/></g><g class="points"/><g class="text"/></g><g class="trace scatter tracebca402" style="stroke-miterlimit: 2; opacity: 1;"><g class="fills"/><g class="errorbars"/><g class="lines"><path class="js-line" d="M-171.61,392.67L-17.06,392.29L-16.43,392.29L111.91,391.54L112.48,391.53L178.66,389.86L179.4,389.79L192.86,387.47L193.26,387.34L200.81,385.22L201.3,385.05L216.94,377.87L217.33,377.58L231.79,367.21L232.12,366.81L237.26,362.03L237.66,361.57L239.74,359.73L240,359.27L242.35,356.88L242.78,356.39L256.56,338.61L256.76,338.02L259.43,334.3L259.91,333.65L260.48,332.38L261.04,331.73L265.09,325.16L265.36,324.49L270.53,315.55L270.89,314.82L272.37,311.95L272.76,311.22L275.33,306.62L275.46,305.85L278.47,299.63L278.86,298.86L284.46,286.55L284.67,285.72L286.56,281.69L286.96,280.87L288.67,276.54L289.2,275.67L289.96,273.09L290.62,272.26L293.1,265.15L293.78,264.23L294.39,262.48L294.71,261.6L307.42,225.87L307.67,224.83L312.64,209.49L312.75,208.38L316.07,196.94L316.54,195.93L317.24,193.95L317.49,192.83L318.78,187.06L319.38,186.05L328.29,155.5L328.3,154.31L329.43,150.93L329.78,149.81L329.8,148.51L329.24,151.33L328.92,152.4L326.18,163.91L325.57,165.06L325.25,167.44L324.83,168.61L322.83,176.2L322.4,177.37L321.83,180.66L321.32,181.75L319.24,189.26L318.92,190.3L317.32,195.88L317.37,197.01L316.06,200.07L315.93,201.13L314.47,205.4L314.36,206.36L313.15,209.47L313.08,210.54L309.34,223.32L309.15,224.32L308.02,226.95L307.73,227.84L306.34,231.74L306.08,232.72L300.95,247.48L300.78,248.45L299.2,253.18L298.91,254.05L297.79,256.83L297.6,257.79L296.39,260.68L296.14,261.62L292.03,272.39L291.42,273.24L288.71,280.14L288.25,280.94L287.29,283.5L286.82,284.33L286.16,285.95L285.65,286.77L284.81,289.29L284.24,290.16L283.32,292.57L282.78,293.35L278.48,302.87L277.9,303.62L276.98,305.88L276.42,306.63L274.66,310.38L274.24,311.11L271.4,316.15L271.45,316.84L269.55,319.57L269.13,320.26L265.21,326.9L264.67,327.56L262.04,332.08L261.36,332.7L258.27,337.59L257.51,338.2L255.75,341.06L255.16,341.63L253.58,343.87L253.08,344.42L244.93,354.23L244.27,354.72L241.3,358.01L240.7,358.47L236.01,362.79L235.78,363.21L230.93,367.18L230.61,367.56L211.22,379.93L210.48,380.17L207.16,381.86L206.28,382.08L202.74,383.53L202.36,383.72L191.35,387.2L190.69,387.33L186.55,388.34L186,388.46L182.21,389.2L181.73,389.3L171.02,390.86L170.39,390.93L144.25,392.48L143.72,392.49L102.88,392.9L102.34,392.9L-171.79,392.66" style="vector-effect: non-scaling-stroke; fill: none; stroke: rgb(182, 129, 0); stroke-opacity: 1; stroke-width: 3px; opacity: 1;"/></g><g class="points"/><g class="text"/></g><g class="trace scatter trace25305e" style="stroke-miterlimit: 2; opacity: 1;"><g class="fills"/><g class="errorbars"/><g class="lines"><path class="js-line" d="M-171.77,393.07L-59.62,392.1L-59.02,392.09L4.02,391.34L4.6,391.33L101.3,389.07L101.78,389.04L125.14,387.52L125.63,387.47L169.71,383.74L170.25,383.63L180.92,380.51L181.39,380.31L190.6,375.58L191.02,375.27L199.33,369.14L199.85,368.73L204.58,364.41L205.08,363.87L210.85,357.97L211.35,357.46L215.52,352.72L215.84,352.17L220.84,345.94L221.27,345.35L226.21,338.7L226.62,338.07L232.76,329.04L233.13,328.35L241.33,315.12L241.61,314.32L245.49,307.45L245.82,306.7L262.38,270.78L262.64,269.3L265.95,259.72L266.31,258.78L268.84,251.65L269.14,250.49L271.42,244.92L271.83,243.42L274.12,235.72L274.5,233.91L283.07,203.3L283.58,202.44L287.16,184.05L287.56,182.96L289.81,174.24L290.12,172.81L291.99,165.39L292.38,164.19L293.85,157.27L294.01,155.21L295.35,147.92L295.59,146.26L298.98,131.89L299.29,130.3L301.52,121.82L301.75,120.67L302.69,116.32L302.86,114.27L304.51,105.57L304.84,103.51L306.47,97.2L306.65,95.56L309.51,84.49L309.99,83.32L311.76,75.33L311.78,72.45L314.93,56.98L315.4,56.11L316.44,52.9L316.65,51.04L317.42,46.39L317.75,45.01L318.24,41.64L318.4,39.56L319.33,36.07L318.7,40.05L318.38,41.55L317.65,43.46L317.44,45.18L315.37,55.34L314.87,55.65L314.4,55.97L314.02,57.37L312.93,63.08L312.66,64.61L310.82,75.42L310.53,76.56L307.51,86.86L307.03,87.93L303.22,108.49L302.9,109.97L300.56,121.03L300.34,122.61L296.94,137.16L296.53,138.3L294.71,145.7L294.28,146.99L290.95,161L290.62,162.23L285.97,182.02L285.74,183.3L281.39,199.21L281,200.11L277.97,210.1L277.66,211.31L270.27,236.97L269.84,237.79L267.06,246.87L266.72,248.01L264.69,254.23L264.37,255.3L250.05,293.19L249.77,294.15L245.38,303.5L244.97,304.42L237.02,321.27L236.54,322.05L232.9,328.99L232.39,329.76L228.7,336.47L228.31,337.18L220.13,350.03L219.71,350.64L205.8,367.99L205.25,368.47L199.07,374.3L198.62,374.71L188.14,382.41L187.74,382.7L176.31,388.16L175.77,388.36L164.56,391.65L164.12,391.77L142.72,394.63L142.1,394.67L114.29,395.88L113.66,395.89L76.57,395.82L76.03,395.81L36.68,395.06L36.13,395.05L2.54,394.59L1.95,394.58L-313.42,392.74" style="vector-effect: non-scaling-stroke; fill: none; stroke: rgb(251, 0, 209); stroke-opacity: 1; stroke-width: 3px; opacity: 1;"/></g><g class="points"/><g class="text"/></g><g class="trace scatter trace4baa1f" style="stroke-miterlimit: 2; opacity: 1;"><g class="fills"/><g class="errorbars"/><g class="lines"><path class="js-line" d="M-171.85,392.86L-16.11,391.18L-15.5,391.18L41.46,390.74L42.05,390.74L121.35,388.64L121.88,388.62L164.52,386.04L165.08,385.95L174.66,383.53L175.22,383.34L185.42,378.52L185.92,378.22L193.8,372.68L194.28,372.29L203.34,363.87L203.88,363.28L212.06,353.93L212.51,353.38L222.75,339.82L223.15,339.19L232.96,323.74L233.32,323.02L237.02,316.37L237.45,315.6L241.94,306.94L242.31,306.14L255.12,277.27L255.45,276.34L266.06,247.9L266.4,246.9L280.25,203.49L280.49,202.12L297.37,137.57L297.59,135.99L301.14,120.37L301.51,119.23L304.98,105.14L305.23,103.13L309.55,85.52L309.81,84.1L316.67,56.97L317.11,55.89L317.85,51.61L318.1,49.93L319.06,46.61L317.99,51.37L317.83,52.93L310.57,86.84L310.13,87.89L307.26,101.45L306.94,102.7L305.03,109.94L304.8,111.38L297.22,143.91L296.93,144.96L296.25,147.2L295.99,148.42L293.97,155.73L293.65,156.99L285.5,186.26L285.12,187.37L280.33,202.3L279.87,203.4L274.87,220.21L274.55,221.36L256.51,271.47L256.14,272.41L240.89,306.36L240.47,307.17L221.8,340.03L221.34,340.64L216.22,348.3L215.73,348.91L208.19,358.82L207.7,359.37L201.84,366.15L201.32,366.64L190.46,376.76L189.99,377.15L177.92,385.07L177.45,385.33L167.58,389.43L167.07,389.59L156.7,392.15L156.27,392.24L141.48,393.98L140.87,394.03L114.73,394.95L114.21,394.96L79.47,394.84L78.91,394.84L-448.29,392.63" style="vector-effect: non-scaling-stroke; fill: none; stroke: rgb(0, 160, 139); stroke-opacity: 1; stroke-width: 3px; opacity: 1;"/></g><g class="points"/><g class="text"/></g></g></g><g class="overplot"/><path class="xlines-above crisp" d="M96,416H490" style="fill: none; stroke-width: 2px; stroke: rgb(0, 0, 0); stroke-opacity: 1;"/><path class="ylines-above crisp" d="M97,16V415" style="fill: none; stroke-width: 2px; stroke: rgb(0, 0, 0); stroke-opacity: 1;"/><g class="overlines-above"/><g class="xaxislayer-above"><path class="xtick ticks crisp" d="M0,417v5" transform="translate(98,0)" style="stroke: rgb(68, 68, 68); stroke-opacity: 1; stroke-width: 1px;"/><path class="xtick ticks crisp" d="M0,417v5" transform="translate(210,0)" style="stroke: rgb(68, 68, 68); stroke-opacity: 1; stroke-width: 1px;"/><path class="xtick ticks crisp" d="M0,417v5" transform="translate(322,0)" style="stroke: rgb(68, 68, 68); stroke-opacity: 1; stroke-width: 1px;"/><path class="xtick ticks crisp" d="M0,417v5" transform="translate(434,0)" style="stroke: rgb(68, 68, 68); stroke-opacity: 1; stroke-width: 1px;"/><g class="xtick"><text text-anchor="middle" x="0" y="455.6" transform="translate(98,0)" style="font-family: Arial, monospace; font-size: 28px; fill: rgb(0, 0, 0); fill-opacity: 1; white-space: pre; opacity: 1;">0</text></g><g class="xtick"><text text-anchor="middle" x="0" y="455.6" style="font-family: Arial, monospace; font-size: 28px; fill: rgb(0, 0, 0); fill-opacity: 1; white-space: pre; opacity: 1;" transform="translate(210,0)">0.2</text></g><g class="xtick"><text text-anchor="middle" x="0" y="455.6" style="font-family: Arial, monospace; font-size: 28px; fill: rgb(0, 0, 0); fill-opacity: 1; white-space: pre; opacity: 1;" transform="translate(322,0)">0.4</text></g><g class="xtick"><text text-anchor="middle" x="0" y="455.6" style="font-family: Arial, monospace; font-size: 28px; fill: rgb(0, 0, 0); fill-opacity: 1; white-space: pre; opacity: 1;" transform="translate(434,0)">0.6</text></g></g><g class="yaxislayer-above"><path class="ytick ticks crisp" d="M96,0h-5" transform="translate(0,408.46)" style="stroke: rgb(68, 68, 68); stroke-opacity: 1; stroke-width: 1px;"/><path class="ytick ticks crisp" d="M96,0h-5" transform="translate(0,277.64)" style="stroke: rgb(68, 68, 68); stroke-opacity: 1; stroke-width: 1px;"/><path class="ytick ticks crisp" d="M96,0h-5" transform="translate(0,146.82)" style="stroke: rgb(68, 68, 68); stroke-opacity: 1; stroke-width: 1px;"/><path class="ytick ticks crisp" d="M96,0h-5" transform="translate(0,16)" style="stroke: rgb(68, 68, 68); stroke-opacity: 1; stroke-width: 1px;"/><g class="ytick"><text text-anchor="end" x="85.4" y="9.799999999999999" transform="translate(0,408.46)" style="font-family: Arial, monospace; font-size: 28px; fill: rgb(0, 0, 0); fill-opacity: 1; white-space: pre; opacity: 1;">0</text></g><g class="ytick"><text text-anchor="end" x="85.4" y="9.799999999999999" style="font-family: Arial, monospace; font-size: 28px; fill: rgb(0, 0, 0); fill-opacity: 1; white-space: pre; opacity: 1;" transform="translate(0,277.64)">50</text></g><g class="ytick"><text text-anchor="end" x="85.4" y="9.799999999999999" style="font-family: Arial, monospace; font-size: 28px; fill: rgb(0, 0, 0); fill-opacity: 1; white-space: pre; opacity: 1;" transform="translate(0,146.82)">100</text></g><g class="ytick"><text text-anchor="end" x="85.4" y="9.799999999999999" style="font-family: Arial, monospace; font-size: 28px; fill: rgb(0, 0, 0); fill-opacity: 1; white-space: pre; opacity: 1;" transform="translate(0,16)">150</text></g></g><g class="overaxes-above"/></g></g><g class="polarlayer"/><g class="smithlayer"/><g class="ternarylayer"/><g class="geolayer"/><g class="funnelarealayer"/><g class="pielayer"/><g class="iciclelayer"/><g class="treemaplayer"/><g class="sunburstlayer"/><g class="glimages"/><defs id="topdefs-d1117b"><g class="clips"/><clipPath id="legendd1117b"><rect width="169" height="142" x="0" y="0"/></clipPath></defs><g class="layer-above"><g class="imagelayer"/><g class="shapelayer"/></g><g class="infolayer"><g class="legend" pointer-events="all" transform="translate(98,0.039999999999984936)"><rect class="bg" shape-rendering="crispEdges" width="169" height="142" x="0" y="0" style="stroke: rgb(68, 68, 68); stroke-opacity: 1; fill: rgb(255, 255, 255); fill-opacity: 1; stroke-width: 0px;"/><g class="scrollbox" transform="" clip-path="url(#legendd1117b)"><g class="groups"><g class="traces" transform="translate(0,18.200000000000003)" style="opacity: 1;"><text class="legendtext" text-anchor="start" x="40" y="7.0200000000000005" style="font-family: Arial, monospace; font-size: 18px; fill: rgb(0, 0, 0); fill-opacity: 1; white-space: pre;">CoN​<tspan style="font-size:70%" dy="0.3em">x</tspan><tspan dy="-0.21em">​</tspan></text><g class="layers" style="opacity: 1;"><g class="legendfill"/><g class="legendlines"><path class="js-line" d="M5,0h30" style="fill: none; stroke: rgb(117, 13, 134); stroke-opacity: 1; stroke-width: 3px;"/></g><g class="legendsymbols"><g class="legendpoints"/></g></g><rect class="legendtoggle" x="0" y="-13.200000000000001" width="163.0625" height="26.400000000000002" style="fill: rgb(0, 0, 0); fill-opacity: 0;"/></g><g class="traces" transform="translate(0,44.6)" style="opacity: 1;"><text class="legendtext" text-anchor="start" x="40" y="7.0200000000000005" style="font-family: Arial, monospace; font-size: 18px; fill: rgb(0, 0, 0); fill-opacity: 1; white-space: pre;">Co​<tspan style="font-size:70%" dy="0.3em">57</tspan><tspan dy="-0.21em">​</tspan>Ni​<tspan style="font-size:70%" dy="0.3em">14</tspan><tspan dy="-0.21em">​</tspan>Fe​<tspan style="font-size:70%" dy="0.3em">29</tspan><tspan dy="-0.21em">​</tspan>N​<tspan style="font-size:70%" dy="0.3em">x</tspan><tspan dy="-0.21em">​</tspan></text><g class="layers" style="opacity: 1;"><g class="legendfill"/><g class="legendlines"><path class="js-line" d="M5,0h30" style="fill: none; stroke: rgb(28, 167, 28); stroke-opacity: 1; stroke-width: 3px;"/></g><g class="legendsymbols"><g class="legendpoints"/></g></g><rect class="legendtoggle" x="0" y="-13.200000000000001" width="163.0625" height="26.400000000000002" style="fill: rgb(0, 0, 0); fill-opacity: 0;"/></g><g class="traces" transform="translate(0,71)" style="opacity: 1;"><text class="legendtext" text-anchor="start" x="40" y="7.0200000000000005" style="font-family: Arial, monospace; font-size: 18px; fill: rgb(0, 0, 0); fill-opacity: 1; white-space: pre;">Co​<tspan style="font-size:70%" dy="0.3em">45</tspan><tspan dy="-0.21em">​</tspan>Ni​<tspan style="font-size:70%" dy="0.3em">45</tspan><tspan dy="-0.21em">​</tspan>Fe​<tspan style="font-size:70%" dy="0.3em">10</tspan><tspan dy="-0.21em">​</tspan>N​<tspan style="font-size:70%" dy="0.3em">x</tspan><tspan dy="-0.21em">​</tspan></text><g class="layers" style="opacity: 1;"><g class="legendfill"/><g class="legendlines"><path class="js-line" d="M5,0h30" style="fill: none; stroke: rgb(182, 129, 0); stroke-opacity: 1; stroke-width: 3px;"/></g><g class="legendsymbols"><g class="legendpoints"/></g></g><rect class="legendtoggle" x="0" y="-13.200000000000001" width="163.0625" height="26.400000000000002" style="fill: rgb(0, 0, 0); fill-opacity: 0;"/></g><g class="traces" transform="translate(0,97.4)" style="opacity: 1;"><text class="legendtext" text-anchor="start" x="40" y="7.0200000000000005" style="font-family: Arial, monospace; font-size: 18px; fill: rgb(0, 0, 0); fill-opacity: 1; white-space: pre;">Co​<tspan style="font-size:70%" dy="0.3em">90</tspan><tspan dy="-0.21em">​</tspan>Ni​<tspan style="font-size:70%" dy="0.3em">10</tspan><tspan dy="-0.21em">​</tspan>N​<tspan style="font-size:70%" dy="0.3em">x</tspan><tspan dy="-0.21em">​</tspan></text><g class="layers" style="opacity: 1;"><g class="legendfill"/><g class="legendlines"><path class="js-line" d="M5,0h30" style="fill: none; stroke: rgb(251, 0, 209); stroke-opacity: 1; stroke-width: 3px;"/></g><g class="legendsymbols"><g class="legendpoints"/></g></g><rect class="legendtoggle" x="0" y="-13.200000000000001" width="163.0625" height="26.400000000000002" style="fill: rgb(0, 0, 0); fill-opacity: 0;"/></g><g class="traces" transform="translate(0,123.80000000000001)" style="opacity: 1;"><text class="legendtext" text-anchor="start" x="40" y="7.0200000000000005" style="font-family: Arial, monospace; font-size: 18px; fill: rgb(0, 0, 0); fill-opacity: 1; white-space: pre;">Co​<tspan style="font-size:70%" dy="0.3em">90</tspan><tspan dy="-0.21em">​</tspan>Fe​<tspan style="font-size:70%" dy="0.3em">10</tspan><tspan dy="-0.21em">​</tspan>N​<tspan style="font-size:70%" dy="0.3em">x</tspan><tspan dy="-0.21em">​</tspan></text><g class="layers" style="opacity: 1;"><g class="legendfill"/><g class="legendlines"><path class="js-line" d="M5,0h30" style="fill: none; stroke: rgb(0, 160, 139); stroke-opacity: 1; stroke-width: 3px;"/></g><g class="legendsymbols"><g class="legendpoints"/></g></g><rect class="legendtoggle" x="0" y="-13.200000000000001" width="163.0625" height="26.400000000000002" style="fill: rgb(0, 0, 0); fill-opacity: 0;"/></g></g></g><rect class="scrollbar" rx="20" ry="3" width="0" height="0" x="0" y="0" style="fill: rgb(128, 139, 164); fill-opacity: 1;"/></g><g class="g-gtitle"/><g class="g-xtitle" transform="translate(0,-12.549999999999955)"><text class="xtitle" x="294" y="500.409375" text-anchor="middle" style="font-family: Arial, monospace; font-size: 34px; fill: rgb(0, 0, 0); opacity: 1; font-weight: normal; white-space: pre;">Overpotential, η(V) - iR​<tspan style="font-size:70%" dy="0.3em">u</tspan><tspan dy="-0.21em">​</tspan></text></g><g class="g-ytitle" transform="translate(36.4091796875,0)"><text class="ytitle" transform="rotate(-90,-0.12812499999999716,215.5)" x="-0.12812499999999716" y="215.5" text-anchor="middle" style="font-family: Arial, monospace; font-size: 34px; fill: rgb(0, 0, 0); opacity: 1; font-weight: normal; white-space: pre;">Current (mA/cm​<tspan style="font-size:70%" dy="-0.6em">2</tspan><tspan dy="0.42em">​</tspan>)</text></g></g></svg>