<svg class="main-svg" xmlns="http://www.w3.org/2000/svg" xmlns:xlink="http://www.w3.org/1999/xlink" width="500" height="500" style="" viewBox="0 0 500 500"><rect x="0" y="0" width="500" height="500" style="fill: rgb(255, 255, 255); fill-opacity: 1;"/><defs id="defs-bd8b95"><g class="clips"><clipPath id="clipbd8b95xyplot" class="plotclip"><rect width="392" height="399"/></clipPath><clipPath class="axesclip" id="clipbd8b95x"><rect x="98" y="0" width="392" height="500"/></clipPath><clipPath class="axesclip" id="clipbd8b95y"><rect x="0" y="16" width="500" height="399"/></clipPath><clipPath class="axesclip" id="clipbd8b95xy"><rect x="98" y="16" width="392" height="399"/></clipPath></g><g class="gradients"/><g class="patterns"/></defs><g class="bglayer"><rect class="bg" x="98" y="16" width="392" height="399" style="fill: rgb(0, 0, 0); fill-opacity: 0; stroke-width: 0;"/></g><g class="layer-below"><g class="imagelayer"/><g class="shapelayer"/></g><g class="cartesianlayer"><g class="subplot xy"><g class="layer-subplot"><g class="shapelayer"/><g class="imagelayer"/></g><g class="minor-gridlayer"><g class="x"/><g class="y"/></g><g class="gridlayer"><g class="x"/><g class="y"/></g><g class="zerolinelayer"><path class="yzl zl crisp" transform="translate(0,408.46)" d="M98,0h392" style="stroke: rgb(128, 128, 128); stroke-opacity: 1; stroke-width: 1px;"/></g><path class="xlines-below"/><path class="ylines-below"/><g class="overlines-below"/><g class="xaxislayer-below"/><g class="yaxislayer-below"/><g class="overaxes-below"/><g class="plot" transform="translate(98,16)" clip-path="url(#clipbd8b95xyplot)"><g class="scatterlayer mlayer"><g class="trace scatter tracec00e1c" style="stroke-miterlimit: 2; opacity: 1;"><g class="fills"/><g class="errorbars"/><g class="lines"><path class="js-line" d="M-171.69,392.46L315.54,391.71L316.29,391.7L387.72,390.81L293.99,392.06L293.7,392.06L208.3,392.41L207.61,392.41L-171.93,392.46L-171.65,392.46" style="vector-effect: non-scaling-stroke; fill: none; stroke: rgb(34, 42, 42); stroke-opacity: 1; stroke-width: 3px; opacity: 1;"/></g><g class="points"/><g class="text"/></g><g class="trace scatter trace239b5d" style="stroke-miterlimit: 2; opacity: 1;"><g class="fills"/><g class="errorbars"/><g class="lines"><path class="js-line" d="M-171.95,392.52L184.38,391.78L184.95,391.76L207.04,390.3L207.55,390.24L223.94,387.41L224.5,387.29L238.2,383.12L238.73,382.92L248.48,378.6L248.98,378.34L258.47,372.72L258.98,372.39L271.09,362.59L271.54,362.16L280.36,353.1L280.82,352.58L293.22,336.62L293.56,336.01L298.28,328.95L298.71,328.26L308.31,312.12L308.65,311.3L321.11,287.35L321.46,286.59L332.04,264.66L332.48,263.96L338.25,251.47L338.64,250.46L342.49,242.01L342.85,241.12L346.36,233.65L346.68,232.72L348.69,228.64L349.06,227.85L352.31,220.25L350.76,225.44L350.4,226.61L344.5,243.98L344.13,244.77L340.34,253.56L339.92,254.31L337.31,260.34L336.91,261.29L330.93,275.7L330.54,276.46L323.5,291.29L323.12,292.01L317.5,302.76L317.08,303.59L311.82,313.17L311.38,313.89L302.15,328.61L301.67,329.12L289.73,344.52L289.29,345.08L278.25,356.9L277.76,357.34L267.81,365.86L267.28,366.23L258.94,371.88L258.44,372.19L249.41,377.1L248.86,377.34L241.17,380.68L240.59,380.93L226.34,385.54L225.8,385.68L210.81,388.9L210.28,388.99L191.09,391.25L190.43,391.3L171.54,392.14L170.94,392.16L113.12,392.45L112.57,392.45L72.27,392.48L71.72,392.48L-220.11,392.53" style="vector-effect: non-scaling-stroke; fill: none; stroke: rgb(235, 102, 59); stroke-opacity: 1; stroke-width: 3px; opacity: 1;"/></g><g class="points"/><g class="text"/></g><g class="trace scatter trace8be8ba" style="stroke-miterlimit: 2; opacity: 1;"><g class="fills"/><g class="errorbars"/><g class="lines"><path class="js-line" d="M-201.98,392.47L-71.24,392.34L-69.52,392.34L104.6,391.6L106.25,391.57L133.67,390.42L135.35,390.27L174.32,386.15L176.05,385.91L191.09,383.18L192.72,382.78L205.77,378.66L207.36,378.02L220.08,371.95L221.68,371.07L241.72,358.04L243.23,356.94L264.41,340.5L265.9,339.26L289.67,318.64L291.16,317.31L322.05,287.98L323.56,286.48L338.29,272.62L339.73,271.39L353.2,260.19L354.58,258.15L359.01,254.22L360.46,252.73L362.25,251.55L361.56,252.94L352.57,269.83L351.25,271.82L348.4,275.24L347,277.08L338.57,287.72L337.1,289.17L335.73,290.87L334.02,291.38L328.36,297.38L326.83,298.96L320.8,304.07L319.37,305.43L301.72,321.65L299.98,322.5L269.75,345.14L268.08,345.79L254.14,354.5L252.58,355.46L235.53,365.53L233.92,366.4L216.47,375.19L214.91,375.9L197,382.92L195.32,383.45L182.25,387.04L180.6,387.41L163.89,390.23L162.21,390.43L138.25,392.21L136.44,392.29L88.41,393.43L86.62,393.46L41.74,393.31L40.07,393.27L-142.94,392.66L-144.64,392.66L-340.06,393.44L-201.92,392.44" style="vector-effect: non-scaling-stroke; fill: none; stroke: rgb(81, 28, 251); stroke-opacity: 1; stroke-width: 3px; opacity: 1;"/></g><g class="points"/><g class="text"/></g></g></g><g class="overplot"/><path class="xlines-above crisp" d="M96,416H490" style="fill: none; stroke-width: 2px; stroke: rgb(0, 0, 0); stroke-opacity: 1;"/><path class="ylines-above crisp" d="M97,16V415" style="fill: none; stroke-width: 2px; stroke: rgb(0, 0, 0); stroke-opacity: 1;"/><g class="overlines-above"/><g class="xaxislayer-above"><path class="xtick ticks crisp" d="M0,417v5" transform="translate(98,0)" style="stroke: rgb(68, 68, 68); stroke-opacity: 1; stroke-width: 1px;"/><path class="xtick ticks crisp" d="M0,417v5" transform="translate(210,0)" style="stroke: rgb(68, 68, 68); stroke-opacity: 1; stroke-width: 1px;"/><path class="xtick ticks crisp" d="M0,417v5" transform="translate(322,0)" style="stroke: rgb(68, 68, 68); stroke-opacity: 1; stroke-width: 1px;"/><path class="xtick ticks crisp" d="M0,417v5" transform="translate(434,0)" style="stroke: rgb(68, 68, 68); stroke-opacity: 1; stroke-width: 1px;"/><g class="xtick"><text text-anchor="middle" x="0" y="455.6" transform="translate(98,0)" style="font-family: Arial, monospace; font-size: 28px; fill: rgb(0, 0, 0); fill-opacity: 1; white-space: pre; opacity: 1;">0</text></g><g class="xtick"><text text-anchor="middle" x="0" y="455.6" style="font-family: Arial, monospace; font-size: 28px; fill: rgb(0, 0, 0); fill-opacity: 1; white-space: pre; opacity: 1;" transform="translate(210,0)">0.2</text></g><g class="xtick"><text text-anchor="middle" x="0" y="455.6" style="font-family: Arial, monospace; font-size: 28px; fill: rgb(0, 0, 0); fill-opacity: 1; white-space: pre; opacity: 1;" transform="translate(322,0)">0.4</text></g><g class="xtick"><text text-anchor="middle" x="0" y="455.6" style="font-family: Arial, monospace; font-size: 28px; fill: rgb(0, 0, 0); fill-opacity: 1; white-space: pre; opacity: 1;" transform="translate(434,0)">0.6</text></g></g><g class="yaxislayer-above"><path class="ytick ticks crisp" d="M96,0h-5" transform="translate(0,408.46)" style="stroke: rgb(68, 68, 68); stroke-opacity: 1; stroke-width: 1px;"/><path class="ytick ticks crisp" d="M96,0h-5" transform="translate(0,277.64)" style="stroke: rgb(68, 68, 68); stroke-opacity: 1; stroke-width: 1px;"/><path class="ytick ticks crisp" d="M96,0h-5" transform="translate(0,146.82)" style="stroke: rgb(68, 68, 68); stroke-opacity: 1; stroke-width: 1px;"/><path class="ytick ticks crisp" d="M96,0h-5" transform="translate(0,16)" style="stroke: rgb(68, 68, 68); stroke-opacity: 1; stroke-width: 1px;"/><g class="ytick"><text text-anchor="end" x="85.4" y="9.799999999999999" transform="translate(0,408.46)" style="font-family: Arial, monospace; font-size: 28px; fill: rgb(0, 0, 0); fill-opacity: 1; white-space: pre; opacity: 1;">0</text></g><g class="ytick"><text text-anchor="end" x="85.4" y="9.799999999999999" style="font-family: Arial, monospace; font-size: 28px; fill: rgb(0, 0, 0); fill-opacity: 1; white-space: pre; opacity: 1;" transform="translate(0,277.64)">50</text></g><g class="ytick"><text text-anchor="end" x="85.4" y="9.799999999999999" style="font-family: Arial, monospace; font-size: 28px; fill: rgb(0, 0, 0); fill-opacity: 1; white-space: pre; opacity: 1;" transform="translate(0,146.82)">100</text></g><g class="ytick"><text text-anchor="end" x="85.4" y="9.799999999999999" style="font-family: Arial, monospace; font-size: 28px; fill: rgb(0, 0, 0); fill-opacity: 1; white-space: pre; opacity: 1;" transform="translate(0,16)">150</text></g></g><g class="overaxes-above"/></g></g><g class="polarlayer"/><g class="smithlayer"/><g class="ternarylayer"/><g class="geolayer"/><g class="funnelarealayer"/><g class="pielayer"/><g class="iciclelayer"/><g class="treemaplayer"/><g class="sunburstlayer"/><g class="glimages"/><defs id="topdefs-bd8b95"><g class="clips"/><clipPath id="legendbd8b95"><rect width="134" height="90" x="0" y="0"/></clipPath></defs><g class="layer-above"><g class="imagelayer"/><g class="shapelayer"/></g><g class="infolayer"><g class="legend" pointer-events="all" transform="translate(98,0.039999999999984936)"><rect class="bg" shape-rendering="crispEdges" width="134" height="90" x="0" y="0" style="stroke: rgb(68, 68, 68); stroke-opacity: 1; fill: rgb(255, 255, 255); fill-opacity: 1; stroke-width: 0px;"/><g class="scrollbox" transform="" clip-path="url(#legendbd8b95)"><g class="groups"><g class="traces" transform="translate(0,18.200000000000003)" style="opacity: 1;"><text class="legendtext" text-anchor="start" x="40" y="7.0200000000000005" style="font-family: Arial, monospace; font-size: 18px; fill: rgb(0, 0, 0); fill-opacity: 1; white-space: pre;">NiN​<tspan style="font-size:70%" dy="0.3em">x</tspan><tspan dy="-0.21em">​</tspan></text><g class="layers" style="opacity: 1;"><g class="legendfill"/><g class="legendlines"><path class="js-line" d="M5,0h30" style="fill: none; stroke: rgb(34, 42, 42); stroke-opacity: 1; stroke-width: 3px;"/></g><g class="legendsymbols"><g class="legendpoints"/></g></g><rect class="legendtoggle" x="0" y="-13.200000000000001" width="128.046875" height="26.400000000000002" style="fill: rgb(0, 0, 0); fill-opacity: 0;"/></g><g class="traces" transform="translate(0,44.6)" style="opacity: 1;"><text class="legendtext" text-anchor="start" x="40" y="7.0200000000000005" style="font-family: Arial, monospace; font-size: 18px; fill: rgb(0, 0, 0); fill-opacity: 1; white-space: pre;">Ni​<tspan style="font-size:70%" dy="0.3em">90</tspan><tspan dy="-0.21em">​</tspan>Co​<tspan style="font-size:70%" dy="0.3em">10</tspan><tspan dy="-0.21em">​</tspan>N​<tspan style="font-size:70%" dy="0.3em">x</tspan><tspan dy="-0.21em">​</tspan></text><g class="layers" style="opacity: 1;"><g class="legendfill"/><g class="legendlines"><path class="js-line" d="M5,0h30" style="fill: none; stroke: rgb(235, 102, 59); stroke-opacity: 1; stroke-width: 3px;"/></g><g class="legendsymbols"><g class="legendpoints"/></g></g><rect class="legendtoggle" x="0" y="-13.200000000000001" width="128.046875" height="26.400000000000002" style="fill: rgb(0, 0, 0); fill-opacity: 0;"/></g><g class="traces" transform="translate(0,71)" style="opacity: 1;"><text class="legendtext" text-anchor="start" x="40" y="7.0200000000000005" style="font-family: Arial, monospace; font-size: 18px; fill: rgb(0, 0, 0); fill-opacity: 1; white-space: pre;">Ni​<tspan style="font-size:70%" dy="0.3em">90</tspan><tspan dy="-0.21em">​</tspan>Fe​<tspan style="font-size:70%" dy="0.3em">10</tspan><tspan dy="-0.21em">​</tspan>N​<tspan style="font-size:70%" dy="0.3em">x</tspan><tspan dy="-0.21em">​</tspan></text><g class="layers" style="opacity: 1;"><g class="legendfill"/><g class="legendlines"><path class="js-line" d="M5,0h30" style="fill: none; stroke: rgb(81, 28, 251); stroke-opacity: 1; stroke-width: 3px;"/></g><g class="legendsymbols"><g class="legendpoints"/></g></g><rect class="legendtoggle" x="0" y="-13.200000000000001" width="128.046875" height="26.400000000000002" style="fill: rgb(0, 0, 0); fill-opacity: 0;"/></g></g></g><rect class="scrollbar" rx="20" ry="3" width="0" height="0" x="0" y="0" style="fill: rgb(128, 139, 164); fill-opacity: 1;"/></g><g class="g-gtitle"/><g class="g-xtitle" transform="translate(0,-12.549999999999955)"><text class="xtitle" x="294" y="500.409375" text-anchor="middle" style="font-family: Arial, monospace; font-size: 34px; fill: rgb(0, 0, 0); opacity: 1; font-weight: normal; white-space: pre;">Overpotential, η(V) - iR​<tspan style="font-size:70%" dy="0.3em">u</tspan><tspan dy="-0.21em">​</tspan></text></g><g class="g-ytitle" transform="translate(36.4091796875,0)"><text class="ytitle" transform="rotate(-90,-0.12812499999999716,215.5)" x="-0.12812499999999716" y="215.5" text-anchor="middle" style="font-family: Arial, monospace; font-size: 34px; fill: rgb(0, 0, 0); opacity: 1; font-weight: normal; white-space: pre;">Current (mA/cm​<tspan style="font-size:70%" dy="-0.6em">2</tspan><tspan dy="0.42em">​</tspan>)</text></g></g></svg>