<svg class="main-svg" xmlns="http://www.w3.org/2000/svg" xmlns:xlink="http://www.w3.org/1999/xlink" width="500" height="500" style="" viewBox="0 0 500 500"><rect x="0" y="0" width="500" height="500" style="fill: rgb(0, 0, 0); fill-opacity: 0;"/><defs id="defs-352ee8"><g class="clips"><clipPath id="clip352ee8xyplot" class="plotclip"><rect width="303" height="320"/></clipPath><clipPath class="axesclip" id="clip352ee8x"><rect x="89" y="0" width="303" height="500"/></clipPath><clipPath class="axesclip" id="clip352ee8y"><rect x="0" y="100" width="500" height="320"/></clipPath><clipPath class="axesclip" id="clip352ee8xy"><rect x="89" y="100" width="303" height="320"/></clipPath></g><g class="gradients"/><g class="patterns"/></defs><g class="bglayer"><rect class="bg" x="89" y="100" width="303" height="320" style="fill: rgb(0, 0, 0); fill-opacity: 0; stroke-width: 0;"/></g><g class="layer-below"><g class="imagelayer"/><g class="shapelayer"/></g><g class="cartesianlayer"><g class="subplot xy"><g class="layer-subplot"><g class="shapelayer"/><g class="imagelayer"/></g><g class="minor-gridlayer"><g class="x"/><g class="y"/></g><g class="gridlayer"><g class="x"/><g class="y"/></g><g class="zerolinelayer"/><g class="layer-between"><g class="shapelayer"/><g class="imagelayer"/></g><path class="xlines-below"/><path class="ylines-below"/><g class="overlines-below"/><g class="xaxislayer-below"/><g class="yaxislayer-below"/><g class="overaxes-below"/><g class="plot" transform="translate(89,100)" clip-path="url(#clip352ee8xyplot)"><g class="scatterlayer mlayer"><g class="trace scatter trace370b60" style="stroke-miterlimit: 2; opacity: 1;"><g class="fills"/><g class="errorbars"/><g class="lines"><path class="js-line" d="M0,217.02L1.01,202.26L1.09,201.42L2.02,188.19L2.1,201.57L2.19,206.48L2.78,200.54L2.86,199.78L3.96,191.16L4.04,199.79L4.12,200.92L4.54,197.69L4.63,197.18L5.89,188.78L5.98,195.96L6.06,198.07L6.65,194.1L6.73,193.69L7.83,187.15L7.91,196.7L9.76,185.29L9.85,184.78L10.1,183.11L10.18,190.22L10.27,194.64L10.86,190.8L10.94,190.52L12.37,182.01L12.46,189.06L12.54,193.23L13.13,189.38L13.21,188.83L13.72,185.65L13.8,188.14L13.89,190.75L14.98,185.26L15.07,190.19L16.24,183.86L16.33,187.35L16.41,188.19L16.92,185.66L17,185.27L17.34,183.19L17.42,184.85L17.51,187.29L19.36,181.66L19.44,185.93L20.28,182.57L20.37,183.5L20.45,185.24L21.38,181.5L21.46,183.85L21.55,184.21L22.3,179.74L22.64,181.82L22.72,182.12L23.23,180.62L23.4,183.29L23.48,182.84L23.57,182.43L23.73,182.65L24.41,179.7L24.49,181.84L24.66,182.25L24.91,181.21L25.08,181.28L25.17,180.79L25.75,180.57L25.84,180.18L26.76,178.98L26.85,179.52L27.02,179.85L27.27,179L27.35,178.45L28.62,176.8L28.7,178.54L29.54,177.02L29.63,176.65L29.71,177.13L30.05,175.44L30.38,176.71L30.47,176.47L30.89,176.71L30.97,176.27L31.06,175.53L31.48,172.89L31.9,174.34L31.98,174.48L32.24,174.98L32.4,174.35L32.49,173.8L32.91,171.72L32.99,173.64L33.08,175.86L33.83,172.32L34,174.29L34.09,174L34.84,169.88L35.27,171.33L35.35,171.05L35.6,171.83L35.85,170.76L35.94,172.36L36.02,172.82L36.44,171.91L36.53,171.27L37.12,171.87L37.79,168.79L37.87,169.06L37.96,171.05L38.46,168.95L38.55,168.95L38.63,169.14L38.72,170.63L39.31,168.78L39.39,168.78L39.56,168.37L39.73,168.55L39.81,169.8L40.9,166.62L40.99,167.03L41.07,167.49L41.41,167.93L41.66,166.3L41.75,165.91L42.17,167.28L42.34,166.38L42.42,165.9L42.84,167.14L43.43,163.27L43.51,163.78L43.6,164.41L43.93,164.04L44.02,165.42L44.86,162.67L44.94,164.14L45.03,163.95L45.37,162.49L45.79,162.89L45.87,164.03L46.46,162.15L46.54,162.56L46.63,163.75L47.55,161.62L47.64,160.99L47.72,162.64L48.31,161.44L48.4,160.86L48.73,158.63L49.15,160.86L49.24,161.34L49.99,157.41L50.25,158.9L50.33,158.87L50.42,160.55L50.84,158.63L51,159.12L51.09,158.25L51.26,158.04L51.34,159.37L52.35,156.72L52.44,158.26L52.6,158.55L52.77,157.25L52.86,156.84L53.11,157.67L53.28,156.2L53.45,156.66L53.53,158.08L54.2,154.98L54.46,155.83L54.54,156.66L54.62,157.32L54.96,155L55.13,155.78L55.21,155.3L55.55,154.52L55.8,156.38L55.97,155.78L56.05,155.39L56.48,154.31L56.56,154.39L56.64,155.67L57.57,153.55L57.65,153.73L57.74,154.77L57.91,154.87L58.41,152.05L58.58,152.26L58.66,153.92L58.83,154.3L58.92,153.18L59.08,153.26L59.17,152.37L59.59,151.56L59.84,153.97L59.93,152.87L60.01,152.12L60.09,153.5L60.68,151.73L60.77,152.69L60.85,152.48L61.27,152.99L61.53,152.81L61.61,152.4L62.11,152.64L62.2,151.94L62.28,152.15L62.37,152.16L62.96,149.57L63.46,149.92L63.55,150.37L63.63,150.84L63.97,149.87L64.05,148.65L64.22,150.89L64.81,150.11L64.89,149.74L65.06,149.71L65.14,148.77L65.48,147.98L65.82,149.12L65.9,149.26L66.07,149.83L66.83,148.57L66.91,148.38L67.92,145.69L68.09,146.07L68.17,147.34L68.51,147.99L68.93,147.45L69.02,147.42L69.77,147.04L69.86,146.85L70.28,145.89L70.36,145.32L70.78,144.24L70.95,144.89L71.04,146.58L72.13,143.66L72.21,143.72L72.3,144.09L72.47,145.6L72.97,144.58L73.06,144.67L73.22,144.85L73.81,143.37L73.98,143.47L74.07,144.03L74.66,141.9L74.99,142.5L75.08,143.24L75.33,143.77L75.75,143.29L75.83,143.03L76.34,142.56L76.42,141.93L76.59,143.04L76.76,140.95L76.84,140.65L77.1,140.24L77.35,140.74L77.43,141.7L77.94,140.35L78.11,141.01L78.19,142.13L78.78,140.44L79.03,140.68L79.12,140.61L79.2,140.77L79.28,139.44L79.37,138.63L79.62,137.33L80.04,139.13L80.13,140.45L81.05,138.51L81.14,139.08L81.73,137.55L81.81,138.58L81.89,139.38L82.65,136.21L82.82,136.67L82.9,139.19L83.66,137.01L83.75,137.69L83.83,137.76L84.08,135.24L84.59,137.2L84.67,137.16L84.92,136.85L85.09,137.87L85.18,136.78L85.26,136.53L85.6,137.41L85.85,136.76L85.93,135.98L86.27,137.36L86.52,134.77L86.61,134.62L86.86,134.1L87.2,135.01L87.28,135.89L87.36,136.45L87.87,134.88L87.95,135.73L88.04,134.85L88.46,135.66L88.63,134.22L88.71,134.01L88.8,135.05L89.22,132.28L89.3,131.98L89.55,132.8L89.64,135.5L89.89,133.15L90.39,134.49L90.48,134.4L90.82,134.87L91.4,131.65L91.49,131.57L91.99,132.4L92.08,133.43L92.41,133.5L92.67,131.95L92.75,132.09L92.84,133.92L93.26,134.05L93.85,130.86L93.93,130.69L94.52,131.84L94.6,132.06L94.69,133.5L95.28,131.34L95.36,131.17L95.53,132.6L95.78,131.11L96.03,131.46L96.12,130.74L96.37,132.53L96.71,130.43L96.79,130.07L97.13,129.32L97.55,129.98L97.63,130.34L97.8,132.15L97.97,130.17L98.05,129.84L98.22,132L98.47,129.88L98.56,129.82L98.98,129.49L99.15,131.16L99.32,130.21L99.4,129.14L99.99,127.19L100.33,127.61L100.41,127.96L100.66,129.65L101,127.47L101.17,129.2L101.25,128.24L101.67,128.07L101.84,129.97L102.09,129.1L102.18,128.66L102.85,126.17L102.94,127.11L103.02,127.97L103.44,129.18L103.52,130.59L103.95,127.73L104.11,130.71L104.45,128.13L104.53,129.26L104.87,127.75L105.04,129.88L105.21,129.14L105.29,128.07L105.97,124.72L106.3,125.31L106.39,125.5L106.64,127.56L106.81,125.01L106.89,124.36L106.98,124.17L107.06,125.58L107.14,127.38L107.9,125.55L107.99,125.81L108.07,127.5L108.74,125.27L108.83,125.45L108.91,127.24L110.09,123.92L110.26,124.34L110.34,124.67L110.76,126.84L111.18,125.66L111.27,125.28L112.03,122.59L112.28,123.13L112.36,123.36L112.7,125.14L112.78,124.67L112.87,123.83L113.29,122.64L113.37,123.52L113.46,124.72L113.62,124.81L113.96,124.16L114.05,123.71L114.8,120.66L115.14,120.99L115.22,121.29L115.73,123.8L115.98,121.97L116.07,121.38L116.74,120.26L116.82,120.75L116.91,121.19L117.16,123.68L117.5,121.87L117.58,121.7L117.75,121.46L117.83,122.65L117.92,123.08L118.25,121.38L118.34,120.45L119.01,118.88L119.26,119.29L119.35,119.52L119.6,120.07L119.68,121.93L119.85,122.08L120.53,119.48L120.61,118.82L121.12,117.61L121.45,118.06L121.54,118.15L121.96,119.66L122.04,122.07L122.46,120.12L122.55,119.38L123.39,116.82L123.56,117.06L123.64,117.07L124.23,119.59L124.48,118.18L124.57,118.07L124.65,117.8L124.73,118.36L124.82,120.18L125.41,117.92L125.49,117.28L126.5,115.23L126.59,115.32L126.67,115.59L126.84,123.8L127.43,118.87L127.51,118.38L127.85,117.14L128.1,119L128.19,118.82L128.69,117.8L128.77,118.33L128.86,119.9L130.29,117.19L130.37,117.26L130.46,117.34L130.79,116.3L130.96,118.34L131.05,118.04L131.13,118.01L131.47,116.32L131.55,115.79L131.8,114.92L132.06,116.78L132.14,117.37L132.23,118L132.56,115.9L132.65,115.58L133.07,113.99L133.49,114.5L133.57,116.08L133.66,116.4L133.91,115.41L133.99,114.78L134.67,116.64L134.83,116.39L134.92,116.1L135.42,113.55L135.51,112.8L135.59,112.28L135.68,113.75L136.27,112.59L136.35,112.71L136.52,112.98L136.6,116.18L136.94,114.87L137.02,113.72L137.11,113.06L137.44,113.88L137.53,115.99L138.54,110.86L139.04,111.43L139.13,111.98L139.97,115.49L140.05,115.04L140.81,111.6L140.89,111.22L140.98,111.1L141.23,111.73L141.32,112.09L142.07,114.92L142.16,114.46L142.24,114.41L142.33,114.75L142.83,114.24L142.91,114.27L143,114.24L144.51,112.8L144.6,112.24L144.77,111.47L145.19,112.98L145.27,113.06L145.61,112.59L145.94,112.89L146.03,113.28L146.62,113.03L146.87,113.13L146.95,113.21L147.88,112.66L147.96,112.12L148.3,112.95L148.72,112.46L148.81,112.24L150.57,110.97L150.66,111.75L150.83,111.95L151.16,111.46L151.42,111.62L151.5,111.54L152.51,110.67L152.59,110.65L153.94,110.19L154.02,110.34L154.11,111.92L154.95,110.78L155.03,111.45L155.12,111.63L155.46,110.9L155.54,110.89L155.62,110.9L155.79,111.01L155.88,110.57L155.96,110.05L156.13,110.44L156.63,110.03L156.72,109.9L157.56,109.64L157.64,109.92L158.82,107.05L158.91,106.92L159.33,106.5L159.41,108.44L159.66,109.56L160.17,108.75L160.25,108.73L160.84,109.06L161.01,108.57L161.09,108.42L162.1,109.31L162.19,109.05L162.27,108.92L163.2,108.16L163.28,108.01L164.88,106.96L164.97,107.31L165.05,108.19L165.39,107.09L165.89,107.24L165.98,107.24L166.57,107.14L166.65,107.59L166.73,107.79L169.01,106.54L169.09,106.46L169.68,106.78L169.85,106.57L169.93,106.44L170.44,105.97L170.52,105.77L170.69,106.06L171.36,105.71L171.45,105.83L173.47,104.38L173.55,104.89L173.64,105.63L174.14,104.71L174.22,104.75L174.31,104.73L174.65,105.44L175.15,104.43L175.23,104.66L175.49,104.24L175.57,104.72L175.66,105.49L176.08,104.84L176.5,104.98L176.58,105.12L177.17,106.51L177.34,105.18L177.42,105.29L178.26,104.67L178.35,105.29L178.43,105.58L178.85,104.55L178.94,105.45L179.02,106.32L180.03,102.6L180.12,102.76L181.21,101.44L181.29,104.43L182.47,101.74L182.56,101.96L182.64,101.92L183.4,100.83L183.48,100.29L183.57,103.58L184.24,101.99L184.32,101.46L185.67,99.94L185.76,101.5L185.84,103.39L186.43,100.94L186.51,100.78L187.27,99.52L187.35,102.57L188.03,100L188.36,100.13L188.45,100.17L189.54,98.67L189.71,98.85L189.8,102.09L190.89,98.82L190.97,99.23L192.07,97.92L192.15,99.27L192.24,100.84L192.66,98.69L192.83,98.74L192.91,98.67L193.84,97.87L193.92,97.83L194.26,97.74L194.34,97.49L194.42,97.18L194.59,96.6L194.68,98.03L194.76,99.68L195.86,97.11L195.94,97.74L196.02,99.66L196.61,97.35L196.7,97.31L197.03,96.92L197.2,97.24L197.29,97.97L197.37,98.89L197.79,97.45L197.96,97.57L198.04,97.43L198.63,96.01L198.72,97.25L198.8,98.6L200.06,95.95L200.15,96L200.99,94.72L201.07,95.02L201.16,95.13L201.24,94.81L201.33,96.92L201.41,98.14L202.5,94.93L202.59,95.09L203.43,93.68L203.51,96.7L203.6,97.35L204.1,95.68L204.19,95.93L205.03,94.05L205.11,95.99L206.8,93.31L206.88,94.57L206.97,95.85L207.55,93.62L207.64,93.58L207.89,93.92L208.31,93.25L208.4,92.93L208.65,92.61L208.9,92.94L208.99,92.57L209.07,92.15L209.15,92.49L209.57,91.95L209.66,95.84L210.75,92.79L210.84,93.07L211.01,94.39L211.51,93.1L211.59,92.85L212.1,92.37L212.18,94.04L214.37,89.71L214.46,90.11L214.54,92.56L214.62,92.85L214.96,91.39L215.05,91.16L215.55,91.86L215.97,90.2L216.06,90.37L216.14,90.37L216.31,90.74L216.39,93.76L217.65,89.75L217.74,89.76L217.91,92.23L218.5,90.44L218.58,90.32L219.51,88.83L219.59,89.78L219.67,92.23L220.13,89.85" style="vector-effect: none; fill: none; stroke: rgb(136, 204, 238); stroke-opacity: 1; stroke-width: 2px; opacity: 1;"/></g><g class="points"/><g class="text"/></g><g class="trace scatter trace3616be" style="stroke-miterlimit: 2; opacity: 1;"><g class="fills"/><g class="errorbars"/><g class="lines"><path class="js-line" d="M0,241.34L1.09,228.16L1.14,227.58L1.77,223.11L1.81,222.56L2.61,214.48L2.65,220.26L2.69,228.55L3.41,221.32L3.45,225.89L3.49,228.13L4.42,220.56L4.46,227.36L4.5,230.27L5.13,223.9L5.18,223.6L6.02,218.35L6.06,223.48L6.1,227.05L6.73,220.9L6.78,220.64L7.45,216.4L7.49,226.44L9.01,214.65L9.05,220.2L9.09,224.1L9.76,216.98L9.81,216.65L10.52,212.69L10.56,219.93L10.6,220.82L11.07,215.56L11.11,215.24L11.91,210.79L11.95,221.89L12.92,211.83L12.96,211.54L13.51,208.51L13.55,208.53L13.59,220.88L13.63,221.82L14.06,215.48L14.1,215.06L15.23,207.39L15.28,213.23L15.32,221.44L15.99,212.66L16.03,212.4L16.96,206.44L17,208.66L17.04,219.22L18.1,207.54L18.14,207.58L18.56,205.1L18.6,205.13L18.64,215.3L18.68,216.3L19.15,210.16L19.19,209.9L20.16,203.78L20.2,212.41L20.24,217.1L20.87,208.47L20.92,207.81L21.42,205.08L21.46,204.67L21.84,202.84L21.88,209.92L21.93,216.1L22.6,207.47L22.64,207.08L23.57,201.67L23.61,211.68L23.65,216.68L24.32,207.17L24.37,206.96L25.42,200.8L25.46,208.37L25.5,217.71L26.18,209.14L26.22,208.74L27.52,199.31L27.56,220.59L29.5,199.94L29.54,199.77L31.02,195.43L31.06,216.17L31.1,221.53L31.73,210.69L31.77,210.38L33.25,205.65L33.29,205.59L35.98,202.07L36.02,202.03L43.3,196.62L43.35,196.65L45.95,194.93L46,194.9L48.02,193.68L48.06,193.68L52.44,191.84L52.48,191.82L62.07,187.51L62.11,187.53L65.73,185.78L65.78,186.18L65.82,187L66.53,186.75L66.58,186.68L69.31,185.45L69.35,185.39L76.84,182.43L76.89,182.38L89.01,177.85L89.05,177.88L103.99,172.47L104.03,172.48L108.15,171.13L108.2,171.16L111.48,170.15L111.52,170.16L117.58,168.13L117.62,168.14L124.86,165.95L124.9,165.97L131.13,164.19L131.17,164.25L133.19,163.47L133.24,163.49L138.33,161.13L138.37,160.97L139.97,160.6L140.01,160.57L141.4,159.99L141.44,160.06L142.37,159.51L142.41,159.59L142.45,159.62L143.21,159.11L143.29,159.21L143.34,159.27L143.55,158.95L144.14,159.22L144.18,159.05L144.22,158.97L144.26,159.13L144.77,158.57L144.93,158.78L144.98,158.74L145.57,159.04L145.82,158.82L145.86,158.72L146.45,158.91L146.7,158.56L146.74,158.59L147.12,158.07L147.54,158.47L147.59,158.56L149.19,158.13L149.23,157.77L149.27,157.36L149.94,157.9L149.98,157.86L151.67,157.01L151.84,157.24L151.88,157.25L152.85,157.14L152.89,156.76L154.11,156.63L154.15,156.53L155.2,156.34L155.25,156.34L158.7,155.38L158.74,155.37L161.22,154.53L161.26,154.27L162.36,154.32L162.4,154.26L162.95,153.97L163.16,154.04L163.2,154.04L165.09,153.63L165.13,153.61L166.82,153.04L166.86,153.06L172.2,151.33L172.25,151.39L173.09,150.81L173.13,150.85L173.17,150.85L174.77,150.45L174.81,150.28L175.7,150.42L175.74,150.33L175.78,150.2L177.42,149.87L177.47,149.83L178.69,149.55L178.73,149.55L180.16,149.28L180.2,149.25L181,148.7L181.04,148.73L181.08,148.81L183.1,148.37L183.15,148.15L185.92,147.83L185.97,148.26L192.57,144.55L192.62,144.55L197.58,142.49L197.62,142.05L199.69,140.79L199.73,140.89L199.77,140.94L212.56,136.62" style="vector-effect: none; fill: none; stroke: rgb(204, 102, 119); stroke-opacity: 1; stroke-width: 2px; opacity: 1;"/></g><g class="points"/><g class="text"/></g></g></g><g class="overplot"/><path class="xlines-above crisp" d="M87,421H392" style="fill: none; stroke-width: 2px; stroke: rgb(0, 0, 0); stroke-opacity: 1;"/><path class="ylines-above crisp" d="M88,100V420" style="fill: none; stroke-width: 2px; stroke: rgb(0, 0, 0); stroke-opacity: 1;"/><g class="overlines-above"/><g class="xaxislayer-above"><path class="xtick ticks crisp" d="M0,422v5" transform="translate(89,0)" style="stroke: rgb(68, 68, 68); stroke-opacity: 1; stroke-width: 1px;"/><path class="xtick ticks crisp" d="M0,422v5" transform="translate(139.5,0)" style="stroke: rgb(68, 68, 68); stroke-opacity: 1; stroke-width: 1px;"/><path class="xtick ticks crisp" d="M0,422v5" transform="translate(190,0)" style="stroke: rgb(68, 68, 68); stroke-opacity: 1; stroke-width: 1px;"/><path class="xtick ticks crisp" d="M0,422v5" transform="translate(240.5,0)" style="stroke: rgb(68, 68, 68); stroke-opacity: 1; stroke-width: 1px;"/><path class="xtick ticks crisp" d="M0,422v5" transform="translate(291,0)" style="stroke: rgb(68, 68, 68); stroke-opacity: 1; stroke-width: 1px;"/><path class="xtick ticks crisp" d="M0,422v5" transform="translate(341.5,0)" style="stroke: rgb(68, 68, 68); stroke-opacity: 1; stroke-width: 1px;"/><path class="xtick ticks crisp" d="M0,422v5" transform="translate(392,0)" style="stroke: rgb(68, 68, 68); stroke-opacity: 1; stroke-width: 1px;"/><g class="xtick"><text text-anchor="middle" x="0" y="448.6" transform="translate(89,0)" style="font-family: 'Times New Roman', monospace; font-size: 18px; fill: rgb(105, 105, 105); fill-opacity: 1; white-space: pre; opacity: 1;">0</text></g><g class="xtick"><text text-anchor="middle" x="0" y="448.6" style="font-family: 'Times New Roman', monospace; font-size: 18px; fill: rgb(105, 105, 105); fill-opacity: 1; white-space: pre; opacity: 1;" transform="translate(139.5,0)">20</text></g><g class="xtick"><text text-anchor="middle" x="0" y="448.6" style="font-family: 'Times New Roman', monospace; font-size: 18px; fill: rgb(105, 105, 105); fill-opacity: 1; white-space: pre; opacity: 1;" transform="translate(190,0)">40</text></g><g class="xtick"><text text-anchor="middle" x="0" y="448.6" style="font-family: 'Times New Roman', monospace; font-size: 18px; fill: rgb(105, 105, 105); fill-opacity: 1; white-space: pre; opacity: 1;" transform="translate(240.5,0)">60</text></g><g class="xtick"><text text-anchor="middle" x="0" y="448.6" style="font-family: 'Times New Roman', monospace; font-size: 18px; fill: rgb(105, 105, 105); fill-opacity: 1; white-space: pre; opacity: 1;" transform="translate(291,0)">80</text></g><g class="xtick"><text text-anchor="middle" x="0" y="448.6" style="font-family: 'Times New Roman', monospace; font-size: 18px; fill: rgb(105, 105, 105); fill-opacity: 1; white-space: pre; opacity: 1;" transform="translate(341.5,0)">100</text></g><g class="xtick"><text text-anchor="middle" x="0" y="448.6" style="font-family: 'Times New Roman', monospace; font-size: 18px; fill: rgb(105, 105, 105); fill-opacity: 1; white-space: pre; opacity: 1;" transform="translate(392,0)">120</text></g></g><g class="yaxislayer-above"><path class="ytick ticks crisp" d="M87,0h-5" transform="translate(0,401.18)" style="stroke: rgb(68, 68, 68); stroke-opacity: 1; stroke-width: 1px;"/><path class="ytick ticks crisp" d="M87,0h-5" transform="translate(0,363.53)" style="stroke: rgb(68, 68, 68); stroke-opacity: 1; stroke-width: 1px;"/><path class="ytick ticks crisp" d="M87,0h-5" transform="translate(0,325.88)" style="stroke: rgb(68, 68, 68); stroke-opacity: 1; stroke-width: 1px;"/><path class="ytick ticks crisp" d="M87,0h-5" transform="translate(0,288.24)" style="stroke: rgb(68, 68, 68); stroke-opacity: 1; stroke-width: 1px;"/><path class="ytick ticks crisp" d="M87,0h-5" transform="translate(0,250.59)" style="stroke: rgb(68, 68, 68); stroke-opacity: 1; stroke-width: 1px;"/><path class="ytick ticks crisp" d="M87,0h-5" transform="translate(0,212.94)" style="stroke: rgb(68, 68, 68); stroke-opacity: 1; stroke-width: 1px;"/><path class="ytick ticks crisp" d="M87,0h-5" transform="translate(0,175.29000000000002)" style="stroke: rgb(68, 68, 68); stroke-opacity: 1; stroke-width: 1px;"/><path class="ytick ticks crisp" d="M87,0h-5" transform="translate(0,137.65)" style="stroke: rgb(68, 68, 68); stroke-opacity: 1; stroke-width: 1px;"/><path class="ytick ticks crisp" d="M87,0h-5" transform="translate(0,100)" style="stroke: rgb(68, 68, 68); stroke-opacity: 1; stroke-width: 1px;"/><g class="ytick"><text text-anchor="end" x="78.4" y="6.3" transform="translate(0,401.18)" style="font-family: 'Times New Roman', monospace; font-size: 18px; fill: rgb(105, 105, 105); fill-opacity: 1; white-space: pre; opacity: 1;">400</text></g><g class="ytick"><text text-anchor="end" x="78.4" y="6.3" style="font-family: 'Times New Roman', monospace; font-size: 18px; fill: rgb(105, 105, 105); fill-opacity: 1; white-space: pre; opacity: 1;" transform="translate(0,363.53)">600</text></g><g class="ytick"><text text-anchor="end" x="78.4" y="6.3" style="font-family: 'Times New Roman', monospace; font-size: 18px; fill: rgb(105, 105, 105); fill-opacity: 1; white-space: pre; opacity: 1;" transform="translate(0,325.88)">800</text></g><g class="ytick"><text text-anchor="end" x="78.4" y="6.3" style="font-family: 'Times New Roman', monospace; font-size: 18px; fill: rgb(105, 105, 105); fill-opacity: 1; white-space: pre; opacity: 1;" transform="translate(0,288.24)">1000</text></g><g class="ytick"><text text-anchor="end" x="78.4" y="6.3" style="font-family: 'Times New Roman', monospace; font-size: 18px; fill: rgb(105, 105, 105); fill-opacity: 1; white-space: pre; opacity: 1;" transform="translate(0,250.59)">1200</text></g><g class="ytick"><text text-anchor="end" x="78.4" y="6.3" style="font-family: 'Times New Roman', monospace; font-size: 18px; fill: rgb(105, 105, 105); fill-opacity: 1; white-space: pre; opacity: 1;" transform="translate(0,212.94)">1400</text></g><g class="ytick"><text text-anchor="end" x="78.4" y="6.3" style="font-family: 'Times New Roman', monospace; font-size: 18px; fill: rgb(105, 105, 105); fill-opacity: 1; white-space: pre; opacity: 1;" transform="translate(0,175.29000000000002)">1600</text></g><g class="ytick"><text text-anchor="end" x="78.4" y="6.3" style="font-family: 'Times New Roman', monospace; font-size: 18px; fill: rgb(105, 105, 105); fill-opacity: 1; white-space: pre; opacity: 1;" transform="translate(0,137.65)">1800</text></g><g class="ytick"><text text-anchor="end" x="78.4" y="6.3" style="font-family: 'Times New Roman', monospace; font-size: 18px; fill: rgb(105, 105, 105); fill-opacity: 1; white-space: pre; opacity: 1;" transform="translate(0,100)">2000</text></g></g><g class="overaxes-above"/></g></g><g class="polarlayer"/><g class="smithlayer"/><g class="ternarylayer"/><g class="geolayer"/><g class="funnelarealayer"/><g class="pielayer"/><g class="iciclelayer"/><g class="treemaplayer"/><g class="sunburstlayer"/><g class="glimages"/><defs id="topdefs-352ee8"><g class="clips"/><clipPath id="legend352ee8"><rect width="90" height="63" x="0" y="0"/></clipPath></defs><g class="layer-above"><g class="imagelayer"/><g class="shapelayer"/></g><g class="infolayer"><g class="legend" pointer-events="all" transform="translate(398.06,100)"><rect class="bg" shape-rendering="crispEdges" width="90" height="63" x="0" y="0" style="stroke: rgb(68, 68, 68); stroke-opacity: 1; fill: rgb(0, 0, 0); fill-opacity: 0; stroke-width: 0px;"/><g class="scrollbox" transform="" clip-path="url(#legend352ee8)"><g class="groups"><g class="traces" transform="translate(0,18.200000000000003)" style="opacity: 1;"><text class="legendtext" text-anchor="start" x="40" y="7.0200000000000005" style="font-family: 'Times New Roman', monospace; font-size: 18px; fill: rgb(105, 105, 105); fill-opacity: 1; white-space: pre;">CoO​<tspan style="font-size:70%" dy="0.3em">X</tspan><tspan dy="-0.21em">​</tspan></text><g class="layers" style="opacity: 1;"><g class="legendfill"/><g class="legendlines"><path class="js-line" d="M5,0h30" style="fill: none; stroke: rgb(136, 204, 238); stroke-opacity: 1; stroke-width: 2px;"/></g><g class="legendsymbols"><g class="legendpoints"/></g></g><rect class="legendtoggle" x="0" y="-13.200000000000001" width="84.015625" height="26.400000000000002" style="fill: rgb(0, 0, 0); fill-opacity: 0;"/></g><g class="traces" transform="translate(0,44.6)" style="opacity: 1;"><text class="legendtext" text-anchor="start" x="40" y="7.0200000000000005" style="font-family: 'Times New Roman', monospace; font-size: 18px; fill: rgb(105, 105, 105); fill-opacity: 1; white-space: pre;">NiO​<tspan style="font-size:70%" dy="0.3em">X</tspan><tspan dy="-0.21em">​</tspan></text><g class="layers" style="opacity: 1;"><g class="legendfill"/><g class="legendlines"><path class="js-line" d="M5,0h30" style="fill: none; stroke: rgb(204, 102, 119); stroke-opacity: 1; stroke-width: 2px;"/></g><g class="legendsymbols"><g class="legendpoints"/></g></g><rect class="legendtoggle" x="0" y="-13.200000000000001" width="84.015625" height="26.400000000000002" style="fill: rgb(0, 0, 0); fill-opacity: 0;"/></g></g></g><rect class="scrollbar" rx="20" ry="3" width="0" height="0" x="0" y="0" style="fill: rgb(128, 139, 164); fill-opacity: 1;"/></g><g class="g-gtitle"/><g class="g-xtitle"><text class="xtitle" x="240.5" y="482.009375" text-anchor="middle" style="font-family: 'Times New Roman', monospace; font-size: 22px; fill: rgb(105, 105, 105); opacity: 1; white-space: pre;">Time (min)</text></g><g class="g-ytitle"><text class="ytitle" transform="rotate(-90,20.690624999999997,260)" x="20.690624999999997" y="260" text-anchor="middle" style="font-family: 'Times New Roman', monospace; font-size: 22px; fill: rgb(105, 105, 105); opacity: 1; white-space: pre;">Overpotential, η(mV) - iR​<tspan style="font-size:70%" dy="0.3em">u</tspan><tspan dy="-0.21em">​</tspan></text></g></g></svg>