<svg class="main-svg" xmlns="http://www.w3.org/2000/svg" xmlns:xlink="http://www.w3.org/1999/xlink" width="500" height="500" style="" viewBox="0 0 500 500"><rect x="0" y="0" width="500" height="500" style="fill: rgb(0, 0, 0); fill-opacity: 0;"/><defs id="defs-0ee0bf"><g class="clips"><clipPath id="clip0ee0bfxyplot" class="plotclip"><rect width="336" height="316"/></clipPath><clipPath class="axesclip" id="clip0ee0bfx"><rect x="84" y="0" width="336" height="500"/></clipPath><clipPath class="axesclip" id="clip0ee0bfy"><rect x="0" y="100" width="500" height="316"/></clipPath><clipPath class="axesclip" id="clip0ee0bfxy"><rect x="84" y="100" width="336" height="316"/></clipPath></g><g class="gradients"/><g class="patterns"/></defs><g class="bglayer"><rect class="bg" x="84" y="100" width="336" height="316" style="fill: rgb(0, 0, 0); fill-opacity: 0; stroke-width: 0;"/></g><g class="layer-below"><g class="imagelayer"/><g class="shapelayer"/></g><g class="cartesianlayer"><g class="subplot xy"><g class="layer-subplot"><g class="shapelayer"/><g class="imagelayer"/></g><g class="minor-gridlayer"><g class="x"/><g class="y"/></g><g class="gridlayer"><g class="x"/><g class="y"/></g><g class="zerolinelayer"/><path class="xlines-below"/><path class="ylines-below"/><g class="overlines-below"/><g class="xaxislayer-below"/><g class="yaxislayer-below"/><g class="overaxes-below"/><g class="plot" transform="translate(84,100)" clip-path="url(#clip0ee0bfxyplot)"><g class="scatterlayer mlayer"><g class="trace scatter trace982b78" style="stroke-miterlimit: 2; opacity: 1;"><g class="fills"/><g class="errorbars"/><g class="lines"><path class="js-line" d="M0,165.15L0.51,144.33L0.77,144.74L0.78,144.73L1.64,143.5L1.73,143.55L1.74,143.53L1.89,144.06L2.33,143.4L2.33,143.37L2.71,144.01L3.12,143.43L3.13,143.42L3.32,143.3L3.52,144.08L3.94,143.4L3.95,143.39L5.88,143.56L5.89,143.64L5.9,143.79L6.48,143.49L6.58,144.11L6.6,144.1L6.6,144.14L6.84,144.37L7.26,143.55L7.3,144.21L7.3,144.26L8.1,143.5L8.1,143.5L8.11,143.52L8.14,143.98L8.56,143.41L8.86,143.5L8.87,143.51L10.03,143.57L10.03,143.54L10.61,143.64L10.62,143.91L10.63,144.07L10.93,143.58L11.03,146.86L11.04,148.03L11.07,151.44L11.66,143.44L11.79,143.69L11.8,143.68L12.64,143.53L12.65,143.53L14.54,143.51L14.54,143.49L14.55,143.47L14.76,143.37L14.81,143.81L15.25,143.31L15.26,143.31L18.09,143.1L18.1,143.08L18.95,143.57L19.04,143.17L19.05,143.15L20.14,143.46L20.16,143.22L20.17,143.17L21.93,143.27L21.93,143.25L22.03,143.92L22.18,143.19L22.62,143.15L22.63,143.17L25.78,143.04L25.8,143.43L25.81,143.54L26.64,143.01L26.65,143.03L26.66,143.03L28.02,142.87L28.05,143.32L28.06,143.39L28.65,142.87L28.87,142.92L28.88,142.89L28.98,142.86L29.23,143.28L29.65,142.95L29.66,142.91L29.78,143.32L30.4,142.88L30.41,142.88L30.45,143.29L31.15,142.86L31.16,142.86L31.33,143.39L31.95,143.02L31.96,142.99L34.69,142.95L34.7,143.17L34.71,143.29L34.75,143.61L34.99,142.9L35.42,142.94L35.43,142.93L36.46,143.07L36.48,142.45L36.49,142.21L36.5,141.61L37.08,142.84L37.24,142.79L37.25,142.79L38.9,142.93L38.9,142.9L38.99,142.86L39.07,143.43L39.64,142.85L39.65,142.87L39.88,143.23L40.42,142.81L40.43,142.82L46.22,142.93L46.22,143.06L46.23,143.19L46.43,143.39L47,142.78L47.1,142.95L47.11,142.95L47.85,142.77L47.93,142.96L47.93,143.05L48.14,143.35L48.81,142.85L48.83,142.87L48.84,142.89L48.99,142.81L49.57,143.04L49.66,142.85L49.67,142.83L50.37,143.2L50.42,142.74L50.43,142.74L53.39,142.95L53.39,143.05L53.4,143.13L53.92,142.58L54.23,142.67L54.24,142.69L55.84,142.78L55.84,142.76L55.85,142.74L57.59,142.82L57.59,142.81L57.6,142.79L60.04,142.65L60.04,142.63L60.05,142.61L60.32,142.96L60.81,142.65L60.82,142.67L60.85,143.05L61.57,142.82L61.58,142.82L63.11,142.73L63.13,142.67L63.14,142.66L64.21,142.78L64.23,142.75L64.24,142.75L66.15,142.61L66.16,142.73L66.17,142.76L66.32,142.57L66.68,143.01L66.92,142.69L66.93,142.7L67.08,142.77L67.78,142.58L67.79,142.6L68.5,142.79L68.54,142.6L68.55,142.57L72.76,142.65L72.77,142.63L73.71,142.79L73.72,142.76L73.73,142.73L74.92,142.79L74.93,142.83L74.94,142.91L74.97,143.13L75.2,142.67L75.67,142.68L75.68,142.7L76.42,142.92L76.61,142.74L76.62,142.71L78.49,142.66L78.5,142.79L78.51,142.88L79.24,142.65L79.31,142.69L79.32,142.7L82.25,142.68L82.26,142.78L82.27,142.86L82.91,142.61L83.02,142.69L83.03,142.72L84.36,142.67L84.37,142.71L84.37,142.78L86,142.67L86.01,142.65L86.7,142.91L86.97,142.66L86.98,142.64L90.18,143.2L90.19,143.48L91.04,142.6L91.05,142.61L91.59,143.01L91.81,142.73L91.82,142.72L93.07,142.64L93.1,142.79L93.11,142.83L93.92,142.67L93.92,142.67L93.93,142.67L96.15,142.66L96.17,142.84L96.18,142.88L97,142.6L97,142.62L97.88,142.67L97.88,142.65L97.89,142.62L98.47,143.02L98.69,142.68L98.7,142.64L101.38,142.68L101.38,142.65L102.27,143.8L102.28,144.36L102.32,149.63L102.99,142.53L103,142.54L105.19,142.4L105.19,142.38L105.27,142.73L105.97,142.47L105.98,142.45L106.29,142.26L106.48,142.68L106.73,142.41L106.74,142.41L107.89,142.44L107.9,142.41L107.91,142.37L108.48,142.77L108.8,142.63L108.81,142.58L112.52,142.7L112.53,142.69L116.63,142.6L116.64,142.58L117.39,142.85L117.46,142.6L117.47,142.58L118.11,142.82L118.24,142.65L118.25,142.62L120.8,142.84L120.82,142.75L120.83,142.72L121.71,142.82L121.75,142.75L121.75,142.73L122.87,142.92L122.88,142.89L122.89,142.8L123.87,142.73L123.88,142.74L124.13,142.66L124.54,142.89L124.64,142.73L124.65,142.72L126.12,142.78L126.13,142.73L126.14,142.71L129.69,142.8L129.69,142.79L129.7,142.78L131.27,142.95L131.29,142.88L131.3,142.86L133.27,142.74L133.28,142.77L133.29,142.82L134.19,142.73L134.21,142.75L134.22,142.74L136.63,142.76L136.64,142.84L136.65,142.88L137.42,142.66L137.47,142.69L137.48,142.7L138.97,142.79L138.98,142.75L138.99,142.73L140.56,142.8L140.58,142.85L140.58,142.87L143.27,142.96L143.28,143.07L143.29,143.08L144.25,142.9L144.3,142.96L144.31,143.01L145.46,142.88L145.48,142.94L145.49,143.06L146.19,142.89L146.25,142.97L146.26,142.96L182.61,143.55L182.61,143.65L182.63,143.8L182.75,143.44L183.34,143.48L183.35,143.5L188.52,143.42L188.53,143.44L194.2,143.56L194.2,143.72L194.21,143.92L194.28,150.78L194.73,143.55L194.8,143.57L194.81,143.56L200.73,143.68L200.74,143.58L202.82,143.72L202.83,143.68L202.84,143.66L207.97,143.59L207.98,143.58L209.44,143.71L209.47,143.64L209.48,143.61L211.29,143.71L211.3,143.68L211.31,143.67L214.25,143.57L214.25,143.6L214.26,143.63L215.18,143.68L215.19,143.7L221.25,143.94L221.25,143.98L223.24,143.87L223.25,143.91L223.25,143.94L224.44,143.81L224.47,143.87L224.47,143.92L228.52,143.98L228.53,143.97L229.6,144.03L229.62,144.01L229.62,143.97L232.64,143.91L232.65,143.87L280.08,144.53L280.09,144.59L281,144.62L281.03,144.67L281.04,144.69L284.75,144.65L284.76,144.69L285.71,144.14L285.72,143.83L285.75,142.79L285.87,144.7L286.47,144.67L286.48,144.65L290.52,144.82L290.52,144.84L290.53,144.88L292.13,144.81L292.13,144.83L294.5,144.9L294.51,144.96L294.52,144.97L296.46,144.88L296.47,144.94L296.47,144.96L299.22,144.99L299.23,145L302.4,145.05L302.41,145.08L306.34,144.97L306.34,145L306.35,145.06L307.35,144.9L307.39,144.97L307.39,144.99L309.51,144.91L309.52,144.95L311.13,145.05L311.13,145.1L313.32,145.19L313.33,145.2L315.17,145.15L315.18,145.17L327.83,145.36L327.83,145.28L328.83,145.49L328.86,145.46L328.87,145.41L331.97,145.39L331.98,145.34L332.79,145.47L332.89,145.35L332.9,145.35L337.82,145.32L337.83,145.27L339.13,145.36L339.13,145.32L339.14,145.3L340.89,146.01L340.9,146.45L340.95,152.13L341.46,145.54L341.71,145.58L341.72,145.51L345.21,145.59L345.22,145.53L497.12,149.44L497.12,150.46L497.16,154.39L499.53,147.16L501.53,147.3L501.54,147.27L533.13,147.52" style="vector-effect: non-scaling-stroke; fill: none; stroke: rgb(136, 204, 238); stroke-opacity: 1; stroke-width: 2px; opacity: 1;"/></g><g class="points"/><g class="text"/></g><g class="trace scatter trace62c128" style="stroke-miterlimit: 2; opacity: 1;"><g class="fills"/><g class="errorbars"/><g class="lines"><path class="js-line" d="M0,291.77L0.15,144.82L0.75,145.29L0.76,145.26L0.92,144.9L1.03,145.48L1.51,145.24L1.51,145.29L1.51,145.14L2.07,145.67L2.26,145.46L2.27,145.46L2.52,145.31L3.19,148.11L3.19,148.25L3.23,155.61L3.65,145.88L3.94,146.23L3.95,146.2L4.38,146.42L4.51,146L4.68,146.32L4.69,146.33L4.76,146L5.36,146.55L5.43,146.43L5.43,146.46L6.02,146.22L6.08,146.69L6.18,146.41L6.18,146.52L6.23,146.33L6.51,146.81L6.91,146.7L6.91,146.72L6.92,146.43L7.09,146.87L7.65,146.73L7.66,146.71L7.81,146.62L8.39,147.22L8.42,146.95L8.42,146.88L8.55,146.8L8.87,147.19L9.17,147.07L9.18,147.04L9.3,146.95L9.96,147.38L9.96,147.27L9.96,147.23L10.16,147.01L10.7,147.44L10.75,147.17L10.75,147.13L11.47,147.58L11.51,147.38L11.52,147.38L11.72,147.17L12.36,147.58L12.39,147.39L12.39,147.36L12.62,147.21L12.97,147.73L13.14,147.5L13.15,147.46L13.36,147.83L13.79,147.2L13.9,147.42L13.91,147.45L14.03,147.35L14.64,148.04L14.71,147.79L14.71,147.76L14.78,147.9L15.47,147.64L15.48,147.67L15.48,147.8L15.48,147.61L15.94,148.2L16.23,147.79L16.24,147.83L16.26,147.8L16.72,148.2L16.99,148.11L17,148.08L17.38,147.85L17.67,148.34L17.75,148.1L17.75,148.11L18.04,147.88L18.4,148.29L18.54,148.14L18.54,148.09L18.76,148.02L18.91,148.47L19.3,148.11L19.3,148.08L19.33,148.01L19.97,148.56L20.06,148.43L20.07,148.42L20.18,148.52L20.37,148.09L20.81,148.51L20.82,148.56L20.94,148.09L21.55,148.67L21.57,148.52L21.57,148.6L21.68,148.48L22.22,148.81L22.31,148.51L22.31,148.47L22.55,148.44L22.77,148.81L23.06,148.69L23.07,148.69L23.12,148.5L23.58,148.99L23.8,148.87L23.8,148.97L23.91,148.63L24.33,149.11L24.55,148.86L24.56,148.8L24.64,148.68L24.89,149.08L25.31,148.96L25.32,148.93L25.53,148.71L26.26,149.15L26.31,148.88L26.31,148.83L26.63,148.76L27.06,149.2L27.07,149.02L27.08,148.94L27.74,148.81L27.84,149.23L27.84,149.12L27.84,149.11L28.21,149.38L28.51,148.73L28.58,149.02L28.59,149.05L29.38,149.29L29.41,149.09L29.41,149.08L30.1,149.45L30.18,149.17L30.19,149.13L30.32,149.1L30.8,149.58L30.94,149.26L30.95,149.29L31.04,149.2L31.44,149.54L31.7,149.28L31.71,149.26L31.87,149.15L32.16,149.58L32.46,149.57L32.47,149.58L32.65,149.7L33.17,149.32L33.21,149.62L33.22,149.71L33.25,149.78L33.41,149.36L33.98,149.6L33.98,149.7L34.15,149.29L34.5,149.85L34.73,149.59L34.73,149.73L34.85,149.85L35.31,149.57L35.46,149.83L35.46,149.93L35.61,149.46L36.04,150.06L36.22,149.78L36.22,149.82L36.22,149.63L36.27,150.03L36.97,149.74L36.98,149.7L37.68,150.21L37.79,149.92L37.8,149.88L38.33,149.75L38.48,150.25L38.53,150.04L38.53,150.18L38.61,150.27L38.99,149.77L39.28,150.18L39.28,150.19L39.28,150.26L39.77,149.83L40.03,150.04L40.04,150.03L40.69,150.45L40.78,149.89L40.79,149.96L40.8,149.96L41.52,150.48L41.57,150.17L41.58,150.12L42.03,149.94L42.3,150.57L42.33,150.43L42.34,150.47L42.71,150.08L42.88,150.67L43.09,150.33L43.1,150.39L43.39,150.64L43.58,150.13L43.85,150.42L43.85,150.52L43.98,150.62L44.56,150.25L44.6,150.54L44.6,150.59L44.66,150.61L45.02,150.24L45.39,150.57L45.39,150.68L45.45,150.77L45.94,150.31L46.15,150.51L46.15,150.56L46.28,150.68L46.9,150.42L46.91,150.6L46.91,150.69L47.01,150.81L47.44,150.32L47.66,150.55L47.66,150.66L48.09,150.92L48.33,150.45L48.4,150.74L48.4,150.79L49.01,151.17L49.12,150.76L49.13,150.93L49.14,150.97L49.17,150.66L49.51,151.1L49.89,150.84L49.9,150.85L50.14,150.66L50.58,151.23L50.65,150.95L50.66,150.9L50.74,150.72L51.43,151.31L51.43,151.06L51.43,150.98L51.82,150.74L52.09,151.27L52.17,150.88L52.18,150.88L52.34,150.86L52.84,151.35L52.93,151.19L52.94,151.17L53.06,151.39L53.46,150.93L53.7,151.23L53.7,151.27L53.83,151.12L54.17,159.18L54.48,151.79L54.48,151.74L55.25,151.32L55.27,151.48L55.27,151.56L55.44,151.25L55.83,151.74L56.01,151.6L56.02,151.57L56.16,151.36L56.24,151.86L56.77,151.51L56.77,151.47L56.86,151.42L57.54,151.87L57.57,151.66L57.58,151.62L57.62,151.51L57.73,151.94L58.33,151.64L58.34,151.66L58.34,151.51L59.09,151.98L59.09,151.92L59.1,151.88L59.21,152.12L59.76,151.54L59.85,151.78L59.86,151.79L59.88,151.58L60.56,152.2L60.61,151.99L60.62,151.96L60.87,151.7L61,152.13L61.37,151.91L61.37,151.88L61.68,152.38L62.03,151.76L62.12,152.03L62.13,152.03L62.47,152.32L62.66,151.85L62.88,152.04L62.88,152.08L62.99,151.89L63.53,152.33L63.63,152.01L63.63,151.97L63.69,151.9L64.19,152.45L64.38,152.25L64.39,152.27L64.63,152.51L64.89,151.98L65.16,152.34L65.16,152.38L65.26,152.06L65.87,152.64L65.89,152.54L65.89,152.57L65.95,152.63L66.16,152.09L66.64,152.54L66.65,152.55L67.07,152.14L67.23,152.75L67.4,152.58L67.4,152.59L67.48,152.77L68.09,152.25L68.16,152.41L68.17,152.46L68.4,152.61L68.78,152.25L68.89,152.63L68.89,152.7L69.12,152.22L69.35,152.74L69.64,152.4L69.65,152.36L69.9,152.3L70.33,152.79L70.41,152.45L70.41,152.43L71.28,152.77L71.31,152.55L71.31,152.51L71.53,152.3L71.97,152.69L72.02,152.37L72.02,152.32L72.2,152.89L72.78,152.58L72.78,152.54L72.85,152.25L73.29,152.78L73.53,152.55L73.53,152.57L73.54,152.4L74.01,153L74.28,152.72L74.29,152.75L74.72,153.03L74.91,152.58L75.03,152.86L75.03,152.88L75.28,152.41L75.63,153.05L75.77,152.77L75.77,152.73L75.82,152.69L75.95,153.14L76.53,152.83L76.53,152.8L76.79,152.66L77.07,153.17L77.28,152.79L77.28,152.76L77.45,152.65L77.86,153.15L78.03,152.96L78.04,152.93L78.11,152.68L78.46,153.28L78.79,152.96L78.79,152.98L79.06,153.29L79.2,152.76L79.53,153.15L79.53,153.2L79.68,153.28L80.11,152.82L80.28,153.13L80.28,153.22L80.33,153.3L80.75,152.71L81.03,152.99L81.04,152.99L81.45,152.7L81.69,153.24L81.81,153.03L81.81,152.97L82.04,152.81L82.21,153.29L82.56,153.06L82.57,153.12L82.63,152.95L82.78,153.36L83.32,153.08L83.32,153.07L83.36,153.35L83.59,152.8L84.06,152.89L84.06,152.87L84.93,153.3L84.94,153.09L84.94,153.06L85.21,152.87L85.68,153.37L85.7,153.19L85.71,153.16L85.94,153.38L86.25,152.91L86.46,153.11L86.46,153.08L86.52,152.9L86.72,153.53L87.21,153.2L87.22,153.21L87.41,153.02L88.08,153.65L88.09,153.49L88.09,153.44L88.1,153.62L88.32,153.1L88.82,153.23L88.83,153.23L89.29,153.16L89.46,153.63L89.59,153.42L89.59,153.38L89.81,153.16L89.97,153.77L90.33,153.45L90.34,153.48L90.49,153.59L91.03,153.21L91.11,153.39L91.11,153.48L91.17,153.19L91.24,153.61L91.86,153.4L91.87,153.42L91.95,153.5L92.68,153.21L92.7,153.45L92.71,153.47L92.89,153.23L93.45,153.61L93.47,153.36L93.48,153.33L93.73,153.32L94.02,153.76L94.23,153.71L94.24,153.7L94.59,153.81L94.94,153.3L94.99,153.47L95,153.5L95.13,153.28L95.64,153.74L95.75,153.44L95.75,153.4L96.29,153.85L96.37,153.29L96.5,153.66L96.51,153.65L96.6,153.73L97.22,153.38L97.26,153.63L97.26,153.66L97.36,153.4L97.83,153.9L98.01,153.83L98.02,153.8L98.1,154.01L98.46,153.59L98.76,153.84L98.77,153.88L99.38,153.51L99.57,153.76L99.57,153.78L99.93,154.02L100.06,153.6L100.32,153.78L100.32,153.74L100.39,153.57L100.79,154.02L101.06,153.64L101.07,153.65L101.09,153.61L101.59,154.07L101.82,153.89L101.83,153.92L101.99,154.06L102.57,153.64L102.62,153.97L102.62,153.99L103.05,153.58L103.25,154.09L103.37,153.96L103.38,154.04L103.66,154.15L103.99,153.69L104.13,153.89L104.14,153.88L104.34,154.13L104.64,153.66L104.88,153.77L104.89,153.76L104.92,153.66L105.59,154.22L105.64,154.06L105.65,154.03L105.82,153.71L105.88,154.12L106.4,154.05L106.4,154.11L106.6,154.2L107.12,153.7L107.15,153.86L107.16,153.88L107.31,153.78L107.99,154.2L108,154.03L108,154.01L108.75,154.17L108.77,153.96L108.77,153.92L109,154.24L109.35,153.7L109.51,153.87L109.52,153.89L109.89,154.15L110.26,153.67L110.27,154L110.28,154L110.64,154.3L110.98,153.74L111.06,153.99L111.06,154.09L111.33,154.3L111.45,153.74L111.81,153.98L111.82,153.96L112.01,153.8L112.49,154.14L112.56,153.81L112.56,153.79L112.65,153.71L113.27,154.15L113.31,153.9L113.32,153.92L113.71,153.76L114.09,154.17L114.13,153.98L114.13,153.97L114.51,154.17L114.75,153.74L114.87,153.93L114.88,153.93L115.17,153.72L115.53,154.16L115.63,154.03L115.64,154.04L115.91,154.11L116.01,153.7L116.39,153.77L116.4,153.77L116.54,153.7L117.01,154.26L117.16,153.92L117.16,153.89L117.5,153.7L117.86,154.2L117.91,153.87L117.91,153.86L118.02,153.75L118.23,154.23L118.66,153.97L118.67,153.97L118.78,154.23L119.36,153.81L119.42,153.97L119.43,153.95L120.08,154.21L120.15,153.84L120.15,153.81L120.37,154.2L120.76,153.71L120.9,153.99L120.91,154.01L121.07,154.22L121.44,153.79L121.65,154.14L121.65,154.17L121.66,154.31L121.98,153.85L122.4,154.22L122.41,154.19L122.57,153.9L123.09,154.48L123.14,154.37L123.14,154.39L123.27,154.14L123.54,154.62L123.89,154.39L123.89,154.43L124.55,154.3L124.63,154.67L124.63,154.68L124.94,154.81L125.23,154.39L125.39,154.54L125.4,154.59L125.47,154.74L125.92,154.46L126.12,154.75L126.12,154.82L126.26,154.34L126.88,154.67L126.88,154.71L127.02,154.91L127.49,154.44L127.7,154.64L127.7,154.71L127.79,154.81L128.47,154.57L128.47,154.73L128.47,154.81L128.67,154.88L128.82,154.53L129.21,154.83L129.22,154.83L129.28,154.95L129.99,154.48L130,154.64L130,154.74L130.25,154.85L130.33,154.44L130.75,154.64L130.76,154.68L131.32,154.51L131.48,154.93L131.51,154.66L131.51,154.65L131.71,154.54L131.93,155.03L132.26,154.8L132.27,154.81L132.44,154.92L132.68,154.57L133.02,154.86L133.02,154.95L133.67,154.55L133.77,154.71L133.78,154.75L133.9,154.91L134.55,154.6L134.58,154.79L134.58,154.83L134.64,154.58L135.27,154.92L135.33,154.74L135.34,154.72L135.71,154.42L135.93,154.95L136.1,154.92L136.1,154.87L136.23,154.97L136.87,154.71L136.89,154.84L136.89,154.98L137.35,154.63L137.56,155.06L137.64,154.98L137.65,154.98L137.8,155.04L137.88,154.58L138.4,154.72L138.41,154.78L138.6,154.95L138.79,154.5L139.16,154.82L139.16,154.89L139.33,154.54L139.86,155.01L139.9,154.9L139.91,154.92L140.07,154.65L140.66,155.05L140.66,154.9L140.67,154.98L140.85,155.12L141.44,154.78L141.46,154.91L141.46,154.93L141.48,154.76L142.04,155.23L142.2,155.01L142.21,155L142.38,154.86L142.99,155.23L143.06,155.05L143.06,154.97L143.24,154.83L143.79,155.21L143.82,155.1L143.83,155.07L143.86,154.82L144.42,155.28L144.58,154.94L144.59,154.95L144.83,155.22L145.15,154.82L145.34,154.97L145.35,154.92L145.77,154.78L146.07,155.26L146.1,155.15L146.11,155.17L147.1,154.97L147.14,155.16L147.14,155.17L147.14,154.95L147.63,161.85L147.89,155.56L147.9,155.52L147.92,155.63L148.3,155.17L148.67,155.37L148.67,155.4L148.81,155.59L149.33,155.21L149.42,155.42L149.42,155.47L149.56,155.27L150.07,155.57L150.16,155.33L150.16,155.31L150.3,155.06L150.72,155.52L150.91,155.38L150.92,155.37L151.08,155.56L151.46,155.06L151.66,155.47L151.66,155.5L151.76,155.53L152.43,155.12L152.43,155.37L152.44,155.35L152.44,155.19L153.15,155.67L153.19,155.46L153.2,155.46L153.33,155.27L153.73,155.68L153.94,155.5L153.95,155.48L154.14,155.38L154.69,155.69L154.72,155.45L154.72,155.43L154.78,155.81L155.29,155.28L155.46,155.45L155.47,155.44L155.71,155.31L156.3,155.73L156.34,155.59L156.34,155.55L156.63,155.35L157,155.82L157.09,155.56L157.09,155.55L157.18,155.89L157.65,155.42L157.84,155.6L157.85,155.64L157.95,155.74L158.53,155.47L158.67,155.75L158.67,155.79L158.69,155.85L158.92,155.37L159.43,155.65L159.43,155.69L159.97,155.96L160.14,155.6L160.18,155.77L160.19,155.77L160.69,155.49L160.89,155.99L160.96,155.63L160.96,155.7L160.99,155.38L161.65,155.94L161.7,155.85L161.71,155.85L161.94,155.57L162.29,156.04L162.45,155.91L162.46,155.96L162.49,156.02L162.87,155.6L163.22,155.92L163.22,155.96L163.3,156.08L163.95,155.65L163.97,155.86L163.98,155.9L164.21,156L164.64,155.65L164.73,155.94L164.73,155.96L164.85,156.09L165.38,155.6L165.48,155.87L165.49,155.81L165.7,155.7L166.15,156.11L166.25,155.97L166.25,155.96L167.28,155.9L167.28,156.06L167.28,156.08L167.47,156.16L167.62,155.67L168.05,156L168.05,156.02L168.36,156.07L168.66,155.72L168.8,155.85L168.81,155.87L168.92,155.75L169.53,156.11L169.56,155.9L169.56,155.86L169.81,155.69L169.97,156.23L170.31,155.88L170.32,155.92L170.5,156.07L171.09,155.73L171.09,155.91L171.09,155.97L171.2,156.1L171.31,155.74L171.83,156.05L171.84,156.05L172.35,156.18L172.4,155.72L172.59,155.95L172.6,155.96L172.74,156.08L173.05,155.68L173.36,155.94L173.37,155.95L173.48,156.02L174.08,155.72L174.16,155.92L174.16,155.96L174.36,156.09L174.82,155.78L174.9,156.07L174.9,156.1L175.1,155.75L175.6,156.22L175.64,156.09L175.65,156.11L175.74,156.25L176.04,155.8L176.4,155.98L176.41,156.01L176.71,156.34L177.05,154.37L177.05,154.31L177.07,153.75L177.29,156.31L177.7,155.97L177.7,156L177.76,155.97L178.38,156.25L178.47,156.09L178.47,156.05L178.73,155.97L178.8,156.38L179.22,156.06L179.22,156.01L179.5,155.91L179.77,156.31L179.98,156.16L179.98,156.14L180.12,156.32L180.68,156L180.72,156.18L180.73,156.23L181.29,156.46L181.46,156.1L181.49,156.19L181.49,156.26L181.53,156.4L182.1,155.92L182.24,156.27L182.25,156.24L182.51,155.98L182.99,156.32L183.03,156.06L183.04,156.05L183.06,156.02L183.35,156.47L183.81,156.37L183.81,156.32L183.91,156.49L184.18,156.05L184.55,156.3L184.56,156.36L184.64,156.43L184.94,156.01L185.31,156.13L185.32,156.1L185.8,156.47L185.94,156.01L186.07,156.35L186.08,156.34L186.19,156.45L186.28,156.09L186.83,156.09L186.84,156.2L186.84,156.01L187.46,156.45L187.59,156.4L187.6,156.35L187.67,156.47L188.28,156.14L188.37,156.3L188.37,156.32L189.37,156.2L189.4,156.45L189.4,156.47L189.51,156.13L189.63,156.55L190.15,156.42L190.16,156.43L190.25,156.55L190.75,156.11L190.91,156.29L190.92,156.31L190.95,156.58L191.45,156.16L191.67,156.45L191.68,156.39L192.06,156.63L192.28,156.24L192.45,156.4L192.45,156.44L193.04,156.66L193.21,156.29L193.21,156.39L193.21,156.45L193.5,156.65L193.66,156.28L193.96,156.43L193.97,156.43L194.26,156.67L194.44,156.25L194.72,156.47L194.73,156.48L194.85,156.61L195.46,156.35L195.49,156.57L195.49,156.61L195.75,156.68L195.99,156.32L196.24,156.58L196.25,156.6L196.31,156.64L196.89,156.32L197.02,156.53L197.02,156.55L197.82,156.32L197.94,156.63L197.94,156.65L197.99,156.79L198.57,156.25L198.69,156.44L198.7,156.43L199.49,156.63L199.51,156.41L199.51,156.38L199.6,156.26L199.83,156.74L200.28,156.5L200.28,156.43L200.63,156.31L200.72,156.75L201.03,156.42L201.03,156.41L201.83,156.62L201.84,156.47L201.84,156.4L202.02,156.79L202.59,156.35L202.59,156.48L202.6,156.52L202.75,156.37L203.05,156.82L203.34,156.45L203.35,156.43L204.26,156.66L204.31,156.44L204.31,156.4L204.71,156.87L205.06,156.64L205.07,156.62L205.38,156.87L205.65,156.49L205.81,156.66L205.82,156.67L205.83,156.4L206.46,156.9L206.57,156.56L206.57,156.6L206.95,156.38L207.23,156.77L207.32,156.66L207.33,156.6L207.39,156.46L207.83,156.92L208.08,156.73L208.09,156.74L208.18,156.52L208.78,156.9L208.84,156.73L208.85,156.71L208.94,156.64L209.52,156.85L209.6,156.54L209.6,156.51L209.66,156.5L210.22,156.89L210.36,156.69L210.37,156.71L210.57,156.5L211.19,156.83L211.24,156.61L211.24,156.58L211.41,156.45L211.52,156.92L211.99,156.64L211.99,156.59L212.04,156.49L212.73,156.91L212.76,156.67L212.77,156.66L212.79,156.88L212.94,156.49L213.52,156.78L213.53,156.76L213.77,156.88L214.23,156.44L214.28,156.66L214.29,156.7L214.59,156.94L215.03,156.5L215.05,156.73L215.05,156.77L215.56,157.01L215.68,156.65L215.8,156.81L215.8,156.84L216.56,156.62L216.6,156.86L216.6,156.9L217.05,156.61L217.28,156.96L217.35,156.89L217.36,156.93L217.7,157L217.87,156.57L218.12,156.72L218.12,156.74L218.44,156.97L218.73,156.6L218.86,156.85L218.87,156.82L219.07,156.96L219.54,156.6L219.62,156.75L219.63,156.78L219.73,156.71L220.35,156.98L220.37,156.66L220.38,156.65L220.47,156.57L221.01,156.94L221.13,156.86L221.14,156.84L221.26,156.59L221.86,156.97L221.89,156.76L221.9,156.79L222.09,156.89L222.56,156.56L222.65,156.73L222.65,156.81L223.37,156.49L223.45,156.76L223.45,156.84L223.88,156.94L224.02,156.6L224.2,156.87L224.21,156.87L224.35,157.01L224.77,156.5L224.96,156.6L224.97,156.65L225.42,156.43L225.66,156.85L225.72,156.65L225.73,156.65L225.99,156.46L226.36,156.9L226.48,156.8L226.49,156.75L226.53,156.85L226.78,156.46L227.25,156.71L227.25,156.73L227.43,156.61L227.88,156.9L228.01,156.64L228.01,156.62L228.23,156.87L228.64,156.39L228.76,156.69L228.77,156.64L229.14,156.87L229.22,156.38L229.56,156.73L229.56,156.76L229.79,156.87L230.2,156.47L230.32,156.72L230.33,156.73L230.41,156.96L230.99,156.48L231.08,156.73L231.08,156.77L231.23,156.5L231.72,156.93L231.82,156.84L231.83,156.79L232.07,156.66L232.24,157.08L232.58,156.83L232.59,156.85L232.71,156.79L233.32,157.13L233.42,156.92L233.42,156.88L233.63,156.83L234.05,157.21L234.17,156.89L234.18,156.89L234.76,156.79L234.85,157.22L234.94,157.02L234.94,156.97L235.05,156.77L235.6,157.22L235.7,157.05L235.7,157.02L236.19,157.27L236.48,156.73L236.49,156.97L236.49,156.99L236.79,156.68L237.08,157.11L237.24,156.86L237.24,156.84L238.05,157.13L238.09,156.88L238.09,156.86L238.14,156.72L238.5,157.13L238.84,156.91L238.85,156.92L239.7,156.83L239.71,157.07L239.71,157.11L239.73,157.13L240.46,156.68L240.47,156.8L240.48,156.84L240.62,157.12L240.85,156.62L241.22,156.83L241.23,156.79L241.38,156.71L241.8,157.05L242,156.93L242,156.9L242.08,156.7L242.76,157.14L242.79,157.03L242.8,156.99L242.98,156.81L243.55,157.25L243.56,157.16L243.56,157.12L244.03,156.84L244.3,157.27L244.31,157.09L244.32,157.06L244.71,157.32L244.93,156.94L245.06,157.09L245.07,157.11L245.25,157.29L245.78,156.94L245.82,157.13L245.82,157.15L245.95,156.92L246.13,157.34L246.57,157.1L246.58,157.13L246.8,156.88L246.97,157.27L247.33,157.25L247.34,157.27L247.42,157.36L247.89,156.96L248.08,157.25L248.09,157.27L248.88,156.95L249,157.28L249.01,157.3L249.4,156.99L249.68,157.34L249.76,157.09L249.77,157.11L249.8,157.4L250.15,156.99L250.51,157.1L250.52,157.07L251.21,157.39L251.34,157.16L251.34,157.12L251.55,157.42L251.96,156.93L252.09,157.16L252.09,157.12L252.29,156.96L252.4,157.33L252.84,157.12L252.84,157.05L252.92,157.41L253.17,157.03L253.59,157.12L253.6,157.1L253.63,157.42L253.74,157.05L254.35,157.27L254.36,157.27L254.62,157.09L255.09,157.34L255.11,157.2L255.11,157.17L255.28,157.43L255.72,156.99L255.86,157.21L255.86,157.23L255.93,157.26L256.62,157.02L256.66,157.16L256.66,157.22L256.9,157.44L257.1,157L257.41,157.22L257.41,157.29L257.5,157.41L257.79,156.94L258.17,157.2L258.18,157.24L258.21,157.4L258.55,157.03L258.93,157.15L258.94,157.14L259.07,157L259.38,157.39L259.69,157.17L259.69,157.11L259.83,156.92L260.16,157.39L260.44,157.24L260.45,157.29L260.52,157.37L261.13,156.98L261.21,157.1L261.21,157.12L261.41,157.32L261.94,157.01L262.01,157.2L262.01,157.25L262.3,156.97L262.54,157.37L262.75,157.3L262.76,157.28L262.86,157.31L263.27,156.92L263.5,157.37L263.51,157.35L264.21,156.85L264.26,157.11L264.27,157.15L265.05,157L265.09,157.19L265.09,157.24L265.29,157.29L265.61,156.93L265.87,157.11L265.87,157.14L266.77,157.21L266.77,157.05L266.77,157.02L266.85,156.97L267.25,157.42L267.52,157.17L267.53,157.14L267.66,157.03L268.34,157.44L268.35,157.34L268.35,157.3L268.68,157.57L268.82,157.09L269.09,157.34L269.1,157.33L270.13,157.29L270.15,157.46L270.15,157.49L270.24,157.57L271.02,157.21L271.05,157.44L271.05,157.48L271.32,157.67L271.44,157.26L271.78,157.55L271.79,157.57L271.91,157.68L272.3,157.26L272.54,157.54L272.54,157.6L273.21,157.21L273.29,157.49L273.3,157.47L273.38,157.67L274.05,157.24L274.05,157.4L274.06,157.44L274.23,157.33L274.66,157.55L274.8,157.31L274.81,157.29L274.86,157.23L274.97,163.71L275.56,157.59L275.57,157.58L275.84,157.79L276.11,157.33L276.31,157.5L276.31,157.47L276.5,157.26L276.62,157.71L277.06,157.47L277.06,157.41L277.78,157.66L277.83,157.33L277.83,157.26L278.15,157.69L278.52,157.19L278.58,157.46L278.59,157.5L278.72,157.19L279.33,157.63L279.34,157.45L279.35,157.44L279.5,157.25L279.9,157.75L280.1,157.66L280.11,157.7L280.35,157.73L280.71,157.32L280.86,157.35L280.87,157.35L280.99,157.2L281.5,157.7L281.62,157.49L281.63,157.47L281.78,157.67L281.88,157.18L282.41,157.48L282.41,157.49L282.58,157.32L283.2,157.72L283.24,157.51L283.24,157.47L283.66,157.26L283.78,157.72L283.99,157.48L283.99,157.42L284.16,157.62L284.71,157.32L284.76,157.53L284.76,157.57L284.85,157.69L285.16,157.22L285.51,157.44L285.52,157.46L285.77,157.68L286.32,157.37L286.33,157.47L286.34,157.53L286.39,157.16L286.93,157.69L287.09,157.51L287.1,157.5L287.52,157.82L287.63,157.37L287.87,157.66L287.87,157.61L287.95,157.56L288.49,157.9L288.63,157.6L288.64,157.54L288.8,157.49L289.16,157.91L289.39,157.68L289.4,157.7L289.71,157.97L289.93,157.53L290.13,157.85L290.13,157.89L290.47,157.54L290.88,157.92L290.88,157.76L290.89,157.73L291.08,158.01L291.5,157.54L291.64,157.75L291.64,157.67L291.89,157.62L292.32,157.94L292.39,157.76L292.39,157.7L292.47,157.56L293.01,157.92L293.14,157.72L293.15,157.71L293.31,157.55L293.77,157.91L293.88,157.59L293.88,157.56L294.43,158L294.63,157.71L294.64,157.73L294.94,157.54L295.4,158.04L295.45,157.87L295.45,157.84L295.53,157.88L296.23,157.47L296.25,157.75L296.25,157.78L296.58,157.97L296.7,157.55L296.99,157.83L297,157.85L297.14,157.98L297.46,157.56L297.75,157.83L297.75,157.85L298.67,157.68L298.69,157.91L298.69,157.92L298.76,158.03L299.31,157.64L299.46,157.87L299.46,157.91L300.26,157.67L300.29,157.89L300.29,157.92L300.31,158.04L300.56,157.63L301.04,157.84L301.05,157.82L301.31,157.59L301.53,158.08L301.79,157.86L301.8,157.85L301.88,157.92L302.56,157.7L302.62,157.88L302.62,157.92L302.89,158.02L303.34,157.61L303.39,157.85L303.39,157.91L303.73,157.97L303.8,157.64L304.14,157.93L304.15,157.91L304.44,158.09L304.67,157.66L304.9,157.96L304.9,158.04L305.02,157.76L305.59,158.15L305.65,157.88L305.66,157.88L305.9,157.76L306.4,158.07L306.42,157.98L306.42,157.86L306.44,158.15L306.62,157.65L307.17,158.02L307.18,158.02L307.22,158.14L307.66,157.55L307.93,158L307.94,157.98L308.03,158.15L308.44,157.67L308.73,157.91L308.73,157.94L308.77,158.1L309.21,157.65L309.48,157.82L309.49,157.77L310.11,157.72L310.17,158.09L310.25,157.91L310.25,157.88L310.36,157.81L310.96,158.13L311.04,157.82L311.04,157.81L311.07,157.68L311.68,158.14L311.79,157.81L311.8,157.82L311.92,157.7L312.37,158.08L312.54,157.78L312.54,157.75L312.68,157.72L313.31,158.07L313.32,157.97L313.32,157.94L313.42,158.01L314.08,157.74L314.09,157.9L314.09,158L314.21,157.63L314.42,158.09L314.84,157.85L314.85,157.86L314.94,157.71L315.63,158.04L315.66,157.89L315.66,157.82L316.23,157.67L316.32,158.02L316.4,157.82L316.41,157.82L316.76,157.59L316.89,158.04L317.14,157.97L317.15,157.97L317.16,158.08L317.73,157.57L317.9,157.76L317.91,157.7L317.98,157.67L318.67,158.06L318.67,157.94L318.68,157.93L319.13,158.09L319.19,157.68L319.43,157.9L319.43,158.03L319.44,158.14L319.86,157.75L320.18,157.97L320.19,157.97L320.3,157.82L320.96,158.16L321,157.99L321,157.91L321.29,157.83L321.64,158.16L321.77,157.96L321.77,157.94L321.89,158.04L322.63,157.86L322.64,158.01L322.64,158.02L322.82,157.82L323.37,158.2L323.45,157.92L323.45,157.91L323.8,157.82L324.2,158.2L324.23,158.02L324.23,158L324.33,158.11L324.77,157.73L324.98,158.15L324.98,158.16L325.12,158.23L325.24,157.79L325.74,158.06L325.75,158.12L325.95,157.82L326.47,158.23L326.5,158.09L326.51,158.1L326.64,158.17L326.8,157.75L327.26,158.17L327.26,158.22L327.43,158.24L327.74,157.81L328.02,157.96L328.02,158.02L328.14,158.17L328.7,157.79L328.79,158L328.79,158.08L329.13,158.19L329.51,157.84L329.55,158.03L329.55,158.09L329.69,158.24L330.33,157.86L330.38,158.04L330.38,158.12L330.94,158.35L331.03,157.83L331.15,158.1L331.15,158.15L331.21,157.94L331.59,158.31L331.89,158.21L331.9,158.25L332.32,158.29L332.4,157.9L332.66,158.05L332.66,158.11L332.78,158.24L333.48,157.92L333.49,158.05L333.49,158.08L333.77,158.32L334.24,157.85L334.26,158.13L334.26,158.15L334.35,158.23L334.9,157.83L335.01,158.17L335.02,158.2L335.05,158.24L335.68,157.82L335.77,157.98L335.78,158.03L335.97,158.16L336.33,157.78L336.53,158.16L336.53,158.19L336.82,158.3L337.24,157.83L337.31,158.2L337.31,158.21L338.04,157.96L338.17,158.16L338.17,158.27L338.65,158.34L338.91,157.9L338.93,158.03L338.93,158.03L338.97,157.93L339.2,158.35L339.74,157.98L339.74,157.99L340.59,158.23L340.66,158.05L340.66,158.02L341.51,158.25L341.55,158.04L341.55,158.01L341.96,157.91L342.17,158.32L342.31,158.07L342.31,157.99L342.94,158.28L343.06,158.01L343.07,157.96L343.35,157.85L343.68,158.24L343.9,157.98L343.9,157.94L344.24,158.22L344.59,157.83L344.66,157.94L344.66,157.97L344.71,157.82L345.41,158.23L345.43,157.95L345.43,157.99L345.45,158.26L345.68,157.75L346.19,157.9L346.19,157.95L346.5,158.2L346.91,157.87L346.95,158.05L346.95,158.04L347.13,158.24L347.84,157.82L347.9,158.06L347.9,158.02L348.54,157.79L348.77,158.1L348.77,158.03L352.78,157.98L352.78,157.99L353.9,158.42L354,158.24L354,158.16L355.36,158.37L355.37,158.24L355.37,158.17L357,158.08L357.07,158.33L357.07,158.41L358.33,158.04L358.35,158.07L358.35,158.02L359.35,158.53L359.65,158.27L359.65,158.23L362.05,158.38L362.06,158.24L362.06,158.18L363.34,158.48L363.48,158.31L363.48,158.28L366.03,158.33L366.04,158.16L366.04,158.14L367.3,158.48L367.5,158.27L367.51,158.25L369.61,158.41L369.63,158.25L369.63,158.16L371.66,158.58L371.72,158.31L371.72,158.24L373.57,158.59L373.67,158.34L373.67,158.31L381.34,158.34L381.36,158.59L381.36,158.63L382.84,158.27L383.23,158.55L383.23,158.63L383.66,158.38L383.7,160.79L383.7,160.87L383.73,164.55L385.34,158.55L385.55,158.84L385.56,158.84L386.7,156.43L386.91,158.73L386.92,158.77L390.27,158.68L390.28,158.86L390.28,158.89L394.21,158.69L394.28,159.04L394.28,159.07L396.32,158.67L396.47,158.91L396.47,158.96L399.89,158.75L399.92,158.91L399.92,158.96L404.88,158.54L404.88,158.77L404.88,158.85L411.16,158.78L411.16,158.93L411.16,158.96L420.17,158.8L420.19,159.06L420.19,159.08L425.39,158.88L425.42,159.14L425.42,159.16L430.83,158.78L430.87,159.01L430.87,159.03L480.32,159.09L480.32,159.41L480.32,159.44L480.39,164.89L482.28,159.04L484.31,159.3L484.32,159.32L490.01,159.02L490.02,159.07" style="vector-effect: non-scaling-stroke; fill: none; stroke: rgb(204, 102, 119); stroke-opacity: 1; stroke-width: 2px; opacity: 1;"/></g><g class="points"/><g class="text"/></g><g class="trace scatter trace01d6a6" style="stroke-miterlimit: 2; opacity: 1;"><g class="fills"/><g class="errorbars"/><g class="lines"><path class="js-line" d="M0,178.5L0.02,175.59L0.75,176.85L0.76,176.86L2.96,176.19L2.97,176.21L2.98,176.23L4.04,175.98L4.05,176L4.06,176L7.08,175.51L7.09,175.5L9.39,175.06L9.4,175.05L16.89,173.32L16.89,173.32L16.9,173.35L23.84,172.27L23.85,172.77L23.86,173.18L23.92,177.99L24.52,171.98L24.54,172L24.55,172.01L37.74,170.43L37.75,170.39L41.94,170.23L41.95,170.2L46.06,169.78L46.07,169.75L47.97,169.59L47.98,169.61L47.99,169.63L53.11,169.3L53.11,169.33L56.99,168.89L57,168.84L58.67,168.8L58.68,168.77L61.4,168.55L61.41,168.55L62.84,168.47L62.85,168.44L62.86,168.43L100.18,166.61L100.19,166.65L102.5,166.4L102.5,166.42L102.51,166.45L104.11,166.33L104.11,166.35L111.35,166.06L111.35,166.08L111.36,166.11L112.95,165.92L112.98,165.98L112.99,165.99L135.57,165.1L135.57,165.13L135.58,165.17L138.54,165.12L138.55,165.16L143.69,164.83L143.69,164.84L143.7,164.87L157.52,164.5L157.52,164.51L157.53,164.66L157.6,171.06L158.09,164.53L158.17,164.57L158.18,164.56L165.94,164.16L165.95,164.18L167.17,164.15L167.18,164.17L167.18,164.2L169.02,164.08L169.03,164.11L173.42,163.95L173.43,163.97L178.7,163.92L178.71,163.91L180.95,163.91L180.96,163.88L185.57,163.69L185.58,163.69L194.54,163.66L194.55,163.64L196.38,163.62L196.39,163.59L196.4,163.56L202.07,163.64L202.07,163.62L202.08,163.59L204.26,163.44L204.27,163.39L206.92,163.36L206.93,163.33L208.65,163.3L208.66,163.26L208.67,163.24L211.31,163.24L211.31,163.24L211.32,163.22L216.18,163.29L216.18,163.31L216.19,163.33L218.34,163.34L218.35,163.36L220.26,163.28L220.27,163.31L224.93,163.11L224.93,163.13L225.87,162.98L225.9,163.02L225.91,163.03L229.62,162.97L229.63,163.03L229.64,163.05L235.72,162.31L235.73,162.14L236.55,162.94L236.58,162.9L236.59,162.88L239.64,162.77L239.65,162.76L240.89,162.77L240.9,162.75L240.91,162.72L250.54,162.72L250.55,162.7L252.72,162.81L252.72,162.79L252.73,162.74L257.15,162.61L257.16,162.62L259.48,162.6L259.49,162.62L265.25,162.72L265.25,162.68L267.75,162.63L267.76,162.65L317.89,161.97L317.89,161.92L317.9,161.9L319.57,162.31L319.59,162.25L319.6,162.21L320.37,163.37L320.38,163.93L320.43,168.77L321.07,162.21L321.08,162.17L323.09,162.21L323.1,162.18L325.47,162.24L325.48,162.2L327.06,162.26L327.08,162.18L327.09,162.18L331.67,162.09L331.68,162.07L333.2,162.04L333.21,162L333.22,161.98L334.97,161.88L334.97,161.84L336.37,162.11L336.37,162.06L336.38,162.02L339.67,162.13L339.68,162.08L341.41,162.06L341.41,162.03L341.42,162.01L344.7,162L344.7,162L344.71,161.99L370.58,161.91L370.59,161.89L397.81,161.62L397.82,161.58L408.4,161.75L408.4,161.7L488.76,161.71L488.78,163.47L488.79,164.43L488.82,168.18L492.98,161.13L493.04,161.16L493.05,161.17L561.61,161" style="vector-effect: non-scaling-stroke; fill: none; stroke: rgb(221, 204, 119); stroke-opacity: 1; stroke-width: 2px; opacity: 1;"/></g><g class="points"/><g class="text"/></g><g class="trace scatter trace736c4d" style="stroke-miterlimit: 2; opacity: 1;"><g class="fills"/><g class="errorbars"/><g class="lines"><path class="js-line" d="M0,296.78L0.72,155.28L0.75,155.31L0.76,155.3L2.3,154.91L2.34,155.02L2.34,155.03L3.6,154.74L3.6,154.8L3.6,154.81L4.81,154.31L4.83,154.45L4.83,154.47L8.34,153.84L8.34,153.81L8.35,153.79L9.24,153.88L9.26,153.76L9.26,153.74L15.27,153.12L15.27,153.11L15.27,153.09L16.24,153.15L16.24,153.1L16.24,153.09L17.04,153.08L17.08,153L17.08,152.99L18.07,152.98L18.08,153.04L18.09,153.06L18.42,152.76L18.87,152.98L18.87,152.99L19.63,152.8L19.72,152.9L19.73,152.89L21.08,152.53L21.1,152.83L21.1,152.86L21.18,160.33L21.65,152.64L21.85,152.8L21.86,152.8L23.01,152.5L23.04,152.65L23.04,152.66L23.18,152.74L23.61,152.51L23.8,152.63L23.8,152.64L24.96,152.51L24.99,152.59L24.99,152.6L26.56,152.5L26.57,152.56L26.57,152.57L27.43,152.34L27.45,152.39L27.45,152.41L28.59,152.4L28.63,152.26L28.63,152.25L29.32,152.46L29.41,152.35L29.42,152.34L46.56,151.75L46.56,151.8L46.56,151.81L47.31,151.67L47.33,151.81L47.34,151.82L48.6,151.71L48.64,151.83L48.64,151.85L48.7,151.87L49.25,151.64L49.44,151.74L49.44,151.75L50.67,151.62L50.7,151.7L50.7,151.71L52.09,151.47L52.14,151.62L52.14,151.64L53.07,151.39L53.09,151.52L53.09,151.54L53.96,151.41L54.05,151.62L54.06,151.63L64.26,151.37L64.26,151.44L64.26,151.46L65.13,151.2L65.15,151.34L65.16,151.34L66.37,151.22L66.37,151.27L66.37,151.3L67.15,151.07L67.22,151.18L67.22,151.2L68.86,151.32L68.88,151.15L68.88,151.13L69.57,151.38L69.64,151.16L69.64,151.15L70.47,151.36L70.48,151.34L70.48,151.32L72.33,151.28L72.33,151.32L72.34,151.34L72.4,151.37L73.09,151.15L73.1,151.31L73.11,151.32L75.56,151.18L75.56,151.24L75.56,151.25L76.43,151.08L76.5,151.21L76.5,151.22L80.21,151.07L80.21,151.12L80.21,151.13L81.62,150.99L81.64,151.13L81.65,151.15L81.84,151.23L82.39,150.98L82.41,151.12L82.41,151.13L85.22,151.07L85.22,151.14L85.22,151.15L85.39,151.18L85.87,151.01L85.97,151.19L85.97,151.2L86.84,151.01L86.91,151.14L86.91,151.16L88.01,151.02L88.02,151.09L88.02,151.11L88.1,154.13L88.1,154.22L88.15,158.41L88.51,151.07L88.53,151.16L88.53,151.14L89.57,151.07L89.6,151.21L89.6,151.22L90.14,150.97L90.4,151.1L90.41,151.1L91.66,151.17L91.68,151.03L91.68,151.02L92.63,151.16L92.64,151.11L92.64,151.09L93.73,151.22L93.76,151.06L93.76,151.05L95.03,151.24L95.03,151.18L95.03,151.17L96.92,150.97L96.93,151.14L96.93,151.16L104.66,150.95L104.66,150.95L104.66,150.94L104.72,150.92L105.42,151.07L105.43,150.99L105.44,151L109.14,150.88L109.14,150.8L109.14,150.78L110.06,150.95L110.07,150.84L110.07,150.81L110.83,151.01L110.92,150.87L110.92,150.84L111.93,150.98L111.93,150.89L111.93,150.88L119.64,150.82L119.64,150.79L119.64,150.77L119.72,150.74L120.35,150.86L120.4,150.75L120.41,150.74L123.01,150.7L123.03,150.8L123.03,150.82L123.85,150.66L123.88,150.74L123.88,150.77L124.81,150.73L124.84,150.81L124.85,150.82L130.3,150.68L130.3,150.72L130.31,150.74L131.07,150.64L131.11,150.75L131.12,150.75L131.86,150.56L131.95,150.71L131.95,150.72L132.77,150.52L132.86,150.66L132.86,150.67L133.62,150.5L133.64,150.67L133.64,150.68L134.46,150.58L134.48,150.68L134.48,150.69L136.28,150.77L136.3,150.66L136.3,150.65L137.33,150.8L137.33,150.72L137.33,150.71L144.97,150.65L144.97,150.61L144.97,150.59L145.65,150.84L145.82,150.68L145.83,150.68L147.09,150.69L147.09,150.62L147.1,150.62L148.05,150.75L148.07,150.63L148.07,150.62L148.81,150.76L148.84,150.65L148.84,150.63L149.64,150.85L149.66,150.4L149.66,150.36L149.69,149.35L149.92,150.78L150.41,150.72L150.42,150.73L159.15,150.75L159.15,150.77L159.15,150.78L159.8,150.56L159.93,150.7L159.93,150.72L160.68,150.6L160.71,150.7L160.71,150.71L161.59,150.59L161.61,150.72L161.61,150.74L162.51,150.66L162.52,150.74L162.52,150.75L164.49,150.55L164.51,150.64L164.51,150.66L165.27,150.48L165.28,150.58L165.29,150.57L172.52,151.01L172.52,151.1L172.52,151.15L172.59,157.99L173.01,150.51L173.27,150.6L173.28,150.6L176.43,150.56L176.43,150.5L176.43,150.49L177.23,150.65L177.28,150.52L177.28,150.5L177.41,150.44L177.76,150.7L178.03,150.49L178.04,150.49L179.33,150.62L179.34,150.56L179.34,150.54L180.67,150.55L180.69,150.43L180.69,150.41L181.42,150.6L181.46,150.44L181.46,150.43L182.21,150.55L182.24,150.46L182.24,150.43L183.05,150.55L183.08,150.38L183.09,150.38L183.96,150.53L183.98,150.47L183.98,150.44L184.93,150.52L184.96,150.45L184.96,150.43L185.89,150.46L185.89,150.39L185.9,150.38L186.96,150.61L186.96,150.56L186.96,150.54L188.22,150.58L188.23,150.62L188.23,150.64L189.16,150.52L189.18,150.65L189.19,150.66L189.39,150.72L189.87,150.49L189.96,150.54L189.96,150.56L190.84,150.54L190.85,150.62L190.85,150.63L192.01,150.53L192.02,150.6L192.03,150.62L192.98,150.52L192.99,150.61L192.99,150.63L194.07,150.47L194.08,150.58L194.08,150.6L195.23,150.46L195.26,150.59L195.26,150.6L196.13,150.42L196.16,150.57L196.16,150.59L197.06,150.44L197.06,150.5L197.06,150.52L198.22,150.47L198.24,150.56L198.24,150.57L201.27,150.58L201.27,150.66L201.27,150.67L202.08,150.48L202.08,150.54L202.08,150.55L203.73,150.56L203.73,150.5L203.73,150.48L204.84,150.65L204.85,150.56L204.85,150.53L205.86,150.58L205.89,150.47L205.89,150.46L207.62,150.58L207.63,150.44L207.63,150.43L208.41,150.53L208.41,150.47L208.42,150.46L209.21,150.53L209.24,150.43L209.24,150.42L209.49,150.36L209.99,150.53L210.01,150.46L210.01,150.45L211.69,150.41L211.69,150.36L211.69,150.35L214.08,150.34L214.09,150.28L214.09,150.25L215.65,150.47L215.65,150.4L215.65,150.38L216.45,150.51L216.5,150.36L216.5,150.34L217.28,150.61L217.38,150.45L217.38,150.43L218.12,150.61L218.19,150.56L218.19,150.55L219.42,150.56L219.44,150.45L219.44,150.44L220.45,150.58L220.46,150.5L220.46,150.48L222.18,150.43L222.2,150.54L222.2,150.55L222.87,150.41L222.97,150.51L222.97,150.53L223.91,150.39L223.94,150.53L223.94,150.54L224.38,150.33L224.71,150.51L224.71,150.52L225.65,150.39L225.68,150.5L225.68,150.52L226.43,150.38L226.45,150.47L226.46,150.49L229.79,150.45L229.79,150.44L229.79,150.41L231.44,150.49L231.47,150.36L231.47,150.34L232.34,150.56L232.37,150.39L232.37,150.37L233.11,150.53L233.15,150.4L233.15,150.38L234.87,150.47L234.88,150.38L234.88,150.34L235.77,150.47L235.79,150.36L235.8,150.34L236.48,150.52L236.61,150.41L236.62,150.4L237.77,150.47L237.8,150.36L237.8,150.34L237.86,150.32L238.58,150.47L238.58,150.38L238.59,150.39L240.23,150.46L240.25,150.33L240.25,150.31L241,150.45L241.14,150.28L241.14,150.26L242.17,150.39L242.17,150.33L242.17,150.32L244.13,150.43L244.13,150.38L244.13,150.37L245.08,150.47L245.11,150.39L245.11,150.37L246.49,150.48L246.5,150.37L246.5,150.36L248.24,150.42L248.26,150.32L248.26,150.29L252.11,150.42L252.12,150.5L252.12,150.51L253.71,150.5L253.72,150.59L253.72,150.61L254.66,150.39L254.69,150.52L254.69,150.54L255.5,150.33L255.51,150.37L255.51,150.39L256.46,150.55L256.47,150.46L256.47,150.43L257.34,150.56L257.37,150.45L257.38,150.43L259.12,150.48L259.12,150.41L259.12,150.4L261.45,150.4L261.46,150.33L261.46,150.31L262.31,150.48L262.35,150.39L262.35,150.36L264.08,150.45L264.09,150.34L264.1,150.33L264.9,150.39L264.92,150.27L264.93,150.28L265.68,150.43L265.7,150.35L265.7,150.32L271.38,151.19L271.38,151.23L271.45,157.8L272.04,150.31L272.13,150.5L272.14,150.49L272.89,150.23L272.91,150.33L272.91,150.35L273.8,150.25L273.81,150.34L273.81,150.35L275.51,150.35L275.51,150.3L275.51,150.27L276.47,150.33L276.5,150.22L276.5,150.21L277.25,150.43L277.28,150.34L277.29,150.33L278.66,150.51L278.69,150.35L278.7,150.35L279.63,150.53L279.63,150.44L279.63,150.43L280.83,150.55L280.84,150.46L280.84,150.44L282.02,150.52L282.04,150.43L282.04,150.41L292.6,150.32L292.6,150.4L292.6,150.41L293.44,150.4L293.52,150.54L293.52,150.55L295.31,150.47L295.31,150.54L295.32,150.56L296.72,150.41L296.75,150.54L296.75,150.56L296.81,150.59L297.43,150.36L297.54,150.48L297.55,150.48L298.8,150.38L298.81,150.49L298.81,150.5L299.95,150.41L299.98,150.48L299.98,150.5L300.86,150.45L300.88,150.58L300.88,150.6L302.18,150.59L302.18,150.52L302.18,150.51L303.73,150.65L303.75,150.48L303.75,150.46L305.09,150.54L305.11,150.48L305.11,150.46L306.84,150.54L306.84,150.46L306.84,150.44L307.86,150.61L307.9,150.45L307.91,150.43L308.81,150.54L308.81,150.48L308.81,150.47L310.21,150.55L310.21,150.48L310.21,150.47L311.33,150.41L311.34,150.49L311.34,150.5L312.34,150.34L312.36,150.45L312.36,150.46L313.39,150.35L313.41,150.46L313.41,150.48L314.41,150.33L314.42,150.42L314.43,150.44L320.41,150.57L320.41,150.53L320.42,150.51L321.18,150.59L321.2,150.53L321.2,150.52L322.21,150.55L322.21,150.49L322.21,150.48L323.48,150.66L323.52,150.55L323.52,150.53L324.53,150.69L324.57,150.57L324.57,150.55L325.37,150.68L325.42,150.55L325.42,150.52L326.21,150.7L326.32,150.56L326.32,150.55L327.54,150.51L327.57,150.64L327.57,150.65L328.45,150.48L328.47,150.58L328.48,150.61L330.2,150.46L330.21,150.56L330.21,150.57L332.22,150.51L332.22,150.58L332.22,150.6L334.07,150.48L334.09,150.56L334.09,150.57L334.96,150.43L335.01,150.55L335.01,150.56L335.87,150.44L335.9,150.53L335.91,150.54L336.97,150.33L336.99,150.43L336.99,150.44L340.43,150.57L340.43,150.51L340.43,150.48L341.57,150.57L341.6,150.48L341.6,150.46L344.36,150.5L344.37,150.41L344.37,150.38L345.6,150.51L345.62,150.42L345.62,150.39L347.54,150.58L347.55,150.52L347.55,150.5L351.98,150.44L351.98,150.34L351.99,150.32L353.74,150.43L353.76,150.33L353.76,150.3L356.77,150.62L356.79,150.49L356.79,150.47L359.03,150.57L359.06,150.43L359.06,150.41L362.78,150.48L362.78,150.41L362.79,150.39L363.47,151.88L363.47,151.85L363.47,151.9L363.53,157.47L364.68,150.29L364.7,150.39L364.71,150.42L368.21,150.43L368.22,150.32L368.22,150.3L375.54,150.32L375.54,150.26L375.54,150.25L378.61,150.32L378.62,150.22L378.63,150.22L397.61,150.45L397.61,150.4L397.61,150.38L410.6,150.5L410.6,150.46L410.6,150.44L464.95,153.92L464.95,154.01L464.99,157.3L467.26,150.23L468.58,150.27L468.59,150.28L485.75,150.52L485.75,150.52" style="vector-effect: non-scaling-stroke; fill: none; stroke: rgb(68, 170, 153); stroke-opacity: 1; stroke-width: 2px; opacity: 1;"/></g><g class="points"/><g class="text"/></g></g></g><g class="overplot"/><path class="xlines-above crisp" d="M82,417H420" style="fill: none; stroke-width: 2px; stroke: rgb(0, 0, 0); stroke-opacity: 1;"/><path class="ylines-above crisp" d="M83,100V416" style="fill: none; stroke-width: 2px; stroke: rgb(0, 0, 0); stroke-opacity: 1;"/><g class="overlines-above"/><g class="xaxislayer-above"><path class="xtick ticks crisp" d="M0,418v5" transform="translate(84,0)" style="stroke: rgb(68, 68, 68); stroke-opacity: 1; stroke-width: 1px;"/><path class="xtick ticks crisp" d="M0,418v5" transform="translate(140,0)" style="stroke: rgb(68, 68, 68); stroke-opacity: 1; stroke-width: 1px;"/><path class="xtick ticks crisp" d="M0,418v5" transform="translate(196,0)" style="stroke: rgb(68, 68, 68); stroke-opacity: 1; stroke-width: 1px;"/><path class="xtick ticks crisp" d="M0,418v5" transform="translate(252,0)" style="stroke: rgb(68, 68, 68); stroke-opacity: 1; stroke-width: 1px;"/><path class="xtick ticks crisp" d="M0,418v5" transform="translate(308,0)" style="stroke: rgb(68, 68, 68); stroke-opacity: 1; stroke-width: 1px;"/><path class="xtick ticks crisp" d="M0,418v5" transform="translate(364,0)" style="stroke: rgb(68, 68, 68); stroke-opacity: 1; stroke-width: 1px;"/><path class="xtick ticks crisp" d="M0,418v5" transform="translate(420,0)" style="stroke: rgb(68, 68, 68); stroke-opacity: 1; stroke-width: 1px;"/><g class="xtick"><text text-anchor="middle" x="0" y="449.4" transform="translate(84,0)" style="font-family: 'Times New Roman', monospace; font-size: 22px; fill: rgb(105, 105, 105); fill-opacity: 1; white-space: pre; opacity: 1;">0</text></g><g class="xtick"><text text-anchor="middle" x="0" y="449.4" style="font-family: 'Times New Roman', monospace; font-size: 22px; fill: rgb(105, 105, 105); fill-opacity: 1; white-space: pre; opacity: 1;" transform="translate(140,0)">2</text></g><g class="xtick"><text text-anchor="middle" x="0" y="449.4" style="font-family: 'Times New Roman', monospace; font-size: 22px; fill: rgb(105, 105, 105); fill-opacity: 1; white-space: pre; opacity: 1;" transform="translate(196,0)">4</text></g><g class="xtick"><text text-anchor="middle" x="0" y="449.4" style="font-family: 'Times New Roman', monospace; font-size: 22px; fill: rgb(105, 105, 105); fill-opacity: 1; white-space: pre; opacity: 1;" transform="translate(252,0)">6</text></g><g class="xtick"><text text-anchor="middle" x="0" y="449.4" style="font-family: 'Times New Roman', monospace; font-size: 22px; fill: rgb(105, 105, 105); fill-opacity: 1; white-space: pre; opacity: 1;" transform="translate(308,0)">8</text></g><g class="xtick"><text text-anchor="middle" x="0" y="449.4" style="font-family: 'Times New Roman', monospace; font-size: 22px; fill: rgb(105, 105, 105); fill-opacity: 1; white-space: pre; opacity: 1;" transform="translate(364,0)">10</text></g><g class="xtick"><text text-anchor="middle" x="0" y="449.4" style="font-family: 'Times New Roman', monospace; font-size: 22px; fill: rgb(105, 105, 105); fill-opacity: 1; white-space: pre; opacity: 1;" transform="translate(420,0)">12</text></g></g><g class="yaxislayer-above"><path class="ytick ticks crisp" d="M82,0h-5" transform="translate(0,387.27)" style="stroke: rgb(68, 68, 68); stroke-opacity: 1; stroke-width: 1px;"/><path class="ytick ticks crisp" d="M82,0h-5" transform="translate(0,329.82)" style="stroke: rgb(68, 68, 68); stroke-opacity: 1; stroke-width: 1px;"/><path class="ytick ticks crisp" d="M82,0h-5" transform="translate(0,272.36)" style="stroke: rgb(68, 68, 68); stroke-opacity: 1; stroke-width: 1px;"/><path class="ytick ticks crisp" d="M82,0h-5" transform="translate(0,214.91)" style="stroke: rgb(68, 68, 68); stroke-opacity: 1; stroke-width: 1px;"/><path class="ytick ticks crisp" d="M82,0h-5" transform="translate(0,157.45)" style="stroke: rgb(68, 68, 68); stroke-opacity: 1; stroke-width: 1px;"/><path class="ytick ticks crisp" d="M82,0h-5" transform="translate(0,100)" style="stroke: rgb(68, 68, 68); stroke-opacity: 1; stroke-width: 1px;"/><g class="ytick"><text text-anchor="end" x="72.6" y="7.699999999999999" transform="translate(0,387.27)" style="font-family: 'Times New Roman', monospace; font-size: 22px; fill: rgb(105, 105, 105); fill-opacity: 1; white-space: pre; opacity: 1;">1.6</text></g><g class="ytick"><text text-anchor="end" x="72.6" y="7.699999999999999" style="font-family: 'Times New Roman', monospace; font-size: 22px; fill: rgb(105, 105, 105); fill-opacity: 1; white-space: pre; opacity: 1;" transform="translate(0,329.82)">1.8</text></g><g class="ytick"><text text-anchor="end" x="72.6" y="7.699999999999999" style="font-family: 'Times New Roman', monospace; font-size: 22px; fill: rgb(105, 105, 105); fill-opacity: 1; white-space: pre; opacity: 1;" transform="translate(0,272.36)">2</text></g><g class="ytick"><text text-anchor="end" x="72.6" y="7.699999999999999" style="font-family: 'Times New Roman', monospace; font-size: 22px; fill: rgb(105, 105, 105); fill-opacity: 1; white-space: pre; opacity: 1;" transform="translate(0,214.91)">2.2</text></g><g class="ytick"><text text-anchor="end" x="72.6" y="7.699999999999999" style="font-family: 'Times New Roman', monospace; font-size: 22px; fill: rgb(105, 105, 105); fill-opacity: 1; white-space: pre; opacity: 1;" transform="translate(0,157.45)">2.4</text></g><g class="ytick"><text text-anchor="end" x="72.6" y="7.699999999999999" style="font-family: 'Times New Roman', monospace; font-size: 22px; fill: rgb(105, 105, 105); fill-opacity: 1; white-space: pre; opacity: 1;" transform="translate(0,100)">2.6</text></g></g><g class="overaxes-above"/></g></g><g class="polarlayer"/><g class="smithlayer"/><g class="ternarylayer"/><g class="geolayer"/><g class="funnelarealayer"/><g class="pielayer"/><g class="iciclelayer"/><g class="treemaplayer"/><g class="sunburstlayer"/><g class="glimages"/><defs id="topdefs-0ee0bf"><g class="clips"/><clipPath id="legend0ee0bf"><rect width="185" height="137" x="0" y="0"/></clipPath></defs><g class="layer-above"><g class="imagelayer"/><g class="shapelayer"/></g><g class="infolayer"><g class="legend" pointer-events="all" transform="translate(84,103.16)"><rect class="bg" shape-rendering="crispEdges" width="185" height="137" x="0" y="0" style="stroke: rgb(68, 68, 68); stroke-opacity: 1; fill: rgb(0, 0, 0); fill-opacity: 0; stroke-width: 0px;"/><g class="scrollbox" transform="" clip-path="url(#legend0ee0bf)"><g class="groups"><g class="traces" transform="translate(0,20.8)" style="opacity: 1;"><text class="legendtext" text-anchor="start" x="40" y="8.58" style="font-family: 'Times New Roman', monospace; font-size: 22px; fill: rgb(105, 105, 105); fill-opacity: 1; white-space: pre;">IrO<tspan style="font-size:70%" dy="0.3em">x</tspan><tspan dy="-0.21em"></tspan></text><g class="layers" style="opacity: 1;"><g class="legendfill"/><g class="legendlines"><path class="js-line" d="M5,0h30" style="fill: none; stroke: rgb(136, 204, 238); stroke-opacity: 1; stroke-width: 2px;"/></g><g class="legendsymbols"><g class="legendpoints"/></g></g><rect class="legendtoggle" x="0" y="-15.8" width="179.765625" height="31.6" style="fill: rgb(0, 0, 0); fill-opacity: 0;"/></g><g class="traces" transform="translate(0,52.400000000000006)" style="opacity: 1;"><text class="legendtext" text-anchor="start" x="40" y="8.58" style="font-family: 'Times New Roman', monospace; font-size: 22px; fill: rgb(105, 105, 105); fill-opacity: 1; white-space: pre;">NiCoFeO<tspan style="font-size:70%" dy="0.3em">x</tspan><tspan dy="-0.21em"></tspan></text><g class="layers" style="opacity: 1;"><g class="legendfill"/><g class="legendlines"><path class="js-line" d="M5,0h30" style="fill: none; stroke: rgb(204, 102, 119); stroke-opacity: 1; stroke-width: 2px;"/></g><g class="legendsymbols"><g class="legendpoints"/></g></g><rect class="legendtoggle" x="0" y="-15.8" width="179.765625" height="31.6" style="fill: rgb(0, 0, 0); fill-opacity: 0;"/></g><g class="traces" transform="translate(0,84)" style="opacity: 1;"><text class="legendtext" text-anchor="start" x="40" y="8.58" style="font-family: 'Times New Roman', monospace; font-size: 22px; fill: rgb(105, 105, 105); fill-opacity: 1; white-space: pre;">Co<tspan style="font-size:70%" dy="0.3em">57</tspan><tspan dy="-0.21em"></tspan>Ni<tspan style="font-size:70%" dy="0.3em">14</tspan><tspan dy="-0.21em"></tspan>Fe<tspan style="font-size:70%" dy="0.3em">29</tspan><tspan dy="-0.21em"></tspan>N<tspan style="font-size:70%" dy="0.3em">x</tspan><tspan dy="-0.21em"></tspan></text><g class="layers" style="opacity: 1;"><g class="legendfill"/><g class="legendlines"><path class="js-line" d="M5,0h30" style="fill: none; stroke: rgb(221, 204, 119); stroke-opacity: 1; stroke-width: 2px;"/></g><g class="legendsymbols"><g class="legendpoints"/></g></g><rect class="legendtoggle" x="0" y="-15.8" width="179.765625" height="31.6" style="fill: rgb(0, 0, 0); fill-opacity: 0;"/></g><g class="traces" transform="translate(0,115.60000000000001)" style="opacity: 1;"><text class="legendtext" text-anchor="start" x="40" y="8.58" style="font-family: 'Times New Roman', monospace; font-size: 22px; fill: rgb(105, 105, 105); fill-opacity: 1; white-space: pre;">Co<tspan style="font-size:70%" dy="0.3em">45</tspan><tspan dy="-0.21em"></tspan>Ni<tspan style="font-size:70%" dy="0.3em">45</tspan><tspan dy="-0.21em"></tspan>Fe<tspan style="font-size:70%" dy="0.3em">10</tspan><tspan dy="-0.21em"></tspan>N<tspan style="font-size:70%" dy="0.3em">x</tspan><tspan dy="-0.21em"></tspan></text><g class="layers" style="opacity: 1;"><g class="legendfill"/><g class="legendlines"><path class="js-line" d="M5,0h30" style="fill: none; stroke: rgb(68, 170, 153); stroke-opacity: 1; stroke-width: 2px;"/></g><g class="legendsymbols"><g class="legendpoints"/></g></g><rect class="legendtoggle" x="0" y="-15.8" width="179.765625" height="31.6" style="fill: rgb(0, 0, 0); fill-opacity: 0;"/></g></g></g><rect class="scrollbar" rx="20" ry="3" width="0" height="0" x="0" y="0" style="fill: rgb(128, 139, 164); fill-opacity: 1;"/></g><g class="g-gtitle"/><g class="g-xtitle"><text class="xtitle" x="252" y="487.60625" text-anchor="middle" style="font-family: 'Times New Roman', monospace; font-size: 26px; fill: rgb(105, 105, 105); opacity: 1; font-weight: normal; white-space: pre;">Time (h)</text></g><g class="g-ytitle" transform="translate(11.1064453125,0)"><text class="ytitle" transform="rotate(-90,11.893749999999997,258)" x="11.893749999999997" y="258" text-anchor="middle" style="font-family: 'Times New Roman', monospace; font-size: 26px; fill: rgb(105, 105, 105); opacity: 1; font-weight: normal; white-space: pre;">Overpotential, (mV) - iR<tspan style="font-size:70%" dy="0.3em">u</tspan><tspan dy="-0.21em"></tspan></text></g></g></svg>