<svg class="main-svg" xmlns="http://www.w3.org/2000/svg" xmlns:xlink="http://www.w3.org/1999/xlink" width="500" height="500" style="" viewBox="0 0 500 500"><rect x="0" y="0" width="500" height="500" style="fill: rgb(0, 0, 0); fill-opacity: 0;"/><defs id="defs-c0e390"><g class="clips"><clipPath id="clipc0e390xyplot" class="plotclip"><rect width="331" height="320"/></clipPath><clipPath class="axesclip" id="clipc0e390x"><rect x="89" y="0" width="331" height="500"/></clipPath><clipPath class="axesclip" id="clipc0e390y"><rect x="0" y="100" width="500" height="320"/></clipPath><clipPath class="axesclip" id="clipc0e390xy"><rect x="89" y="100" width="331" height="320"/></clipPath></g><g class="gradients"/><g class="patterns"/></defs><g class="bglayer"><rect class="bg" x="89" y="100" width="331" height="320" style="fill: rgb(0, 0, 0); fill-opacity: 0; stroke-width: 0;"/></g><g class="layer-below"><g class="imagelayer"/><g class="shapelayer"/></g><g class="cartesianlayer"><g class="subplot xy"><g class="layer-subplot"><g class="shapelayer"/><g class="imagelayer"/></g><g class="minor-gridlayer"><g class="x"/><g class="y"/></g><g class="gridlayer"><g class="x"/><g class="y"/></g><g class="zerolinelayer"/><path class="xlines-below"/><path class="ylines-below"/><g class="overlines-below"/><g class="xaxislayer-below"/><g class="yaxislayer-below"/><g class="overaxes-below"/><g class="plot" transform="translate(89,100)" clip-path="url(#clipc0e390xyplot)"><g class="scatterlayer mlayer"><g class="trace scatter trace3f7afe" style="stroke-miterlimit: 2; opacity: 1;"><g class="fills"/><g class="errorbars"/><g class="lines"><path class="js-line" d="M0,268.21L0.83,264.58L0.87,264.59L2.16,263.68L2.21,263.66L32.82,244.58L32.87,244.5L36.32,242.36L36.36,242.32L38.34,241.18L38.39,241.12L46.71,236.82L46.75,236.94L48.13,236.16L48.18,236.15L56.13,232.54L56.18,232.55L66.71,226.66L66.75,226.54L67.72,225.89L67.76,225.88L75.44,217.69L75.49,217.58L76.36,216.51L76.41,216.41L82.61,209.16L82.66,209.2L83.72,208.09L83.76,208.23L85.09,206.98L85.14,207.04L85.19,207.08L86.38,205.95L86.43,205.94L97.87,198.11L97.92,198.2L97.97,198.41L98.79,197.67L98.89,197.8L98.93,197.79L99.53,197.57L99.62,197.42L99.67,197.42L100.82,196.71L100.86,196.72L102.15,195.88L102.2,195.95L104.72,194.53L104.77,194.75L106.43,193.81L106.47,193.91L107.48,193.2L107.53,193.27L109.83,192.09L109.87,192.19L110.79,191.6L110.84,191.63L153.64,172.71L153.69,172.61L154.47,172.26L154.51,172.17L154.7,172.35L155.02,171.72L155.06,171.72L155.11,171.67L156.63,171.06L156.67,171.17L157.78,170.35L157.82,170.46L159.43,169.42L159.48,169.5L160.81,168.55L160.86,168.61L161.22,168.71L161.45,168.24L161.5,168.18L163.84,166.91L163.89,166.83L171.38,161.61L171.43,161.53L172.26,160.88L172.3,160.93L172.35,161.11L173.04,160.22L173.27,160.33L173.32,160.3L174.83,158.85L174.88,158.98L176.58,157.52L176.63,157.46L176.72,157.58L177.04,156.97L177.13,157.27L177.18,156.93L177.82,156.41L177.87,156.29L178.56,155.77L178.6,155.66L181.41,152.94L181.45,153L181.5,153L183.75,150.39L183.8,150.56L183.84,150.6L183.98,150.75L184.35,150.06L184.39,149.94L206.83,123.62L206.92,123.92L206.97,124.05L207.93,122.91L207.98,122.96L208.07,123.05L208.81,121.94L208.85,122.02L208.9,122.08L209.17,122.05L209.27,121.43L209.31,121.41L209.54,121.8L209.91,120.87L210,121.14L210.05,120.9L210.18,121.2L211.33,119.69L211.43,119.77L211.47,119.89L212.07,119.15L212.35,119.43L212.39,119.6L213.13,118.28L213.17,118.62L213.22,118.76L214.14,117.63L214.18,117.64L214.23,117.92L215.01,116.94L215.06,116.99L215.1,117.11L215.52,116.68L215.79,117.08L215.84,116.58L216.85,115.66L216.9,116.25L217.63,115.02L217.68,115.59L217.72,115.49L219.43,114.51L219.47,114.67L219.52,114.77L219.61,114.89L220.34,113.4L220.39,113.73L220.44,113.92L221.54,112.68L221.72,112.93L221.77,113.42L222.23,112.01L222.55,112.35L222.6,112.5L222.69,112.3L223.01,112.87L223.29,112.37L223.33,112.22L223.98,110.88L224.21,111.53L224.25,111.92L224.3,112.13L224.62,111.09L224.8,111.41L224.85,111.13L225.08,111.36L225.22,111.05L225.26,110.5L225.54,110.92L225.95,110.32L226,110.4L226.05,110.55L227.01,109.47L227.06,109.61L227.1,109.77L227.7,109.04L227.93,109.35L227.98,109.49L228.71,108.77L228.8,108.8L228.85,108.91L228.99,109.11L229.95,107.55L230,107.69L230.04,107.92L231.01,106.7L231.06,106.95L231.1,107.04L231.98,105.85L232.02,106.13L232.07,106.38L232.76,105.2L232.94,105.34L232.99,105.28L237.08,100.96L237.12,101.34L237.17,100.8L237.4,101.08L237.68,100.31L237.81,100.52L237.86,100.44L238.14,100.68L238.32,99.54L238.64,99.75L238.69,99.82L239.88,97.9L239.93,98.08L239.97,98.47L240.89,97.11L240.94,97.15L242.23,95.22L242.27,95.34L242.32,95.71L242.41,96.01L242.6,95.23L242.92,95.2L242.96,95.16L243.88,94.26L243.93,94.24L244.99,92.81L245.03,93.19L246.23,91.05L246.37,91.38L246.41,91.58L247.28,90.05L247.38,90.58L247.42,90.63L248.3,89.3L248.34,89.67L249.12,88.8L249.17,89.41L250.04,88.07L250.09,88.19L250.13,88.42L251.01,87.04L251.1,87.11L251.15,87.03L253.35,85.49L253.4,85.18L253.77,85.51L254,84.81L254.13,85.06L254.18,85.07L254.36,83.8L255.01,84.08L255.05,84.26L255.7,83.55L255.88,83.78L255.93,84.39L256.66,82.92L256.85,83.12L256.89,83.32L256.94,83.47L257.31,82.29L257.35,82.32L257.58,82.71L259.33,81.18L259.42,81.4L259.47,80.67L260.43,80.05L260.48,80.36L260.52,80.53L261.4,79.02L261.49,79.21L261.54,79.32L261.63,79.73L262.09,77.96L262.13,77.91L262.55,77.25L262.78,77.89L262.82,77.34L262.92,77.56L263.19,76.57L263.24,76.19L263.51,76.6L263.83,75.74L263.93,75.97L263.97,75.99L264.02,76.24L264.48,74.96L264.52,74.63L264.75,75.09L265.03,74.35L265.17,74.32L265.21,74.17L266.23,72.87L266.27,73.06L266.32,73.16L266.64,73.94L266.96,73.26L267.01,72.93L267.05,73.22L267.51,72.35L267.65,72.59L267.7,72.27L271.14,66.57L271.19,66.08L271.28,66.42L271.6,64.93L271.65,64.81L272.11,64.58L272.29,65.16L272.34,64.6L272.39,64.09L275.88,53.95L275.93,53.05L276.84,50.11L276.89,49.63L278.36,43.99L278.41,44.07L278.45,43.9L279.74,38.88L279.79,38.66L284.2,18.83L284.25,17.92L288.94,-4L288.98,-4.36L290.22,-10.1L290.27,-10.49L294.31,-32.07L294.36,-32.31L324.57,-250.05" style="vector-effect: non-scaling-stroke; fill: none; stroke: rgb(170, 68, 153); stroke-opacity: 1; stroke-width: 2px; opacity: 1;"/></g><g class="points"/><g class="text"/></g></g></g><g class="overplot"/><path class="xlines-above crisp" d="M87,421H420" style="fill: none; stroke-width: 2px; stroke: rgb(0, 0, 0); stroke-opacity: 1;"/><path class="ylines-above crisp" d="M88,100V420" style="fill: none; stroke-width: 2px; stroke: rgb(0, 0, 0); stroke-opacity: 1;"/><g class="overlines-above"/><g class="xaxislayer-above"><path class="xtick ticks crisp" d="M0,422v5" transform="translate(89,0)" style="stroke: rgb(68, 68, 68); stroke-opacity: 1; stroke-width: 1px;"/><path class="xtick ticks crisp" d="M0,422v5" transform="translate(144.17000000000002,0)" style="stroke: rgb(68, 68, 68); stroke-opacity: 1; stroke-width: 1px;"/><path class="xtick ticks crisp" d="M0,422v5" transform="translate(199.32999999999998,0)" style="stroke: rgb(68, 68, 68); stroke-opacity: 1; stroke-width: 1px;"/><path class="xtick ticks crisp" d="M0,422v5" transform="translate(254.5,0)" style="stroke: rgb(68, 68, 68); stroke-opacity: 1; stroke-width: 1px;"/><path class="xtick ticks crisp" d="M0,422v5" transform="translate(309.66999999999996,0)" style="stroke: rgb(68, 68, 68); stroke-opacity: 1; stroke-width: 1px;"/><path class="xtick ticks crisp" d="M0,422v5" transform="translate(364.83,0)" style="stroke: rgb(68, 68, 68); stroke-opacity: 1; stroke-width: 1px;"/><path class="xtick ticks crisp" d="M0,422v5" transform="translate(420,0)" style="stroke: rgb(68, 68, 68); stroke-opacity: 1; stroke-width: 1px;"/><g class="xtick"><text text-anchor="middle" x="0" y="448.6" transform="translate(89,0)" style="font-family: 'Times New Roman', monospace; font-size: 18px; fill: rgb(105, 105, 105); fill-opacity: 1; white-space: pre; opacity: 1;">0</text></g><g class="xtick"><text text-anchor="middle" x="0" y="448.6" style="font-family: 'Times New Roman', monospace; font-size: 18px; fill: rgb(105, 105, 105); fill-opacity: 1; white-space: pre; opacity: 1;" transform="translate(144.17000000000002,0)">20</text></g><g class="xtick"><text text-anchor="middle" x="0" y="448.6" style="font-family: 'Times New Roman', monospace; font-size: 18px; fill: rgb(105, 105, 105); fill-opacity: 1; white-space: pre; opacity: 1;" transform="translate(199.32999999999998,0)">40</text></g><g class="xtick"><text text-anchor="middle" x="0" y="448.6" style="font-family: 'Times New Roman', monospace; font-size: 18px; fill: rgb(105, 105, 105); fill-opacity: 1; white-space: pre; opacity: 1;" transform="translate(254.5,0)">60</text></g><g class="xtick"><text text-anchor="middle" x="0" y="448.6" style="font-family: 'Times New Roman', monospace; font-size: 18px; fill: rgb(105, 105, 105); fill-opacity: 1; white-space: pre; opacity: 1;" transform="translate(309.66999999999996,0)">80</text></g><g class="xtick"><text text-anchor="middle" x="0" y="448.6" style="font-family: 'Times New Roman', monospace; font-size: 18px; fill: rgb(105, 105, 105); fill-opacity: 1; white-space: pre; opacity: 1;" transform="translate(364.83,0)">100</text></g><g class="xtick"><text text-anchor="middle" x="0" y="448.6" style="font-family: 'Times New Roman', monospace; font-size: 18px; fill: rgb(105, 105, 105); fill-opacity: 1; white-space: pre; opacity: 1;" transform="translate(420,0)">120</text></g></g><g class="yaxislayer-above"><path class="ytick ticks crisp" d="M87,0h-5" transform="translate(0,401.18)" style="stroke: rgb(68, 68, 68); stroke-opacity: 1; stroke-width: 1px;"/><path class="ytick ticks crisp" d="M87,0h-5" transform="translate(0,363.53)" style="stroke: rgb(68, 68, 68); stroke-opacity: 1; stroke-width: 1px;"/><path class="ytick ticks crisp" d="M87,0h-5" transform="translate(0,325.88)" style="stroke: rgb(68, 68, 68); stroke-opacity: 1; stroke-width: 1px;"/><path class="ytick ticks crisp" d="M87,0h-5" transform="translate(0,288.24)" style="stroke: rgb(68, 68, 68); stroke-opacity: 1; stroke-width: 1px;"/><path class="ytick ticks crisp" d="M87,0h-5" transform="translate(0,250.59)" style="stroke: rgb(68, 68, 68); stroke-opacity: 1; stroke-width: 1px;"/><path class="ytick ticks crisp" d="M87,0h-5" transform="translate(0,212.94)" style="stroke: rgb(68, 68, 68); stroke-opacity: 1; stroke-width: 1px;"/><path class="ytick ticks crisp" d="M87,0h-5" transform="translate(0,175.29000000000002)" style="stroke: rgb(68, 68, 68); stroke-opacity: 1; stroke-width: 1px;"/><path class="ytick ticks crisp" d="M87,0h-5" transform="translate(0,137.65)" style="stroke: rgb(68, 68, 68); stroke-opacity: 1; stroke-width: 1px;"/><path class="ytick ticks crisp" d="M87,0h-5" transform="translate(0,100)" style="stroke: rgb(68, 68, 68); stroke-opacity: 1; stroke-width: 1px;"/><g class="ytick"><text text-anchor="end" x="78.4" y="6.3" transform="translate(0,401.18)" style="font-family: 'Times New Roman', monospace; font-size: 18px; fill: rgb(105, 105, 105); fill-opacity: 1; white-space: pre; opacity: 1;">400</text></g><g class="ytick"><text text-anchor="end" x="78.4" y="6.3" style="font-family: 'Times New Roman', monospace; font-size: 18px; fill: rgb(105, 105, 105); fill-opacity: 1; white-space: pre; opacity: 1;" transform="translate(0,363.53)">600</text></g><g class="ytick"><text text-anchor="end" x="78.4" y="6.3" style="font-family: 'Times New Roman', monospace; font-size: 18px; fill: rgb(105, 105, 105); fill-opacity: 1; white-space: pre; opacity: 1;" transform="translate(0,325.88)">800</text></g><g class="ytick"><text text-anchor="end" x="78.4" y="6.3" style="font-family: 'Times New Roman', monospace; font-size: 18px; fill: rgb(105, 105, 105); fill-opacity: 1; white-space: pre; opacity: 1;" transform="translate(0,288.24)">1000</text></g><g class="ytick"><text text-anchor="end" x="78.4" y="6.3" style="font-family: 'Times New Roman', monospace; font-size: 18px; fill: rgb(105, 105, 105); fill-opacity: 1; white-space: pre; opacity: 1;" transform="translate(0,250.59)">1200</text></g><g class="ytick"><text text-anchor="end" x="78.4" y="6.3" style="font-family: 'Times New Roman', monospace; font-size: 18px; fill: rgb(105, 105, 105); fill-opacity: 1; white-space: pre; opacity: 1;" transform="translate(0,212.94)">1400</text></g><g class="ytick"><text text-anchor="end" x="78.4" y="6.3" style="font-family: 'Times New Roman', monospace; font-size: 18px; fill: rgb(105, 105, 105); fill-opacity: 1; white-space: pre; opacity: 1;" transform="translate(0,175.29000000000002)">1600</text></g><g class="ytick"><text text-anchor="end" x="78.4" y="6.3" style="font-family: 'Times New Roman', monospace; font-size: 18px; fill: rgb(105, 105, 105); fill-opacity: 1; white-space: pre; opacity: 1;" transform="translate(0,137.65)">1800</text></g><g class="ytick"><text text-anchor="end" x="78.4" y="6.3" style="font-family: 'Times New Roman', monospace; font-size: 18px; fill: rgb(105, 105, 105); fill-opacity: 1; white-space: pre; opacity: 1;" transform="translate(0,100)">2000</text></g></g><g class="overaxes-above"/></g></g><g class="polarlayer"/><g class="smithlayer"/><g class="ternarylayer"/><g class="geolayer"/><g class="funnelarealayer"/><g class="pielayer"/><g class="iciclelayer"/><g class="treemaplayer"/><g class="sunburstlayer"/><g class="glimages"/><defs id="topdefs-c0e390"><g class="clips"/></defs><g class="layer-above"><g class="imagelayer"/><g class="shapelayer"/></g><g class="infolayer"><g class="g-gtitle"/><g class="g-xtitle"><text class="xtitle" x="254.5" y="483.009375" text-anchor="middle" style="font-family: 'Times New Roman', monospace; font-size: 22px; fill: rgb(105, 105, 105); opacity: 1; font-weight: normal; white-space: pre;">Time (min)</text></g><g class="g-ytitle" transform="translate(8.009765625,0)"><text class="ytitle" transform="rotate(-90,11.990624999999994,260)" x="11.990624999999994" y="260" text-anchor="middle" style="font-family: 'Times New Roman', monospace; font-size: 22px; fill: rgb(105, 105, 105); opacity: 1; font-weight: normal; white-space: pre;">Overpotential, η(mV) - iR​<tspan style="font-size:70%" dy="0.3em">u</tspan><tspan dy="-0.21em">​</tspan></text></g></g></svg>