<svg class="main-svg" xmlns="http://www.w3.org/2000/svg" xmlns:xlink="http://www.w3.org/1999/xlink" width="500" height="500" style="" viewBox="0 0 500 500"><rect x="0" y="0" width="500" height="500" style="fill: rgb(0, 0, 0); fill-opacity: 0;"/><defs id="defs-b58e94"><g class="clips"><clipPath id="clipb58e94xyplot" class="plotclip"><rect width="303" height="320"/></clipPath><clipPath class="axesclip" id="clipb58e94x"><rect x="89" y="0" width="303" height="500"/></clipPath><clipPath class="axesclip" id="clipb58e94y"><rect x="0" y="100" width="500" height="320"/></clipPath><clipPath class="axesclip" id="clipb58e94xy"><rect x="89" y="100" width="303" height="320"/></clipPath></g><g class="gradients"/><g class="patterns"/></defs><g class="bglayer"><rect class="bg" x="89" y="100" width="303" height="320" style="fill: rgb(0, 0, 0); fill-opacity: 0; stroke-width: 0;"/></g><g class="layer-below"><g class="imagelayer"/><g class="shapelayer"/></g><g class="cartesianlayer"><g class="subplot xy"><g class="layer-subplot"><g class="shapelayer"/><g class="imagelayer"/></g><g class="minor-gridlayer"><g class="x"/><g class="y"/></g><g class="gridlayer"><g class="x"/><g class="y"/></g><g class="zerolinelayer"/><path class="xlines-below"/><path class="ylines-below"/><g class="overlines-below"/><g class="xaxislayer-below"/><g class="yaxislayer-below"/><g class="overaxes-below"/><g class="plot" transform="translate(89,100)" clip-path="url(#clipb58e94xyplot)"><g class="scatterlayer mlayer"><g class="trace scatter trace2124a1" style="stroke-miterlimit: 2; opacity: 1;"><g class="fills"/><g class="errorbars"/><g class="lines"><path class="js-line" d="M0,279.81L0.76,278.17L0.8,278.22L4.21,278.27L4.25,278.26L14.18,278.42L14.22,278.43L23.31,278.76L23.36,278.75L32.78,279.19L32.82,279.19L61.4,280.12L61.44,280.12L82.82,280.66L82.86,280.65L101.38,281.04L101.42,281.01L119.26,281.32L119.31,281.31L122.55,281.35L122.59,281.35L130,281.47L130.04,281.47L135.68,281.53L135.72,281.57L138.75,281.62L138.79,281.62L144.93,281.65L144.98,281.68L161.05,281.88L161.09,281.87L174.56,281.92L174.6,281.91L177.42,281.96L177.47,281.96L191.27,282.09L191.31,282.07L197.92,282.11L197.96,282.1L202.42,282.14L202.46,282.13L213.15,282.23L213.19,282.25L302.96,282.52L302.96,282.54" style="vector-effect: non-scaling-stroke; fill: none; stroke: rgb(99, 110, 250); stroke-opacity: 1; stroke-width: 2px; opacity: 1;"/></g><g class="points"/><g class="text"/></g><g class="trace scatter trace5d59ad" style="stroke-miterlimit: 2; opacity: 1;"><g class="fills"/><g class="errorbars"/><g class="lines"><path class="js-line" d="M0,222.9L0.8,203.24L0.84,203.1L2.02,201.1L2.06,201.1L3.62,199.89L3.66,199.99L9.17,198.64L9.22,198.64L10.1,198.47L10.14,198.51L10.18,198.6L11.11,198.25L11.15,198.27L11.19,198.38L12.54,198.28L12.58,198.48L15.65,198.33L15.7,198.49L16.5,198.22L16.54,198.36L33.16,198.82L33.2,198.76L33.92,198.95L34,198.87L34.05,198.79L35.06,199.04L35.1,199L35.14,198.95L36.36,199.21L36.44,199.08L36.49,198.97L36.95,198.83L37.2,199.08L37.24,199L37.29,199.01L41.96,199.03L42,198.93L42.59,199.48L42.8,199.28L42.84,199.34L47.34,199.47L47.39,199.53L48.31,199.62L48.35,199.59L48.9,199.18L49.24,199.61L49.28,199.78L50.33,199.53L50.37,199.57L51.89,199.6L51.93,199.48L52.69,199.63L52.77,199.55L52.81,199.58L54.71,199.74L54.75,199.58L54.79,199.49L55.68,199.71L55.72,199.69L56.69,199.71L56.73,199.77L63.59,199.85L63.63,200.02L65.02,199.86L65.06,199.87L66.32,199.8L66.37,199.93L67.46,200.18L67.54,200.07L67.59,200.02L69.56,200.17L69.61,200.19L70.53,199.87L70.57,199.81L71.88,200.1L71.92,200.04L110.3,200.57L110.34,200.64L111.39,200.35L111.44,200.37L112.57,200.41L112.61,200.36L112.66,200.26L114,200.63L114.05,200.48L114.09,200.47L115.1,200.39L115.14,200.47L115.18,200.54L115.86,200.32L116.02,200.5L116.07,200.53L121.96,200.61L122,200.7L122.67,200.44L122.84,200.62L122.88,200.67L123.89,200.43L123.98,200.56L124.02,200.56L125.96,200.46L126,200.44L126.46,200.63L126.8,200.36L126.84,200.34L127.76,200.48L127.81,200.4L128.73,200.49L128.77,200.43L128.82,200.43L129.62,200.47L129.66,200.4L133.4,200.44L133.45,200.36L135.3,200.2L135.34,200.45L137.65,200.3L137.7,200.19L137.78,200.01L138.03,200.59L138.41,200.35L138.45,200.39L140.94,200.41L140.98,200.26L142.12,200.5L142.16,200.41L142.2,200.36L143.29,200.29L143.38,200.46L143.42,200.53L146.79,200.29L146.83,200.55L148.18,200.22L148.22,200.31L149.1,200.33L149.19,200.13L149.23,200.07L150.07,200.24L150.11,200.13L150.15,200.1L217.95,199.78L217.99,199.68L218.79,200.09L218.83,200L218.88,200.04L219.84,199.85L219.89,199.9L220.9,199.68L220.94,199.8L220.98,199.96L225.52,200.09L225.57,200.11L227.5,199.82L227.54,199.92L227.59,199.96L228.47,200L228.51,200L230.74,199.79L230.78,199.78L231.84,200.08L231.88,200.02L232.76,199.79L232.89,200.03L232.93,200.02L233.9,199.89L233.94,200L236.05,199.91L236.09,199.92L238.78,200L238.82,200.04L239.83,199.69L239.87,199.74L239.92,199.87L240.8,199.92L240.84,199.85L241.98,199.91L242.02,199.82L242.65,199.59L242.74,199.95L242.78,200.01L244.46,199.75L244.5,199.79L245.3,200.04L245.35,199.88L246.78,200.07L246.82,199.95L247.91,199.97L247.95,199.86L248,199.74L254.6,199.8L254.65,199.76L255.4,200.08L255.57,199.86L255.61,199.68L256.96,199.9L257,199.79L257.89,199.97L257.93,199.94L257.97,199.82L259.53,199.87L259.57,199.77L259.82,199.92L260.24,199.87L260.29,199.99L260.33,199.93L267.94,199.83L267.99,199.99L269.42,199.68L269.46,199.77L269.5,199.86L272.11,199.59L272.15,199.54L272.53,199.8L272.74,199.62L272.78,199.8L272.83,199.9L274,199.52L274.05,199.68L274.09,199.77L274.93,199.38L275.14,199.79L275.18,199.89L276.15,199.62L276.19,199.67L278.04,199.72L278.09,199.62L279.31,199.72L279.35,199.59L280.57,199.52L280.61,199.4L281.58,199.73L281.62,199.69L282.46,199.58L282.51,199.57L283.18,199.73L283.3,199.67L283.35,199.82L284.31,199.56L284.4,199.67L284.44,199.76L284.65,199.89L285.28,199.42L285.32,199.54L285.37,199.73L293.78,199.58L293.83,199.65L302.45,199.53L302.49,199.43L302.96,199.78L302.96,199.66" style="vector-effect: non-scaling-stroke; fill: none; stroke: rgb(239, 85, 59); stroke-opacity: 1; stroke-width: 2px; opacity: 1;"/></g><g class="points"/><g class="text"/></g><g class="trace scatter trace373d53" style="stroke-miterlimit: 2; opacity: 1;"><g class="fills"/><g class="errorbars"/><g class="lines"><path class="js-line" d="M0,237.36L0.21,233.09L0.38,239.68L0.72,238.28L0.76,238.12L1.39,239.18L1.51,238.6L1.56,238.85L2.19,237.13L2.31,238.5L2.36,238.71L2.44,238.96L3.07,236.8L3.2,237.05L3.24,238.08L3.53,238.21L3.87,237.15L4.04,237.38L4.08,237.37L4.29,237.45L4.84,235.9L5.09,236.05L5.13,236.5L5.43,236.56L6.02,233.87L6.06,234.93L6.1,235.6L6.99,233.26L7.03,233.4L7.2,233.73L7.36,232.54L7.49,232.77L7.53,232.72L9.01,229.66L9.05,230.04L9.17,230.13L9.76,227.02L9.93,228.03L9.97,227.91L10.86,224.23L11.03,224.34L11.07,224.85L11.74,220.24L12.08,221.41L12.12,221.32L12.84,217.59L12.92,218.23L12.96,217.6L14.69,208.18L14.73,209.23L15.49,202.93L15.61,203.1L15.65,202.87L15.82,203.68L16.08,201.39L16.12,200.71L16.29,200.98L17.46,193.15L17.51,193.3L17.55,194.27L18.1,189.85L18.18,190.21L18.22,186.48L18.26,189.31L18.85,184.96L18.94,185.33L18.98,186.17L19.06,186.39L20.12,179.34L20.16,180.04L20.28,181.02L20.62,177.53L20.7,177.9L20.75,176.36L20.83,178.42L21.04,174.43L21.17,175.27L21.21,174.82L21.29,175.7L21.5,165.53L21.55,174.03L21.59,175.79L22.18,169.08L22.43,170.75L22.47,170.67L23.52,157.53L23.57,164.65L23.86,165.94L24.32,160.91L24.49,161.74L24.53,162.58L24.62,162.8L24.87,153.03L25.42,156.86L25.46,157.15L25.59,158.84L26.26,151.65L26.3,152.68L26.34,153.74L26.43,154.23L26.6,150.34L26.93,152.35L26.98,153.46L27.23,147.76L27.77,149.72L27.82,150.72L28.32,147.31L28.49,148.75L28.53,149.49L28.62,142.98L29.29,145.83L29.33,145.42L29.46,143.72L29.63,150.87L30.13,147.34L30.17,145.85L30.22,146.7L30.76,143.34L30.8,143.49L30.85,145.15L31.39,139.35L31.44,139.76L31.73,137.84L31.86,141.19L31.94,138.89L31.98,136.61L32.15,140.58L32.61,135.29L32.66,135.42L32.7,135L32.74,135.5L33.04,131.4L33.25,133.59L33.29,132.7L33.41,135.11L33.46,132.11L33.5,132.39L33.54,131.3L33.58,132.69L33.96,126.38L34.17,129.49L34.21,127.3L34.84,124.7L34.97,131.87L35.01,129.4L35.18,136.61L35.56,132.43L35.6,129.07L35.81,117.55L35.94,134.13L36.32,127.79L36.36,129.02L36.57,127.94L36.61,131.33L36.7,128.27L36.74,127.42L37.03,128.81L37.16,123.4L37.33,125.69L37.37,123.62L37.41,126.47L37.96,121.57L38.09,123.67L38.13,122.87L38.17,123.11L38.3,119.37L38.42,122.17L38.46,118.88L38.51,116.7L38.8,120.92L39.18,120.15L39.22,118.96L39.26,120.75L39.39,116.59L39.94,120L39.98,116.04L40.02,115.86L40.06,120.09L40.36,113.25L40.48,126.36L40.78,119.58L40.82,124.1L40.95,115.14L41.03,124.45L41.58,117.21L41.62,119.65L42.34,110.34L42.42,111.45L42.46,113.67L43.26,105.63L43.3,106.37L43.35,108.26L43.64,103.84L43.89,111.49L43.93,117.52L44.02,119.4L44.86,108.44L44.9,112.87L45.87,104.29L45.91,108.97L46.38,101.26L46.59,103.27L46.63,108.41L47.09,103.46L47.18,113.35L47.43,111.36L47.47,110.64L47.55,113.22L48.14,101.12L48.31,102.91L48.35,101.65L48.48,112.26L49.07,100.26L49.11,99.14L49.78,111.24L49.95,106.71L49.99,106.68L50.16,101.54L50.25,108.1L50.33,104.55L50.37,100.34L50.5,108.56L50.92,96.66L51.13,104.58L51.17,100.34L51.26,97.52L51.47,102.45L51.64,100.52L51.68,98.6L51.72,93.17L51.89,102.62L52.44,97.13L52.48,99.84L53.19,100.03L53.32,91.52L53.36,93.03L53.74,85.18L53.87,103.16L54.03,97.09L54.08,95.87L54.16,89.81L54.5,100.12L54.75,97.88L54.79,91.82L54.83,91.38L55,95.09L55.04,105.26L55.8,91.24L55.89,92L55.93,93.27L56.18,95.98L56.27,89.07L56.31,104.56L57.19,88.93L57.23,91.67L57.28,92.19L57.44,85.9L57.53,94.73L57.95,92.32L57.99,86.06L58.12,84.62L58.2,101.02L58.83,94.95L58.87,91.61L59.21,91.75L59.3,85.28L59.34,85.83L59.38,82.96L59.46,82.6L59.84,98.05L60.26,94.55L60.31,93.13L60.56,88.45L60.89,102.1L61.06,91.59L61.1,92.78L61.36,96.89L61.65,87.45L61.9,90.24L61.95,94.17L62.11,94.9L62.24,88.95L62.28,89.22L62.33,89.58L62.37,81.17L63.08,85.62L63.12,83.64L63.25,77.79L63.29,85.89L63.55,81.16L63.59,78.82L63.92,73.81L63.97,81.61L64.01,77.76L64.05,74.97L64.22,84.65L64.81,77.53L64.85,71.94L65.36,102.5L65.57,94.49L65.61,89.72L65.73,91.89L65.9,87.39L65.94,89.94L65.99,85.17L66.15,81.95L66.37,91.03L66.53,82.74L66.58,80.26L66.62,65.71L67,101.15L67.25,92.77L67.29,95.27L68.05,81.28L68.09,81.81L68.13,82.92L68.51,80.6L68.55,91.18L68.6,100.2L69.35,80.02L69.48,85.94L69.52,87.47L69.98,90.04L70.15,78.22L70.28,82.94L70.32,87.91L71.12,71.96L71.16,75.48L71.2,75.28L71.5,84.72L71.79,71.22L71.84,71.64L71.88,97.17L72.38,76.76L72.76,80.56L72.8,83.88L72.85,84.72L72.97,77.18L73.22,80.01L73.27,78.54L74.11,65.5L74.15,65.93L74.19,75.78L74.32,75.44L74.53,98.09L74.95,82.01L74.99,77.91L75.03,77.24L75.12,81.36L75.16,87.98L76.09,70.74L76.13,73.57L76.17,73.94L76.21,85.93L76.25,88.7L76.63,78.55L76.84,81.29L76.89,80.74L76.97,81.4L77.48,71.28L77.73,73.28L77.77,73.11L78.27,75.98L78.49,65.23L78.57,67.3L78.61,75.86L78.65,68.69L78.95,94.99L79.28,89.48L79.33,89.07L79.45,91.21L79.62,76.14L79.83,85.25L79.87,74.53L80,82.17L80.13,70.08L80.63,80.29L80.67,77.56L81.05,85.52L81.26,73.47L81.35,74.02L81.39,69.06L81.56,68.25L81.73,78.41L82.1,68.71L82.15,69.91L82.53,64.75L82.78,95.91L82.95,90.15L82.99,90L83.83,74.58L83.87,80.56L84.25,84.39L84.67,66.83L84.71,68.3L85.09,61.28L85.18,71.28L85.34,67.55L85.39,62.23L85.81,72.81L85.89,60.37L86.02,63.94L86.06,57.31L86.14,64.45L86.19,58.49L86.23,67.06L86.27,62.66L86.35,97.74L86.9,73.01L86.94,76.4L87.2,68.5L87.24,78.92L87.28,85.66L87.32,85.48L87.36,78.91L87.45,83.1L88.25,66.31L88.29,70.67L88.54,92.59L88.75,80.76L88.8,73.97L88.88,75.18L88.92,85.47L89.81,71.15L89.85,76.54L89.89,78.02L90.27,65.23L90.35,67.85L90.39,66.27L90.69,59.67L90.82,71.73L91.11,64.56L91.15,71.51L91.28,59.22L91.7,88.18L91.74,84.54L91.78,83.22L91.99,91.69L92.29,74.18L92.46,83.53L92.5,78.28L92.71,79.63L92.96,70.21L93.05,71.39L93.09,80.33L93.13,94.17L93.8,71.3L93.85,72.55L94.1,75.5L94.81,55.52L94.86,65.91L95.11,62.8L95.28,89.87L95.74,80.68L95.78,79.6L95.87,84.67L96.08,71.28L96.45,80.23L96.5,81.5L96.62,74.96L96.67,69.06L96.79,74.8L97.09,62.25L97.25,69.08L97.3,62.29L97.34,61.31L97.46,69.54L97.55,65.73L97.59,78.2L98.26,51.82L98.39,57.63L98.43,63.72L98.64,68.34L99.06,45.66L99.15,62.6L99.19,84.57L99.27,88.11L99.74,73.78L99.78,75.56L99.82,72.89L100.2,69.95L100.41,91.31L100.58,79.46L100.62,75.67L100.66,82.09L101.13,66.49L101.29,70.5L101.34,63.35L101.55,60.46L101.63,70.9L101.97,62.67L102.01,61.71L102.39,56.99L102.51,68.98L102.64,66.03L102.68,68.46L102.73,59.69L102.85,87.39L103.36,74.42L103.4,73.86L103.48,92.1L103.9,74.72L103.95,72.36L104.03,76.56L104.07,81.16L104.11,82.8L104.49,67.99L104.53,67.47L104.62,61.77L104.87,72.18L105.33,62.46L105.38,61.65L105.54,67.5L105.63,56.01L105.92,60.29L105.97,57.83L106.01,55.46L106.26,73.71L106.43,72.96L106.47,79.03L106.51,78.57L106.64,80.57L106.68,87.24L107.02,66.97L107.06,90.45L107.48,73.64L107.52,80.29L107.56,80.81L107.61,77.96L107.65,71.45L107.69,78.76L108.07,64.13L108.32,64.13L108.36,61.62L108.62,81.3L109.08,64.59L109.12,65.52L109.21,59.74L109.54,71.41L109.63,64.11L109.67,58.98L109.96,58.79L110.3,92.05L110.64,79.12L110.68,73.82L110.81,80.62L110.93,66.82L111.44,71.67L111.48,70.86L111.56,81.48L112.03,64.18L112.07,63.55L112.15,59.09L112.74,74.92L112.87,66.87L112.91,66.97L113.04,74.13L113.62,50.17L113.84,56.36L113.88,77.2L114.17,85.31L114.47,70.92L114.55,74.23L114.59,73.13L114.72,75.05L115.06,68.69L115.1,64.99L115.22,74.17L115.64,63.5L115.77,67.22L115.81,65.69L115.86,61.52L115.9,83.48L116.53,67.53L116.57,80.46L117.37,57.98L117.41,60.55L117.45,62.24L117.54,59.74L117.58,87.57L117.79,69.37L118.38,69.49L118.42,76.06L118.93,79.97L119.22,66.22L119.26,66.4L119.31,62.75L119.77,81.71L119.98,68.45L120.02,69.76L120.19,74.58L120.4,60.19L120.48,60.56L120.53,57.72L120.57,57.93L120.61,67.93L121.37,47.17L121.41,51.93L121.45,67.62L121.49,94.88L122.13,64.12L122.17,68.44L122.21,62.53L122.5,81.84L122.97,67.44L123.01,65.93L123.09,60.15L123.47,89.79L123.98,80.05L124.02,79.97L124.23,63.06L124.4,90.27L124.78,76.65L124.82,80.66L124.86,84.06L125.32,64.04L125.41,67.08L125.45,69.04L125.7,60.62L126,77.23L126.21,67.66L126.25,66.01L126.42,62.15L126.63,90.52L127.05,75.16L127.09,75.32L127.34,68.57L127.51,80.44L127.6,70.38L127.64,67.71L127.72,85.95L128.27,67.11L128.35,70.16L128.4,68.85L128.48,74.33L128.56,68.78L128.61,63.41L129.41,88L129.45,82.05L129.49,81.64L129.91,87.71L130.37,67.11L130.42,74.81L130.84,51.52L130.92,84.69L131.13,78.65L131.17,71L131.47,91.83L131.93,75.83L131.97,76.79L132.77,64.22L132.81,64.8L132.86,71.18L132.98,63.98L133.11,89.48L133.45,73.9L133.49,89.64L134.25,66.02L134.33,71.35L134.37,76.19L135.34,62.96L135.38,69.12L135.55,57.18L136.1,67.05L136.14,68.62L136.27,52.14L136.6,94.59L136.77,82.8L136.81,83.08L137.19,83.93L137.57,68.73L137.65,73.39L137.7,73.83L137.86,77L138.08,60.66L138.5,66.96L138.54,63.98L138.75,63.12L138.87,73.76L139.21,63.96L139.25,58.28L139.38,53.21L140.05,96.09L140.14,82.96L140.18,80.22L141.06,65.19L141.11,70.3L141.19,65.57L141.23,68.67L141.27,73.05L141.86,56.8L142.03,70.21L142.07,66.11L142.75,51.09L142.83,57.52L142.87,75.48L142.91,93.67L143.59,73.32L143.63,73.3L143.88,64.33L144.09,83.52L144.14,81.7L144.18,83.13L144.93,63.66L145.02,64.97L145.06,72.51L145.1,81.14L145.73,61.07L145.78,67.6L145.82,69.81L146.03,62.95L146.28,71.37L146.32,69.48L146.37,81.12L146.41,89.52L146.79,71.55L147.08,76.96L147.12,75.44L147.25,79.6L147.96,58.89L148.09,62.04L148.13,66.01L148.39,71.35L148.6,61.03L148.89,67.31L148.93,62.98L149.19,66.83L149.27,57.37L149.65,58.19L149.69,72.24L149.73,92.54L150.32,69.16L150.45,77.6L150.49,71.23L150.83,60.56L150.91,72.45L151.29,66.38L151.33,64.53L151.5,69.64L151.96,57.86L152.13,61.52L152.17,66.31L152.34,56.95L152.68,76.2L152.72,87.85L153.31,69.88L153.6,71.92L153.65,71.78L153.69,67.58L153.86,87.84L154.4,70.23L154.45,66.58L154.49,73.03L154.87,57.67L155.12,60.84L155.16,57.89L155.41,67.1L155.83,51.98L155.88,51.4L156.13,77.53L156.68,62.91L156.72,59.77L156.93,86.66L157.52,72.92L157.56,71.78L157.9,74.57L158.32,57.26L158.57,59.65L158.61,61.59L158.82,77.93L159.24,61.38L159.37,66.79L159.41,65.47L159.75,65.16L159.87,87.84L160.25,82.63L160.3,76.46L160.38,79.43L160.46,76.29L160.51,72.7L160.59,76.34L161.09,68.48L161.14,69.77L161.18,67.82L161.47,61.51L161.68,80.95L162.02,75.16L162.06,70.99L162.1,71.36L162.15,67.62L162.19,75.2L163.11,55.64L163.24,58.05L163.28,59.46L163.54,53.28L163.96,67.23L164.04,63.72L164.08,54.06L164.21,93.83L164.71,66.77L164.76,63.93L164.84,68.78L165.01,62.58L165.13,62.92L165.18,61.88L165.35,53.2L165.64,70.14L165.68,77.62L166.48,54.98L166.52,63.8L166.57,60.48L167.07,53.9L167.32,85.44L167.45,79.33L167.49,76.93L167.66,78.4L167.79,71.1L167.83,64.96L168.33,72.27L168.67,58.4L168.71,81.07L169.39,65.83L169.55,66.27L169.6,72.53L170.35,54.61L170.44,64.63L170.48,82.49L171.28,60.82L171.45,65.87L171.49,70.32L171.83,55.12L172.04,76.34L172.08,84.16L172.12,86.23L172.5,70.62L172.54,73.09L172.58,70.08L172.71,71.87L172.88,63.39L173,65.35L173.05,64.48L173.21,69.83L173.55,60.11L173.59,69.46L173.72,62.89L173.93,80.55L174.31,64.95L174.35,69.63L174.44,74.82L174.98,62.88L175.02,63.87L175.07,62.57L175.7,60.04L175.87,87.16L175.95,82.04L175.99,79.76L176.08,81.67L176.92,61.87L177.09,64.04L177.13,67.31L177.17,67.46L177.21,88.66L177.76,67.6L178.1,73.66L178.14,82.74L178.9,60.8L178.94,65.5L178.98,73.31L179.61,60.63L179.78,64.39L179.82,65.01L179.91,69.42L180.12,59.33L180.28,63.46L180.33,60.02L180.5,65.62L180.75,55.45L181.04,58.1L181.08,61.72L181.17,52.56L181.38,90.2L181.67,76.03L181.72,78.15L181.84,80.83L182.43,66.12L182.56,69.42L182.6,69.01L182.98,56.88L183.48,58.28L183.53,60.93L183.61,53.79L184.03,88.81L184.11,83.79L184.16,81.74L184.83,65.64L185,70.27L185.04,72.38L185.29,60.12L185.84,63.98L185.88,66.34L186.13,73.78L186.39,62.11L186.56,64.42L186.6,61.66L186.89,51.09L187.1,86.41L187.35,66.64L187.4,65.64L187.69,71.98L188.07,59.61L188.11,61.58L188.15,65.19L188.28,81.38L189.12,55.36L189.16,56.73L189.21,60.36L189.25,63.29L189.59,52.53L189.8,54.88L189.84,49L190.05,48.95L190.22,86.2L190.72,70.39L190.76,72.18L191.06,67.96L191.39,78.71L191.52,74.41L191.56,74.66L192.4,54.03L192.45,62.4L192.7,65.51L193.29,51.75L193.33,54.39L193.37,50.33L193.63,86.71L193.88,71.95L193.92,75.32L194.76,65.87L194.8,66.73L194.93,70.99L195.18,62.25L195.43,67.67L195.48,56.72L195.52,55.6L195.56,65.13L196.02,61.36L196.07,63.15L196.49,40.62L196.66,60.5L196.7,91.65L197.58,61.3L197.62,66.31L197.67,61.9L197.79,68.82L198,57.43L198.46,68.24L198.51,62.9L198.59,63.72L198.68,60.3L198.76,60.82L198.8,58.11L198.93,53.29L199.1,67.48L199.14,90.3L199.9,59.11L200.02,65.48L200.06,70.16L200.23,75.5L200.4,67.42L200.74,68.37L200.78,67.1L201.2,58.7L201.28,70.18L201.58,59.91L201.62,62.79L201.75,61.49L202.13,88.62L202.42,76.47L202.46,76.79L203.01,71.61L203.05,81.09L203.18,75.84L203.22,77.08L203.3,77.32L203.94,63.29L204.06,69.87L204.1,74.52L204.15,87.95L204.69,65.53L204.82,72.45L204.86,69L205.11,56.95L205.53,71.6L205.7,61.69L205.75,63.79L205.79,64.06L205.83,62.29L205.87,56.6L206,63.57L206.38,45.03L206.59,56.73L206.63,56.62L206.67,55.03L206.71,70.34L206.76,82.61L206.8,84.8L207.22,70.53L207.26,66.44L207.39,70.4L207.47,62.18L207.93,66.83L207.98,60.25L208.27,52.9L208.44,64.22L208.69,59.09L208.73,58.91L208.82,49.24L209.15,64.32L209.41,59.33L209.45,58.98L209.53,89.06L210.16,64.91L210.21,68.17L210.33,70.24L210.63,63.51L210.67,57.46L210.8,71.73L211.09,54.32L211.43,60.28L211.47,60.08L211.59,63.79L211.68,60.66L211.72,55.06L211.89,46.79L212.35,91.31L212.69,82.11L212.73,78.62L213.61,57.98L213.74,61.95L213.78,66.68L214.41,58.13L214.71,58.15L214.75,59.41L215.17,46.78L215.47,86.12L215.59,79.49L215.63,74.03L215.68,76.57L215.97,65.44L216.27,69.29L216.31,67.15L216.6,56.89L216.77,68.52L217.07,63.12L217.11,63.69L217.4,66.03L217.95,52.69L217.99,55.23L218.03,58.35L218.24,63.91L218.71,45.16L218.75,69.44L218.79,90.79L219.46,64.13L219.51,72.29L220.22,56.77L220.31,68.41L220.35,66.01L220.47,67.84L220.52,62.7L220.56,57.3L220.9,75.77L221.23,65.46L221.27,64.97L221.44,68.22L221.86,59.92L221.99,63.62L222.03,61.19L222.2,56.49L222.45,64.27L222.54,59.08L222.58,74.77L222.62,87.39L222.79,70.93L223.29,71.58L223.34,68.96L223.46,74.62L223.84,62.24L224.09,68.87L224.14,71.14L224.81,49.69L225.15,54.54L225.19,56.86L225.27,61.41L225.48,54.05L225.52,51.6L225.57,49.72L225.65,70.36L225.69,87.5L226.53,61.43L226.58,64.02L226.62,64.15L226.7,68.34L227.21,61.47L227.33,63.41L227.38,60.67L227.42,66.42L227.8,53.42L228.05,58.9L228.09,54.3L228.13,52.95L228.26,60.89L228.43,58.19L228.47,70.79L228.68,84.47L229.14,64.75L229.19,73.81L229.23,74.66L230.03,58.07L230.15,62.96L230.2,61.91L230.36,54.63L230.62,65.06L230.95,57.11L231,59.7L231.16,49.77L231.5,63.5L231.54,90.37L232.64,60.31L232.68,61.01L232.76,68.11L232.93,56.3L233.39,65.32L233.44,61.74L233.6,65.45L233.94,54.69L234.07,57.46L234.11,72.87L234.66,58.91L234.74,84.19L234.87,78.56L234.91,79.27L235.67,61.1L235.75,65.22L235.79,69.1L236.47,55.97L236.68,59.55L236.72,63.98L237.01,55.14L237.48,55.19L237.52,56.8L237.85,82.99L238.32,78.07L238.36,72.34L238.57,61.75L238.86,77.79L239.12,66.89L239.16,68.12L239.24,72.7L239.45,62.76L239.71,65.15L239.75,62.17L239.87,60.19L239.92,67.2L239.96,62.17L240,58.03L240.17,65.4L240.34,51.12L240.46,53L240.51,49.65L240.8,88.55L241.31,72.12L241.35,67.34L241.43,67.11L241.47,74.57L241.52,63.85L241.68,74.62L242.23,61.37L242.27,61.7L242.36,68.58L242.65,58.55L242.86,61.92L242.9,58.75L242.99,55.02L243.2,64.12L243.45,58.72L243.49,53.49L243.91,85.52L244.38,69.83L244.42,67.98L244.55,71.4L244.63,68.39L244.67,65.12L244.88,79.63L245.43,67.95L245.47,64.98L245.56,65.61L245.68,62.83L245.77,64.53L245.81,65.63L245.85,69.22L246.36,57.99L246.48,63.02L246.52,61.34L246.61,62.27L246.94,45.24L247.32,54.63L247.37,55.47L247.41,55.79L247.53,51.11L247.58,48.79L247.74,84.67L248.33,68.26L248.38,69.79L249.13,59.04L249.47,62.05L249.51,63.4L249.6,58.59L249.68,77.36L250.1,72.87L250.14,73.38L250.73,58L251.03,59.36L251.07,62.31L251.49,53.53L251.78,57.27L251.83,73.15L252.04,65.16L252.25,80.84L252.54,75.54L252.58,75.76L253.47,56.98L253.51,64.66L253.68,57.87L253.72,66.78L253.8,61.29L253.85,52.97L253.97,64.24L254.18,56.57L254.23,50.96L254.9,86.92L255.15,77.54L255.19,77.74L255.91,62.94L256.03,67.13L256.08,70.04L256.12,70.58L256.41,65.16L256.46,62.43L256.58,73.74L257.04,65.21L257.09,58.18L257.17,61.75L257.55,50.01L257.84,58.55L257.89,58.06L257.93,57.03L258.01,69.92L258.05,79.02L258.1,80.13L258.43,71.1L258.48,71.13L258.69,62.13L259.28,64.37L259.32,66.98L259.61,69.24L260.07,58.05L260.12,61.36L260.75,48.27L260.87,52.21L260.92,87.36L261.84,63.97L261.88,68.41L262.22,58.52L262.47,61.77L262.52,66.73L262.6,68.33L263.4,55.65L263.44,64.29L263.57,52.8L263.61,80.56L264.16,67.59L264.2,63.1L264.33,70.1L265,53.99L265.04,62.74L265.08,65.23L265.59,50.53L265.63,51.66L265.84,49.95L266.01,56.61L266.05,83.8L266.13,80.84L266.18,81.89L266.22,77.5L266.51,82.6L266.81,70.95L266.85,68.86L266.89,72.36L267.14,64.37L267.52,66.84L267.57,60.66L267.65,57.5L267.82,68.39L268.28,62.93L268.32,64.09L269,45.77L269.29,50.12L269.33,60.21L269.42,81.19L270.09,67.38L270.13,71.4L270.47,75.88L270.76,66.29L270.81,64.34L271.14,69.54L271.44,57.54L271.56,63.33L271.61,64.75L272.49,46.29L272.62,50.14L272.66,65.81L272.74,82.14L273.33,63.87L273.42,71.11L273.46,66.17L273.5,71.07L273.96,60.85L274.17,62.99L274.21,60.11L274.43,54.04L274.8,62.27L274.85,60.58L274.89,55.62L275.18,50.11L275.27,82.22L275.39,73.34L275.44,75.28L276.23,59.1L276.32,64.21L276.36,65.93L276.53,70.77L276.78,54.44L277.08,63.78L277.12,66.63L277.67,50.92L277.88,60.47L277.92,62.14L278.09,49.2L278.21,57.76L278.25,81.59L279.52,55.25L279.6,60.14L279.64,63.39L279.77,67.96L280.06,57.36L280.36,62.17L280.4,60.6L280.44,56.88L280.7,81.92L281.03,69.12L281.07,68.17L281.24,66.09L281.37,77.73L281.79,68.61L281.83,69.86L282.55,57.62L282.59,72.62L282.67,79.53L283.26,65.34L283.35,77.13L283.39,73.82L283.52,76.27L284.36,56.74L284.61,58.72L284.65,83.37L284.69,82.97L284.74,68.38L284.78,84.98L285.16,66.07L285.45,66.52L285.49,66.64L286.17,64.84L286.25,80.07L286.42,78.6L286.46,76.36L286.63,77.64L286.88,60.04L287.3,68.56L287.34,68.52L288.19,61.99L288.23,64.58L288.31,65.34L289.03,55.45L289.07,57.83L289.11,61.78L289.2,55.89L289.49,61.99L289.53,80.16L289.58,84.87L290.04,66.56L290.12,67.39L290.16,59.73L290.25,68.65L290.84,65.63L290.88,62.4L290.96,65.99L291.38,60.59L291.43,55.72L291.64,55.43L292.18,79.95L292.23,74.36L292.27,66.32L292.31,80.1L292.98,64.47L293.03,71.73L293.07,66.59L293.28,70.44L293.62,63.97L293.78,66.63L293.83,64.57L293.99,68.4L294.2,56.33L294.58,59.53L294.63,62.24L294.88,62.59L295.3,52.32L295.34,54.15L295.38,75.1L295.47,81.5L295.85,69.52L295.97,71.26L296.01,67.31L296.14,69.37L296.22,57.43L296.27,69.02L296.31,80.71L297.28,59.74L297.32,60.06L297.61,59.29L297.82,69.53L297.91,68.66L297.95,61.78L297.99,67.69L298.54,56.96L298.71,66.34L298.75,63.14L298.79,62.35L298.83,75.26L298.88,81.94L299.42,65.4L299.76,65.59L299.8,64.97L299.97,62.83L300.01,70.81L300.1,66.91L300.14,60.32L300.52,82.95L300.94,70.67L300.98,68.97L301.27,62.48L301.7,77.98L301.78,72.89L301.82,72.96L302.07,81.29L302.24,64.85L302.45,71.69L302.49,78.31L302.96,64.85" style="vector-effect: non-scaling-stroke; fill: none; stroke: rgb(0, 204, 150); stroke-opacity: 1; stroke-width: 2px; opacity: 1;"/></g><g class="points"/><g class="text"/></g></g></g><g class="overplot"/><path class="xlines-above crisp" d="M87,421H392" style="fill: none; stroke-width: 2px; stroke: rgb(0, 0, 0); stroke-opacity: 1;"/><path class="ylines-above crisp" d="M88,100V420" style="fill: none; stroke-width: 2px; stroke: rgb(0, 0, 0); stroke-opacity: 1;"/><g class="overlines-above"/><g class="xaxislayer-above"><path class="xtick ticks crisp" d="M0,422v5" transform="translate(89,0)" style="stroke: rgb(68, 68, 68); stroke-opacity: 1; stroke-width: 1px;"/><path class="xtick ticks crisp" d="M0,422v5" transform="translate(139.5,0)" style="stroke: rgb(68, 68, 68); stroke-opacity: 1; stroke-width: 1px;"/><path class="xtick ticks crisp" d="M0,422v5" transform="translate(190,0)" style="stroke: rgb(68, 68, 68); stroke-opacity: 1; stroke-width: 1px;"/><path class="xtick ticks crisp" d="M0,422v5" transform="translate(240.5,0)" style="stroke: rgb(68, 68, 68); stroke-opacity: 1; stroke-width: 1px;"/><path class="xtick ticks crisp" d="M0,422v5" transform="translate(291,0)" style="stroke: rgb(68, 68, 68); stroke-opacity: 1; stroke-width: 1px;"/><path class="xtick ticks crisp" d="M0,422v5" transform="translate(341.5,0)" style="stroke: rgb(68, 68, 68); stroke-opacity: 1; stroke-width: 1px;"/><path class="xtick ticks crisp" d="M0,422v5" transform="translate(392,0)" style="stroke: rgb(68, 68, 68); stroke-opacity: 1; stroke-width: 1px;"/><g class="xtick"><text text-anchor="middle" x="0" y="448.6" transform="translate(89,0)" style="font-family: 'Times New Roman', monospace; font-size: 18px; fill: rgb(105, 105, 105); fill-opacity: 1; white-space: pre; opacity: 1;">0</text></g><g class="xtick"><text text-anchor="middle" x="0" y="448.6" style="font-family: 'Times New Roman', monospace; font-size: 18px; fill: rgb(105, 105, 105); fill-opacity: 1; white-space: pre; opacity: 1;" transform="translate(139.5,0)">20</text></g><g class="xtick"><text text-anchor="middle" x="0" y="448.6" style="font-family: 'Times New Roman', monospace; font-size: 18px; fill: rgb(105, 105, 105); fill-opacity: 1; white-space: pre; opacity: 1;" transform="translate(190,0)">40</text></g><g class="xtick"><text text-anchor="middle" x="0" y="448.6" style="font-family: 'Times New Roman', monospace; font-size: 18px; fill: rgb(105, 105, 105); fill-opacity: 1; white-space: pre; opacity: 1;" transform="translate(240.5,0)">60</text></g><g class="xtick"><text text-anchor="middle" x="0" y="448.6" style="font-family: 'Times New Roman', monospace; font-size: 18px; fill: rgb(105, 105, 105); fill-opacity: 1; white-space: pre; opacity: 1;" transform="translate(291,0)">80</text></g><g class="xtick"><text text-anchor="middle" x="0" y="448.6" style="font-family: 'Times New Roman', monospace; font-size: 18px; fill: rgb(105, 105, 105); fill-opacity: 1; white-space: pre; opacity: 1;" transform="translate(341.5,0)">100</text></g><g class="xtick"><text text-anchor="middle" x="0" y="448.6" style="font-family: 'Times New Roman', monospace; font-size: 18px; fill: rgb(105, 105, 105); fill-opacity: 1; white-space: pre; opacity: 1;" transform="translate(392,0)">120</text></g></g><g class="yaxislayer-above"><path class="ytick ticks crisp" d="M87,0h-5" transform="translate(0,401.18)" style="stroke: rgb(68, 68, 68); stroke-opacity: 1; stroke-width: 1px;"/><path class="ytick ticks crisp" d="M87,0h-5" transform="translate(0,363.53)" style="stroke: rgb(68, 68, 68); stroke-opacity: 1; stroke-width: 1px;"/><path class="ytick ticks crisp" d="M87,0h-5" transform="translate(0,325.88)" style="stroke: rgb(68, 68, 68); stroke-opacity: 1; stroke-width: 1px;"/><path class="ytick ticks crisp" d="M87,0h-5" transform="translate(0,288.24)" style="stroke: rgb(68, 68, 68); stroke-opacity: 1; stroke-width: 1px;"/><path class="ytick ticks crisp" d="M87,0h-5" transform="translate(0,250.59)" style="stroke: rgb(68, 68, 68); stroke-opacity: 1; stroke-width: 1px;"/><path class="ytick ticks crisp" d="M87,0h-5" transform="translate(0,212.94)" style="stroke: rgb(68, 68, 68); stroke-opacity: 1; stroke-width: 1px;"/><path class="ytick ticks crisp" d="M87,0h-5" transform="translate(0,175.29000000000002)" style="stroke: rgb(68, 68, 68); stroke-opacity: 1; stroke-width: 1px;"/><path class="ytick ticks crisp" d="M87,0h-5" transform="translate(0,137.65)" style="stroke: rgb(68, 68, 68); stroke-opacity: 1; stroke-width: 1px;"/><path class="ytick ticks crisp" d="M87,0h-5" transform="translate(0,100)" style="stroke: rgb(68, 68, 68); stroke-opacity: 1; stroke-width: 1px;"/><g class="ytick"><text text-anchor="end" x="78.4" y="6.3" transform="translate(0,401.18)" style="font-family: 'Times New Roman', monospace; font-size: 18px; fill: rgb(105, 105, 105); fill-opacity: 1; white-space: pre; opacity: 1;">400</text></g><g class="ytick"><text text-anchor="end" x="78.4" y="6.3" style="font-family: 'Times New Roman', monospace; font-size: 18px; fill: rgb(105, 105, 105); fill-opacity: 1; white-space: pre; opacity: 1;" transform="translate(0,363.53)">600</text></g><g class="ytick"><text text-anchor="end" x="78.4" y="6.3" style="font-family: 'Times New Roman', monospace; font-size: 18px; fill: rgb(105, 105, 105); fill-opacity: 1; white-space: pre; opacity: 1;" transform="translate(0,325.88)">800</text></g><g class="ytick"><text text-anchor="end" x="78.4" y="6.3" style="font-family: 'Times New Roman', monospace; font-size: 18px; fill: rgb(105, 105, 105); fill-opacity: 1; white-space: pre; opacity: 1;" transform="translate(0,288.24)">1000</text></g><g class="ytick"><text text-anchor="end" x="78.4" y="6.3" style="font-family: 'Times New Roman', monospace; font-size: 18px; fill: rgb(105, 105, 105); fill-opacity: 1; white-space: pre; opacity: 1;" transform="translate(0,250.59)">1200</text></g><g class="ytick"><text text-anchor="end" x="78.4" y="6.3" style="font-family: 'Times New Roman', monospace; font-size: 18px; fill: rgb(105, 105, 105); fill-opacity: 1; white-space: pre; opacity: 1;" transform="translate(0,212.94)">1400</text></g><g class="ytick"><text text-anchor="end" x="78.4" y="6.3" style="font-family: 'Times New Roman', monospace; font-size: 18px; fill: rgb(105, 105, 105); fill-opacity: 1; white-space: pre; opacity: 1;" transform="translate(0,175.29000000000002)">1600</text></g><g class="ytick"><text text-anchor="end" x="78.4" y="6.3" style="font-family: 'Times New Roman', monospace; font-size: 18px; fill: rgb(105, 105, 105); fill-opacity: 1; white-space: pre; opacity: 1;" transform="translate(0,137.65)">1800</text></g><g class="ytick"><text text-anchor="end" x="78.4" y="6.3" style="font-family: 'Times New Roman', monospace; font-size: 18px; fill: rgb(105, 105, 105); fill-opacity: 1; white-space: pre; opacity: 1;" transform="translate(0,100)">2000</text></g></g><g class="overaxes-above"/></g></g><g class="polarlayer"/><g class="smithlayer"/><g class="ternarylayer"/><g class="geolayer"/><g class="funnelarealayer"/><g class="pielayer"/><g class="iciclelayer"/><g class="treemaplayer"/><g class="sunburstlayer"/><g class="glimages"/><defs id="topdefs-b58e94"><g class="clips"/><clipPath id="legendb58e94"><rect width="90" height="90" x="0" y="0"/></clipPath></defs><g class="layer-above"><g class="imagelayer"/><g class="shapelayer"/></g><g class="infolayer"><g class="legend" pointer-events="all" transform="translate(398.06,100)"><rect class="bg" shape-rendering="crispEdges" width="90" height="90" x="0" y="0" style="stroke: rgb(68, 68, 68); stroke-opacity: 1; fill: rgb(0, 0, 0); fill-opacity: 0; stroke-width: 0px;"/><g class="scrollbox" transform="" clip-path="url(#legendb58e94)"><g class="groups"><g class="traces" transform="translate(0,18.200000000000003)" style="opacity: 1;"><text class="legendtext" text-anchor="start" x="40" y="7.0200000000000005" style="font-family: 'Times New Roman', monospace; font-size: 18px; fill: rgb(105, 105, 105); fill-opacity: 1; white-space: pre;">CoN​<tspan style="font-size:70%" dy="0.3em">X</tspan><tspan dy="-0.21em">​</tspan></text><g class="layers" style="opacity: 1;"><g class="legendfill"/><g class="legendlines"><path class="js-line" d="M5,0h30" style="fill: none; stroke: rgb(99, 110, 250); stroke-opacity: 1; stroke-width: 2px;"/></g><g class="legendsymbols"><g class="legendpoints"/></g></g><rect class="legendtoggle" x="0" y="-13.200000000000001" width="84.015625" height="26.400000000000002" style="fill: rgb(0, 0, 0); fill-opacity: 0;"/></g><g class="traces" transform="translate(0,44.6)" style="opacity: 1;"><text class="legendtext" text-anchor="start" x="40" y="7.0200000000000005" style="font-family: 'Times New Roman', monospace; font-size: 18px; fill: rgb(105, 105, 105); fill-opacity: 1; white-space: pre;">NiN​<tspan style="font-size:70%" dy="0.3em">X</tspan><tspan dy="-0.21em">​</tspan></text><g class="layers" style="opacity: 1;"><g class="legendfill"/><g class="legendlines"><path class="js-line" d="M5,0h30" style="fill: none; stroke: rgb(239, 85, 59); stroke-opacity: 1; stroke-width: 2px;"/></g><g class="legendsymbols"><g class="legendpoints"/></g></g><rect class="legendtoggle" x="0" y="-13.200000000000001" width="84.015625" height="26.400000000000002" style="fill: rgb(0, 0, 0); fill-opacity: 0;"/></g><g class="traces" transform="translate(0,71)" style="opacity: 1;"><text class="legendtext" text-anchor="start" x="40" y="7.0200000000000005" style="font-family: 'Times New Roman', monospace; font-size: 18px; fill: rgb(105, 105, 105); fill-opacity: 1; white-space: pre;">FeN​<tspan style="font-size:70%" dy="0.3em">X</tspan><tspan dy="-0.21em">​</tspan></text><g class="layers" style="opacity: 1;"><g class="legendfill"/><g class="legendlines"><path class="js-line" d="M5,0h30" style="fill: none; stroke: rgb(0, 204, 150); stroke-opacity: 1; stroke-width: 2px;"/></g><g class="legendsymbols"><g class="legendpoints"/></g></g><rect class="legendtoggle" x="0" y="-13.200000000000001" width="84.015625" height="26.400000000000002" style="fill: rgb(0, 0, 0); fill-opacity: 0;"/></g></g></g><rect class="scrollbar" rx="20" ry="3" width="0" height="0" x="0" y="0" style="fill: rgb(128, 139, 164); fill-opacity: 1;"/></g><g class="g-gtitle"/><g class="g-xtitle"><text class="xtitle" x="240.5" y="483.009375" text-anchor="middle" style="font-family: 'Times New Roman', monospace; font-size: 22px; fill: rgb(105, 105, 105); opacity: 1; font-weight: normal; white-space: pre;">Time (min)</text></g><g class="g-ytitle" transform="translate(8.009765625,0)"><text class="ytitle" transform="rotate(-90,11.990624999999994,260)" x="11.990624999999994" y="260" text-anchor="middle" style="font-family: 'Times New Roman', monospace; font-size: 22px; fill: rgb(105, 105, 105); opacity: 1; font-weight: normal; white-space: pre;">Overpotential, η(mV) - iR​<tspan style="font-size:70%" dy="0.3em">u</tspan><tspan dy="-0.21em">​</tspan></text></g></g></svg>