<svg class="main-svg" xmlns="http://www.w3.org/2000/svg" xmlns:xlink="http://www.w3.org/1999/xlink" width="600" height="500" style="" viewBox="0 0 600 500"><rect x="0" y="0" width="600" height="500" style="fill: rgb(255, 255, 255); fill-opacity: 1;"/><defs id="defs-f70362"><g class="clips"><clipPath id="clipf70362xyplot" class="plotclip"><rect width="341" height="320"/></clipPath><clipPath class="axesclip" id="clipf70362x"><rect x="80" y="0" width="341" height="500"/></clipPath><clipPath class="axesclip" id="clipf70362y"><rect x="0" y="100" width="600" height="320"/></clipPath><clipPath class="axesclip" id="clipf70362xy"><rect x="80" y="100" width="341" height="320"/></clipPath></g><g class="gradients"/><g class="patterns"/></defs><g class="bglayer"><rect class="bg" x="80" y="100" width="341" height="320" style="fill: rgb(0, 0, 0); fill-opacity: 0; stroke-width: 0;"/></g><g class="layer-below"><g class="imagelayer"/><g class="shapelayer"/></g><g class="cartesianlayer"><g class="subplot xy"><g class="layer-subplot"><g class="shapelayer"/><g class="imagelayer"/></g><g class="minor-gridlayer"><g class="x"/><g class="y"/></g><g class="gridlayer"><g class="x"/><g class="y"/></g><g class="zerolinelayer"><path class="yzl zl crisp" transform="translate(0,408.15)" d="M80,0h341" style="stroke: rgb(128, 128, 128); stroke-opacity: 1; stroke-width: 1px;"/></g><path class="xlines-below"/><path class="ylines-below"/><g class="overlines-below"/><g class="xaxislayer-below"/><g class="yaxislayer-below"/><g class="overaxes-below"/><g class="plot" transform="translate(80,100)" clip-path="url(#clipf70362xyplot)"><g class="scatterlayer mlayer"><g class="trace scatter tracecfb4e5" style="stroke-miterlimit: 2; opacity: 1;"><g class="fills"/><g class="errorbars"/><g class="lines"><path class="js-line" d="M-139.67,308.21L-109.15,307.94L-108.51,307.94L126.37,307.2L126.53,307.17L135.93,306.18L135.7,306.1L136.81,306.03L147.46,303.2L147.64,303.04L150.99,301.84L150.99,301.64L157.04,298.89L157.19,298.65L160.43,296.6L160.87,296.33L163.15,294.88L163.47,294.58L166.01,292.37L166.58,292.03L167.43,291L167.62,290.65L169.5,289.2L169.97,288.83L172.51,286.52L172.88,286.15L172.91,285.57L173.97,285.18L174.42,283.92L175.09,283.51L177.83,281.33L177.18,280.89L180.93,276.73L180.39,276.24L182.98,274.78L182.53,274.27L182.8,273.28L183.8,272.77L183.64,272.24L184.62,271.72L184.67,271.2L185.62,270.68L185.53,269.6L186.49,269.09L188.26,266.39L188.88,265.85L188.98,264.69L189.07,264.12L190.57,262.38L190.51,261.8L194,257.03L193.88,256.43L196.44,252.11L196.37,251.48L197.48,250.24L198.38,249.58L197.74,248.91L198.22,248.29L199.78,245.68L200.27,245.04L200.95,243.03L200.99,242.36L202.53,241.01L202.49,240.31L202.71,238.96L203.62,238.27L204.12,236.21L204.94,235.54L205.43,233.43L206.01,232.71L207.04,231.28L206.49,230.56L208.42,228.42L208.32,227.66L210.13,223.24L210.89,222.48L212,219.45L212.8,218.66L212.57,217.15L212.92,216.42L214.25,214.82L214.19,213.95L214.95,212.41L215.28,211.61L217.23,206.86L216.69,206.1L218.13,205.31L217.69,204.5L219.52,201.32L219.48,200.4L221.67,194.77L222.75,193.96L222.19,193.11L222.57,192.24L223.18,190.47L223.58,189.67L225.08,184.67L225.32,183.83L227.57,179.79L227.3,178.93L229.51,172.71L230.61,171.84L230.17,170.97L230.6,170.14L230.24,169.35L231.06,168.54L232.24,164.77L232.71,163.83L237.42,149.46L237.83,148.56L239.11,143.78L239.69,142.85L239.78,141.03L240.47,140.17L241.15,136.26L241.64,135.32L243.01,131.77L243.07,130.8L244.74,125.77L244.79,124.62L245.59,120.77L246.4,119.85L246.63,117.04L247.34,116.11L247.1,115.16L248.17,114.21L248.65,111.3L249.24,110.34L250.44,105.76L251,104.67L251.62,101.82L252.37,100.92L252.42,97.04L252.88,96.15L253.23,94.15L253.92,93.18L254.38,91.06L254.13,89.91L257.11,82.69L256.88,81.62L257.41,78.3L258.05,77.51L260.39,67.95L260.79,66.63L260.61,65.63L261.31,64.84L261.61,62.97L261.48,61.94L262.36,60.99L262.38,59.72L263.13,57.91L263.22,56.92L267.96,41.4L266.5,45.17L266.78,46.16L265.64,48.36L265.58,49.63L261.84,66.28L261.35,67.42L260.84,70.45L259.94,71L259.88,74.5L259.4,75.55L258.4,76.45L258.83,77.6L258.1,80.94L257.41,82.09L257.64,84.2L256.66,85.19L254.29,96.15L253.85,97.34L252.07,104.55L251.57,105.54L251.79,106.52L251.24,107.54L249.17,114.61L249.58,115.57L248.1,118.51L248.02,119.5L247.63,121.39L247.1,122.43L246.62,124.41L246.44,125.45L245.21,128.78L245.59,129.93L244.36,132.71L244.4,133.8L242.05,141.68L241.79,142.47L240.96,144.45L240.77,145.4L239.72,148.44L239.23,149.4L239,152.29L238.54,153.19L235.18,164.52L234.43,165.38L233.52,169.13L233.29,170.01L232.24,172.84L232.36,173.77L230.96,177.48L229.94,178.22L230.76,179.15L230.18,180.12L228.6,184.58L227.93,185.36L227.81,187.16L227.93,187.99L226.36,190.66L226.25,191.48L224.75,195.02L225.32,195.89L223.8,198.49L223.23,199.3L222.08,203.53L221.35,204.31L219.04,210.87L218.67,211.69L217.92,213.29L218.02,214.01L217.28,215.59L216.77,216.74L216.36,218.38L215.61,219.15L214.25,223.74L213.76,224.48L213,226.79L212.69,227.55L211.57,229.76L211.23,230.51L209.42,234.85L208.71,235.57L208.16,237.71L207.25,238.41L206.29,241.21L205.85,241.92L204.94,244L204.51,244.66L202.34,247.95L202.8,248.61L201.39,250.58L201.11,251.23L197.97,257.48L197.34,258.08L193.81,264L193.45,264.57L193.15,265.68L192.33,266.22L189.64,270.58L188.79,271.11L188.72,272.67L187.85,273.18L186.78,274.7L186.4,275.18L185.36,276.64L185.42,277.11L183.08,278.99L183.07,279.45L181.03,281.7L180.48,282.14L180.46,283.02L179.68,283.43L177.38,285.5L177.52,285.91L174.33,288.99L173.72,289.35L173.14,290.08L172.74,290.43L169.88,292.82L169.94,293.13L166.91,294.97L166.51,295.28L166.6,295.57L165.87,295.85L162.92,298.01L162.13,298.26L156.97,301.05L156.92,301.25L145.27,305.33L144.53,305.43L134.1,307.22L133.83,307.16L127.38,307.78L126.54,307.81L126.73,307.83L122.41,308.01L122.42,308.02L121.31,308.04L72.29,308.31L72.54,308.31L71.92,308.31L-140.66,308.58" style="vector-effect: non-scaling-stroke; fill: none; stroke: rgb(136, 204, 238); stroke-opacity: 1; stroke-width: 2px; opacity: 1;"/></g><g class="points"/><g class="text"/></g><g class="trace scatter tracee0b9ec" style="stroke-miterlimit: 2; opacity: 1;"><g class="fills"/><g class="errorbars"/><g class="lines"><path class="js-line" d="M-139.2,308.16L-15.17,308.14L-15.37,308.14L-14.58,308.14L201.5,307.4L202.59,307.38L220.37,305.96L220.93,305.91L243.5,302.28L243.61,302.19L253.49,300.05L253.24,299.94L265.89,296.47L266.07,296.33L266.66,296.06L267.64,295.93L271.79,294.34L272.69,294.2L303.22,281.65L303,281.46L306.36,280.03L306.74,279.83L309.78,278.49L304.67,281.66L304.32,281.92L301.31,283.39L301.35,283.64L300.56,284.09L299.94,284.32L288.56,289.92L288,290.1L287.36,290.48L286.45,290.66L285.97,291.21L285.38,291.38L275.53,294.89L275.77,295.05L248.67,301.94L247.88,302.02L229.51,304.83L229.17,304.88L175.53,307.94L175.12,307.94L175.27,307.95L166.04,308.04L165.38,308.05L-139.93,308.17" style="vector-effect: non-scaling-stroke; fill: none; stroke: rgb(17, 119, 51); stroke-opacity: 1; stroke-width: 2px; opacity: 1;"/></g><g class="points"/><g class="text"/></g><g class="trace scatter trace074d77" style="stroke-miterlimit: 2; opacity: 1;"><g class="fills"/><g class="errorbars"/><g class="lines"><path class="js-line" d="M-138.94,308.95L-48.61,308.18L-47.8,308.18L47.16,307.43L47.69,307.42L72.96,307.04L73.87,307.04L73.57,307.02L84.37,306.85L84.36,306.84L85.01,306.83L126.66,305.63L127.18,305.61L171.51,302.76L171.88,302.72L204.39,297.4L204.53,297.3L210.97,295.75L211.55,295.63L218.57,293.76L218.82,293.64L221.61,292.75L222.19,292.63L226.37,291.16L226.77,291.02L238.34,287.03L238.23,286.87L238.74,286.7L242.34,285.43L242.87,285.26L243.12,284.92L243.79,284.77L246.62,283.56L247.43,283.39L248.53,282.86L248.91,282.69L249.31,282.35L250.05,282.15L253.35,280.7L253.99,280.5L263.63,275.81L264.2,275.6L274.37,270.38L274.59,270.22L280.14,267.68L280.44,267.43L286.87,264.37L287.51,264.21L289.82,262.92L290.44,262.79L293.77,261.52L293.95,261.3L300.73,259.36L299.99,260.06L299.46,260.41L296.62,263.04L296.07,263.27L295.19,264.16L294.57,264.38L292.55,266.13L292.18,266.4L289.61,268.3L289.47,268.6L284.59,271.24L284.38,271.49L283.86,271.95L283.16,272.18L281.79,273.1L281.19,273.33L280.59,273.78L280.15,274.02L277.73,275.24L276.71,275.44L277.25,275.87L276.44,276.05L275.33,276.27L275.21,276.86L274,277.05L270.78,278.83L270.5,279.03L248.56,288.15L247.75,288.3L244.1,289.73L243.65,289.85L232.86,292.98L233.26,293.1L217.32,297.18L217.43,297.28L205.39,299.73L204.93,299.81L184.13,303.18L183.42,303.24L179.84,303.76L178.98,303.81L143.11,307.09L142.47,307.12L134.47,307.57L134.11,307.6L87.2,309.08L86.41,309.09L-139.53,308.95" style="vector-effect: non-scaling-stroke; fill: none; stroke: rgb(51, 34, 136); stroke-opacity: 1; stroke-width: 2px; opacity: 1;"/></g><g class="points"/><g class="text"/></g><g class="trace scatter trace023f3c" style="stroke-miterlimit: 2; opacity: 1;"><g class="fills"/><g class="errorbars"/><g class="lines"><path class="js-line" d="M-139.46,308.15L289.39,307.4L289.78,307.39L314.86,307.01L269.11,307.74L268.63,307.75L-139.55,308.15L-139.54,308.15" style="vector-effect: non-scaling-stroke; fill: none; stroke: rgb(170, 68, 153); stroke-opacity: 1; stroke-width: 2px; opacity: 1;"/></g><g class="points"/><g class="text"/></g><g class="trace scatter trace7cfeee" style="stroke-miterlimit: 2; opacity: 1;"><g class="fills"/><g class="errorbars"/><g class="lines"><path class="js-line" d="M-135.33,308.36L56.38,307.03L57.82,307L90.02,306.7L91.29,306.7L137.45,306.34L138.79,306.21L150.76,304.22L152.3,303.89L161.69,300.96L162.9,300.45L173.24,295.5L174.3,294.77L183.1,289.11L184.07,288.2L187.95,285.35L189.24,284.35L196.24,277.82L197.5,276.64L200.99,272.98L202.1,271.73L210.28,262.35L211.25,260.93L219.33,250.24L220.27,248.66L224.98,240.34L226.67,238.62L237.17,220.34L238.04,218.41L242.4,210.53L243.1,208.48L263.01,165.26L263.9,162.95L273.33,139.68L274.45,137.33L281.83,118.08L280.72,122.29L280,125.13L275.62,138.09L274.47,140.62L274.08,143.24L272.69,144.49L269.59,151.53L268.96,154.16L266.17,156.87L265.65,159.19L250.21,195.69L249.1,197.7L236.88,221.68L235.5,222.38L231.57,229.7L230.27,231.57L222.05,245.18L220.57,246.81L217.43,251.5L216.24,253.04L204.33,268.39L202.89,269.65L186.33,284.97L184.92,285.9L172.35,294.02L171.13,294.72L160.72,299.58L159.4,300.1L150.24,303.2L148.9,303.57L136.85,306.17L135.48,306.38L120.37,307.86L118.97,307.93L86.8,308.47L85.04,308.48L-135.8,308.36" style="vector-effect: non-scaling-stroke; fill: none; stroke: rgb(68, 170, 153); stroke-opacity: 1; stroke-width: 2px; opacity: 1;"/></g><g class="points"/><g class="text"/></g><g class="trace scatter trace3270ad" style="stroke-miterlimit: 2; opacity: 1;"><g class="fills"/><g class="errorbars"/><g class="lines"><path class="js-line" d="M-135.75,308.45L-4.84,306.8L-4.49,306.8L40.85,306.07L41.22,306.02L60.85,305.32L61.24,305.35L100.18,306.17L100.77,306.16L123.39,305.41L123.66,305.36L133.99,303.4L134.73,303.27L140.2,301L140.31,300.78L146.81,296.46L146.96,296.13L150.21,293.34L150.6,292.96L158.34,283.88L158.7,283.41L162.54,277.93L162.86,277.41L165.97,272.47L166.27,271.91L187.3,231.31L187.45,230.63L196.61,209.11L196.83,208.37L204.09,190.62L204.33,189.83L207.58,181.49L207.96,180.79L214.26,163.42L214.63,162.61L215.59,158.84L216.34,157.97L216.65,156.29L216.67,155.6L217.95,154.06L217.88,153.23L218.49,151.73L219.06,150.87L219.61,148.5L220.05,147.67L221.34,143.64L221.68,142.89L223.83,135.17L223.99,134.29L224.85,131.96L225.16,131.1L226.17,127.91L226.63,127.08L229.21,118.3L229.61,117.38L233.01,106.77L233.36,106.01L235.86,98.25L236.02,97.34L243.03,75.47L243.4,74.83L244.11,71.85L244.53,71.22L245.11,68.57L245.57,67.72L246.13,64.97L246.48,64.1L248.73,57.01L248.9,56.27L250.02,51.85L250.47,50.87L251.72,47.84L252.13,46.73L252.62,44.24L253.12,43.48L255.51,34.08L255.65,33.1L256.68,30.78L256.53,29.35L257.99,26.16L258.07,25.27L258.63,24.56L256.67,31.01L256.63,32.08L255.69,36.18L255.35,37.2L250.62,53.49L249.95,52.42L246.16,64.48L246.11,65.61L244.97,67.9L245.02,69.1L243.8,69.45L243.71,70.33L242.62,74.92L242.3,75.85L240.78,80.87L240.67,81.64L239.57,86.05L239.16,86.82L238.37,88.52L238.4,89.47L225.57,130.38L225.19,130.91L219.34,146.55L219.24,147.33L215.21,158.73L215.06,159.62L212.25,165.74L211.89,166.57L196.99,205.17L196.52,205.88L180.16,242.17L179.78,242.77L178.36,245.28L178.05,245.91L177.55,247.16L177.02,247.77L175.79,250.25L175.5,250.85L174.33,253.25L174,253.86L171.7,257.49L171.72,258.07L170.23,260.93L169.5,261.51L167.6,264.94L167.37,265.5L166.03,267.71L165.61,268.25L163.51,271.53L163.26,272.06L147.2,292.99L146.71,293.37L141.25,298.58L140.66,298.94L137.33,301.28L136.97,301.54L135.15,302.78L134.73,303.01L122.22,307.55L121.68,307.64L119.61,308.02L119.09,308.09L110.7,308.91L110.26,308.94L83.65,309.37L83.04,309.36L18.52,310.07L18.26,310.11L7.63,310.62L7.18,310.6L-136.03,308.45" style="vector-effect: non-scaling-stroke; fill: none; stroke: rgb(153, 153, 51); stroke-opacity: 1; stroke-width: 2px; opacity: 1;"/></g><g class="points"/><g class="text"/></g></g></g><g class="overplot"/><path class="xlines-above crisp" d="M78,421H421" style="fill: none; stroke-width: 2px; stroke: rgb(0, 0, 0); stroke-opacity: 1;"/><path class="ylines-above crisp" d="M79,100V420" style="fill: none; stroke-width: 2px; stroke: rgb(0, 0, 0); stroke-opacity: 1;"/><g class="overlines-above"/><g class="xaxislayer-above"><path class="xtick ticks crisp" d="M0,422v5" transform="translate(80,0)" style="stroke: rgb(68, 68, 68); stroke-opacity: 1; stroke-width: 1px;"/><path class="xtick ticks crisp" d="M0,422v5" transform="translate(125.47,0)" style="stroke: rgb(68, 68, 68); stroke-opacity: 1; stroke-width: 1px;"/><path class="xtick ticks crisp" d="M0,422v5" transform="translate(170.93,0)" style="stroke: rgb(68, 68, 68); stroke-opacity: 1; stroke-width: 1px;"/><path class="xtick ticks crisp" d="M0,422v5" transform="translate(216.4,0)" style="stroke: rgb(68, 68, 68); stroke-opacity: 1; stroke-width: 1px;"/><path class="xtick ticks crisp" d="M0,422v5" transform="translate(261.87,0)" style="stroke: rgb(68, 68, 68); stroke-opacity: 1; stroke-width: 1px;"/><path class="xtick ticks crisp" d="M0,422v5" transform="translate(307.33000000000004,0)" style="stroke: rgb(68, 68, 68); stroke-opacity: 1; stroke-width: 1px;"/><path class="xtick ticks crisp" d="M0,422v5" transform="translate(352.8,0)" style="stroke: rgb(68, 68, 68); stroke-opacity: 1; stroke-width: 1px;"/><path class="xtick ticks crisp" d="M0,422v5" transform="translate(398.27,0)" style="stroke: rgb(68, 68, 68); stroke-opacity: 1; stroke-width: 1px;"/><g class="xtick"><text text-anchor="middle" x="0" y="448.6" transform="translate(80,0)" style="font-family: 'Times New Roman', monospace; font-size: 18px; fill: rgb(105, 105, 105); fill-opacity: 1; white-space: pre; opacity: 1;">0</text></g><g class="xtick"><text text-anchor="middle" x="0" y="448.6" style="font-family: 'Times New Roman', monospace; font-size: 18px; fill: rgb(105, 105, 105); fill-opacity: 1; white-space: pre; opacity: 1;" transform="translate(125.47,0)">0.1</text></g><g class="xtick"><text text-anchor="middle" x="0" y="448.6" style="font-family: 'Times New Roman', monospace; font-size: 18px; fill: rgb(105, 105, 105); fill-opacity: 1; white-space: pre; opacity: 1;" transform="translate(170.93,0)">0.2</text></g><g class="xtick"><text text-anchor="middle" x="0" y="448.6" style="font-family: 'Times New Roman', monospace; font-size: 18px; fill: rgb(105, 105, 105); fill-opacity: 1; white-space: pre; opacity: 1;" transform="translate(216.4,0)">0.3</text></g><g class="xtick"><text text-anchor="middle" x="0" y="448.6" style="font-family: 'Times New Roman', monospace; font-size: 18px; fill: rgb(105, 105, 105); fill-opacity: 1; white-space: pre; opacity: 1;" transform="translate(261.87,0)">0.4</text></g><g class="xtick"><text text-anchor="middle" x="0" y="448.6" style="font-family: 'Times New Roman', monospace; font-size: 18px; fill: rgb(105, 105, 105); fill-opacity: 1; white-space: pre; opacity: 1;" transform="translate(307.33000000000004,0)">0.5</text></g><g class="xtick"><text text-anchor="middle" x="0" y="448.6" style="font-family: 'Times New Roman', monospace; font-size: 18px; fill: rgb(105, 105, 105); fill-opacity: 1; white-space: pre; opacity: 1;" transform="translate(352.8,0)">0.6</text></g><g class="xtick"><text text-anchor="middle" x="0" y="448.6" style="font-family: 'Times New Roman', monospace; font-size: 18px; fill: rgb(105, 105, 105); fill-opacity: 1; white-space: pre; opacity: 1;" transform="translate(398.27,0)">0.7</text></g></g><g class="yaxislayer-above"><path class="ytick ticks crisp" d="M78,0h-5" transform="translate(0,408.15)" style="stroke: rgb(68, 68, 68); stroke-opacity: 1; stroke-width: 1px;"/><path class="ytick ticks crisp" d="M78,0h-5" transform="translate(0,360.74)" style="stroke: rgb(68, 68, 68); stroke-opacity: 1; stroke-width: 1px;"/><path class="ytick ticks crisp" d="M78,0h-5" transform="translate(0,313.33000000000004)" style="stroke: rgb(68, 68, 68); stroke-opacity: 1; stroke-width: 1px;"/><path class="ytick ticks crisp" d="M78,0h-5" transform="translate(0,265.93)" style="stroke: rgb(68, 68, 68); stroke-opacity: 1; stroke-width: 1px;"/><path class="ytick ticks crisp" d="M78,0h-5" transform="translate(0,218.51999999999998)" style="stroke: rgb(68, 68, 68); stroke-opacity: 1; stroke-width: 1px;"/><path class="ytick ticks crisp" d="M78,0h-5" transform="translate(0,171.11)" style="stroke: rgb(68, 68, 68); stroke-opacity: 1; stroke-width: 1px;"/><path class="ytick ticks crisp" d="M78,0h-5" transform="translate(0,123.7)" style="stroke: rgb(68, 68, 68); stroke-opacity: 1; stroke-width: 1px;"/><g class="ytick"><text text-anchor="end" x="69.4" y="6.3" transform="translate(0,408.15)" style="font-family: 'Times New Roman', monospace; font-size: 18px; fill: rgb(105, 105, 105); fill-opacity: 1; white-space: pre; opacity: 1;">0</text></g><g class="ytick"><text text-anchor="end" x="69.4" y="6.3" style="font-family: 'Times New Roman', monospace; font-size: 18px; fill: rgb(105, 105, 105); fill-opacity: 1; white-space: pre; opacity: 1;" transform="translate(0,360.74)">20</text></g><g class="ytick"><text text-anchor="end" x="69.4" y="6.3" style="font-family: 'Times New Roman', monospace; font-size: 18px; fill: rgb(105, 105, 105); fill-opacity: 1; white-space: pre; opacity: 1;" transform="translate(0,313.33000000000004)">40</text></g><g class="ytick"><text text-anchor="end" x="69.4" y="6.3" style="font-family: 'Times New Roman', monospace; font-size: 18px; fill: rgb(105, 105, 105); fill-opacity: 1; white-space: pre; opacity: 1;" transform="translate(0,265.93)">60</text></g><g class="ytick"><text text-anchor="end" x="69.4" y="6.3" style="font-family: 'Times New Roman', monospace; font-size: 18px; fill: rgb(105, 105, 105); fill-opacity: 1; white-space: pre; opacity: 1;" transform="translate(0,218.51999999999998)">80</text></g><g class="ytick"><text text-anchor="end" x="69.4" y="6.3" style="font-family: 'Times New Roman', monospace; font-size: 18px; fill: rgb(105, 105, 105); fill-opacity: 1; white-space: pre; opacity: 1;" transform="translate(0,171.11)">100</text></g><g class="ytick"><text text-anchor="end" x="69.4" y="6.3" style="font-family: 'Times New Roman', monospace; font-size: 18px; fill: rgb(105, 105, 105); fill-opacity: 1; white-space: pre; opacity: 1;" transform="translate(0,123.7)">120</text></g></g><g class="overaxes-above"/></g></g><g class="polarlayer"/><g class="smithlayer"/><g class="ternarylayer"/><g class="geolayer"/><g class="funnelarealayer"/><g class="pielayer"/><g class="iciclelayer"/><g class="treemaplayer"/><g class="sunburstlayer"/><g class="glimages"/><defs id="topdefs-f70362"><g class="clips"/><clipPath id="legendf70362"><rect width="160" height="169" x="0" y="0"/></clipPath></defs><g class="layer-above"><g class="imagelayer"/><g class="shapelayer"/></g><g class="infolayer"><g class="legend" pointer-events="all" transform="translate(427.82,100)"><rect class="bg" shape-rendering="crispEdges" width="160" height="169" x="0" y="0" style="stroke: rgb(68, 68, 68); stroke-opacity: 1; fill: rgb(255, 255, 255); fill-opacity: 1; stroke-width: 0px;"/><g class="scrollbox" transform="" clip-path="url(#legendf70362)"><g class="groups"><g class="traces" transform="translate(0,18.200000000000003)" style="opacity: 1;"><text class="legendtext" text-anchor="start" x="40" y="7.0200000000000005" style="font-family: 'Times New Roman', monospace; font-size: 18px; fill: rgb(105, 105, 105); fill-opacity: 1; white-space: pre;">IrO​<tspan style="font-size:70%" dy="0.3em">x</tspan><tspan dy="-0.21em">​</tspan></text><g class="layers" style="opacity: 1;"><g class="legendfill"/><g class="legendlines"><path class="js-line" d="M5,0h30" style="fill: none; stroke: rgb(136, 204, 238); stroke-opacity: 1; stroke-width: 2px;"/></g><g class="legendsymbols"><g class="legendpoints"/></g></g><rect class="legendtoggle" x="0" y="-13.200000000000001" width="154.8125" height="26.400000000000002" style="fill: rgb(0, 0, 0); fill-opacity: 0;"/></g><g class="traces" transform="translate(0,44.6)" style="opacity: 1;"><text class="legendtext" text-anchor="start" x="40" y="7.0200000000000005" style="font-family: 'Times New Roman', monospace; font-size: 18px; fill: rgb(105, 105, 105); fill-opacity: 1; white-space: pre;">FeN​<tspan style="font-size:70%" dy="0.3em">x</tspan><tspan dy="-0.21em">​</tspan></text><g class="layers" style="opacity: 1;"><g class="legendfill"/><g class="legendlines"><path class="js-line" d="M5,0h30" style="fill: none; stroke: rgb(17, 119, 51); stroke-opacity: 1; stroke-width: 2px;"/></g><g class="legendsymbols"><g class="legendpoints"/></g></g><rect class="legendtoggle" x="0" y="-13.200000000000001" width="154.8125" height="26.400000000000002" style="fill: rgb(0, 0, 0); fill-opacity: 0;"/></g><g class="traces" transform="translate(0,71)" style="opacity: 1;"><text class="legendtext" text-anchor="start" x="40" y="7.0200000000000005" style="font-family: 'Times New Roman', monospace; font-size: 18px; fill: rgb(105, 105, 105); fill-opacity: 1; white-space: pre;">CoN​<tspan style="font-size:70%" dy="0.3em">x</tspan><tspan dy="-0.21em">​</tspan></text><g class="layers" style="opacity: 1;"><g class="legendfill"/><g class="legendlines"><path class="js-line" d="M5,0h30" style="fill: none; stroke: rgb(51, 34, 136); stroke-opacity: 1; stroke-width: 2px;"/></g><g class="legendsymbols"><g class="legendpoints"/></g></g><rect class="legendtoggle" x="0" y="-13.200000000000001" width="154.8125" height="26.400000000000002" style="fill: rgb(0, 0, 0); fill-opacity: 0;"/></g><g class="traces" transform="translate(0,97.4)" style="opacity: 1;"><text class="legendtext" text-anchor="start" x="40" y="7.0200000000000005" style="font-family: 'Times New Roman', monospace; font-size: 18px; fill: rgb(105, 105, 105); fill-opacity: 1; white-space: pre;">NiN​<tspan style="font-size:70%" dy="0.3em">x</tspan><tspan dy="-0.21em">​</tspan></text><g class="layers" style="opacity: 1;"><g class="legendfill"/><g class="legendlines"><path class="js-line" d="M5,0h30" style="fill: none; stroke: rgb(170, 68, 153); stroke-opacity: 1; stroke-width: 2px;"/></g><g class="legendsymbols"><g class="legendpoints"/></g></g><rect class="legendtoggle" x="0" y="-13.200000000000001" width="154.8125" height="26.400000000000002" style="fill: rgb(0, 0, 0); fill-opacity: 0;"/></g><g class="traces" transform="translate(0,123.80000000000001)" style="opacity: 1;"><text class="legendtext" text-anchor="start" x="40" y="7.0200000000000005" style="font-family: 'Times New Roman', monospace; font-size: 18px; fill: rgb(105, 105, 105); fill-opacity: 1; white-space: pre;">Co​<tspan style="font-size:70%" dy="0.3em">45</tspan><tspan dy="-0.21em">​</tspan>Ni​<tspan style="font-size:70%" dy="0.3em">45</tspan><tspan dy="-0.21em">​</tspan>Fe​<tspan style="font-size:70%" dy="0.3em">10</tspan><tspan dy="-0.21em">​</tspan>N​<tspan style="font-size:70%" dy="0.3em">x</tspan><tspan dy="-0.21em">​</tspan></text><g class="layers" style="opacity: 1;"><g class="legendfill"/><g class="legendlines"><path class="js-line" d="M5,0h30" style="fill: none; stroke: rgb(68, 170, 153); stroke-opacity: 1; stroke-width: 2px;"/></g><g class="legendsymbols"><g class="legendpoints"/></g></g><rect class="legendtoggle" x="0" y="-13.200000000000001" width="154.8125" height="26.400000000000002" style="fill: rgb(0, 0, 0); fill-opacity: 0;"/></g><g class="traces" transform="translate(0,150.2)" style="opacity: 1;"><text class="legendtext" text-anchor="start" x="40" y="7.0200000000000005" style="font-family: 'Times New Roman', monospace; font-size: 18px; fill: rgb(105, 105, 105); fill-opacity: 1; white-space: pre;">Co​<tspan style="font-size:70%" dy="0.3em">57</tspan><tspan dy="-0.21em">​</tspan>Ni​<tspan style="font-size:70%" dy="0.3em">14</tspan><tspan dy="-0.21em">​</tspan>Fe​<tspan style="font-size:70%" dy="0.3em">29</tspan><tspan dy="-0.21em">​</tspan>N​<tspan style="font-size:70%" dy="0.3em">x</tspan><tspan dy="-0.21em">​</tspan></text><g class="layers" style="opacity: 1;"><g class="legendfill"/><g class="legendlines"><path class="js-line" d="M5,0h30" style="fill: none; stroke: rgb(153, 153, 51); stroke-opacity: 1; stroke-width: 2px;"/></g><g class="legendsymbols"><g class="legendpoints"/></g></g><rect class="legendtoggle" x="0" y="-13.200000000000001" width="154.8125" height="26.400000000000002" style="fill: rgb(0, 0, 0); fill-opacity: 0;"/></g></g></g><rect class="scrollbar" rx="20" ry="3" width="0" height="0" x="0" y="0" style="fill: rgb(128, 139, 164); fill-opacity: 1;"/></g><g class="g-gtitle"/><g class="g-xtitle"><text class="xtitle" x="250.5" y="483.009375" text-anchor="middle" style="font-family: 'Times New Roman', monospace; font-size: 22px; fill: rgb(105, 105, 105); opacity: 1; font-weight: normal; white-space: pre;">Overpotential, η(V) - iR​<tspan style="font-size:70%" dy="0.3em">u</tspan><tspan dy="-0.21em">​</tspan></text></g><g class="g-ytitle" transform="translate(11.259765625,0)"><text class="ytitle" transform="rotate(-90,11.990624999999994,260)" x="11.990624999999994" y="260" text-anchor="middle" style="font-family: 'Times New Roman', monospace; font-size: 22px; fill: rgb(105, 105, 105); opacity: 1; font-weight: normal; white-space: pre;">Current (mA/cm​<tspan style="font-size:70%" dy="-0.6em">2</tspan><tspan dy="0.42em">​</tspan>)</text></g></g></svg>