<svg class="main-svg" xmlns="http://www.w3.org/2000/svg" xmlns:xlink="http://www.w3.org/1999/xlink" width="500" height="500" style="" viewBox="0 0 500 500"><rect x="0" y="0" width="500" height="500" style="fill: rgb(0, 0, 0); fill-opacity: 0;"/><defs id="defs-df284f"><g class="clips"><clipPath id="clipdf284fxyplot" class="plotclip"><rect width="240" height="320"/></clipPath><clipPath class="axesclip" id="clipdf284fx"><rect x="80" y="0" width="240" height="500"/></clipPath><clipPath class="axesclip" id="clipdf284fy"><rect x="0" y="100" width="500" height="320"/></clipPath><clipPath class="axesclip" id="clipdf284fxy"><rect x="80" y="100" width="240" height="320"/></clipPath></g><g class="gradients"/><g class="patterns"/></defs><g class="bglayer"><rect class="bg" x="80" y="100" width="240" height="320" style="fill: rgb(0, 0, 0); fill-opacity: 0; stroke-width: 0;"/></g><g class="layer-below"><g class="imagelayer"/><g class="shapelayer"/></g><g class="cartesianlayer"><g class="subplot xy"><g class="layer-subplot"><g class="shapelayer"/><g class="imagelayer"/></g><g class="minor-gridlayer"><g class="x"/><g class="y"/></g><g class="gridlayer"><g class="x"/><g class="y"/></g><g class="zerolinelayer"/><path class="xlines-below"/><path class="ylines-below"/><g class="overlines-below"/><g class="xaxislayer-below"/><g class="yaxislayer-below"/><g class="overaxes-below"/><g class="plot" transform="translate(80,100)" clip-path="url(#clipdf284fxyplot)"><g class="scatterlayer mlayer"><g class="trace scatter trace861a69" style="stroke-miterlimit: 2; opacity: 1;"><g class="fills"/><g class="errorbars"/><g class="lines"><path class="js-line" d="M0,291.74L0.75,304.74L0.75,304.7L0.76,304.67L2.25,304.68L2.27,304.61L2.27,304.59L4.64,304.1L4.64,304.08L4.65,304.04L6.26,303.77L6.27,303.72L6.27,303.69L7.42,303.49L7.44,303.39L7.44,303.36L8.33,303.26L8.36,303.18L8.36,303.14L9.72,302.92L9.73,302.85L9.74,302.79L10.76,302.61L10.78,302.56L10.78,302.52L12.28,302.2L12.28,302.17L12.28,302.11L13.39,301.91L13.4,301.85L13.41,301.8L14.56,301.48L14.57,301.41L14.58,301.39L14.92,301.45L14.93,301.43L14.94,300.05L14.94,297.72L15,314.44L15.69,301.17L15.7,301.15L16.02,301.17L16.02,300.51L16.03,310.67L16.03,296.23L16.78,300.86L16.79,300.83L18.45,300.41L18.45,300.38L18.46,300.34L19.27,300.24L19.27,300.19L19.28,300.16L21.28,299.79L21.28,299.77L21.28,299.7L29.13,297.99L29.13,298.05L29.14,297.98L29.91,297.99L29.96,297.92L29.96,297.85L30.86,297.84L30.87,297.79L33.02,297.26L33.03,297.32L33.03,297.35L34.2,297.14L34.2,297.16L34.21,297.19L35.04,296.91L35.06,296.93L35.07,296.99L36.53,296.71L36.54,296.76L36.54,296.79L37.71,296.51L37.73,296.58L37.74,296.6L39.75,296.12L39.76,296.15L39.77,296.21L42.48,295.73L42.49,295.8L42.5,295.84L43.34,295.52L43.35,295.57L43.35,295.61L44.18,295.35L44.28,295.49L44.28,295.53L45.1,295.36L45.12,295.48L45.12,295.53L45.89,295.23L45.92,295.34L45.93,295.37L46.71,295.04L46.74,295.07L46.75,295.13L47.08,295.24L47.36,294.94L47.53,294.98L47.53,295.02L47.88,295.09L48.15,294.83L48.29,294.99L48.3,295.01L49.01,294.71L49.15,294.85L49.16,294.86L49.99,294.58L50.02,294.67L50.02,294.71L50.18,294.59L50.75,294.78L50.8,294.7L50.8,294.61L51.77,294.39L51.77,294.47L51.77,294.55L52.56,294.14L52.56,294.19L52.57,294.24L53.41,294.39L53.45,294.03L53.45,293.95L53.85,294.27L54.23,293.92L54.24,293.85L54.91,294.15L55,293.95L55.01,293.88L55.75,294.03L55.93,293.82L55.94,293.73L56.78,293.77L56.79,293.57L56.79,293.41L56.83,293.26L57.27,293.92L57.47,293.72L57.48,293.76L58.28,293.45L58.29,293.52L58.29,293.57L59.41,293.43L59.42,293.29L60.18,293.47L60.2,293.31L60.21,293.27L60.38,293.49L60.71,293.14L60.97,293.43L60.97,293.36L62.46,292.87L62.52,293.06L62.53,293.15L63.59,293.08L63.62,292.85L63.62,292.83L64.69,293.15L64.7,293.05L64.7,292.99L66.95,292.65L66.96,292.77L66.96,292.83L70.78,292.24L70.78,292.2L71.13,292.12L71.56,292.42L71.57,292.36L71.57,292.32L71.77,292.07L72.29,292.3L72.34,292.17L72.34,292.11L72.64,291.86L72.86,292.39L73.12,292.17L73.12,292.12L73.66,291.7L73.9,292.35L74.03,292.14L74.04,292.06L74.2,291.95L74.78,292.25L74.79,292.13L74.8,292.06L75.25,291.84L75.45,292.13L75.55,292.03L75.55,291.99L75.77,291.85L76.25,292.13L76.31,291.94L76.31,291.88L77.43,292.16L77.49,291.88L77.5,291.79L77.87,292.12L78.17,291.68L78.24,291.78L78.25,291.75L78.39,292.04L78.99,291.65L78.99,291.7L79,291.73L79.02,291.51L79.16,291.9L79.75,291.72L79.76,291.72L80.69,291.82L80.73,291.7L80.74,291.65L81.11,292.03L81.52,291.8L81.53,291.77L82.75,291.81L82.76,291.7L82.77,291.65L82.95,291.58L83.14,291.88L83.48,291.51L83.49,291.48L85.06,291.61L85.07,291.58L85.07,291.55L85.44,291.69L85.6,291.26L85.86,291.48L85.87,291.52L86.06,291.28L86.26,291.71L86.64,291.54L86.65,291.47L87.73,291.4L87.75,291.31L87.76,291.3L89.08,291.47L89.09,291.39L89.09,291.34L90.09,291.36L90.1,291.3L90.11,291.25L90.61,291.03L91.01,291.59L91.02,291.55L91.03,291.49L91.66,291.25L91.85,291.42L91.85,291.43L92.47,291.18L92.63,291.31L92.64,291.3L95.83,291.27L95.84,291.32L95.84,291.35L96.82,291.16L96.84,291.22L96.84,291.27L98.14,291.12L98.16,291.2L98.16,291.26L98.43,291.1L98.91,291.37L98.97,291.22L98.97,291.21L99.2,290.83L99.74,291.21L99.74,291.23L99.89,291.38L100.41,290.89L100.51,291.1L100.52,291.17L101.12,290.87L101.34,291.2L101.34,291.24L102.09,290.92L102.23,291.14L102.23,291.2L103.64,291.17L103.68,291.05L103.68,291.03L103.74,290.77L103.93,291.22L104.42,291.12L104.42,291.17L104.5,290.81L105.2,291.1L105.2,291.12L105.49,291.24L105.7,290.96L105.95,291.17L105.96,291.17L106.25,291.21L106.49,290.99L106.71,291.19L106.72,291.18L106.93,291.24L107.08,290.95L107.47,291.19L107.47,291.27L108.19,291.07L108.26,291.14L108.26,291.15L108.37,291.3L108.9,290.96L109.03,291.15L109.04,291.16L109.32,291.35L109.92,290.87L109.95,290.93L109.95,290.97L111.19,291.35L111.24,291.22L111.24,291.17L112.76,290.9L112.81,291.16L112.81,291.2L113.86,290.87L113.9,291L113.9,291.04L115.22,290.92L115.25,290.68L115.25,290.63L116.41,291.34L116.43,291.12L116.43,291.06L117.45,290.79L117.51,291L117.52,291.05L118.55,290.86L118.61,291.11L118.61,291.14L119.48,291L119.57,291.19L119.57,291.2L119.76,290.74L120.38,290.97L120.38,290.98L120.8,291.1L120.88,290.67L121.14,290.95L121.14,290.96L121.57,291.07L121.68,290.53L121.68,290.51L121.79,291.23L122.47,290.78L122.48,290.75L122.55,290.67L123.04,291.21L123.24,290.95L123.25,290.95L123.5,291.12L123.96,290.92L124.04,291.02L124.05,291.04L125.18,290.74L125.3,291.12L125.31,291.14L126.23,291.02L126.24,291.11L126.25,291.15L127.2,290.9L127.24,290.98L127.25,290.99L131.91,291.09L131.91,291.13L131.92,291.17L132.1,291.26L132.74,290.37L132.84,290.82L132.85,290.84L133.9,291.2L133.97,290.97L133.98,290.94L134.62,291.01L134.63,290.69L134.64,290.58L135.5,291.07L135.56,290.95L135.56,290.85L135.71,290.72L136.17,291.17L136.33,291.05L136.34,291.03L136.47,291.08L137.08,290.82L137.13,290.96L137.13,291.08L137.4,291.16L137.92,290.83L137.93,290.88L137.93,290.93L138.7,291.35L138.8,291.05L138.81,290.99L139.32,290.79L139.55,291.24L139.6,291.11L139.61,291.07L139.76,291.19L140.41,290.89L140.46,291.04L140.46,291.05L141.41,291.14L141.43,290.86L141.44,290.82L141.46,290.63L141.95,291.29L142.15,291.19L142.15,291.24L142.72,290.9L142.95,291.11L142.96,291.15L143.46,291.44L143.57,290.91L143.73,290.95L143.74,290.95L144.43,291.17L144.53,290.89L144.53,290.84L144.91,290.67L145.24,291.32L145.37,291.07L145.38,291.03L146.26,290.93L146.32,291.14L146.32,291.17L147.46,290.82L147.55,291L147.56,291.04L148.33,291.53L148.36,291.2L148.37,291.17L149.07,291.27L149.17,291.09L149.17,291L150.15,291.61L150.22,291.42L150.23,291.33L150.94,291.01L151.1,291.17L151.1,291.26L151.31,291.34L151.54,290.98L151.87,291.08L151.87,291.17L152.15,290.66L152.56,291.43L152.64,291.22L152.64,291.28L153.44,290.75L153.71,291.22L153.72,291.28L154.65,291.02L154.68,291.13L154.68,291.16L154.88,291.29L155.22,290.93L155.42,291.25L155.42,291.29L156.16,291.1L156.23,291.27L156.23,291.29L157.63,291.36L157.66,291.16L157.66,291.09L158.17,290.88L158.38,291.39L158.44,291.13L158.45,291.09L159.4,291.34L159.42,291.15L159.42,291.05L161.34,291.13L161.34,291.06L161.35,290.94L162.19,291.35L162.25,291.13L162.25,291.08L163.14,291.3L163.16,291.22L163.16,291.15L163.84,291.57L163.99,291.21L164,291.19L164.04,291.43L164.44,291.13L164.76,291.27L164.76,291.22L164.81,291.02L164.92,291.44L165.49,291.33L165.5,291.37L166.45,291.09L166.5,291.35L166.5,291.4L167.08,291.05L167.26,291.25L167.27,291.31L167.42,291.05L167.98,291.47L168.02,291.34L168.03,291.3L168.38,291.18L168.75,291.53L168.82,291.44L168.83,291.44L169.76,291.14L169.89,291.38L169.89,291.42L170.11,291.17L170.24,291.65L170.63,291.26L170.64,291.2L171.23,291.66L171.48,291.18L171.49,291.12L172.19,291.62L172.32,291.31L172.33,291.27L173.21,291.48L173.22,291.41L173.22,291.39L173.44,291.56L173.99,291.32L174.02,291.47L174.02,291.54L174.21,291.29L174.86,291.69L174.9,291.44L174.91,291.39L175.18,291.26L175.59,291.6L175.69,291.45L175.7,291.48L175.85,291.67L176.41,291.21L176.55,291.52L176.55,291.59L177.11,291.25L177.35,291.6L177.36,291.61L178,291.31L178.19,291.51L178.19,291.57L178.44,291.75L178.86,291.24L178.93,291.55L178.93,291.66L179.42,291.26L179.78,291.49L179.79,291.56L180.21,291.21L180.5,291.62L180.52,291.5L180.53,291.45L180.94,291.7L181.21,291.32L181.32,291.45L181.33,291.52L181.47,291.77L181.57,291.27L182.08,291.54L182.08,291.6L182.47,291.3L182.59,291.73L182.84,291.66L182.84,291.62L183.14,291.17L183.63,291.59L183.63,291.66L184.03,291.22L184.38,291.63L184.39,291.65L184.91,291.82L185.12,291.46L185.12,291.52L185.13,291.52L185.89,291.27L185.95,291.56L185.95,291.58L186.46,291.43L186.69,291.84L186.73,291.68L186.74,291.63L186.87,291.8L187.34,291.44L187.48,291.77L187.48,291.81L187.91,291.26L188.29,291.66L188.29,291.71L188.96,291.27L189.09,291.5L189.09,291.59L189.85,291.44L189.93,291.84L189.93,291.9L190.65,291.4L190.72,291.55L190.73,291.6L190.99,291.79L191.43,291.29L191.51,291.52L191.51,291.57L193.04,291.8L193.05,291.58L193.06,291.54L194.59,291.73L194.63,291.53L194.64,291.49L194.79,291.37L195.39,291.71L195.4,291.55L195.41,291.51L195.99,291.32L196.11,291.75L196.16,291.55L196.17,291.6L196.91,291.95L196.95,291.78L196.96,291.74L198.55,291.74L198.55,291.7L198.55,291.64L199.28,291.83L199.36,291.67L199.36,291.6L199.42,291.18L199.99,291.95L200.07,291.75L200.07,291.77L200.34,291.94L200.79,291.62L200.85,291.76L200.86,291.81L203.23,291.84L203.23,291.8L203.24,291.69L203.52,291.93L203.84,291.04L203.99,291.51L204,291.47L204.65,292.01L204.76,291.6L204.77,291.5L205.57,291.89L205.59,291.84L205.59,291.77L206.46,291.9L206.47,291.85L206.48,291.79L207.27,291.82L207.3,291.67L207.3,291.62L208.1,291.94L208.15,291.86L208.16,291.8L208.45,291.47L208.96,292.01L208.98,291.86L208.98,291.81L209.06,291.86L209.76,291.53L209.8,291.72L209.81,291.74L209.95,291.81L210.49,291.58L210.59,291.79L210.59,291.85L210.92,291.54L211.24,291.92L211.31,291.69L211.31,291.57L211.47,291.44L212.16,292.01L212.24,291.84L212.24,291.77L214.9,291.89L214.91,291.8L214.91,291.76L215.09,291.69L215.62,291.99L215.67,291.81L215.68,291.79L216.29,292.17L216.49,291.79L216.5,291.73L217.12,292.09L217.28,291.81L217.28,291.74L218.23,292.04L218.25,291.98L218.25,291.9L218.48,291.65L218.6,292.14L218.9,291.57L218.9,291.48L219.62,292.01L219.75,291.74L219.76,291.74L220.52,292.06L220.53,292L220.76,292.05L220.87,291.65L221.26,292.08L221.27,292.13L221.96,291.62L222.09,291.96L222.1,292.01L222.4,292.21L222.8,291.85L222.85,292.04L222.85,292.12L223.66,291.86L223.68,292.01L223.68,292.07L224.51,291.64L224.55,291.87L224.56,291.91L224.75,292.13L225.38,291.8L225.41,291.86L225.41,291.92L225.93,292.33L226.26,291.76L226.27,291.83L226.28,291.86L226.39,291.74L226.99,292.16L227.05,291.98L227.05,291.92L227.22,291.62L227.88,292.15L227.88,292.08L227.88,292.03L228.2,292.19L228.41,291.82L228.66,292.08L228.66,292.12L229.04,291.67L229.38,292.26L229.41,292.14L229.42,292.07L229.55,292.22L230.01,291.89L230.16,292.19L230.16,292.25L230.26,292.29L230.59,291.82L230.92,292.17L230.93,292.2L231.22,291.86L231.43,292.33L231.64,291.99L231.64,291.97L232.62,291.99L232.65,292.06L232.65,292.1L232.9,291.62L233.07,292.36L233.41,292.02L233.41,292.05L234.36,291.8L234.38,291.92L234.38,291.99L234.52,292.42L235.04,291.77L235.11,291.88L235.11,291.83L235.61,292.3L235.89,292.12L235.9,292.03L236.12,291.88L236.36,292.36L236.63,292.03L236.63,291.89L237.42,292.32L237.5,292.15L237.5,292.06L237.71,292.41L238.45,292.23L238.46,292.29L238.47,292.35L239.25,291.83L239.28,292.14L239.29,292.15L239.62,292.43L239.94,292.18L239.99,292.46L239.99,292.49L240,290.84" style="vector-effect: non-scaling-stroke; fill: none; stroke: rgb(204, 102, 119); stroke-opacity: 1; stroke-width: 2px; opacity: 1;"/></g><g class="points"/><g class="text"/></g><g class="trace scatter traced43f23" style="stroke-miterlimit: 2; opacity: 1;"><g class="fills"/><g class="errorbars"/><g class="lines"><path class="js-line" d="M0,288.48L0.01,284.74L0.33,290.92" style="vector-effect: non-scaling-stroke; fill: none; stroke: rgb(221, 204, 119); stroke-opacity: 1; stroke-width: 2px; opacity: 1;"/></g><g class="points"/><g class="text"/></g><g class="trace scatter trace4c392c" style="stroke-miterlimit: 2; opacity: 1;"><g class="fills"/><g class="errorbars"/><g class="lines"><path class="js-line" d="M0,-1579.97L0.75,41.83L0.76,41.6L0.77,41.27L1.51,43.13L1.51,42.58L1.52,42.38L1.56,42.31L2.1,43.38L2.27,42.91L2.28,42.82L2.33,42.61L2.85,43.88L3.03,43.15L3.04,43.41L3.08,43.14L3.68,44.55L3.79,44.48L3.8,44.09L3.99,43.78L4.5,45.44L4.55,44.99L4.56,44.62L4.6,44.58L5.27,46.36L5.31,45.92L5.32,46.34L5.34,45.65L6.07,47.46L6.07,46.8L6.08,46.95L6.09,46.68L6.82,48.76L6.83,48.18L6.84,48.05L7.51,50.08L7.59,49.85L7.6,50.03L7.61,49.39L8.32,51.44L8.35,50.92L8.36,51.36L8.38,50.63L9.09,52.89L9.11,52.39L9.12,52.77L9.14,52.19L9.85,54.23L9.87,53.7L9.88,54.13L9.9,53.54L10.58,55.7L10.63,55.7L10.64,55.31L10.66,54.94L11.38,57.15L11.39,56.99L11.4,57.13L11.41,56.47L12.1,58.58L12.15,57.95L12.16,57.99L12.19,57.94L12.91,60.11L12.92,59.54L12.93,59.47L13.65,61.51L13.67,60.93L13.68,61.36L13.7,60.82L14.4,62.99L14.43,62.98L14.44,62.55L14.45,62.33L15.18,64.29L15.19,64.28L15.2,64.29L15.23,63.67L15.87,65.8L15.95,65.25L15.96,65.23L15.97,65.17L16.64,67.19L16.71,67.12L16.72,67.08L16.76,66.56L17.46,68.46L17.47,68.2L17.48,68.65L17.53,67.93L18.17,69.95L18.23,69.73L18.24,69.88L18.24,69.29L18.96,71.48L18.99,71.36L19,71.15L19.03,70.84L19.74,72.63L19.75,72.56L19.76,72.14L19.83,71.96L20.53,74.03L20.56,73.82L20.56,73.44L21.25,75.41L21.34,74.9L21.35,74.62L22.04,76.53L22.1,76.36L22.11,76.45L22.14,75.85L22.78,77.77L22.86,77.75L22.87,77.47L22.87,77.01L23.6,79.1L23.62,78.76L23.63,79.01L23.69,78.36L24.34,80.19L24.38,79.72L24.39,80.06L24.43,79.41L24.99,81.19L25.14,80.81L25.15,81.36L25.15,80.66L25.83,82.43L25.9,82.29L25.91,82.39L25.94,81.74L26.55,83.62L26.66,82.94L26.67,83.25L26.68,82.99L27.24,84.69L27.42,84.23L27.43,84.24L27.56,84.08L28.14,85.77L28.18,85.7L28.19,85.32L28.3,85.12L28.94,86.85L28.94,86.5L28.95,86.31L28.97,86.18L29.66,87.86L29.7,87.76L29.71,87.41L29.72,87.29L30.44,88.86L30.46,88.35L30.47,88.37L30.61,88.27L31.16,89.83L31.22,89.23L31.23,89.29L31.3,89.05L31.96,90.84L31.98,90.69L31.99,90.4L32.03,90.13L32.73,91.93L32.73,91.55L32.74,91.21L32.81,91.15L33.45,92.64L33.49,92.04L33.5,92.18L33.54,91.95L34.25,93.56L34.26,93.36L34.4,92.86L34.95,94.34L35.01,94.3L35.02,93.81L35.03,93.75L35.68,95.28L35.77,94.69L35.78,95.33L35.78,94.74L36.47,96.11L36.53,95.7L36.54,96.07L36.55,95.7L37.25,97.11L37.29,96.57L37.3,96.86L37.46,96.33L38.04,98.02L38.05,97.78L38.06,98.07L38.14,97.36L38.68,98.68L38.81,97.94L38.82,98.21L38.84,98.07L39.45,99.59L39.57,99.38L39.58,98.93L39.71,98.9L40.33,100.37L40.34,100.02L40.39,99.7L41.06,101.19L41.09,100.87L41.1,100.56L41.2,100.49L41.76,101.91L41.85,101.68L41.86,101.68L41.86,101.39L42.53,102.66L42.61,102.16L42.62,102.56L42.65,102.01L43.3,103.48L43.37,103.22L43.38,103.4L43.38,102.86L44.11,104.13L44.13,104.1L44.14,103.78L44.15,103.65L44.73,104.98L44.89,104.34L44.9,104.55L44.94,104.08L45.5,105.61L45.65,105.04L45.66,105.02L45.68,104.81L46.3,106.47L46.41,106.24L46.42,105.75L46.55,105.67L47.14,107.22L47.17,107.01L47.18,107.04L47.39,106.4L47.92,107.71L47.93,107.52L47.94,107.73L47.98,107L48.66,108.32L48.69,107.7L48.7,107.87L48.77,107.52L49.42,108.94L49.45,108.9L49.46,108.68L49.51,108.21L50.2,109.57L50.21,109.45L50.22,109.38L50.3,108.89L50.93,110.15L50.97,109.71L50.98,110.03L51,109.37L51.54,110.78L51.73,110.52L51.74,110.15L51.91,109.98L52.49,111.39L52.49,110.94L52.5,110.91L52.51,110.62L53.25,112.19L53.25,111.75L53.26,111.66L53.4,111.27L53.97,112.56L54.01,112.29L54.02,111.92L54.05,111.81L54.77,113.22L54.77,113.05L54.78,112.62L54.8,112.36L55.47,113.66L55.53,113.44L55.54,113.37L55.62,112.76L56.29,114.15L56.3,114.13L56.89,113.42L57.04,114.5L57.05,114.05L57.06,113.92L57.41,113.82L57.74,115.2L57.81,114.56L57.82,114.89L58.03,114.48L58.53,115.64L58.57,115.23L58.58,115.45L58.62,114.96L59.03,116.01L59.33,115.53L59.34,115.83L59.37,115.26L59.88,116.5L60.09,116.31L60.1,116.06L60.27,115.63L60.58,116.91L60.85,116.33L60.86,116.44L61.11,116.14L61.49,117.3L61.61,117.12L61.62,117.25L61.72,116.55L62.04,117.77L62.37,117.05L62.38,117.42L62.43,116.93L63.07,118.48L63.13,117.64L63.14,117.27L63.88,118.93L63.89,118.63L63.9,118.81L64.4,118.05L64.63,119.22L64.64,118.83L64.65,118.78L64.69,118.54L65.29,119.87L65.4,119.28L65.41,119.34L65.45,118.94L65.82,120.17L66.16,120.14L66.17,120.01L66.29,119.42L66.67,120.62L66.92,120.06L66.93,119.81L66.99,119.77L67.65,121.22L67.68,120.33L67.69,120.52L68.2,120.19L68.27,121.26L68.44,121.15L68.45,120.9L68.46,120.49L69.15,121.9L69.2,121.01L69.21,121.27L69.26,121.11L69.92,122.08L69.96,121.88L69.97,121.67L70.06,122.45L70.3,121.24L70.72,121.76L70.73,122.03L70.88,122.58L71.09,121.5L71.48,122.29L71.49,122.04L71.51,121.9L71.85,123.2L72.24,122.64L72.25,122.35L72.26,122.03L72.72,123.53L73.01,122.75L73.02,122.5L73.04,122.35L73.73,123.76L73.77,123.21L73.78,123.33L73.89,122.93L74.31,124.04L74.53,123.61L74.54,123.7L74.8,123.19L75.17,124.41L75.29,123.66L75.3,123.89L75.45,123.08L76.04,124.47L76.05,124.45L76.06,124.34L76.36,123.57L76.75,124.79L76.81,124.12L76.82,124.51L76.84,123.97L77.33,124.97L77.57,124.66L77.58,124.52L77.71,124.11L77.97,125.53L78.33,124.96L78.34,125.17L78.36,124.55L79.06,125.69L79.07,125.38L79.08,125.66L79.19,125.02L79.82,126.12L79.83,126.12L79.84,126.14L79.87,125.35L80.05,126.33L80.59,125.89L80.6,126.03L80.89,126.75L81.18,125.51L81.35,126.32L81.36,126.54L81.43,125.84L81.93,126.99L82.11,126.36L82.12,126.65L82.24,126.16L82.67,127.46L82.87,126.73L82.88,126.92L83.03,126.55L83.45,127.76L83.63,127.09L83.64,127.12L83.8,128.04L84.07,127.01L84.39,127.63L84.4,127.86L84.42,127.28L84.92,128.57L85.15,128.14L85.16,127.89L85.46,127.5L85.61,128.46L85.91,128.11L85.92,128.39L86.26,127.64L86.6,128.91L86.67,128.6L86.68,128.41L86.75,127.97L87.2,129.12L87.43,128.5L87.44,128.8L87.84,129.39L88.02,128.25L88.19,129.13L88.2,128.84L88.49,128.6L88.67,129.7L88.95,129.38L88.96,129.14L89.1,128.93L89.5,129.88L89.71,129.71L89.72,130.11L89.83,129.15L89.88,130.32L90.47,129.89L90.48,129.55L90.8,130.24L91.02,128.93L91.23,129.68L91.24,129.44L91.56,129.19L91.87,130.32L91.99,130.24L92,130.04L92.48,129.16L92.57,130.6L92.75,130.22L92.76,129.92L92.88,130.78L93.4,129.38L93.51,129.93L93.52,129.94L93.75,129.81L94.2,131.14L94.27,130.76L94.28,130.48L94.3,131.27L94.78,129.85L95.03,131.04L95.04,130.58L95.26,130.26L95.55,131.6L95.79,130.59L95.8,130.85L96.16,130.45L96.5,131.7L96.55,130.72L96.56,130.97L96.56,130.37L97.23,131.96L97.31,130.95L97.32,131.06L97.33,130.83L97.94,132.21L98.07,131.68L98.08,131.91L98.2,131.21L98.71,132.56L98.83,132.43L98.84,132.17L98.95,132.88L99.1,131.43L99.59,132.57L99.6,132.2L99.61,132.01L100.02,133.38L100.35,133.21L100.36,133.06L100.36,132.72L100.87,134.19L101.11,133.46L101.12,133.34L101.26,132.59L101.79,134.19L101.87,133.36L101.88,133.66L101.9,133.23L102.43,134.44L102.63,134.02L102.64,134.08L102.68,133.36L103.37,134.67L103.39,134.09L103.4,134.14L103.62,134.79L103.8,133.53L104.15,134.1L104.16,134.33L104.52,133.94L104.69,135.15L104.91,134.64L104.92,134.81L105.34,134.08L105.66,135.53L105.67,134.89L105.68,134.59L105.85,134.35L106.4,135.72L106.43,134.97L106.44,135.25L106.83,135.71L107.09,134.53L107.19,134.79L107.2,135.14L107.38,134.58L107.59,135.89L107.95,135.24L107.96,135.25L108.19,134.86L108.71,136.19L108.72,135.88L108.84,134.97L109.47,136.18L109.47,135.93L109.48,135.72L109.74,135.22L110.22,136.59L110.23,136.48L110.24,136.68L110.74,135.45L110.99,136.43L111,136.34L111.04,135.71L111.37,136.9L111.75,136.01L111.76,135.92L111.87,135.53L112.18,136.87L112.51,135.91L112.52,135.89L112.64,135.81L112.7,137.11L113.27,136.53L113.28,136.69L113.54,135.56L113.79,137.32L114.03,136.51L114.04,136.48L114.05,137.19L114.62,136.08L114.79,136.98L114.8,137.07L115.15,137.94L115.38,136.06L115.55,137.14L115.56,137.09L115.66,136.41L116.11,137.57L116.31,137.12L116.32,137.09L116.42,136.81L116.76,137.83L117.07,136.92L117.08,136.6L117.25,137.96L117.65,136.57L117.83,137.13L117.84,136.72L117.85,136.6L118.31,137.99L118.59,136.97L118.6,136.85L118.62,136.64L118.95,138.26L119.35,137.29L119.36,137.44L119.46,136.53L119.79,138.25L120.11,137.47L120.12,137.32L120.41,136.7L120.77,138.35L120.87,137.79L120.88,137.79L120.98,136.95L121.35,138.21L121.63,137.88L121.64,137.64L121.64,138.27L121.97,136.7L122.39,137.32L122.4,137.29L123.05,138.54L123.11,136.92L123.14,136.98L123.15,137.32L123.43,138.52L123.57,137.06L123.9,137.9L123.91,137.86L123.97,137.31L124.04,138.7L124.66,138.34L124.67,138.37L124.82,137.64L125.41,138.99L125.42,138.82L125.43,138.64L125.95,137.84L126.07,139.24L126.18,138.88L126.19,138.91L126.67,137.95L126.84,139.62L126.94,139.13L126.95,139.13L126.99,138.17L127.35,139.45L127.7,138.66L127.71,138.89L127.74,137.91L128.28,139.45L128.45,139.05L128.46,139.14L128.51,138.45L129,139.82L129.21,139.26L129.22,139.1L129.23,139.01L129.9,140.58L129.97,139.92L129.98,139.79L130.16,139.38L130.73,141.03L130.73,140.75L130.74,141.01L131.1,139.52L131.49,140.25L131.5,140.29L132.12,139.39L132.21,141.07L132.25,140.44L132.26,140.12L132.39,139.65L132.77,141.05L133.01,140.6L133.02,140.09L133.3,140.87L133.57,139.63L133.78,139.84L133.78,140.08L133.79,139.59L134.28,141.16L134.53,140.77L134.54,141.1L134.64,140.05L135.17,141.59L135.29,140.83L135.3,140.65L135.44,141.45L135.53,140.02L136.03,140.8L136.03,141.05L136.53,139.76L136.73,141.5L136.77,140.83L136.78,141.24L136.97,141.47L137.39,140.05L137.53,140.63L137.54,141.03L137.57,140.34L137.97,141.78L138.29,140.84L138.3,140.72L138.67,141.85L138.86,139.98L139.05,141.02L139.06,140.72L139.53,141.55L139.79,140.33L139.81,141.04L139.82,140.82L139.86,140.28L140.06,141.64L140.57,141.06L140.58,140.78L140.97,140.31L141.08,141.63L141.33,140.51L141.34,140.62L141.63,140.31L141.93,141.86L142.09,141.17L142.1,141.47L142.17,140.4L142.63,142.26L142.85,141.94L142.86,141.54L143.37,142.34L143.56,140.73L143.61,141.51L143.62,141.16L143.77,142.19L144.03,140.74L144.37,142.05L144.38,141.87L144.44,142.29L145.02,140.9L145.13,141.69L145.14,141.89L145.24,140.84L145.84,142.51L145.89,141.48L145.9,141.69L146.11,140.76L146.43,142.54L146.65,142.12L146.66,141.96L146.66,142.33L146.88,140.91L147.41,142.06L147.42,142.08L147.43,142.46L147.83,141.01L148.17,141.82L148.18,141.58L148.26,140.81L148.58,142.62L148.93,141.84L148.94,142.25L149.1,142.72L149.56,141.13L149.69,141.91L149.7,142.26L149.88,142.61L150.19,141.05L150.45,141.73L150.46,141.71L150.64,141.23L150.9,142.86L151.21,141.83L151.22,141.55L151.75,142.94L151.94,141.12L151.97,141.71L151.98,141.43L152.31,142.86L152.63,141.24L152.73,142.26L152.74,142.3L152.94,142.9L153.46,141.22L153.49,141.6L153.5,141.8L153.5,141.56L154.08,143.34L154.25,142.82L154.26,143.08L154.46,143.46L154.62,141.91L155.01,142.57L155.02,142.74L155.09,142.19L155.39,143.69L155.77,143.28L155.78,143.11L155.81,141.97L156.22,143.82L156.53,142.69L156.54,142.5L156.63,143.83L157.08,142.11L157.29,142.78L157.3,142.99L157.75,143.49L158.02,142.32L158.05,143L158.06,142.92L158.55,141.95L158.73,143.67L158.81,142.86L158.82,142.53L158.91,141.86L159.57,143.42L159.57,143.28L159.58,142.9L159.86,141.91L160.31,143.51L160.33,142.8L160.34,142.91L160.5,143.71L160.68,142.26L161.09,142.61L161.1,142.71L161.16,143.34L161.38,141.9L161.85,143.12L161.86,142.96L161.88,143.64L162.13,142.11L162.61,142.7L162.62,142.76L162.79,141.8L163,143.46L163.37,142.69L163.38,142.52L163.4,142.3L164.09,143.71L164.13,143.36L164.14,143.2L164.52,143.62L164.76,142.29L164.89,143.01L164.9,142.99L165.37,143.55L165.65,142.08L165.65,142.53L165.66,142.36L165.73,142.28L165.85,143.59L166.41,143.09L166.42,143.05L166.7,142.28L166.97,143.81L167.17,142.75L167.18,142.57L167.48,141.93L167.93,143.76L167.94,143.44L167.95,143.69L168.1,141.97L168.69,142.44L168.7,142.77L169.11,142.15L169.39,143.61L169.45,142.49L169.46,142.67L169.5,141.87L170,143.68L170.21,142.84L170.22,143.16L170.27,143.51L170.56,142.05L170.97,142.81L170.98,142.52L171.1,143.47L171.29,142.14L171.73,142.88L171.74,142.59L171.97,141.85L172.11,143.41L172.49,143.26L172.5,143.29L172.53,142.12L173.22,143.71L173.25,143.29L173.26,143.17L173.34,143.68L173.78,142.17L174.01,143.04L174.02,142.83L174.06,142.24L174.75,143.92L174.77,143.29L174.78,143.03L175.07,143.97L175.32,142.36L175.53,143.65L175.54,143.42L175.74,143.92L176.13,142.23L176.29,143.03L176.3,142.76L176.32,143.57L177.04,141.96L177.05,142.33L177.06,142.67L177.14,142.02L177.42,143.82L177.81,143.38L177.82,143.59L178.18,143.81L178.38,141.99L178.57,142.76L178.58,142.6L178.79,141.92L179.23,143.66L179.33,142.8L179.34,142.66L179.43,143.7L179.79,142.24L180.09,142.51L180.1,142.77L180.24,142.11L180.35,143.65L180.85,142.24L180.86,142.33L181,142.1L181.46,143.74L181.61,142.84L181.62,142.91L181.95,143.48L182.34,142.03L182.37,142.52L182.38,142.44L182.98,143.66L183.11,141.85L183.13,142.59L183.14,142.63L183.27,143.46L183.89,141.72L183.9,141.86L183.91,141.81L184.43,143.46L184.65,142.37L184.66,142.53L184.94,143.41L185.11,141.51L185.41,142.25L185.42,142.27L185.48,141.78L186.03,143.65L186.17,143.11L186.18,142.8L186.58,141.8L186.93,143.24L186.93,143.05L186.94,143.22L186.98,143.44L187.29,142.04L187.69,142.45L187.7,142.48L187.85,141.97L188.25,143.4L188.45,142.91L188.46,143.12L188.5,142.08L188.58,143.36L189.21,142.67L189.22,142.79L189.38,142.05L189.89,143.53L189.95,142.92L189.95,142.61L190.22,143.64L190.56,141.84L190.69,142.38L190.7,142.66L190.87,141.9L191.38,143.44L191.45,142.6L191.46,142.63L191.59,143.45L192.02,142.23L192.2,142.74L192.21,143.13L192.28,142.16L192.9,143.48L192.96,142.82L192.97,142.8L193.12,143.76L193.42,142.15L193.72,142.33L193.73,142.52L193.9,141.77L194.05,143.51L194.48,142.9L194.49,143.05L194.49,143.42L195.08,141.76L195.24,142.88L195.25,143.05L195.46,143.49L195.91,141.64L196,142.42L196.01,142.57L196.54,142.88L196.74,141.27L196.76,141.6L196.77,141.83L196.94,141.32L197.52,143.39L197.52,143.26L197.53,143.04L197.53,143.26L198.25,141.36L198.28,141.76L198.29,141.97L198.35,142.86L198.59,141.31L199.04,141.91L199.05,142.07L199.41,142.79L199.59,141.32L199.8,141.82L199.81,141.63L200.27,142.84L200.52,141.19L200.56,142.01L200.57,142.22L201.14,143.08L201.26,141.58L201.32,142.14L201.33,142.44L201.58,142.96L201.71,141.27L202.08,142.28L202.09,141.98L202.18,141.43L202.32,143.04L202.84,142.59L202.85,142.7L203.02,141.57L203.51,143.04L203.6,142.23L203.61,141.93L203.68,143.09L203.89,141.27L204.36,142.02L204.37,142.26L204.41,142.86L204.9,141.36L205.12,141.74L205.13,141.63L205.17,143L205.24,141.04L205.88,142.33L205.89,142.36L206.31,141.39L206.58,142.97L206.64,142.4L206.65,142L206.88,141.16L207.08,142.92L207.4,142.24L207.41,142L208.07,142.72L208.14,140.72L208.16,141.32L208.17,141.45L208.19,141.01L208.56,142.69L208.92,141.94L208.93,141.83L208.99,142.71L209.59,141.22L209.68,142.21L209.69,142.53L209.79,142.69L210.23,141L210.44,141.9L210.45,142.31L210.75,141.03L211.2,142.67L211.21,142.67L211.3,142.88L211.45,141.18L211.96,141.64L211.97,141.4L211.99,140.8L212.57,142.35L212.71,141.39L212.72,141.38L212.84,141.04L212.97,142.85L213.47,142.12L213.48,142.5L213.53,142.95L214.23,140.77L214.23,141.01L214.24,141.21L214.27,140.6L214.98,142.54L214.99,142.28L215,141.88L215,142.47L215.26,140.91L215.75,141.97L215.76,141.72L216.03,140.67L216.3,142.19L216.51,142.12L216.52,142.14L216.54,142.48L217.15,140.36L217.22,141.03L217.23,140.91L217.35,142.06L217.8,140.59L217.98,141.69L217.99,141.61L217.99,142.11L218.65,140.33L218.74,141.08L218.75,141.36L218.77,140.85L219,142.24L219.5,141.82L219.51,141.78L219.54,141.95L219.73,140.56L220.26,141.62L220.27,141.74L220.84,140.65L221.02,142.24L221.03,142.07L221.05,142.35L221.76,140.21L221.78,141.48L221.79,141.48L221.81,142.13L222.21,140.33L222.54,141.14L222.55,141.46L222.74,142.2L223.11,140.52L223.3,141.18L223.31,141.08L223.57,141.92L224.02,140.33L224.06,140.82L224.07,140.88L224.15,141.81L224.45,139.99L224.82,141.13L224.83,141.19L225.41,140.24L225.54,142.07L225.58,141.18L225.59,141.05L225.71,139.99L225.93,141.88L226.34,140.82L226.35,140.63L226.49,141.66L226.89,139.87L227.1,140.93L227.11,140.8L227.31,140.13L227.55,141.81L227.84,141.02L227.84,141.39L228.26,139.76L228.44,142.13L228.59,141.25L228.59,141.65L229.06,140.1L229.34,140.72L229.35,140.49L229.64,140.06L230.08,141.96L230.1,141.38L230.11,141.25L230.62,141.76L230.8,139.86L230.86,140.49L230.87,140.39L231.04,141.59L231.48,139.92L231.62,141L231.63,141.04L231.67,140.18L231.89,141.5L232.38,140.87L232.39,140.9L232.84,141.34L233,139.86L233.14,140.7L233.15,140.86L233.24,139.69L233.49,141.64L233.9,140.64L233.91,140.76L233.96,140.1L234.15,141.82L234.66,141.3L234.67,141.39L234.84,141.68L235.29,139.75L235.42,141.06L235.43,141.06L235.83,140.01L235.91,141.43L236.18,140.95L236.19,140.62L236.39,141.67L236.81,139.81L236.94,140.07L236.95,140.33L237.26,139.74L237.34,141.36L237.7,140.77L237.71,140.59L238.28,141.42L238.33,139.78L238.46,139.94L238.47,140.3L238.51,141.51L238.69,139.76L239.19,140.52L239.19,140.88L239.41,139.68L239.71,141.7L239.94,140.87L239.94,140.68L239.95,140.84L239.99,139.79L240,140.16" style="vector-effect: non-scaling-stroke; fill: none; stroke: rgb(68, 170, 153); stroke-opacity: 1; stroke-width: 2px; opacity: 1;"/></g><g class="points"/><g class="text"/></g></g></g><g class="overplot"/><path class="xlines-above crisp" d="M78,421H320" style="fill: none; stroke-width: 2px; stroke: rgb(0, 0, 0); stroke-opacity: 1;"/><path class="ylines-above crisp" d="M79,100V420" style="fill: none; stroke-width: 2px; stroke: rgb(0, 0, 0); stroke-opacity: 1;"/><g class="overlines-above"/><g class="xaxislayer-above"><path class="xtick ticks crisp" d="M0,422v5" transform="translate(80,0)" style="stroke: rgb(68, 68, 68); stroke-opacity: 1; stroke-width: 1px;"/><path class="xtick ticks crisp" d="M0,422v5" transform="translate(120,0)" style="stroke: rgb(68, 68, 68); stroke-opacity: 1; stroke-width: 1px;"/><path class="xtick ticks crisp" d="M0,422v5" transform="translate(160,0)" style="stroke: rgb(68, 68, 68); stroke-opacity: 1; stroke-width: 1px;"/><path class="xtick ticks crisp" d="M0,422v5" transform="translate(200,0)" style="stroke: rgb(68, 68, 68); stroke-opacity: 1; stroke-width: 1px;"/><path class="xtick ticks crisp" d="M0,422v5" transform="translate(240,0)" style="stroke: rgb(68, 68, 68); stroke-opacity: 1; stroke-width: 1px;"/><path class="xtick ticks crisp" d="M0,422v5" transform="translate(280,0)" style="stroke: rgb(68, 68, 68); stroke-opacity: 1; stroke-width: 1px;"/><path class="xtick ticks crisp" d="M0,422v5" transform="translate(320,0)" style="stroke: rgb(68, 68, 68); stroke-opacity: 1; stroke-width: 1px;"/><g class="xtick"><text text-anchor="middle" x="0" y="448.6" transform="translate(80,0)" style="font-family: 'Times New Roman', monospace; font-size: 18px; fill: rgb(105, 105, 105); fill-opacity: 1; white-space: pre; opacity: 1;">0</text></g><g class="xtick"><text text-anchor="middle" x="0" y="448.6" style="font-family: 'Times New Roman', monospace; font-size: 18px; fill: rgb(105, 105, 105); fill-opacity: 1; white-space: pre; opacity: 1;" transform="translate(120,0)">20</text></g><g class="xtick"><text text-anchor="middle" x="0" y="448.6" style="font-family: 'Times New Roman', monospace; font-size: 18px; fill: rgb(105, 105, 105); fill-opacity: 1; white-space: pre; opacity: 1;" transform="translate(160,0)">40</text></g><g class="xtick"><text text-anchor="middle" x="0" y="448.6" style="font-family: 'Times New Roman', monospace; font-size: 18px; fill: rgb(105, 105, 105); fill-opacity: 1; white-space: pre; opacity: 1;" transform="translate(200,0)">60</text></g><g class="xtick"><text text-anchor="middle" x="0" y="448.6" style="font-family: 'Times New Roman', monospace; font-size: 18px; fill: rgb(105, 105, 105); fill-opacity: 1; white-space: pre; opacity: 1;" transform="translate(240,0)">80</text></g><g class="xtick"><text text-anchor="middle" x="0" y="448.6" style="font-family: 'Times New Roman', monospace; font-size: 18px; fill: rgb(105, 105, 105); fill-opacity: 1; white-space: pre; opacity: 1;" transform="translate(280,0)">100</text></g><g class="xtick"><text text-anchor="middle" x="0" y="448.6" style="font-family: 'Times New Roman', monospace; font-size: 18px; fill: rgb(105, 105, 105); fill-opacity: 1; white-space: pre; opacity: 1;" transform="translate(320,0)">120</text></g></g><g class="yaxislayer-above"><path class="ytick ticks crisp" d="M78,0h-5" transform="translate(0,420)" style="stroke: rgb(68, 68, 68); stroke-opacity: 1; stroke-width: 1px;"/><path class="ytick ticks crisp" d="M78,0h-5" transform="translate(0,356)" style="stroke: rgb(68, 68, 68); stroke-opacity: 1; stroke-width: 1px;"/><path class="ytick ticks crisp" d="M78,0h-5" transform="translate(0,292)" style="stroke: rgb(68, 68, 68); stroke-opacity: 1; stroke-width: 1px;"/><path class="ytick ticks crisp" d="M78,0h-5" transform="translate(0,228)" style="stroke: rgb(68, 68, 68); stroke-opacity: 1; stroke-width: 1px;"/><path class="ytick ticks crisp" d="M78,0h-5" transform="translate(0,164)" style="stroke: rgb(68, 68, 68); stroke-opacity: 1; stroke-width: 1px;"/><path class="ytick ticks crisp" d="M78,0h-5" transform="translate(0,100)" style="stroke: rgb(68, 68, 68); stroke-opacity: 1; stroke-width: 1px;"/><g class="ytick"><text text-anchor="end" x="69.4" y="6.3" transform="translate(0,420)" style="font-family: 'Times New Roman', monospace; font-size: 18px; fill: rgb(105, 105, 105); fill-opacity: 1; white-space: pre; opacity: 1;">0</text></g><g class="ytick"><text text-anchor="end" x="69.4" y="6.3" style="font-family: 'Times New Roman', monospace; font-size: 18px; fill: rgb(105, 105, 105); fill-opacity: 1; white-space: pre; opacity: 1;" transform="translate(0,356)">0.2</text></g><g class="ytick"><text text-anchor="end" x="69.4" y="6.3" style="font-family: 'Times New Roman', monospace; font-size: 18px; fill: rgb(105, 105, 105); fill-opacity: 1; white-space: pre; opacity: 1;" transform="translate(0,292)">0.4</text></g><g class="ytick"><text text-anchor="end" x="69.4" y="6.3" style="font-family: 'Times New Roman', monospace; font-size: 18px; fill: rgb(105, 105, 105); fill-opacity: 1; white-space: pre; opacity: 1;" transform="translate(0,228)">0.6</text></g><g class="ytick"><text text-anchor="end" x="69.4" y="6.3" style="font-family: 'Times New Roman', monospace; font-size: 18px; fill: rgb(105, 105, 105); fill-opacity: 1; white-space: pre; opacity: 1;" transform="translate(0,164)">0.8</text></g><g class="ytick"><text text-anchor="end" x="69.4" y="6.3" style="font-family: 'Times New Roman', monospace; font-size: 18px; fill: rgb(105, 105, 105); fill-opacity: 1; white-space: pre; opacity: 1;" transform="translate(0,100)">1</text></g></g><g class="overaxes-above"/></g></g><g class="polarlayer"/><g class="smithlayer"/><g class="ternarylayer"/><g class="geolayer"/><g class="funnelarealayer"/><g class="pielayer"/><g class="iciclelayer"/><g class="treemaplayer"/><g class="sunburstlayer"/><g class="glimages"/><defs id="topdefs-df284f"><g class="clips"/><clipPath id="legenddf284f"><rect width="163" height="90" x="0" y="0"/></clipPath></defs><g class="layer-above"><g class="imagelayer"/><g class="shapelayer"/></g><g class="infolayer"><g class="legend" pointer-events="all" transform="translate(324.8,100)"><rect class="bg" shape-rendering="crispEdges" width="163" height="90" x="0" y="0" style="stroke: rgb(68, 68, 68); stroke-opacity: 1; fill: rgb(0, 0, 0); fill-opacity: 0; stroke-width: 0px;"/><g class="scrollbox" transform="" clip-path="url(#legenddf284f)"><g class="groups"><g class="traces" transform="translate(0,18.200000000000003)" style="opacity: 1;"><text class="legendtext" text-anchor="start" x="40" y="7.0200000000000005" style="font-family: 'Times New Roman', monospace; font-size: 18px; fill: rgb(105, 105, 105); fill-opacity: 1; white-space: pre;">CoN​<tspan style="font-size:70%" dy="0.3em">X</tspan><tspan dy="-0.21em">​</tspan></text><g class="layers" style="opacity: 1;"><g class="legendfill"/><g class="legendlines"><path class="js-line" d="M5,0h30" style="fill: none; stroke: rgb(204, 102, 119); stroke-opacity: 1; stroke-width: 2px;"/></g><g class="legendsymbols"><g class="legendpoints"/></g></g><rect class="legendtoggle" x="0" y="-13.200000000000001" width="157.8125" height="26.400000000000002" style="fill: rgb(0, 0, 0); fill-opacity: 0;"/></g><g class="traces" transform="translate(0,44.6)" style="opacity: 1;"><text class="legendtext" text-anchor="start" x="40" y="7.0200000000000005" style="font-family: 'Times New Roman', monospace; font-size: 18px; fill: rgb(105, 105, 105); fill-opacity: 1; white-space: pre;">NiN​<tspan style="font-size:70%" dy="0.3em">X</tspan><tspan dy="-0.21em">​</tspan></text><g class="layers" style="opacity: 1;"><g class="legendfill"/><g class="legendlines"><path class="js-line" d="M5,0h30" style="fill: none; stroke: rgb(221, 204, 119); stroke-opacity: 1; stroke-width: 2px;"/></g><g class="legendsymbols"><g class="legendpoints"/></g></g><rect class="legendtoggle" x="0" y="-13.200000000000001" width="157.8125" height="26.400000000000002" style="fill: rgb(0, 0, 0); fill-opacity: 0;"/></g><g class="traces" transform="translate(0,71)" style="opacity: 1;"><text class="legendtext" text-anchor="start" x="40" y="7.0200000000000005" style="font-family: 'Times New Roman', monospace; font-size: 18px; fill: rgb(105, 105, 105); fill-opacity: 1; white-space: pre;">Co​<tspan style="font-size:70%" dy="0.3em">45</tspan><tspan dy="-0.21em">​</tspan>Ni​<tspan style="font-size:70%" dy="0.3em">45</tspan><tspan dy="-0.21em">​</tspan>Fe​<tspan style="font-size:70%" dy="0.3em">10</tspan><tspan dy="-0.21em">​</tspan>N​<tspan style="font-size:70%" dy="0.3em">X</tspan><tspan dy="-0.21em">​</tspan></text><g class="layers" style="opacity: 1;"><g class="legendfill"/><g class="legendlines"><path class="js-line" d="M5,0h30" style="fill: none; stroke: rgb(68, 170, 153); stroke-opacity: 1; stroke-width: 2px;"/></g><g class="legendsymbols"><g class="legendpoints"/></g></g><rect class="legendtoggle" x="0" y="-13.200000000000001" width="157.8125" height="26.400000000000002" style="fill: rgb(0, 0, 0); fill-opacity: 0;"/></g></g></g><rect class="scrollbar" rx="20" ry="3" width="0" height="0" x="0" y="0" style="fill: rgb(128, 139, 164); fill-opacity: 1;"/></g><g class="g-gtitle"/><g class="g-xtitle"><text class="xtitle" x="200" y="483.009375" text-anchor="middle" style="font-family: 'Times New Roman', monospace; font-size: 22px; fill: rgb(105, 105, 105); opacity: 1; font-weight: normal; white-space: pre;">Time (min)</text></g><g class="g-ytitle" transform="translate(6.759765625,0)"><text class="ytitle" transform="rotate(-90,16.490625,260)" x="16.490625" y="260" text-anchor="middle" style="font-family: 'Times New Roman', monospace; font-size: 22px; fill: rgb(105, 105, 105); opacity: 1; font-weight: normal; white-space: pre;">Current (mA/cm​<tspan style="font-size:70%" dy="-0.6em">2</tspan><tspan dy="0.42em">​</tspan>)</text></g></g></svg>