<svg class="main-svg" xmlns="http://www.w3.org/2000/svg" xmlns:xlink="http://www.w3.org/1999/xlink" width="600" height="500" style="" viewBox="0 0 600 500"><rect x="0" y="0" width="600" height="500" style="fill: rgb(0, 0, 0); fill-opacity: 0;"/><defs id="defs-bac010"><g class="clips"><clipPath id="clipbac010xyplot" class="plotclip"><rect width="340" height="320"/></clipPath><clipPath class="axesclip" id="clipbac010x"><rect x="80" y="0" width="340" height="500"/></clipPath><clipPath class="axesclip" id="clipbac010y"><rect x="0" y="100" width="600" height="320"/></clipPath><clipPath class="axesclip" id="clipbac010xy"><rect x="80" y="100" width="340" height="320"/></clipPath></g><g class="gradients"/><g class="patterns"/></defs><g class="bglayer"><rect class="bg" x="80" y="100" width="340" height="320" style="fill: rgb(0, 0, 0); fill-opacity: 0; stroke-width: 0;"/></g><g class="layer-below"><g class="imagelayer"/><g class="shapelayer"/></g><g class="cartesianlayer"><g class="subplot xy"><g class="layer-subplot"><g class="shapelayer"/><g class="imagelayer"/></g><g class="minor-gridlayer"><g class="x"/><g class="y"/></g><g class="gridlayer"><g class="x"/><g class="y"/></g><g class="zerolinelayer"><path class="yzl zl crisp" transform="translate(0,408.15)" d="M80,0h340" style="stroke: rgb(128, 128, 128); stroke-opacity: 1; stroke-width: 1px;"/></g><path class="xlines-below"/><path class="ylines-below"/><g class="overlines-below"/><g class="xaxislayer-below"/><g class="yaxislayer-below"/><g class="overaxes-below"/><g class="plot" transform="translate(80,100)" clip-path="url(#clipbac010xyplot)"><g class="scatterlayer mlayer"><g class="trace scatter trace5e0038" style="stroke-miterlimit: 2; opacity: 1;"><g class="fills"/><g class="errorbars"/><g class="lines"><path class="js-line" d="M-139.26,308.21L-108.83,307.94L-108.2,307.94L126,307.2L126.15,307.17L135.53,306.18L135.31,306.1L136.41,306.03L147.03,303.2L147.2,303.04L150.55,301.84L150.55,301.64L156.58,298.89L156.73,298.65L159.96,296.6L160.39,296.33L162.68,294.88L163,294.58L165.52,292.37L166.09,292.03L166.94,291L167.13,290.65L169,289.2L169.47,288.83L172.01,286.52L172.37,286.15L172.4,285.57L173.46,285.18L173.91,283.92L174.58,283.51L177.31,281.33L176.66,280.89L180.4,276.73L179.86,276.24L182.44,274.78L181.99,274.27L182.26,273.28L183.26,272.77L183.1,272.24L184.08,271.72L184.12,271.2L185.07,270.68L184.98,269.6L185.95,269.09L187.71,266.39L188.33,265.85L188.43,264.69L188.51,264.12L190.01,262.38L189.95,261.8L193.43,257.03L193.31,256.43L195.86,252.11L195.79,251.48L196.9,250.24L197.79,249.58L197.16,248.91L197.64,248.29L199.19,245.68L199.68,245.04L200.37,243.03L200.4,242.36L201.93,241.01L201.9,240.31L203.11,237.6L203.53,236.89L203.53,236.21L204.34,235.54L204.83,233.43L205.41,232.71L206.43,231.28L205.88,230.56L207.8,228.42L207.71,227.66L209.51,223.24L210.28,222.48L211.38,219.45L212.18,218.66L211.95,217.15L212.3,216.42L213.62,214.82L213.56,213.95L214.32,212.41L214.65,211.61L216.6,206.86L216.05,206.1L217.49,205.31L217.06,204.5L218.88,201.32L218.83,200.4L221.02,194.77L222.09,193.96L221.54,193.11L221.92,192.24L222.53,190.47L222.93,189.67L224.42,184.67L224.65,183.83L226.9,179.79L226.64,178.93L228.84,172.71L229.94,171.84L229.92,170.14L229.57,169.35L231.34,166.68L231.34,165.7L233.25,159.35L233.91,158.51L234.5,155.82L234.86,154.81L235.26,152.99L235.83,152.12L237.32,147.7L237.35,146.76L237.32,145.79L238.08,144.9L240.05,138.19L239.71,137.18L241.7,133.62L241.72,132.66L242.82,129.83L242.57,128.82L244.08,124.62L244.12,123.73L246.46,118.04L245.91,117.04L246.62,116.11L246.38,115.16L247.39,113.31L247.71,112.27L249.7,105.76L250.27,104.67L250.88,101.82L251.63,100.92L251.68,97.04L252.14,96.15L252.49,94.15L253.18,93.18L253.64,91.06L253.38,89.91L256.36,82.69L256.13,81.62L256.65,78.3L257.29,77.51L259.63,67.95L260.03,66.63L259.85,65.63L260.54,64.84L260.71,61.94L261.59,60.99L262.35,57.91L262.45,56.92L266.89,41.81L267.17,41.4L266.55,41.95L266.39,43.31L265.72,45.17L266,46.16L264.86,48.36L264.8,49.63L261.07,66.28L260.58,67.42L260.07,70.45L259.18,71L259.12,74.5L258.64,75.55L257.64,76.45L258.07,77.6L257.34,80.94L256.66,82.09L256.88,84.2L255.9,85.19L253.54,96.15L253.1,97.34L251.33,104.55L250.83,105.54L251.05,106.52L250.5,107.54L248.44,114.61L248.84,115.57L247.37,118.51L247.29,119.5L246.9,121.39L246.37,122.43L245.9,124.41L245.71,125.45L244.49,128.78L244.87,129.93L243.65,132.71L243.68,133.8L240.25,144.45L240.06,145.4L239.02,148.44L238.53,149.4L238.3,152.29L237.84,153.19L234.49,164.52L233.74,165.38L232.83,169.13L232.61,170.01L231.56,172.84L231.68,173.77L230.29,177.48L229.26,178.22L230.09,179.15L229.51,180.12L227.93,184.58L227.26,185.36L227.14,187.16L227.26,187.99L225.7,190.66L225.58,191.48L224.1,195.02L224.66,195.89L223.15,198.49L222.58,199.3L221.42,203.53L220.7,204.31L219.45,210.11L218.39,210.87L216.13,216.74L216.23,217.62L214.84,219.92L214.87,220.72L212.22,226L212.38,226.79L209.73,231.92L209.31,232.64L209.27,234.1L208.8,234.85L207.43,237.02L207.55,237.71L206.53,239.11L206.29,239.83L206.46,240.52L205.69,241.21L203.37,245.34L203.4,246.01L201.74,247.95L202.21,248.61L200.8,250.58L200.52,251.23L197.39,257.48L196.76,258.08L193.24,264L192.89,264.57L192.58,265.68L191.77,266.22L189.08,270.58L188.24,271.11L188.17,272.67L187.3,273.18L186.23,274.7L185.86,275.18L184.82,276.64L184.87,277.11L182.54,278.99L182.54,279.45L180.5,281.7L179.95,282.14L179.93,283.02L179.16,283.43L176.86,285.5L177,285.91L173.82,288.99L173.21,289.35L172.63,290.08L172.23,290.43L169.38,292.82L169.44,293.13L166.42,294.97L166.02,295.28L166.11,295.57L165.38,295.85L162.44,298.01L161.65,298.26L156.51,301.05L156.46,301.25L144.85,305.33L144.1,305.43L133.71,307.22L133.44,307.16L127.01,307.78L126.17,307.81L126.35,307.83L122.05,308.01L122.06,308.02L120.95,308.04L71.71,308.31L71.27,308.31L-140.25,308.58" style="vector-effect: non-scaling-stroke; fill: none; stroke: rgb(136, 204, 238); stroke-opacity: 1; stroke-width: 2px; opacity: 1;"/></g><g class="points"/><g class="text"/></g><g class="trace scatter trace6bb27e" style="stroke-miterlimit: 2; opacity: 1;"><g class="fills"/><g class="errorbars"/><g class="lines"><path class="js-line" d="M-138.99,308.16L221.03,307.41L221.53,307.4L247.44,306.52L247.97,306.51L312.88,303.14L225.09,307.38L224.59,307.39L167.21,308.05L166.62,308.05L135.91,308.12L135.4,308.12L-139.72,308.16" style="vector-effect: non-scaling-stroke; fill: none; stroke: rgb(204, 102, 119); stroke-opacity: 1; stroke-width: 2px; opacity: 1;"/></g><g class="points"/><g class="text"/></g><g class="trace scatter tracea63837" style="stroke-miterlimit: 2; opacity: 1;"><g class="fills"/><g class="errorbars"/><g class="lines"><path class="js-line" d="M-138.8,308.16L-14.54,308.14L-14.14,308.14L200.91,307.4L202,307.38L219.3,306.01L219.73,305.96L234.57,303.88L234.71,303.8L242.89,302.19L243.51,302.1L248.81,301.02L248.53,300.91L248.94,300.81L254.3,299.48L254.23,299.36L259.51,298.16L259.56,298.04L273.21,293.75L273.09,293.6L278.69,291.72L278.42,291.56L281.74,290.57L281.93,290.4L300.44,282.44L300.55,282.24L305.25,280.26L305.46,280.03L308.87,278.49L301.71,282.41L302.32,282.67L290.72,288.81L289.77,288.98L271.87,296L270.97,296.12L271.08,296.27L270.58,296.41L270.02,296.53L263.34,298.43L263.02,298.54L255.51,300.43L254.47,300.52L252.41,300.99L251.91,301.09L239.89,303.31L239.1,303.38L230.95,304.56L230.48,304.61L196.17,307.36L195.54,307.38L140.3,308.12L139.45,308.13L-139.52,308.17" style="vector-effect: non-scaling-stroke; fill: none; stroke: rgb(17, 119, 51); stroke-opacity: 1; stroke-width: 2px; opacity: 1;"/></g><g class="points"/><g class="text"/></g><g class="trace scatter trace9427f3" style="stroke-miterlimit: 2; opacity: 1;"><g class="fills"/><g class="errorbars"/><g class="lines"><path class="js-line" d="M-138.54,308.95L-48.46,308.18L-47.66,308.18L47.02,307.43L47.55,307.42L72.75,307.04L73.65,307.04L73.36,307.02L84.13,306.85L84.11,306.84L84.76,306.83L126.29,305.63L126.81,305.61L171,302.76L171.38,302.72L203.79,297.4L203.93,297.3L210.35,295.75L210.93,295.63L217.93,293.76L218.18,293.64L220.96,292.75L221.53,292.63L226.1,291.02L226.55,290.88L231.78,289.44L231.27,289.29L230.94,289.16L235.26,287.94L235.25,287.79L239.46,286.24L239.93,286.08L255.75,279.23L256.13,279L259.13,277.52L259.66,277.31L263.43,275.6L263.99,275.35L264.91,274.71L265.77,274.48L266.38,273.99L267.05,273.79L271.64,271.41L272.22,271.22L279.97,267.24L280.71,267.05L280.68,266.61L281.26,266.41L283.8,265.33L284.42,265.18L295.7,260.5L296.47,260.39L299.85,259.36L299.11,260.06L298.58,260.41L295.75,263.04L295.2,263.27L294.33,264.16L293.71,264.38L291.69,266.13L291.32,266.4L288.76,268.3L288.62,268.6L283.76,271.24L283.55,271.49L283.03,271.95L282.33,272.18L280.97,273.1L280.37,273.33L279.77,273.78L279.33,274.02L276.92,275.24L275.9,275.44L276.44,275.87L275.63,276.05L274.52,276.27L274.41,276.86L273.2,277.05L269.98,278.83L269.71,279.03L247.83,288.15L247.02,288.3L243.38,289.73L242.94,289.85L232.18,292.98L232.58,293.1L216.69,297.18L216.79,297.28L206.59,299.39L205.86,299.48L168.03,305.01L167.62,305.05L139.78,307.28L139.19,307.31L65.52,309.33L64.94,309.33L-139.12,308.95" style="vector-effect: non-scaling-stroke; fill: none; stroke: rgb(51, 34, 136); stroke-opacity: 1; stroke-width: 2px; opacity: 1;"/></g><g class="points"/><g class="text"/></g><g class="trace scatter trace78caec" style="stroke-miterlimit: 2; opacity: 1;"><g class="fills"/><g class="errorbars"/><g class="lines"><path class="js-line" d="M-139.05,308.15L288.54,307.4L288.93,307.39L313.93,307.01L268.32,307.74L267.84,307.75L-139.14,308.15L-139.13,308.15" style="vector-effect: non-scaling-stroke; fill: none; stroke: rgb(170, 68, 153); stroke-opacity: 1; stroke-width: 2px; opacity: 1;"/></g><g class="points"/><g class="text"/></g><g class="trace scatter trace404f8b" style="stroke-miterlimit: 2; opacity: 1;"><g class="fills"/><g class="errorbars"/><g class="lines"><path class="js-line" d="M-138.99,308.29L-22.85,308.16L-22.41,308.16L55.23,307.41L55.67,307.4L136.34,306.66L136.74,306.63L151.37,304.39L151.9,304.29L161.13,301.74L161.57,301.59L173.98,296.42L174.4,296.21L184.07,290.71L184.51,290.45L200.22,278.37L200.62,278.01L217.56,259.66L217.95,259.17L234.9,234.39L235.21,233.78L249.79,207.3L250.08,206.61L273.7,154.28L273.94,153.45L276.14,148.57L276.43,147.74L287.91,119.13L286.4,123.63L286.17,124.57L282.62,135.23L282.27,136.2L264.5,180.83L264.09,181.57L254.27,202.13L253.87,202.84L242.7,223.45L242.28,224.08L221.68,254.64L221.2,255.12L209.89,268.08L209.42,268.49L204.28,273.56L203.91,273.94L193.28,282.78L192.87,283.09L186.69,287.46L186.17,287.73L182.92,289.83L182.49,290.08L178.33,292.5L177.86,292.73L167.56,297.73L167.15,297.91L160.69,300.4L160.17,300.55L155.97,301.96L155.41,302.09L143.64,305.01L143.23,305.09L125.73,307.36L125.3,307.39L97.55,308.25L97.05,308.26L-139.15,308.29" style="vector-effect: non-scaling-stroke; fill: none; stroke: rgb(221, 204, 119); stroke-opacity: 1; stroke-width: 2px; opacity: 1;"/></g><g class="points"/><g class="text"/></g><g class="trace scatter tracecc0baa" style="stroke-miterlimit: 2; opacity: 1;"><g class="fills"/><g class="errorbars"/><g class="lines"><path class="js-line" d="M-134.94,308.36L56.22,307.03L57.65,307L89.75,306.7L91.03,306.7L137.05,306.34L138.39,306.21L150.32,304.22L151.86,303.89L161.22,300.96L162.42,300.45L172.73,295.5L173.79,294.77L182.57,289.11L183.53,288.2L187.4,285.35L188.68,284.35L196.92,276.64L198.32,275.45L207.11,265.14L208.24,263.74L211.84,259.46L212.81,257.97L216.31,253.38L217.37,251.8L220.47,247.01L221.72,245.38L223.76,242.05L224.32,240.34L227.07,236.85L227.86,235.11L230.06,231.54L231.14,229.68L233.49,226L234.34,224.13L252.64,187.49L253.09,185.3L256.15,178.76L257.3,176.47L281,118.08L279.89,122.29L279.17,125.13L274.81,138.09L273.67,140.62L273.27,143.24L271.89,144.49L268.79,151.53L268.17,154.16L265.39,156.87L264.88,159.19L249.48,195.69L248.37,197.7L236.19,221.68L234.81,222.38L230.89,229.7L229.59,231.57L223.48,241.94L222.18,243.56L219.09,248.44L217.71,249.97L212.33,257.52L211.37,258.95L204.66,267.14L203.73,268.39L191.27,280L190.67,281.05L186.96,284.03L185.78,284.97L169.38,295.4L167.93,296.04L160.25,299.58L158.93,300.1L149.8,303.2L148.46,303.57L136.44,306.17L135.08,306.38L120.01,307.86L118.62,307.93L86.55,308.47L84.79,308.48L-135.41,308.36" style="vector-effect: non-scaling-stroke; fill: none; stroke: rgb(68, 170, 153); stroke-opacity: 1; stroke-width: 2px; opacity: 1;"/></g><g class="points"/><g class="text"/></g><g class="trace scatter trace910c2e" style="stroke-miterlimit: 2; opacity: 1;"><g class="fills"/><g class="errorbars"/><g class="lines"><path class="js-line" d="M-135.36,308.45L40.73,306.07L41.1,306.02L60.67,305.32L61.06,305.35L99.88,306.17L100.47,306.16L123.03,305.41L123.3,305.36L134.34,303.27L134.8,303.13L135.14,302.83L136.02,302.67L142.41,299.36L142.94,299.09L156.11,286.34L156.41,285.89L172.08,260.82L172.36,260.18L176.61,252.21L176.85,251.58L185.2,234.67L185.45,234.02L187.2,229.96L187.73,229.29L190.63,222.46L190.89,221.75L191.79,219.65L192.15,218.95L194.24,213.46L194.56,212.72L197.23,206.18L197.51,205.43L202.61,192.9L202.83,192.13L209.29,175.2L209.53,174.48L211.76,168.14L212.12,167.32L216.02,156.29L216.03,155.6L217.31,154.06L217.24,153.23L217.85,151.73L218.42,150.87L218.97,148.5L219.41,147.67L220.69,143.64L221.03,142.89L223.17,135.17L223.33,134.29L224.19,131.96L224.5,131.1L225.51,127.91L225.97,127.08L228.53,118.3L228.93,117.38L232.67,106.01L233.02,105.17L234.91,99.02L235.17,98.25L237.35,89.55L237.69,88.92L239.27,85.15L239.47,84.35L240.01,82.59L240.45,81.61L241.84,76.28L242.32,75.47L242.67,73.55L242.75,72.72L243.84,70.36L243.93,69.5L245.41,64.97L245.76,64.1L247.65,58.1L248.01,57.01L250.38,48.68L250.98,47.84L254.42,36.53L254.54,35.06L256.57,27.7L257.09,26.8L257.87,24.56L253,42.54L252.64,43.1L251.5,48.03L251.08,48.82L249.88,53.49L249.22,52.42L245.44,64.48L245.39,65.61L244.26,67.9L244.31,69.1L243.08,69.45L243,70.33L241.91,74.92L241.59,75.85L240.08,80.87L239.97,81.64L238.86,86.05L238.46,86.82L237.67,88.52L237.7,89.47L224.91,130.38L224.53,130.91L218.7,146.55L218.59,147.33L214.58,158.73L214.43,159.62L211.26,166.57L210.96,167.39L209.01,173.08L208.67,173.87L201.2,193.38L200.75,194.19L195.18,208.08L194.74,208.79L192.01,215.5L191.78,216.23L174.87,251.44L174.24,252.04L171.64,256.89L171.2,257.49L171.02,258.64L170.28,259.2L161.69,273.64L161.29,274.16L159.63,276.75L159.32,277.26L144.86,294.88L144.42,295.24L138.99,299.89L138.43,300.17L137.48,301.01L136.93,301.28L131.46,304.48L130.91,304.67L121.86,307.55L121.32,307.64L119.26,308.02L118.74,308.09L110.38,308.91L109.94,308.94L83.4,309.37L82.8,309.36L18.47,310.07L18.21,310.11L7.6,310.62L7.15,310.6L-135.63,308.45" style="vector-effect: non-scaling-stroke; fill: none; stroke: rgb(153, 153, 51); stroke-opacity: 1; stroke-width: 2px; opacity: 1;"/></g><g class="points"/><g class="text"/></g></g></g><g class="overplot"/><path class="xlines-above crisp" d="M78,421H420" style="fill: none; stroke-width: 2px; stroke: rgb(0, 0, 0); stroke-opacity: 1;"/><path class="ylines-above crisp" d="M79,100V420" style="fill: none; stroke-width: 2px; stroke: rgb(0, 0, 0); stroke-opacity: 1;"/><g class="overlines-above"/><g class="xaxislayer-above"><path class="xtick ticks crisp" d="M0,422v5" transform="translate(80,0)" style="stroke: rgb(68, 68, 68); stroke-opacity: 1; stroke-width: 1px;"/><path class="xtick ticks crisp" d="M0,422v5" transform="translate(125.33,0)" style="stroke: rgb(68, 68, 68); stroke-opacity: 1; stroke-width: 1px;"/><path class="xtick ticks crisp" d="M0,422v5" transform="translate(170.67000000000002,0)" style="stroke: rgb(68, 68, 68); stroke-opacity: 1; stroke-width: 1px;"/><path class="xtick ticks crisp" d="M0,422v5" transform="translate(216,0)" style="stroke: rgb(68, 68, 68); stroke-opacity: 1; stroke-width: 1px;"/><path class="xtick ticks crisp" d="M0,422v5" transform="translate(261.33000000000004,0)" style="stroke: rgb(68, 68, 68); stroke-opacity: 1; stroke-width: 1px;"/><path class="xtick ticks crisp" d="M0,422v5" transform="translate(306.66999999999996,0)" style="stroke: rgb(68, 68, 68); stroke-opacity: 1; stroke-width: 1px;"/><path class="xtick ticks crisp" d="M0,422v5" transform="translate(352,0)" style="stroke: rgb(68, 68, 68); stroke-opacity: 1; stroke-width: 1px;"/><path class="xtick ticks crisp" d="M0,422v5" transform="translate(397.33,0)" style="stroke: rgb(68, 68, 68); stroke-opacity: 1; stroke-width: 1px;"/><g class="xtick"><text text-anchor="middle" x="0" y="448.6" transform="translate(80,0)" style="font-family: 'Times New Roman', monospace; font-size: 18px; fill: rgb(105, 105, 105); fill-opacity: 1; white-space: pre; opacity: 1;">0</text></g><g class="xtick"><text text-anchor="middle" x="0" y="448.6" style="font-family: 'Times New Roman', monospace; font-size: 18px; fill: rgb(105, 105, 105); fill-opacity: 1; white-space: pre; opacity: 1;" transform="translate(125.33,0)">0.1</text></g><g class="xtick"><text text-anchor="middle" x="0" y="448.6" style="font-family: 'Times New Roman', monospace; font-size: 18px; fill: rgb(105, 105, 105); fill-opacity: 1; white-space: pre; opacity: 1;" transform="translate(170.67000000000002,0)">0.2</text></g><g class="xtick"><text text-anchor="middle" x="0" y="448.6" style="font-family: 'Times New Roman', monospace; font-size: 18px; fill: rgb(105, 105, 105); fill-opacity: 1; white-space: pre; opacity: 1;" transform="translate(216,0)">0.3</text></g><g class="xtick"><text text-anchor="middle" x="0" y="448.6" style="font-family: 'Times New Roman', monospace; font-size: 18px; fill: rgb(105, 105, 105); fill-opacity: 1; white-space: pre; opacity: 1;" transform="translate(261.33000000000004,0)">0.4</text></g><g class="xtick"><text text-anchor="middle" x="0" y="448.6" style="font-family: 'Times New Roman', monospace; font-size: 18px; fill: rgb(105, 105, 105); fill-opacity: 1; white-space: pre; opacity: 1;" transform="translate(306.66999999999996,0)">0.5</text></g><g class="xtick"><text text-anchor="middle" x="0" y="448.6" style="font-family: 'Times New Roman', monospace; font-size: 18px; fill: rgb(105, 105, 105); fill-opacity: 1; white-space: pre; opacity: 1;" transform="translate(352,0)">0.6</text></g><g class="xtick"><text text-anchor="middle" x="0" y="448.6" style="font-family: 'Times New Roman', monospace; font-size: 18px; fill: rgb(105, 105, 105); fill-opacity: 1; white-space: pre; opacity: 1;" transform="translate(397.33,0)">0.7</text></g></g><g class="yaxislayer-above"><path class="ytick ticks crisp" d="M78,0h-5" transform="translate(0,408.15)" style="stroke: rgb(68, 68, 68); stroke-opacity: 1; stroke-width: 1px;"/><path class="ytick ticks crisp" d="M78,0h-5" transform="translate(0,360.74)" style="stroke: rgb(68, 68, 68); stroke-opacity: 1; stroke-width: 1px;"/><path class="ytick ticks crisp" d="M78,0h-5" transform="translate(0,313.33000000000004)" style="stroke: rgb(68, 68, 68); stroke-opacity: 1; stroke-width: 1px;"/><path class="ytick ticks crisp" d="M78,0h-5" transform="translate(0,265.93)" style="stroke: rgb(68, 68, 68); stroke-opacity: 1; stroke-width: 1px;"/><path class="ytick ticks crisp" d="M78,0h-5" transform="translate(0,218.51999999999998)" style="stroke: rgb(68, 68, 68); stroke-opacity: 1; stroke-width: 1px;"/><path class="ytick ticks crisp" d="M78,0h-5" transform="translate(0,171.11)" style="stroke: rgb(68, 68, 68); stroke-opacity: 1; stroke-width: 1px;"/><path class="ytick ticks crisp" d="M78,0h-5" transform="translate(0,123.7)" style="stroke: rgb(68, 68, 68); stroke-opacity: 1; stroke-width: 1px;"/><g class="ytick"><text text-anchor="end" x="69.4" y="6.3" transform="translate(0,408.15)" style="font-family: 'Times New Roman', monospace; font-size: 18px; fill: rgb(105, 105, 105); fill-opacity: 1; white-space: pre; opacity: 1;">0</text></g><g class="ytick"><text text-anchor="end" x="69.4" y="6.3" style="font-family: 'Times New Roman', monospace; font-size: 18px; fill: rgb(105, 105, 105); fill-opacity: 1; white-space: pre; opacity: 1;" transform="translate(0,360.74)">20</text></g><g class="ytick"><text text-anchor="end" x="69.4" y="6.3" style="font-family: 'Times New Roman', monospace; font-size: 18px; fill: rgb(105, 105, 105); fill-opacity: 1; white-space: pre; opacity: 1;" transform="translate(0,313.33000000000004)">40</text></g><g class="ytick"><text text-anchor="end" x="69.4" y="6.3" style="font-family: 'Times New Roman', monospace; font-size: 18px; fill: rgb(105, 105, 105); fill-opacity: 1; white-space: pre; opacity: 1;" transform="translate(0,265.93)">60</text></g><g class="ytick"><text text-anchor="end" x="69.4" y="6.3" style="font-family: 'Times New Roman', monospace; font-size: 18px; fill: rgb(105, 105, 105); fill-opacity: 1; white-space: pre; opacity: 1;" transform="translate(0,218.51999999999998)">80</text></g><g class="ytick"><text text-anchor="end" x="69.4" y="6.3" style="font-family: 'Times New Roman', monospace; font-size: 18px; fill: rgb(105, 105, 105); fill-opacity: 1; white-space: pre; opacity: 1;" transform="translate(0,171.11)">100</text></g><g class="ytick"><text text-anchor="end" x="69.4" y="6.3" style="font-family: 'Times New Roman', monospace; font-size: 18px; fill: rgb(105, 105, 105); fill-opacity: 1; white-space: pre; opacity: 1;" transform="translate(0,123.7)">120</text></g></g><g class="overaxes-above"/></g></g><g class="polarlayer"/><g class="smithlayer"/><g class="ternarylayer"/><g class="geolayer"/><g class="funnelarealayer"/><g class="pielayer"/><g class="iciclelayer"/><g class="treemaplayer"/><g class="sunburstlayer"/><g class="glimages"/><defs id="topdefs-bac010"><g class="clips"/><clipPath id="legendbac010"><rect width="161" height="222" x="0" y="0"/></clipPath></defs><g class="layer-above"><g class="imagelayer"/><g class="shapelayer"/></g><g class="infolayer"><g class="legend" pointer-events="all" transform="translate(426.8,100)"><rect class="bg" shape-rendering="crispEdges" width="161" height="222" x="0" y="0" style="stroke: rgb(68, 68, 68); stroke-opacity: 1; fill: rgb(0, 0, 0); fill-opacity: 0; stroke-width: 0px;"/><g class="scrollbox" transform="" clip-path="url(#legendbac010)"><g class="groups"><g class="traces" transform="translate(0,18.200000000000003)" style="opacity: 1;"><text class="legendtext" text-anchor="start" x="40" y="7.0200000000000005" style="font-family: 'Times New Roman', monospace; font-size: 18px; fill: rgb(105, 105, 105); fill-opacity: 1; white-space: pre;">IrO​<tspan style="font-size:70%" dy="0.3em">x</tspan><tspan dy="-0.21em">​</tspan></text><g class="layers" style="opacity: 1;"><g class="legendfill"/><g class="legendlines"><path class="js-line" d="M5,0h30" style="fill: none; stroke: rgb(136, 204, 238); stroke-opacity: 1; stroke-width: 2px;"/></g><g class="legendsymbols"><g class="legendpoints"/></g></g><rect class="legendtoggle" x="0" y="-13.200000000000001" width="155.8125" height="26.400000000000002" style="fill: rgb(0, 0, 0); fill-opacity: 0;"/></g><g class="traces" transform="translate(0,44.6)" style="opacity: 1;"><text class="legendtext" text-anchor="start" x="40" y="7.0200000000000005" style="font-family: 'Times New Roman', monospace; font-size: 18px; fill: rgb(105, 105, 105); fill-opacity: 1; white-space: pre;">Ni​<tspan style="font-size:70%" dy="0.3em">60</tspan><tspan dy="-0.21em">​</tspan>Co​<tspan style="font-size:70%" dy="0.3em">30</tspan><tspan dy="-0.21em">​</tspan>Fe​<tspan style="font-size:70%" dy="0.3em">10</tspan><tspan dy="-0.21em">​</tspan>O​<tspan style="font-size:70%" dy="0.3em">x</tspan><tspan dy="-0.21em">​</tspan></text><g class="layers" style="opacity: 1;"><g class="legendfill"/><g class="legendlines"><path class="js-line" d="M5,0h30" style="fill: none; stroke: rgb(204, 102, 119); stroke-opacity: 1; stroke-width: 2px;"/></g><g class="legendsymbols"><g class="legendpoints"/></g></g><rect class="legendtoggle" x="0" y="-13.200000000000001" width="155.8125" height="26.400000000000002" style="fill: rgb(0, 0, 0); fill-opacity: 0;"/></g><g class="traces" transform="translate(0,71)" style="opacity: 1;"><text class="legendtext" text-anchor="start" x="40" y="7.0200000000000005" style="font-family: 'Times New Roman', monospace; font-size: 18px; fill: rgb(105, 105, 105); fill-opacity: 1; white-space: pre;">FeN​<tspan style="font-size:70%" dy="0.3em">x</tspan><tspan dy="-0.21em">​</tspan></text><g class="layers" style="opacity: 1;"><g class="legendfill"/><g class="legendlines"><path class="js-line" d="M5,0h30" style="fill: none; stroke: rgb(17, 119, 51); stroke-opacity: 1; stroke-width: 2px;"/></g><g class="legendsymbols"><g class="legendpoints"/></g></g><rect class="legendtoggle" x="0" y="-13.200000000000001" width="155.8125" height="26.400000000000002" style="fill: rgb(0, 0, 0); fill-opacity: 0;"/></g><g class="traces" transform="translate(0,97.4)" style="opacity: 1;"><text class="legendtext" text-anchor="start" x="40" y="7.0200000000000005" style="font-family: 'Times New Roman', monospace; font-size: 18px; fill: rgb(105, 105, 105); fill-opacity: 1; white-space: pre;">CoN​<tspan style="font-size:70%" dy="0.3em">x</tspan><tspan dy="-0.21em">​</tspan></text><g class="layers" style="opacity: 1;"><g class="legendfill"/><g class="legendlines"><path class="js-line" d="M5,0h30" style="fill: none; stroke: rgb(51, 34, 136); stroke-opacity: 1; stroke-width: 2px;"/></g><g class="legendsymbols"><g class="legendpoints"/></g></g><rect class="legendtoggle" x="0" y="-13.200000000000001" width="155.8125" height="26.400000000000002" style="fill: rgb(0, 0, 0); fill-opacity: 0;"/></g><g class="traces" transform="translate(0,123.80000000000001)" style="opacity: 1;"><text class="legendtext" text-anchor="start" x="40" y="7.0200000000000005" style="font-family: 'Times New Roman', monospace; font-size: 18px; fill: rgb(105, 105, 105); fill-opacity: 1; white-space: pre;">NiN​<tspan style="font-size:70%" dy="0.3em">x</tspan><tspan dy="-0.21em">​</tspan></text><g class="layers" style="opacity: 1;"><g class="legendfill"/><g class="legendlines"><path class="js-line" d="M5,0h30" style="fill: none; stroke: rgb(170, 68, 153); stroke-opacity: 1; stroke-width: 2px;"/></g><g class="legendsymbols"><g class="legendpoints"/></g></g><rect class="legendtoggle" x="0" y="-13.200000000000001" width="155.8125" height="26.400000000000002" style="fill: rgb(0, 0, 0); fill-opacity: 0;"/></g><g class="traces" transform="translate(0,150.2)" style="opacity: 1;"><text class="legendtext" text-anchor="start" x="40" y="7.0200000000000005" style="font-family: 'Times New Roman', monospace; font-size: 18px; fill: rgb(105, 105, 105); fill-opacity: 1; white-space: pre;">Co​<tspan style="font-size:70%" dy="0.3em">30</tspan><tspan dy="-0.21em">​</tspan>Ni​<tspan style="font-size:70%" dy="0.3em">60</tspan><tspan dy="-0.21em">​</tspan>Fe​<tspan style="font-size:70%" dy="0.3em">10</tspan><tspan dy="-0.21em">​</tspan>N​<tspan style="font-size:70%" dy="0.3em">x</tspan><tspan dy="-0.21em">​</tspan></text><g class="layers" style="opacity: 1;"><g class="legendfill"/><g class="legendlines"><path class="js-line" d="M5,0h30" style="fill: none; stroke: rgb(221, 204, 119); stroke-opacity: 1; stroke-width: 2px;"/></g><g class="legendsymbols"><g class="legendpoints"/></g></g><rect class="legendtoggle" x="0" y="-13.200000000000001" width="155.8125" height="26.400000000000002" style="fill: rgb(0, 0, 0); fill-opacity: 0;"/></g><g class="traces" transform="translate(0,176.6)" style="opacity: 1;"><text class="legendtext" text-anchor="start" x="40" y="7.0200000000000005" style="font-family: 'Times New Roman', monospace; font-size: 18px; fill: rgb(105, 105, 105); fill-opacity: 1; white-space: pre;">Co​<tspan style="font-size:70%" dy="0.3em">45</tspan><tspan dy="-0.21em">​</tspan>Ni​<tspan style="font-size:70%" dy="0.3em">45</tspan><tspan dy="-0.21em">​</tspan>Fe​<tspan style="font-size:70%" dy="0.3em">10</tspan><tspan dy="-0.21em">​</tspan>N​<tspan style="font-size:70%" dy="0.3em">x</tspan><tspan dy="-0.21em">​</tspan></text><g class="layers" style="opacity: 1;"><g class="legendfill"/><g class="legendlines"><path class="js-line" d="M5,0h30" style="fill: none; stroke: rgb(68, 170, 153); stroke-opacity: 1; stroke-width: 2px;"/></g><g class="legendsymbols"><g class="legendpoints"/></g></g><rect class="legendtoggle" x="0" y="-13.200000000000001" width="155.8125" height="26.400000000000002" style="fill: rgb(0, 0, 0); fill-opacity: 0;"/></g><g class="traces" transform="translate(0,203)" style="opacity: 1;"><text class="legendtext" text-anchor="start" x="40" y="7.0200000000000005" style="font-family: 'Times New Roman', monospace; font-size: 18px; fill: rgb(105, 105, 105); fill-opacity: 1; white-space: pre;">Co​<tspan style="font-size:70%" dy="0.3em">57</tspan><tspan dy="-0.21em">​</tspan>Ni​<tspan style="font-size:70%" dy="0.3em">14</tspan><tspan dy="-0.21em">​</tspan>Fe​<tspan style="font-size:70%" dy="0.3em">29</tspan><tspan dy="-0.21em">​</tspan>N​<tspan style="font-size:70%" dy="0.3em">x</tspan><tspan dy="-0.21em">​</tspan></text><g class="layers" style="opacity: 1;"><g class="legendfill"/><g class="legendlines"><path class="js-line" d="M5,0h30" style="fill: none; stroke: rgb(153, 153, 51); stroke-opacity: 1; stroke-width: 2px;"/></g><g class="legendsymbols"><g class="legendpoints"/></g></g><rect class="legendtoggle" x="0" y="-13.200000000000001" width="155.8125" height="26.400000000000002" style="fill: rgb(0, 0, 0); fill-opacity: 0;"/></g></g></g><rect class="scrollbar" rx="20" ry="3" width="0" height="0" x="0" y="0" style="fill: rgb(128, 139, 164); fill-opacity: 1;"/></g><g class="g-gtitle"/><g class="g-xtitle"><text class="xtitle" x="250" y="483.009375" text-anchor="middle" style="font-family: 'Times New Roman', monospace; font-size: 22px; fill: rgb(105, 105, 105); opacity: 1; font-weight: normal; white-space: pre;">Overpotential, η(V) - iR​<tspan style="font-size:70%" dy="0.3em">u</tspan><tspan dy="-0.21em">​</tspan></text></g><g class="g-ytitle" transform="translate(11.259765625,0)"><text class="ytitle" transform="rotate(-90,11.990624999999994,260)" x="11.990624999999994" y="260" text-anchor="middle" style="font-family: 'Times New Roman', monospace; font-size: 22px; fill: rgb(105, 105, 105); opacity: 1; font-weight: normal; white-space: pre;">Current (mA/cm​<tspan style="font-size:70%" dy="-0.6em">2</tspan><tspan dy="0.42em">​</tspan>/mg)</text></g></g></svg>