<svg class="main-svg" xmlns="http://www.w3.org/2000/svg" xmlns:xlink="http://www.w3.org/1999/xlink" width="500" height="500" style="" viewBox="0 0 500 500"><rect x="0" y="0" width="500" height="500" style="fill: rgb(0, 0, 0); fill-opacity: 0;"/><defs id="defs-cfe6c8"><g class="clips"><clipPath id="clipcfe6c8xyplot" class="plotclip"><rect width="239" height="320"/></clipPath><clipPath class="axesclip" id="clipcfe6c8x"><rect x="80" y="0" width="239" height="500"/></clipPath><clipPath class="axesclip" id="clipcfe6c8y"><rect x="0" y="100" width="500" height="320"/></clipPath><clipPath class="axesclip" id="clipcfe6c8xy"><rect x="80" y="100" width="239" height="320"/></clipPath></g><g class="gradients"/><g class="patterns"/></defs><g class="bglayer"><rect class="bg" x="80" y="100" width="239" height="320" style="fill: rgb(0, 0, 0); fill-opacity: 0; stroke-width: 0;"/></g><g class="layer-below"><g class="imagelayer"/><g class="shapelayer"/></g><g class="cartesianlayer"><g class="subplot xy"><g class="layer-subplot"><g class="shapelayer"/><g class="imagelayer"/></g><g class="minor-gridlayer"><g class="x"/><g class="y"/></g><g class="gridlayer"><g class="x"/><g class="y"/></g><g class="zerolinelayer"><path class="yzl zl crisp" transform="translate(0,407.2)" d="M80,0h239" style="stroke: rgb(128, 128, 128); stroke-opacity: 1; stroke-width: 1px;"/></g><path class="xlines-below"/><path class="ylines-below"/><g class="overlines-below"/><g class="xaxislayer-below"/><g class="yaxislayer-below"/><g class="overaxes-below"/><g class="plot" transform="translate(80,100)" clip-path="url(#clipcfe6c8xyplot)"><g class="scatterlayer mlayer"><g class="trace scatter trace1be231" style="stroke-miterlimit: 2; opacity: 1;"><g class="fills"/><g class="errorbars"/><g class="lines"><path class="js-line" d="M-98.43,307.32L-78.29,306.95L-77.64,306.94L34.12,306.93L34.43,306.92L54.52,306.91L55.23,306.9L55.05,306.9L88.01,306.18L88.57,306.14L98.71,303.92L99.08,303.82L99.14,303.59L99.95,303.47L104.29,301.39L104.41,301.21L104.18,301.04L105.42,300.84L105.43,300.26L105.75,300.07L106.88,299.86L106.63,299.45L107.5,299.23L109.2,297.84L109.09,297.6L110.56,296.84L110.16,296.58L111,296.32L112.15,294.94L113.16,294.64L112.72,294.35L113.17,294.05L113.38,293.75L114.24,293.44L113.97,292.82L114.39,292.51L115.71,291.53L115.62,291.2L116.68,290.15L116.47,289.81L117.91,288.73L117.74,288.37L119.12,287.23L118.75,286.84L121.33,284.03L120.94,283.62L122.8,281.93L122.61,281.48L123.61,280.16L123.43,279.53L124.97,278.18L124.62,277.73L126.25,276.33L125.8,275.84L127.24,273.88L127.06,273.41L128.23,272.44L127.94,271.93L129.53,270.41L129.41,269.86L131,267.22L130.63,266.71L131.67,265.08L132.13,264.54L133.66,260.55L133.67,259.98L134.84,258.85L134.58,258.25L135.54,256.51L136.41,255.88L135.35,255.27L136.42,254.69L137.05,253.42L136.9,252.8L138.13,250.97L137.93,250.33L139.36,247.79L138.97,247.17L140.04,245.89L140.07,245.2L139.85,244.56L140.82,243.93L141.58,242.6L140.95,241.93L142.29,240.65L142.44,239.95L141.96,239.24L143.06,238.57L143.5,235.1L144.83,234.38L144.46,233L144.84,232.34L145.98,231.6L145.14,230.85L146.68,228.76L146.54,227.99L146.93,226.52L147.45,225.84L149.62,218.31L149.56,217.59L150.98,216.09L150.32,215.26L151.06,214.5L150.65,213.75L151.74,212.96L151.5,212.17L155.63,198.92L155.57,198.08L155.93,196.43L156.88,195.68L156.67,193.22L157.61,192.41L157.29,191.52L157.99,190.69L157.75,189.83L158.63,189.01L159.04,185.67L159.56,184.79L159.81,183.01L159.91,182.2L160.74,180.49L160.68,179.64L161.35,177.01L161.83,176.1L161.14,175.22L162.15,174.33L163.09,173.48L162.03,172.62L163.54,170.03L163.52,169.05L164.59,165.37L164.27,164.49L166.36,158.01L166.34,157.12L169.24,146.72L168.87,145.73L169.86,142.86L169.97,141.9L169.57,141.01L170.42,140.1L171.02,138.24L170.98,137.31L171.68,135.37L171.93,134.43L172.44,131.38L172.97,130.38L173.24,127.54L173.68,126.59L174.08,123.57L174.76,122.63L174.44,119.77L175.91,118.84L175.22,116.71L176.03,115.67L175.94,114.57L176.84,113.62L176.55,111.62L176.89,110.67L177.85,109.71L177.48,108.78L178.52,103.74L178.26,102.76L179.37,101.67L179.28,100.64L179.57,98.63L180.22,97.58L181.25,89.31L182.13,88.41L182.42,85.47L183.19,84.43L182.56,82.18L183.31,81.18L184.02,77.94L183.84,76.94L184.89,74.94L184.62,73.56L186.89,64.38L186.4,63.39L187.11,60.01L187.53,58.77L187.41,57.68L188.05,56.62L188.81,51.88L188.94,50.81L192.51,33.45L191.21,39.84L191.55,40.79L190.44,43.41L190.64,44.63L190.4,47.01L189.78,48.46L189.88,50.85L189.16,52.07L189.26,54.53L189.02,55.81L188.06,61.8L187.28,62.84L187.51,66.5L186.16,67.52L186.78,71.06L185.84,72.19L185.88,74.47L185.63,75.71L185.65,76.84L184.81,77.84L184.49,78.84L185,80.01L184.99,81.12L184.12,82.29L183.36,83.51L183.81,84.81L184.12,85.84L183.5,86.93L182.86,89.43L183.22,90.39L182.02,93.82L182.41,95.02L181.4,98.25L181.51,99.38L180.11,101.54L180.36,102.63L180.46,104.76L179.59,105.85L179.39,109.25L178.94,110.26L178.33,114.66L177.97,115.79L177.06,118.91L176.76,119.9L176.97,122.14L176.71,123.15L175.95,126.33L176.04,127.37L175.01,129.55L174.96,130.6L173.36,139.97L172.58,140.91L171.5,145.84L171.17,146.9L171.81,147.91L171.15,148.94L170.24,152.94L170.2,153.93L169.68,156L169.58,156.99L168.75,159.83L168.97,160.75L167.21,163.71L168.09,164.76L166.72,167.51L167.38,168.46L165.99,170.28L166.28,171.21L164.89,174.89L164.89,175.83L164.53,177.63L164.01,178.59L163.96,181.37L163.36,182.24L162.88,184.89L162.05,185.81L162.26,187.54L161.72,188.4L159.82,194.55L160.19,195.46L158.17,201.43L158.29,202.31L156.7,207.21L156.03,208.04L155.2,211.05L154.97,211.94L154.7,213.52L154.41,214.3L152.02,221.44L152.29,222.2L150.13,227.5L149.82,228.26L149.83,229.73L149.16,230.45L148.93,232.64L148.58,233.32L147.87,234.81L147.98,235.5L146.82,236.95L147.15,237.66L146.47,239.03L146.03,239.73L146.05,241.11L145.33,241.78L144.81,242.45L145.51,243.15L143.73,245.14L144.16,245.86L143.56,247.17L142.75,247.82L142.51,249.78L142.16,250.39L141.46,251.02L141.94,251.67L140.22,254.16L140.89,254.78L139.47,255.97L139.69,256.61L139.23,257.8L138.34,258.35L138.3,260.16L137.87,260.71L137.22,261.92L137.58,262.48L136.15,264.21L136.49,264.77L134.94,266.94L135.09,267.43L133.65,268.53L134.02,269.07L134.42,269.57L132.72,270.07L133.06,271.13L132.75,271.64L131.54,273.16L131.82,273.63L130.5,275.13L130.33,275.6L129.87,276.52L129.55,277.01L128.75,278.36L128,278.81L127.89,279.72L127.69,280.15L126.99,281.07L127.32,281.47L125.77,282.31L126.25,282.75L124.66,284.37L124.99,284.76L123.38,286.35L123.46,286.72L121.74,288.57L121.31,288.92L121.31,289.63L120.44,289.94L118.61,291.62L119.3,291.97L119.08,292.3L117.38,293.2L118,293.52L117.45,293.81L115.32,295.65L115.56,295.9L111.53,298.86L111.56,299.08L107.61,301.28L108.07,301.45L97.61,305.6L96.93,305.66L82.72,307.22L81.92,307.22L81.94,307.25L62.23,307.37L61.35,307.38L-114.73,307.27" style="vector-effect: non-scaling-stroke; fill: none; stroke: rgb(99, 110, 250); stroke-opacity: 1; stroke-width: 2px; opacity: 1;"/></g><g class="points"/><g class="text"/></g><g class="trace scatter trace4c7122" style="stroke-miterlimit: 2; opacity: 1;"><g class="fills"/><g class="errorbars"/><g class="lines"><path class="js-line" d="M-98.1,307.95L-20.1,307.24L-19.38,307.24L61.48,306.49L61.73,306.48L89.4,305.73L89.09,305.72L112.62,304.58L112.9,304.55L130.36,302.91L130.46,302.87L141.38,301.24L141.28,301.18L141.64,301.12L152.72,298.48L152.95,298.4L159.55,296.47L159.44,296.37L159.43,296.27L164.09,294.83L164.38,294.71L166,293.9L166.31,293.76L170.26,292.29L170.43,292.15L182.16,286.62L182.06,286.48L183.25,286.05L183.52,285.9L183.42,285.75L183.77,285.59L184.36,285.43L184.25,285.24L184.88,285.04L185.47,284.9L185.83,284.41L186.69,284.26L186.94,283.78L187.68,283.63L193.17,280.42L193.35,280.25L196.68,278.38L197.03,278.22L200.6,276.51L200.46,276.38L200.95,276.04L201.23,275.86L215.81,268.6L214.72,269.43L214.38,269.77L208.51,274.79L207.89,274.99L204.82,277.3L204.21,277.49L202.84,278.46L203.13,278.68L196.46,282.48L196.35,282.7L193.49,284.2L193.06,284.35L188.88,286.84L188.27,287L186.01,288.18L185.46,288.32L182.46,289.91L181.83,290.06L179.37,291.43L178.74,291.54L175.1,293.08L175.19,293.19L163.87,297.22L163.97,297.31L160.07,298.41L159.62,298.49L154.11,299.86L153.78,299.95L152.19,300.38L151.58,300.45L137.86,303.07L137.18,303.12L129.24,304.24L128.44,304.28L66.65,307.7L66.1,307.7L28.45,308.07L28,308.07L-163.7,307.86" style="vector-effect: non-scaling-stroke; fill: none; stroke: rgb(239, 85, 59); stroke-opacity: 1; stroke-width: 2px; opacity: 1;"/></g><g class="points"/><g class="text"/></g><g class="trace scatter tracee0b083" style="stroke-miterlimit: 2; opacity: 1;"><g class="fills"/><g class="errorbars"/><g class="lines"><path class="js-line" d="M-97.63,307.2L177.31,306.45L177.78,306.44L220.6,304.91L163.99,306.84L163.73,306.84L122.82,307.14L122.4,307.14L-97.77,307.2" style="vector-effect: non-scaling-stroke; fill: none; stroke: rgb(0, 204, 150); stroke-opacity: 1; stroke-width: 2px; opacity: 1;"/></g><g class="points"/><g class="text"/></g><g class="trace scatter tracedca007" style="stroke-miterlimit: 2; opacity: 1;"><g class="fills"/><g class="errorbars"/><g class="lines"><path class="js-line" d="M-98.38,307.21L142.32,306.46L142.51,306.43L160.24,303.62L160.71,303.54L166.52,302.02L166.9,301.93L168.82,301.24L169.29,301.13L174.69,298.98L174.92,298.86L178.55,297.44L178.62,297.3L179.47,296.89L179.75,296.75L181.58,295.74L182.23,295.6L185.27,294.07L185.06,293.91L188.43,292.12L188.89,291.95L188.82,291.79L189.43,291.62L189.97,291.45L191.67,290.06L192.51,289.88L194.52,288.43L195.21,288.25L196.23,287.12L196.68,286.93L198.89,285.58L198.81,285.39L201.66,283.61L201.74,283.41L203.66,282.18L203.58,281.97L205.93,280.3L206.3,280.09L208.7,278.31L208.51,278.09L210.99,276.6L211.25,276.37L211.06,276.15L211.84,275.96L212.68,275.75L212.33,275.29L212.97,275.09L213.57,274.87L213.84,274.23L213.54,274.2L214.5,274.04L214.06,274.52L213.54,274.79L211.91,276.26L212.1,276.55L211.87,276.84L209.47,278.79L209.9,279.08L200.58,286.82L200.18,287.01L198.51,288.48L197.98,288.66L197.21,289.43L196.64,289.61L194.83,290.73L194.92,290.92L192.25,292.29L192.62,292.46L189.82,293.73L189.85,293.87L169.63,301.51L169.31,301.59L158.49,304.03L158.21,304.08L142.44,306.06L142.02,306.09L126.38,306.94L125.84,306.94L92.22,307.19L91.69,307.19L-183.01,307.22" style="vector-effect: non-scaling-stroke; fill: none; stroke: rgb(171, 99, 250); stroke-opacity: 1; stroke-width: 2px; opacity: 1;"/></g><g class="points"/><g class="text"/></g><g class="trace scatter trace4bbbfa" style="stroke-miterlimit: 2; opacity: 1;"><g class="fills"/><g class="errorbars"/><g class="lines"><path class="js-line" d="M-98.52,307.21L160.43,306.46L160.75,306.45L194.4,304.92L194.59,304.91L219.95,303.54L172.34,306.25L171.76,306.26L127.25,307.06L126.72,307.07L126.9,307.07L-104.04,307.22" style="vector-effect: non-scaling-stroke; fill: none; stroke: rgb(255, 161, 90); stroke-opacity: 1; stroke-width: 2px; opacity: 1;"/></g><g class="points"/><g class="text"/></g><g class="trace scatter trace30926f" style="stroke-miterlimit: 2; opacity: 1;"><g class="fills"/><g class="errorbars"/><g class="lines"><path class="js-line" d="M-98.44,307.32L40.3,306.57L40.49,306.56L40,306.56L98.64,305.83L98.49,305.8L107.18,304.69L106.19,304.62L105.6,304.56L111.02,303.69L109.76,303.61L117.91,301.32L117.19,301.2L120.87,299.88L121.01,299.74L122.08,299.16L122.5,299.01L125.52,297.6L125.4,297.43L127.3,296.23L128.18,296.05L127.73,295.69L128.53,295.5L129.38,295.32L129.28,294.75L130.18,294.57L135.69,290.62L135.82,290.39L143.2,283.98L143.7,283.71L144.74,282.63L144.9,282.34L146.05,280.93L146.61,280.64L152.18,274.4L152.27,274.05L153.95,272.06L154.26,271.73L154.67,271.1L155.42,270.77L156.9,267.94L157.99,267.54L157.75,266.52L158.73,266.16L159.27,265.76L158.94,265.38L158.87,265L160.23,263.94L160,263.54L161.16,262.38L161.45,262.03L168.16,251.59L168.79,251.19L171.66,246L172.01,245.6L177.06,237.1L175.94,236.65L178.1,234.81L177.19,234.39L179.59,233.47L179.12,232.97L178.51,232.53L180.29,231.16L179.52,230.69L181.25,228.8L181.5,228.36L182.39,225.98L182.32,225.48L184.16,224.06L183.28,223.57L183.59,223.07L185,222.58L185.67,222.05L184.9,221.6L184.82,221.1L186.14,220.64L186.16,220.15L185.31,219.72L187.9,217.36L187.26,216.82L187.03,216.4L187.78,215.86L188.84,215.33L188.29,214.89L188.17,214.43L189.63,212.91L188.69,212.41L190.75,210.72L189.95,210.21L191.2,208.74L191.28,208.26L192.66,206.52L192.78,206.01L192.09,205.42L193.09,204.94L194.32,203.01L194.19,202.46L196.33,197.9L196.65,197.32L197.54,196.27L197.89,195.82L197.63,194.76L198.09,194.22L198.75,192.59L199,192.08L200.73,188.95L200.59,188.42L202.96,184.61L201.15,188.45L201.02,189.25L200.53,190.79L199.91,191.59L199.91,194.22L199.41,194.92L198.48,196.06L198.98,196.65L197.56,199.79L197.64,200.4L196.28,201.64L196.69,202.38L197.01,203.04L196.3,203.74L195.31,204.86L195.67,205.46L192.81,210.53L192.13,211.23L191.94,212.99L190.93,213.56L190.41,215.97L189.66,215.74L190.45,216.29L189.85,216.85L188.86,218.63L189.02,219.21L187.72,221.31L187.86,221.88L185.85,225.53L185.74,226.06L183.55,229.42L183.43,229.94L182.52,232L182.26,232.49L181.95,233.54L181.74,234L179.11,238.56L179.23,239.06L178.19,240.77L177.92,241.24L175.55,243.78L176.23,244.24L176.03,244.7L174.95,245.14L172.99,248.05L172.49,248.49L172.85,249.36L172.26,249.79L171.57,250.66L171.87,251.06L170.13,251.91L170.44,252.28L170.59,252.47L169,254.53L168.9,254.93L167.96,255.74L167.52,256.11L167.94,256.76L167.3,257.16L166.62,258.37L166.22,258.73L164.52,261L164.48,261.35L161.87,264.56L161.57,264.9L159.79,267.3L159.12,267.63L153.76,273.63L154.27,273.93L154.23,274.22L152.72,275.12L152.86,275.41L152.44,275.7L149.27,278.56L149.43,278.84L147.03,281.22L145.96,281.47L145.78,282.25L144.61,282.49L144.95,283.28L144.11,283.51L142.61,284.71L142.72,284.81L142.8,285.07L139.81,286.48L139.81,286.7L140.25,286.95L140,287.15L139.17,287.37L137.64,288.47L138.15,288.69L138.34,288.92L136.98,289.12L135.5,289.33L136.33,289.95L135.24,290.15L135.52,290.56L129.68,293.72L128.94,293.9L129.72,294.07L129,294.43L128.59,294.6L126.18,295.84L125.99,296L125.48,296.63L124.3,296.79L108.64,303.11L108.17,303.2L108.51,303.29L106.87,303.63L106.99,303.71L100.98,305.05L100.55,305.1L91.71,306.38L91.53,306.41L57.09,307.4L56.46,307.4L56.89,307.4L-152.74,307.3" style="vector-effect: non-scaling-stroke; fill: none; stroke: rgb(25, 211, 243); stroke-opacity: 1; stroke-width: 2px; opacity: 1;"/></g><g class="points"/><g class="text"/></g><g class="trace scatter traceb442cd" style="stroke-miterlimit: 2; opacity: 1;"><g class="fills"/><g class="errorbars"/><g class="lines"><path class="js-line" d="M-98.04,307.42L17.93,306.67L18.57,306.64L67.73,305.71L68.61,305.72L91.32,305.46L92.19,305.36L100.61,303.6L101.68,303.29L110.23,299.43L111.09,298.88L118.4,293.53L119.15,292.76L125.4,286.64L126.09,285.65L128.85,282.57L129.77,281.5L135.66,273.17L136.66,271.89L143.79,259.24L144.81,257.73L157.39,230.2L157.96,228.32L159.56,224.46L160.35,222.45L162.05,218.48L162.67,216.46L176.03,176.89L176.37,174.52L179.45,164.99L180.09,162.68L182.31,155.28L183.07,152.88L196.89,101.93L196.06,106.47L195.52,109.54L192.27,123.54L191.44,126.27L191.13,129.1L190.14,130.44L187.87,138.05L187.39,140.89L185.4,143.82L185.01,146.32L171.55,192.31L170.78,194.52L165.46,209.75L165.04,211.78L160.8,220.48L160.17,222.48L153.86,237.44L153.29,239.19L149.96,246.02L149.11,247.68L139.53,265.62L138.59,266.96L131.21,277.94L130.04,279.03L123.26,286.97L122.27,287.86L107.78,299.05L106.65,299.56L101.24,302.26L100.29,302.65L92.75,305.07L91.79,305.29L80.2,306.96L79.12,307.03L61.38,307.52L60.48,307.53L-98.37,307.43" style="vector-effect: non-scaling-stroke; fill: none; stroke: rgb(255, 102, 146); stroke-opacity: 1; stroke-width: 2px; opacity: 1;"/></g><g class="points"/><g class="text"/></g></g></g><g class="overplot"/><path class="xlines-above crisp" d="M78,421H319" style="fill: none; stroke-width: 2px; stroke: rgb(0, 0, 0); stroke-opacity: 1;"/><path class="ylines-above crisp" d="M79,100V420" style="fill: none; stroke-width: 2px; stroke: rgb(0, 0, 0); stroke-opacity: 1;"/><g class="overlines-above"/><g class="xaxislayer-above"><path class="xtick ticks crisp" d="M0,422v5" transform="translate(80,0)" style="stroke: rgb(68, 68, 68); stroke-opacity: 1; stroke-width: 1px;"/><path class="xtick ticks crisp" d="M0,422v5" transform="translate(111.87,0)" style="stroke: rgb(68, 68, 68); stroke-opacity: 1; stroke-width: 1px;"/><path class="xtick ticks crisp" d="M0,422v5" transform="translate(143.73,0)" style="stroke: rgb(68, 68, 68); stroke-opacity: 1; stroke-width: 1px;"/><path class="xtick ticks crisp" d="M0,422v5" transform="translate(175.6,0)" style="stroke: rgb(68, 68, 68); stroke-opacity: 1; stroke-width: 1px;"/><path class="xtick ticks crisp" d="M0,422v5" transform="translate(207.47,0)" style="stroke: rgb(68, 68, 68); stroke-opacity: 1; stroke-width: 1px;"/><path class="xtick ticks crisp" d="M0,422v5" transform="translate(239.33,0)" style="stroke: rgb(68, 68, 68); stroke-opacity: 1; stroke-width: 1px;"/><path class="xtick ticks crisp" d="M0,422v5" transform="translate(271.2,0)" style="stroke: rgb(68, 68, 68); stroke-opacity: 1; stroke-width: 1px;"/><path class="xtick ticks crisp" d="M0,422v5" transform="translate(303.07,0)" style="stroke: rgb(68, 68, 68); stroke-opacity: 1; stroke-width: 1px;"/><g class="xtick"><text text-anchor="middle" x="0" y="448.6" transform="translate(80,0)" style="font-family: 'Times New Roman', monospace; font-size: 18px; fill: rgb(105, 105, 105); fill-opacity: 1; white-space: pre; opacity: 1;">0</text></g><g class="xtick"><text text-anchor="middle" x="0" y="448.6" style="font-family: 'Times New Roman', monospace; font-size: 18px; fill: rgb(105, 105, 105); fill-opacity: 1; white-space: pre; opacity: 1;" transform="translate(111.87,0)">0.1</text></g><g class="xtick"><text text-anchor="middle" x="0" y="448.6" style="font-family: 'Times New Roman', monospace; font-size: 18px; fill: rgb(105, 105, 105); fill-opacity: 1; white-space: pre; opacity: 1;" transform="translate(143.73,0)">0.2</text></g><g class="xtick"><text text-anchor="middle" x="0" y="448.6" style="font-family: 'Times New Roman', monospace; font-size: 18px; fill: rgb(105, 105, 105); fill-opacity: 1; white-space: pre; opacity: 1;" transform="translate(175.6,0)">0.3</text></g><g class="xtick"><text text-anchor="middle" x="0" y="448.6" style="font-family: 'Times New Roman', monospace; font-size: 18px; fill: rgb(105, 105, 105); fill-opacity: 1; white-space: pre; opacity: 1;" transform="translate(207.47,0)">0.4</text></g><g class="xtick"><text text-anchor="middle" x="0" y="448.6" style="font-family: 'Times New Roman', monospace; font-size: 18px; fill: rgb(105, 105, 105); fill-opacity: 1; white-space: pre; opacity: 1;" transform="translate(239.33,0)">0.5</text></g><g class="xtick"><text text-anchor="middle" x="0" y="448.6" style="font-family: 'Times New Roman', monospace; font-size: 18px; fill: rgb(105, 105, 105); fill-opacity: 1; white-space: pre; opacity: 1;" transform="translate(271.2,0)">0.6</text></g><g class="xtick"><text text-anchor="middle" x="0" y="448.6" style="font-family: 'Times New Roman', monospace; font-size: 18px; fill: rgb(105, 105, 105); fill-opacity: 1; white-space: pre; opacity: 1;" transform="translate(303.07,0)">0.7</text></g></g><g class="yaxislayer-above"><path class="ytick ticks crisp" d="M78,0h-5" transform="translate(0,407.2)" style="stroke: rgb(68, 68, 68); stroke-opacity: 1; stroke-width: 1px;"/><path class="ytick ticks crisp" d="M78,0h-5" transform="translate(0,356)" style="stroke: rgb(68, 68, 68); stroke-opacity: 1; stroke-width: 1px;"/><path class="ytick ticks crisp" d="M78,0h-5" transform="translate(0,304.8)" style="stroke: rgb(68, 68, 68); stroke-opacity: 1; stroke-width: 1px;"/><path class="ytick ticks crisp" d="M78,0h-5" transform="translate(0,253.6)" style="stroke: rgb(68, 68, 68); stroke-opacity: 1; stroke-width: 1px;"/><path class="ytick ticks crisp" d="M78,0h-5" transform="translate(0,202.4)" style="stroke: rgb(68, 68, 68); stroke-opacity: 1; stroke-width: 1px;"/><path class="ytick ticks crisp" d="M78,0h-5" transform="translate(0,151.2)" style="stroke: rgb(68, 68, 68); stroke-opacity: 1; stroke-width: 1px;"/><path class="ytick ticks crisp" d="M78,0h-5" transform="translate(0,100)" style="stroke: rgb(68, 68, 68); stroke-opacity: 1; stroke-width: 1px;"/><g class="ytick"><text text-anchor="end" x="69.4" y="6.3" transform="translate(0,407.2)" style="font-family: 'Times New Roman', monospace; font-size: 18px; fill: rgb(105, 105, 105); fill-opacity: 1; white-space: pre; opacity: 1;">0</text></g><g class="ytick"><text text-anchor="end" x="69.4" y="6.3" style="font-family: 'Times New Roman', monospace; font-size: 18px; fill: rgb(105, 105, 105); fill-opacity: 1; white-space: pre; opacity: 1;" transform="translate(0,356)">20</text></g><g class="ytick"><text text-anchor="end" x="69.4" y="6.3" style="font-family: 'Times New Roman', monospace; font-size: 18px; fill: rgb(105, 105, 105); fill-opacity: 1; white-space: pre; opacity: 1;" transform="translate(0,304.8)">40</text></g><g class="ytick"><text text-anchor="end" x="69.4" y="6.3" style="font-family: 'Times New Roman', monospace; font-size: 18px; fill: rgb(105, 105, 105); fill-opacity: 1; white-space: pre; opacity: 1;" transform="translate(0,253.6)">60</text></g><g class="ytick"><text text-anchor="end" x="69.4" y="6.3" style="font-family: 'Times New Roman', monospace; font-size: 18px; fill: rgb(105, 105, 105); fill-opacity: 1; white-space: pre; opacity: 1;" transform="translate(0,202.4)">80</text></g><g class="ytick"><text text-anchor="end" x="69.4" y="6.3" style="font-family: 'Times New Roman', monospace; font-size: 18px; fill: rgb(105, 105, 105); fill-opacity: 1; white-space: pre; opacity: 1;" transform="translate(0,151.2)">100</text></g><g class="ytick"><text text-anchor="end" x="69.4" y="6.3" style="font-family: 'Times New Roman', monospace; font-size: 18px; fill: rgb(105, 105, 105); fill-opacity: 1; white-space: pre; opacity: 1;" transform="translate(0,100)">120</text></g></g><g class="overaxes-above"/></g></g><g class="polarlayer"/><g class="smithlayer"/><g class="ternarylayer"/><g class="geolayer"/><g class="funnelarealayer"/><g class="pielayer"/><g class="iciclelayer"/><g class="treemaplayer"/><g class="sunburstlayer"/><g class="glimages"/><defs id="topdefs-cfe6c8"><g class="clips"/><clipPath id="legendcfe6c8"><rect width="164" height="195" x="0" y="0"/></clipPath></defs><g class="layer-above"><g class="imagelayer"/><g class="shapelayer"/></g><g class="infolayer"><g class="legend" pointer-events="all" transform="translate(323.78,100)"><rect class="bg" shape-rendering="crispEdges" width="164" height="195" x="0" y="0" style="stroke: rgb(68, 68, 68); stroke-opacity: 1; fill: rgb(0, 0, 0); fill-opacity: 0; stroke-width: 0px;"/><g class="scrollbox" transform="" clip-path="url(#legendcfe6c8)"><g class="groups"><g class="traces" transform="translate(0,18.200000000000003)" style="opacity: 1;"><text class="legendtext" text-anchor="start" x="40" y="7.0200000000000005" style="font-family: 'Times New Roman', monospace; font-size: 18px; fill: rgb(105, 105, 105); fill-opacity: 1; white-space: pre;">IrO​<tspan style="font-size:70%" dy="0.3em">X</tspan><tspan dy="-0.21em">​</tspan></text><g class="layers" style="opacity: 1;"><g class="legendfill"/><g class="legendlines"><path class="js-line" d="M5,0h30" style="fill: none; stroke: rgb(99, 110, 250); stroke-opacity: 1; stroke-width: 2px;"/></g><g class="legendsymbols"><g class="legendpoints"/></g></g><rect class="legendtoggle" x="0" y="-13.200000000000001" width="158.8125" height="26.400000000000002" style="fill: rgb(0, 0, 0); fill-opacity: 0;"/></g><g class="traces" transform="translate(0,44.6)" style="opacity: 1;"><text class="legendtext" text-anchor="start" x="40" y="7.0200000000000005" style="font-family: 'Times New Roman', monospace; font-size: 18px; fill: rgb(105, 105, 105); fill-opacity: 1; white-space: pre;">CoN​<tspan style="font-size:70%" dy="0.3em">X</tspan><tspan dy="-0.21em">​</tspan></text><g class="layers" style="opacity: 1;"><g class="legendfill"/><g class="legendlines"><path class="js-line" d="M5,0h30" style="fill: none; stroke: rgb(239, 85, 59); stroke-opacity: 1; stroke-width: 2px;"/></g><g class="legendsymbols"><g class="legendpoints"/></g></g><rect class="legendtoggle" x="0" y="-13.200000000000001" width="158.8125" height="26.400000000000002" style="fill: rgb(0, 0, 0); fill-opacity: 0;"/></g><g class="traces" transform="translate(0,71)" style="opacity: 1;"><text class="legendtext" text-anchor="start" x="40" y="7.0200000000000005" style="font-family: 'Times New Roman', monospace; font-size: 18px; fill: rgb(105, 105, 105); fill-opacity: 1; white-space: pre;">NiN​<tspan style="font-size:70%" dy="0.3em">X</tspan><tspan dy="-0.21em">​</tspan></text><g class="layers" style="opacity: 1;"><g class="legendfill"/><g class="legendlines"><path class="js-line" d="M5,0h30" style="fill: none; stroke: rgb(0, 204, 150); stroke-opacity: 1; stroke-width: 2px;"/></g><g class="legendsymbols"><g class="legendpoints"/></g></g><rect class="legendtoggle" x="0" y="-13.200000000000001" width="158.8125" height="26.400000000000002" style="fill: rgb(0, 0, 0); fill-opacity: 0;"/></g><g class="traces" transform="translate(0,97.4)" style="opacity: 1;"><text class="legendtext" text-anchor="start" x="40" y="7.0200000000000005" style="font-family: 'Times New Roman', monospace; font-size: 18px; fill: rgb(105, 105, 105); fill-opacity: 1; white-space: pre;">FeN​<tspan style="font-size:70%" dy="0.3em">X</tspan><tspan dy="-0.21em">​</tspan></text><g class="layers" style="opacity: 1;"><g class="legendfill"/><g class="legendlines"><path class="js-line" d="M5,0h30" style="fill: none; stroke: rgb(171, 99, 250); stroke-opacity: 1; stroke-width: 2px;"/></g><g class="legendsymbols"><g class="legendpoints"/></g></g><rect class="legendtoggle" x="0" y="-13.200000000000001" width="158.8125" height="26.400000000000002" style="fill: rgb(0, 0, 0); fill-opacity: 0;"/></g><g class="traces" transform="translate(0,123.80000000000001)" style="opacity: 1;"><text class="legendtext" text-anchor="start" x="40" y="7.0200000000000005" style="font-family: 'Times New Roman', monospace; font-size: 18px; fill: rgb(105, 105, 105); fill-opacity: 1; white-space: pre;">Ni​<tspan style="font-size:70%" dy="0.3em">60</tspan><tspan dy="-0.21em">​</tspan>Co​<tspan style="font-size:70%" dy="0.3em">30</tspan><tspan dy="-0.21em">​</tspan>Fe​<tspan style="font-size:70%" dy="0.3em">10</tspan><tspan dy="-0.21em">​</tspan>O​<tspan style="font-size:70%" dy="0.3em">X</tspan><tspan dy="-0.21em">​</tspan></text><g class="layers" style="opacity: 1;"><g class="legendfill"/><g class="legendlines"><path class="js-line" d="M5,0h30" style="fill: none; stroke: rgb(255, 161, 90); stroke-opacity: 1; stroke-width: 2px;"/></g><g class="legendsymbols"><g class="legendpoints"/></g></g><rect class="legendtoggle" x="0" y="-13.200000000000001" width="158.8125" height="26.400000000000002" style="fill: rgb(0, 0, 0); fill-opacity: 0;"/></g><g class="traces" transform="translate(0,150.2)" style="opacity: 1;"><text class="legendtext" text-anchor="start" x="40" y="7.0200000000000005" style="font-family: 'Times New Roman', monospace; font-size: 18px; fill: rgb(105, 105, 105); fill-opacity: 1; white-space: pre;">Co​<tspan style="font-size:70%" dy="0.3em">30</tspan><tspan dy="-0.21em">​</tspan>Ni​<tspan style="font-size:70%" dy="0.3em">60</tspan><tspan dy="-0.21em">​</tspan>Fe​<tspan style="font-size:70%" dy="0.3em">10</tspan><tspan dy="-0.21em">​</tspan>N​<tspan style="font-size:70%" dy="0.3em">X</tspan><tspan dy="-0.21em">​</tspan></text><g class="layers" style="opacity: 1;"><g class="legendfill"/><g class="legendlines"><path class="js-line" d="M5,0h30" style="fill: none; stroke: rgb(25, 211, 243); stroke-opacity: 1; stroke-width: 2px;"/></g><g class="legendsymbols"><g class="legendpoints"/></g></g><rect class="legendtoggle" x="0" y="-13.200000000000001" width="158.8125" height="26.400000000000002" style="fill: rgb(0, 0, 0); fill-opacity: 0;"/></g><g class="traces" transform="translate(0,176.6)" style="opacity: 1;"><text class="legendtext" text-anchor="start" x="40" y="7.0200000000000005" style="font-family: 'Times New Roman', monospace; font-size: 18px; fill: rgb(105, 105, 105); fill-opacity: 1; white-space: pre;">Co​<tspan style="font-size:70%" dy="0.3em">45</tspan><tspan dy="-0.21em">​</tspan>Ni​<tspan style="font-size:70%" dy="0.3em">45</tspan><tspan dy="-0.21em">​</tspan>Fe​<tspan style="font-size:70%" dy="0.3em">10</tspan><tspan dy="-0.21em">​</tspan>N​<tspan style="font-size:70%" dy="0.3em">X</tspan><tspan dy="-0.21em">​</tspan></text><g class="layers" style="opacity: 1;"><g class="legendfill"/><g class="legendlines"><path class="js-line" d="M5,0h30" style="fill: none; stroke: rgb(255, 102, 146); stroke-opacity: 1; stroke-width: 2px;"/></g><g class="legendsymbols"><g class="legendpoints"/></g></g><rect class="legendtoggle" x="0" y="-13.200000000000001" width="158.8125" height="26.400000000000002" style="fill: rgb(0, 0, 0); fill-opacity: 0;"/></g></g></g><rect class="scrollbar" rx="20" ry="3" width="0" height="0" x="0" y="0" style="fill: rgb(128, 139, 164); fill-opacity: 1;"/></g><g class="g-gtitle"/><g class="g-xtitle"><text class="xtitle" x="199.5" y="483.009375" text-anchor="middle" style="font-family: 'Times New Roman', monospace; font-size: 22px; fill: rgb(105, 105, 105); opacity: 1; font-weight: normal; white-space: pre;">Overpotential, η(V) - iR​<tspan style="font-size:70%" dy="0.3em">u</tspan><tspan dy="-0.21em">​</tspan></text></g><g class="g-ytitle" transform="translate(11.259765625,0)"><text class="ytitle" transform="rotate(-90,11.990624999999994,260)" x="11.990624999999994" y="260" text-anchor="middle" style="font-family: 'Times New Roman', monospace; font-size: 22px; fill: rgb(105, 105, 105); opacity: 1; font-weight: normal; white-space: pre;">Current (mA/cm​<tspan style="font-size:70%" dy="-0.6em">2</tspan><tspan dy="0.42em">​</tspan>)</text></g></g></svg>