<svg class="main-svg" xmlns="http://www.w3.org/2000/svg" xmlns:xlink="http://www.w3.org/1999/xlink" width="500" height="500" style="" viewBox="0 0 500 500"><rect x="0" y="0" width="500" height="500" style="fill: rgb(0, 0, 0); fill-opacity: 0;"/><defs id="defs-24d431"><g class="clips"><clipPath id="clip24d431xyplot" class="plotclip"><rect width="203" height="320"/></clipPath><clipPath class="axesclip" id="clip24d431x"><rect x="80" y="0" width="203" height="500"/></clipPath><clipPath class="axesclip" id="clip24d431y"><rect x="0" y="100" width="500" height="320"/></clipPath><clipPath class="axesclip" id="clip24d431xy"><rect x="80" y="100" width="203" height="320"/></clipPath></g><g class="gradients"/><g class="patterns"/></defs><g class="bglayer"><rect class="bg" x="80" y="100" width="203" height="320" style="fill: rgb(0, 0, 0); fill-opacity: 0; stroke-width: 0;"/></g><g class="layer-below"><g class="imagelayer"/><g class="shapelayer"/></g><g class="cartesianlayer"><g class="subplot xy"><g class="layer-subplot"><g class="shapelayer"/><g class="imagelayer"/></g><g class="minor-gridlayer"><g class="x"/><g class="y"/></g><g class="gridlayer"><g class="x"/><g class="y"/></g><g class="zerolinelayer"><path class="yzl zl crisp" transform="translate(0,407.2)" d="M80,0h203" style="stroke: rgb(128, 128, 128); stroke-opacity: 1; stroke-width: 1px;"/></g><path class="xlines-below"/><path class="ylines-below"/><g class="overlines-below"/><g class="xaxislayer-below"/><g class="yaxislayer-below"/><g class="overaxes-below"/><g class="plot" transform="translate(80,100)" clip-path="url(#clip24d431xyplot)"><g class="scatterlayer mlayer"><g class="trace scatter traceb595e0" style="stroke-miterlimit: 2; opacity: 1;"><g class="fills"/><g class="errorbars"/><g class="lines"><path class="js-line" d="M-83.61,307.32L-66.5,306.95L-65.94,306.94L27.89,306.92L27.83,306.93L28.51,306.92L59.77,306.84L59.68,306.85L60.7,306.84L60.3,306.83L72.24,306.44L71.99,306.41L72.95,306.39L72.77,306.37L75.67,306.06L75.59,306.03L76.47,305.99L76.17,305.95L78.84,305.56L78.95,305.5L78.67,305.44L80.05,305.24L80.01,305.1L81.21,305.03L80.84,304.95L82.37,304.52L82.37,304.45L85.42,303.2L85.38,303.07L88.36,301.56L88.58,301.39L88.49,301.04L89.54,300.84L89.55,300.26L89.82,300.07L90.78,299.86L90.57,299.45L91.3,299.23L92.75,297.84L92.65,297.6L94.28,296.32L94.39,296.06L96.12,294.64L95.74,294.35L98.28,291.53L98.2,291.2L99.76,289.46L99.52,289.1L100.95,288L100.72,287.62L101.17,287.23L101.26,286.47L101.85,286.06L103.05,284.03L102.72,283.62L104.31,281.93L104.14,281.48L104.99,280.16L104.84,279.53L106.15,278.18L105.85,277.73L107.24,276.33L106.85,275.84L108.07,273.88L107.92,273.41L108.92,272.44L108.67,271.93L110.02,270.41L109.92,269.86L111.26,267.22L110.95,266.71L111.83,265.08L112.23,264.54L113.52,260.55L113.53,259.98L114.31,258.25L114.4,257.66L115.86,255.88L114.96,255.27L116.3,254.08L116.41,253.42L116.69,252.23L116.89,251.61L118.16,249.12L117.94,248.47L118.94,245.89L118.97,245.2L118.78,244.56L119.61,243.93L120.49,241.3L120.86,240.65L120.57,239.24L121.51,238.57L121.89,235.1L123.02,234.38L122.7,233L123.02,232.34L123.99,231.6L123.28,230.85L124.59,228.76L124.47,227.99L124.8,226.52L125.24,225.84L127.35,216.84L128.24,216.09L127.67,215.26L128.31,214.5L127.95,213.75L128.88,212.96L128.9,211.38L129.21,210.65L130.34,205.47L130.36,204.65L132.18,198.92L132.13,198.08L132.44,196.43L133.25,195.68L133.07,193.22L133.87,192.41L133.59,191.52L134.19,190.69L133.98,189.83L134.73,189.01L135.36,183.88L135.74,183.01L136.52,178.77L137.02,177.93L136.87,175.22L137.72,174.33L138.53,173.48L137.62,172.62L138.9,170.03L138.89,169.05L139.8,165.37L139.53,164.49L141.28,157.12L141.5,156.21L142.38,152.45L142.29,151.53L142.9,149.67L143.03,148.8L144.75,140.1L145.2,139.15L145.94,132.36L146.46,131.38L146.91,129.37L146.64,128.44L147.65,125.53L147.41,124.48L148.24,121.67L148.4,120.7L148.16,119.77L149.41,118.84L148.82,116.71L149.51,115.67L149.44,114.57L150.2,113.62L149.95,111.62L150.25,110.67L151.06,109.71L150.75,108.78L151.63,103.74L151.41,102.76L152.27,100.64L152.22,99.58L153.22,94.62L153.49,93.53L154.01,90.33L153.95,89.31L154.65,87.43L154.78,86.46L155.52,83.22L155.06,82.18L156.07,80.09L156.17,78.96L157.98,66.44L158.55,65.43L159.28,58.77L159.18,57.68L159.74,55.68L159.72,54.46L163.51,33.45L162.41,39.84L162.69,40.79L161.76,43.41L161.92,44.63L161.72,47.01L161.19,48.46L161.28,50.85L160.67,52.07L160.55,55.81L160.37,56.99L159.31,65.35L159.27,66.5L158.12,67.52L158.45,68.72L157.59,73.22L157.88,74.47L157.13,80.01L157.13,81.12L155.74,83.51L156.13,84.81L156.38,85.84L155.86,86.93L155.18,91.41L155.09,92.5L153.96,97.14L154.07,98.25L153.55,100.4L152.98,101.54L153.27,104.76L152.54,105.85L152.37,109.25L151.99,110.26L151.16,115.79L150.99,116.8L151.17,117.86L150.39,118.91L150.31,122.14L150.09,123.15L149.45,126.33L149.52,127.37L148.65,129.55L148.61,130.6L146.45,144.9L145.67,145.84L145.39,146.9L145.93,147.91L145.05,150.91L144.79,151.96L142.47,162.7L142.03,163.71L142.77,164.76L142.28,165.65L141.61,167.51L142.17,168.46L141.24,171.21L140.75,172.17L138.35,184.89L137.64,185.81L137.36,188.4L137.07,189.29L134.35,201.43L134.45,202.31L132.4,210.22L131.82,211.05L129.54,219.9L129.27,220.65L128.36,226.71L127.52,227.5L126.58,231.94L126.5,232.64L125.6,234.81L125.69,235.5L124.7,236.95L124.99,237.66L124.41,239.03L124.03,239.73L124.05,241.11L123.44,241.78L123,242.45L123.59,243.15L122.08,245.14L122.45,245.86L121.94,247.17L121.25,247.82L121.04,249.78L120.75,250.39L120.56,251.67L120.26,252.28L119.1,254.16L119.67,254.78L118.46,255.97L118.65,256.61L118.26,257.8L117.5,258.35L117.1,260.71L116.32,261.32L116.46,263.02L115.64,263.6L115.54,265.28L114.86,265.81L114.06,267.96L113.52,268.53L114.18,269.57L112.73,270.07L113.01,271.13L112.76,271.64L111.73,273.16L111.96,273.63L110.85,275.13L110.7,275.6L110.31,276.52L110.04,277.01L108.45,280.15L107.87,280.59L108.15,281.47L107.28,281.9L106.5,283.55L106.5,283.95L105.29,285.53L104.98,285.95L103.41,288.57L103.03,288.92L103.04,289.63L102.3,289.94L99.7,293.2L100.23,293.52L97.95,295.65L98.15,295.9L94.73,298.86L94.76,299.08L91.4,301.28L91.79,301.45L82.91,305.6L82.33,305.66L70.48,307.2L70.81,307.2L70.26,307.22L-97.45,307.27" style="vector-effect: non-scaling-stroke; fill: none; stroke: rgb(99, 110, 250); stroke-opacity: 1; stroke-width: 2px; opacity: 1;"/></g><g class="points"/><g class="text"/></g><g class="trace scatter traceb7bc99" style="stroke-miterlimit: 2; opacity: 1;"><g class="fills"/><g class="errorbars"/><g class="lines"><path class="js-line" d="M-83.32,307.95L-16.45,307.24L-15.46,307.24L83.37,305.35L83.36,305.34L83.55,305.33L101.93,303.98L102.17,303.95L118.05,301.57L118.01,301.52L126.49,299.47L126.54,299.39L140.87,293.89L141,293.76L156.59,285.21L156.5,285.02L159.95,283.04L160.14,282.87L162.14,281.56L162.3,281.39L163.97,280.36L164.07,280.15L165.92,278.76L166.76,278.59L167.9,277.74L168.25,277.57L174.27,273.51L174.73,273.34L175.23,272.9L175.57,272.74L183.3,268.21L182.32,268.72L182.38,269.05L177.11,274.46L176.57,274.67L173.45,277.19L172.98,277.36L173.16,277.57L172.66,277.99L172.29,278.17L172.53,278.4L171.97,278.78L171.16,278.93L171.14,279.34L170.81,279.46L170.51,279.69L167.1,282.03L166.87,282.23L165.93,283.13L165.22,283.25L158.59,287.71L158.56,287.84L155.6,289.32L155.66,289.47L151.24,291.63L151.12,291.8L144.4,294.94L144.2,295.05L129.27,300.31L128.75,300.39L111.57,303.94L111.11,303.99L79.53,306.87L79.07,306.88L59.09,307.64L58.27,307.65L34.24,308.03L33.88,308.03L-139.05,307.86" style="vector-effect: non-scaling-stroke; fill: none; stroke: rgb(239, 85, 59); stroke-opacity: 1; stroke-width: 2px; opacity: 1;"/></g><g class="points"/><g class="text"/></g><g class="trace scatter trace80d992" style="stroke-miterlimit: 2; opacity: 1;"><g class="fills"/><g class="errorbars"/><g class="lines"><path class="js-line" d="M-82.93,307.2L158.78,306.45L159.11,306.44L182.24,305.69L182.45,305.68L187.38,305.5L129.29,307.02L128.91,307.02L106.22,307.15L105.94,307.15L-83.04,307.2" style="vector-effect: non-scaling-stroke; fill: none; stroke: rgb(0, 204, 150); stroke-opacity: 1; stroke-width: 2px; opacity: 1;"/></g><g class="points"/><g class="text"/></g><g class="trace scatter trace6443be" style="stroke-miterlimit: 2; opacity: 1;"><g class="fills"/><g class="errorbars"/><g class="lines"><path class="js-line" d="M-83.56,307.21L-6.09,307.19L-6.14,307.19L-5.39,307.19L121.38,306.45L122.01,306.43L137.63,303.63L137.5,303.56L137.77,303.49L145.37,300.94L145.55,300.85L151.71,298.12L151.78,297.99L160.44,293.21L160.38,293.06L162.4,291.79L162.53,291.63L168.93,287.37L168.86,287.19L171.28,285.56L171.35,285.37L172.98,284.25L172.91,284.06L175.89,281.95L176.17,281.75L177.63,280.31L178.14,280.12L179.27,278.72L179.93,278.54L181.4,277.54L181.49,277.34L181.38,276.93L182.19,276.78L181.38,277.47L180.96,277.75L180.42,278.55L179.99,278.81L179.96,279.35L179.57,279.6L177.92,281.14L178.28,281.4L170.8,288.31L170.37,288.5L167.51,290.55L167.86,290.73L163.3,293.52L163.6,293.67L161.23,294.84L161.26,294.97L143.35,302.2L143.03,302.27L132.36,304.72L131.98,304.76L105.84,307L105.42,307L68.86,307.2L68.37,307.19L-155.45,307.22" style="vector-effect: non-scaling-stroke; fill: none; stroke: rgb(171, 99, 250); stroke-opacity: 1; stroke-width: 2px; opacity: 1;"/></g><g class="points"/><g class="text"/></g><g class="trace scatter tracebf66e2" style="stroke-miterlimit: 2; opacity: 1;"><g class="fills"/><g class="errorbars"/><g class="lines"><path class="js-line" d="M-83.68,307.21L138.63,306.46L138.81,306.45L186.82,303.93L117.12,307L116.71,307L-88.37,307.22" style="vector-effect: non-scaling-stroke; fill: none; stroke: rgb(255, 161, 90); stroke-opacity: 1; stroke-width: 2px; opacity: 1;"/></g><g class="points"/><g class="text"/></g><g class="trace scatter trace922793" style="stroke-miterlimit: 2; opacity: 1;"><g class="fills"/><g class="errorbars"/><g class="lines"><path class="js-line" d="M-83.61,307.33L-1.66,307.19L-1.2,307.19L40.07,306.44L39.9,306.44L40.03,306.43L84.85,305.69L85.04,305.65L96.69,302.63L96.34,302.52L95.9,302.42L99.68,301.26L100.15,301.14L99.54,301.01L100.49,300.75L100.37,300.62L101.08,300.49L104.53,298.6L104.33,298.45L104.39,298.29L106.62,297.3L106.51,297.13L106.7,296.96L106.46,296.78L107,296.61L107.86,296.43L108.13,295.89L108.87,295.71L108.49,295.33L109.17,295.14L109.89,294.95L109.81,294.37L110.58,294.18L115.25,290.1L115.36,289.87L127.14,276.33L127.03,276.03L130.24,272.07L130.12,271.72L131.37,269.98L132.01,269.64L133.27,266.72L134.19,266.31L133.98,265.27L134.82,264.89L135,264.09L134.94,263.69L136.09,262.6L135.9,262.19L136.89,261L137.13,260.63L150.39,234.93L149.44,234.47L151.27,232.57L150.5,232.14L152.54,231.19L152.14,230.67L151.62,230.22L153.13,228.81L152.48,228.32L154.16,225.92L154.38,225.38L155.1,224.43L154.89,223.91L155.43,222.5L156.25,221.92L156.42,221.49L155.68,220.98L155.94,220.47L157.13,219.97L157.7,219.42L157.05,218.95L156.98,218.43L158.1,217.97L157.71,216.56L158.55,216.05L158.65,215.07L159.6,214.58L158.86,213.59L159.5,213.04L160.4,212.48L159.93,212.04L159.83,211.56L161.07,210L160.27,209.48L162.02,207.74L161.34,207.21L162.4,205.7L162.46,205.2L163.64,203.41L163.74,202.88L163.15,202.27L164,201.78L165.05,199.79L164.94,199.22L167.03,193.92L167.12,193.36L168.08,192.38L167.75,191.75L169.36,188.05L169.51,187.67L170.03,186.46L170.65,185.93L170.57,184.26L171.34,183.78L172.39,180.81L171.45,182.17L171,182.99L170.72,186.45L170.33,187.19L169.96,188.72L169.96,189.38L167.8,196.47L167.87,197.09L166.72,198.38L167.07,199.14L167.33,199.82L166.73,200.54L165.89,201.7L166.2,202.31L162.37,211.88L162.41,212.48L161.09,212.91L161.77,213.48L160.42,215.89L160.55,216.49L159.45,218.66L159.56,219.24L157.85,223L157.77,223.55L155.91,227.01L155.8,227.55L154.55,231.26L154.37,231.73L152.13,236.44L152.23,236.96L151.35,238.72L151.12,239.2L149.11,241.82L149.68,242.29L148.59,243.22L148.36,243.67L148.49,244.59L147.82,245.02L146.91,247.15L146.82,247.57L145.73,248.91L145.98,249.33L144.5,250.2L144.77,250.58L144.89,250.78L143.54,252.9L143.46,253.31L142.1,255.61L141.48,256.04L140.51,258.42L140.04,258.81L138.32,261.77L137.99,262.15L136.45,264.64L136.19,264.97L135.72,266.07L135.15,266.41L128.19,275.97L127.79,276.25L127.9,276.81L127.39,277.09L126.21,278.51L126.1,278.77L122.79,282L123.25,282.28L123.12,282.54L121.59,283.78L121.13,284.02L121.29,284.38L120.52,284.62L118.75,285.84L118.75,286.07L119.12,286.32L118.91,286.53L118.21,286.76L116.91,287.89L117.34,288.12L117.51,288.35L116.35,288.56L115.09,288.78L115.79,289.41L114.87,289.62L110.15,293.3L109.52,293.49L110.18,293.66L109.57,294.04L109.22,294.21L106.58,296.31L105.57,296.47L92.28,302.99L91.88,303.07L92.16,303.16L90.96,303.43L90.77,303.52L89.76,303.93L89.25,304L86.99,304.66L86.57,304.73L80.64,305.96L80.23,306L70.51,307L70.01,307.01L57.61,307.34L57.21,307.34L38.03,307.45L36.96,307.45L37.76,307.45L-129.73,307.3" style="vector-effect: non-scaling-stroke; fill: none; stroke: rgb(25, 211, 243); stroke-opacity: 1; stroke-width: 2px; opacity: 1;"/></g><g class="points"/><g class="text"/></g><g class="trace scatter tracec28971" style="stroke-miterlimit: 2; opacity: 1;"><g class="fills"/><g class="errorbars"/><g class="lines"><path class="js-line" d="M-83.27,307.42L15.23,306.67L15.77,306.64L57.53,305.71L58.28,305.72L77.56,305.46L78.3,305.36L85.46,303.6L86.36,303.29L93.63,299.43L94.36,298.88L100.57,293.53L101.21,292.76L108.09,284.66L108.64,283.63L113.85,275.71L114.46,274.45L120.16,263.63L120.75,262.2L128.53,244.66L129.1,242.95L133.03,232.11L133.68,230.2L136.2,222.45L137.1,220.47L156.05,150.39L156.6,147.88L159.03,138.02L159.66,135.4L162.63,122.72L163.2,120.21L164.91,112.45L165.57,109.93L167.24,101.93L166.53,106.47L166.07,109.54L162.34,129.1L161.5,130.44L159.57,138.05L159.17,140.89L157.47,143.82L157.14,146.32L145.05,194.52L144.33,196.75L140.18,211.78L139.3,213.82L138.47,214.57L137.97,216.5L134.64,226.42L133.95,228.28L132.13,233.9L131.48,235.69L124.65,252.52L124.06,254.07L112.67,275.66L111.81,276.8L110.45,279.03L109.77,280.09L106.85,284.15L106.09,285.11L100.06,291.94L99.32,292.7L93.07,297.95L92.27,298.51L85.99,302.26L85.18,302.65L78.78,305.07L77.96,305.29L68.95,306.89L68.12,306.96L51.37,307.53L50.63,307.54L-83.55,307.43" style="vector-effect: non-scaling-stroke; fill: none; stroke: rgb(255, 102, 146); stroke-opacity: 1; stroke-width: 2px; opacity: 1;"/></g><g class="points"/><g class="text"/></g><g class="trace scatter trace4dc3e5" style="stroke-miterlimit: 2; opacity: 1;"><g class="fills"/><g class="errorbars"/><g class="lines"><path class="js-line" d="M-83.55,307.29L76.64,305.87L76.18,305.84L75.73,305.8L79.09,305.48L78.04,305.38L78.87,305.32L82.26,304.66L81.42,304.48L82.06,304.39L84.75,303.78L83.88,303.54L84.72,303.42L87.22,302.63L86.15,302.48L86.15,302.33L87.65,302.18L87.32,301.68L89.41,301.16L88.55,300.99L91.4,299.62L90.82,299.4L90.5,299.18L92.66,298.74L91.68,298.27L91.67,298.03L93.71,297.53L92.78,297.28L92.38,297.03L95.27,296.5L95.12,296.22L94,295.95L93.63,295.68L94.63,295.4L95.56,294.83L94.99,294.54L95.49,294.25L96.73,293.63L96.39,293.32L96.88,293.01L97.97,291.7L97.54,291.37L101.97,285.45L101.93,285.05L104.21,282.1L104.35,281.67L104.47,280.79L104.9,280.35L105.45,278.81L106.07,278.35L111.68,264.97L112.12,264.42L112.62,263.29L112.27,262.68L115.46,254.92L115.41,254.31L116.16,253.09L116.15,252.44L116.02,251.8L116.68,251.16L117.54,249.9L117.14,249.26L118.62,244.01L118.7,243.35L120.25,242L120.01,241.34L120.2,239.98L121.45,239.3L120.57,237.2L121.74,236.51L121.82,235.1L121.46,234.4L122.83,232.96L122.46,232.23L122.41,231.52L123.13,230.83L123.97,229.36L123.21,228.61L123.23,227.92L124.28,227.23L124.69,225.75L124.31,225.01L125.79,223.47L125.26,222.7L125.51,221.23L126.41,220.46L126.61,219.6L125.81,218.85L125.88,218.12L127.12,217.4L127.63,216.6L127.07,215.81L126.65,215.09L127.43,214.32L128.68,213.57L128.25,212.79L127.69,211.98L128.08,211.22L129.13,209.65L129.04,208.82L129.75,207.31L129.95,206.47L129.64,204.83L130.44,204L130.96,202.38L130.65,201.59L131.49,200.03L132.03,199.2L131.35,197.54L132.47,196.76L132.92,195.92L132.52,195.06L132.06,194.26L132.91,193.44L133.98,192.63L133.46,191.81L132.84,190.94L133.27,190.09L134.7,188.39L133.74,187.49L133.57,186.69L135.06,185.87L135.71,185.03L135.15,184.12L134.62,183.22L135.13,182.35L136.16,180.57L135.7,179.74L135.67,178.91L136.92,178.05L136.46,175.38L137.31,174.54L137.73,172.81L137.46,172.01L138.94,170.19L138.42,169.31L137.79,168.46L138.4,167.59L139.72,165.67L138.84,164.62L138.71,163.76L140.33,162.98L141.01,162.14L140.21,161.31L139.57,160.43L140.48,159.56L141.67,158.68L141.06,157.71L140.77,155.89L141.96,154.95L142.17,154.06L141.02,153.25L143.59,150.57L141.71,149.66L141.49,148.7L143.11,147.79L144.77,146.89L144.25,146L142.2,145.06L142.49,144.14L145.53,142.39L144.59,141.49L143.73,140.64L144.29,139.76L145.67,138.86L145.74,137.84L145.85,134.16L145.82,133.21L147.32,131.38L146.37,130.38L146.29,129.47L147.35,128.58L148.03,126.74L146.4,125.75L146.62,124.88L148.66,123.96L149.57,123.04L148.8,122.07L147.13,121.13L147.93,120.31L150.3,119.48L150.35,118.48L148.38,116.61L149.68,115.71L151.13,114.83L150.2,113.89L149.6,112.98L150.47,112.17L151.49,111.27L151.28,110.16L150.26,109.27L150.83,108.28L152.3,107.35L152.13,106.2L151.48,104.4L152.58,103.46L153.39,102.39L151.97,101.5L151.89,100.56L153.23,99.61L154.23,98.71L153.72,97.7L152.19,96.69L153,95.91L155.29,95L155.08,94.07L153.36,92.14L155.12,91.18L156.55,90.08L154.97,89.11L153.98,88.21L154.93,87.36L156.63,86.43L156.66,85.4L155.31,83.52L157.06,82.68L157.26,81.43L156.4,80.07L156.07,79.17L157.48,78.51L158.59,77.59L157.47,76.64L156.55,75.59L157.92,74.67L158.96,73.75L158.76,72.89L157.49,72.05L158.11,71.05L160.07,70.04L159.5,69.19L158.11,67.35L160.26,66.32L161.4,65.54L159.39,64.7L158.85,63.73L160.36,62.77L161.86,61.76L161.57,61.01L159.41,60.01L160.12,59.15L162.33,58.08L162.8,57L160.43,54.87L161.46,53.87L162.68,52.42L162.45,51.48L162.23,50.53L163.01,49.78L163.14,48.05L162.54,47.28L164.51,41.15L162.86,40.25L162.38,39.97L164.9,39.06L164.85,40.43L163.62,41.63L163.2,42.65L163.78,43.84L162.73,47.35L163,48.43L163.51,49.8L162.89,50.89L161.28,54.27L161.87,55.15L161.82,57.21L160.88,58.31L159.83,59.26L160.82,60.31L161.73,61.37L161.2,62.65L159.25,64.34L160.13,65.39L160.52,66.46L159.57,67.63L158.18,72.99L159.09,74.14L159.25,75.35L157.73,76.46L156.91,77.57L157.49,78.51L158.41,79.27L157.98,80.33L156.49,81.31L156.66,82.29L157.48,84.47L156.57,85.68L155.05,86.78L155.81,87.71L156.7,88.81L156.4,89.88L154.72,91.87L155.47,92.9L155.59,94.09L154.32,94.86L154.26,95.4L154.96,96.32L153.66,98.47L153.05,99.47L154.22,101.58L153.26,102.63L152.58,103.58L152.92,104.4L153.48,105.38L153.11,106.46L151.53,107.5L151.68,108.57L152.72,110.43L151.55,111.47L150.31,112.62L151.13,113.65L151.88,114.63L151.19,115.62L150.26,117.61L151,118.54L150.73,119.44L149.54,120.36L149.37,121.34L150.29,122.24L150.12,123.29L148.72,124.28L148.23,125.13L149.16,126.06L149.87,127.06L148.42,128.11L147.34,128.82L147.63,129.66L148.72,130.54L148.7,131.54L146.53,133.51L147.43,134.5L147.45,135.29L146.31,136.14L146.06,137.14L146.77,138.1L147.08,139.03L145.84,139.97L144.9,140.95L145.09,141.94L146.24,142.85L146.11,143.72L144.06,145.38L144.75,146.28L144.86,147.23L144.18,148.2L143.48,149.23L143.85,150.18L144.37,151.04L143.49,151.95L142.49,152.88L142.96,153.9L143.76,154.83L143.3,155.63L141.67,157.44L142.38,158.29L140.55,164.5L140.38,165.22L140.22,166.96L139.75,167.82L139.89,169.53L139.87,170.42L137.92,172.11L138.48,173.04L139.72,173.88L139.21,174.74L137.39,175.55L137.32,176.41L138.31,178.18L137.44,178.98L136.88,180.71L136.99,181.52L136.48,183.22L135.98,184.12L135.65,187.39L135.28,188.22L134.52,189.89L134.92,190.76L134.62,192.41L133.72,193.2L132.77,194.04L133.51,194.88L134.06,195.72L133.58,196.55L132.53,198.14L133.13,198.97L132.94,199.79L131.84,200.6L131.53,201.38L132.04,202.13L131.31,203.68L130.85,204.49L130.52,207.59L129.97,208.29L129.57,209.85L129.13,210.55L129.34,212.75L128.36,213.5L127.76,214.3L128.53,215.1L129.06,215.87L127.85,216.61L127.28,218.05L127.91,218.77L126.14,220.97L127.08,221.7L125.79,223.15L125.3,223.87L125.8,225.35L125.02,226.09L124.87,227.5L125.29,228.21L123.46,230.3L124.03,230.93L124.07,231.63L123.25,232.3L122.9,233.7L123.27,234.4L121.81,235.73L121.9,236.37L121.89,237.71L120.65,238.38L121.41,240.37L120.43,241.04L119.69,241.68L120.2,242.37L119.66,243.68L119.16,244.32L119.64,245.53L118.97,246.15L118.09,247.44L118.5,248.07L118.51,248.64L117.77,249.24L117.23,250.45L117.32,251.08L116.31,252.85L116.66,253.46L115.22,255.27L115.92,255.86L115.72,256.4L114.56,256.97L113.41,259.81L113.77,260.33L113.96,260.89L113.17,261.44L112.19,262.54L112.5,263.08L112,264.14L111.53,264.66L111.48,265.77L111.46,266.28L110.37,267.82L110.49,268.3L109.54,269.3L109.86,269.81L108.26,272.26L107.52,272.74L107.94,274.12L107.23,274.57L106.68,275.49L106.7,275.92L105.48,277.67L105.4,278.14L102.49,283.08L101.6,283.48L101.4,283.88L102.22,284.25L102.2,284.63L101.21,285.01L98.62,288.57L98.94,288.9L95.51,292.69L95.99,292.97L92.99,294.9L93.48,295.16L93.6,295.49L91.13,297.01L91.23,297.25L91.48,297.47L91.09,297.7L90.54,297.93L86.59,301.23L85.46,301.39L86.47,301.71L85.96,301.87L84.47,302.01L85.12,302.45L83.78,302.6L83.85,303L82.09,303.26L82.63,303.5L82.27,303.62L78.58,304.65L79.24,304.74L79.68,304.83L74.25,305.97L74.45,306.02L74.32,306.07L46.4,307.45L45.89,307.45L-103.44,307.28L-101.75,307.25" style="vector-effect: non-scaling-stroke; fill: none; stroke: rgb(182, 232, 128); stroke-opacity: 1; stroke-width: 2px; opacity: 1;"/></g><g class="points"/><g class="text"/></g></g></g><g class="overplot"/><path class="xlines-above crisp" d="M78,421H283" style="fill: none; stroke-width: 2px; stroke: rgb(0, 0, 0); stroke-opacity: 1;"/><path class="ylines-above crisp" d="M79,100V420" style="fill: none; stroke-width: 2px; stroke: rgb(0, 0, 0); stroke-opacity: 1;"/><g class="overlines-above"/><g class="xaxislayer-above"><path class="xtick ticks crisp" d="M0,422v5" transform="translate(80,0)" style="stroke: rgb(68, 68, 68); stroke-opacity: 1; stroke-width: 1px;"/><path class="xtick ticks crisp" d="M0,422v5" transform="translate(107.07,0)" style="stroke: rgb(68, 68, 68); stroke-opacity: 1; stroke-width: 1px;"/><path class="xtick ticks crisp" d="M0,422v5" transform="translate(134.13,0)" style="stroke: rgb(68, 68, 68); stroke-opacity: 1; stroke-width: 1px;"/><path class="xtick ticks crisp" d="M0,422v5" transform="translate(161.2,0)" style="stroke: rgb(68, 68, 68); stroke-opacity: 1; stroke-width: 1px;"/><path class="xtick ticks crisp" d="M0,422v5" transform="translate(188.26999999999998,0)" style="stroke: rgb(68, 68, 68); stroke-opacity: 1; stroke-width: 1px;"/><path class="xtick ticks crisp" d="M0,422v5" transform="translate(215.33,0)" style="stroke: rgb(68, 68, 68); stroke-opacity: 1; stroke-width: 1px;"/><path class="xtick ticks crisp" d="M0,422v5" transform="translate(242.4,0)" style="stroke: rgb(68, 68, 68); stroke-opacity: 1; stroke-width: 1px;"/><path class="xtick ticks crisp" d="M0,422v5" transform="translate(269.47,0)" style="stroke: rgb(68, 68, 68); stroke-opacity: 1; stroke-width: 1px;"/><g class="xtick"><text text-anchor="middle" x="0" y="448.6" transform="translate(80,0)" style="font-family: 'Times New Roman', monospace; font-size: 18px; fill: rgb(105, 105, 105); fill-opacity: 1; white-space: pre; opacity: 1;">0</text></g><g class="xtick"><text text-anchor="middle" x="0" y="448.6" style="font-family: 'Times New Roman', monospace; font-size: 18px; fill: rgb(105, 105, 105); fill-opacity: 1; white-space: pre; opacity: 1;" transform="translate(107.07,0)">0.1</text></g><g class="xtick"><text text-anchor="middle" x="0" y="448.6" style="font-family: 'Times New Roman', monospace; font-size: 18px; fill: rgb(105, 105, 105); fill-opacity: 1; white-space: pre; opacity: 1;" transform="translate(134.13,0)">0.2</text></g><g class="xtick"><text text-anchor="middle" x="0" y="448.6" style="font-family: 'Times New Roman', monospace; font-size: 18px; fill: rgb(105, 105, 105); fill-opacity: 1; white-space: pre; opacity: 1;" transform="translate(161.2,0)">0.3</text></g><g class="xtick"><text text-anchor="middle" x="0" y="448.6" style="font-family: 'Times New Roman', monospace; font-size: 18px; fill: rgb(105, 105, 105); fill-opacity: 1; white-space: pre; opacity: 1;" transform="translate(188.26999999999998,0)">0.4</text></g><g class="xtick"><text text-anchor="middle" x="0" y="448.6" style="font-family: 'Times New Roman', monospace; font-size: 18px; fill: rgb(105, 105, 105); fill-opacity: 1; white-space: pre; opacity: 1;" transform="translate(215.33,0)">0.5</text></g><g class="xtick"><text text-anchor="middle" x="0" y="448.6" style="font-family: 'Times New Roman', monospace; font-size: 18px; fill: rgb(105, 105, 105); fill-opacity: 1; white-space: pre; opacity: 1;" transform="translate(242.4,0)">0.6</text></g><g class="xtick"><text text-anchor="middle" x="0" y="448.6" style="font-family: 'Times New Roman', monospace; font-size: 18px; fill: rgb(105, 105, 105); fill-opacity: 1; white-space: pre; opacity: 1;" transform="translate(269.47,0)">0.7</text></g></g><g class="yaxislayer-above"><path class="ytick ticks crisp" d="M78,0h-5" transform="translate(0,407.2)" style="stroke: rgb(68, 68, 68); stroke-opacity: 1; stroke-width: 1px;"/><path class="ytick ticks crisp" d="M78,0h-5" transform="translate(0,356)" style="stroke: rgb(68, 68, 68); stroke-opacity: 1; stroke-width: 1px;"/><path class="ytick ticks crisp" d="M78,0h-5" transform="translate(0,304.8)" style="stroke: rgb(68, 68, 68); stroke-opacity: 1; stroke-width: 1px;"/><path class="ytick ticks crisp" d="M78,0h-5" transform="translate(0,253.6)" style="stroke: rgb(68, 68, 68); stroke-opacity: 1; stroke-width: 1px;"/><path class="ytick ticks crisp" d="M78,0h-5" transform="translate(0,202.4)" style="stroke: rgb(68, 68, 68); stroke-opacity: 1; stroke-width: 1px;"/><path class="ytick ticks crisp" d="M78,0h-5" transform="translate(0,151.2)" style="stroke: rgb(68, 68, 68); stroke-opacity: 1; stroke-width: 1px;"/><path class="ytick ticks crisp" d="M78,0h-5" transform="translate(0,100)" style="stroke: rgb(68, 68, 68); stroke-opacity: 1; stroke-width: 1px;"/><g class="ytick"><text text-anchor="end" x="69.4" y="6.3" transform="translate(0,407.2)" style="font-family: 'Times New Roman', monospace; font-size: 18px; fill: rgb(105, 105, 105); fill-opacity: 1; white-space: pre; opacity: 1;">0</text></g><g class="ytick"><text text-anchor="end" x="69.4" y="6.3" style="font-family: 'Times New Roman', monospace; font-size: 18px; fill: rgb(105, 105, 105); fill-opacity: 1; white-space: pre; opacity: 1;" transform="translate(0,356)">20</text></g><g class="ytick"><text text-anchor="end" x="69.4" y="6.3" style="font-family: 'Times New Roman', monospace; font-size: 18px; fill: rgb(105, 105, 105); fill-opacity: 1; white-space: pre; opacity: 1;" transform="translate(0,304.8)">40</text></g><g class="ytick"><text text-anchor="end" x="69.4" y="6.3" style="font-family: 'Times New Roman', monospace; font-size: 18px; fill: rgb(105, 105, 105); fill-opacity: 1; white-space: pre; opacity: 1;" transform="translate(0,253.6)">60</text></g><g class="ytick"><text text-anchor="end" x="69.4" y="6.3" style="font-family: 'Times New Roman', monospace; font-size: 18px; fill: rgb(105, 105, 105); fill-opacity: 1; white-space: pre; opacity: 1;" transform="translate(0,202.4)">80</text></g><g class="ytick"><text text-anchor="end" x="69.4" y="6.3" style="font-family: 'Times New Roman', monospace; font-size: 18px; fill: rgb(105, 105, 105); fill-opacity: 1; white-space: pre; opacity: 1;" transform="translate(0,151.2)">100</text></g><g class="ytick"><text text-anchor="end" x="69.4" y="6.3" style="font-family: 'Times New Roman', monospace; font-size: 18px; fill: rgb(105, 105, 105); fill-opacity: 1; white-space: pre; opacity: 1;" transform="translate(0,100)">120</text></g></g><g class="overaxes-above"/></g></g><g class="polarlayer"/><g class="smithlayer"/><g class="ternarylayer"/><g class="geolayer"/><g class="funnelarealayer"/><g class="pielayer"/><g class="iciclelayer"/><g class="treemaplayer"/><g class="sunburstlayer"/><g class="glimages"/><defs id="topdefs-24d431"><g class="clips"/><clipPath id="legend24d431"><rect width="201" height="222" x="0" y="0"/></clipPath></defs><g class="layer-above"><g class="imagelayer"/><g class="shapelayer"/></g><g class="infolayer"><g class="legend" pointer-events="all" transform="translate(287.06,100)"><rect class="bg" shape-rendering="crispEdges" width="201" height="222" x="0" y="0" style="stroke: rgb(68, 68, 68); stroke-opacity: 1; fill: rgb(0, 0, 0); fill-opacity: 0; stroke-width: 0px;"/><g class="scrollbox" transform="" clip-path="url(#legend24d431)"><g class="groups"><g class="traces" transform="translate(0,18.200000000000003)" style="opacity: 1;"><text class="legendtext" text-anchor="start" x="40" y="7.0200000000000005" style="font-family: 'Times New Roman', monospace; font-size: 18px; fill: rgb(105, 105, 105); fill-opacity: 1; white-space: pre;">IrO​<tspan style="font-size:70%" dy="0.3em">X</tspan><tspan dy="-0.21em">​</tspan></text><g class="layers" style="opacity: 1;"><g class="legendfill"/><g class="legendlines"><path class="js-line" d="M5,0h30" style="fill: none; stroke: rgb(99, 110, 250); stroke-opacity: 1; stroke-width: 2px;"/></g><g class="legendsymbols"><g class="legendpoints"/></g></g><rect class="legendtoggle" x="0" y="-13.200000000000001" width="195.015625" height="26.400000000000002" style="fill: rgb(0, 0, 0); fill-opacity: 0;"/></g><g class="traces" transform="translate(0,44.6)" style="opacity: 1;"><text class="legendtext" text-anchor="start" x="40" y="7.0200000000000005" style="font-family: 'Times New Roman', monospace; font-size: 18px; fill: rgb(105, 105, 105); fill-opacity: 1; white-space: pre;">CoN​<tspan style="font-size:70%" dy="0.3em">X</tspan><tspan dy="-0.21em">​</tspan></text><g class="layers" style="opacity: 1;"><g class="legendfill"/><g class="legendlines"><path class="js-line" d="M5,0h30" style="fill: none; stroke: rgb(239, 85, 59); stroke-opacity: 1; stroke-width: 2px;"/></g><g class="legendsymbols"><g class="legendpoints"/></g></g><rect class="legendtoggle" x="0" y="-13.200000000000001" width="195.015625" height="26.400000000000002" style="fill: rgb(0, 0, 0); fill-opacity: 0;"/></g><g class="traces" transform="translate(0,71)" style="opacity: 1;"><text class="legendtext" text-anchor="start" x="40" y="7.0200000000000005" style="font-family: 'Times New Roman', monospace; font-size: 18px; fill: rgb(105, 105, 105); fill-opacity: 1; white-space: pre;">NiN​<tspan style="font-size:70%" dy="0.3em">X</tspan><tspan dy="-0.21em">​</tspan></text><g class="layers" style="opacity: 1;"><g class="legendfill"/><g class="legendlines"><path class="js-line" d="M5,0h30" style="fill: none; stroke: rgb(0, 204, 150); stroke-opacity: 1; stroke-width: 2px;"/></g><g class="legendsymbols"><g class="legendpoints"/></g></g><rect class="legendtoggle" x="0" y="-13.200000000000001" width="195.015625" height="26.400000000000002" style="fill: rgb(0, 0, 0); fill-opacity: 0;"/></g><g class="traces" transform="translate(0,97.4)" style="opacity: 1;"><text class="legendtext" text-anchor="start" x="40" y="7.0200000000000005" style="font-family: 'Times New Roman', monospace; font-size: 18px; fill: rgb(105, 105, 105); fill-opacity: 1; white-space: pre;">FeN​<tspan style="font-size:70%" dy="0.3em">X</tspan><tspan dy="-0.21em">​</tspan></text><g class="layers" style="opacity: 1;"><g class="legendfill"/><g class="legendlines"><path class="js-line" d="M5,0h30" style="fill: none; stroke: rgb(171, 99, 250); stroke-opacity: 1; stroke-width: 2px;"/></g><g class="legendsymbols"><g class="legendpoints"/></g></g><rect class="legendtoggle" x="0" y="-13.200000000000001" width="195.015625" height="26.400000000000002" style="fill: rgb(0, 0, 0); fill-opacity: 0;"/></g><g class="traces" transform="translate(0,123.80000000000001)" style="opacity: 1;"><text class="legendtext" text-anchor="start" x="40" y="7.0200000000000005" style="font-family: 'Times New Roman', monospace; font-size: 18px; fill: rgb(105, 105, 105); fill-opacity: 1; white-space: pre;">Ni​<tspan style="font-size:70%" dy="0.3em">60</tspan><tspan dy="-0.21em">​</tspan>Co​<tspan style="font-size:70%" dy="0.3em">30</tspan><tspan dy="-0.21em">​</tspan>Fe​<tspan style="font-size:70%" dy="0.3em">10</tspan><tspan dy="-0.21em">​</tspan>O​<tspan style="font-size:70%" dy="0.3em">X</tspan><tspan dy="-0.21em">​</tspan></text><g class="layers" style="opacity: 1;"><g class="legendfill"/><g class="legendlines"><path class="js-line" d="M5,0h30" style="fill: none; stroke: rgb(255, 161, 90); stroke-opacity: 1; stroke-width: 2px;"/></g><g class="legendsymbols"><g class="legendpoints"/></g></g><rect class="legendtoggle" x="0" y="-13.200000000000001" width="195.015625" height="26.400000000000002" style="fill: rgb(0, 0, 0); fill-opacity: 0;"/></g><g class="traces" transform="translate(0,150.2)" style="opacity: 1;"><text class="legendtext" text-anchor="start" x="40" y="7.0200000000000005" style="font-family: 'Times New Roman', monospace; font-size: 18px; fill: rgb(105, 105, 105); fill-opacity: 1; white-space: pre;">Co​<tspan style="font-size:70%" dy="0.3em">30</tspan><tspan dy="-0.21em">​</tspan>Ni​<tspan style="font-size:70%" dy="0.3em">60</tspan><tspan dy="-0.21em">​</tspan>Fe​<tspan style="font-size:70%" dy="0.3em">10</tspan><tspan dy="-0.21em">​</tspan>N​<tspan style="font-size:70%" dy="0.3em">X</tspan><tspan dy="-0.21em">​</tspan></text><g class="layers" style="opacity: 1;"><g class="legendfill"/><g class="legendlines"><path class="js-line" d="M5,0h30" style="fill: none; stroke: rgb(25, 211, 243); stroke-opacity: 1; stroke-width: 2px;"/></g><g class="legendsymbols"><g class="legendpoints"/></g></g><rect class="legendtoggle" x="0" y="-13.200000000000001" width="195.015625" height="26.400000000000002" style="fill: rgb(0, 0, 0); fill-opacity: 0;"/></g><g class="traces" transform="translate(0,176.6)" style="opacity: 1;"><text class="legendtext" text-anchor="start" x="40" y="7.0200000000000005" style="font-family: 'Times New Roman', monospace; font-size: 18px; fill: rgb(105, 105, 105); fill-opacity: 1; white-space: pre;">Co​<tspan style="font-size:70%" dy="0.3em">45</tspan><tspan dy="-0.21em">​</tspan>Ni​<tspan style="font-size:70%" dy="0.3em">45</tspan><tspan dy="-0.21em">​</tspan>Fe​<tspan style="font-size:70%" dy="0.3em">10</tspan><tspan dy="-0.21em">​</tspan>N​<tspan style="font-size:70%" dy="0.3em">X</tspan><tspan dy="-0.21em">​</tspan></text><g class="layers" style="opacity: 1;"><g class="legendfill"/><g class="legendlines"><path class="js-line" d="M5,0h30" style="fill: none; stroke: rgb(255, 102, 146); stroke-opacity: 1; stroke-width: 2px;"/></g><g class="legendsymbols"><g class="legendpoints"/></g></g><rect class="legendtoggle" x="0" y="-13.200000000000001" width="195.015625" height="26.400000000000002" style="fill: rgb(0, 0, 0); fill-opacity: 0;"/></g><g class="traces" transform="translate(0,203)" style="opacity: 1;"><text class="legendtext" text-anchor="start" x="40" y="7.0200000000000005" style="font-family: 'Times New Roman', monospace; font-size: 18px; fill: rgb(105, 105, 105); fill-opacity: 1; white-space: pre;">CoNiFeNx 400C 24h</text><g class="layers" style="opacity: 1;"><g class="legendfill"/><g class="legendlines"><path class="js-line" d="M5,0h30" style="fill: none; stroke: rgb(182, 232, 128); stroke-opacity: 1; stroke-width: 2px;"/></g><g class="legendsymbols"><g class="legendpoints"/></g></g><rect class="legendtoggle" x="0" y="-13.200000000000001" width="195.015625" height="26.400000000000002" style="fill: rgb(0, 0, 0); fill-opacity: 0;"/></g></g></g><rect class="scrollbar" rx="20" ry="3" width="0" height="0" x="0" y="0" style="fill: rgb(128, 139, 164); fill-opacity: 1;"/></g><g class="g-gtitle"/><g class="g-xtitle"><text class="xtitle" x="181.5" y="483.009375" text-anchor="middle" style="font-family: 'Times New Roman', monospace; font-size: 22px; fill: rgb(105, 105, 105); opacity: 1; font-weight: normal; white-space: pre;">Overpotential, η(V) - iR​<tspan style="font-size:70%" dy="0.3em">u</tspan><tspan dy="-0.21em">​</tspan></text></g><g class="g-ytitle" transform="translate(11.259765625,0)"><text class="ytitle" transform="rotate(-90,11.990624999999994,260)" x="11.990624999999994" y="260" text-anchor="middle" style="font-family: 'Times New Roman', monospace; font-size: 22px; fill: rgb(105, 105, 105); opacity: 1; font-weight: normal; white-space: pre;">Current (mA/cm​<tspan style="font-size:70%" dy="-0.6em">2</tspan><tspan dy="0.42em">​</tspan>)</text></g></g></svg>