<svg class="main-svg" xmlns="http://www.w3.org/2000/svg" xmlns:xlink="http://www.w3.org/1999/xlink" width="500" height="500" style="" viewBox="0 0 500 500"><rect x="0" y="0" width="500" height="500" style="fill: rgb(255, 255, 255); fill-opacity: 1;"/><defs id="defs-f86535"><g class="clips"><clipPath id="clipf86535xyplot" class="plotclip"><rect width="421" height="412"/></clipPath><clipPath class="axesclip" id="clipf86535x"><rect x="69" y="0" width="421" height="500"/></clipPath><clipPath class="axesclip" id="clipf86535y"><rect x="0" y="16" width="500" height="412"/></clipPath><clipPath class="axesclip" id="clipf86535xy"><rect x="69" y="16" width="421" height="412"/></clipPath></g><g class="gradients"/><g class="patterns"/></defs><g class="bglayer"><rect class="bg" x="69" y="16" width="421" height="412" style="fill: rgb(0, 0, 0); fill-opacity: 0; stroke-width: 0;"/></g><g class="layer-below"><g class="imagelayer"/><g class="shapelayer"/></g><g class="cartesianlayer"><g class="subplot xy"><g class="layer-subplot"><g class="shapelayer"/><g class="imagelayer"/></g><g class="minor-gridlayer"><g class="x"/><g class="y"/></g><g class="gridlayer"><g class="x"/><g class="y"/></g><g class="zerolinelayer"><path class="yzl zl crisp" transform="translate(0,390.55)" d="M69,0h421" style="stroke: rgb(128, 128, 128); stroke-opacity: 1; stroke-width: 1px;"/></g><g class="layer-between"><g class="shapelayer"/><g class="imagelayer"/></g><path class="xlines-below"/><path class="ylines-below"/><g class="overlines-below"/><g class="xaxislayer-below"/><g class="yaxislayer-below"/><g class="overaxes-below"/><g class="plot" transform="translate(69,16)" clip-path="url(#clipf86535xyplot)"><g class="scatterlayer mlayer"><g class="trace scatter tracec14e5f" style="stroke-miterlimit: 2; opacity: 1;"><g class="fills"/><g class="errorbars"/><g class="lines"><path class="js-line" d="M-11,374.58L-6.61,374.5L-6.24,374.49L30.96,373.74L31.33,373.72L78.93,371.94L79.32,371.92L114.69,369.12L115.12,369.04L123.66,366.47L124,366.32L142.29,355.74L142.58,355.47L150.15,349.27L150.4,348.92L153.03,346.4L153.48,346.03L163.63,334.02L164.01,333.51L171.55,322.35L171.84,321.74L173.47,319.28L173.71,318.65L175.22,316.05L175.63,315.41L188.7,289.56L189,288.74L203.32,253.71L203.7,252.73L206,246.88L206.3,245.89L213.79,225.48L214.12,224.43L220.35,206.34L220.79,205.26L234.35,164.31L234.64,163.18L235.88,159.79L236.23,158.65L238.8,150.74L239.25,149.59L240.89,143.88L241.46,142.74L244.29,133.58L244.69,132.42L267.78,61.25L268.22,60.19L271.5,50.65L271.84,49.67L284.79,15.98L285.25,15.2L287.46,11.02L287.85,10.54L288.95,9.04L289.29,8.5L293.14,3.21L293.47,2.91L294.92,1.45L294.53,2.84L294.18,5.2L292.19,20.04L291.73,22.55L289.98,34.95L289.61,37.44L279.04,105.65L278.45,107.84L277.95,112.42L277.56,114.74L269.37,164.51L268.99,166.67L261.41,207.9L260.99,209.74L257.14,228.58L256.81,230.11L254.24,240.47L253.81,241.97L251.66,250L251.31,251.38L240.67,284.46L240.19,285.46L235.04,298.58L234.68,299.51L231.33,307.18L231,307.97L225.36,318.96L225.02,319.63L216.15,334.25L215.68,334.79L211.24,340.71L210.77,341.17L206.02,346.76L205.59,347.17L199.62,353.15L198.98,353.5L198.07,354.48L197.74,354.8L185.56,363.25L185.09,363.46L180.69,365.77L180.27,365.95L174.31,368.45L173.79,368.59L166.75,370.77L166.27,370.87L154.4,373.08L153.89,373.13L146.82,373.91L146.46,373.95L123.3,375.09L122.96,375.1L85.42,375.21L85.14,375.2L-80.38,374.73L78.35,374.45L78.85,374.44L130.01,373.69L130.43,373.67L164.48,371.33L164.94,371.28L183.19,366.55L183.54,366.4L199.72,357.26L200.11,356.98L212.19,346.36L212.57,345.97L226.26,329.25L226.47,328.71L234.04,317.04L234.29,316.43L238.1,310.2L238.44,309.55L255.85,280.22L256.39,279.81L260.46,273.44L260.79,273.48L264.94,268.99L265.38,268.57L269.89,264.22L270.15,263.82L274.69,258.78L275.05,258.32L281.14,250.57L281.43,250.01L284.43,245.8L284.77,245.06L297.06,220.77L296.47,222.96L296.22,224.3L286.65,256.38L286.2,257.48L271.59,297.65L271.11,298.52L260.37,320.91L259.82,321.61L258.44,324.21L258,324.88L255.98,328.72L255.47,329.32L245.79,343.22L245.42,343.68L241.71,347.96L241.29,348.35L236.76,352.65L236.37,352.98L227.95,359.22L227.56,359.45L222.38,362.47L221.96,362.67L208.69,368.01L208.32,368.12L196.24,371.09L195.95,371.16L163.57,374.23L163.17,374.24L121.92,374.59L121.25,374.59L-80.75,374.7L170.94,373.96L171.38,373.94L190.56,372.07L191.05,372L199.16,370.24L199.52,370.14L210.78,365.91L211.22,365.73L223.34,357.61L223.67,357.29L230.5,350.55L230.88,350.14L235.72,344.31L236.21,343.85L248.54,326.25L248.89,325.68L254.84,316.3L255.16,315.71L264.12,300.62L264.38,299.98L267.51,294.62L267.9,293.94L291,246.6L291.21,245.64L297.07,231.41L296.92,232.51L296.7,233.81L292.9,246.03L292.53,246.86L289.82,255.92L289.21,256.88L287.07,263.49L286.67,264.61L284.19,272.24L283.51,273.3L283.04,275.37L282.69,276.38L279.34,285.15L278.86,286.13L273.4,299.6L272.95,300.44L270.83,305.33L270.51,306.14L269.31,308.55L269.14,309.36L266.22,314.74L266.02,315.5L264.41,318.32L264.14,319.01L260.33,325.62L260.17,326.26L258.55,328.44L258.23,329.07L255.51,333.31L255.03,333.89L252.87,337.17L252.54,337.69L245.42,346.6L245.03,346.67L240.98,351.09L240.52,351.45L237.16,354.4L236.69,354.72L229.94,359.66L229.57,359.9L217.72,365.77L217.36,365.92L204.94,369.89L204.49,369.98L198.54,371.29L198.05,371.36L183.6,373.32L183.13,373.35L169.19,374.17L168.74,374.18L130.88,374.59L130.56,374.59L-80.65,374.65L-11.04,374.65" style="vector-effect: none; fill: none; stroke: rgb(46, 145, 229); stroke-opacity: 1; stroke-width: 3px; opacity: 1;"/></g><g class="points"/><g class="text"/></g><g class="trace scatter trace9b595a" style="stroke-miterlimit: 2; opacity: 1;"><g class="fills"/><g class="errorbars"/><g class="lines"><path class="js-line" d="M13.24,374.53L41.1,374.54L41.46,374.54L151.56,373.83L151.94,373.78L161.86,371.71L162.21,371.59L174.47,366.34L174.83,366.14L183.86,361.06L184.03,360.83L189.2,357.68L189.5,357.42L208.18,342.93L208.47,342.59L214.55,337.09L214.86,336.74L247.83,302.88L248.36,302.55L250.76,300.4L251.22,300.11L257.2,295.97L257.86,295.78L264.97,293.76L265.38,293.77L270.7,294.21L271.09,294.32L274.45,296L274.88,296.29L285.36,305.22L285.89,305.38L288.41,305.44L288.77,305.35L294.84,303.87L295.15,303.68L296.92,302.03L296.78,302.94L296.44,303.72L289.91,314.66L289.38,315.26L286.21,319.88L285.8,320.23L283.22,322.79L283.05,323.19L280.64,325.58L280.29,325.97L269.85,338.04L269.48,338.46L260.29,347.67L259.92,348L247.68,357.89L247.21,358.13L238.76,362.87L238.39,363.05L234.74,364.54L234.6,364.7L221.01,368.91L220.62,369L195.08,372.54L194.75,372.57L166.57,373.91L166.24,373.92L125.13,374.54L124.63,374.54L98.44,374.74L98,374.74L-81.41,374.57L134.67,374.46L135.03,374.45L176.04,373.7L176.53,373.68L208.7,370.56L208.96,370.48L216.18,368.76L216.57,368.66L227.28,364.38L227.6,364.18L231.11,362.32L231.35,362.09L237.81,358L237.99,357.71L243.32,353.44L243.68,353.11L247.92,349.03L248.49,348.67L261,335.22L261.24,334.79L263.59,332.2L263.89,331.74L267.61,327.22L267.99,326.72L268.73,325.77L269.12,325.31L271.75,322.06L271.89,321.57L276.44,315.65L276.71,315.19L286.44,301.27L286.54,300.65L288.4,297.83L288.73,297.26L290.42,294.9L290.58,294.46L292.51,291.68L292.98,291.1L296.54,284.55L293.87,290.2L293.9,290.97L289.71,298.76L289.31,299.52L282.3,313.02L281.85,313.67L268.65,334.58L268.19,335.09L259.36,345.84L258.99,346.24L255.11,350.35L254.72,350.71L240.11,361.65L239.66,361.87L234.18,364.81L233.83,364.97L222.16,369.02L221.8,369.11L204.84,371.97L204.3,372.01L180.02,373.7L179.63,373.72L92.46,374.68L92.14,374.68L-81.11,374.66L163.72,374.24L164.1,374.23L185.69,373.48L186.11,373.46L207.24,371.11L207.61,371.03L219.67,367.64L220.06,367.49L223.54,365.85L223.91,365.67L230.06,362.31L230.41,362.07L236.36,357.66L236.8,357.35L243.94,350.93L244.4,350.56L263.55,327.41L263.79,326.9L265.63,324.34L266.09,323.83L267.18,322.34L267.52,321.84L274.47,312.04L274.65,311.53L276.52,308.99L277.01,308.45L296.34,279.44L294.7,282.66L294.33,283.48L291.73,288.81L291.4,289.66L278.03,315.65L277.59,316.25L272.18,323.74L271.89,324.3L262.96,335.52L262.68,334.71L260.85,336.55L260.45,336.98L256.62,341.34L256.34,341.77L240.37,356.63L240.04,356.91L236.07,359.59L235.41,359.82L232.31,361.84L231.6,362.04L230.65,362.65L230.13,362.84L228.51,363.79L228.15,363.97L208.69,370.2L208.09,370.27L194.91,372.3L194.4,372.34L162.63,374.26L162.19,374.26L103.91,374.62L103.05,374.62L-80.31,374.62L13.12,374.59" style="vector-effect: none; fill: none; stroke: rgb(225, 95, 153); stroke-opacity: 1; stroke-width: 3px; opacity: 1;"/></g><g class="points"/><g class="text"/></g></g></g><g class="overplot"/><path class="xlines-above crisp" d="M67,429H490" style="fill: none; stroke-width: 2px; stroke: rgb(0, 0, 0); stroke-opacity: 1;"/><path class="ylines-above crisp" d="M68,16V428" style="fill: none; stroke-width: 2px; stroke: rgb(0, 0, 0); stroke-opacity: 1;"/><g class="overlines-above"/><g class="xaxislayer-above"><path class="xtick ticks crisp" d="M0,430v5" transform="translate(106.93,0)" style="stroke: rgb(68, 68, 68); stroke-opacity: 1; stroke-width: 1px;"/><path class="xtick ticks crisp" d="M0,430v5" transform="translate(182.78,0)" style="stroke: rgb(68, 68, 68); stroke-opacity: 1; stroke-width: 1px;"/><path class="xtick ticks crisp" d="M0,430v5" transform="translate(258.64,0)" style="stroke: rgb(68, 68, 68); stroke-opacity: 1; stroke-width: 1px;"/><path class="xtick ticks crisp" d="M0,430v5" transform="translate(334.5,0)" style="stroke: rgb(68, 68, 68); stroke-opacity: 1; stroke-width: 1px;"/><path class="xtick ticks crisp" d="M0,430v5" transform="translate(410.35,0)" style="stroke: rgb(68, 68, 68); stroke-opacity: 1; stroke-width: 1px;"/><path class="xtick ticks crisp" d="M0,430v5" transform="translate(486.21,0)" style="stroke: rgb(68, 68, 68); stroke-opacity: 1; stroke-width: 1px;"/><g class="xtick"><text text-anchor="middle" x="0" y="461.4" transform="translate(106.93,0)" style="font-family: Arial, monospace; font-size: 22px; fill: rgb(0, 0, 0); fill-opacity: 1; white-space: pre; opacity: 1;">0</text></g><g class="xtick"><text text-anchor="middle" x="0" y="461.4" style="font-family: Arial, monospace; font-size: 22px; fill: rgb(0, 0, 0); fill-opacity: 1; white-space: pre; opacity: 1;" transform="translate(182.78,0)">0.2</text></g><g class="xtick"><text text-anchor="middle" x="0" y="461.4" style="font-family: Arial, monospace; font-size: 22px; fill: rgb(0, 0, 0); fill-opacity: 1; white-space: pre; opacity: 1;" transform="translate(258.64,0)">0.4</text></g><g class="xtick"><text text-anchor="middle" x="0" y="461.4" style="font-family: Arial, monospace; font-size: 22px; fill: rgb(0, 0, 0); fill-opacity: 1; white-space: pre; opacity: 1;" transform="translate(334.5,0)">0.6</text></g><g class="xtick"><text text-anchor="middle" x="0" y="461.4" style="font-family: Arial, monospace; font-size: 22px; fill: rgb(0, 0, 0); fill-opacity: 1; white-space: pre; opacity: 1;" transform="translate(410.35,0)">0.8</text></g><g class="xtick"><text text-anchor="middle" x="0" y="461.4" style="font-family: Arial, monospace; font-size: 22px; fill: rgb(0, 0, 0); fill-opacity: 1; white-space: pre; opacity: 1;" transform="translate(486.21,0)">1</text></g></g><g class="yaxislayer-above"><path class="ytick ticks crisp" d="M67,0h-5" transform="translate(0,390.55)" style="stroke: rgb(68, 68, 68); stroke-opacity: 1; stroke-width: 1px;"/><path class="ytick ticks crisp" d="M67,0h-5" transform="translate(0,315.64)" style="stroke: rgb(68, 68, 68); stroke-opacity: 1; stroke-width: 1px;"/><path class="ytick ticks crisp" d="M67,0h-5" transform="translate(0,240.73)" style="stroke: rgb(68, 68, 68); stroke-opacity: 1; stroke-width: 1px;"/><path class="ytick ticks crisp" d="M67,0h-5" transform="translate(0,165.82)" style="stroke: rgb(68, 68, 68); stroke-opacity: 1; stroke-width: 1px;"/><path class="ytick ticks crisp" d="M67,0h-5" transform="translate(0,90.91)" style="stroke: rgb(68, 68, 68); stroke-opacity: 1; stroke-width: 1px;"/><path class="ytick ticks crisp" d="M67,0h-5" transform="translate(0,16)" style="stroke: rgb(68, 68, 68); stroke-opacity: 1; stroke-width: 1px;"/><g class="ytick"><text text-anchor="end" x="57.6" y="7.699999999999999" transform="translate(0,390.55)" style="font-family: Arial, monospace; font-size: 22px; fill: rgb(0, 0, 0); fill-opacity: 1; white-space: pre; opacity: 1;">0</text></g><g class="ytick"><text text-anchor="end" x="57.6" y="7.699999999999999" style="font-family: Arial, monospace; font-size: 22px; fill: rgb(0, 0, 0); fill-opacity: 1; white-space: pre; opacity: 1;" transform="translate(0,315.64)">2</text></g><g class="ytick"><text text-anchor="end" x="57.6" y="7.699999999999999" style="font-family: Arial, monospace; font-size: 22px; fill: rgb(0, 0, 0); fill-opacity: 1; white-space: pre; opacity: 1;" transform="translate(0,240.73)">4</text></g><g class="ytick"><text text-anchor="end" x="57.6" y="7.699999999999999" style="font-family: Arial, monospace; font-size: 22px; fill: rgb(0, 0, 0); fill-opacity: 1; white-space: pre; opacity: 1;" transform="translate(0,165.82)">6</text></g><g class="ytick"><text text-anchor="end" x="57.6" y="7.699999999999999" style="font-family: Arial, monospace; font-size: 22px; fill: rgb(0, 0, 0); fill-opacity: 1; white-space: pre; opacity: 1;" transform="translate(0,90.91)">8</text></g><g class="ytick"><text text-anchor="end" x="57.6" y="7.699999999999999" style="font-family: Arial, monospace; font-size: 22px; fill: rgb(0, 0, 0); fill-opacity: 1; white-space: pre; opacity: 1;" transform="translate(0,16)">10</text></g></g><g class="overaxes-above"/></g></g><g class="polarlayer"/><g class="smithlayer"/><g class="ternarylayer"/><g class="geolayer"/><g class="funnelarealayer"/><g class="pielayer"/><g class="iciclelayer"/><g class="treemaplayer"/><g class="sunburstlayer"/><g class="glimages"/><defs id="topdefs-f86535"><g class="clips"/><clipPath id="legendf86535"><rect width="102" height="74" x="0" y="0"/></clipPath></defs><g class="layer-above"><g class="imagelayer"/><g class="shapelayer"/></g><g class="infolayer"><g class="legend" pointer-events="all" transform="translate(69,0)"><rect class="bg" shape-rendering="crispEdges" width="102" height="74" x="0" y="0" style="stroke: rgb(68, 68, 68); stroke-opacity: 1; fill: rgb(255, 255, 255); fill-opacity: 1; stroke-width: 0px;"/><g class="scrollbox" transform="" clip-path="url(#legendf86535)"><g class="groups"><g class="traces" transform="translate(0,20.8)" style="opacity: 1;"><text class="legendtext" text-anchor="start" x="40" y="8.58" style="font-family: Arial, monospace; font-size: 22px; fill: rgb(0, 0, 0); fill-opacity: 1; white-space: pre;">CoO​<tspan style="font-size:70%" dy="0.3em">X</tspan><tspan dy="-0.21em">​</tspan></text><g class="layers" style="opacity: 1;"><g class="legendfill"/><g class="legendlines"><path class="js-line" d="M5,0h30" style="fill: none; stroke: rgb(46, 145, 229); stroke-opacity: 1; stroke-width: 3px;"/></g><g class="legendsymbols"><g class="legendpoints"/></g></g><rect class="legendtoggle" x="0" y="-15.8" width="96.25" height="31.6" style="fill: rgb(0, 0, 0); fill-opacity: 0;"/></g><g class="traces" transform="translate(0,52.400000000000006)" style="opacity: 1;"><text class="legendtext" text-anchor="start" x="40" y="8.58" style="font-family: Arial, monospace; font-size: 22px; fill: rgb(0, 0, 0); fill-opacity: 1; white-space: pre;">NiO​<tspan style="font-size:70%" dy="0.3em">X</tspan><tspan dy="-0.21em">​</tspan></text><g class="layers" style="opacity: 1;"><g class="legendfill"/><g class="legendlines"><path class="js-line" d="M5,0h30" style="fill: none; stroke: rgb(225, 95, 153); stroke-opacity: 1; stroke-width: 3px;"/></g><g class="legendsymbols"><g class="legendpoints"/></g></g><rect class="legendtoggle" x="0" y="-15.8" width="96.25" height="31.6" style="fill: rgb(0, 0, 0); fill-opacity: 0;"/></g></g></g><rect class="scrollbar" rx="20" ry="3" width="0" height="0" x="0" y="0" style="fill: rgb(128, 139, 164); fill-opacity: 1;"/></g><g class="g-gtitle"/><g class="g-xtitle" transform="translate(0,-8.074999999999989)"><text class="xtitle" x="279.5" y="498.60625" text-anchor="middle" style="font-family: Arial, monospace; font-size: 26px; fill: rgb(0, 0, 0); opacity: 1; white-space: pre;">Overpotential, η(V) - iR​<tspan style="font-size:70%" dy="0.3em">u</tspan><tspan dy="-0.21em">​</tspan></text></g><g class="g-ytitle" transform="translate(16.896484375,0)"><text class="ytitle" transform="rotate(-90,10.024999999999999,222)" x="10.024999999999999" y="222" text-anchor="middle" style="font-family: Arial, monospace; font-size: 26px; fill: rgb(0, 0, 0); opacity: 1; white-space: pre;">Current (mA/cm​<tspan style="font-size:70%" dy="-0.6em">2</tspan><tspan dy="0.42em">​</tspan>)</text></g></g></svg>