<svg class="main-svg" xmlns="http://www.w3.org/2000/svg" xmlns:xlink="http://www.w3.org/1999/xlink" width="500" height="500" style="" viewBox="0 0 500 500"><rect x="0" y="0" width="500" height="500" style="fill: rgb(255, 255, 255); fill-opacity: 1;"/><defs id="defs-574859"><g class="clips"><clipPath id="clip574859xyplot" class="plotclip"><rect width="408" height="416"/></clipPath><clipPath class="axesclip" id="clip574859x"><rect x="78" y="0" width="408" height="500"/></clipPath><clipPath class="axesclip" id="clip574859y"><rect x="0" y="12" width="500" height="416"/></clipPath><clipPath class="axesclip" id="clip574859xy"><rect x="78" y="12" width="408" height="416"/></clipPath></g><g class="gradients"/><g class="patterns"/></defs><g class="bglayer"><rect class="bg" x="78" y="12" width="408" height="416" style="fill: rgb(0, 0, 0); fill-opacity: 0; stroke-width: 0;"/></g><g class="layer-below"><g class="imagelayer"/><g class="shapelayer"/></g><g class="cartesianlayer"><g class="subplot xy"><g class="layer-subplot"><g class="shapelayer"/><g class="imagelayer"/></g><g class="minor-gridlayer"><g class="x"/><g class="y"/></g><g class="gridlayer"><g class="x"/><g class="y"/></g><g class="zerolinelayer"><path class="yzl zl crisp" transform="translate(0,415.39)" d="M78,0h408" style="stroke: rgb(0, 0, 0); stroke-opacity: 1; stroke-width: 1px;"/></g><path class="xlines-below"/><path class="ylines-below"/><g class="overlines-below"/><g class="xaxislayer-below"/><g class="yaxislayer-below"/><g class="overaxes-below"/><g class="plot" transform="translate(78,12)" clip-path="url(#clip574859xyplot)"><g class="scatterlayer mlayer"><g class="trace scatter traceb6d061" style="stroke-miterlimit: 2; opacity: 1;"><g class="fills"/><g class="errorbars"/><g class="lines"><path class="js-line" d="M-237.15,403.54L-198.1,403.09L-198.58,403.09L-196.35,403.09L-11.86,403.06L-11.92,403.06L-10.94,403.05L18.76,403.05L19.38,403.04L101.89,402.3L102.08,402.25L112.81,401.32L112.21,401.25L120.15,400.14L120.13,400.05L126.26,398.7L126.66,398.54L126.56,398.37L127.57,398.21L133.6,396.11L133.17,395.9L135.55,395.2L135.42,394.95L135.99,394.72L139.15,393.71L139.98,393.43L139.98,392.88L141.05,392.61L143.74,391.42L143.18,391.11L145.66,389.84L147.14,389.51L147.48,388.48L149.32,388.12L148.49,387.77L149.3,387.4L149.68,387.04L151.23,386.67L150.89,386.3L150.71,385.91L153.84,384.34L153.66,383.94L155.56,382.67L155.16,382.25L157.75,380.94L157.42,380.5L159.44,380.05L158.92,379.59L159.89,379.11L159.2,378.64L160.04,378.18L162.09,377.21L161.54,376.71L163.79,375.23L163.06,374.72L166.4,372.66L166.02,372.13L167.79,370.52L167.45,369.76L170.2,368.11L169.54,367.56L172.47,365.85L171.62,365.26L172.18,364.7L174.27,364.11L173.38,363.52L174.17,362.89L173.82,362.32L175.68,361.74L175.36,360.51L176.69,359.91L178.62,357.37L178.61,356.76L180.05,356.11L179.61,355.43L180.75,354.79L180.06,354.16L182.07,352.83L181.88,352.18L183.52,350.18L183.84,349.47L185.28,348.13L185.25,347.38L185.32,345.98L186.52,345.33L187.42,344.61L186.92,343.88L187.09,343.16L188.56,342.48L188.6,341.76L190.16,341L188.19,340.25L190.13,339.54L191.22,338.01L190.92,337.25L193.09,335.03L192.71,334.24L193.19,333.52L194.82,332.77L194.31,331.98L195.2,331.16L194.47,330.41L196.51,329.63L195.96,327.23L197.71,326.47L199.05,324.85L197.87,324.03L200.25,322.48L200.5,321.63L199.59,320.76L201.57,319.95L201.59,319.12L202.65,318.25L201.75,317.37L202.03,316.56L202.23,315.72L204.64,314.86L203.63,314L203.9,313.17L204.56,312.37L206.61,311.48L205.05,310.56L206.58,309.7L206.22,308.89L207.78,308.02L207.2,306.17L208.13,305.3L209.5,303.54L209.03,302.67L209.21,301.82L210.97,300.94L211.09,299.03L211.07,298.1L212.77,296.25L212.7,295.32L212.55,294.44L213.22,293.53L215.1,292.62L213.84,291.6L215.17,290.69L214.38,289.77L216.34,288.82L215.87,287.85L218.44,283.15L217.67,281.94L219.28,280.74L219.15,279.7L219.76,277.76L220.46,276.81L221.55,275.82L221.19,274.8L222.08,272.75L222.84,271.74L222.68,269.7L223.29,268.72L225,267.8L224.63,266.75L225.23,265.77L224.51,264.81L226.2,263.82L225.56,262.74L226.81,261.73L226.33,260.69L227.9,259.69L227.99,258.66L227.59,257.63L228.5,256.66L228.51,255.63L229.43,254.56L229.04,253.46L229.8,252.39L229.96,251.41L231.23,250.38L231.31,247.24L232.36,246.22L232.36,245.1L233.21,243.99L231.91,242.92L233.71,241.84L235.4,240.81L233.41,239.76L236.06,236.61L236,235.42L236.63,233.21L238.08,232.04L237.16,229.88L237.65,228.82L239.71,226.57L239.01,225.41L240.71,222L240.63,220.92L242.79,215.24L242.55,214.12L243.87,212.98L243.8,211.86L244.29,209.47L245.48,208.27L244.77,207.07L245.75,205.85L246.61,202.41L245.84,201.32L248.28,199.07L248.38,197.96L248.21,195.58L249.46,194.47L250.11,192.06L249.59,190.81L251.6,188.4L251.55,187.18L250.92,186.05L251.97,184.95L252.97,182.51L252.41,181.23L254.54,178.99L254.07,177.82L254.37,176.64L253.83,175.51L256.48,174.37L256.17,173.11L255.12,171.78L256.56,170.52L256.35,169.18L257.95,168.03L256.89,166.8L257.33,165.59L257.92,164.44L259.63,163.28L258.91,162.15L259.24,160.98L259.22,159.72L260.8,158.5L260.09,154.83L262.06,153.5L261.68,150.95L262.29,149.8L263.62,147.3L263.73,146.13L264.16,143.59L264.96,142.22L264.97,138.47L266.54,137.38L266.65,135.01L266.94,133.8L268.31,132.54L268.08,131.06L267.06,129.8L268.39,128.58L269.31,125.88L269.55,124.64L269.18,123.43L270.56,122.21L271.01,121L270.45,119.33L272.39,111.92L272.67,110.66L274.21,108.16L273.28,106.96L273.98,104.47L274.41,102.85L275.14,101.34L274.87,100.02L275.99,98.73L275.98,97.58L276.34,94.54L277.17,92.95L277.67,90.41L278.57,89.19L278.56,87.93L279.3,86.63L279.86,85.26L279.14,83.89L280.9,80.12L280.34,78.89L281.12,76.21L281.84,74.6L282.24,72.27L282.5,71.25L283.15,70.55L282.32,71.86L282.8,73.52L281.05,78.32L281.7,79.48L280.12,81.16L279.8,82.67L280.68,85.51L279.87,87.04L278.8,88.8L279.53,90.36L279.1,91.71L277.83,93.2L277.24,94.74L278.12,96.18L276.55,102.2L277.04,103.72L274.86,106.28L274.96,107.77L275.43,110.73L273.01,111.97L273.78,113.44L273.19,114.99L274.3,116.28L272.63,117.66L272.12,118.91L272.8,120.43L272.48,123.31L270.99,124.52L270.44,125.74L271.42,127.17L271.46,128.51L269.91,129.93L268.58,131.42L269.46,133L270.06,134.25L268.98,135.58L267.92,138.62L268.62,139.78L267.58,142.34L266.58,143.95L267.34,145.41L266.35,146.71L265.34,147.98L265.62,149.34L265.87,150.71L264.6,151.95L263.42,153.34L263.92,154.66L264.67,155.96L264.19,157.25L262.66,158.58L262.97,159.93L261.02,166.63L260.39,167.95L260.73,169.3L260.12,170.67L260.21,173.18L258.58,174.45L258.07,175.67L258.71,177.01L258.12,179.61L257.14,181L257.09,184.74L255.74,186.02L253.76,193.74L254.24,194.88L252.59,197.49L252.56,198.79L252.73,200.07L251.34,201.21L250.6,203.71L251.49,204.92L251.22,206.06L249.58,207.2L249.02,208.49L250.24,209.72L248.47,212.1L248.46,213.37L246.7,219.55L246.56,220.76L245.31,223.03L245.16,224.21L245.61,225.33L245.05,226.49L242.51,228.93L244.16,230.21L241.78,233.55L243.02,234.71L240.56,236.91L241.14,238.05L239.87,240.29L239.85,241.35L238.75,242.52L238.78,243.67L238.22,245.85L237.29,247.03L237.22,248.2L238.05,249.41L235.98,252.56L236,253.65L235.51,254.69L234.03,255.8L234.48,257.9L233.54,258.95L231.89,262.15L232.24,263.2L230.33,266.42L231.05,267.53L229.96,269.7L228.49,270.75L229.06,271.77L227.71,272.74L227.61,274.79L227.87,275.86L225.16,281.82L223.98,282.83L223.8,285.48L222.58,286.49L222.21,287.57L222.68,288.57L220.73,291.45L220.88,292.42L219.3,294.28L219.33,295.29L219.44,296.31L218.05,297.25L217.21,299.12L217.75,300.05L216.6,301.88L215.8,302.79L215.13,303.74L215.94,304.64L215.81,305.53L214.03,306.5L213.49,307.41L214.01,308.33L212.2,311.89L212.06,312.73L209.91,314.5L210.21,315.38L210.44,316.22L209.2,317.04L208.38,317.98L209.03,318.85L209.06,319.68L207.84,320.51L207.23,322.23L207.15,323.04L204.95,324.67L206.25,325.52L205.12,326.34L205.32,327.13L203.09,327.94L203.9,328.81L203.79,329.63L202.87,330.41L201.4,331.2L201.6,332L202.18,332.83L201.05,333.58L199.2,335.08L200.1,335.88L197.05,338.91L198.31,339.66L195.76,341.1L196.19,341.89L195.4,343.32L193.8,343.99L193.81,346.2L193.03,346.87L191.37,347.61L191.9,348.34L192.59,349.02L191.75,349.68L190.05,351.12L190.69,351.8L187.98,353.77L187.96,354.44L188.25,355.04L186.81,355.68L185.66,356.38L186.35,357.04L187.12,357.64L184.03,358.25L184.69,359.54L184.15,360.16L183.02,361.34L182,362L182.53,362.58L181.14,363.17L181.17,363.75L180.19,364.4L179.09,366.09L178.53,366.69L177.12,368.33L175.77,368.87L176.41,369.46L175.61,369.99L174.03,371.62L174.65,372.11L171.84,373.13L172.74,373.66L169.9,375.64L170.52,376.11L168.02,377.56L167.65,378.04L167.8,378.5L166.8,378.9L165.76,379.41L166.68,379.88L163.96,381.16L164.59,381.58L161.42,383.69L159.91,384.06L159.15,384.45L160.43,384.88L158.7,385.65L157.4,385.98L156.98,386.37L158.12,386.76L154.85,387.8L155.47,388.21L155.25,388.53L153.31,389.35L153.76,389.65L152.94,389.98L150.8,390.92L150.97,391.23L147.6,392.69L146.99,392.96L144.09,394.78L142.32,395.03L140.68,395.96L139.44,396.19L140.3,396.4L139.57,396.62L138.03,396.81L135.05,397.79L135.46,397.99L135.59,398.16L130.75,399.14L131.15,399.31L130.96,399.45L121.38,401.37L121.35,401.45L83.33,403.54L81.9,403.55L83.17,403.56L3.68,403.68L1.78,403.67L-266.96,403.47" style="vector-effect: non-scaling-stroke; fill: none; stroke: rgb(0, 0, 0); stroke-opacity: 1; stroke-width: 2px; opacity: 1;"/></g><g class="points"/><g class="text"/></g><g class="trace scatter trace408e50" style="stroke-miterlimit: 2; opacity: 1;"><g class="fills"/><g class="errorbars"/><g class="lines"><path class="js-line" d="M-237.07,403.41L197.89,402.66L198.41,402.64L223.72,401.14L224.2,401.09L246.03,398.72L246.59,398.64L290.22,390.28L290.81,390.14L303.81,386.72L304.15,386.57L335.6,376.85L336.01,376.68L337.88,376.03L332.42,378.45L332.07,378.68L298.36,389.97L297.69,390.11L289.56,392.05L289.07,392.18L260.63,397.22L259.81,397.29L235.72,400.04L235.09,400.09L191.37,402.63L190.74,402.65L121.32,403.36L120.92,403.36L-237.87,403.41" style="vector-effect: non-scaling-stroke; fill: none; stroke: rgb(0, 0, 0); stroke-opacity: 1; stroke-width: 2px; opacity: 1;"/></g><g class="points"/><g class="text"/></g><g class="trace scatter trace6479ef" style="stroke-miterlimit: 2; opacity: 1;"><g class="fills"/><g class="errorbars"/><g class="lines"><path class="js-line" d="M-236.73,404.16L-101.06,403.38L-100.48,403.38L-10.16,402.64L-9.62,402.63L87.64,400.57L88.03,400.54L133.27,398.28L133.89,398.23L164.07,394.96L164.63,394.88L201.51,387.08L201.99,386.93L233.14,376.2L233.25,375.98L241.58,372.6L242.06,372.37L251.15,368.23L251.52,367.99L259.06,364.31L259.34,364.04L270.77,358.12L271.09,357.83L272.16,357.25L272.82,356.98L274.7,355.79L275.29,355.46L287.64,348.4L288.39,348.08L310.48,334.75L311.12,334.4L327.03,325.25L327.69,325.06L328.91,324.56L327.52,325.79L327.13,326.27L312.69,338.02L311.96,338.36L303.61,344.54L302.88,344.79L289.17,353.45L288.63,353.66L283.89,356.26L283.36,356.56L271.31,362.94L270.74,363.22L263.87,366.53L263.16,366.74L248.46,373.37L247.81,373.58L219.93,383.77L219.25,383.94L188.41,392.12L187.86,392.25L139.75,400.16L139.17,400.22L95.37,403.6L94.49,403.63L57.9,404.85L57.37,404.86L-4.89,405.32L-5.65,405.31L-237.39,404.22" style="vector-effect: non-scaling-stroke; fill: none; stroke: rgb(0, 0, 0); stroke-opacity: 1; stroke-width: 2px; opacity: 1;"/></g><g class="points"/><g class="text"/></g><g class="trace scatter tracead9349" style="stroke-miterlimit: 2; opacity: 1;"><g class="fills"/><g class="errorbars"/><g class="lines"><path class="js-line" d="M-236.99,403.4L271.81,402.65L272.48,402.64L338.28,401.89L338.79,401.88L345.26,401.81L209.37,403.2L208.63,403.21L-237.23,403.4L-236.94,403.4" style="vector-effect: non-scaling-stroke; fill: none; stroke: rgb(0, 0, 0); stroke-opacity: 1; stroke-width: 2px; opacity: 1;"/></g><g class="points"/><g class="text"/></g><g class="trace scatter traceebb3b3" style="stroke-miterlimit: 2; opacity: 1;"><g class="fills"/><g class="errorbars"/><g class="lines"><path class="js-line" d="M-236.89,403.77L-14.88,401.84L-14.37,401.82L0.22,400.64L0.78,400.54L10.54,399.69L11.17,399.71L71.02,401.57L71.6,401.56L97.72,400.84L98.28,400.8L113.02,398.44L113.54,398.28L121.87,395.14L122.16,394.86L131.77,388.79L132.32,388.38L137.61,383.5L138.19,383.02L141.6,379.5L142.02,378.98L148.72,371.55L148.96,370.96L165.63,346.84L166.07,346.11L173.11,333.78L173.49,333.02L190.79,300.27L191.19,299.39L193.49,295.02L193.8,294.06L212.6,252.2L212.83,251.24L222.73,227.9L223.03,226.87L224.94,221.49L225.38,220.48L228.41,212.21L228.81,211L230.91,206.01L231.35,204.94L250.01,154.06L250.21,152.32L251.66,147.63L252.09,146.59L259.33,125.53L259.53,123.02L260.29,116.7L260.66,115.56L281.14,49.82L279.53,55.69L279.36,56.97L277.32,65.09L276.82,66.53L273.14,79.89L273,81.57L270.25,88.22L269.95,89.69L269.47,92.31L268.84,93.54L265.91,104.61L265.37,105.73L264.31,109.24L264.13,110.66L262.37,115.18L262.27,116.51L261.77,117.76L261.09,117.28L260.47,117.07L260.14,118.46L258.34,124.48L257.89,125.63L256.81,128.81L256.52,130.07L252.83,142.05L252.28,143.1L249.55,150.82L249.35,152.05L247.63,157.96L246.99,159.08L241.9,175.02L241.45,176.02L229.89,208.42L229.33,209.31L225.5,219.58L225.08,220.63L204.85,269.09L204.34,270.02L202.69,273.63L202.33,274.53L196.8,285.99L196.38,286.9L193.41,293L193.07,293.88L191.75,296.43L191.32,297.48L173.27,330.51L172.67,331.27L166.89,340.89L166.36,341.6L163.37,346.53L162.87,347.22L152.83,361.75L152.49,362.37L150.76,364.24L150.63,364.86L144.48,371.91L144.28,372.47L137.22,379.91L136.73,380.41L133.83,383.3L133.33,383.77L131.26,385.59L130.78,386.03L125.27,390.55L124.66,390.94L117.86,395.41L117.23,395.7L107.1,400.16L106.44,400.33L96.15,402.68L95.5,402.76L82.87,403.9L82.39,403.93L54.04,404.4L53.44,404.4L-39.04,405.8L-39.8,405.88L-54.38,406.02L-54.9,405.98L-113.85,404.72L-114.59,404.72L-237.32,403.78" style="vector-effect: non-scaling-stroke; fill: none; stroke: rgb(0, 0, 0); stroke-opacity: 1; stroke-width: 2px; opacity: 1;"/></g><g class="points"/><g class="text"/></g><g class="trace scatter trace42c1f5" style="stroke-miterlimit: 2; opacity: 1;"><g class="fills"/><g class="errorbars"/><g class="lines"><path class="js-line" d="M-236.9,403.59L9.77,402.84L10.48,402.83L103.99,402.08L104.78,402.07L128.44,400.83L128.94,400.76L140.18,399.05L140.73,398.94L149.63,396.75L150.01,396.59L156.94,394.17L157.7,393.97L162.13,391.93L162.82,391.69L179.64,381.68L179.77,381.32L183.87,378.28L184.15,377.81L188,374.91L188.2,374.49L198.07,364.69L198.4,364.19L200.81,361.6L201.2,361.06L212.23,346.72L212.35,346.11L217.63,338.55L217.91,337.9L223.66,328.58L223.87,327.88L224.9,326.5L225.2,325.81L233.47,310.11L233.9,309.3L240.63,295.04L241.28,294.21L242.01,292.56L242.17,291.69L244.2,287.57L244.43,286.77L250.65,272.14L250.6,271.23L252.06,268.63L252.2,267.71L255.17,260.38L255.41,259.51L256.63,256.67L256.81,255.75L258.91,250.33L259.16,249.46L259.97,247.66L260.34,246.65L261.4,243.81L261.69,242.86L264.93,232.91L265.33,231.91L267.11,227.09L267.23,226.01L270.14,217.04L270.58,216.03L271.18,214.01L271.76,213.14L273.03,207.61L273.44,206.61L274.14,204.49L274.46,203.52L279.34,187.35L279.96,186.29L280.59,184.32L280.83,183.39L284.98,168.32L277.27,196.13L277.2,197.24L274.5,205.38L274.14,206.53L273.04,210.61L272.54,211.64L270.53,219.02L269.98,220.06L268.9,224.07L268.29,225.04L268.47,226.07L267.65,227.06L266.66,231.21L266.25,232.18L255.48,262.75L254.95,263.69L253.68,267.33L253.36,268.24L251.46,273.63L250.73,274.56L249.64,278.17L249.03,279.05L248.05,281.49L247.52,282.35L246.64,285.08L246.39,285.95L244.38,290.13L244.15,290.99L241.73,295.93L241.63,296.73L239.03,301.55L238.93,302.34L234.63,310.98L234.35,311.71L231.8,316.35L231.56,317.07L229.42,320.69L229.18,321.41L225.1,328.5L224.88,329.18L222.57,332.5L222.26,333.16L210.53,350.52L209.73,351.11L207.91,353.87L207.29,354.41L205.65,356.57L205.13,357.1L196.64,366.55L195.95,367.03L192.86,370.2L192.24,370.64L187.36,374.8L187.11,375.21L182.07,379.04L181.74,379.4L161.55,391.32L160.78,391.55L158.49,392.67L157.6,392.89L156.06,393.6L155.43,393.81L150.17,395.7L149.5,395.88L146.39,396.87L145.73,397.02L141.45,398.19L140.87,398.32L121.99,401.61L121.25,401.67L109.9,402.68L109.21,402.71L84.24,403.56L83.77,403.57L18.47,403.86L18.01,403.86L-237.09,403.59" style="vector-effect: non-scaling-stroke; fill: none; stroke: rgb(0, 0, 0); stroke-opacity: 1; stroke-width: 2px; opacity: 1;"/></g><g class="points"/><g class="text"/></g></g></g><g class="overplot"/><path class="xlines-above crisp" d="M76,429H486" style="fill: none; stroke-width: 2px; stroke: rgb(0, 0, 0); stroke-opacity: 1;"/><path class="ylines-above crisp" d="M77,12V428" style="fill: none; stroke-width: 2px; stroke: rgb(0, 0, 0); stroke-opacity: 1;"/><g class="overlines-above"/><g class="xaxislayer-above"><path class="xtick ticks crisp" d="M0,430v5" transform="translate(78,0)" style="stroke: rgb(68, 68, 68); stroke-opacity: 1; stroke-width: 1px;"/><path class="xtick ticks crisp" d="M0,430v5" transform="translate(136.29,0)" style="stroke: rgb(68, 68, 68); stroke-opacity: 1; stroke-width: 1px;"/><path class="xtick ticks crisp" d="M0,430v5" transform="translate(194.57,0)" style="stroke: rgb(68, 68, 68); stroke-opacity: 1; stroke-width: 1px;"/><path class="xtick ticks crisp" d="M0,430v5" transform="translate(252.86,0)" style="stroke: rgb(68, 68, 68); stroke-opacity: 1; stroke-width: 1px;"/><path class="xtick ticks crisp" d="M0,430v5" transform="translate(311.14,0)" style="stroke: rgb(68, 68, 68); stroke-opacity: 1; stroke-width: 1px;"/><path class="xtick ticks crisp" d="M0,430v5" transform="translate(369.43,0)" style="stroke: rgb(68, 68, 68); stroke-opacity: 1; stroke-width: 1px;"/><path class="xtick ticks crisp" d="M0,430v5" transform="translate(427.71,0)" style="stroke: rgb(68, 68, 68); stroke-opacity: 1; stroke-width: 1px;"/><path class="xtick ticks crisp" d="M0,430v5" transform="translate(486,0)" style="stroke: rgb(68, 68, 68); stroke-opacity: 1; stroke-width: 1px;"/><g class="xtick"><text text-anchor="middle" x="0" y="461.4" transform="translate(78,0)" style="font-family: 'Times New Roman', monospace; font-size: 22px; fill: rgb(0, 0, 0); fill-opacity: 1; white-space: pre; opacity: 1;">0.1</text></g><g class="xtick"><text text-anchor="middle" x="0" y="461.4" style="font-family: 'Times New Roman', monospace; font-size: 22px; fill: rgb(0, 0, 0); fill-opacity: 1; white-space: pre; opacity: 1;" transform="translate(136.29,0)">0.2</text></g><g class="xtick"><text text-anchor="middle" x="0" y="461.4" style="font-family: 'Times New Roman', monospace; font-size: 22px; fill: rgb(0, 0, 0); fill-opacity: 1; white-space: pre; opacity: 1;" transform="translate(194.57,0)">0.3</text></g><g class="xtick"><text text-anchor="middle" x="0" y="461.4" style="font-family: 'Times New Roman', monospace; font-size: 22px; fill: rgb(0, 0, 0); fill-opacity: 1; white-space: pre; opacity: 1;" transform="translate(252.86,0)">0.4</text></g><g class="xtick"><text text-anchor="middle" x="0" y="461.4" style="font-family: 'Times New Roman', monospace; font-size: 22px; fill: rgb(0, 0, 0); fill-opacity: 1; white-space: pre; opacity: 1;" transform="translate(311.14,0)">0.5</text></g><g class="xtick"><text text-anchor="middle" x="0" y="461.4" style="font-family: 'Times New Roman', monospace; font-size: 22px; fill: rgb(0, 0, 0); fill-opacity: 1; white-space: pre; opacity: 1;" transform="translate(369.43,0)">0.6</text></g><g class="xtick"><text text-anchor="middle" x="0" y="461.4" style="font-family: 'Times New Roman', monospace; font-size: 22px; fill: rgb(0, 0, 0); fill-opacity: 1; white-space: pre; opacity: 1;" transform="translate(427.71,0)">0.7</text></g><g class="xtick"><text text-anchor="middle" x="0" y="461.4" style="font-family: 'Times New Roman', monospace; font-size: 22px; fill: rgb(0, 0, 0); fill-opacity: 1; white-space: pre; opacity: 1;" transform="translate(486,0)">0.8</text></g></g><g class="yaxislayer-above"><path class="ytick ticks crisp" d="M76,0h-5" transform="translate(0,415.39)" style="stroke: rgb(68, 68, 68); stroke-opacity: 1; stroke-width: 1px;"/><path class="ytick ticks crisp" d="M76,0h-5" transform="translate(0,364.97)" style="stroke: rgb(68, 68, 68); stroke-opacity: 1; stroke-width: 1px;"/><path class="ytick ticks crisp" d="M76,0h-5" transform="translate(0,314.55)" style="stroke: rgb(68, 68, 68); stroke-opacity: 1; stroke-width: 1px;"/><path class="ytick ticks crisp" d="M76,0h-5" transform="translate(0,264.12)" style="stroke: rgb(68, 68, 68); stroke-opacity: 1; stroke-width: 1px;"/><path class="ytick ticks crisp" d="M76,0h-5" transform="translate(0,213.7)" style="stroke: rgb(68, 68, 68); stroke-opacity: 1; stroke-width: 1px;"/><path class="ytick ticks crisp" d="M76,0h-5" transform="translate(0,163.27)" style="stroke: rgb(68, 68, 68); stroke-opacity: 1; stroke-width: 1px;"/><path class="ytick ticks crisp" d="M76,0h-5" transform="translate(0,112.85)" style="stroke: rgb(68, 68, 68); stroke-opacity: 1; stroke-width: 1px;"/><path class="ytick ticks crisp" d="M76,0h-5" transform="translate(0,62.42)" style="stroke: rgb(68, 68, 68); stroke-opacity: 1; stroke-width: 1px;"/><path class="ytick ticks crisp" d="M76,0h-5" transform="translate(0,12)" style="stroke: rgb(68, 68, 68); stroke-opacity: 1; stroke-width: 1px;"/><g class="ytick"><text text-anchor="end" x="66.6" y="7.699999999999999" transform="translate(0,415.39)" style="font-family: 'Times New Roman', monospace; font-size: 22px; fill: rgb(0, 0, 0); fill-opacity: 1; white-space: pre; opacity: 1;">0</text></g><g class="ytick"><text text-anchor="end" x="66.6" y="7.699999999999999" style="font-family: 'Times New Roman', monospace; font-size: 22px; fill: rgb(0, 0, 0); fill-opacity: 1; white-space: pre; opacity: 1;" transform="translate(0,364.97)">20</text></g><g class="ytick"><text text-anchor="end" x="66.6" y="7.699999999999999" style="font-family: 'Times New Roman', monospace; font-size: 22px; fill: rgb(0, 0, 0); fill-opacity: 1; white-space: pre; opacity: 1;" transform="translate(0,314.55)">40</text></g><g class="ytick"><text text-anchor="end" x="66.6" y="7.699999999999999" style="font-family: 'Times New Roman', monospace; font-size: 22px; fill: rgb(0, 0, 0); fill-opacity: 1; white-space: pre; opacity: 1;" transform="translate(0,264.12)">60</text></g><g class="ytick"><text text-anchor="end" x="66.6" y="7.699999999999999" style="font-family: 'Times New Roman', monospace; font-size: 22px; fill: rgb(0, 0, 0); fill-opacity: 1; white-space: pre; opacity: 1;" transform="translate(0,213.7)">80</text></g><g class="ytick"><text text-anchor="end" x="66.6" y="7.699999999999999" style="font-family: 'Times New Roman', monospace; font-size: 22px; fill: rgb(0, 0, 0); fill-opacity: 1; white-space: pre; opacity: 1;" transform="translate(0,163.27)">100</text></g><g class="ytick"><text text-anchor="end" x="66.6" y="7.699999999999999" style="font-family: 'Times New Roman', monospace; font-size: 22px; fill: rgb(0, 0, 0); fill-opacity: 1; white-space: pre; opacity: 1;" transform="translate(0,112.85)">120</text></g><g class="ytick"><text text-anchor="end" x="66.6" y="7.699999999999999" style="font-family: 'Times New Roman', monospace; font-size: 22px; fill: rgb(0, 0, 0); fill-opacity: 1; white-space: pre; opacity: 1;" transform="translate(0,62.42)">140</text></g><g class="ytick"><text text-anchor="end" x="66.6" y="7.699999999999999" style="font-family: 'Times New Roman', monospace; font-size: 22px; fill: rgb(0, 0, 0); fill-opacity: 1; white-space: pre; opacity: 0;" transform="translate(0,12)">160</text></g></g><g class="overaxes-above"/></g></g><g class="polarlayer"/><g class="smithlayer"/><g class="ternarylayer"/><g class="geolayer"/><g class="funnelarealayer"/><g class="pielayer"/><g class="iciclelayer"/><g class="treemaplayer"/><g class="sunburstlayer"/><g class="glimages"/><defs id="topdefs-574859"><g class="clips"/></defs><g class="layer-above"><g class="imagelayer"/><g class="shapelayer"/></g><g class="infolayer"><g class="g-gtitle"/><g class="g-xtitle" transform="translate(0,-9.074999999999989)"><text class="xtitle" x="282" y="499.60625" text-anchor="middle" style="font-family: 'Times New Roman', monospace; font-size: 26px; fill: rgb(0, 0, 0); opacity: 1; font-weight: normal; white-space: pre;">Overpotential, η(V) - iR​<tspan style="font-size:70%" dy="0.3em">u</tspan><tspan dy="-0.21em">​</tspan></text></g><g class="g-ytitle" transform="translate(26.5283203125,0)"><text class="ytitle" transform="rotate(-90,0.39374999999999716,220)" x="0.39374999999999716" y="220" text-anchor="middle" style="font-family: 'Times New Roman', monospace; font-size: 26px; fill: rgb(0, 0, 0); opacity: 1; font-weight: normal; white-space: pre;">Current (mA/cm​<tspan style="font-size:70%" dy="-0.6em">2</tspan><tspan dy="0.42em">​</tspan>)</text></g><g class="annotation" data-index="0" style="opacity: 1;"><g class="annotation-text-g" transform="rotate(0,391.06,90.4)"><g class="cursor-pointer" transform="translate(370,74)"><rect class="bg" x="0.5" y="0.5" width="42" height="31" style="stroke-width: 1px; stroke: rgb(0, 0, 0); stroke-opacity: 0; fill: rgb(0, 0, 0); fill-opacity: 0;"/><text class="annotation-text" text-anchor="start" x="2" y="22" style="font-family: 'Times New Roman', monospace; font-size: 22px; fill: rgb(0, 0, 0); fill-opacity: 1; white-space: pre;">IrO​<tspan style="font-size:70%" dy="0.3em">x</tspan><tspan dy="-0.21em">​</tspan></text></g></g></g><g class="annotation" data-index="1" style="opacity: 1;"><g class="annotation-text-g" transform="rotate(0,440.59999999999997,370.40000000000003)"><g class="cursor-pointer" transform="translate(416,354)"><rect class="bg" x="0.5" y="0.5" width="49" height="31" style="stroke-width: 1px; stroke: rgb(0, 0, 0); stroke-opacity: 0; fill: rgb(0, 0, 0); fill-opacity: 0;"/><text class="annotation-text" text-anchor="start" x="2" y="22" style="font-family: 'Times New Roman', monospace; font-size: 22px; fill: rgb(0, 0, 0); fill-opacity: 1; white-space: pre;">FeN​<tspan style="font-size:70%" dy="0.3em">x</tspan><tspan dy="-0.21em">​</tspan></text></g></g></g><g class="annotation" data-index="2" style="opacity: 1;"><g class="annotation-text-g" transform="rotate(0,438.59999999999997,320.48)"><g class="cursor-pointer" transform="translate(412,304)"><rect class="bg" x="0.5" y="0.5" width="53" height="31" style="stroke-width: 1px; stroke: rgb(0, 0, 0); stroke-opacity: 0; fill: rgb(0, 0, 0); fill-opacity: 0;"/><text class="annotation-text" text-anchor="start" x="2" y="22" style="font-family: 'Times New Roman', monospace; font-size: 22px; fill: rgb(0, 0, 0); fill-opacity: 1; white-space: pre;">CoN​<tspan style="font-size:70%" dy="0.3em">x</tspan><tspan dy="-0.21em">​</tspan></text></g></g></g><g class="annotation" data-index="3" style="opacity: 1;"><g class="annotation-text-g" transform="rotate(0,460.5,403.68)"><g class="cursor-pointer" transform="translate(435,388)"><rect class="bg" x="0.5" y="0.5" width="50" height="31" style="stroke-width: 1px; stroke: rgb(0, 0, 0); stroke-opacity: 0; fill: rgb(0, 0, 0); fill-opacity: 0;"/><text class="annotation-text" text-anchor="start" x="3" y="22" style="font-family: 'Times New Roman', monospace; font-size: 22px; fill: rgb(0, 0, 0); fill-opacity: 1; white-space: pre;">NiN​<tspan style="font-size:70%" dy="0.3em">x</tspan><tspan dy="-0.21em">​</tspan></text></g></g></g><g class="annotation" data-index="4" style="opacity: 1;"><g class="annotation-text-g" transform="rotate(0,282,48.800000000000026)"><g class="cursor-pointer" transform="translate(210,33)"><rect class="bg" x="0.5" y="0.5" width="143" height="31" style="stroke-width: 1px; stroke: rgb(0, 0, 0); stroke-opacity: 0; fill: rgb(0, 0, 0); fill-opacity: 0;"/><text class="annotation-text" text-anchor="start" x="2" y="22" style="font-family: 'Times New Roman', monospace; font-size: 22px; fill: rgb(0, 0, 0); fill-opacity: 1; white-space: pre;">Co​<tspan style="font-size:70%" dy="0.3em">57</tspan><tspan dy="-0.21em">​</tspan>Ni​<tspan style="font-size:70%" dy="0.3em">14</tspan><tspan dy="-0.21em">​</tspan>Fe​<tspan style="font-size:70%" dy="0.3em">29</tspan><tspan dy="-0.21em">​</tspan>N​<tspan style="font-size:70%" dy="0.3em">x</tspan><tspan dy="-0.21em">​</tspan></text></g></g></g><g class="annotation" data-index="5" style="opacity: 1;"><g class="annotation-text-g" transform="rotate(0,422.16,170.08)"><g class="cursor-pointer" transform="translate(350,154)"><rect class="bg" x="0.5" y="0.5" width="143" height="31" style="stroke-width: 1px; stroke: rgb(0, 0, 0); stroke-opacity: 0; fill: rgb(0, 0, 0); fill-opacity: 0;"/><text class="annotation-text" text-anchor="start" x="2" y="22" style="font-family: 'Times New Roman', monospace; font-size: 22px; fill: rgb(0, 0, 0); fill-opacity: 1; white-space: pre;">Co​<tspan style="font-size:70%" dy="0.3em">45</tspan><tspan dy="-0.21em">​</tspan>Ni​<tspan style="font-size:70%" dy="0.3em">45</tspan><tspan dy="-0.21em">​</tspan>Fe​<tspan style="font-size:70%" dy="0.3em">10</tspan><tspan dy="-0.21em">​</tspan>N​<tspan style="font-size:70%" dy="0.3em">x</tspan><tspan dy="-0.21em">​</tspan></text></g></g></g></g></svg>