<svg class="main-svg" xmlns="http://www.w3.org/2000/svg" xmlns:xlink="http://www.w3.org/1999/xlink" width="500" height="500" style="" viewBox="0 0 500 500"><rect x="0" y="0" width="500" height="500" style="fill: rgb(255, 255, 255); fill-opacity: 1;"/><defs id="defs-2e9b7d"><g class="clips"><clipPath id="clip2e9b7dxyplot" class="plotclip"><rect width="426" height="428"/></clipPath><clipPath class="axesclip" id="clip2e9b7dx"><rect x="72" y="0" width="426" height="500"/></clipPath><clipPath class="axesclip" id="clip2e9b7dy"><rect x="0" y="0" width="500" height="428"/></clipPath><clipPath class="axesclip" id="clip2e9b7dxy"><rect x="72" y="0" width="426" height="428"/></clipPath></g><g class="gradients"/><g class="patterns"/></defs><g class="bglayer"><rect class="bg" x="72" y="0" width="426" height="428" style="fill: rgb(0, 0, 0); fill-opacity: 0; stroke-width: 0;"/></g><g class="layer-below"><g class="imagelayer"/><g class="shapelayer"/></g><g class="cartesianlayer"><g class="subplot xy"><g class="layer-subplot"><g class="shapelayer"/><g class="imagelayer"/></g><g class="minor-gridlayer"><g class="x"/><g class="y"/></g><g class="gridlayer"><g class="x"/><g class="y"/></g><g class="zerolinelayer"/><path class="xlines-below"/><path class="ylines-below"/><g class="overlines-below"/><g class="xaxislayer-below"/><g class="yaxislayer-below"/><g class="overaxes-below"/><g class="plot" transform="translate(72,0)" clip-path="url(#clip2e9b7dxyplot)"><g class="scatterlayer mlayer"><g class="trace scatter tracef63951" style="stroke-miterlimit: 2; opacity: 1;"><g class="fills"/><g class="errorbars"><g class="errorbar" style="opacity: 1;"><path class="yerror" d="M-2.7199999999999998,272.14h8m-4,0V273.15m-4,0h8" style="vector-effect: non-scaling-stroke; stroke-width: 2px; stroke: rgb(46, 145, 229); stroke-opacity: 1;"/></g><g class="errorbar" style="opacity: 1;"><path class="yerror" d="M0.05999999999999961,256.17h8m-4,0V256.76m-4,0h8" style="vector-effect: non-scaling-stroke; stroke-width: 2px; stroke: rgb(46, 145, 229); stroke-opacity: 1;"/></g></g><g class="lines"/><g class="points"><path class="point" transform="translate(1.28,272.65)" d="M3,0A3,3 0 1,1 0,-3A3,3 0 0,1 3,0Z" style="opacity: 1; stroke-width: 0px; fill: rgb(46, 145, 229); fill-opacity: 1;"/><path class="point" transform="translate(4.06,256.46)" d="M3,0A3,3 0 1,1 0,-3A3,3 0 0,1 3,0Z" style="opacity: 1; stroke-width: 0px; fill: rgb(46, 145, 229); fill-opacity: 1;"/></g><g class="text"/></g><g class="trace scatter trace0edf7e" style="stroke-miterlimit: 2; opacity: 1;"><g class="fills"/><g class="errorbars"><g class="errorbar" style="opacity: 1;"><path class="yerror" d="M8.8,232.69h8m-4,0V234.06m-4,0h8" style="vector-effect: non-scaling-stroke; stroke-width: 2px; stroke: rgb(46, 145, 229); stroke-opacity: 1;"/></g><g class="errorbar" style="opacity: 1;"><path class="yerror" d="M36.55,198.76h8m-4,0V199.88m-4,0h8" style="vector-effect: non-scaling-stroke; stroke-width: 2px; stroke: rgb(46, 145, 229); stroke-opacity: 1;"/></g></g><g class="lines"/><g class="points"><path class="point" transform="translate(12.8,233.38)" d="M3,0A3,3 0 1,1 0,-3A3,3 0 0,1 3,0Z" style="opacity: 1; stroke-width: 0px; fill: rgb(46, 145, 229); fill-opacity: 1;"/><path class="point" transform="translate(40.55,199.32)" d="M3,0A3,3 0 1,1 0,-3A3,3 0 0,1 3,0Z" style="opacity: 1; stroke-width: 0px; fill: rgb(46, 145, 229); fill-opacity: 1;"/></g><g class="text"/></g><g class="trace scatter trace71192b" style="stroke-miterlimit: 2; opacity: 1;"><g class="fills"/><g class="errorbars"><g class="errorbar" style="opacity: 1;"><path class="yerror" d="M123.76,149.53h8m-4,0V153.27m-4,0h8" style="vector-effect: non-scaling-stroke; stroke-width: 2px; stroke: rgb(46, 145, 229); stroke-opacity: 1;"/></g><g class="errorbar" style="opacity: 1;"><path class="yerror" d="M401.28,65.44h8m-4,0V67.77m-4,0h8" style="vector-effect: non-scaling-stroke; stroke-width: 2px; stroke: rgb(46, 145, 229); stroke-opacity: 1;"/></g></g><g class="lines"/><g class="points"><path class="point" transform="translate(127.76,151.4)" d="M3,0A3,3 0 1,1 0,-3A3,3 0 0,1 3,0Z" style="opacity: 1; stroke-width: 0px; fill: rgb(46, 145, 229); fill-opacity: 1;"/><path class="point" transform="translate(405.28,66.61)" d="M3,0A3,3 0 1,1 0,-3A3,3 0 0,1 3,0Z" style="opacity: 1; stroke-width: 0px; fill: rgb(46, 145, 229); fill-opacity: 1;"/></g><g class="text"/></g><g class="trace scatter trace2ede6c" style="stroke-miterlimit: 2; opacity: 1;"><g class="fills"/><g class="errorbars"><g class="errorbar" style="opacity: 1;"><path class="yerror" d="M-2.7199999999999998,268.09h8m-4,0V269.16m-4,0h8" style="vector-effect: non-scaling-stroke; stroke-width: 2px; stroke: rgb(225, 95, 153); stroke-opacity: 1;"/></g><g class="errorbar" style="opacity: 1;"><path class="yerror" d="M0.05999999999999961,247.68h8m-4,0V248.54m-4,0h8" style="vector-effect: non-scaling-stroke; stroke-width: 2px; stroke: rgb(225, 95, 153); stroke-opacity: 1;"/></g></g><g class="lines"/><g class="points"><path class="point" transform="translate(1.28,268.62)" d="M3,0A3,3 0 1,1 0,-3A3,3 0 0,1 3,0Z" style="opacity: 1; stroke-width: 0px; fill: rgb(225, 95, 153); fill-opacity: 1;"/><path class="point" transform="translate(4.06,248.11)" d="M3,0A3,3 0 1,1 0,-3A3,3 0 0,1 3,0Z" style="opacity: 1; stroke-width: 0px; fill: rgb(225, 95, 153); fill-opacity: 1;"/></g><g class="text"/></g><g class="trace scatter trace2246bd" style="stroke-miterlimit: 2; opacity: 1;"><g class="fills"/><g class="errorbars"><g class="errorbar" style="opacity: 1;"><path class="yerror" d="M8.8,217.92h8m-4,0V219.93m-4,0h8" style="vector-effect: non-scaling-stroke; stroke-width: 2px; stroke: rgb(225, 95, 153); stroke-opacity: 1;"/></g><g class="errorbar" style="opacity: 1;"><path class="yerror" d="M36.55,186.07h8m-4,0V186.87m-4,0h8" style="vector-effect: non-scaling-stroke; stroke-width: 2px; stroke: rgb(225, 95, 153); stroke-opacity: 1;"/></g></g><g class="lines"/><g class="points"><path class="point" transform="translate(12.8,218.92)" d="M3,0A3,3 0 1,1 0,-3A3,3 0 0,1 3,0Z" style="opacity: 1; stroke-width: 0px; fill: rgb(225, 95, 153); fill-opacity: 1;"/><path class="point" transform="translate(40.55,186.47)" d="M3,0A3,3 0 1,1 0,-3A3,3 0 0,1 3,0Z" style="opacity: 1; stroke-width: 0px; fill: rgb(225, 95, 153); fill-opacity: 1;"/></g><g class="text"/></g><g class="trace scatter tracef218a9" style="stroke-miterlimit: 2; opacity: 1;"><g class="fills"/><g class="errorbars"><g class="errorbar" style="opacity: 1;"><path class="yerror" d="M123.8,143.48h8m-4,0V147.23m-4,0h8" style="vector-effect: non-scaling-stroke; stroke-width: 2px; stroke: rgb(225, 95, 153); stroke-opacity: 1;"/></g><g class="errorbar" style="opacity: 1;"><path class="yerror" d="M401.32,65.59h8m-4,0V66.87m-4,0h8" style="vector-effect: non-scaling-stroke; stroke-width: 2px; stroke: rgb(225, 95, 153); stroke-opacity: 1;"/></g></g><g class="lines"/><g class="points"><path class="point" transform="translate(127.8,145.35)" d="M3,0A3,3 0 1,1 0,-3A3,3 0 0,1 3,0Z" style="opacity: 1; stroke-width: 0px; fill: rgb(225, 95, 153); fill-opacity: 1;"/><path class="point" transform="translate(405.32,66.23)" d="M3,0A3,3 0 1,1 0,-3A3,3 0 0,1 3,0Z" style="opacity: 1; stroke-width: 0px; fill: rgb(225, 95, 153); fill-opacity: 1;"/></g><g class="text"/></g><g class="trace scatter trace5e4230" style="stroke-miterlimit: 2; opacity: 1;"><g class="fills"/><g class="errorbars"><g class="errorbar" style="opacity: 1;"><path class="yerror" d="M-2.7199999999999998,262.01h8m-4,0V275.06m-4,0h8" style="vector-effect: non-scaling-stroke; stroke-width: 2px; stroke: rgb(28, 167, 28); stroke-opacity: 1;"/></g><g class="errorbar" style="opacity: 1;"><path class="yerror" d="M0.04999999999999982,246.18h8m-4,0V247.01m-4,0h8" style="vector-effect: non-scaling-stroke; stroke-width: 2px; stroke: rgb(28, 167, 28); stroke-opacity: 1;"/></g></g><g class="lines"/><g class="points"><path class="point" transform="translate(1.28,268.54)" d="M3,0A3,3 0 1,1 0,-3A3,3 0 0,1 3,0Z" style="opacity: 1; stroke-width: 0px; fill: rgb(28, 167, 28); fill-opacity: 1;"/><path class="point" transform="translate(4.05,246.6)" d="M3,0A3,3 0 1,1 0,-3A3,3 0 0,1 3,0Z" style="opacity: 1; stroke-width: 0px; fill: rgb(28, 167, 28); fill-opacity: 1;"/></g><g class="text"/></g><g class="trace scatter trace679504" style="stroke-miterlimit: 2; opacity: 1;"><g class="fills"/><g class="errorbars"><g class="errorbar" style="opacity: 1;"><path class="yerror" d="M8.8,222.08h8m-4,0V224m-4,0h8" style="vector-effect: non-scaling-stroke; stroke-width: 2px; stroke: rgb(28, 167, 28); stroke-opacity: 1;"/></g><g class="errorbar" style="opacity: 1;"><path class="yerror" d="M36.55,194.02h8m-4,0V195.83m-4,0h8" style="vector-effect: non-scaling-stroke; stroke-width: 2px; stroke: rgb(28, 167, 28); stroke-opacity: 1;"/></g></g><g class="lines"/><g class="points"><path class="point" transform="translate(12.8,223.04)" d="M3,0A3,3 0 1,1 0,-3A3,3 0 0,1 3,0Z" style="opacity: 1; stroke-width: 0px; fill: rgb(28, 167, 28); fill-opacity: 1;"/><path class="point" transform="translate(40.55,194.93)" d="M3,0A3,3 0 1,1 0,-3A3,3 0 0,1 3,0Z" style="opacity: 1; stroke-width: 0px; fill: rgb(28, 167, 28); fill-opacity: 1;"/></g><g class="text"/></g><g class="trace scatter trace3ac250" style="stroke-miterlimit: 2; opacity: 1;"><g class="fills"/><g class="errorbars"><g class="errorbar" style="opacity: 1;"><path class="yerror" d="M123.73,155.77h8m-4,0V160.32m-4,0h8" style="vector-effect: non-scaling-stroke; stroke-width: 2px; stroke: rgb(28, 167, 28); stroke-opacity: 1;"/></g><g class="errorbar" style="opacity: 1;"><path class="yerror" d="M401.24,92.97h8m-4,0V98.29m-4,0h8" style="vector-effect: non-scaling-stroke; stroke-width: 2px; stroke: rgb(28, 167, 28); stroke-opacity: 1;"/></g></g><g class="lines"/><g class="points"><path class="point" transform="translate(127.73,158.04)" d="M3,0A3,3 0 1,1 0,-3A3,3 0 0,1 3,0Z" style="opacity: 1; stroke-width: 0px; fill: rgb(28, 167, 28); fill-opacity: 1;"/><path class="point" transform="translate(405.24,95.63)" d="M3,0A3,3 0 1,1 0,-3A3,3 0 0,1 3,0Z" style="opacity: 1; stroke-width: 0px; fill: rgb(28, 167, 28); fill-opacity: 1;"/></g><g class="text"/></g><g class="trace scatter trace1f039d" style="stroke-miterlimit: 2; opacity: 1;"><g class="fills"/><g class="errorbars"><g class="errorbar" style="opacity: 1;"><path class="yerror" d="M-2.7199999999999998,272.2h8m-4,0V273.04m-4,0h8" style="vector-effect: non-scaling-stroke; stroke-width: 2px; stroke: rgb(182, 129, 0); stroke-opacity: 1;"/></g><g class="errorbar" style="opacity: 1;"><path class="yerror" d="M0.05999999999999961,256.26h8m-4,0V256.86m-4,0h8" style="vector-effect: non-scaling-stroke; stroke-width: 2px; stroke: rgb(182, 129, 0); stroke-opacity: 1;"/></g></g><g class="lines"/><g class="points"><path class="point" transform="translate(1.28,272.62)" d="M3,0A3,3 0 1,1 0,-3A3,3 0 0,1 3,0Z" style="opacity: 1; stroke-width: 0px; fill: rgb(182, 129, 0); fill-opacity: 1;"/><path class="point" transform="translate(4.06,256.56)" d="M3,0A3,3 0 1,1 0,-3A3,3 0 0,1 3,0Z" style="opacity: 1; stroke-width: 0px; fill: rgb(182, 129, 0); fill-opacity: 1;"/></g><g class="text"/></g><g class="trace scatter trace6f7748" style="stroke-miterlimit: 2; opacity: 1;"><g class="fills"/><g class="errorbars"><g class="errorbar" style="opacity: 1;"><path class="yerror" d="M8.8,229.99h8m-4,0V231.88m-4,0h8" style="vector-effect: non-scaling-stroke; stroke-width: 2px; stroke: rgb(182, 129, 0); stroke-opacity: 1;"/></g><g class="errorbar" style="opacity: 1;"><path class="yerror" d="M36.55,196.29h8m-4,0V197.58m-4,0h8" style="vector-effect: non-scaling-stroke; stroke-width: 2px; stroke: rgb(182, 129, 0); stroke-opacity: 1;"/></g></g><g class="lines"/><g class="points"><path class="point" transform="translate(12.8,230.94)" d="M3,0A3,3 0 1,1 0,-3A3,3 0 0,1 3,0Z" style="opacity: 1; stroke-width: 0px; fill: rgb(182, 129, 0); fill-opacity: 1;"/><path class="point" transform="translate(40.55,196.94)" d="M3,0A3,3 0 1,1 0,-3A3,3 0 0,1 3,0Z" style="opacity: 1; stroke-width: 0px; fill: rgb(182, 129, 0); fill-opacity: 1;"/></g><g class="text"/></g><g class="trace scatter trace669ead" style="stroke-miterlimit: 2; opacity: 1;"><g class="fills"/><g class="errorbars"><g class="errorbar" style="opacity: 1;"><path class="yerror" d="M123.81,152.65h8m-4,0V156.33m-4,0h8" style="vector-effect: non-scaling-stroke; stroke-width: 2px; stroke: rgb(182, 129, 0); stroke-opacity: 1;"/></g><g class="errorbar" style="opacity: 1;"><path class="yerror" d="M401.32,79.36h8m-4,0V80.45m-4,0h8" style="vector-effect: non-scaling-stroke; stroke-width: 2px; stroke: rgb(182, 129, 0); stroke-opacity: 1;"/></g></g><g class="lines"/><g class="points"><path class="point" transform="translate(127.81,154.49)" d="M3,0A3,3 0 1,1 0,-3A3,3 0 0,1 3,0Z" style="opacity: 1; stroke-width: 0px; fill: rgb(182, 129, 0); fill-opacity: 1;"/><path class="point" transform="translate(405.32,79.9)" d="M3,0A3,3 0 1,1 0,-3A3,3 0 0,1 3,0Z" style="opacity: 1; stroke-width: 0px; fill: rgb(182, 129, 0); fill-opacity: 1;"/></g><g class="text"/></g></g></g><g class="overplot"/><path class="xlines-above crisp" d="M70,429H498" style="fill: none; stroke-width: 2px; stroke: rgb(0, 0, 0); stroke-opacity: 1;"/><path class="ylines-above crisp" d="M71,0V428" style="fill: none; stroke-width: 2px; stroke: rgb(0, 0, 0); stroke-opacity: 1;"/><g class="overlines-above"/><g class="xaxislayer-above"><path class="xtick ticks crisp" d="M0,430v5" transform="translate(72,0)" style="stroke: rgb(68, 68, 68); stroke-opacity: 1; stroke-width: 1px;"/><path class="xtick ticks crisp" d="M0,430v5" transform="translate(153.14,0)" style="stroke: rgb(68, 68, 68); stroke-opacity: 1; stroke-width: 1px;"/><path class="xtick ticks crisp" d="M0,430v5" transform="translate(234.29,0)" style="stroke: rgb(68, 68, 68); stroke-opacity: 1; stroke-width: 1px;"/><path class="xtick ticks crisp" d="M0,430v5" transform="translate(315.43,0)" style="stroke: rgb(68, 68, 68); stroke-opacity: 1; stroke-width: 1px;"/><path class="xtick ticks crisp" d="M0,430v5" transform="translate(396.57,0)" style="stroke: rgb(68, 68, 68); stroke-opacity: 1; stroke-width: 1px;"/><path class="xtick ticks crisp" d="M0,430v5" transform="translate(477.71,0)" style="stroke: rgb(68, 68, 68); stroke-opacity: 1; stroke-width: 1px;"/><g class="xtick"><text text-anchor="middle" x="0" y="461.4" transform="translate(72,0)" style="font-family: 'Times New Roman', monospace; font-size: 22px; fill: rgb(105, 105, 105); fill-opacity: 1; white-space: pre; opacity: 1;">0</text></g><g class="xtick"><text text-anchor="middle" x="0" y="461.4" style="font-family: 'Times New Roman', monospace; font-size: 22px; fill: rgb(105, 105, 105); fill-opacity: 1; white-space: pre; opacity: 1;" transform="translate(153.14,0)">200</text></g><g class="xtick"><text text-anchor="middle" x="0" y="461.4" style="font-family: 'Times New Roman', monospace; font-size: 22px; fill: rgb(105, 105, 105); fill-opacity: 1; white-space: pre; opacity: 1;" transform="translate(234.29,0)">400</text></g><g class="xtick"><text text-anchor="middle" x="0" y="461.4" style="font-family: 'Times New Roman', monospace; font-size: 22px; fill: rgb(105, 105, 105); fill-opacity: 1; white-space: pre; opacity: 1;" transform="translate(315.43,0)">600</text></g><g class="xtick"><text text-anchor="middle" x="0" y="461.4" style="font-family: 'Times New Roman', monospace; font-size: 22px; fill: rgb(105, 105, 105); fill-opacity: 1; white-space: pre; opacity: 1;" transform="translate(396.57,0)">800</text></g><g class="xtick"><text text-anchor="middle" x="0" y="461.4" style="font-family: 'Times New Roman', monospace; font-size: 22px; fill: rgb(105, 105, 105); fill-opacity: 1; white-space: pre; opacity: 1;" transform="translate(477.71,0)">1000</text></g></g><g class="yaxislayer-above"><path class="ytick ticks crisp" d="M70,0h-5" transform="translate(0,428)" style="stroke: rgb(68, 68, 68); stroke-opacity: 1; stroke-width: 1px;"/><path class="ytick ticks crisp" d="M70,0h-5" transform="translate(0,362.15)" style="stroke: rgb(68, 68, 68); stroke-opacity: 1; stroke-width: 1px;"/><path class="ytick ticks crisp" d="M70,0h-5" transform="translate(0,296.31)" style="stroke: rgb(68, 68, 68); stroke-opacity: 1; stroke-width: 1px;"/><path class="ytick ticks crisp" d="M70,0h-5" transform="translate(0,230.46)" style="stroke: rgb(68, 68, 68); stroke-opacity: 1; stroke-width: 1px;"/><path class="ytick ticks crisp" d="M70,0h-5" transform="translate(0,164.62)" style="stroke: rgb(68, 68, 68); stroke-opacity: 1; stroke-width: 1px;"/><path class="ytick ticks crisp" d="M70,0h-5" transform="translate(0,98.77)" style="stroke: rgb(68, 68, 68); stroke-opacity: 1; stroke-width: 1px;"/><path class="ytick ticks crisp" d="M70,0h-5" transform="translate(0,32.92)" style="stroke: rgb(68, 68, 68); stroke-opacity: 1; stroke-width: 1px;"/><g class="ytick"><text text-anchor="end" x="60.6" y="7.699999999999999" transform="translate(0,428)" style="font-family: 'Times New Roman', monospace; font-size: 22px; fill: rgb(105, 105, 105); fill-opacity: 1; white-space: pre; opacity: 1;">1</text></g><g class="ytick"><text text-anchor="end" x="60.6" y="7.699999999999999" style="font-family: 'Times New Roman', monospace; font-size: 22px; fill: rgb(105, 105, 105); fill-opacity: 1; white-space: pre; opacity: 1;" transform="translate(0,362.15)">1.2</text></g><g class="ytick"><text text-anchor="end" x="60.6" y="7.699999999999999" style="font-family: 'Times New Roman', monospace; font-size: 22px; fill: rgb(105, 105, 105); fill-opacity: 1; white-space: pre; opacity: 1;" transform="translate(0,296.31)">1.4</text></g><g class="ytick"><text text-anchor="end" x="60.6" y="7.699999999999999" style="font-family: 'Times New Roman', monospace; font-size: 22px; fill: rgb(105, 105, 105); fill-opacity: 1; white-space: pre; opacity: 1;" transform="translate(0,230.46)">1.6</text></g><g class="ytick"><text text-anchor="end" x="60.6" y="7.699999999999999" style="font-family: 'Times New Roman', monospace; font-size: 22px; fill: rgb(105, 105, 105); fill-opacity: 1; white-space: pre; opacity: 1;" transform="translate(0,164.62)">1.8</text></g><g class="ytick"><text text-anchor="end" x="60.6" y="7.699999999999999" style="font-family: 'Times New Roman', monospace; font-size: 22px; fill: rgb(105, 105, 105); fill-opacity: 1; white-space: pre; opacity: 1;" transform="translate(0,98.77)">2</text></g><g class="ytick"><text text-anchor="end" x="60.6" y="7.699999999999999" style="font-family: 'Times New Roman', monospace; font-size: 22px; fill: rgb(105, 105, 105); fill-opacity: 1; white-space: pre; opacity: 1;" transform="translate(0,32.92)">2.2</text></g></g><g class="overaxes-above"/></g></g><g class="polarlayer"/><g class="smithlayer"/><g class="ternarylayer"/><g class="geolayer"/><g class="funnelarealayer"/><g class="pielayer"/><g class="iciclelayer"/><g class="treemaplayer"/><g class="sunburstlayer"/><g class="glimages"/><defs id="topdefs-2e9b7d"><g class="clips"/><clipPath id="legend2e9b7d"><rect width="185" height="137" x="0" y="0"/></clipPath></defs><g class="layer-above"><g class="imagelayer"/><g class="shapelayer"/></g><g class="infolayer"><g class="legend" pointer-events="all" transform="translate(72,4.280000000000004)"><rect class="bg" shape-rendering="crispEdges" width="185" height="137" x="0" y="0" style="stroke: rgb(68, 68, 68); stroke-opacity: 1; fill: rgb(255, 255, 255); fill-opacity: 1; stroke-width: 0px;"/><g class="scrollbox" transform="" clip-path="url(#legend2e9b7d)"><g class="groups"><g class="traces" transform="translate(0,20.8)" style="opacity: 1;"><text class="legendtext" text-anchor="start" x="40" y="8.58" style="font-family: 'Times New Roman', monospace; font-size: 22px; fill: rgb(105, 105, 105); fill-opacity: 1; white-space: pre;">IrO​<tspan style="font-size:70%" dy="0.3em">x</tspan><tspan dy="-0.21em">​</tspan></text><g class="layers" style="opacity: 1;"><g class="legendfill"/><g class="legendlines"/><g class="legendsymbols"><g class="legendpoints"><path class="scatterpts" transform="translate(20,0)" d="M3,0A3,3 0 1,1 0,-3A3,3 0 0,1 3,0Z" style="opacity: 1; stroke-width: 0px; fill: rgb(46, 145, 229); fill-opacity: 1;"/></g></g></g><rect class="legendtoggle" x="0" y="-15.8" width="179.765625" height="31.6" style="fill: rgb(0, 0, 0); fill-opacity: 0;"/></g><g class="traces" transform="translate(0,52.400000000000006)" style="opacity: 1;"><text class="legendtext" text-anchor="start" x="40" y="8.58" style="font-family: 'Times New Roman', monospace; font-size: 22px; fill: rgb(105, 105, 105); fill-opacity: 1; white-space: pre;">NiCoFeO​<tspan style="font-size:70%" dy="0.3em">x</tspan><tspan dy="-0.21em">​</tspan></text><g class="layers" style="opacity: 1;"><g class="legendfill"/><g class="legendlines"/><g class="legendsymbols"><g class="legendpoints"><path class="scatterpts" transform="translate(20,0)" d="M3,0A3,3 0 1,1 0,-3A3,3 0 0,1 3,0Z" style="opacity: 1; stroke-width: 0px; fill: rgb(225, 95, 153); fill-opacity: 1;"/></g></g></g><rect class="legendtoggle" x="0" y="-15.8" width="179.765625" height="31.6" style="fill: rgb(0, 0, 0); fill-opacity: 0;"/></g><g class="traces" transform="translate(0,84)" style="opacity: 1;"><text class="legendtext" text-anchor="start" x="40" y="8.58" style="font-family: 'Times New Roman', monospace; font-size: 22px; fill: rgb(105, 105, 105); fill-opacity: 1; white-space: pre;">Co​<tspan style="font-size:70%" dy="0.3em">57</tspan><tspan dy="-0.21em">​</tspan>Ni​<tspan style="font-size:70%" dy="0.3em">14</tspan><tspan dy="-0.21em">​</tspan>Fe​<tspan style="font-size:70%" dy="0.3em">29</tspan><tspan dy="-0.21em">​</tspan>N​<tspan style="font-size:70%" dy="0.3em">x</tspan><tspan dy="-0.21em">​</tspan></text><g class="layers" style="opacity: 1;"><g class="legendfill"/><g class="legendlines"/><g class="legendsymbols"><g class="legendpoints"><path class="scatterpts" transform="translate(20,0)" d="M3,0A3,3 0 1,1 0,-3A3,3 0 0,1 3,0Z" style="opacity: 1; stroke-width: 0px; fill: rgb(28, 167, 28); fill-opacity: 1;"/></g></g></g><rect class="legendtoggle" x="0" y="-15.8" width="179.765625" height="31.6" style="fill: rgb(0, 0, 0); fill-opacity: 0;"/></g><g class="traces" transform="translate(0,115.60000000000001)" style="opacity: 1;"><text class="legendtext" text-anchor="start" x="40" y="8.58" style="font-family: 'Times New Roman', monospace; font-size: 22px; fill: rgb(105, 105, 105); fill-opacity: 1; white-space: pre;">Co​<tspan style="font-size:70%" dy="0.3em">45</tspan><tspan dy="-0.21em">​</tspan>Ni​<tspan style="font-size:70%" dy="0.3em">45</tspan><tspan dy="-0.21em">​</tspan>Fe​<tspan style="font-size:70%" dy="0.3em">10</tspan><tspan dy="-0.21em">​</tspan>N​<tspan style="font-size:70%" dy="0.3em">x</tspan><tspan dy="-0.21em">​</tspan></text><g class="layers" style="opacity: 1;"><g class="legendfill"/><g class="legendlines"/><g class="legendsymbols"><g class="legendpoints"><path class="scatterpts" transform="translate(20,0)" d="M3,0A3,3 0 1,1 0,-3A3,3 0 0,1 3,0Z" style="opacity: 1; stroke-width: 0px; fill: rgb(182, 129, 0); fill-opacity: 1;"/></g></g></g><rect class="legendtoggle" x="0" y="-15.8" width="179.765625" height="31.6" style="fill: rgb(0, 0, 0); fill-opacity: 0;"/></g></g></g><rect class="scrollbar" rx="20" ry="3" width="0" height="0" x="0" y="0" style="fill: rgb(128, 139, 164); fill-opacity: 1;"/></g><g class="g-gtitle"/><g class="g-xtitle" transform="translate(0,-5.606249999999989)"><text class="xtitle" x="285" y="499.60625" text-anchor="middle" style="font-family: 'Times New Roman', monospace; font-size: 26px; fill: rgb(105, 105, 105); opacity: 1; font-weight: normal; white-space: pre;">Current Density (mA/cm​<tspan style="font-size:70%" dy="-0.6em">2</tspan><tspan dy="0.42em">​</tspan>)</text></g><g class="g-ytitle" transform="translate(23.1064453125,0)"><text class="ytitle" transform="rotate(-90,-0.10625000000000284,214)" x="-0.10625000000000284" y="214" text-anchor="middle" style="font-family: 'Times New Roman', monospace; font-size: 26px; fill: rgb(105, 105, 105); opacity: 1; font-weight: normal; white-space: pre;">Cell Voltage (V)</text></g></g></svg>