<svg class="main-svg" xmlns="http://www.w3.org/2000/svg" xmlns:xlink="http://www.w3.org/1999/xlink" width="500" height="500" style="" viewBox="0 0 500 500"><rect x="0" y="0" width="500" height="500" style="fill: rgb(255, 255, 255); fill-opacity: 1;"/><defs id="defs-579b68"><g class="clips"><clipPath id="clip579b68xyplot" class="plotclip"><rect width="414" height="399"/></clipPath><clipPath class="axesclip" id="clip579b68x"><rect x="67" y="0" width="414" height="500"/></clipPath><clipPath class="axesclip" id="clip579b68y"><rect x="0" y="16" width="500" height="399"/></clipPath><clipPath class="axesclip" id="clip579b68xy"><rect x="67" y="16" width="414" height="399"/></clipPath></g><g class="gradients"/><g class="patterns"/></defs><g class="bglayer"><rect class="bg" x="67" y="16" width="414" height="399" style="fill: rgb(0, 0, 0); fill-opacity: 0; stroke-width: 0;"/></g><g class="layer-below"><g class="imagelayer"/><g class="shapelayer"/></g><g class="cartesianlayer"><g class="subplot xy"><g class="layer-subplot"><g class="shapelayer"/><g class="imagelayer"/></g><g class="minor-gridlayer"><g class="x"/><g class="y"/></g><g class="gridlayer"><g class="x"/><g class="y"/></g><g class="zerolinelayer"><path class="yzl zl crisp" transform="translate(0,319.59)" d="M67,0h414" style="stroke: rgb(128, 128, 128); stroke-opacity: 1; stroke-width: 1px;"/></g><path class="xlines-below"/><path class="ylines-below"/><g class="overlines-below"/><g class="xaxislayer-below"/><g class="yaxislayer-below"/><g class="overaxes-below"/><g class="plot" transform="translate(67,16)" clip-path="url(#clip579b68xyplot)"><g class="scatterlayer mlayer"><g class="trace scatter trace2cb3b1" style="stroke-miterlimit: 2; opacity: 1;"><g class="fills"/><g class="errorbars"/><g class="lines"><path class="js-line" d="M-252.36,303.46L-116.44,302.96L-115.34,302.95L-11.66,300.14L-10.6,300.07L23.34,296.65L24.76,296.49L38.04,293.97L39.03,293.73L53.55,289.81L54.7,289.48L67.03,284.81L67.82,284.37L86.31,274.56L87.09,273.91L93.64,269.73L94.62,268.99L101.61,263.51L102.82,262.68L117.29,249.26L118,248.22L124.45,241.79L125.33,240.67L137.55,226.35L138.42,225.07L142.43,219.92L143.51,218.57L147.6,213.25L148.63,211.91L151.79,207.87L153,206.48L159.76,196.76L160.94,195.37L168.89,184.26L170.2,182.88L173.98,177.35L175.3,176L177.78,172.05L178.91,170.71L196.01,150.62L197.27,149.6L210.23,139.15L211.46,138.5L222.08,134.29L222.85,134.07L227.7,133.46L228.72,133.37L237.31,133.9L238.2,134.08L246.43,136.2L247.54,136.43L261.12,139.28L262.33,139.34L268.46,138.58L269.28,138.2L274.89,135.69L275.63,135.1L277.54,133.71L278.96,133.05L289.77,126.52L291.08,126.18L296.27,126.21L296.95,126.39L302.41,128.79L303.57,129.55L309.68,135.26L310.41,136.27L316.01,142.08L317.12,143.25L320.26,146.88L321.43,148.13L337.11,163.11L338.41,163.89L350.58,171.74L351.96,172.25L364.16,176.72L365.37,176.95L376.12,178.01L377.02,177.94L389.41,174.75L390.32,174.22L400.41,166.38L401.36,165.27L408.04,156.85L408.59,155.24L410.38,151.69L411.79,149.81L413.46,145.95L414.07,143.72L417.41,136.35L418.11,133.67L421.68,125.13L421.96,122.01L426.45,108.28L426.85,104.34L430.28,91.79L430.89,87.28L444.21,6.94L445.01,-0.08L467.61,-245.65L468.35,-256.99L589.84,-2671.18L590.31,-2698.17L697.67,-6241.83L570.45,-2353.22L569.46,-2338.37L483.73,-609.19L482.85,-596.43L452,-160.06L450.75,-150.08L442.2,-55.06L441.45,-46.13L438.67,-19.75L437.81,-11.22L430.36,60.94L429.12,68.37L425.38,96.86L424.63,103.66L423.15,117.11L421.8,123.65L412.63,182.92L411.47,187.99L406.73,211.49L405.69,215.81L401.08,235.26L399.92,238.92L392.26,263.6L391.14,266.12L383.21,283.41L381.9,285.95L376.9,293.62L375.95,294.74L369.85,301.85L368.55,302.77L361.83,308.25L360.61,308.89L352.57,313.15L351.23,313.57L346.07,315.36L345.17,315.69L332.63,318.45L331.52,318.63L324.34,319.61L323.75,319.55L313.44,320.7L312.23,320.75L284.32,321.64L283.21,321.63L271.88,321.85L270.78,321.72L210.5,322.43L209.33,322.48L175.17,325.02L174.34,325.22L148.85,332.05L147.78,332.65L143.81,335.91L142.75,336.91L137.46,342.85L136.63,344.17L131.15,350.35L130.03,351.28L126.14,353.93L124.73,354.19L120.87,354.7L119.8,354.56L115.49,353.25L114.74,352.75L90.92,337.57L89.68,337.03L76.2,332.02L74.91,331.78L57.53,328.6L56.09,328.49L24.33,326.95L23.02,326.94L-20.12,326.44L-21.2,326.38L-50.49,324.14L-51.79,324.01L-171.03,311.5L-172.4,311.46L-214.31,310.03L-177.28,307.71L-176.39,307.67L-70.82,303.76L-69.8,303.69L-38.66,300.16L-37.72,299.97L-15.71,294.48L-14.87,294.14L-0.42,288.66L0.73,288.23L17.01,281.33L18.27,280.95L34.48,275.75L35.69,275.52L45.86,273.89L47.04,273.79L56.38,273.4L57.21,273.43L82.48,275.71L83.5,275.84L87.67,276.43L88.65,276.55L107.12,278.53L107.89,278.57L124.62,279.45L125.81,279.46L154.64,278.61L155.92,278.53L169.15,276.9L170.48,276.71L183.74,273.3L184.66,272.92L192.84,269.09L193.77,268.39L197.84,265.14L199.08,264.13L201.07,261.82L202,260.17L204.59,257.37L205.49,255.79L208.55,250.86L209.63,249.21L212.44,244.45L213.7,242.99L217.42,238.8L218.65,238.07L221.59,236.93L222.81,236.86L225.69,237.48L227.03,237.91L229.77,240.03L230.96,240.79L234.05,243.39L235.02,244.33L240.53,248.98L241.68,249.87L247.69,254.82L248.76,255.55L263.62,262.51L264.69,262.87L280.86,266.42L282.4,266.61L287.36,267.41L288.4,267.5L301.69,268.6L303.08,268.54L314.22,268.65L315.45,268.66L331.84,267.78L333.32,267.67L342.21,266.84L343.63,266.68L359.88,263.75L360.79,263.52L368.09,261.28L369.18,260.84L378.4,256.33L379.37,255.59L388.38,247.95L389.54,246.95L396.64,237.33L397.63,235.74L403.48,224.34L404.48,222.08L407.73,214.78L408.69,211.98L411.66,203.38L412.59,200.34L420.22,171.23L420.99,167.05L426.69,138.82L427.62,133.52L431.45,111.1L432.28,105.09L437.94,66.59L438.73,59.94L470.31,-267.73L470.98,-278.39L581.19,-2422.55L581.64,-2438.85L701.68,-6009.77L513.85,-1044.52L513.13,-1030.72L469,-349.55L468.29,-338.63L452.88,-155.48L452.24,-145.95L443.41,-56.1L442.41,-47.41L428.21,76.66L427.36,83.49L421.89,122.33L420.75,129.45L416.12,159.15L415.3,164.59L401.88,228.49L400.96,232.12L393.04,258.23L392.1,261.07L386.05,275.68L385.06,277.83L382.12,283.86L380.75,286.01L379.01,289.7L377.77,291.22L369.84,301.49L368.6,302.46L359.58,309.77L358.28,310.37L352.72,313.48L351.48,313.95L347.46,315.36L346.12,315.75L330.04,319.34L328.66,319.44L292.44,321.47L291.64,321.49L282.1,321.55L281.06,321.57L271.84,321.64L271.15,321.47L208.47,322.7L207.45,322.83L188.93,324.32L188.44,324.49L175.23,326.11L174.67,326.34L159.21,330.36L158.03,330.72L151.98,332.87L151.2,333.28L146.82,335.8L145.77,336.58L140.41,341.73L139.49,342.93L134.25,349.33L133.08,350.48L129.16,354.17L128.31,354.84L123.36,356.08L121.99,356.05L117.8,354.78L116.41,354.26L105.12,346.06L104.39,345.27L88.56,335.87L87.4,335.39L76.87,331.79L75.9,331.51L64.63,329.25L63.55,329.08L42.7,327.19L41.63,327.16L17.89,326.68L16.86,326.7L-19.23,326.69L-20.69,326.63L-74.65,321.18L-75.68,321.01L-139.81,313.3L-141.2,313.23L-214.15,310.09L-183.01,308.04L-181.79,307.99L-52.33,302.18L-51.4,302.05L-32.35,298.83L-31.18,298.6L-14.74,293.75L-13.76,293.39L7.97,284.87L8.9,284.45L17.02,281.36L18.33,281.04L35.67,276.73L36.89,276.58L45.94,275.82L46.88,275.79L57.21,276.01L58.49,276.14L70.67,277.37L71.99,277.53L96.97,280.5L97.79,280.68L117.5,281.85L118.77,281.87L139.45,281.87L140.64,281.84L152.62,281.18L154.01,281.1L174.56,278.31L175.42,278.1L186.68,274.69L187.92,274.24L193.25,271.8L194.26,271.13L197.19,268.94L198.41,268.12L205.48,259.43L206.46,257.84L212.52,248.06L213.66,246.54L216.45,242.93L217.68,241.96L221.59,239.67L222.79,239.48L225.72,239.79L226.83,240.14L231.05,242.69L232.07,243.46L241.61,251.2L242.67,252.07L245.73,254.46L246.87,255.12L254.09,259.49L255.32,260.01L261.45,262.88L262.4,263.31L281.13,268.91L282.38,269.15L287.31,270.31L288.45,270.49L303.14,272.26L304.11,272.34L323.77,272.76L324.82,272.64L342.4,271.44L343.45,271.27L355.85,269.51L356.82,269.25L365.96,266.84L367.11,266.52L377.37,261.79L378.47,261.11L387.69,253.45L388.72,252.49L396.47,241.53L397.7,239.88L401.76,232.5L402.67,230.42L407.69,218.38L408.62,215.58L414.38,197.31L415.16,193.81L418.62,182.54L419.51,178.54L421.14,170.39L422.54,165.99L427.82,137.31L428.29,132.03L431.86,115.48L432.33,109.62L449.69,-22.47L450.41,-30.39L474.95,-295.57L475.63,-306.19L650.94,-3985.36L651.31,-4015.35L706.22,-5778.56L597.59,-2616.28L596.86,-2597.14L500.29,-723.05L499.27,-710.78L460.2,-199.8L459.2,-190.59L451.81,-108.99L450.67,-100.3L438.44,12.47L437.48,19.77L434.11,48.62L432.67,55.59L425.89,107.95L424.45,114.04L422.05,133.66L420.54,139.37L419.11,150.27L418.38,155.71L413.42,180.86L412.58,185.69L401.86,231.28L400.77,234.72L397.19,247.93L396.01,250.93L387.29,274.04L386.24,276.23L378.96,289.75L377.75,291.27L368.67,302.28L367.59,303.25L364.65,305.89L363.48,306.61L353.3,312.74L352.46,313.15L342.13,316.53L340.91,316.78L331.54,318.54L330.64,318.71L325.62,319.33L324.46,319.43L320.32,319.81L319.1,319.91L297.78,320.85L296.88,320.77L286.07,321.1L284.92,321.11L280,321.16L279.06,321.15L235.78,321.42L234.61,321.48L219.92,321.96L218.79,322.03L212.74,322.36L211.93,322.43L197.18,323.77L196.08,323.87L180.87,325.84L179.55,326L169.47,328.01L168.42,328.28L158,331.39L157.09,331.72L147.91,335.88L146.99,336.55L142.8,339.92L141.8,340.93L137.67,345.06L136.33,346.36L132.15,350.57L131.05,351.43L127.91,353.44L127.11,353.87L124.09,354.45L122.89,354.48L118.66,353.68L117.85,353.23L111.53,349.46L110.43,348.76L103.17,343.68L101.84,342.99L92.61,337.4L91.48,336.93L86.33,334.6L85.45,334.09L70.75,329.98L69.64,329.77L49.06,327.29L48.08,327.21L12.79,326.38L11.45,326.4L-47.36,324.84L-48.53,324.75L-92.36,318.11L-93.52,317.95L-149.34,312.65L-150.32,312.6L-214.42,310.25" style="vector-effect: non-scaling-stroke; fill: none; stroke: rgb(28, 167, 28); stroke-opacity: 1; stroke-width: 3px; opacity: 1;"/></g><g class="points"/><g class="text"/></g><g class="trace scatter trace85d3a0" style="stroke-miterlimit: 2; opacity: 1;"><g class="fills"/><g class="errorbars"/><g class="lines"><path class="js-line" d="M-376.74,303.46L-284.85,303.42L-283.87,303.42L246.43,302.67L247.4,302.66L354.01,301.91L355.05,301.9L643.14,294.62L644.17,294.54L733.89,280.96L734.99,280.74L819.47,267.14L811.82,270.31L810.77,270.77L754.17,285.38L753.13,285.56L663.31,295.83L662.25,295.92L523.42,302.03L522.33,302.05L418.95,303.22L418,303.22L-214.75,303.64L580.89,299.87L581.97,299.82L709.5,288.56L710.5,288.41L819.59,271.6L660.14,295.84L659.08,295.91L539.18,301.35L538.17,301.38L438.51,303.08L437.51,303.09L329.91,303.37L328.86,303.37L-214.71,303.62L560.15,300.23L561.19,300.18L702.11,288.29L703.26,288.13L819.65,271.54L690.19,293.3L689.13,293.38L572.19,300.04L571.2,300.08L466.46,302.78L465.41,302.79L327.82,303.35L326.83,303.35L-376.48,303.63" style="vector-effect: non-scaling-stroke; fill: none; stroke: rgb(34, 42, 42); stroke-opacity: 1; stroke-width: 3px; opacity: 1;"/></g><g class="points"/><g class="text"/></g></g></g><g class="overplot"/><path class="xlines-above crisp" d="M65,416H481" style="fill: none; stroke-width: 2px; stroke: rgb(0, 0, 0); stroke-opacity: 1;"/><path class="ylines-above crisp" d="M66,16V415" style="fill: none; stroke-width: 2px; stroke: rgb(0, 0, 0); stroke-opacity: 1;"/><g class="overlines-above"/><g class="xaxislayer-above"><path class="xtick ticks crisp" d="M0,417v5" transform="translate(67,0)" style="stroke: rgb(68, 68, 68); stroke-opacity: 1; stroke-width: 1px;"/><path class="xtick ticks crisp" d="M0,417v5" transform="translate(170.5,0)" style="stroke: rgb(68, 68, 68); stroke-opacity: 1; stroke-width: 1px;"/><path class="xtick ticks crisp" d="M0,417v5" transform="translate(274,0)" style="stroke: rgb(68, 68, 68); stroke-opacity: 1; stroke-width: 1px;"/><path class="xtick ticks crisp" d="M0,417v5" transform="translate(377.5,0)" style="stroke: rgb(68, 68, 68); stroke-opacity: 1; stroke-width: 1px;"/><path class="xtick ticks crisp" d="M0,417v5" transform="translate(481,0)" style="stroke: rgb(68, 68, 68); stroke-opacity: 1; stroke-width: 1px;"/><g class="xtick"><text text-anchor="middle" x="0" y="455.6" transform="translate(67,0)" style="font-family: Arial, monospace; font-size: 28px; fill: rgb(0, 0, 0); fill-opacity: 1; white-space: pre; opacity: 1;">−0.1</text></g><g class="xtick"><text text-anchor="middle" x="0" y="455.6" style="font-family: Arial, monospace; font-size: 28px; fill: rgb(0, 0, 0); fill-opacity: 1; white-space: pre; opacity: 1;" transform="translate(170.5,0)">0</text></g><g class="xtick"><text text-anchor="middle" x="0" y="455.6" style="font-family: Arial, monospace; font-size: 28px; fill: rgb(0, 0, 0); fill-opacity: 1; white-space: pre; opacity: 1;" transform="translate(274,0)">0.1</text></g><g class="xtick"><text text-anchor="middle" x="0" y="455.6" style="font-family: Arial, monospace; font-size: 28px; fill: rgb(0, 0, 0); fill-opacity: 1; white-space: pre; opacity: 1;" transform="translate(377.5,0)">0.2</text></g><g class="xtick"><text text-anchor="middle" x="0" y="455.6" style="font-family: Arial, monospace; font-size: 28px; fill: rgb(0, 0, 0); fill-opacity: 1; white-space: pre; opacity: 0;" transform="translate(481,0)">0.3</text></g></g><g class="yaxislayer-above"><path class="ytick ticks crisp" d="M65,0h-5" transform="translate(0,319.59)" style="stroke: rgb(68, 68, 68); stroke-opacity: 1; stroke-width: 1px;"/><path class="ytick ticks crisp" d="M65,0h-5" transform="translate(0,102.74)" style="stroke: rgb(68, 68, 68); stroke-opacity: 1; stroke-width: 1px;"/><g class="ytick"><text text-anchor="end" x="54.4" y="9.799999999999999" transform="translate(0,319.59)" style="font-family: Arial, monospace; font-size: 28px; fill: rgb(0, 0, 0); fill-opacity: 1; white-space: pre; opacity: 1;">0</text></g><g class="ytick"><text text-anchor="end" x="54.4" y="9.799999999999999" style="font-family: Arial, monospace; font-size: 28px; fill: rgb(0, 0, 0); fill-opacity: 1; white-space: pre; opacity: 1;" transform="translate(0,102.74)">5</text></g></g><g class="overaxes-above"/></g></g><g class="polarlayer"/><g class="smithlayer"/><g class="ternarylayer"/><g class="geolayer"/><g class="funnelarealayer"/><g class="pielayer"/><g class="iciclelayer"/><g class="treemaplayer"/><g class="sunburstlayer"/><g class="glimages"/><defs id="topdefs-579b68"><g class="clips"/><clipPath id="legend579b68"><rect width="169" height="63" x="0" y="0"/></clipPath></defs><g class="layer-above"><g class="imagelayer"/><g class="shapelayer"/></g><g class="infolayer"><g class="legend" pointer-events="all" transform="translate(67,0.039999999999984936)"><rect class="bg" shape-rendering="crispEdges" width="169" height="63" x="0" y="0" style="stroke: rgb(68, 68, 68); stroke-opacity: 1; fill: rgb(255, 255, 255); fill-opacity: 1; stroke-width: 0px;"/><g class="scrollbox" transform="" clip-path="url(#legend579b68)"><g class="groups"><g class="traces" transform="translate(0,18.200000000000003)" style="opacity: 1;"><text class="legendtext" text-anchor="start" x="40" y="7.0200000000000005" style="font-family: Arial, monospace; font-size: 18px; fill: rgb(0, 0, 0); fill-opacity: 1; white-space: pre;">Co​<tspan style="font-size:70%" dy="0.3em">57</tspan><tspan dy="-0.21em">​</tspan>Ni​<tspan style="font-size:70%" dy="0.3em">14</tspan><tspan dy="-0.21em">​</tspan>Fe​<tspan style="font-size:70%" dy="0.3em">29</tspan><tspan dy="-0.21em">​</tspan>N​<tspan style="font-size:70%" dy="0.3em">x</tspan><tspan dy="-0.21em">​</tspan></text><g class="layers" style="opacity: 1;"><g class="legendfill"/><g class="legendlines"><path class="js-line" d="M5,0h30" style="fill: none; stroke: rgb(28, 167, 28); stroke-opacity: 1; stroke-width: 3px;"/></g><g class="legendsymbols"><g class="legendpoints"/></g></g><rect class="legendtoggle" x="0" y="-13.200000000000001" width="163.0625" height="26.400000000000002" style="fill: rgb(0, 0, 0); fill-opacity: 0;"/></g><g class="traces" transform="translate(0,44.6)" style="opacity: 1;"><text class="legendtext" text-anchor="start" x="40" y="7.0200000000000005" style="font-family: Arial, monospace; font-size: 18px; fill: rgb(0, 0, 0); fill-opacity: 1; white-space: pre;">Blank</text><g class="layers" style="opacity: 1;"><g class="legendfill"/><g class="legendlines"><path class="js-line" d="M5,0h30" style="fill: none; stroke: rgb(34, 42, 42); stroke-opacity: 1; stroke-width: 3px;"/></g><g class="legendsymbols"><g class="legendpoints"/></g></g><rect class="legendtoggle" x="0" y="-13.200000000000001" width="163.0625" height="26.400000000000002" style="fill: rgb(0, 0, 0); fill-opacity: 0;"/></g></g></g><rect class="scrollbar" rx="20" ry="3" width="0" height="0" x="0" y="0" style="fill: rgb(128, 139, 164); fill-opacity: 1;"/></g><g class="g-gtitle"/><g class="g-xtitle" transform="translate(0,-12.549999999999955)"><text class="xtitle" x="274" y="500.409375" text-anchor="middle" style="font-family: Arial, monospace; font-size: 34px; fill: rgb(0, 0, 0); opacity: 1; font-weight: normal; white-space: pre;">Overpotential, η(V) - iR​<tspan style="font-size:70%" dy="0.3em">u</tspan><tspan dy="-0.21em">​</tspan></text></g><g class="g-ytitle" transform="translate(36.2685546875,0)"><text class="ytitle" transform="rotate(-90,0.012500000000002842,215.5)" x="0.012500000000002842" y="215.5" text-anchor="middle" style="font-family: Arial, monospace; font-size: 34px; fill: rgb(0, 0, 0); opacity: 1; font-weight: normal; white-space: pre;">Current (mA/cm​<tspan style="font-size:70%" dy="-0.6em">2</tspan><tspan dy="0.42em">​</tspan>)</text></g></g></svg>