<svg class="main-svg" xmlns="http://www.w3.org/2000/svg" xmlns:xlink="http://www.w3.org/1999/xlink" width="1000" height="500" style="" viewBox="0 0 1000 500"><rect x="0" y="0" width="1000" height="500" style="fill: rgb(255, 255, 255); fill-opacity: 1;"/><defs id="defs-de23c0"><g class="clips"><clipPath id="clipde23c0xyplot" class="plotclip"><rect width="653" height="320"/></clipPath><clipPath class="axesclip" id="clipde23c0x"><rect x="80" y="0" width="653" height="500"/></clipPath><clipPath class="axesclip" id="clipde23c0y"><rect x="0" y="100" width="1000" height="320"/></clipPath><clipPath class="axesclip" id="clipde23c0xy"><rect x="80" y="100" width="653" height="320"/></clipPath></g><g class="gradients"/><g class="patterns"/></defs><g class="bglayer"><rect class="bg" x="80" y="100" width="653" height="320" style="fill: rgb(0, 0, 0); fill-opacity: 0; stroke-width: 0;"/></g><g class="layer-below"><g class="imagelayer"/><g class="shapelayer"/></g><g class="cartesianlayer"><g class="subplot xy"><g class="layer-subplot"><g class="shapelayer"/><g class="imagelayer"/></g><g class="minor-gridlayer"><g class="x"/><g class="y"/></g><g class="gridlayer"><g class="x"/><g class="y"/></g><g class="zerolinelayer"><path class="yzl zl crisp" transform="translate(0,408.15)" d="M80,0h653" style="stroke: rgb(128, 128, 128); stroke-opacity: 1; stroke-width: 1px;"/></g><path class="xlines-below"/><path class="ylines-below"/><g class="overlines-below"/><g class="xaxislayer-below"/><g class="yaxislayer-below"/><g class="overaxes-below"/><g class="plot" transform="translate(80,100)" clip-path="url(#clipde23c0xyplot)"><g class="scatterlayer mlayer"><g class="trace scatter trace5e7531" style="stroke-miterlimit: 2; opacity: 1;"><g class="fills"/><g class="errorbars"/><g class="lines"><path class="js-line" d="M-260.18,308.35L-79.57,308.17L-78.69,308.17L189.47,307.42L190.22,307.41L295.13,305.64L295.91,305.6L333.06,303.4L334.02,303.34L357.53,301.1L358.35,301L391.21,296.67L392.03,296.54L459.25,283.31L460.05,283.13L518.19,267.51L518.7,267.29L537.32,261.87L538.08,261.66L550.37,258.05L551,257.81L582.55,248.55L579.3,250.11L578.5,250.45L560.09,257.86L559.36,258.13L551.17,261.03L550.28,261.29L537.74,265.57L536.66,265.8L533.13,266.98L532.4,267.21L513.19,272.83L512.65,273.05L503.07,275.55L502.34,275.76L440.6,289.57L439.89,289.72L378.05,299.12L377.15,299.22L334.55,303.33L333.7,303.39L294.77,305.8L293.95,305.85L226.89,308.03L226.01,308.04L167.45,308.74L166.4,308.74L121.35,308.88L120.26,308.88L-260.77,308.35" style="vector-effect: non-scaling-stroke; fill: none; stroke: rgb(46, 145, 229); stroke-opacity: 1; stroke-width: 2px; opacity: 1;"/></g><g class="points"/><g class="text"/></g><g class="trace scatter trace13b460" style="stroke-miterlimit: 2; opacity: 1;"><g class="fills"/><g class="errorbars"/><g class="lines"><path class="js-line" d="M-260,308.39L177.72,307.64L178.75,307.63L254.1,306.88L255.05,306.86L310.43,305.42L311.33,305.38L349.5,302.82L350.53,302.74L382.12,299.08L382.96,298.96L402.7,295.86L403.55,295.72L419.95,292.63L420.74,292.47L463.28,282.31L463.98,282.08L478.59,277.97L479.25,277.73L526.1,262.64L526.75,262.37L574.31,246.65L575.08,246.44L586.73,243.11L585.51,243.73L584.85,244.17L573.89,249.97L572.97,250.35L565.58,253.8L564.85,254.11L551.96,259.39L551.18,259.7L512.46,272.78L511.63,273L480.61,281.43L479.79,281.62L464.69,285.23L463.87,285.42L415.11,294.83L414.21,294.97L371.46,300.63L370.64,300.72L339.55,303.56L338.7,303.62L301.2,305.87L300.15,305.91L253.6,307.5L252.78,307.53L167.83,308.66L166.82,308.66L92.2,308.81L91.18,308.81L-260.39,308.4" style="vector-effect: non-scaling-stroke; fill: none; stroke: rgb(46, 145, 229); stroke-opacity: 1; stroke-width: 2px; opacity: 1;"/></g><g class="points"/><g class="text"/></g><g class="trace scatter trace15e95a" style="stroke-miterlimit: 2; opacity: 1;"><g class="fills"/><g class="errorbars"/><g class="lines"><path class="js-line" d="M-266.83,308.16L344.24,307.41L344.88,307.39L389.2,305.87L390.3,305.83L446.93,301.81L447.53,301.72L495.63,295.44L496.28,295.31L514.42,292.1L515.33,291.96L531.22,288.96L531.81,288.8L547.07,285.79L547.58,285.62L578.29,278.85L578.96,278.67L588.25,276.48L588.8,276.27L594.72,274.93L590.7,276.5L589.78,276.79L578.53,280.57L577.96,280.8L566.45,283.93L565.39,284.14L553.47,287.04L552.26,287.21L536.84,290.36L535.92,290.49L512.06,294.48L510.58,294.61L508.43,294.98L507.68,295.1L477.24,299.1L475.95,299.2L466.99,300.21L466.03,300.3L399.58,305.25L398.48,305.29L368.92,306.53L367.89,306.56L282.6,308.01L281.78,308.01L195.44,308.15L194.16,308.15L-267.64,308.15" style="vector-effect: non-scaling-stroke; fill: none; stroke: rgb(225, 95, 153); stroke-opacity: 1; stroke-width: 2px; opacity: 1;"/></g><g class="points"/><g class="text"/></g><g class="trace scatter trace519d81" style="stroke-miterlimit: 2; opacity: 1;"><g class="fills"/><g class="errorbars"/><g class="lines"><path class="js-line" d="M-267.35,308.16L459.89,307.41L460.99,307.4L543.55,304.65L544.42,304.61L571.75,302.96L572.87,302.89L587.9,301.8L588.9,301.74L600.77,300.81L540.43,304.86L539.34,304.9L512.18,306.02L511.23,306.05L433.43,307.66L432.06,307.67L-268.09,308.16" style="vector-effect: non-scaling-stroke; fill: none; stroke: rgb(251, 13, 13); stroke-opacity: 1; stroke-width: 2px; opacity: 1;"/></g><g class="points"/><g class="text"/></g><g class="trace scatter trace667b9e" style="stroke-miterlimit: 2; opacity: 1;"><g class="fills"/><g class="errorbars"/><g class="lines"><path class="js-line" d="M-259.96,308.16L380.94,307.41L381.8,307.39L421.22,305.71L422.09,305.65L452.6,302.85L453.45,302.75L483.89,298.07L484.69,297.92L509.57,292.45L510.4,292.25L531.63,286.31L532.4,286.07L545.76,281.72L546.62,281.41L580.66,268.03L581.44,267.7L592.8,262.52L584.42,266.93L583.81,267.31L547.19,283.39L546.39,283.66L525.4,290.27L524.63,290.49L502.25,295.8L501.43,295.97L474.17,300.55L473.31,300.67L446.68,303.64L445.85,303.72L409.33,306.14L408.49,306.18L356.5,307.67L355.72,307.68L244.98,308.13L244.05,308.13L-260.26,308.16" style="vector-effect: non-scaling-stroke; fill: none; stroke: rgb(34, 42, 42); stroke-opacity: 1; stroke-width: 2px; opacity: 1;"/></g><g class="points"/><g class="text"/></g><g class="trace scatter traced6cf47" style="stroke-miterlimit: 2; opacity: 1;"><g class="fills"/><g class="errorbars"/><g class="lines"><path class="js-line" d="M-260.01,308.15L380.06,307.42L380.94,307.39L422.11,305.64L422.9,305.59L459.93,301.96L460.77,301.85L483.83,298.23L484.55,298.08L504.8,293.9L505.49,293.71L535.52,285.7L536.23,285.46L561.21,277.07L561.86,276.78L592.6,263.78L586.45,266.95L585.73,267.32L568.23,275.78L567.44,276.11L550.91,282.77L550.13,283.04L525.26,290.78L524.42,291L509.38,294.61L508.64,294.79L481.52,299.65L480.7,299.77L449.96,303.38L449.17,303.46L408.4,306.16L407.49,306.19L356.36,307.65L355.5,307.66L260.51,308.13L259.6,308.13L-260.54,308.15" style="vector-effect: non-scaling-stroke; fill: none; stroke: rgb(34, 42, 42); stroke-opacity: 1; stroke-width: 2px; opacity: 1;"/></g><g class="points"/><g class="text"/></g><g class="trace scatter trace5c56b2" style="stroke-miterlimit: 2; opacity: 1;"><g class="fills"/><g class="errorbars"/><g class="lines"><path class="js-line" d="M-260.17,308.16L335.68,307.41L336.39,307.39L385.59,305.55L386.79,305.5L424.35,302.29L425.15,302.2L451.34,298.65L452.16,298.53L460.98,296.98L461.84,296.84L474.99,294.33L475.8,294.17L487.75,291.69L488.46,291.5L524.52,281.75L525.22,281.47L584.82,259.68L585.15,259.36L595.53,255.35L592.25,257.1L591.44,257.49L580.26,263.29L579.3,263.65L570.8,267.61L570.44,267.94L560.68,271.9L560,272.22L525.62,284.31L524.65,284.57L519.27,286.23L518.43,286.46L503.03,290.61L502.26,290.82L472.58,297.07L471.48,297.22L463.8,298.52L463.06,298.65L456.31,299.65L455.46,299.77L450.72,300.44L449.63,300.55L417.58,303.84L416.89,303.9L356.46,306.81L355.77,306.83L257.32,308.03L256.5,308.03L174.31,308.17L173.27,308.17L-260.69,308.17" style="vector-effect: non-scaling-stroke; fill: none; stroke: rgb(117, 13, 134); stroke-opacity: 1; stroke-width: 2px; opacity: 1;"/></g><g class="points"/><g class="text"/></g><g class="trace scatter tracedcd509" style="stroke-miterlimit: 2; opacity: 1;"><g class="fills"/><g class="errorbars"/><g class="lines"><path class="js-line" d="M-260.42,308.16L339.79,307.42L340.74,307.4L379.71,306.18L380.61,306.14L439.5,301.05L440.41,300.93L457.38,298.42L457.31,298.28L458.09,298.14L466.89,296.63L467.55,296.48L497.17,289.45L497.57,289.24L505.66,286.88L506.36,286.64L515.03,283.84L516.03,283.55L526.99,279.21L528.33,278.91L547.09,271.02L547.52,270.67L553.83,268.02L553.91,267.68L558.9,265.57L559.59,265.18L561.02,264.55L562.21,264.18L564.66,262.85L565.5,262.52L571.67,259.68L572.55,259.33L573.38,258.59L574.42,258.27L578.65,256.08L578.8,255.76L584.81,253.22L585.02,252.86L588.31,251.41L589.29,251.32L587.44,251.88L586.6,252.39L586.69,252.83L585.59,253.27L580.29,256.28L579.82,256.74L576.84,258.36L576.26,258.83L562.25,266.12L561.67,266.51L561.5,266.9L560.26,267.29L534.08,278.9L532.58,279.2L530.39,280.34L529.2,280.63L525.26,282.35L524.19,282.62L493.79,291.95L492.95,292.13L456.9,299.43L456.1,299.56L450.93,300.39L449.65,300.5L436.92,302.15L435.43,302.24L377.21,306.22L376.49,306.25L286.92,307.89L285.78,307.89L208.17,308.15L207.01,308.15L-260.9,308.18" style="vector-effect: non-scaling-stroke; fill: none; stroke: rgb(117, 13, 134); stroke-opacity: 1; stroke-width: 2px; opacity: 1;"/></g><g class="points"/><g class="text"/></g><g class="trace scatter trace660151" style="stroke-miterlimit: 2; opacity: 1;"><g class="fills"/><g class="errorbars"/><g class="lines"><path class="js-line" d="M-267.07,308.15L495.95,307.41L497.82,307.39L587.51,304.76L587.67,304.71L602.42,304.04L565.99,305.73L564.53,305.77L564.9,305.8L559.09,305.98L557.99,306.01L525.38,306.89L524.8,306.91L488.06,307.49L486.72,307.5L431.28,307.94L429.71,307.94L-267.37,308.15L-267.12,308.15" style="vector-effect: non-scaling-stroke; fill: none; stroke: rgb(0, 160, 139); stroke-opacity: 1; stroke-width: 2px; opacity: 1;"/></g><g class="points"/><g class="text"/></g><g class="trace scatter traceaf16f2" style="stroke-miterlimit: 2; opacity: 1;"><g class="fills"/><g class="errorbars"/><g class="lines"><path class="js-line" d="M-267.21,308.21L234.89,307.46L235.81,307.45L278.04,306.29L278.83,306.23L303.04,303.54L303.89,303.4L316.72,300.81L317.48,300.62L335.22,295.19L336,294.91L340.24,293.16L341.2,292.85L362.44,282L363.11,281.49L370.74,276.7L371.42,276.25L381.29,269.03L381.79,268.53L394.07,258.49L394.49,257.92L398.29,254.52L399.11,253.95L401.99,251.04L402.56,250.45L408.87,244.47L409.34,243.87L412.13,240.76L412.78,240.12L419.87,232.46L420.49,231.78L426.68,224.36L427.38,223.71L430.85,219.54L431.14,218.79L434.57,214.49L435.15,213.79L439.7,208.1L440.01,207.35L444.28,201.13L444.74,200.35L448.32,195.97L448.7,195.23L454.73,187.07L455.07,186.32L459.8,179.36L460.34,178.59L463.64,173.97L464.17,173.26L468.8,165.91L469.25,164.95L476.42,153.69L477.01,152.82L481.99,144.76L482.63,143.92L486.61,137.29L486.99,136.34L494.69,124L495.03,123L496.61,120.56L497.27,119.82L500.47,114.06L501.41,113.27L503.53,108.71L503.68,107.83L507.74,100.92L508.22,100.04L509.86,97.45L505.22,106.29L504.62,107.18L500.52,115.62L500.26,116.48L489.79,136L489.11,136.92L485.88,142.94L485.21,143.84L482.09,149.91L481.34,150.65L476.69,157.98L476.47,158.76L467.21,173.52L466.45,174.26L462.97,179.82L462.36,180.63L460.19,183.78L459.69,184.63L458.88,186.15L458.13,186.85L453.47,193.66L453.03,194.43L443.89,207.08L443.1,207.83L436.53,216.24L435.83,216.7L424.42,230.34L423.76,230.99L418.43,236.65L417.85,237.27L405.31,249.95L404.59,250.52L396.5,257.85L395.78,258.4L388.26,264.6L387.59,265.1L382.38,268.98L381.73,269.46L359.17,283.43L358.44,283.8L341.78,291.38L341.03,291.68L332.12,294.93L331.32,295.19L309.18,301.06L308.31,301.23L297.9,303.12L297.2,303.25L277.31,305.66L276.54,305.74L246.65,307.48L245.84,307.51L198.97,308.24L197.96,308.25L-267.77,308.23" style="vector-effect: non-scaling-stroke; fill: none; stroke: rgb(178, 130, 141); stroke-opacity: 1; stroke-width: 2px; opacity: 1;"/></g><g class="points"/><g class="text"/></g><g class="trace scatter trace34a590" style="stroke-miterlimit: 2; opacity: 1;"><g class="fills"/><g class="errorbars"/><g class="lines"><path class="js-line" d="M-260.08,308.16L291.01,307.41L292.38,307.39L331.64,305.58L332.09,305.52L354.34,303.34L354.85,303.24L371.27,300.86L371.95,300.72L410.94,291.69L411.48,291.47L426.37,286.61L427.02,286.35L434.61,283.55L435.33,283.26L443.24,280.04L443.9,279.66L448.61,277.39L449.24,277.07L464.19,269.94L464.38,269.6L469.04,267.49L469.58,267.14L473.85,265.03L474.6,264.7L481.78,260.67L482.62,260.31L486.99,257.19L487.26,256.78L490.27,254.98L490.65,254.57L494.9,252.05L495.2,251.62L500.47,248.64L500.66,248.22L508.2,243.47L508.39,243.02L516.47,238.21L516.67,237.79L523.16,233.93L523.68,233.1L524.91,231.48L525.77,230.89L527.34,229.34L528.34,228.87L529.22,227.86L529.85,227.34L531.63,225.75L532.36,225.22L535.32,222.66L535.8,222.19L540.02,218.77L540.85,218.34L544.8,215.57L545.11,215.08L547.69,213.36L548.24,212.74L551.6,210.43L552.06,209.93L557.59,206.03L555.76,206.09L556.58,206.27L555.81,206.68L555.7,207.2L552.24,209.77L551.94,210.33L541.22,218.44L540.26,218.84L538.28,220.96L537.54,221.51L534.6,224.03L534.02,224.49L531.66,226.73L530.76,227.25L530.66,227.73L529.63,228.19L523.41,234.02L522.57,234.58L517.79,238.71L517.01,239.18L514.4,241.63L513.55,242.15L510.8,243.65L510.12,244.12L507.88,245.86L506.88,246.28L503.1,248.83L502.29,249.29L494.13,254.93L493.1,255.28L490.93,256.91L489.95,257.26L479.46,263.5L478.58,263.86L464.49,271.75L463.8,272.1L428.68,287.01L428,287.26L400.29,295.31L399.32,295.49L393.95,296.72L392.81,296.89L387.49,298.03L386.73,298.18L354.73,303.06L354.14,303.15L302.28,306.9L301.29,306.93L279.12,307.6L277.81,307.62L229.31,308.17L227.98,308.17L-260.99,308.16L-260.68,308.17" style="vector-effect: non-scaling-stroke; fill: none; stroke: rgb(119, 138, 174); stroke-opacity: 1; stroke-width: 2px; opacity: 1;"/></g><g class="points"/><g class="text"/></g><g class="trace scatter tracef87c63" style="stroke-miterlimit: 2; opacity: 1;"><g class="fills"/><g class="errorbars"/><g class="lines"><path class="js-line" d="M-260.36,308.16L311.39,307.41L312.32,307.39L351.64,306.16L352.62,306.12L387.15,303.79L388.21,303.71L426.27,299.06L427.16,298.94L472.52,289.65L473.16,289.45L492.13,284.13L492.87,283.91L499.61,281.66L500.28,281.41L544.46,265.64L545.33,265.39L551.85,263.15L552.69,262.92L562.04,259.86L562.86,259.61L580,254.25L578.79,254.87L578.13,255.27L568.19,260.73L567.4,261.08L558.61,265.34L557.84,265.66L548.1,269.9L547.27,270.18L539.49,273.3L538.76,273.57L515.57,281.54L514.59,281.77L493.67,287.71L492.82,287.91L468.14,293.48L467.31,293.64L437.59,298.7L436.87,298.82L406.58,302.37L405.79,302.45L378.29,304.63L377.44,304.68L345.33,306.31L344.47,306.34L306.42,307.41L305.51,307.43L258,308.02L257.09,308.02L178.09,308.24L177.13,308.24L-261.11,308.17" style="vector-effect: non-scaling-stroke; fill: none; stroke: rgb(119, 138, 174); stroke-opacity: 1; stroke-width: 2px; opacity: 1;"/></g><g class="points"/><g class="text"/></g></g></g><g class="overplot"/><path class="xlines-above crisp" d="M78,421H733" style="fill: none; stroke-width: 2px; stroke: rgb(0, 0, 0); stroke-opacity: 1;"/><path class="ylines-above crisp" d="M79,100V420" style="fill: none; stroke-width: 2px; stroke: rgb(0, 0, 0); stroke-opacity: 1;"/><g class="overlines-above"/><g class="xaxislayer-above"><path class="xtick ticks crisp" d="M0,422v5" transform="translate(80,0)" style="stroke: rgb(68, 68, 68); stroke-opacity: 1; stroke-width: 1px;"/><path class="xtick ticks crisp" d="M0,422v5" transform="translate(167.07,0)" style="stroke: rgb(68, 68, 68); stroke-opacity: 1; stroke-width: 1px;"/><path class="xtick ticks crisp" d="M0,422v5" transform="translate(254.13,0)" style="stroke: rgb(68, 68, 68); stroke-opacity: 1; stroke-width: 1px;"/><path class="xtick ticks crisp" d="M0,422v5" transform="translate(341.2,0)" style="stroke: rgb(68, 68, 68); stroke-opacity: 1; stroke-width: 1px;"/><path class="xtick ticks crisp" d="M0,422v5" transform="translate(428.27,0)" style="stroke: rgb(68, 68, 68); stroke-opacity: 1; stroke-width: 1px;"/><path class="xtick ticks crisp" d="M0,422v5" transform="translate(515.3299999999999,0)" style="stroke: rgb(68, 68, 68); stroke-opacity: 1; stroke-width: 1px;"/><path class="xtick ticks crisp" d="M0,422v5" transform="translate(602.4,0)" style="stroke: rgb(68, 68, 68); stroke-opacity: 1; stroke-width: 1px;"/><path class="xtick ticks crisp" d="M0,422v5" transform="translate(689.47,0)" style="stroke: rgb(68, 68, 68); stroke-opacity: 1; stroke-width: 1px;"/><g class="xtick"><text text-anchor="middle" x="0" y="448.6" transform="translate(80,0)" style="font-family: 'Times New Roman', monospace; font-size: 18px; fill: rgb(105, 105, 105); fill-opacity: 1; white-space: pre; opacity: 1;">0</text></g><g class="xtick"><text text-anchor="middle" x="0" y="448.6" style="font-family: 'Times New Roman', monospace; font-size: 18px; fill: rgb(105, 105, 105); fill-opacity: 1; white-space: pre; opacity: 1;" transform="translate(167.07,0)">0.1</text></g><g class="xtick"><text text-anchor="middle" x="0" y="448.6" style="font-family: 'Times New Roman', monospace; font-size: 18px; fill: rgb(105, 105, 105); fill-opacity: 1; white-space: pre; opacity: 1;" transform="translate(254.13,0)">0.2</text></g><g class="xtick"><text text-anchor="middle" x="0" y="448.6" style="font-family: 'Times New Roman', monospace; font-size: 18px; fill: rgb(105, 105, 105); fill-opacity: 1; white-space: pre; opacity: 1;" transform="translate(341.2,0)">0.3</text></g><g class="xtick"><text text-anchor="middle" x="0" y="448.6" style="font-family: 'Times New Roman', monospace; font-size: 18px; fill: rgb(105, 105, 105); fill-opacity: 1; white-space: pre; opacity: 1;" transform="translate(428.27,0)">0.4</text></g><g class="xtick"><text text-anchor="middle" x="0" y="448.6" style="font-family: 'Times New Roman', monospace; font-size: 18px; fill: rgb(105, 105, 105); fill-opacity: 1; white-space: pre; opacity: 1;" transform="translate(515.3299999999999,0)">0.5</text></g><g class="xtick"><text text-anchor="middle" x="0" y="448.6" style="font-family: 'Times New Roman', monospace; font-size: 18px; fill: rgb(105, 105, 105); fill-opacity: 1; white-space: pre; opacity: 1;" transform="translate(602.4,0)">0.6</text></g><g class="xtick"><text text-anchor="middle" x="0" y="448.6" style="font-family: 'Times New Roman', monospace; font-size: 18px; fill: rgb(105, 105, 105); fill-opacity: 1; white-space: pre; opacity: 1;" transform="translate(689.47,0)">0.7</text></g></g><g class="yaxislayer-above"><path class="ytick ticks crisp" d="M78,0h-5" transform="translate(0,408.15)" style="stroke: rgb(68, 68, 68); stroke-opacity: 1; stroke-width: 1px;"/><path class="ytick ticks crisp" d="M78,0h-5" transform="translate(0,360.74)" style="stroke: rgb(68, 68, 68); stroke-opacity: 1; stroke-width: 1px;"/><path class="ytick ticks crisp" d="M78,0h-5" transform="translate(0,313.33000000000004)" style="stroke: rgb(68, 68, 68); stroke-opacity: 1; stroke-width: 1px;"/><path class="ytick ticks crisp" d="M78,0h-5" transform="translate(0,265.93)" style="stroke: rgb(68, 68, 68); stroke-opacity: 1; stroke-width: 1px;"/><path class="ytick ticks crisp" d="M78,0h-5" transform="translate(0,218.51999999999998)" style="stroke: rgb(68, 68, 68); stroke-opacity: 1; stroke-width: 1px;"/><path class="ytick ticks crisp" d="M78,0h-5" transform="translate(0,171.11)" style="stroke: rgb(68, 68, 68); stroke-opacity: 1; stroke-width: 1px;"/><path class="ytick ticks crisp" d="M78,0h-5" transform="translate(0,123.7)" style="stroke: rgb(68, 68, 68); stroke-opacity: 1; stroke-width: 1px;"/><g class="ytick"><text text-anchor="end" x="69.4" y="6.3" transform="translate(0,408.15)" style="font-family: 'Times New Roman', monospace; font-size: 18px; fill: rgb(105, 105, 105); fill-opacity: 1; white-space: pre; opacity: 1;">0</text></g><g class="ytick"><text text-anchor="end" x="69.4" y="6.3" style="font-family: 'Times New Roman', monospace; font-size: 18px; fill: rgb(105, 105, 105); fill-opacity: 1; white-space: pre; opacity: 1;" transform="translate(0,360.74)">20</text></g><g class="ytick"><text text-anchor="end" x="69.4" y="6.3" style="font-family: 'Times New Roman', monospace; font-size: 18px; fill: rgb(105, 105, 105); fill-opacity: 1; white-space: pre; opacity: 1;" transform="translate(0,313.33000000000004)">40</text></g><g class="ytick"><text text-anchor="end" x="69.4" y="6.3" style="font-family: 'Times New Roman', monospace; font-size: 18px; fill: rgb(105, 105, 105); fill-opacity: 1; white-space: pre; opacity: 1;" transform="translate(0,265.93)">60</text></g><g class="ytick"><text text-anchor="end" x="69.4" y="6.3" style="font-family: 'Times New Roman', monospace; font-size: 18px; fill: rgb(105, 105, 105); fill-opacity: 1; white-space: pre; opacity: 1;" transform="translate(0,218.51999999999998)">80</text></g><g class="ytick"><text text-anchor="end" x="69.4" y="6.3" style="font-family: 'Times New Roman', monospace; font-size: 18px; fill: rgb(105, 105, 105); fill-opacity: 1; white-space: pre; opacity: 1;" transform="translate(0,171.11)">100</text></g><g class="ytick"><text text-anchor="end" x="69.4" y="6.3" style="font-family: 'Times New Roman', monospace; font-size: 18px; fill: rgb(105, 105, 105); fill-opacity: 1; white-space: pre; opacity: 1;" transform="translate(0,123.7)">120</text></g></g><g class="overaxes-above"/></g></g><g class="polarlayer"/><g class="smithlayer"/><g class="ternarylayer"/><g class="geolayer"/><g class="funnelarealayer"/><g class="pielayer"/><g class="iciclelayer"/><g class="treemaplayer"/><g class="sunburstlayer"/><g class="glimages"/><defs id="topdefs-de23c0"><g class="clips"/><clipPath id="legendde23c0"><rect width="242" height="320" x="0" y="0"/></clipPath></defs><g class="layer-above"><g class="imagelayer"/><g class="shapelayer"/></g><g class="infolayer"><g class="legend" pointer-events="all" transform="translate(746.0600000000001,100)"><rect class="bg" shape-rendering="crispEdges" width="242" height="320" x="0" y="0" style="stroke: rgb(68, 68, 68); stroke-opacity: 1; fill: rgb(255, 255, 255); fill-opacity: 1; stroke-width: 0px;"/><g class="scrollbox" transform="" clip-path="url(#legendde23c0)"><g class="groups"><g class="traces" transform="translate(0,18.200000000000003)" style="opacity: 1;"><text class="legendtext" text-anchor="start" x="40" y="7.0200000000000005" style="font-family: 'Times New Roman', monospace; font-size: 18px; fill: rgb(105, 105, 105); fill-opacity: 1; white-space: pre;">Co50 Ni0 Fe50 300C 2h_</text><g class="layers" style="opacity: 1;"><g class="legendfill"/><g class="legendlines"><path class="js-line" d="M5,0h30" style="fill: none; stroke: rgb(46, 145, 229); stroke-opacity: 1; stroke-width: 2px;"/></g><g class="legendsymbols"><g class="legendpoints"/></g></g><rect class="legendtoggle" x="0" y="-13.200000000000001" width="236.015625" height="26.400000000000002" style="fill: rgb(0, 0, 0); fill-opacity: 0;"/></g><g class="traces" transform="translate(0,44.6)" style="opacity: 1;"><text class="legendtext" text-anchor="start" x="40" y="7.0200000000000005" style="font-family: 'Times New Roman', monospace; font-size: 18px; fill: rgb(105, 105, 105); fill-opacity: 1; white-space: pre;">Co50 Ni0 Fe50 300C 2h</text><g class="layers" style="opacity: 1;"><g class="legendfill"/><g class="legendlines"><path class="js-line" d="M5,0h30" style="fill: none; stroke: rgb(46, 145, 229); stroke-opacity: 1; stroke-width: 2px;"/></g><g class="legendsymbols"><g class="legendpoints"/></g></g><rect class="legendtoggle" x="0" y="-13.200000000000001" width="236.015625" height="26.400000000000002" style="fill: rgb(0, 0, 0); fill-opacity: 0;"/></g><g class="traces" transform="translate(0,71)" style="opacity: 1;"><text class="legendtext" text-anchor="start" x="40" y="7.0200000000000005" style="font-family: 'Times New Roman', monospace; font-size: 18px; fill: rgb(105, 105, 105); fill-opacity: 1; white-space: pre;">Co0 Ni50 Fe50 400C 2h</text><g class="layers" style="opacity: 1;"><g class="legendfill"/><g class="legendlines"><path class="js-line" d="M5,0h30" style="fill: none; stroke: rgb(225, 95, 153); stroke-opacity: 1; stroke-width: 2px;"/></g><g class="legendsymbols"><g class="legendpoints"/></g></g><rect class="legendtoggle" x="0" y="-13.200000000000001" width="236.015625" height="26.400000000000002" style="fill: rgb(0, 0, 0); fill-opacity: 0;"/></g><g class="traces" transform="translate(0,97.4)" style="opacity: 1;"><text class="legendtext" text-anchor="start" x="40" y="7.0200000000000005" style="font-family: 'Times New Roman', monospace; font-size: 18px; fill: rgb(105, 105, 105); fill-opacity: 1; white-space: pre;">Co33 Ni33 Fe33 800C 2h</text><g class="layers" style="opacity: 1;"><g class="legendfill"/><g class="legendlines"><path class="js-line" d="M5,0h30" style="fill: none; stroke: rgb(251, 13, 13); stroke-opacity: 1; stroke-width: 2px;"/></g><g class="legendsymbols"><g class="legendpoints"/></g></g><rect class="legendtoggle" x="0" y="-13.200000000000001" width="236.015625" height="26.400000000000002" style="fill: rgb(0, 0, 0); fill-opacity: 0;"/></g><g class="traces" transform="translate(0,123.80000000000001)" style="opacity: 1;"><text class="legendtext" text-anchor="start" x="40" y="7.0200000000000005" style="font-family: 'Times New Roman', monospace; font-size: 18px; fill: rgb(105, 105, 105); fill-opacity: 1; white-space: pre;">Co0 Ni0 Fe100 400C 6h</text><g class="layers" style="opacity: 1;"><g class="legendfill"/><g class="legendlines"><path class="js-line" d="M5,0h30" style="fill: none; stroke: rgb(34, 42, 42); stroke-opacity: 1; stroke-width: 2px;"/></g><g class="legendsymbols"><g class="legendpoints"/></g></g><rect class="legendtoggle" x="0" y="-13.200000000000001" width="236.015625" height="26.400000000000002" style="fill: rgb(0, 0, 0); fill-opacity: 0;"/></g><g class="traces" transform="translate(0,150.2)" style="opacity: 1;"><text class="legendtext" text-anchor="start" x="40" y="7.0200000000000005" style="font-family: 'Times New Roman', monospace; font-size: 18px; fill: rgb(105, 105, 105); fill-opacity: 1; white-space: pre;">Co0 Ni0 Fe100 400C 6h</text><g class="layers" style="opacity: 1;"><g class="legendfill"/><g class="legendlines"><path class="js-line" d="M5,0h30" style="fill: none; stroke: rgb(34, 42, 42); stroke-opacity: 1; stroke-width: 2px;"/></g><g class="legendsymbols"><g class="legendpoints"/></g></g><rect class="legendtoggle" x="0" y="-13.200000000000001" width="236.015625" height="26.400000000000002" style="fill: rgb(0, 0, 0); fill-opacity: 0;"/></g><g class="traces" transform="translate(0,176.6)" style="opacity: 1;"><text class="legendtext" text-anchor="start" x="40" y="7.0200000000000005" style="font-family: 'Times New Roman', monospace; font-size: 18px; fill: rgb(105, 105, 105); fill-opacity: 1; white-space: pre;">Co25 Ni0 Fe75 800C 6h</text><g class="layers" style="opacity: 1;"><g class="legendfill"/><g class="legendlines"><path class="js-line" d="M5,0h30" style="fill: none; stroke: rgb(117, 13, 134); stroke-opacity: 1; stroke-width: 2px;"/></g><g class="legendsymbols"><g class="legendpoints"/></g></g><rect class="legendtoggle" x="0" y="-13.200000000000001" width="236.015625" height="26.400000000000002" style="fill: rgb(0, 0, 0); fill-opacity: 0;"/></g><g class="traces" transform="translate(0,203)" style="opacity: 1;"><text class="legendtext" text-anchor="start" x="40" y="7.0200000000000005" style="font-family: 'Times New Roman', monospace; font-size: 18px; fill: rgb(105, 105, 105); fill-opacity: 1; white-space: pre;">Co25 Ni0 Fe75 800C 6h</text><g class="layers" style="opacity: 1;"><g class="legendfill"/><g class="legendlines"><path class="js-line" d="M5,0h30" style="fill: none; stroke: rgb(117, 13, 134); stroke-opacity: 1; stroke-width: 2px;"/></g><g class="legendsymbols"><g class="legendpoints"/></g></g><rect class="legendtoggle" x="0" y="-13.200000000000001" width="236.015625" height="26.400000000000002" style="fill: rgb(0, 0, 0); fill-opacity: 0;"/></g><g class="traces" transform="translate(0,229.4)" style="opacity: 1;"><text class="legendtext" text-anchor="start" x="40" y="7.0200000000000005" style="font-family: 'Times New Roman', monospace; font-size: 18px; fill: rgb(105, 105, 105); fill-opacity: 1; white-space: pre;">Co0 Ni25 Fe75 600C 12h</text><g class="layers" style="opacity: 1;"><g class="legendfill"/><g class="legendlines"><path class="js-line" d="M5,0h30" style="fill: none; stroke: rgb(0, 160, 139); stroke-opacity: 1; stroke-width: 2px;"/></g><g class="legendsymbols"><g class="legendpoints"/></g></g><rect class="legendtoggle" x="0" y="-13.200000000000001" width="236.015625" height="26.400000000000002" style="fill: rgb(0, 0, 0); fill-opacity: 0;"/></g><g class="traces" transform="translate(0,255.8)" style="opacity: 1;"><text class="legendtext" text-anchor="start" x="40" y="7.0200000000000005" style="font-family: 'Times New Roman', monospace; font-size: 18px; fill: rgb(105, 105, 105); fill-opacity: 1; white-space: pre;">Co50 Ni25 Fe25 400C 24h</text><g class="layers" style="opacity: 1;"><g class="legendfill"/><g class="legendlines"><path class="js-line" d="M5,0h30" style="fill: none; stroke: rgb(178, 130, 141); stroke-opacity: 1; stroke-width: 2px;"/></g><g class="legendsymbols"><g class="legendpoints"/></g></g><rect class="legendtoggle" x="0" y="-13.200000000000001" width="236.015625" height="26.400000000000002" style="fill: rgb(0, 0, 0); fill-opacity: 0;"/></g><g class="traces" transform="translate(0,282.2)" style="opacity: 1;"><text class="legendtext" text-anchor="start" x="40" y="7.0200000000000005" style="font-family: 'Times New Roman', monospace; font-size: 18px; fill: rgb(105, 105, 105); fill-opacity: 1; white-space: pre;">Co75 Ni0 Fe25 800C 24h</text><g class="layers" style="opacity: 1;"><g class="legendfill"/><g class="legendlines"><path class="js-line" d="M5,0h30" style="fill: none; stroke: rgb(119, 138, 174); stroke-opacity: 1; stroke-width: 2px;"/></g><g class="legendsymbols"><g class="legendpoints"/></g></g><rect class="legendtoggle" x="0" y="-13.200000000000001" width="236.015625" height="26.400000000000002" style="fill: rgb(0, 0, 0); fill-opacity: 0;"/></g><g class="traces" transform="translate(0,308.59999999999997)" style="opacity: 1;"><text class="legendtext" text-anchor="start" x="40" y="7.0200000000000005" style="font-family: 'Times New Roman', monospace; font-size: 18px; fill: rgb(105, 105, 105); fill-opacity: 1; white-space: pre;">Co75 Ni0 Fe25 800C 24h</text><g class="layers" style="opacity: 1;"><g class="legendfill"/><g class="legendlines"><path class="js-line" d="M5,0h30" style="fill: none; stroke: rgb(119, 138, 174); stroke-opacity: 1; stroke-width: 2px;"/></g><g class="legendsymbols"><g class="legendpoints"/></g></g><rect class="legendtoggle" x="0" y="-13.200000000000001" width="236.015625" height="26.400000000000002" style="fill: rgb(0, 0, 0); fill-opacity: 0;"/></g></g></g><rect class="scrollbar" rx="20" ry="3" width="0" height="0" x="0" y="0" style="fill: rgb(128, 139, 164); fill-opacity: 1;"/></g><g class="g-gtitle"/><g class="g-xtitle"><text class="xtitle" x="406.5" y="483.009375" text-anchor="middle" style="font-family: 'Times New Roman', monospace; font-size: 22px; fill: rgb(105, 105, 105); opacity: 1; font-weight: normal; white-space: pre;">Overpotential, η(V) - iR​<tspan style="font-size:70%" dy="0.3em">u</tspan><tspan dy="-0.21em">​</tspan></text></g><g class="g-ytitle" transform="translate(11.259765625,0)"><text class="ytitle" transform="rotate(-90,11.990624999999994,260)" x="11.990624999999994" y="260" text-anchor="middle" style="font-family: 'Times New Roman', monospace; font-size: 22px; fill: rgb(105, 105, 105); opacity: 1; font-weight: normal; white-space: pre;">Current (mA/cm​<tspan style="font-size:70%" dy="-0.6em">2</tspan><tspan dy="0.42em">​</tspan>)</text></g></g></svg>