<svg class="main-svg" xmlns="http://www.w3.org/2000/svg" xmlns:xlink="http://www.w3.org/1999/xlink" width="1000" height="500" style="" viewBox="0 0 1000 500"><rect x="0" y="0" width="1000" height="500" style="fill: rgb(255, 255, 255); fill-opacity: 1;"/><defs id="defs-11b76c"><g class="clips"><clipPath id="clip11b76cxyplot" class="plotclip"><rect width="927" height="427"/></clipPath><clipPath class="axesclip" id="clip11b76cx"><rect x="59" y="0" width="927" height="500"/></clipPath><clipPath class="axesclip" id="clip11b76cy"><rect x="0" y="10" width="1000" height="427"/></clipPath><clipPath class="axesclip" id="clip11b76cxy"><rect x="59" y="10" width="927" height="427"/></clipPath></g><g class="gradients"/><g class="patterns"/></defs><g class="bglayer"><rect class="bg" x="59" y="10" width="927" height="427" style="fill: rgb(0, 0, 0); fill-opacity: 0; stroke-width: 0;"/></g><g class="layer-below"><g class="imagelayer"/><g class="shapelayer"/></g><g class="cartesianlayer"><g class="subplot xy"><g class="layer-subplot"><g class="shapelayer"/><g class="imagelayer"/></g><g class="minor-gridlayer"><g class="x"/><g class="y"/></g><g class="gridlayer"><g class="x"/><g class="y"/></g><g class="zerolinelayer"/><path class="xlines-below"/><path class="ylines-below"/><g class="overlines-below"/><g class="xaxislayer-below"/><g class="yaxislayer-below"/><g class="overaxes-below"/><g class="plot" transform="translate(59,10)" clip-path="url(#clip11b76cxyplot)"><g class="scatterlayer mlayer"><g class="trace scatter trace7d4300" style="stroke-miterlimit: 2; opacity: 1;"><g class="fills"/><g class="errorbars"/><g class="lines"><path class="js-line" d="M0,378.99L0.81,392.17L0.82,392.19L1.96,392.14L1.97,392.12L6.24,391.48L6.26,391.48L17.12,392.19L17.14,392.21L28.2,393.66L28.21,393.69L36.89,394.98L36.9,395L44.96,396.26L44.97,396.28L65.65,399.59L65.66,399.61L136.11,408.24L136.13,408.23L151.55,409.54L151.56,409.53L163.99,410.44L164,410.43L256.26,415.57L256.28,415.56L264.52,415.92L264.53,415.91L283.65,416.66L283.66,416.67L307.39,417.42L307.4,417.41L334.13,418.16L334.14,418.17L338.81,418.29L338.82,418.29L347.11,418.48L347.12,418.49L386.57,419.22L386.58,419.23L451.33,419.96L451.35,419.97L455.12,419.96L455.13,419.96L465.35,420.03L465.37,420.04L477.77,420.13L477.78,420.13L481.32,420.17L481.33,420.17L926.98,420.17" style="vector-effect: non-scaling-stroke; fill: none; stroke: rgb(46, 145, 229); stroke-opacity: 1; stroke-width: 2px; opacity: 1;"/></g><g class="points"/><g class="text"/></g><g class="trace scatter trace1174b8" style="stroke-miterlimit: 2; opacity: 1;"><g class="fills"/><g class="errorbars"/><g class="lines"><path class="js-line" d="M0,389.21L0.8,395.95L0.81,395.95L2.64,395.45L2.65,395.43L7.58,394.67L7.6,394.67L15.57,394.88L15.58,394.89L20.14,395.33L20.15,395.34L56.41,400.83L56.42,400.84L73.8,403.56L73.81,403.55L127.89,409.86L127.9,409.86L141.66,410.94L141.68,410.94L153.19,411.72L153.2,411.71L162.78,412.26L162.79,412.19L164.8,412.36L164.81,412.36L174.78,412.86L174.79,412.85L205.16,414.02L205.18,413.98L212.44,414.23L212.46,414.22L219.41,414.4L219.42,414.4L238.13,414.87L238.14,414.86L242.84,414.98L242.85,414.98L257.72,415.18L257.74,415.16L262.14,415.31L262.15,415.31L275.54,415.42L275.56,415.42L283.98,415.61L283.99,415.61L295.04,415.71L295.05,415.72L298.76,415.71L298.77,415.72L528.65,415.37L528.67,415.36L534.82,415.51L534.83,415.49L538.69,415.47L538.71,415.46L541.24,415.56L541.26,415.56L542.61,415.53L542.62,415.54L545.15,415.4L545.16,415.4L555.74,415.44L555.75,415.42L566.2,415.45L566.21,415.47L568.96,415.43L568.98,415.43L572.77,415.41L572.79,415.41L578.34,415.39L578.35,415.4L580.99,415.36L581,415.35L582.3,415.31L582.32,415.3L588.32,415.25L588.33,415.26L593.21,415.2L593.22,415.19L596.13,415.19L596.14,415.2L607.6,415.23L607.61,415.24L612.51,415.19L612.52,415.17L615.6,415.04L615.61,415.05L617.36,415.25L617.37,415.25L620.12,415.04L620.13,415.03L621.92,415.02L621.93,415L625.63,415.16L625.64,415.16L631.21,415.05L631.23,415.06L634.14,415.07L634.15,415.08L639.88,415.01L639.89,415.02L646.36,414.92L646.37,414.93L648.62,414.93L648.63,414.95L649.88,414.85L649.9,414.85L651.96,414.95L651.97,414.94L663.39,414.87L663.4,414.87L668.4,414.76L668.41,414.74L677.5,414.66L677.51,414.64L678.34,414.81L678.35,414.82L682.07,414.8L682.08,414.79L690.5,414.72L690.52,414.65L693.9,414.73L693.92,414.74L697.95,414.64L697.96,414.66L703.65,414.71L703.66,414.7L716,414.63L716.01,414.64L720.62,414.48L720.63,414.48L731.61,414.54L731.63,414.56L733.61,414.6L733.62,414.6L822.5,413.85L822.51,413.84L824.42,413.98L824.43,413.98L826.46,414.08L826.48,414.09L830.94,413.96L830.96,413.91L835.88,413.99L835.89,414L838.84,413.84L838.85,413.83L840,414.04L840.1,413.91L840.11,413.9L850.49,413.89L850.5,413.9L852.54,413.84L852.55,413.86L854.52,413.91L854.53,413.91L864.79,413.91L864.81,413.93L869.11,413.82L869.12,413.83L870.35,413.94L870.37,413.95L876.48,413.83L876.5,413.84L881.99,413.85L882.01,413.83L887.75,413.79L887.76,413.79L890.13,413.76L890.14,413.75L894.01,413.72L894.02,413.73L896.25,413.71L896.26,413.71L906.82,413.74L906.83,413.72L909.43,413.63L909.44,413.65L911.52,413.65L911.53,413.63L912.79,413.6L912.8,413.61L923.52,413.62L923.53,413.6L925.55,413.55L925.56,413.56L926.98,413.64L926.98,413.62" style="vector-effect: non-scaling-stroke; fill: none; stroke: rgb(46, 145, 229); stroke-opacity: 1; stroke-width: 2px; opacity: 1;"/></g><g class="points"/><g class="text"/></g><g class="trace scatter trace86635b" style="stroke-miterlimit: 2; opacity: 1;"><g class="fills"/><g class="errorbars"/><g class="lines"><path class="js-line" d="M0,413.85L0.25,420.29L0.76,420.07L0.78,420.03L7.95,418.33L7.96,418.36L11.01,417.92L11.02,417.95L25.61,416.68L25.62,416.73L28.03,416.56L28.04,416.57L31.69,416.35L31.7,416.38L36.98,416.1L36.99,416.14L45.22,415.8L45.23,415.84L48.73,415.7L48.75,415.74L52.06,415.6L52.07,415.64L58.75,415.44L58.76,415.48L61.35,415.37L61.37,415.41L76.61,415.08L76.62,415.12L90.94,414.89L90.95,414.94L93.58,414.87L93.59,414.91L100.02,414.79L100.03,414.84L105.87,414.75L105.89,414.79L109.84,414.73L109.85,414.77L114,414.71L114.01,414.75L126.24,414.67L126.26,414.7L129.42,414.65L129.44,414.69L134.98,414.65L135,414.69L137.96,414.64L137.97,414.68L143.87,414.66L143.88,414.68L155.43,414.7L155.44,414.65L243.17,415.37L243.19,415.41L252.3,415.5L252.31,415.53L255.07,415.54L255.08,415.57L301.23,416.25L301.24,416.29L304.75,416.31L304.77,416.35L349.42,417.03L349.43,417.07L353.2,417.09L353.22,417.12L358.62,417.18L358.64,417.2L408.5,417.89L408.51,417.93L411.29,417.93L411.31,417.96L415.31,417.98L415.32,418.02L418.96,418.03L418.97,418.06L432.35,418.23L432.36,418.2L445.76,418.4L445.77,418.36L449.82,418.44L449.83,418.41L516.81,419.14L516.82,419.17L522.07,419.19L522.08,419.22L527.36,419.24L527.38,419.27L531.01,419.28L531.02,419.31L537.03,419.33L537.05,419.36L631.33,420.06L631.34,420.09L637.06,420.1L637.07,420.13L642.89,420.14L642.9,420.16L648.57,420.17L648.58,420.2L654.35,420.22L654.36,420.23L667.39,420.31L667.4,420.29L673.33,420.35L673.34,420.32L685.71,420.42L685.73,420.41L697.63,420.48L697.65,420.46L709.74,420.55L709.75,420.53L716.41,420.58L716.42,420.56L728.57,420.65L728.59,420.63L734.81,420.67L734.82,420.65L746.42,420.71L746.43,420.69L752.66,420.73L752.68,420.72L764.53,420.8L764.55,420.77L776.44,420.84L776.46,420.82L788.09,420.87L788.11,420.85L794.03,420.89L794.04,420.88L806.44,420.94L806.45,420.91L812.16,420.94L812.17,420.92L824.89,420.99L824.9,420.97L830.63,421.01L830.65,420.98L842.26,421.04L842.27,421.02L926.98,421.16L926.98,421.14" style="vector-effect: non-scaling-stroke; fill: none; stroke: rgb(225, 95, 153); stroke-opacity: 1; stroke-width: 2px; opacity: 1;"/></g><g class="points"/><g class="text"/></g><g class="trace scatter trace3c782d" style="stroke-miterlimit: 2; opacity: 1;"><g class="fills"/><g class="errorbars"/><g class="lines"><path class="js-line" d="M0,424.78L0.84,426.51L0.9,426.52L16.03,426.59L16.09,426.58L31.54,426.55L31.61,426.55L926.93,425.86" style="vector-effect: non-scaling-stroke; fill: none; stroke: rgb(251, 13, 13); stroke-opacity: 1; stroke-width: 2px; opacity: 1;"/></g><g class="points"/><g class="text"/></g><g class="trace scatter trace5053ec" style="stroke-miterlimit: 2; opacity: 1;"><g class="fills"/><g class="errorbars"/><g class="lines"><path class="js-line" d="M0,422.62L0.77,425.12L0.79,425.12L5.73,425.03L5.74,425.02L25.6,424.53L25.61,424.53L35.68,424.45L35.69,424.45L262.19,423.7L262.2,423.69L442.05,422.97L442.06,422.96L453.75,422.94L453.77,422.94L926.98,422.9" style="vector-effect: non-scaling-stroke; fill: none; stroke: rgb(34, 42, 42); stroke-opacity: 1; stroke-width: 2px; opacity: 1;"/></g><g class="points"/><g class="text"/></g><g class="trace scatter trace3670b5" style="stroke-miterlimit: 2; opacity: 1;"><g class="fills"/><g class="errorbars"/><g class="lines"><path class="js-line" d="M0,420.99L0.77,425.01L0.79,425.01L5.06,425.1L5.07,425.1L20.29,424.9L20.3,424.9L926.98,424.33" style="vector-effect: non-scaling-stroke; fill: none; stroke: rgb(34, 42, 42); stroke-opacity: 1; stroke-width: 2px; opacity: 1;"/></g><g class="points"/><g class="text"/></g><g class="trace scatter traceecaa3b" style="stroke-miterlimit: 2; opacity: 1;"><g class="fills"/><g class="errorbars"/><g class="lines"><path class="js-line" d="M0,411.23L0.25,419.64L0.76,419.46L0.78,419.44L5.44,418.66L5.45,418.67L10.25,418.16L10.26,418.16L21.97,417.32L21.98,417.33L30.86,416.95L30.88,416.96L47.99,416.54L48,416.55L54.86,416.43L54.88,416.43L68.86,416.29L68.87,416.3L75.28,416.23L75.3,416.24L87.26,416.16L87.27,416.18L93.1,416.14L93.12,416.15L103.38,416.1L103.39,416.08L114.02,416.07L114.04,416.06L124.98,416.06L124.99,416.05L136.14,416.06L136.16,416.05L926.98,416.24L926.98,416.23" style="vector-effect: non-scaling-stroke; fill: none; stroke: rgb(117, 13, 134); stroke-opacity: 1; stroke-width: 2px; opacity: 1;"/></g><g class="points"/><g class="text"/></g><g class="trace scatter trace5b4a48" style="stroke-miterlimit: 2; opacity: 1;"><g class="fills"/><g class="errorbars"/><g class="lines"><path class="js-line" d="M0,416.3L0.09,418.72L0.76,418.44L0.77,418.44L9.53,417.32L9.54,417.34L11.64,417.08L11.65,417.14L13.98,416.89L14,416.95L16.12,416.75L16.13,416.79L18.28,416.61L18.3,416.68L20.47,416.5L20.48,416.54L22.11,416.42L22.12,416.45L23.79,416.29L23.81,416.34L23.82,416.35L25.71,416.21L25.72,416.25L29.08,416.08L29.1,416.11L31.05,415.98L31.07,416.03L32.93,415.91L32.95,415.93L37.4,415.75L37.41,415.8L39.36,415.67L39.37,415.72L42.09,415.59L42.1,415.63L42.11,415.65L44.02,415.52L44.03,415.58L44.05,415.58L46.12,415.46L46.13,415.49L46.14,415.54L52.71,415.33L52.72,415.36L54.49,415.27L54.5,415.3L54.51,415.31L59.01,415.2L59.02,415.21L61.13,415.13L61.14,415.16L61.16,415.18L62.93,415.08L62.95,415.12L62.96,415.14L64.53,415.05L64.54,415.08L64.56,415.11L66.4,415L66.41,415.03L66.42,415.07L68.68,414.98L68.69,415.03L70.54,414.92L70.55,414.95L70.57,414.99L72.43,414.89L72.45,414.94L72.46,414.96L74.43,414.86L74.44,414.91L74.46,414.93L76.21,414.84L76.22,414.89L78.32,414.79L78.33,414.84L78.34,414.86L80.17,414.8L80.19,414.83L82.13,414.73L82.14,414.77L82.16,414.81L83.6,414.73L83.61,414.78L85.58,414.68L85.59,414.72L85.61,414.75L87.7,414.67L87.72,414.72L89.56,414.63L89.57,414.67L89.58,414.7L91.41,414.61L91.43,414.66L91.44,414.67L93.45,414.56L93.46,414.61L93.47,414.64L95.43,414.56L95.44,414.61L95.46,414.61L97.43,414.52L97.44,414.55L97.45,414.59L99.41,414.53L99.42,414.57L101.18,414.49L101.2,414.54L103.15,414.46L103.17,414.52L105.02,414.45L105.03,414.49L107.48,414.39L107.49,414.42L107.51,414.47L109.22,414.39L109.23,414.42L109.24,414.45L110.88,414.36L110.89,414.39L110.91,414.43L112.84,414.34L112.85,414.37L112.86,414.41L114.63,414.32L114.64,414.35L114.65,414.39L116.35,414.29L116.36,414.34L116.38,414.37L118.32,414.28L118.33,414.35L118.35,414.35L119.88,414.26L119.89,414.28L119.9,414.33L121.95,414.24L121.96,414.28L121.98,414.31L123.72,414.22L123.73,414.28L125.58,414.23L125.6,414.26L127.63,414.18L127.64,414.22L127.66,414.26L129.36,414.16L129.37,414.2L129.38,414.24L131.11,414.17L131.12,414.22L132.84,414.13L132.86,414.17L132.87,414.21L134.65,414.11L134.66,414.15L134.67,414.18L136.37,414.09L136.38,414.11L136.4,414.17L138.06,414.08L138.07,414.11L138.08,414.15L141.08,414.09L141.1,414.12L142.8,414.06L142.81,414.11L144.55,414.01L144.56,414.06L144.57,414.08L147.1,414.01L147.11,414.05L147.12,414.07L160,413.92L160.01,413.95L161.75,413.87L161.76,413.93L163.5,413.86L163.51,413.9L169.58,413.83L169.59,413.88L171.12,413.78L171.13,413.8L171.15,413.86L172.78,413.77L172.8,413.81L172.81,413.83L174.48,413.76L174.49,413.8L174.51,413.82L176.04,413.74L176.05,413.78L176.07,413.81L177.78,413.76L177.79,413.79L179.68,413.72L179.7,413.78L181.4,413.71L181.41,413.74L181.42,413.78L183.02,413.69L183.03,413.73L186.1,413.68L186.11,413.74L187.65,413.66L187.67,413.7L187.68,413.72L189.21,413.63L189.22,413.67L189.24,413.71L191.25,413.62L191.26,413.65L191.27,413.68L193.2,413.59L193.22,413.64L193.23,413.65L195.26,413.61L195.28,413.65L197.34,413.57L197.35,413.6L197.36,413.63L199.91,413.55L199.92,413.63L201.46,413.54L201.47,413.57L201.48,413.61L203.19,413.53L203.21,413.59L205,413.52L205.01,413.57L205.02,413.58L206.71,413.51L206.73,413.56L206.75,413.56L208.42,413.49L208.43,413.54L208.45,413.56L210,413.45L210.02,413.51L210.03,413.54L211.94,413.5L211.95,413.54L213.36,413.47L213.38,413.52L215.45,413.45L215.46,413.5L217.63,413.43L217.64,413.48L217.65,413.48L219.53,413.4L219.54,413.45L219.56,413.49L221.27,413.41L221.28,413.46L223.19,413.38L223.2,413.43L223.21,413.44L225.21,413.37L225.22,413.42L225.24,413.44L226.65,413.36L226.66,413.41L226.68,413.43L228.62,413.35L228.63,413.39L228.65,413.41L230.57,413.33L230.58,413.39L232.28,413.31L232.29,413.34L232.3,413.38L235.23,413.3L235.24,413.34L235.25,413.35L237.17,413.26L237.18,413.3L237.2,413.35L238.86,413.28L238.87,413.31L238.88,413.35L240.58,413.26L240.6,413.3L240.61,413.33L242.05,413.25L242.06,413.29L242.08,413.32L243.66,413.23L243.67,413.28L245.86,413.19L245.87,413.25L245.89,413.27L247.74,413.19L247.75,413.24L247.77,413.29L249.08,413.2L249.09,413.27L251.05,413.18L251.06,413.23L253.55,413.2L253.56,413.24L255.11,413.13L255.12,413.18L255.13,413.22L257.04,413.17L257.05,413.21L258.61,413.13L258.62,413.15L258.63,413.2L260.55,413.13L260.56,413.19L263.59,413.12L263.6,413.14L266.09,413.13L266.1,413.16L267.83,413.06L267.84,413.1L267.85,413.14L269.74,413.05L269.76,413.11L269.77,413.14L271.12,413.04L271.13,413.1L282.45,413L282.46,413.05L283.93,412.95L283.95,413.01L283.96,413.04L285.53,412.96L285.54,413.02L287.51,412.93L287.52,412.99L290.24,412.95L290.25,413L290.27,413.01L291.8,412.92L291.81,412.95L291.82,412.99L293.63,412.91L293.64,412.96L293.65,412.97L295.61,412.88L295.62,412.94L295.64,412.96L297.14,412.89L297.15,412.94L297.17,412.96L298.74,412.86L298.75,412.92L298.76,412.94L300.55,412.85L300.57,412.9L300.58,412.92L302.51,412.85L302.52,412.91L304.84,412.84L304.85,412.89L304.87,412.91L306.3,412.85L306.31,412.89L308.23,412.81L308.24,412.84L308.25,412.89L310.2,412.79L310.21,412.85L311.95,412.79L311.96,412.85L311.97,412.86L313.62,412.76L313.63,412.81L313.65,412.82L315.94,412.8L315.95,412.86L317.42,412.77L317.43,412.81L319.52,412.78L319.53,412.85L321.17,412.74L321.18,412.76L321.19,412.81L323.09,412.75L323.1,412.8L324.76,412.72L324.77,412.76L324.78,412.8L326.57,412.72L326.59,412.77L326.6,412.8L328.18,412.7L328.2,412.75L331.17,412.67L331.18,412.72L331.2,412.75L332.6,412.69L332.61,412.75L334.47,412.68L334.48,412.74L334.49,412.75L335.96,412.66L335.97,412.71L335.99,412.72L337.93,412.65L337.94,412.72L339.67,412.65L339.68,412.69L342.18,412.63L342.19,412.68L342.2,412.72L344.02,412.66L344.03,412.7L345.71,412.63L345.72,412.7L347.16,412.62L347.17,412.68L350.83,412.58L350.84,412.64L350.86,412.66L352.26,412.57L352.27,412.61L352.29,412.66L354.01,412.58L354.02,412.63L356.05,412.61L356.06,412.63L357.49,412.56L357.5,412.61L357.51,412.63L359.05,412.57L359.06,412.61L360.64,412.53L360.65,412.59L360.67,412.61L362.19,412.54L362.2,412.57L362.21,412.6L364.04,412.52L364.05,412.55L364.07,412.61L365.64,412.51L365.65,412.54L365.66,412.59L367.25,412.48L367.26,412.54L370.98,412.52L370.99,412.56L372.53,412.46L372.54,412.5L372.55,412.54L374.19,412.48L374.2,412.54L374.21,412.55L375.89,412.48L375.9,412.52L375.91,412.57L377.69,412.45L377.7,412.48L377.71,412.52L379.72,412.47L379.74,412.52L382.18,412.44L382.19,412.49L382.21,412.5L391.31,412.43L391.32,412.36L392.61,412.48L392.62,412.43L392.64,412.4L394.57,412.44L394.58,412.39L394.59,412.37L396.06,412.46L396.07,412.41L401.55,412.39L401.56,412.44L402.86,412.34L402.87,412.38L402.88,412.42L404.48,412.35L404.49,412.38L404.51,412.41L405.82,412.34L405.83,412.38L405.85,412.42L407.61,412.32L407.62,412.38L410.07,412.33L410.08,412.4L411.58,412.33L411.6,412.39L411.61,412.39L413.98,412.37L414,412.41L415.93,412.29L415.94,412.32L415.95,412.39L417.63,412.3L417.64,412.35L417.65,412.38L419.3,412.28L419.31,412.3L419.33,412.36L421.32,412.31L421.33,412.37L423.16,412.27L423.18,412.32L425.44,412.28L425.45,412.33L425.47,412.35L426.99,412.28L427,412.3L427.01,412.35L428.92,412.25L428.93,412.3L428.94,412.33L431.66,412.24L431.67,412.29L431.69,412.34L433.09,412.24L433.1,412.29L433.11,412.32L434.49,412.22L434.51,412.26L434.52,412.3L436.01,412.2L436.02,412.26L436.04,412.27L438.36,412.24L438.37,412.28L438.38,412.29L440.14,412.19L440.16,412.25L442.14,412.2L442.15,412.26L442.17,412.26L443.89,412.19L443.9,412.24L447.57,412.23L447.59,412.25L449.5,412.17L449.52,412.23L449.53,412.24L451.22,412.23L451.23,412.23L453.15,412.14L453.17,412.21L453.19,412.22L455.12,412.15L455.13,412.2L455.14,412.21L458.89,412.15L458.9,412.21L460.42,412.1L460.44,412.18L462.32,412.14L462.33,412.18L463.98,412.12L463.99,412.19L465.46,412.12L465.47,412.15L465.48,412.2L466.91,412.1L466.92,412.17L472.09,412.15L472.1,412.18L473.61,412.11L473.62,412.14L473.63,412.16L475.31,412.07L475.32,412.12L475.33,412.15L476.7,412.09L476.71,412.13L476.72,412.16L478.71,412.08L478.72,412.12L480.61,412.09L480.62,412.16L482.17,412.03L482.18,412.08L482.19,412.12L491.9,412.06L491.92,412L493.52,412.06L493.54,412.02L493.55,412.01L495.44,412.08L495.46,412.03L495.47,412.01L496.96,412.06L496.97,412.01L496.99,411.98L498.37,412.05L498.38,411.96L500.1,412.02L500.12,411.97L501.64,412.05L501.65,411.97L502.96,412.03L502.97,412L502.99,411.94L504.35,412.04L504.37,412L509.71,411.99L509.72,411.98L513.53,411.97L513.55,411.93L514.54,412L514.55,411.99L524.05,411.91L524.06,411.89L525.51,411.96L525.52,411.93L525.53,411.89L527.22,411.96L527.23,411.89L529.77,411.95L529.78,411.9L531.78,411.98L531.79,411.91L531.8,411.9L533.42,411.95L533.44,411.88L535.16,411.94L535.18,411.89L535.19,411.85L536.85,411.92L536.86,411.87L536.87,411.84L538.63,411.9L538.64,411.84L538.65,411.84L540.07,411.9L540.08,411.88L540.09,411.83L543.09,411.88L543.11,411.82L544.41,411.94L544.42,411.9L544.43,411.84L545.94,411.89L545.95,411.87L545.96,411.83L548.31,411.9L548.32,411.86L548.33,411.82L549.8,411.85L549.81,411.81L549.83,411.8L551.45,411.92L551.46,411.86L555.13,411.86L555.14,411.8L555.16,411.78L556.6,411.86L556.61,411.81L556.62,411.8L558.56,411.85L558.57,411.81L558.58,411.77L560.49,411.82L560.5,411.77L562.78,411.82L562.79,411.78L562.8,411.74L564.29,411.83L564.3,411.78L564.31,411.76L565.56,411.83L565.57,411.79L565.59,411.75L566.9,411.83L566.91,411.79L566.92,411.76L568.64,411.78L568.65,411.72L570.04,411.79L570.05,411.73L570.07,411.73L571.52,411.79L571.53,411.76L571.55,411.73L572.86,411.8L572.87,411.78L572.89,411.74L575.27,411.82L575.28,411.78L575.29,411.76L576.85,411.8L576.86,411.73L580.62,411.79L580.64,411.74L583.01,411.8L583.02,411.77L583.03,411.74L586.8,411.73L586.82,411.71L588.7,411.77L588.71,411.72L588.72,411.7L590.6,411.75L590.61,411.72L590.63,411.67L592.25,411.74L592.26,411.72L592.28,411.64L594.03,411.75L594.04,411.69L594.05,411.67L595.34,411.72L595.35,411.67L597.18,411.73L597.19,411.67L598.91,411.78L598.92,411.74L839.95,411.03L839.96,411L841.46,411.15L841.47,411.12L841.48,411.07L842.81,411.13L842.82,411.08L842.84,411.04L844.45,411.14L844.46,411.09L844.47,411.03L845.9,411.11L845.91,411.05L851.53,411.05L851.54,411.03L853.42,411.11L853.43,411.07L853.45,411.02L854.63,411.1L854.64,411.04L854.66,411.03L856.19,411.09L856.2,411.02L858.52,411.09L858.53,411.06L858.54,411.01L860.08,411.09L860.09,411.03L861.38,411.1L861.39,411.03L862.93,411.1L862.95,411.05L862.96,411.01L864.92,411.12L864.93,411.06L864.94,411.03L867.03,411.08L867.04,411L869.58,411.02L869.59,411L871.11,411.06L871.12,411.02L871.14,410.98L874.11,411.08L874.12,411.03L874.14,410.99L875.62,411.05L875.63,411L875.64,410.97L877.19,411.06L877.2,411L877.21,410.97L879.12,411.05L879.13,411L879.14,410.98L882.75,411L882.76,410.94L884,411.06L884.02,410.99L884.04,410.99L885.7,411.03L885.71,410.98L887.64,411.03L887.65,410.98L887.67,410.95L889.43,411.06L889.44,411.03L889.46,410.99L893.07,410.99L893.09,410.93L894.3,411L894.31,410.95L894.32,410.93L896.01,411.02L896.02,411L896.04,410.95L897.8,410.99L897.81,410.94L897.83,410.91L899.24,411.09L899.25,411.06L899.27,411.01L901.47,411.03L901.48,410.98L901.49,410.95L903.08,411L903.09,410.94L905.58,410.95L905.59,410.92L906.9,411.04L906.93,410.96L906.94,410.96L918.09,410.96L918.1,411L919.65,410.92L919.66,410.98L921.15,410.91L921.17,410.97L921.18,410.99L922.52,410.89L922.55,410.97L922.56,410.98L926.98,411.01" style="vector-effect: non-scaling-stroke; fill: none; stroke: rgb(117, 13, 134); stroke-opacity: 1; stroke-width: 2px; opacity: 1;"/></g><g class="points"/><g class="text"/></g><g class="trace scatter traceb5d844" style="stroke-miterlimit: 2; opacity: 1;"><g class="fills"/><g class="errorbars"/><g class="lines"><path class="js-line" d="M0,412.41L0.76,426.32L0.78,426.32L4.44,426.53L4.46,426.53L926.98,426.39L926.98,426.38" style="vector-effect: non-scaling-stroke; fill: none; stroke: rgb(0, 160, 139); stroke-opacity: 1; stroke-width: 2px; opacity: 1;"/></g><g class="points"/><g class="text"/></g><g class="trace scatter tracee55d94" style="stroke-miterlimit: 2; opacity: 1;"><g class="fills"/><g class="errorbars"/><g class="lines"><path class="js-line" d="M0,314.62L0.05,341.99L0.75,323.95L0.76,323.79L1.75,317.35L1.8,317.4L1.82,317.21L3.3,313.6L3.31,313.99L4.09,312.5L4.11,312.83L4.85,311.33L4.93,311.51L4.94,311.83L5.15,311.86L5.7,310.84L5.74,310.99L5.76,311.05L6.5,310.19L6.55,310.3L6.57,310.57L6.8,310.62L6.99,309.8L7.35,309.92L7.36,310.18L7.48,310.29L8.14,309.39L8.15,309.61L8.45,309.73L8.52,308.94L8.9,309.59L8.91,309.7L8.94,309.74L9.68,308.79L9.69,309.24L9.89,309.44L10.21,308.7L10.45,309.02L10.47,309.06L11.32,308.34L11.33,308.77L11.39,308.99L11.65,308.31L12.08,308.63L12.09,308.79L12.28,308.89L12.42,308.18L12.85,308.49L12.86,308.81L13.11,307.93L13.63,308.17L13.65,308.38L13.75,307.84L14.12,308.66L14.39,308.04L14.41,308.5L14.73,307.59L15.18,307.8L15.19,308.13L15.22,307.7L15.24,308.38L15.93,308.04L15.94,308.28L16.34,307.74L16.4,308.35L16.7,307.85L16.71,308.13L16.81,308.28L17.43,307.64L17.47,307.87L17.48,308.18L17.69,307.74L17.72,308.3L18.23,308.07L18.24,308.08L18.28,308.3L18.37,307.56L18.98,307.96L18.99,308.29L19.15,308.43L19.57,307.65L19.76,307.8L19.78,308.07L20.15,308.35L20.3,307.61L20.54,307.85L20.55,308.19L20.95,308.35L21.1,307.72L21.3,308L21.31,308.19L21.53,307.9L21.82,308.61L22.04,308.03L22.05,308.52L22.2,308.56L22.79,307.82L22.81,307.88L22.83,308.21L22.96,307.77L23.33,308.8L23.57,308.43L23.59,308.39L23.9,308.72L24.24,308.04L24.36,308.38L24.37,308.63L24.75,308.69L25.11,307.9L25.13,308.45L25.14,308.41L25.78,307.91L25.87,308.68L25.88,308.34L25.89,308.76L26.24,307.98L26.64,308.4L26.65,308.51L26.84,308.94L27.08,307.99L27.4,308.47L27.41,308.59L27.6,308.2L27.94,308.93L28.16,308.7L28.17,308.55L28.39,308.24L28.9,309.1L28.93,308.86L28.94,308.56L28.96,308.29L29.38,309.29L29.65,308.91L29.66,309.21L29.88,308.66L29.96,309.44L30.42,308.93L30.44,308.93L30.93,308.5L30.96,309.17L31.2,308.94L31.21,309.04L31.25,308.72L31.69,309.64L31.94,308.93L31.96,309.26L31.98,308.65L32.26,309.41L32.7,309.29L32.72,309.3L33.33,309.55L33.45,309.39L33.46,308.83L33.98,310.07L34.22,309.54L34.23,309L34.39,308.9L34.79,309.92L34.99,309.51L35.01,309.44L35.24,309.31L35.72,310.1L35.77,309.73L35.78,309.63L36.14,309.48L36.49,310.47L36.54,310.12L36.55,309.95L36.85,309.61L36.99,310.42L37.3,310.29L37.31,309.97L37.35,309.66L37.63,310.65L38.06,310.3L38.07,310.12L38.2,310.34L38.38,309.88L38.72,310.32L38.73,310.48L38.75,310.04L39.47,310.85L39.49,310.52L39.75,310.12L40.22,311.04L40.23,310.71L40.25,310.42L40.27,310.98L40.36,310.34L40.99,310.77L41.01,310.56L41.29,310.46L41.51,311.24L41.77,310.98L41.78,311.02L42.06,311.64L42.17,310.45L42.53,310.85L42.54,311.3L42.78,311.53L43.11,310.77L43.27,311.18L43.29,311.44L43.35,310.91L43.97,311.79L44.05,311.03L44.06,311.41L44.28,311.69L44.39,311.16L44.73,311.68L44.74,311.79L45.18,311.26L45.19,311.9L45.47,311.62L45.49,311.83L45.54,311.53L46.09,312.27L46.23,312.03L46.25,311.69L46.43,311.58L46.99,312.31L47.01,312.28L47.02,312.25L47.12,312.46L47.2,311.78L47.78,312.07L47.79,312.4L48,311.96L48.06,312.69L48.44,312.33L48.45,312.76L48.64,312.04L49.09,312.84L49.21,312.35L49.22,312.66L49.56,312.42L49.68,313.1L49.95,312.82L49.97,312.89L50.14,312.7L50.55,313.29L50.71,312.87L50.73,313.01L50.92,312.33L51.35,313.57L51.47,313.19L51.49,313.34L51.78,313.7L51.85,312.99L52.25,313.6L52.26,313.56L52.31,313.3L52.56,313.91L53.03,313.77L53.04,313.45L53.82,314.14L53.83,313.44L54.17,314.31L54.58,314.23L54.59,313.97L54.74,313.92L55.34,314.58L55.35,314.4L55.36,314.24L55.54,314.12L56.16,314.9L56.17,314.7L56.26,314.43L56.83,314.96L56.92,314.83L56.93,314.51L57.69,315.31L57.71,315.04L57.72,314.79L57.9,314.7L58.43,315.41L58.48,315.31L58.49,315.18L58.54,315.05L59.21,315.7L59.28,315.51L59.29,315.22L59.73,316.06L60.05,315.8L60.06,315.71L60.16,315.56L60.78,316.16L60.89,315.89L60.9,315.71L61.23,315.66L61.61,316.28L61.65,316.03L61.66,316.05L62.04,316.67L62.08,316.02L62.41,316.58L62.42,316.24L62.59,316.12L63.18,316.88L63.19,316.52L63.23,316.46L63.73,317.14L63.95,316.95L63.96,316.97L64.25,317.2L64.28,316.55L64.7,316.9L64.71,317.18L64.84,316.88L65.5,317.63L65.51,317.06L65.84,317.04L66.09,317.87L66.25,317.73L66.27,317.54L66.33,317.15L66.92,317.92L66.99,317.59L67,317.77L67.17,317.62L68.08,318.36L68.1,317.95L68.74,318.52L68.86,318.44L68.87,318.28L68.95,318.07L69.78,318.83L69.81,318.75L69.82,318.61L70,318.52L70.77,319.22L70.79,318.9L71.31,319.53L71.55,319.26L71.56,319.33L71.69,319.08L72.36,319.99L72.59,319.82L72.6,319.61L73.03,319.39L73.09,319.99L73.37,319.79L73.39,319.84L73.71,319.63L74.47,320.71L74.55,320.53L74.56,320.27L74.97,320.02L75.31,320.9L75.32,320.65L75.33,320.51L75.8,320.38L76.04,320.96L76.09,320.87L76.1,320.77L77.61,321.45L77.62,321.26L77.64,321.01L77.69,320.98L78.4,321.67L78.41,321.51L79.26,321.8L79.28,321.72L79.3,321.2L79.82,322.33L80.07,322.17L80.08,321.67L80.74,322.68L80.85,322.44L80.87,322.6L80.92,322.27L81.47,322.86L81.61,322.83L81.63,322.77L81.74,322.86L82.31,322.74L82.32,323.06L82.34,323.15L82.68,322.62L82.93,323.66L83.08,322.91L83.1,323.25L83.39,323.6L83.4,322.96L83.82,323.27L83.83,323.71L83.92,323.24L84.56,323.85L84.61,323.42L84.63,323.75L84.76,323.51L85.37,324.07L85.4,324.03L85.41,323.81L85.63,323.54L86.2,324.57L86.21,324.36L86.22,324.22L86.24,324.69L86.26,324.17L86.98,324.58L87,324.43L87.51,324.36L87.73,324.88L87.78,324.8L87.79,324.54L87.91,324.53L88.46,325.19L88.57,325.01L88.58,325.09L88.66,324.72L89.28,325.58L89.3,325.33L89.31,325.56L89.64,325.12L90.05,325.66L90.06,325.81L90.16,325.45L90.38,325.89L90.81,325.51L90.82,325.84L91.05,326.02L91.09,325.42L91.53,325.79L91.54,326.23L91.9,326.57L92.08,325.91L92.28,326.22L92.29,326.3L92.6,326.55L92.91,326.28L93.03,326.51L93.05,326.65L93.09,326.37L93.58,326.91L93.78,326.68L93.79,326.91L93.91,326.58L94.13,327.1L94.54,326.73L94.55,327.13L94.68,326.75L94.86,327.47L95.29,327.22L95.3,327.49L95.53,327.68L95.56,327.17L96.05,327.41L96.06,327.4L96.73,327.97L96.82,327.75L96.83,327.83L97.33,328.22L97.43,327.77L97.48,328.01L97.49,328.22L97.77,327.86L98.21,328.41L98.24,328.19L98.25,328.39L98.51,328.16L98.87,328.76L98.97,328.62L98.98,328.7L99.5,328.99L99.59,328.46L99.72,328.67L99.73,328.9L99.79,328.63L100.13,329.27L100.48,328.83L100.49,329.26L100.58,328.98L100.89,329.65L101.17,329.35L101.18,329.65L101.39,329.11L101.56,329.81L101.93,329.46L101.94,329.86L101.97,329.38L102.59,330.14L102.67,329.65L102.68,330.14L102.76,329.59L103.28,330.28L103.42,330.23L103.44,330L103.99,330.77L104.22,330.66L104.24,330.5L104.29,330.33L104.82,330.88L104.98,330.77L105,330.61L105.03,330.55L105.74,331.19L105.78,331.08L105.79,330.56L106.57,331.46L106.58,331.26L106.59,331.19L107.35,331.62L107.36,331.41L108.18,331.99L108.19,331.75L108.27,331.59L108.92,332.38L108.99,332.27L109,332.06L109.4,331.89L109.76,332.6L109.77,332.42L109.94,332.69L110.58,332.42L110.63,332.5L110.65,332.72L110.66,332.49L111.37,333L111.39,332.89L111.41,332.93L111.65,332.62L111.9,333.29L112.1,333.11L112.12,333.26L112.17,332.88L112.59,333.62L112.86,333.37L112.88,333.32L113.07,333.08L113.97,333.9L113.98,333.69L114.07,333.66L114.6,334.33L114.77,333.98L114.78,334.04L114.79,333.83L115.44,334.5L115.51,334.33L115.53,334.17L115.63,334.08L116.62,334.74L116.63,334.62L116.71,334.41L117.46,335.08L117.48,335L117.5,334.85L117.91,334.73L118.15,335.62L118.26,335.3L118.27,335.21L118.37,335.04L119.25,335.71L119.31,335.66L119.33,335.47L119.92,335.9L120.09,335.78L120.1,335.78L120.52,335.59L120.74,336.19L120.83,335.8L120.84,336.06L121.01,335.85L121.91,336.54L122.03,336.43L122.04,336.28L122.71,336.89L122.84,336.87L122.85,336.6L123.46,337.21L123.64,337.13L123.65,337.01L123.93,336.86L124.05,337.38L124.41,337.24L124.42,337.14L125.4,337.77L125.43,337.65L125.44,337.33L125.93,338.15L126.21,338.01L126.23,337.88L126.77,337.79L126.86,338.23L127,338.21L127.01,338.05L127.22,337.93L127.53,338.46L127.77,338.43L127.78,338.4L128.54,338.43L128.56,338.76L128.83,338.43L129.24,338.98L129.3,338.7L129.32,338.79L129.36,338.62L130.1,339.25L130.11,339.19L130.13,339.14L130.48,339.05L130.85,339.5L130.89,339.49L130.9,339.27L131.53,339.8L131.69,339.71L131.7,339.66L131.8,339.48L132.56,339.95L132.61,339.8L132.63,339.68L133.4,340.26L133.41,340.07L134.21,340.62L134.22,340.33L134.41,340.27L134.96,340.89L134.99,340.69L135.01,340.87L135.43,340.62L135.56,341.18L135.75,340.97L135.77,340.91L135.82,340.87L136.47,341.44L136.57,341.38L136.58,341.36L136.85,341.13L137.03,341.69L137.29,341.59L137.3,341.61L137.45,341.29L138.02,341.84L138.03,341.77L138.05,341.76L138.21,341.92L138.78,341.55L138.84,341.77L138.86,341.89L138.88,341.65L139.58,342.25L139.59,341.96L139.6,342.05L139.9,341.97L140.32,342.54L140.38,342.35L140.39,342.3L140.87,342.12L141.03,342.66L141.14,342.57L141.15,342.32L141.73,342.96L141.91,342.7L141.92,342.89L142.17,343.2L142.6,342.96L142.62,342.98L142.63,343.21L142.87,342.92L143.16,343.41L143.35,343.29L143.36,343.41L143.59,343.17L143.99,343.72L144.05,343.44L144.06,343.75L144.14,343.42L144.6,343.87L144.81,343.73L144.82,343.9L145.33,343.69L145.55,344.09L145.56,343.95L145.58,343.94L145.62,343.75L145.93,344.21L146.26,344.03L146.27,344.31L146.54,343.9L146.96,344.45L147.01,344.41L147.02,344.48L147.26,344.23L147.43,344.72L147.75,344.62L147.77,344.74L148.49,344.62L148.55,344.8L148.56,344.93L148.76,344.61L149.18,345.15L149.29,345.07L149.3,345.32L149.66,345.41L149.67,344.93L150.05,345.33L150.06,345.31L150.2,345.46L150.75,345.21L150.77,345.61L150.95,345.39L151.41,345.84L151.49,345.73L151.5,345.83L151.64,345.64L152.04,346.04L152.23,345.68L152.25,345.96L152.32,345.7L152.93,346.31L152.97,346.17L152.98,346.24L153.62,346.28L153.68,346.39L153.69,346.55L153.75,346.32L153.84,346.67L154.44,346.42L154.45,346.6L155.21,346.61L155.22,346.8L155.4,346.96L155.72,346.7L155.9,346.93L155.92,347.16L156.02,346.9L156.23,347.33L156.66,347.15L156.68,347.2L157.51,347.23L157.59,347.5L157.6,347.55L158.12,347.37L158.27,347.79L158.32,347.74L158.34,347.79L158.47,347.53L158.86,348.04L159.08,347.8L159.1,347.97L159.26,347.68L159.87,347.94L159.88,348.07L159.89,347.92L160.29,348.34L160.62,348.17L160.63,348.34L161.19,348.56L161.26,348.17L161.36,348.41L161.38,348.56L161.45,348.59L161.47,348.27L162.06,348.53L162.07,348.83L162.39,348.56L162.44,348.92L162.82,348.84L162.83,348.92L162.84,348.65L163.56,349.25L163.58,349.15L163.81,349.26L164.1,348.97L164.32,349.13L164.34,349.19L164.95,349.63L165.16,349.42L165.17,349.32L165.95,349.97L165.97,349.84L165.98,349.81L166.56,349.55L166.8,349.89L166.81,349.91L166.86,349.73L167.47,350.25L167.54,350.16L167.56,350.22L167.67,350.31L168.33,350.25L168.38,350.31L168.39,350.42L169.43,350.39L169.45,350.74L169.59,350.45L169.72,350.86L170.19,350.78L170.21,350.84L170.23,350.61L170.9,351.22L170.94,351.09L170.95,351.11L171.79,351.04L171.8,351.16L171.82,351.27L172.22,351.05L172.47,351.48L172.55,351.3L172.56,351.43L172.81,351.17L173.26,351.68L173.28,351.52L173.3,351.67L173.48,351.35L174.03,351.9L174.04,351.68L174.06,351.78L175.06,352.05L175.09,351.99L175.1,351.85L175.78,352.34L175.87,352.17L175.89,352.06L176.64,352.54L176.66,352.38L176.67,352.31L177.25,352.68L177.43,352.67L177.44,352.72L180.58,353.57L180.61,353.48L180.62,353.25L181.4,353.68L181.41,353.5L181.95,353.93L182.17,353.79L182.18,353.82L182.21,353.62L182.71,354.08L182.9,354.03L182.92,354.06L183.74,353.92L183.79,354.09L183.8,354.21L184.09,354.34L184.31,354.04L184.52,354.16L184.54,354.39L184.56,354.13L184.99,354.59L185.28,354.44L185.3,354.57L189.57,355.54L189.58,355.34L189.6,355.66L189.65,355.68L190.25,355.44L190.37,355.55L190.38,355.58L190.47,355.53L191.18,355.9L191.19,355.82L191.21,355.73L191.82,356.13L191.97,355.98L191.98,356.03L192.87,356.27L192.88,356.26L192.89,356.12L193.02,356.08L193.67,356.54L193.68,356.38L193.69,356.41L194.75,356.66L194.77,356.58L194.79,356.46L195.55,356.92L195.56,356.84L195.57,356.78L195.73,356.63L196.52,357.13L196.58,357.04L196.59,356.9L197.27,357.3L197.35,357.23L197.36,357.17L198.67,357.59L198.69,357.34L199.36,357.74L199.45,357.71L199.46,357.66L200.88,358L200.89,357.8L201.67,358.34L201.69,358.2L203.5,358.56L203.52,358.65L203.86,358.48L204.2,358.82L204.26,358.71L204.27,358.71L205.69,358.86L205.7,359.12L206.5,359.05L206.51,359.08L206.53,359.25L207.82,359.27L207.83,359.48L208.72,359.56L208.74,359.59L208.76,359.63L209.71,359.71L209.72,359.81L209.81,359.87L210.4,359.78L210.44,359.89L210.45,360.04L210.57,359.79L211.15,360.19L211.19,360.16L211.2,360.12L212.41,360.39L212.42,360.38L212.44,360.32L214.03,360.71L214.07,360.62L214.09,360.59L215.15,360.86L215.17,360.76L216.21,361.2L216.26,361.14L216.27,361.03L217.03,361.35L217.06,361.32L217.07,361.18L217.51,361.11L217.82,361.46L217.84,361.44L217.86,361.39L218.84,361.65L218.86,361.61L218.87,361.58L222.03,362.22L222.04,362.03L222.3,361.93L222.83,362.43L222.84,362.37L223.68,362.37L223.69,362.42L223.7,362.47L228.11,363.23L228.12,363.39L228.81,363.22L228.88,363.36L228.89,363.43L230.51,363.67L230.53,363.53L231.31,363.86L231.33,363.76L232.3,364.13L232.36,364.09L232.37,364.03L233.44,364.33L233.45,364.17L233.58,364.13L234.09,364.56L234.23,364.47L234.25,364.35L235.32,364.55L235.33,364.47L235.34,364.45L236.49,364.88L236.58,364.74L236.59,364.62L237.31,365.02L237.35,364.99L237.36,364.91L238.61,365.14L238.63,365.11L239.86,365.29L239.87,365.41L239.95,365.46L240.66,365.41L240.67,365.55L241.87,365.58L241.88,365.69L243.13,365.82L243.14,366.02L243.2,365.76L243.65,366.17L243.89,365.97L243.9,366L245.44,366.19L245.45,366.38L245.63,366.2L246.18,366.51L246.2,366.41L246.21,366.39L247.42,366.59L247.43,366.43L248.2,366.77L248.22,366.76L249.07,366.75L249.08,366.87L250.24,366.98L250.25,367.03L250.26,367.1L251.42,367.18L251.44,367.28L251.53,367.37L251.72,367.13L252.18,367.42L252.2,367.39L257.14,368.07L257.15,367.96L257.91,368.29L257.96,368.27L257.98,368.09L258.5,368.43L258.74,368.29L258.75,368.23L259.84,368.56L259.86,368.42L260.49,368.81L260.63,368.68L260.64,368.64L261.66,368.88L261.68,368.77L261.7,368.67L262.55,368.99L262.59,368.96L262.6,368.92L263.71,369.1L263.72,368.98L264.48,369.28L264.5,369.26L264.52,369.24L265.52,369.33L265.53,369.4L265.55,369.5L266.94,369.55L266.95,369.75L267.14,369.52L267.25,369.8L267.7,369.68L267.71,369.75L268.87,369.88L268.88,369.96L269.85,370L269.86,370.08L270.94,370.15L270.95,370.17L270.97,370.23L275.94,370.9L275.95,370.83L277.17,371.07L277.19,371.01L278.49,371.25L278.5,371.19L281.38,371.64L281.4,371.56L283.28,371.95L283.29,371.9L284.18,372.14L284.25,372.04L284.27,371.92L284.37,372.18L285.01,372.09L285.03,372.09L289.66,372.76L289.67,372.61L290.6,372.92L290.61,372.81L291.43,373.06L291.44,372.92L292.64,373.23L292.7,373.15L292.71,373.11L297.52,373.76L297.53,373.86L297.66,373.91L297.75,373.66L298.28,373.76L298.29,373.9L299.4,373.88L299.43,373.93L299.45,373.97L300.27,374.16L300.28,374.09L305.06,374.65L305.07,374.79L305.94,374.73L305.99,374.77L306,374.86L308.05,374.99L308.06,375.12L309.22,375.14L309.26,375.22L309.27,375.27L312.26,375.55L312.27,375.61L313.75,375.68L313.76,375.83L313.85,375.64L314.51,375.8L314.52,375.83L325.52,377.05L325.53,377.18L326.56,377.18L326.57,377.25L329.3,377.5L329.32,377.61L330.45,377.63L330.46,377.72L330.48,377.75L331.44,377.74L331.45,377.76L331.47,377.79L338.34,378.53L338.35,378.45L338.37,378.43L340.07,378.71L340.08,378.6L341.14,378.78L341.15,378.77L343.69,379.05L343.7,378.97L345.71,379.25L345.72,379.17L347.75,379.51L347.78,379.45L347.79,379.39L348.72,379.59L348.73,379.58L356.42,380.3L356.43,380.25L357.4,380.43L357.41,380.35L373.62,381.86L373.63,381.83L374.91,382.06L374.95,381.99L374.96,381.97L376.27,382.16L376.28,382.13L376.3,382.11L378.64,382.38L378.65,382.3L382.34,382.63L382.35,382.54L383.55,382.79L383.57,382.73L383.58,382.69L384.91,382.86L384.92,382.84L384.94,382.84L397.67,383.88L397.68,383.82L400,384.06L400.01,384L406.57,384.57L406.58,384.52L408.82,384.73L408.83,384.64L410.08,384.85L410.09,384.77L411.09,384.92L411.1,384.88L411.11,384.86L413.74,385.11L413.75,385.08L413.76,385.03L417.59,385.37L417.6,385.33L419.29,385.57L419.3,385.5L419.31,385.48L421.54,385.7L421.55,385.62L433.27,386.48L433.28,386.44L434.7,386.6L434.71,386.59L437.25,386.77L437.26,386.74L439.2,386.92L439.22,386.89L442.1,387.11L442.11,387.06L447.23,387.42L447.24,387.35L448.71,387.58L448.72,387.56L448.73,387.56L525.31,391.69L525.33,391.66L533.98,392.12L533.99,392.06L536.57,392.24L536.58,392.22L539.32,392.36L539.33,392.35L542.75,392.45L542.76,392.43L548.68,392.74L548.69,392.79L551.35,392.83L551.36,392.86L558.22,393.11L558.23,393.17L560.78,393.19L560.8,393.23L562.57,393.27L562.59,393.29L584.16,394.04L584.18,394.01L585.67,394.13L585.68,394.09L585.7,394.07L590.18,394.29L590.19,394.21L591.41,394.34L591.43,394.32L610.24,394.91L610.25,394.85L611.65,394.99L611.67,394.99L618.71,395.19L618.72,395.18L620.46,395.27L620.47,395.23L620.48,395.22L624.54,395.34L624.55,395.31L628.08,395.46L628.09,395.45L632.52,395.61L632.54,395.62L648.45,395.99L648.46,395.95L650.02,396.06L650.03,396.03L652.16,396.15L652.17,396.12L658.43,396.23L658.44,396.18L659.81,396.31L659.82,396.29L664.45,396.41L664.47,396.44L667.09,396.48L667.11,396.52L669.38,396.52L669.4,396.55L685.53,396.9L685.54,396.88L689.92,397L689.93,396.93L690.99,397.09L691.01,397.05L691.03,397.04L692.93,397.03L692.95,396.99L694.44,397.09L694.45,397.07L694.46,397.03L695.98,397.08L696,397.07L697.84,397.16L697.85,397.15L701.4,397.23L701.42,397.25L703.43,397.24L703.44,397.26L711.36,397.43L711.37,397.44L714.56,397.51L714.58,397.52L716.51,397.49L716.52,397.54L719.21,397.58L719.22,397.6L721.94,397.65L721.95,397.67L730.58,397.77L730.59,397.81L732.15,397.73L732.16,397.75L732.18,397.77L737,397.88L737.02,397.88L740.6,397.9L740.61,397.94L748.81,398.03L748.82,398.07L750.19,398.04L750.2,398.06L755.31,398.11L755.32,398.13L768.2,398.35L768.21,398.29L769.6,398.32L769.62,398.3L771.56,398.36L771.57,398.31L772.99,398.37L773,398.35L773.01,398.32L774.69,398.49L774.7,398.47L777.7,398.47L777.71,398.5L780.96,398.55L780.97,398.56L785.76,398.64L785.77,398.66L787.01,398.6L787.02,398.64L790.9,398.69L790.91,398.62L795.17,398.73L795.19,398.72L807.73,398.79L807.74,398.78L810.73,398.9L810.74,398.86L810.75,398.83L812.03,398.89L812.04,398.84L814.36,398.87L814.37,398.8L815.53,398.94L815.55,398.88L815.57,398.83L817.81,398.95L817.82,398.94L819.73,398.98L819.74,399.01L823.24,399.04L823.25,399.08L825.96,398.99L825.97,399.03L838.36,399.16L838.37,399.11L839.96,399.24L839.98,399.2L841.56,399.12L841.57,399.15L841.59,399.15L844.5,399.17L844.51,399.15L846.29,399.25L846.3,399.23L846.31,399.21L847.86,399.22L847.87,399.15L854.15,399.33L854.17,399.28L856.57,399.34L856.59,399.29L864.7,399.43L864.71,399.49L875.06,399.5L875.08,399.42L876.13,399.48L876.14,399.44L878.95,399.51L878.96,399.46L878.98,399.43L880.55,399.5L880.56,399.46L882.03,399.59L882.04,399.52L892.47,399.56L892.48,399.5L893.63,399.61L893.64,399.59L905.23,399.69L905.24,399.63L906.21,399.73L906.22,399.66L910.2,399.83L910.21,399.77L910.22,399.73L914.14,399.89L914.15,399.89L915.05,399.69L915.08,399.76L915.09,399.78L918.76,399.84L918.77,399.86L923.76,399.87L923.77,399.89L926.98,399.82" style="vector-effect: non-scaling-stroke; fill: none; stroke: rgb(178, 130, 141); stroke-opacity: 1; stroke-width: 2px; opacity: 1;"/></g><g class="points"/><g class="text"/></g><g class="trace scatter trace6c9ca5" style="stroke-miterlimit: 2; opacity: 1;"><g class="fills"/><g class="errorbars"/><g class="lines"><path class="js-line" d="M0,360.58L0.22,393.91L0.77,393.03L0.79,393.02L2.92,391.45L2.94,391.46L8.07,390L8.09,390.01L17.84,388.74L17.86,388.77L21.87,388.7L21.89,388.73L27.32,388.75L27.33,388.78L29.63,388.76L29.64,388.81L32.9,388.92L32.91,388.93L36.2,389L36.22,389.02L49.71,388.72L49.72,388.74L55.8,388.8L55.81,388.75L65.77,389.3L65.78,389.27L67.75,388.98L67.76,388.99L79.77,389.05L79.79,389.02L86.2,389.33L86.21,389.35L89.06,389.55L89.07,389.59L92.37,389.65L92.38,389.66L95.26,389.88L95.27,389.81L96.12,389.34L96.14,389.37L124.89,390.04L124.9,390.07L126.72,389.93L126.73,389.9L126.74,389.87L132.52,390.21L132.54,390.25L134.51,390.5L134.52,390.5L135.84,390.79L136,390.22L136.01,390.2L136.9,390.04L136.91,390.06L136.93,390.05L138.35,389.59L138.37,389.61L142.42,389.95L142.44,389.89L146.96,390.65L147.05,390.15L147.06,390.11L148.1,389.83L148.11,389.83L156.11,390.34L156.12,390.26L156.14,390.22L156.96,390.21L156.97,390.23L156.98,390.22L161.4,390.62L161.41,390.65L162.47,390.03L162.48,390.05L162.5,390.06L164.57,390.53L164.58,390.54L166.96,390.25L166.98,390.21L169.04,390.3L169.05,390.32L180.8,391.57L180.82,391.6L187.01,390.91L187.02,390.95L194.13,391.72L194.18,391.27L194.19,391.17L194.79,390.71L195.04,390.84L195.06,390.82L198.08,391.45L198.09,391.41L199.86,391.64L199.87,391.63L201.36,391.17L201.38,391.17L203.66,391.04L203.67,390.99L205.55,390.72L205.56,390.76L213.12,391.38L213.13,391.41L215.18,391.78L215.19,391.79L218.35,391.43L218.36,391.39L220.42,390.92L220.43,390.88L220.91,390.7L221.23,390.81L221.24,390.84L225.88,391.91L225.89,391.89L228.54,392.13L228.56,392.1L229.41,391.74L229.43,391.69L229.45,391.68L230.62,390.84L230.63,390.86L232.47,391.13L232.48,391.14L233.44,391.26L233.5,390.76L233.51,390.69L234.31,390.41L234.32,390.46L235.65,390.35L235.66,390.38L244.37,390.97L244.38,390.91L245.69,391.12L245.71,391.13L247.61,391.61L247.62,391.64L250.01,391.45L250.02,391.35L253.15,390.92L253.16,390.94L255.61,391.09L255.62,390.85L256.7,390.66L256.71,390.67L262.48,391.43L262.5,391.46L264.57,391.85L264.59,391.71L264.61,391.66L265.56,389.55L265.64,389.57L265.65,389.59L272.28,388.97L272.29,388.92L273.13,389.18L273.14,389.2L273.16,389.21L276.4,390.13L276.41,390.18L279.31,390.74L279.34,390.67L279.35,390.66L280.4,390.77L280.44,390.48L280.46,390.33L281.23,390.07L281.25,390.1L281.27,390.11L290.6,391.44L290.61,391.38L293.88,390.55L293.9,390.48L294.94,389.74L294.98,389.77L294.99,389.79L296.9,390.05L296.91,390.03L298.85,390.16L298.87,390.14L301.37,389.92L301.38,389.86L301.39,389.83L302.37,388.91L302.4,388.92L302.41,388.95L306.63,389.8L306.71,389.25L306.72,389.16L312.04,390.8L312.05,390.75L313.48,390.55L313.49,390.59L316.15,390.19L316.16,390.14L317.1,390.04L317.11,390.08L317.12,390.08L318.68,390.33L318.69,389.73L318.78,389.17L319.45,389.52L319.47,389.51L323.37,390.91L323.38,390.89L323.39,390.83L324.21,390.75L324.24,390.78L324.26,390.81L327.62,391.88L327.64,391.22L327.66,390.9L327.68,390.47L328.4,390.82L328.42,390.79L330.99,391.2L331,391.12L331.02,391.11L334.35,392.14L334.38,392.02L334.39,391.98L335.21,392.02L335.23,392.05L337.99,392.18L338.01,392.04L338.02,392L338.34,391.37L338.88,391.6L338.9,391.62L339.75,391.27L339.78,391.2L339.8,391.12L340.75,390.55L340.76,390.58L343.18,390.86L343.2,390.82L345.18,390.89L345.19,390.86L347.1,390.7L347.11,390.72L347.12,390.74L347.77,390.49L347.78,390.23L347.79,390.07L348.29,389.36L348.59,389.45L348.6,389.47L351.73,390.62L351.74,390.66L354.28,391.38L354.29,391.34L354.31,391.29L356.37,391.72L356.42,391.41L356.43,391.29L356.59,391L357.2,391.15L357.22,391.18L360.15,391L360.17,390.97L361.08,390.72L361.09,390.74L361.11,390.73L362.21,389.41L362.23,389.44L367.44,390.61L367.45,390.5L367.47,390.4L367.58,389.97L368.24,390.26L368.25,390.31L370.59,391.19L370.61,391.22L374.83,392.24L374.84,392.26L378.05,391.5L378.06,391.46L379.03,389.14L379.23,389.2L379.25,389.21L382.17,390.14L382.21,389.99L382.22,389.91L383.17,389.24L383.19,389.27L391.91,390.93L391.93,390.88L392.24,390.83L392.26,390.3L392.28,390.09L392.35,389.17L393.06,389.27L393.07,389.28L394.85,389.56L394.86,389.58L404.8,392.14L404.83,391.96L404.84,391.84L405.97,389.64L406,389.66L406.01,389.67L410.11,390.72L410.12,390.62L413.3,391.43L413.31,391.36L414.18,391.53L414.2,391.57L414.21,391.62L416.93,391.62L416.94,391.54L417.54,391.16L417.74,391.27L417.76,391.27L418.8,391.36L418.81,391.25L418.82,390.82L418.91,389.61L419.63,389.78L419.65,389.8L424.31,389.95L424.32,389.99L429.07,390.11L429.09,390.13L431.47,390.86L431.48,390.89L434.21,391.15L434.22,391.07L434.24,390.67L434.42,389.36L435.05,389.49L435.06,389.51L436.57,389.51L436.58,389.51L446.52,392.2L446.53,392.23L448.26,391.92L448.27,391.88L450.83,391.8L450.84,391.82L451.73,390.05L451.81,390.07L451.82,390.06L453.5,389.81L453.51,389.82L455.65,390.05L455.66,390.05L456.1,389.96L456.28,389.54L456.29,389.47L456.59,389L457.1,389.22L457.11,389.22L465.77,391.24L465.78,391.15L466.1,389.46L466.56,389.6L466.58,389.59L468.52,389.9L468.56,389.8L468.57,389.73L469.76,389.68L469.77,389.71L469.78,389.76L472.09,390.15L472.1,390.19L473.39,389.53L473.4,389.51L475.05,389.76L475.06,389.78L476.12,389.81L476.13,389.85L477.24,390.02L477.25,390.04L477.26,390.07L479.54,390.64L479.56,390.68L481.19,391.01L481.22,390.56L481.23,390.34L481.33,389.19L482.03,389.46L482.04,389.44L490.32,391.14L490.33,391.07L492.47,391.4L492.49,391.35L492.51,391.3L493.23,390.62L493.24,390.58L493.55,389.98L494.05,390.12L494.07,390.11L495.64,390.54L495.66,390.02L495.67,389.85L495.83,388.89L496.47,389.09L496.49,389.13L497.91,388.63L497.93,388.59L499.92,388.22L499.94,388.23L503.48,389.31L503.49,389.34L506.8,390.27L506.81,390.08L506.82,390.06L513.48,390.21L513.49,390.01L513.67,388.87L514.34,389.04L514.36,388.99L516.61,389.33L516.62,389.28L526.68,390.83L526.69,390.76L526.7,390.74L529.48,391.17L529.5,391.14L530.44,390.77L530.45,390.73L531.84,390.91L531.85,390.7L531.87,390.49L532.03,389.01L532.69,389.12L532.7,389.16L533.86,388.56L533.87,388.52L534.63,387.79L534.78,387.85L534.79,387.89L541.11,389.66L541.12,389.65L542.89,390.16L542.9,390.2L543.99,390.26L544.01,390.28L547.59,390.18L547.6,390.14L548.49,389.72L548.51,389.74L548.53,389.74L549.84,389.8L549.87,389.29L549.88,389.12L550.21,387.78L550.69,387.94L550.7,387.95L555.7,389.1L555.72,389.04L555.74,389L557.17,389.38L557.18,389.41L560.5,390.1L560.51,390.14L563.53,391.01L563.54,390.98L565.01,390.92L565.02,390.96L567.48,391.45L567.49,391.5L569.26,391.88L569.29,391.34L569.31,391.24L570.13,389.81L570.18,389.85L570.2,389.84L571.41,389.54L571.42,389.47L572.49,389.35L572.5,389.38L573.3,389.05L573.31,389.06L575.25,388.75L575.27,388.75L576.09,387.97L576.3,388.06L576.31,388.08L582.07,389.14L582.08,389.09L587.8,389.98L587.83,389.28L587.85,389.21L588.37,388.09L588.7,388.15L588.71,388.17L595.6,390.12L595.66,389.86L595.67,389.67L596.69,388.9L596.7,388.94L597.82,388.58L597.84,388.62L603.36,389.72L603.37,389.69L605.41,390.36L605.42,390.32L606.79,390.63L606.82,390.16L606.84,390.05L607.57,388.77L607.71,388.84L607.73,388.84L613.58,390.51L613.6,390.51L615.61,390.58L615.62,390.52L619.91,390.56L619.92,390.54L621.22,388.91L621.23,388.93L622.6,389.05L622.61,389.11L624.26,389.47L624.27,389.49L625.42,388.83L625.43,388.63L625.51,387.17L626.23,387.36L626.24,387.37L628.09,387.55L628.11,387.51L629.94,387.61L629.95,387.59L632.78,388.21L632.79,388.18L632.81,388.12L636.82,389.1L636.84,389.03L644.12,390.28L644.14,390.29L645.96,389.58L645.98,389.62L652.62,390.8L652.65,390.39L652.66,390.09L653.47,388.22L653.48,388.23L657.62,388.69L657.63,388.72L659.96,389.59L659.97,389.57L661.53,389.46L661.54,389.44L664.07,390.19L664.08,390.16L665.96,389.78L665.97,389.76L666.89,388.79L667.08,388.9L667.09,388.89L668.32,389.24L668.46,388.97L668.47,388.92L669.81,388.28L669.82,388.31L679.07,389.72L679.14,389.03L679.16,388.99L679.26,387.96L679.98,388.16L679.99,388.16L682.61,388.26L682.62,388.24L686.53,388.46L686.55,388.48L689.84,389.2L689.86,389.23L694.12,389.88L694.13,389.85L695.51,389.79L695.52,389.84L696.99,389.96L697,389.99L701.64,391.08L701.65,390.99L701.66,390.65L701.74,388.23L702.47,388.35L702.49,388.35L703.75,388.46L703.76,388.42L703.94,388.23L704.52,388.39L704.53,388.38L708.77,388.67L708.78,388.72L713.29,389.23L713.3,389.17L714.25,388.7L714.28,388.72L714.29,388.74L716.06,389.08L716.07,389.05L718.91,389.71L718.93,389.63L720.03,388.9L720.05,388.93L721.3,388.74L721.31,388.74L730.1,389.85L730.12,389.78L731.11,389.42L731.12,389.29L731.27,388.17L731.96,388.48L731.97,388.5L734.06,388.68L734.07,388.65L736.36,389.13L736.37,389.11L736.39,389.12L740.35,389.75L740.36,389.7L745.42,390.01L745.44,389.97L747.32,390.34L747.33,390.36L748.14,390.52L748.15,390.54L748.17,390.54L752.35,391.52L752.36,391.58L752.78,390.85L752.79,390.61L752.85,388.95L753.59,389.13L753.6,389.11L755.43,388.69L755.44,388.66L756.52,387.27L756.55,387.28L756.56,387.31L759.07,387.34L759.08,387.31L759.99,387.48L760,387.46L760.01,387.39L763.5,387.64L763.51,387.68L772.18,389.01L772.19,388.89L774.75,388.96L774.77,388.91L778.13,389.86L778.14,389.89L780.42,390.43L780.47,390.33L780.48,390.3L781.09,390.25L781.29,390.35L781.31,390.39L782.92,390.1L782.93,390.05L782.94,390.04L783.83,389.99L783.84,390.02L784.67,390.13L784.71,389.54L784.72,389.42L785.01,388.3L785.59,388.51L785.61,388.52L791.79,389.65L791.8,389.7L793.28,390.06L793.29,390.13L795.43,390.76L795.47,390.67L795.48,390.61L798.98,391.35L799,391.32L799.51,390.57L799.52,390.51L800.35,389.5L800.41,389.54L800.43,389.52L803.03,389.43L803.04,389.47L805.27,389.62L805.28,389.63L806.41,389.95L806.46,389.57L806.48,389.41L806.66,388.01L807.35,388.22L807.37,388.23L814.5,388.77L814.51,388.81L817.74,389.35L817.76,389.35L819.03,389.59L819.04,389.62L822.12,389.45L822.13,389.4L824.51,389.65L824.53,389.69L827.93,390.43L827.99,389.83L828,389.71L828.4,388.59L828.87,388.79L828.88,388.82L830.04,389.07L830.05,389.11L835.23,390.12L835.24,390.13L841.16,391.12L841.18,391.03L842.05,390.87L842.06,390.9L842.85,390.91L842.86,390.95L842.87,390.95L843.49,390.39L843.51,390.33L844.5,389.86L844.51,389.91L848.32,390.08L848.33,389.94L849.56,389.18L849.57,389.22L850.64,388.36L850.65,388.29L851.08,387.29L851.51,387.4L851.53,387.38L853.21,387.62L853.23,387.53L861.25,388.97L861.26,389.03L868.15,391.08L868.16,391.07L871.2,391.95L871.21,391.95L872.32,391.67L872.33,391.62L873.84,391.84L873.89,391.3L873.9,391.22L874.78,390.09L874.82,390.13L874.83,390.13L878.98,389.26L878.99,389.27L881.02,389.26L881.04,389.22L884.73,390.05L884.74,389.9L887.72,390.43L887.73,390.46L890.27,390.8L890.32,390.64L890.33,390.61L891.36,389.67L891.37,389.71L894.74,390.15L894.75,389.8L894.76,389.65L895.62,388.36L895.66,388.41L895.68,388.38L902.43,389.44L902.45,389.44L904.93,389.69L904.95,389.64L906.91,388.78L906.93,388.82L910.22,389.18L910.24,389.21L912.77,390.24L912.79,390.22L915.66,390.83L915.67,390.86L916.73,391.02L916.74,391.06L916.97,390.3L916.98,390.25L917.47,389.15L917.86,389.26L917.87,389.28L921.43,389.65L921.44,389.62L922.94,389.99L922.96,389.99L925.42,390.35L925.43,390.31L926.98,390.79" style="vector-effect: non-scaling-stroke; fill: none; stroke: rgb(119, 138, 174); stroke-opacity: 1; stroke-width: 2px; opacity: 1;"/></g><g class="points"/><g class="text"/></g><g class="trace scatter trace362dd3" style="stroke-miterlimit: 2; opacity: 1;"><g class="fills"/><g class="errorbars"/><g class="lines"><path class="js-line" d="M0,405.67L0.57,414.86L0.77,414.81L0.79,414.8L6.15,413.45L6.17,413.45L13.33,412.77L13.34,412.78L35.14,412.07L35.15,412.07L51.15,411.88L51.17,411.88L926.98,411.78" style="vector-effect: non-scaling-stroke; fill: none; stroke: rgb(119, 138, 174); stroke-opacity: 1; stroke-width: 2px; opacity: 1;"/></g><g class="points"/><g class="text"/></g><g class="trace scatter trace351072" style="stroke-miterlimit: 2; opacity: 1;"><g class="fills"/><g class="errorbars"/><g class="lines"><path class="js-line" d="M0,417.32L0.73,420.94L0.79,420.92L0.8,420.94L3.79,421.48L3.8,421.42L5.94,421.5L5.95,421.47L10.85,421.41L10.87,421.38L20.16,421.29L20.18,421.26L24.04,421.28L24.05,421.26L30.1,421.32L30.11,421.3L36.47,421.41L36.49,421.38L40.85,421.5L40.87,421.49L57.42,421.85L57.44,421.84L73.72,422.19L73.74,422.19L88.99,422.47L89,422.47L95.49,422.58L95.51,422.58L111.72,422.85L111.73,422.84L118.15,422.94L118.17,422.94L132.19,423.14L132.2,423.13L145.78,423.29L145.8,423.28L152.12,423.37L152.13,423.36L166.33,423.51L166.34,423.5L172.38,423.56L172.4,423.55L185.22,423.66L185.23,423.65L382.19,424.4L382.21,424.41L393.28,424.42L393.29,424.43L404.98,424.45L405,424.45L926.98,424.89" style="vector-effect: non-scaling-stroke; fill: none; stroke: rgb(108, 124, 50); stroke-opacity: 1; stroke-width: 2px; opacity: 1;"/></g><g class="points"/><g class="text"/></g><g class="trace scatter tracef6a502" style="stroke-miterlimit: 2; opacity: 1;"><g class="fills"/><g class="errorbars"/><g class="lines"><path class="js-line" d="M0,420.04L1.09,420.88L1.11,420.88L63.53,421.33L63.54,421.34L74.28,421.45L74.29,421.46L85.19,421.57L85.21,421.57L157.04,422.32L157.05,422.33L166.96,422.41L166.98,422.42L177.21,422.48L177.22,422.49L303.89,423.23L303.9,423.24L926.98,423.57" style="vector-effect: non-scaling-stroke; fill: none; stroke: rgb(119, 138, 174); stroke-opacity: 1; stroke-width: 2px; opacity: 1;"/></g><g class="points"/><g class="text"/></g><g class="trace scatter trace9745d3" style="stroke-miterlimit: 2; opacity: 1;"><g class="fills"/><g class="errorbars"/><g class="lines"><path class="js-line" d="M0,420.13L0.77,423.21L0.79,423.21L4.67,423.47L4.69,423.47L94.67,424.22L94.68,424.23L105.9,424.28L105.91,424.28L396.64,425.03L396.65,425.04L926.99,424.87" style="vector-effect: non-scaling-stroke; fill: none; stroke: rgb(119, 138, 174); stroke-opacity: 1; stroke-width: 2px; opacity: 1;"/></g><g class="points"/><g class="text"/></g><g class="trace scatter trace350a3e" style="stroke-miterlimit: 2; opacity: 1;"><g class="fills"/><g class="errorbars"/><g class="lines"><path class="js-line" d="M0,422.46L0.99,424.17L1,424.17L6.57,424.52L6.58,424.52L53.77,425.27L53.78,425.28L240.6,426.03L240.61,426.04L251.73,426.05L251.74,426.05L926.98,426.34" style="vector-effect: non-scaling-stroke; fill: none; stroke: rgb(134, 42, 22); stroke-opacity: 1; stroke-width: 2px; opacity: 1;"/></g><g class="points"/><g class="text"/></g><g class="trace scatter tracedfab1a" style="stroke-miterlimit: 2; opacity: 1;"><g class="fills"/><g class="errorbars"/><g class="lines"><path class="js-line" d="M0,421.83L0.8,422.73L0.81,422.73L12.89,422.74L12.9,422.74L61.36,423.31L61.37,423.32L926.98,423.08" style="vector-effect: non-scaling-stroke; fill: none; stroke: rgb(134, 42, 22); stroke-opacity: 1; stroke-width: 2px; opacity: 1;"/></g><g class="points"/><g class="text"/></g></g></g><g class="overplot"/><path class="xlines-above crisp" d="M57,438H986" style="fill: none; stroke-width: 2px; stroke: rgb(0, 0, 0); stroke-opacity: 1;"/><path class="ylines-above crisp" d="M58,10V437" style="fill: none; stroke-width: 2px; stroke: rgb(0, 0, 0); stroke-opacity: 1;"/><g class="overlines-above"/><g class="xaxislayer-above"><path class="xtick ticks crisp" d="M0,439v5" transform="translate(59,0)" style="stroke: rgb(68, 68, 68); stroke-opacity: 1; stroke-width: 1px;"/><path class="xtick ticks crisp" d="M0,439v5" transform="translate(213.5,0)" style="stroke: rgb(68, 68, 68); stroke-opacity: 1; stroke-width: 1px;"/><path class="xtick ticks crisp" d="M0,439v5" transform="translate(368,0)" style="stroke: rgb(68, 68, 68); stroke-opacity: 1; stroke-width: 1px;"/><path class="xtick ticks crisp" d="M0,439v5" transform="translate(522.5,0)" style="stroke: rgb(68, 68, 68); stroke-opacity: 1; stroke-width: 1px;"/><path class="xtick ticks crisp" d="M0,439v5" transform="translate(677,0)" style="stroke: rgb(68, 68, 68); stroke-opacity: 1; stroke-width: 1px;"/><path class="xtick ticks crisp" d="M0,439v5" transform="translate(831.5,0)" style="stroke: rgb(68, 68, 68); stroke-opacity: 1; stroke-width: 1px;"/><path class="xtick ticks crisp" d="M0,439v5" transform="translate(986,0)" style="stroke: rgb(68, 68, 68); stroke-opacity: 1; stroke-width: 1px;"/><g class="xtick"><text text-anchor="middle" x="0" y="465.6" transform="translate(59,0)" style="font-family: 'Times New Roman', monospace; font-size: 18px; fill: rgb(105, 105, 105); fill-opacity: 1; white-space: pre; opacity: 1;">0</text></g><g class="xtick"><text text-anchor="middle" x="0" y="465.6" style="font-family: 'Times New Roman', monospace; font-size: 18px; fill: rgb(105, 105, 105); fill-opacity: 1; white-space: pre; opacity: 1;" transform="translate(213.5,0)">20</text></g><g class="xtick"><text text-anchor="middle" x="0" y="465.6" style="font-family: 'Times New Roman', monospace; font-size: 18px; fill: rgb(105, 105, 105); fill-opacity: 1; white-space: pre; opacity: 1;" transform="translate(368,0)">40</text></g><g class="xtick"><text text-anchor="middle" x="0" y="465.6" style="font-family: 'Times New Roman', monospace; font-size: 18px; fill: rgb(105, 105, 105); fill-opacity: 1; white-space: pre; opacity: 1;" transform="translate(522.5,0)">60</text></g><g class="xtick"><text text-anchor="middle" x="0" y="465.6" style="font-family: 'Times New Roman', monospace; font-size: 18px; fill: rgb(105, 105, 105); fill-opacity: 1; white-space: pre; opacity: 1;" transform="translate(677,0)">80</text></g><g class="xtick"><text text-anchor="middle" x="0" y="465.6" style="font-family: 'Times New Roman', monospace; font-size: 18px; fill: rgb(105, 105, 105); fill-opacity: 1; white-space: pre; opacity: 1;" transform="translate(831.5,0)">100</text></g><g class="xtick"><text text-anchor="middle" x="0" y="465.6" style="font-family: 'Times New Roman', monospace; font-size: 18px; fill: rgb(105, 105, 105); fill-opacity: 1; white-space: pre; opacity: 1;" transform="translate(986,0)">120</text></g></g><g class="yaxislayer-above"><path class="ytick ticks crisp" d="M57,0h-5" transform="translate(0,437)" style="stroke: rgb(68, 68, 68); stroke-opacity: 1; stroke-width: 1px;"/><path class="ytick ticks crisp" d="M57,0h-5" transform="translate(0,351.6)" style="stroke: rgb(68, 68, 68); stroke-opacity: 1; stroke-width: 1px;"/><path class="ytick ticks crisp" d="M57,0h-5" transform="translate(0,266.2)" style="stroke: rgb(68, 68, 68); stroke-opacity: 1; stroke-width: 1px;"/><path class="ytick ticks crisp" d="M57,0h-5" transform="translate(0,180.8)" style="stroke: rgb(68, 68, 68); stroke-opacity: 1; stroke-width: 1px;"/><path class="ytick ticks crisp" d="M57,0h-5" transform="translate(0,95.4)" style="stroke: rgb(68, 68, 68); stroke-opacity: 1; stroke-width: 1px;"/><path class="ytick ticks crisp" d="M57,0h-5" transform="translate(0,10)" style="stroke: rgb(68, 68, 68); stroke-opacity: 1; stroke-width: 1px;"/><g class="ytick"><text text-anchor="end" x="48.4" y="6.3" transform="translate(0,437)" style="font-family: 'Times New Roman', monospace; font-size: 18px; fill: rgb(105, 105, 105); fill-opacity: 1; white-space: pre; opacity: 1;">0</text></g><g class="ytick"><text text-anchor="end" x="48.4" y="6.3" style="font-family: 'Times New Roman', monospace; font-size: 18px; fill: rgb(105, 105, 105); fill-opacity: 1; white-space: pre; opacity: 1;" transform="translate(0,351.6)">5</text></g><g class="ytick"><text text-anchor="end" x="48.4" y="6.3" style="font-family: 'Times New Roman', monospace; font-size: 18px; fill: rgb(105, 105, 105); fill-opacity: 1; white-space: pre; opacity: 1;" transform="translate(0,266.2)">10</text></g><g class="ytick"><text text-anchor="end" x="48.4" y="6.3" style="font-family: 'Times New Roman', monospace; font-size: 18px; fill: rgb(105, 105, 105); fill-opacity: 1; white-space: pre; opacity: 1;" transform="translate(0,180.8)">15</text></g><g class="ytick"><text text-anchor="end" x="48.4" y="6.3" style="font-family: 'Times New Roman', monospace; font-size: 18px; fill: rgb(105, 105, 105); fill-opacity: 1; white-space: pre; opacity: 1;" transform="translate(0,95.4)">20</text></g><g class="ytick"><text text-anchor="end" x="48.4" y="6.3" style="font-family: 'Times New Roman', monospace; font-size: 18px; fill: rgb(105, 105, 105); fill-opacity: 1; white-space: pre; opacity: 1;" transform="translate(0,10)">25</text></g></g><g class="overaxes-above"/></g></g><g class="polarlayer"/><g class="smithlayer"/><g class="ternarylayer"/><g class="geolayer"/><g class="funnelarealayer"/><g class="pielayer"/><g class="iciclelayer"/><g class="treemaplayer"/><g class="sunburstlayer"/><g class="glimages"/><defs id="topdefs-11b76c"><g class="clips"/><clipPath id="legend11b76c"><rect width="242" height="427" x="0" y="0"/></clipPath></defs><g class="layer-above"><g class="imagelayer"/><g class="shapelayer"/></g><g class="infolayer"><g class="legend" pointer-events="all" transform="translate(734.73,14.270000000000003)"><rect class="bg" shape-rendering="crispEdges" width="242" height="427" x="0" y="0" style="stroke: rgb(68, 68, 68); stroke-opacity: 1; fill: rgb(255, 255, 255); fill-opacity: 1; stroke-width: 0px;"/><g class="scrollbox" transform="" clip-path="url(#legend11b76c)"><g class="groups"><g class="traces" transform="translate(0,18.200000000000003)" style="opacity: 1;"><text class="legendtext" text-anchor="start" x="40" y="7.0200000000000005" style="font-family: 'Times New Roman', monospace; font-size: 18px; fill: rgb(105, 105, 105); fill-opacity: 1; white-space: pre;">Co50 Ni0 Fe50 300C 2h_</text><g class="layers" style="opacity: 1;"><g class="legendfill"/><g class="legendlines"><path class="js-line" d="M5,0h30" style="fill: none; stroke: rgb(46, 145, 229); stroke-opacity: 1; stroke-width: 2px;"/></g><g class="legendsymbols"><g class="legendpoints"/></g></g><rect class="legendtoggle" x="0" y="-13.200000000000001" width="236.015625" height="26.400000000000002" style="fill: rgb(0, 0, 0); fill-opacity: 0;"/></g><g class="traces" transform="translate(0,44.6)" style="opacity: 1;"><text class="legendtext" text-anchor="start" x="40" y="7.0200000000000005" style="font-family: 'Times New Roman', monospace; font-size: 18px; fill: rgb(105, 105, 105); fill-opacity: 1; white-space: pre;">Co50 Ni0 Fe50 300C 2h</text><g class="layers" style="opacity: 1;"><g class="legendfill"/><g class="legendlines"><path class="js-line" d="M5,0h30" style="fill: none; stroke: rgb(46, 145, 229); stroke-opacity: 1; stroke-width: 2px;"/></g><g class="legendsymbols"><g class="legendpoints"/></g></g><rect class="legendtoggle" x="0" y="-13.200000000000001" width="236.015625" height="26.400000000000002" style="fill: rgb(0, 0, 0); fill-opacity: 0;"/></g><g class="traces" transform="translate(0,71)" style="opacity: 1;"><text class="legendtext" text-anchor="start" x="40" y="7.0200000000000005" style="font-family: 'Times New Roman', monospace; font-size: 18px; fill: rgb(105, 105, 105); fill-opacity: 1; white-space: pre;">Co0 Ni50 Fe50 400C 2h</text><g class="layers" style="opacity: 1;"><g class="legendfill"/><g class="legendlines"><path class="js-line" d="M5,0h30" style="fill: none; stroke: rgb(225, 95, 153); stroke-opacity: 1; stroke-width: 2px;"/></g><g class="legendsymbols"><g class="legendpoints"/></g></g><rect class="legendtoggle" x="0" y="-13.200000000000001" width="236.015625" height="26.400000000000002" style="fill: rgb(0, 0, 0); fill-opacity: 0;"/></g><g class="traces" transform="translate(0,97.4)" style="opacity: 1;"><text class="legendtext" text-anchor="start" x="40" y="7.0200000000000005" style="font-family: 'Times New Roman', monospace; font-size: 18px; fill: rgb(105, 105, 105); fill-opacity: 1; white-space: pre;">Co33 Ni33 Fe33 800C 2h</text><g class="layers" style="opacity: 1;"><g class="legendfill"/><g class="legendlines"><path class="js-line" d="M5,0h30" style="fill: none; stroke: rgb(251, 13, 13); stroke-opacity: 1; stroke-width: 2px;"/></g><g class="legendsymbols"><g class="legendpoints"/></g></g><rect class="legendtoggle" x="0" y="-13.200000000000001" width="236.015625" height="26.400000000000002" style="fill: rgb(0, 0, 0); fill-opacity: 0;"/></g><g class="traces" transform="translate(0,123.80000000000001)" style="opacity: 1;"><text class="legendtext" text-anchor="start" x="40" y="7.0200000000000005" style="font-family: 'Times New Roman', monospace; font-size: 18px; fill: rgb(105, 105, 105); fill-opacity: 1; white-space: pre;">Co0 Ni0 Fe100 400C 6h</text><g class="layers" style="opacity: 1;"><g class="legendfill"/><g class="legendlines"><path class="js-line" d="M5,0h30" style="fill: none; stroke: rgb(34, 42, 42); stroke-opacity: 1; stroke-width: 2px;"/></g><g class="legendsymbols"><g class="legendpoints"/></g></g><rect class="legendtoggle" x="0" y="-13.200000000000001" width="236.015625" height="26.400000000000002" style="fill: rgb(0, 0, 0); fill-opacity: 0;"/></g><g class="traces" transform="translate(0,150.2)" style="opacity: 1;"><text class="legendtext" text-anchor="start" x="40" y="7.0200000000000005" style="font-family: 'Times New Roman', monospace; font-size: 18px; fill: rgb(105, 105, 105); fill-opacity: 1; white-space: pre;">Co0 Ni0 Fe100 400C 6h</text><g class="layers" style="opacity: 1;"><g class="legendfill"/><g class="legendlines"><path class="js-line" d="M5,0h30" style="fill: none; stroke: rgb(34, 42, 42); stroke-opacity: 1; stroke-width: 2px;"/></g><g class="legendsymbols"><g class="legendpoints"/></g></g><rect class="legendtoggle" x="0" y="-13.200000000000001" width="236.015625" height="26.400000000000002" style="fill: rgb(0, 0, 0); fill-opacity: 0;"/></g><g class="traces" transform="translate(0,176.6)" style="opacity: 1;"><text class="legendtext" text-anchor="start" x="40" y="7.0200000000000005" style="font-family: 'Times New Roman', monospace; font-size: 18px; fill: rgb(105, 105, 105); fill-opacity: 1; white-space: pre;">Co25 Ni0 Fe75 800C 6h</text><g class="layers" style="opacity: 1;"><g class="legendfill"/><g class="legendlines"><path class="js-line" d="M5,0h30" style="fill: none; stroke: rgb(117, 13, 134); stroke-opacity: 1; stroke-width: 2px;"/></g><g class="legendsymbols"><g class="legendpoints"/></g></g><rect class="legendtoggle" x="0" y="-13.200000000000001" width="236.015625" height="26.400000000000002" style="fill: rgb(0, 0, 0); fill-opacity: 0;"/></g><g class="traces" transform="translate(0,203)" style="opacity: 1;"><text class="legendtext" text-anchor="start" x="40" y="7.0200000000000005" style="font-family: 'Times New Roman', monospace; font-size: 18px; fill: rgb(105, 105, 105); fill-opacity: 1; white-space: pre;">Co25 Ni0 Fe75 800C 6h</text><g class="layers" style="opacity: 1;"><g class="legendfill"/><g class="legendlines"><path class="js-line" d="M5,0h30" style="fill: none; stroke: rgb(117, 13, 134); stroke-opacity: 1; stroke-width: 2px;"/></g><g class="legendsymbols"><g class="legendpoints"/></g></g><rect class="legendtoggle" x="0" y="-13.200000000000001" width="236.015625" height="26.400000000000002" style="fill: rgb(0, 0, 0); fill-opacity: 0;"/></g><g class="traces" transform="translate(0,229.4)" style="opacity: 1;"><text class="legendtext" text-anchor="start" x="40" y="7.0200000000000005" style="font-family: 'Times New Roman', monospace; font-size: 18px; fill: rgb(105, 105, 105); fill-opacity: 1; white-space: pre;">Co0 Ni25 Fe75 600C 12h</text><g class="layers" style="opacity: 1;"><g class="legendfill"/><g class="legendlines"><path class="js-line" d="M5,0h30" style="fill: none; stroke: rgb(0, 160, 139); stroke-opacity: 1; stroke-width: 2px;"/></g><g class="legendsymbols"><g class="legendpoints"/></g></g><rect class="legendtoggle" x="0" y="-13.200000000000001" width="236.015625" height="26.400000000000002" style="fill: rgb(0, 0, 0); fill-opacity: 0;"/></g><g class="traces" transform="translate(0,255.8)" style="opacity: 1;"><text class="legendtext" text-anchor="start" x="40" y="7.0200000000000005" style="font-family: 'Times New Roman', monospace; font-size: 18px; fill: rgb(105, 105, 105); fill-opacity: 1; white-space: pre;">Co50 Ni25 Fe25 400C 24h</text><g class="layers" style="opacity: 1;"><g class="legendfill"/><g class="legendlines"><path class="js-line" d="M5,0h30" style="fill: none; stroke: rgb(178, 130, 141); stroke-opacity: 1; stroke-width: 2px;"/></g><g class="legendsymbols"><g class="legendpoints"/></g></g><rect class="legendtoggle" x="0" y="-13.200000000000001" width="236.015625" height="26.400000000000002" style="fill: rgb(0, 0, 0); fill-opacity: 0;"/></g><g class="traces" transform="translate(0,282.2)" style="opacity: 1;"><text class="legendtext" text-anchor="start" x="40" y="7.0200000000000005" style="font-family: 'Times New Roman', monospace; font-size: 18px; fill: rgb(105, 105, 105); fill-opacity: 1; white-space: pre;">Co75 Ni0 Fe25 800C 24h</text><g class="layers" style="opacity: 1;"><g class="legendfill"/><g class="legendlines"><path class="js-line" d="M5,0h30" style="fill: none; stroke: rgb(119, 138, 174); stroke-opacity: 1; stroke-width: 2px;"/></g><g class="legendsymbols"><g class="legendpoints"/></g></g><rect class="legendtoggle" x="0" y="-13.200000000000001" width="236.015625" height="26.400000000000002" style="fill: rgb(0, 0, 0); fill-opacity: 0;"/></g><g class="traces" transform="translate(0,308.59999999999997)" style="opacity: 1;"><text class="legendtext" text-anchor="start" x="40" y="7.0200000000000005" style="font-family: 'Times New Roman', monospace; font-size: 18px; fill: rgb(105, 105, 105); fill-opacity: 1; white-space: pre;">Co75 Ni0 Fe25 800C 24h</text><g class="layers" style="opacity: 1;"><g class="legendfill"/><g class="legendlines"><path class="js-line" d="M5,0h30" style="fill: none; stroke: rgb(119, 138, 174); stroke-opacity: 1; stroke-width: 2px;"/></g><g class="legendsymbols"><g class="legendpoints"/></g></g><rect class="legendtoggle" x="0" y="-13.200000000000001" width="236.015625" height="26.400000000000002" style="fill: rgb(0, 0, 0); fill-opacity: 0;"/></g><g class="traces" transform="translate(0,334.99999999999994)" style="opacity: 1;"><text class="legendtext" text-anchor="start" x="40" y="7.0200000000000005" style="font-family: 'Times New Roman', monospace; font-size: 18px; fill: rgb(105, 105, 105); fill-opacity: 1; white-space: pre;">Co0 Ni100 Fe0 800C 12h</text><g class="layers" style="opacity: 1;"><g class="legendfill"/><g class="legendlines"><path class="js-line" d="M5,0h30" style="fill: none; stroke: rgb(108, 124, 50); stroke-opacity: 1; stroke-width: 2px;"/></g><g class="legendsymbols"><g class="legendpoints"/></g></g><rect class="legendtoggle" x="0" y="-13.200000000000001" width="236.015625" height="26.400000000000002" style="fill: rgb(0, 0, 0); fill-opacity: 0;"/></g><g class="traces" transform="translate(0,361.3999999999999)" style="opacity: 1;"><text class="legendtext" text-anchor="start" x="40" y="7.0200000000000005" style="font-family: 'Times New Roman', monospace; font-size: 18px; fill: rgb(105, 105, 105); fill-opacity: 1; white-space: pre;">Co75 Ni25 Fe0 300C 24h</text><g class="layers" style="opacity: 1;"><g class="legendfill"/><g class="legendlines"><path class="js-line" d="M5,0h30" style="fill: none; stroke: rgb(119, 138, 174); stroke-opacity: 1; stroke-width: 2px;"/></g><g class="legendsymbols"><g class="legendpoints"/></g></g><rect class="legendtoggle" x="0" y="-13.200000000000001" width="236.015625" height="26.400000000000002" style="fill: rgb(0, 0, 0); fill-opacity: 0;"/></g><g class="traces" transform="translate(0,387.7999999999999)" style="opacity: 1;"><text class="legendtext" text-anchor="start" x="40" y="7.0200000000000005" style="font-family: 'Times New Roman', monospace; font-size: 18px; fill: rgb(105, 105, 105); fill-opacity: 1; white-space: pre;">Co75 Ni25 Fe0 300C 24h</text><g class="layers" style="opacity: 1;"><g class="legendfill"/><g class="legendlines"><path class="js-line" d="M5,0h30" style="fill: none; stroke: rgb(119, 138, 174); stroke-opacity: 1; stroke-width: 2px;"/></g><g class="legendsymbols"><g class="legendpoints"/></g></g><rect class="legendtoggle" x="0" y="-13.200000000000001" width="236.015625" height="26.400000000000002" style="fill: rgb(0, 0, 0); fill-opacity: 0;"/></g><g class="traces" transform="translate(0,414.1999999999999)" style="opacity: 1;"><text class="legendtext" text-anchor="start" x="40" y="7.0200000000000005" style="font-family: 'Times New Roman', monospace; font-size: 18px; fill: rgb(105, 105, 105); fill-opacity: 1; white-space: pre;">Co50 Ni50 Fe0 300C 6h</text><g class="layers" style="opacity: 1;"><g class="legendfill"/><g class="legendlines"><path class="js-line" d="M5,0h30" style="fill: none; stroke: rgb(134, 42, 22); stroke-opacity: 1; stroke-width: 2px;"/></g><g class="legendsymbols"><g class="legendpoints"/></g></g><rect class="legendtoggle" x="0" y="-13.200000000000001" width="236.015625" height="26.400000000000002" style="fill: rgb(0, 0, 0); fill-opacity: 0;"/></g><g class="traces" transform="translate(0,440.59999999999985)" style="opacity: 1;"><text class="legendtext" text-anchor="start" x="40" y="7.0200000000000005" style="font-family: 'Times New Roman', monospace; font-size: 18px; fill: rgb(105, 105, 105); fill-opacity: 1; white-space: pre;">Co50 Ni50 Fe0 300C 6h</text><g class="layers" style="opacity: 1;"><g class="legendfill"/><g class="legendlines"><path class="js-line" d="M5,0h30" style="fill: none; stroke: rgb(134, 42, 22); stroke-opacity: 1; stroke-width: 2px;"/></g><g class="legendsymbols"><g class="legendpoints"/></g></g><rect class="legendtoggle" x="0" y="-13.200000000000001" width="236.015625" height="26.400000000000002" style="fill: rgb(0, 0, 0); fill-opacity: 0;"/></g></g></g><rect class="scrollbar" rx="20" ry="3" width="0" height="0" x="0" y="0" style="fill: rgb(128, 139, 164); fill-opacity: 1;"/></g><g class="g-gtitle"/><g class="g-xtitle" transform="translate(0,-5.009374999999977)"><text class="xtitle" x="522.5" y="500.009375" text-anchor="middle" style="font-family: 'Times New Roman', monospace; font-size: 22px; fill: rgb(105, 105, 105); opacity: 1; font-weight: normal; white-space: pre;">Time (min)</text></g><g class="g-ytitle" transform="translate(23.259765625,0)"><text class="ytitle" transform="rotate(-90,-0.009374999999998579,223.5)" x="-0.009374999999998579" y="223.5" text-anchor="middle" style="font-family: 'Times New Roman', monospace; font-size: 22px; fill: rgb(105, 105, 105); opacity: 1; font-weight: normal; white-space: pre;">Current (mA/cm<tspan style="font-size:70%" dy="-0.6em">2</tspan><tspan dy="0.42em"></tspan>)</text></g></g></svg>