<svg class="main-svg" xmlns="http://www.w3.org/2000/svg" xmlns:xlink="http://www.w3.org/1999/xlink" width="500" height="500" style="" viewBox="0 0 500 500"><rect x="0" y="0" width="500" height="500" style="fill: rgb(255, 255, 255); fill-opacity: 1;"/><defs id="defs-742b7a"><g class="clips"><clipPath id="clip742b7axyplot" class="plotclip"><rect width="427" height="427"/></clipPath><clipPath class="axesclip" id="clip742b7ax"><rect x="59" y="0" width="427" height="500"/></clipPath><clipPath class="axesclip" id="clip742b7ay"><rect x="0" y="10" width="500" height="427"/></clipPath><clipPath class="axesclip" id="clip742b7axy"><rect x="59" y="10" width="427" height="427"/></clipPath></g><g class="gradients"/><g class="patterns"/></defs><g class="bglayer"><rect class="bg" x="59" y="10" width="427" height="427" style="fill: rgb(0, 0, 0); fill-opacity: 0; stroke-width: 0;"/></g><g class="layer-below"><g class="imagelayer"/><g class="shapelayer"/></g><g class="cartesianlayer"><g class="subplot xy"><g class="layer-subplot"><g class="shapelayer"/><g class="imagelayer"/></g><g class="minor-gridlayer"><g class="x"/><g class="y"/></g><g class="gridlayer"><g class="x"/><g class="y"/></g><g class="zerolinelayer"/><path class="xlines-below"/><path class="ylines-below"/><g class="overlines-below"/><g class="xaxislayer-below"/><g class="yaxislayer-below"/><g class="overaxes-below"/><g class="plot" transform="translate(59,10)" clip-path="url(#clip742b7axyplot)"><g class="scatterlayer mlayer"><g class="trace scatter tracecde482" style="stroke-miterlimit: 2; opacity: 1;"><g class="fills"/><g class="errorbars"/><g class="lines"><path class="js-line" d="M0,-165.02L0.76,327.06L0.77,326.48L1.52,329.6L1.53,329.14L1.55,328.93L2.33,331.26L2.36,331.22L2.37,330.52L3.12,332.22L3.13,331.58L3.29,331.57L3.84,332.95L3.88,332.53L3.89,332.92L3.9,332.22L4.58,333.58L4.63,333.07L4.63,333.63L4.67,332.86L5.37,334.18L5.37,333.62L5.38,333.88L5.49,333.48L6.1,334.69L6.11,334.52L6.12,334.31L6.22,333.88L6.85,335.07L6.86,334.65L6.87,335.12L6.92,334.41L7.59,335.49L7.62,335.04L7.63,335.14L7.64,334.79L8.28,336.02L8.37,335.61L8.38,335.33L8.41,335.24L9.13,336.27L9.14,336.02L9.15,335.63L9.19,335.59L9.87,336.67L9.9,336.49L9.91,336.29L9.98,335.91L10.6,336.98L10.64,336.29L10.65,336.99L10.82,336.21L11.37,337.25L11.4,336.63L11.41,337.14L11.43,336.6L12.11,337.56L12.13,336.86L12.14,337.55L12.19,336.91L12.83,337.93L12.88,337.46L12.89,337.43L12.93,337.13L13.47,338.21L13.64,337.51L13.65,338.07L13.79,337.42L14.36,338.41L14.4,337.96L14.41,338.43L14.44,337.68L15.07,338.73L15.16,338.34L15.17,338.1L15.27,337.99L15.85,338.95L15.93,338.66L15.94,338.71L15.94,338.23L16.68,339.19L16.68,338.57L16.69,338.89L16.8,338.45L17.34,339.48L17.42,338.72L17.43,339.28L17.5,338.72L18.03,339.59L18.17,339L18.18,339.62L18.21,338.93L18.93,339.87L18.94,339.12L19.62,340.03L19.69,340L19.7,339.55L19.92,339.27L19.99,340.32L20.45,340.3L20.46,339.72L20.57,339.57L21.18,340.51L21.2,340.29L21.21,339.82L21.3,339.8L21.95,340.76L21.96,340.48L21.97,340.46L21.97,340.02L22.53,340.95L22.72,340.46L22.73,340.93L22.9,340.19L23.4,341.24L23.48,341.06L23.49,340.68L23.6,340.35L24.01,341.31L24.21,340.75L24.22,341.25L24.26,340.64L24.95,341.52L24.97,341.05L24.98,341.52L25.26,340.81L25.59,341.66L25.72,340.93L25.73,341.73L25.84,340.93L26.47,341.89L26.48,341.33L26.49,341.62L26.69,341.07L27.18,342.09L27.23,341.63L27.24,341.97L27.38,341.35L27.99,342.25L28,341.57L28.53,342.43L28.75,342.35L28.76,341.72L28.82,341.68L29.38,342.6L29.51,342.01L29.52,342.35L29.54,341.81L30.23,342.9L30.25,342.23L30.26,342.78L30.32,341.96L30.76,342.99L31.01,342.16L31.02,342.98L31.04,342.16L31.53,343.12L31.77,342.8L31.78,342.44L31.81,342.38L32.5,343.27L32.53,343.25L32.54,342.71L32.55,342.49L33.06,343.43L33.29,343.02L33.3,342.77L33.33,342.67L33.75,343.61L34.05,343.14L34.06,343.15L34.07,342.89L34.78,343.79L34.81,343.76L34.81,343.12L35.04,343.01L35.53,343.97L35.57,343.61L35.57,343.4L35.74,343.18L36.32,344.14L36.32,343.54L36.33,343.67L36.4,343.36L36.99,344.27L37.08,343.94L37.09,343.57L37.28,343.47L37.66,344.37L37.84,344.33L37.85,343.99L37.88,343.66L38.48,344.55L38.6,343.87L38.61,344.32L38.96,343.83L39.24,344.81L39.35,344.08L39.36,344.65L39.41,344.05L39.68,344.9L40.11,344.19L40.12,344.79L40.26,344.11L40.66,345L40.86,344.28L40.87,344.93L41.17,344.28L41.5,345.13L41.62,344.75L41.63,345.03L41.63,344.41L42.23,345.3L42.38,345.18L42.39,344.59L42.46,344.49L42.95,345.41L43.14,345.38L43.15,344.74L43.24,344.64L43.86,345.54L43.9,345.29L43.91,344.81L44.42,345.73L44.66,345.16L44.67,345.39L44.86,344.96L45.36,345.85L45.41,345.16L45.42,345.83L45.65,345.07L46.02,346.01L46.17,345.49L46.18,345.64L46.19,345.28L46.64,346.1L46.91,345.39L46.92,346.07L46.94,345.36L47.67,346.31L47.68,345.66L47.74,345.61L48.32,346.43L48.43,345.91L48.44,346.23L48.61,345.66L48.93,346.64L49.19,346.17L49.2,346.47L49.25,345.87L49.74,346.75L49.94,345.96L49.95,346.65L50.05,345.99L50.67,346.98L50.7,346.66L50.71,346.59L50.82,346.11L51.46,347.04L51.47,346.44L51.57,346.28L52.18,347.21L52.22,346.98L52.23,346.78L52.47,346.46L52.95,347.29L52.97,346.67L52.98,347.3L53,346.51L53.48,347.44L53.73,346.67L53.74,347.38L53.79,346.73L54.48,347.62L54.49,347.15L54.5,347.54L54.61,346.87L55.22,347.83L55.25,347.05L55.26,347.37L55.27,347.01L55.96,347.85L56.01,347.67L56.01,347.18L56.25,347.16L56.75,348.02L56.76,347.85L56.77,347.7L56.89,347.34L57.38,348.25L57.52,347.7L57.53,347.83L57.57,347.37L57.74,348.32L58.28,347.65L58.29,348.32L58.4,347.62L58.67,348.46L59.04,348.31L59.05,347.79L59.2,347.72L59.59,348.61L59.81,348.51L59.82,348.08L59.83,347.83L60.48,348.75L60.57,348.46L60.58,348.12L60.65,348.04L61.22,348.9L61.33,348.41L61.34,348.54L61.49,348.1L62.01,349.1L62.1,348.73L62.11,348.43L62.14,348.27L62.54,349.19L62.86,348.64L62.87,348.81L62.88,348.44L63.61,349.37L63.62,348.61L63.65,348.6L64.22,349.37L64.36,348.72L64.37,349.39L64.95,348.72L65.11,349.65L65.12,349.23L65.13,349.41L65.43,348.84L65.72,349.65L65.88,349.1L65.88,349.54L65.91,348.94L66.53,349.81L66.62,349.19L66.63,349.64L66.8,349.11L67.35,349.99L67.37,349.33L67.38,350.03L67.4,349.28L67.89,350.1L68.13,349.81L68.14,349.45L68.2,349.41L68.82,350.28L68.89,350.23L68.9,349.79L69.02,349.54L69.64,350.38L69.65,349.73L69.68,349.68L70.4,350.55L70.4,349.99L70.41,350.12L70.63,349.84L71.04,350.7L71.16,349.92L71.17,350.59L71.23,350.79L71.45,349.97L71.92,350.26L71.93,350.67L71.93,350.1L72.61,350.92L72.68,350.92L72.69,350.44L73.11,350.24L73.34,351.09L73.44,351.07L73.44,350.42L73.52,350.37L74,351.19L74.2,351.17L74.2,350.63L74.27,350.54L74.79,351.31L74.96,351.27L74.96,350.71L74.98,350.67L75.69,351.49L75.71,351.16L75.72,350.9L75.79,350.75L76.47,351.65L76.47,351.09L76.48,351.2L76.65,350.92L77.16,351.74L77.22,351.62L77.23,351.03L77.92,351.89L77.98,351.72L77.99,351.18L78.72,352.04L78.74,351.67L78.75,351.41L78.91,351.31L79.46,352.16L79.5,351.84L79.51,351.6L79.91,351.47L80.1,352.35L80.26,351.75L80.27,352.01L80.28,351.56L80.96,352.42L81.02,352.1L81.03,351.84L81.09,351.74L81.75,352.56L81.78,352.51L81.79,352.02L81.81,351.88L82.22,352.68L82.53,352.58L82.54,351.92L82.57,351.91L83.24,352.8L83.29,352.51L83.3,352.56L83.31,352.16L83.82,352.97L84.04,352.44L84.05,352.7L84.06,352.23L84.74,353.12L84.8,352.48L84.8,353.04L85.01,352.43L85.5,353.3L85.54,353.13L85.55,352.98L85.6,352.52L86.22,353.4L86.3,352.91L86.31,353.15L86.35,352.74L87.04,353.55L87.06,352.89L87.07,353.44L87.08,352.88L87.74,353.71L87.82,353.63L87.83,353.21L87.87,353.02L88.44,353.83L88.58,353.7L88.59,353.32L88.61,353.09L89.33,353.96L89.34,353.7L89.35,353.28L89.5,353.27L90.07,354.1L90.1,353.99L90.11,353.66L90.16,353.4L90.84,354.26L90.86,354.15L90.87,353.65L91.38,354.34L91.52,353.58L91.62,354.21L91.63,353.7L92.15,354.51L92.38,354.42L92.39,353.86L93.08,354.71L93.14,354.53L93.15,354.35L93.2,354L93.7,354.78L93.9,354.77L93.91,354.22L94.02,354.16L94.67,354.91L94.68,354.38L94.73,354.3L95.34,355.16L95.43,354.53L95.44,354.81L95.5,354.43L95.61,355.21L96.18,354.66L96.18,355.2L96.35,354.59L96.9,355.39L96.92,354.64L96.93,355.35L97.03,354.7L97.65,355.55L97.68,355.46L97.69,355.06L97.78,354.88L98.33,355.7L98.44,355.31L98.45,355.6L98.47,355.07L99.13,355.81L99.2,355.2L99.21,355.8L99.3,355.17L99.4,355.95L99.96,355.66L99.97,355.84L100,355.31L100.69,356.15L100.72,355.62L100.73,355.83L100.83,355.52L101.45,356.29L101.47,355.97L101.48,355.66L101.51,355.61L101.99,356.4L102.23,356.04L102.24,355.95L102.55,355.75L102.94,356.57L102.99,355.93L103,356.53L103.02,355.91L103.67,356.74L103.75,356.35L103.76,356.21L103.96,356.1L104.3,356.92L104.51,356.45L104.52,356.51L104.53,356.23L105.2,357L105.27,356.97L105.28,356.43L105.34,356.41L106.01,357.22L106.03,357.15L106.04,356.7L106.1,356.5L106.32,357.26L106.79,357.14L106.8,356.69L107.52,357.49L107.55,357.42L107.56,356.84L108.04,357.64L108.31,357.25L108.32,357.61L108.32,357.03L109.05,357.8L109.07,357.72L109.08,357.4L109.19,357.18L109.81,357.98L109.84,357.91L109.85,357.33L110.39,358.06L110.6,357.56L110.61,358.12L110.94,357.48L111.29,358.24L111.36,357.69L111.36,358.21L111.39,357.64L112.08,358.4L112.1,357.79L112.11,358.39L112.25,357.79L112.66,358.56L112.86,358.3L112.87,358.03L113.02,357.87L113.55,358.7L113.62,358.53L113.63,358.14L113.75,358.11L114.38,358.83L114.39,358.4L114.41,358.25L115.03,359.05L115.14,358.51L115.15,358.88L115.22,358.46L115.71,359.18L115.9,358.76L115.91,358.96L116.19,358.6L116.61,359.33L116.65,359.15L116.66,359.22L116.7,358.75L117.38,359.55L117.41,358.98L117.41,359.58L117.48,358.86L118.11,359.68L118.16,359.45L118.17,359.12L118.84,359.82L118.92,359.75L118.93,359.24L119.04,359.22L119.62,359.99L119.68,359.76L119.69,359.41L120.43,360.18L120.44,359.97L120.45,359.99L120.86,359.63L121.18,360.39L121.19,359.99L121.2,360.31L121.2,359.72L121.88,360.52L121.95,360.01L121.96,360.25L122.1,359.94L122.54,360.63L122.7,360.1L122.7,360.66L122.89,360.11L123.43,360.85L123.44,360.51L123.45,360.71L123.46,360.21L123.99,360.95L124.19,360.54L124.2,360.9L124.25,360.41L124.83,361.17L124.95,360.69L124.96,361.1L125.21,360.56L125.71,361.34L125.72,360.81L125.82,360.78L126.34,361.48L126.47,360.99L126.48,361.46L126.56,360.97L127.22,361.68L127.23,361.43L127.24,361.54L127.36,361.09L127.86,361.89L127.98,361.2L127.99,361.83L128.01,361.24L128.56,361.99L128.73,361.7L128.74,361.89L128.94,361.43L129.32,362.13L129.49,361.59L129.49,362.06L129.65,361.61L130.13,362.32L130.23,362.19L130.24,362.09L130.28,361.79L130.92,362.54L130.97,361.99L130.98,362.49L131.02,362L131.47,362.66L131.73,362.3L131.74,362.65L131.83,362.14L132.49,362.91L132.49,362.36L132.5,362.75L132.64,362.32L133.16,363.05L133.25,362.54L133.25,362.84L133.34,362.52L133.9,363.23L133.98,362.98L133.99,363.1L133.99,362.67L134.72,363.4L134.74,362.87L134.75,363.32L135.04,362.85L135.15,363.59L135.5,363.43L135.51,363.44L135.54,363.1L136.11,363.77L136.26,363.49L136.27,363.72L136.39,363.22L136.87,363.91L137.02,363.72L137.03,363.83L137.05,363.4L137.7,364.14L137.78,363.84L137.79,363.7L137.9,363.61L138.49,364.36L138.55,364.32L138.56,363.82L139.3,364.49L139.31,364.44L139.32,364.3L139.4,363.97L140.04,364.65L140.06,364.23L140.07,364.65L140.07,364.15L140.76,364.84L140.82,364.8L140.83,364.36L141.57,365.06L141.58,364.9L141.59,364.79L141.63,364.51L142.23,365.24L142.34,365.13L142.35,364.73L142.97,365.4L143.1,365.04L143.11,365.15L143.12,364.87L143.78,365.6L143.86,365.41L143.87,365.11L143.9,365.1L144.57,365.77L144.63,365.76L144.63,365.36L144.85,365.24L145.35,365.99L145.41,365.88L145.41,365.46L146.15,366.13L146.17,366.07L146.18,365.63L146.19,365.62L146.86,366.25L146.93,365.77L146.94,366.25L146.96,365.74L147.58,366.51L147.69,366.32L147.7,366.05L147.94,366L148.44,366.73L148.46,366.47L148.47,366.21L148.6,366.18L149.13,366.9L149.22,366.52L149.23,366.51L149.38,366.37L149.99,367.07L150,366.66L150.06,366.5L150.61,367.26L150.76,367.08L150.77,367.1L150.83,366.71L151.27,367.46L151.52,367.33L151.53,367.02L151.57,366.99L151.92,367.61L152.28,367.5L152.29,367.15L153,367.81L153.04,367.69L153.05,367.35L153.79,368.03L153.81,367.93L153.81,367.59L153.86,367.55L154.56,368.22L154.57,367.82L154.7,367.75L155.28,368.44L155.32,368.38L155.33,368.07L155.5,367.93L155.91,368.6L156.08,368.45L156.09,368.14L156.13,368.1L156.83,368.82L156.84,368.66L156.85,368.71L156.91,368.34L157.54,369.03L157.6,368.92L157.61,368.56L158.32,369.25L158.36,369.09L158.37,368.74L158.42,368.7L159.03,369.39L159.12,369.34L159.13,369.08L159.16,368.94L159.85,369.59L159.88,369.32L159.89,369.2L159.92,369.1L160.57,369.78L160.64,369.38L160.65,369.79L160.91,369.34L161.4,370.02L161.41,369.52L162.15,370.19L162.16,369.81L162.17,369.9L162.18,369.73L162.77,370.32L162.92,369.9L162.93,370.31L162.97,369.95L163.63,370.54L163.67,370.14L163.67,370.44L163.68,370.1L164.38,370.72L164.42,370.42L164.42,370.75L164.46,370.29L164.94,370.94L165.17,370.51L165.17,370.95L165.33,370.5L165.86,371.12L165.91,370.69L165.92,371.12L166.08,370.68L166.62,371.31L166.66,371.1L166.67,371.27L166.67,370.85L167.35,371.57L167.42,371.12L167.43,371.39L167.56,371.07L168.14,371.72L168.16,371.4L168.17,371.66L168.26,371.28L168.83,371.91L168.92,371.71L168.93,371.78L168.93,371.46L169.44,372.08L169.68,371.75L169.69,372.03L169.77,371.66L170.44,372.33L170.44,371.95L170.45,372.11L170.52,371.87L171.17,372.48L171.19,372.15L171.2,372.48L171.2,372.08L171.93,372.68L171.95,372.57L171.96,372.29L172.56,372.86L172.71,372.71L172.72,372.49L172.77,372.47L173.39,373.05L173.47,372.77L173.48,373.04L173.5,372.66L174.22,373.28L174.23,373.01L174.24,373.2L174.32,372.84L174.98,373.45L174.98,373.23L174.99,373.22L175,373.03L175.59,373.69L175.74,373.58L175.75,373.34L175.79,373.23L176.35,373.88L176.5,373.81L176.51,373.65L176.62,373.48L177.22,374.05L177.26,373.83L177.27,373.78L177.31,373.68L178.02,374.28L178.03,373.95L178.14,373.93L178.74,374.5L178.78,374.31L178.79,374.14L179.5,374.68L179.54,374.45L179.55,374.64L179.6,374.28L180.27,374.88L180.3,374.67L180.31,374.52L180.98,375.09L181.06,374.95L181.07,374.98L181.07,374.71L181.82,375.32L181.82,374.98L181.83,375.1L181.84,374.93L182.51,375.5L182.57,375.15L182.57,375.47L182.6,375.12L183.14,375.73L183.32,375.31L183.33,375.67L183.35,375.34L183.96,375.89L184.08,375.89L184.09,375.58L184.17,375.52L184.84,376.11L184.86,376.09L184.86,375.81L184.9,375.75L185.56,376.31L185.62,376.05L185.63,375.96L185.82,375.89L186.11,376.49L186.38,376.17L186.39,376.37L186.4,376.11L186.96,376.67L187.12,376.44L187.13,376.69L187.15,376.34L187.76,376.91L187.88,376.71L187.89,376.59L187.9,376.56L188.48,377.07L188.64,376.74L188.65,377.06L188.68,376.71L189.38,377.3L189.4,376.93L189.41,377.27L189.43,376.95L190.13,377.49L190.15,377.14L190.16,377.49L190.18,377.17L190.86,377.68L190.91,377.4L190.92,377.65L191.01,377.37L191.62,377.88L191.66,377.71L191.67,377.85L191.68,377.51L192.33,378.13L192.41,377.93L192.42,377.87L192.48,377.75L193.17,378.31L193.18,378.08L193.22,377.97L193.92,378.54L193.94,378.43L193.95,378.21L194.02,378.2L194.66,378.72L194.7,378.46L194.71,378.66L194.76,378.35L195.41,378.9L195.46,378.61L195.47,378.83L195.54,378.58L196.16,379.11L196.21,378.79L196.21,379.13L196.28,378.77L196.88,379.31L196.96,378.99L196.97,379.31L196.98,378.96L197.67,379.51L197.72,379.18L197.73,379.52L197.75,379.18L198.4,379.69L198.47,379.42L198.48,379.72L198.5,379.4L199.23,379.91L199.24,379.67L199.39,379.61L200,380.1L200.01,380.04L200.02,379.79L200.05,379.78L200.76,380.32L200.78,380.27L200.78,380.01L200.81,379.98L201.46,380.52L201.54,380.43L201.54,380.19L202.3,380.7L202.3,380.45L202.32,380.4L203.03,380.92L203.06,380.9L203.07,380.6L203.13,380.57L203.8,381.13L203.82,380.8L203.83,381.09L203.9,380.79L204.54,381.3L204.58,381.21L204.59,381.15L204.68,380.98L205.45,381.53L205.46,381.44L205.47,381.22L206.2,381.74L206.23,381.71L206.24,381.65L206.24,381.45L206.93,381.94L206.99,381.9L207,381.63L207.72,382.12L207.76,382.09L207.77,381.84L208.45,382.36L208.52,382.32L208.53,382.15L208.55,382.04L209.28,382.53L209.29,382.49L209.3,382.33L209.37,382.25L210.02,382.72L210.07,382.54L210.08,382.54L210.23,382.45L210.84,382.92L210.85,382.61L211.6,383.12L211.6,382.87L211.61,382.99L211.65,382.83L212.28,383.32L212.35,383.05L212.36,383.16L212.4,383.03L213.09,383.51L213.12,383.46L213.13,383.34L213.17,383.25L213.88,383.74L213.89,383.36L214.6,383.87L214.64,383.72L214.65,383.66L214.66,383.61L215.39,384.09L215.4,383.98L215.41,383.83L215.49,383.8L216.06,384.27L216.17,384.24L216.18,384.03L216.21,384L216.9,384.47L216.93,384.37L216.94,384.21L217.69,384.66L217.69,384.43L217.7,384.47L217.71,384.39L218.4,384.83L218.45,384.83L218.46,384.56L219.17,385L219.21,384.92L219.22,384.96L219.22,384.75L219.9,385.21L219.97,385.01L219.98,385.08L220.05,385.24L220.49,385.07L220.67,385.17L220.68,385.42L220.71,385.15L221.39,385.6L221.43,385.31L221.44,385.56L221.46,385.33L222.11,385.79L222.19,385.55L222.2,385.77L222.25,385.49L222.86,385.97L222.94,385.68L222.95,385.95L222.97,385.7L223.64,386.14L223.7,386.07L223.71,386.04L223.8,385.95L224.73,386.46L224.74,386.16L224.79,386.15L225.49,386.58L225.49,386.34L225.5,386.54L225.54,386.33L226.23,386.76L226.24,386.6L226.25,386.56L226.26,386.52L226.97,386.94L227.01,386.88L227.02,386.69L227.71,387.11L227.77,387.02L227.78,386.89L227.82,386.85L228.51,387.31L228.54,387.3L228.55,387.06L229.29,387.48L229.3,387.32L229.31,387.33L229.32,387.26L230.04,387.68L230.07,387.66L230.08,387.4L230.8,387.84L230.83,387.84L230.84,387.67L230.87,387.62L231.57,388.03L231.6,388.01L231.61,387.85L231.65,387.81L232.35,388.22L232.37,388.14L232.38,388L232.42,387.99L233.09,388.41L233.13,388.2L233.14,388.38L233.24,388.2L233.73,388.59L233.87,388.35L233.88,388.59L233.9,388.36L234.63,388.76L234.64,388.58L234.75,388.51L235.42,388.96L235.44,388.9L235.44,388.71L236.18,389.11L236.2,389.03L236.2,388.88L236.23,388.87L236.95,389.29L236.96,389.09L237.05,389.06L237.71,389.45L237.72,389.44L237.73,389.32L237.81,389.25L238.53,389.64L238.55,389.6L238.56,389.43L239.18,389.82L239.31,389.77L239.32,389.77L239.32,389.58L240.06,390.02L240.07,389.93L240.08,389.96L240.09,389.77L240.74,390.18L240.82,390L240.82,390.18L240.85,389.93L241.56,390.35L241.57,390.15L241.58,390.25L242.65,390.59L242.65,390.36L243.41,390.74L243.42,390.71L243.43,390.62L243.48,390.56L244.25,390.93L244.27,390.9L244.27,390.72L245.01,391.11L245.03,391.03L245.04,390.89L245.79,391.28L245.8,391.09L245.85,391.07L246.57,391.46L246.57,391.25L247.34,391.61L247.36,391.53L247.36,391.4L248.06,391.79L248.11,391.75L248.12,391.58L248.21,391.56L248.79,391.92L248.87,391.75L248.88,391.87L248.89,391.7L249.57,392.09L249.62,391.88L249.63,392.06L249.68,391.89L250.31,392.26L250.37,392.16L250.38,392.17L250.48,392.07L251.43,392.47L251.43,392.29L252.15,392.64L252.18,392.63L252.19,392.42L252.9,392.8L252.94,392.75L252.95,392.69L254.04,393.01L254.04,392.8L254.78,393.21L254.8,393.12L254.81,393L254.9,392.98L255.48,393.34L255.56,393.18L255.57,393.23L256.67,393.56L256.68,393.38L257.4,393.72L257.43,393.68L257.44,393.51L258.19,393.88L258.2,393.75L258.21,393.73L258.24,393.69L258.8,394.03L258.97,394.01L258.98,393.92L260.04,394.24L260.06,394.21L260.07,394.05L260.8,394.41L260.82,394.29L260.83,394.2L261.49,394.53L261.58,394.46L261.59,394.41L261.66,394.36L262.39,394.7L262.41,394.67L262.42,394.51L263.14,394.85L263.17,394.74L263.18,394.74L264.13,395.06L264.14,394.86L264.91,395.21L264.91,395.07L264.92,395.07L265.83,395.37L265.83,395.23L265.84,395.22L265.93,395.19L266.54,395.52L266.59,395.39L266.6,395.53L266.6,395.34L267.26,395.67L267.35,395.66L267.36,395.49L267.39,395.48L268.05,395.81L268.11,395.7L268.12,395.7L269.06,395.98L269.08,395.94L269.09,395.81L269.75,396.13L269.84,396.12L269.85,395.97L269.92,395.96L270.62,396.27L270.63,396.24L270.64,396.11L271.39,396.41L271.4,396.28L271.41,396.37L272.3,396.41L272.3,396.59L272.46,396.4L273.04,396.73L273.04,396.54L273.05,396.63L274.28,396.9L274.28,396.73L275.04,397.04L275.04,396.9L275.05,396.99L276.38,397.28L276.4,397.24L276.41,397.14L276.49,397.11L277.25,397.44L277.25,397.29L277.28,397.28L278.04,397.57L278.04,397.43L278.09,397.41L278.84,397.72L278.84,397.55L279.62,397.85L279.64,397.79L279.64,397.69L279.66,397.68L280.39,397.98L280.4,397.78L281.13,398.1L281.15,397.94L281.16,398.1L281.18,397.93L281.77,398.22L281.9,398.15L281.91,398.2L282.81,398.22L282.82,398.39L282.99,398.24L283.54,398.5L283.56,398.34L283.57,398.51L283.65,398.34L284.21,398.63L284.31,398.49L284.32,398.6L285.08,398.55L285.1,398.68L285.11,398.73L285.11,398.57L285.75,398.87L285.86,398.75L285.87,398.76L286.93,399L286.93,398.98L286.94,398.87L287.67,399.16L287.72,399.14L287.73,399L288.5,399.29L288.51,399.23L288.52,399.23L289.88,399.35L289.89,399.49L289.89,399.33L290.64,399.61L290.65,399.5L291.64,399.73L291.65,399.68L291.66,399.6L292.58,399.9L292.59,399.74L293.4,400L293.41,399.86L294.27,400.12L294.27,400.06L294.28,399.99L295.16,400.27L295.17,400.11L296,400.38L296.01,400.25L296.82,400.5L296.84,400.46L296.85,400.36L297.73,400.63L297.73,400.49L298.63,400.77L298.63,400.61L299.42,400.88L299.43,400.73L300.31,400.98L300.32,400.86L301.34,401.13L301.35,401.12L301.36,401.02L302.69,401.3L302.7,401.16L303.44,401.4L303.47,401.39L303.47,401.25L304.21,401.52L304.26,401.49L304.26,401.37L305.22,401.62L305.23,401.55L305.23,401.5L306.14,401.73L306.14,401.62L307.06,401.87L307.08,401.85L307.08,401.73L307.94,401.97L307.96,401.94L307.96,401.84L308.83,402.08L308.83,401.96L309.79,402.2L309.81,402.18L309.82,402.08L310.81,402.32L310.81,402.3L310.82,402.17L311.57,402.42L311.58,402.37L311.59,402.37L312.89,402.44L312.9,402.56L313.78,402.53L313.8,402.57L313.8,402.66L314.95,402.66L314.95,402.79L316.06,402.79L316.06,402.9L317.33,402.97L317.34,403.07L318.34,403.06L318.35,403.21L318.73,403.07L319.1,403.14L319.11,403.24L320.29,403.24L320.3,403.39L321.17,403.34L321.18,403.47L322.11,403.44L322.11,403.57L323.2,403.55L323.22,403.59L323.22,403.68L324.28,403.65L324.28,403.81L325.16,403.75L325.17,403.88L326.16,403.85L326.17,403.96L327.12,403.93L327.13,404.08L327.95,404.01L327.97,404.03L327.98,404.15L328.84,404.1L328.85,404.25L328.87,404.09L329.06,404.28L329.6,404.18L329.6,404.32L329.64,404.17L330.17,404.38L330.34,404.31L330.35,404.37L331.48,404.37L331.48,404.47L332.59,404.48L332.59,404.61L333.36,404.53L333.37,404.58L333.38,404.65L334.39,404.62L334.39,404.72L335.62,404.72L335.62,404.76L335.63,404.84L336.9,404.85L336.91,404.87L336.92,404.96L337.92,404.94L337.92,405.05L339.04,405.05L339.04,405.15L340.06,405.12L340.07,405.24L341.06,405.19L341.07,405.31L342.23,405.29L342.24,405.39L343.35,405.38L343.36,405.48L344.57,405.5L344.58,405.59L345.82,405.59L345.82,405.66L346.97,405.65L346.97,405.76L348.15,405.74L348.16,405.87L349.26,405.83L349.27,405.93L350.54,405.93L350.54,406.03L351.63,406L351.64,406.1L352.81,406.07L352.82,406.2L353.89,406.16L353.9,406.26L355.15,406.27L355.15,406.35L356.43,406.35L356.44,406.44L357.75,406.45L357.75,406.53L358.85,406.48L358.85,406.59L360.36,406.59L360.37,406.7L361.46,406.67L361.47,406.79L362.6,406.75L362.61,406.86L363.54,406.81L363.55,406.85L363.55,406.91L365,406.89L365.01,407.02L366.22,407.01L366.22,407.09L367.34,407.04L367.34,407.15L368.84,407.13L368.85,407.23L371.19,407.27L371.19,407.36L372.61,407.38L372.62,407.46L374.25,407.47L374.26,407.55L378.78,407.8L378.79,407.69L380.33,407.88L380.33,407.78L381.61,407.95L381.62,407.86L383.17,408.02L383.17,407.98L383.18,407.94L384.69,408.13L384.7,408.09L384.71,408.02L386.05,408.17L386.06,408.1L387.58,408.23L387.59,408.17L389.22,408.3L389.22,408.23L390.73,408.39L390.74,408.35L390.75,408.28L391.86,408.42L391.87,408.33L392.88,408.46L392.88,408.41L392.89,408.41L394.52,408.57L394.52,408.48L395.95,408.62L395.95,408.55L397.29,408.7L397.29,408.61L398.81,408.74L398.82,408.67L399.95,408.83L399.96,408.74L401.37,408.89L401.37,408.79L402.9,408.94L402.91,408.87L404.13,408.99L404.13,408.9L405.51,409.01L405.51,408.93L406.5,409.08L406.51,408.99L408.05,409.14L408.06,409.06L409.86,409.19L409.87,409.12L411.24,409.23L411.24,409.2L411.25,409.16L412.38,409.29L412.38,409.21L413.74,409.35L413.75,409.24L414.89,409.39L414.9,409.31L416.37,409.44L416.37,409.36L417.86,409.46L417.87,409.44L417.87,409.39L418.87,409.5L418.88,409.42L420.27,409.55L420.27,409.47L421.85,409.58L421.85,409.52L423.88,409.65L423.89,409.57L425.38,409.69L425.39,409.66L425.39,409.6L426.82,409.76L426.83,409.73L426.84,409.68L426.99,409.79" style="vector-effect: non-scaling-stroke; fill: none; stroke: rgb(46, 145, 229); stroke-opacity: 1; stroke-width: 2px; opacity: 1;"/></g><g class="points"/><g class="text"/></g><g class="trace scatter trace576a84" style="stroke-miterlimit: 2; opacity: 1;"><g class="fills"/><g class="errorbars"/><g class="lines"><path class="js-line" d="M0,62.52L0.76,423.14L0.77,423.15L2.05,424.46L2.06,424.45L5.18,424.99L5.19,424.98L13.86,425.38L13.87,425.38L71.9,426.13L71.9,426.13L71.91,426.14L82.59,426.17L82.59,426.18L93.41,426.21L93.41,426.21L93.42,426.21L426.99,426.4L426.99,426.4" style="vector-effect: non-scaling-stroke; fill: none; stroke: rgb(225, 95, 153); stroke-opacity: 1; stroke-width: 2px; opacity: 1;"/></g><g class="points"/><g class="text"/></g><g class="trace scatter trace24f0a4" style="stroke-miterlimit: 2; opacity: 1;"><g class="fills"/><g class="errorbars"/><g class="lines"><path class="js-line" d="M0,421.59L0.77,426.45L0.77,426.45L0.78,426.45L8,426.18L8.01,426.18L23.16,425.91L23.16,425.92L34.1,425.94L34.11,425.95L44.56,426L44.56,426L44.57,426.01L54.94,426.07L54.95,426.07L67.31,426.15L67.31,426.15L67.32,426.14L426.99,426.62L426.99,426.61" style="vector-effect: non-scaling-stroke; fill: none; stroke: rgb(251, 13, 13); stroke-opacity: 1; stroke-width: 2px; opacity: 1;"/></g><g class="points"/><g class="text"/></g><g class="trace scatter trace5e78f6" style="stroke-miterlimit: 2; opacity: 1;"><g class="fills"/><g class="errorbars"/><g class="lines"><path class="js-line" d="M0,353.79L0.87,398.48L0.88,398.55L2.16,402.88L2.16,402.88L2.17,402.88L4.57,403.49L4.57,403.49L4.58,403.48L30.6,409.65L30.6,409.65L30.61,409.65L50.01,412.79L50.01,412.78L75.45,415.45L75.46,415.44L87.96,416.36L87.96,416.35L98.5,417L98.51,417L134.9,418.69L134.9,418.69L134.91,418.68L142.77,418.98L142.77,418.97L164.63,419.69L164.63,419.69L164.64,419.68L183.01,420.17L183.01,420.16L200.28,420.56L200.29,420.56L240.96,421.31L240.96,421.32L250.2,421.45L250.2,421.46L317.47,422.21L317.47,422.21L317.48,422.22L327.59,422.29L327.59,422.3L337.81,422.37L337.82,422.37L350.59,422.47L350.6,422.47L426.99,423L426.99,423" style="vector-effect: non-scaling-stroke; fill: none; stroke: rgb(218, 22, 255); stroke-opacity: 1; stroke-width: 2px; opacity: 1;"/></g><g class="points"/><g class="text"/></g><g class="trace scatter trace426ee1" style="stroke-miterlimit: 2; opacity: 1;"><g class="fills"/><g class="errorbars"/><g class="lines"><path class="js-line" d="M0,426.16L0.77,426.77L0.77,426.77L0.78,426.77L426.99,426.77L426.99,426.77" style="vector-effect: non-scaling-stroke; fill: none; stroke: rgb(34, 42, 42); stroke-opacity: 1; stroke-width: 2px; opacity: 1;"/></g><g class="points"/><g class="text"/></g><g class="trace scatter tracee35c1c" style="stroke-miterlimit: 2; opacity: 1;"><g class="fills"/><g class="errorbars"/><g class="lines"><path class="js-line" d="M0,-551.3L0.12,268.15L0.78,250.96L0.79,251.15L1.64,245.25L1.67,245.29L1.68,245.35L2.58,242.57L2.59,242.78L2.61,243.11L3.32,241.5L3.34,241.94L3.35,241.74L3.41,242.02L4.01,240.7L4.19,241.13L4.2,241.13L4.25,241.42L4.89,240.28L4.95,240.43L4.96,240.59L5.05,240.2L5.36,240.87L5.7,240.43L5.71,240.69L5.74,240.89L6.4,239.79L6.46,240.3L6.47,239.98L6.52,240.53L6.62,239.75L7.22,240.03L7.22,239.87L7.55,239.66L7.98,240.58L7.99,240.28L8.07,239.86L8.54,240.97L8.74,240.89L8.75,240.58L8.78,240.46L9.17,241.26L9.5,240.74L9.51,240.7L9.58,240.57L10.23,241.47L10.28,241.31L10.28,240.92L10.36,240.63L10.98,241.66L11.05,241.56L11.06,241.31L11.08,241.27L11.7,242.09L11.82,241.73L11.83,241.65L11.86,241.61L12.47,242.55L12.58,242.37L12.59,242.15L12.61,242L13.36,242.9L13.36,242.57L13.37,242.69L13.7,242.34L14.11,243.38L14.12,242.77L14.13,243.34L14.18,242.96L14.8,243.84L14.88,243.75L14.89,243.64L15.19,243.35L15.25,244.13L15.6,243.69L15.61,243.95L15.71,244.27L16.07,243.29L16.36,243.64L16.36,244L16.48,243.63L16.97,244.76L17.08,244.44L17.09,244.8L17.1,244.3L17.69,245.23L17.84,244.88L17.85,244.59L17.9,244.54L18.6,245.65L18.61,245.56L18.62,245.61L18.98,245.29L19.35,246.23L19.37,246L19.38,245.98L19.42,245.72L19.94,246.66L20.13,246.17L20.14,246.2L20.16,246.08L20.66,247.22L20.92,247.11L20.92,246.8L20.94,246.69L21.59,247.78L21.69,247.67L21.7,247.46L21.76,247.41L22.46,248.27L22.47,248.23L22.48,248.18L22.57,247.95L23.27,248.77L23.29,248.7L23.3,248.46L23.41,248.42L23.9,249.53L24.05,249.26L24.06,249.53L24.18,248.9L24.53,249.81L24.8,249.46L24.81,249.48L24.83,249.02L25.34,250.17L25.56,249.97L25.57,249.7L25.61,249.6L26.27,250.84L26.32,250.26L26.33,250.54L26.47,250.28L26.94,251.15L27.06,250.76L27.07,250.82L27.49,251.61L27.82,251.53L27.83,251.17L27.94,251.12L28.6,252.35L28.6,251.99L28.72,251.84L29.37,252.98L29.37,252.78L29.38,252.58L29.39,252.97L29.44,251.92L30.12,252.26L30.13,252.24L30.2,252.11L30.86,253.01L30.88,252.82L30.89,252.91L30.89,252.58L31.52,253.75L31.64,253.49L31.65,253.76L31.77,253.39L32.36,254.31L32.39,253.81L32.39,254.21L32.48,253.79L33.09,254.71L33.09,254.48L33.1,254.71L33.17,254.35L33.8,255.43L33.82,255.37L33.83,255.24L33.83,254.9L34.38,255.84L34.58,255.65L34.59,255.65L34.59,255.38L35.2,256.4L35.34,256.15L35.35,256.02L35.43,255.7L36.12,256.74L36.13,256.38L36.21,256.22L36.86,257.27L36.9,256.99L36.91,257.09L37.03,256.83L37.7,257.81L37.71,257.54L37.71,257.28L38.47,258.29L38.48,257.92L38.5,257.68L39.22,258.9L39.24,258.7L39.25,258.39L39.72,259.26L40,258.95L40.01,258.96L40.25,258.68L40.71,259.57L40.72,259.18L40.73,259.67L40.74,259.15L41.34,260.26L41.48,259.77L41.49,260.04L41.56,259.71L42.06,260.7L42.22,260.37L42.23,260.38L42.34,260.19L42.93,261.23L43.01,260.99L43.01,260.71L43.64,261.53L43.79,261.45L43.79,261.3L43.83,261.09L44.58,262.29L44.59,262.19L44.59,261.86L44.63,261.82L45.27,262.74L45.35,262.65L45.36,262.36L45.43,262.33L46.04,263.25L46.11,262.78L46.12,262.74L46.13,262.56L46.86,263.76L46.87,263.53L46.88,263.41L47.05,263.29L47.6,264.67L47.63,264.56L47.64,264.26L47.74,263.99L48.36,264.94L48.38,264.33L48.38,264.72L48.39,264.38L49.09,265.34L49.12,264.96L49.13,265.34L49.18,264.79L49.88,265.65L49.88,265.34L49.89,265.31L49.9,265.21L50.55,266.28L50.64,266.15L50.65,266.49L50.72,266L51.34,266.75L51.4,266.39L51.41,266.51L51.61,266.35L52.08,267.39L52.16,267.31L52.17,267.15L52.26,267.06L52.68,267.76L52.92,267.25L52.93,267.38L52.95,267.24L53.7,268.41L53.71,267.98L53.82,267.88L54.35,268.73L54.47,268.53L54.48,268.29L54.96,269.15L55.23,268.91L55.24,268.97L55.28,268.75L55.71,269.54L55.93,269.26L55.94,269.37L56,269.17L56.6,269.84L56.67,269.5L56.68,269.76L56.77,269.39L57.3,270.32L57.43,270.22L57.44,270.08L57.47,270L58.26,270.86L58.26,270.51L58.36,270.48L58.88,271.21L59.02,270.95L59.03,270.99L59.22,270.82L59.41,271.62L59.68,271.23L59.69,271.73L59.76,271.09L60.31,272.11L60.44,272.01L60.45,272.02L60.47,271.8L60.86,272.62L61.16,272.51L61.17,272.66L61.8,273.15L61.9,272.15L61.92,272.55L61.93,272.64L61.97,272.28L62.58,273.2L62.68,272.68L62.69,272.75L62.7,272.59L63.05,273.5L63.44,273.18L63.45,273.09L63.48,273.04L64.15,273.97L64.2,273.91L64.21,273.85L64.25,273.79L64.82,274.52L64.98,274.3L64.98,274.11L65.67,274.96L65.77,274.85L65.78,274.67L65.8,274.63L66.53,275.3L66.55,275.26L66.56,275.11L66.71,275L67.24,275.74L67.34,275.61L67.34,275.41L67.36,275.27L68.07,276.29L68.11,276.27L68.12,276L68.14,275.96L68.82,276.71L68.87,276.49L68.88,276.72L68.94,276.44L69.35,277.06L69.62,276.92L69.63,276.82L69.65,276.74L70.34,277.51L70.4,277.36L70.41,277.18L70.43,277.05L71.01,277.92L71.17,277.83L71.18,277.59L71.26,277.43L71.74,278.29L71.93,278.07L71.94,277.93L72,277.79L72.63,278.69L72.71,278.55L72.71,278.39L72.73,278.33L73.41,279.17L73.5,279.12L73.5,279.02L73.59,278.93L74.4,279.67L74.4,279.51L74.41,279.37L75.17,280.14L75.18,280.07L75.18,279.79L75.24,279.7L75.83,280.58L75.94,280.35L75.95,280.2L76.67,281.04L76.7,280.63L76.71,280.93L76.84,280.6L77.36,281.36L77.44,280.91L77.45,281.22L77.48,280.83L78.15,281.57L78.2,281.41L78.21,281.61L78.26,281.37L78.82,282.05L78.94,281.63L78.95,282L78.99,281.59L79.68,282.46L79.69,282.08L79.69,282.51L79.71,281.95L80.37,282.91L80.43,282.83L80.44,282.54L80.45,282.5L81.18,283.34L81.2,283.28L81.21,282.98L81.25,282.87L81.94,283.7L81.96,283.45L81.97,283.24L82.01,283.21L82.69,283.96L82.72,283.6L82.73,283.91L82.8,283.6L83.45,284.31L83.47,284.09L83.47,284.29L83.5,283.95L84.09,284.82L84.2,284.72L84.21,284.61L84.36,284.43L85.07,285.33L85.08,285.21L85.09,285.03L85.36,284.93L85.66,285.75L85.84,285.29L85.85,285.64L86.07,285.26L86.46,285.9L86.59,285.51L86.6,285.94L86.61,285.42L87.18,286.36L87.35,285.91L87.36,286.19L87.47,285.95L88.05,286.73L88.08,286.68L88.09,286.56L88.13,286.25L88.81,286.99L88.84,286.97L88.85,287.02L88.87,286.71L89.36,287.32L89.6,287.32L89.61,287.07L89.71,287.05L90.24,287.78L90.38,287.69L90.38,287.56L90.49,287.52L91.14,288.18L91.2,287.98L91.21,287.76L91.86,288.49L91.96,288.33L91.97,288.16L92.64,288.86L92.72,288.58L92.73,288.7L92.76,288.4L93.32,289.22L93.47,288.91L93.48,289.24L93.51,288.83L94.09,289.55L94.23,289.39L94.24,289.38L94.26,289.12L94.99,290L95,289.83L95.03,289.58L95.72,290.3L95.75,290.26L95.76,290.28L96.03,290.5L96.45,289.83L96.51,290.21L96.52,290.3L96.66,289.89L97.21,290.72L97.25,290.33L97.26,290.7L97.32,290.22L97.94,291.04L98.01,290.9L98.02,290.76L98.35,290.52L98.73,291.19L98.75,290.86L98.76,290.97L98.83,290.88L99.54,291.76L99.54,291.53L99.55,291.34L99.59,291.21L100.27,291.86L100.32,291.85L100.32,291.76L100.5,291.53L101,292.16L101.06,291.85L101.06,292.03L101.07,291.84L101.76,292.63L101.78,292.53L101.79,292.46L101.79,292.26L102.43,293.03L102.54,292.82L102.55,292.88L102.65,293L103.23,292.75L103.26,292.99L103.26,293.14L103.36,292.78L103.97,293.3L103.98,293.18L103.99,293.41L104.07,292.97L104.67,293.62L104.74,293.34L104.75,293.52L104.86,293.41L105.5,294L105.55,293.77L105.55,293.66L105.57,293.65L106.22,294.28L106.32,294.15L106.32,293.95L106.34,293.92L107.08,294.7L107.09,294.5L107.09,294.3L107.15,294.27L107.75,294.96L107.86,294.84L107.87,294.74L107.97,294.59L108.72,295.41L108.74,295.17L108.75,294.98L109.4,295.54L109.5,295.49L109.51,295.53L109.65,295.31L110.44,295.9L110.48,295.74L110.49,295.61L110.5,295.58L111.21,296.31L111.24,296.03L111.25,295.95L111.3,295.86L111.9,296.52L112,296.48L112.01,296.27L112.05,296.22L112.67,296.71L112.77,296.63L112.78,296.4L112.79,296.37L113.51,297.17L113.53,296.95L113.54,296.93L113.61,296.85L114.41,297.47L114.42,297.34L114.42,297.12L114.97,297.77L115.18,297.57L115.19,297.4L115.28,297.31L115.88,298.04L115.97,297.95L115.97,297.8L116.07,297.79L116.72,298.54L116.74,298.4L116.75,298.28L116.83,298.17L117.56,298.84L117.58,298.75L117.59,298.6L117.65,298.56L118.29,299.03L118.37,298.69L118.38,298.71L118.43,298.58L118.97,299.4L119.17,299.29L119.18,299.11L119.2,298.93L119.59,299.52L119.89,299.32L119.9,299.49L119.93,299.23L120.51,299.8L120.62,299.43L120.63,299.76L120.64,299.35L120.97,300.06L121.38,299.82L121.39,299.79L121.4,299.78L121.79,300.34L122.14,300.13L122.15,300.4L122.25,299.95L122.86,300.6L122.9,300.45L122.91,300.53L122.94,300.26L123.63,300.81L123.64,300.7L123.65,300.81L123.69,300.47L124.04,301.08L124.4,300.9L124.41,300.96L124.58,300.59L125.16,301.15L125.17,300.96L125.21,300.79L125.78,301.39L125.93,301.31L125.94,301.14L125.98,301.12L126.44,301.59L126.69,301.41L126.7,301.19L126.74,301.16L127.46,301.8L127.47,301.65L127.56,301.46L128.17,302.17L128.23,302.16L128.24,302.01L128.24,301.85L128.72,302.39L128.99,302.22L129,302.28L129.06,301.97L129.54,302.65L129.75,302.45L129.76,302.29L129.91,302.16L130.51,302.89L130.53,302.72L130.54,302.54L131.02,303.1L131.29,302.98L131.3,302.9L131.43,302.83L131.78,303.37L132.05,303.26L132.06,303.2L132.21,303.06L133.19,303.8L133.24,303.63L133.25,303.52L133.34,303.37L133.92,303.97L134,303.8L134.01,303.83L135.19,304.27L135.19,304.16L135.2,303.95L135.78,304.47L135.95,304.29L135.96,304.49L135.97,304.16L136.48,304.8L136.71,304.49L136.71,304.59L136.87,304.84L137.13,304.51L137.38,304.83L137.39,304.97L137.46,304.62L137.96,305.26L138.13,305.1L138.14,305.09L138.32,304.85L138.76,305.42L138.87,305.24L138.88,305.43L139.2,305.14L139.43,305.61L139.62,305.48L139.62,305.64L139.8,305.29L140.13,305.87L140.36,305.58L140.37,305.77L140.47,305.48L140.57,305.97L141.11,305.78L141.12,305.88L141.54,305.72L141.68,306.23L141.81,306.17L141.82,306.19L141.88,305.84L142.56,306.47L142.57,306.31L142.58,306.31L142.61,306.12L143.24,306.7L143.29,306.37L143.29,306.65L143.31,306.3L143.92,306.92L144.03,306.77L144.04,306.75L144.12,306.54L144.5,307.12L144.74,306.98L144.74,307.05L144.91,307.15L145.49,306.97L145.5,307.18L145.51,307.21L145.65,306.98L146.13,307.5L146.26,307.33L146.27,307.48L146.4,307.21L146.94,307.71L147.01,307.46L147.02,307.64L147.26,307.41L147.73,307.95L147.75,307.7L147.76,307.88L147.83,307.67L148.22,308.11L148.5,308.01L148.51,308.03L148.79,307.82L149.01,308.33L149.24,308.14L149.25,308.16L149.31,307.94L149.98,308.54L150,308.53L150.01,308.41L150.09,308.24L150.8,308.82L150.86,308.7L150.86,308.55L150.92,308.51L151.55,309.18L151.63,309.06L151.63,308.84L152.36,309.39L152.39,309.11L152.4,309.35L152.52,309.05L152.89,309.61L153.15,309.28L153.16,309.37L153.38,309.32L153.91,309.81L153.95,309.75L153.96,309.62L153.98,309.57L154.48,310.12L154.71,310.01L154.72,309.86L154.81,309.7L155.47,310.17L155.48,310.11L155.48,309.95L155.65,309.92L156.12,310.53L156.25,310.41L156.26,310.28L156.37,310.21L156.99,310.7L157.02,310.55L157.03,310.56L157.28,310.33L157.46,310.82L157.74,310.78L157.75,310.85L157.94,310.52L158.43,311.15L158.5,310.79L158.51,311.01L160.3,311.7L160.31,311.6L160.31,311.39L160.52,311.29L161.07,311.88L161.07,311.66L161.08,311.49L161.78,312.11L161.81,311.78L161.82,311.98L161.83,311.81L162.3,312.3L162.56,311.95L162.57,312.24L162.58,311.91L163.15,312.43L163.31,312.21L163.32,312.31L163.4,312.13L163.87,312.65L164.04,312.52L164.05,312.58L164.23,312.28L164.75,312.84L164.8,312.51L164.8,312.72L164.97,312.47L165.69,313.05L165.69,312.84L165.7,312.75L165.74,312.73L166.35,313.12L166.45,312.93L166.46,312.86L166.48,312.85L167.15,313.37L167.21,312.93L167.22,313.29L167.23,313.01L167.79,313.56L167.96,313.44L167.97,313.4L168.15,313.34L168.72,313.72L168.72,313.57L168.73,313.38L168.79,313.36L169.47,313.93L169.49,313.92L169.5,313.73L169.5,313.53L170.25,314.13L170.25,313.96L170.26,313.92L170.31,313.76L170.97,314.28L171.01,313.96L171.02,314.12L171.2,314.29L171.7,314.1L171.74,314.25L171.74,314.41L171.79,314.22L172.47,314.71L172.48,314.47L172.48,314.62L172.59,314.25L173.02,314.77L173.23,314.62L173.24,314.7L173.36,314.42L173.66,314.96L173.99,314.67L174,314.75L174.89,315.15L174.9,315.13L174.91,314.91L174.95,314.87L175.67,315.39L175.67,315.25L175.68,315.13L175.79,315.1L176.44,315.54L176.45,315.48L176.45,315.34L176.56,315.14L176.96,315.74L177.25,315.6L177.25,315.44L177.27,315.39L177.98,315.85L178.02,315.79L178.03,315.65L178.79,316.11L178.8,315.95L179.01,315.78L179.2,316.21L179.56,316.16L179.57,316.04L180.76,316.6L180.85,316.43L180.86,316.27L181.15,316.67L181.24,316.22L181.61,316.6L181.62,316.45L181.66,316.39L182.19,316.83L182.4,316.7L182.41,316.58L183.17,317.11L183.21,316.96L183.21,316.81L183.6,317.17L183.96,317.08L183.97,316.89L184.12,316.87L184.7,317.42L184.72,317.29L184.73,317.13L185.02,317.1L185.3,317.5L185.49,317.48L185.5,317.46L185.82,317.68L185.86,317.31L186.22,317.57L186.23,317.74L186.39,317.45L186.93,317.87L186.98,317.55L186.98,317.78L187.2,317.95L187.58,317.58L187.73,317.78L187.73,317.94L187.83,317.62L188.46,318.13L188.47,318.07L188.48,318.01L188.48,317.81L189.04,318.3L189.23,318.16L189.24,318.15L189.36,318.31L189.69,317.94L189.98,318.27L189.99,318.38L190.09,318.09L190.31,318.51L190.74,318.39L190.75,318.32L190.87,318.21L191.5,318.67L191.52,318.66L191.52,318.59L192.33,318.56L192.33,318.85L192.38,318.54L192.9,319.03L193.07,318.91L193.08,318.95L193.18,318.7L193.82,319.19L193.83,318.92L193.84,319.15L193.87,318.87L194.56,319.38L194.58,319.25L194.59,319.39L194.62,319.06L195.32,319.56L195.33,319.27L195.34,319.5L195.35,319.28L196.08,319.73L196.09,319.54L196.09,319.38L196.5,319.79L196.84,319.68L196.85,319.67L197.23,319.5L197.49,320.03L197.6,319.89L197.61,319.99L197.73,319.67L198.31,320.27L198.36,319.99L198.37,320.17L198.49,319.95L199.09,320.35L199.11,320.29L199.12,320.23L199.28,320.1L199.91,320.48L199.91,320.4L199.92,320.21L200.07,320.19L200.46,320.6L200.67,320.45L200.68,320.55L200.68,320.28L200.98,320.72L201.43,320.64L201.44,320.64L201.6,320.77L202.13,320.58L202.15,320.82L202.15,320.92L202.18,320.59L202.87,321.07L202.89,321.01L202.9,320.99L203.1,320.72L203.63,321.17L203.65,321.16L203.66,321.07L204.73,321.38L204.79,321.25L204.79,321.14L204.87,321.34L204.96,320.85L205.53,321.23L205.54,321.08L205.81,321.29L206.21,321.09L206.25,321.14L206.26,321.32L206.31,321.12L206.69,321.59L206.99,321.45L207,321.56L207.03,321.27L207.23,321.67L207.75,321.48L207.76,321.45L208.01,321.33L208.55,321.76L208.57,321.69L208.58,321.53L209.3,321.92L209.34,321.78L209.35,321.66L210.04,322.05L210.1,321.96L210.11,321.81L210.46,322.15L210.86,322.07L210.87,322.11L211,322.02L211.75,322.52L211.76,322.41L211.76,322.21L212.34,322.52L212.52,322.49L212.53,322.37L212.59,322.31L213.27,322.72L213.33,322.68L213.34,322.63L213.49,322.77L214.05,322.57L214.11,322.79L214.12,322.82L214.24,322.59L214.78,323.01L214.86,322.92L214.86,323L215.31,323.08L215.41,322.73L215.6,322.96L215.61,323.04L216.39,323.01L216.4,323.26L216.5,322.93L217.11,323.41L217.14,323.22L217.15,323.4L217.41,323.16L217.87,323.54L217.9,323.29L217.91,323.55L218.07,323.18L218.54,323.64L218.65,323.37L218.66,323.57L218.77,323.34L219.32,323.79L219.41,323.5L219.41,323.74L219.48,323.49L220.08,323.88L220.15,323.71L220.16,323.87L220.19,323.65L220.86,324.06L220.91,323.84L220.91,324.02L220.93,323.77L221.2,324.18L221.66,323.98L221.67,323.92L222.19,324.31L222.42,324.26L222.43,324.09L222.7,324.02L223.07,324.4L223.18,324.3L223.19,324.19L223.29,324.14L224.03,324.55L224.1,324.39L224.1,324.36L224.22,324.3L224.72,324.7L224.9,324.57L224.9,324.41L225.5,324.81L225.65,324.71L225.66,324.58L225.7,324.57L226.24,324.95L226.44,324.78L226.45,324.74L227.37,325.16L227.41,324.99L227.42,324.81L228.12,325.29L228.17,325.21L228.18,325.18L228.18,325.02L228.85,325.43L228.93,325.29L228.94,325.39L228.97,325.1L229.62,325.54L229.69,325.3L229.7,325.52L229.71,325.57L229.85,325.24L230.45,325.45L230.46,325.38L230.51,325.28L231.22,325.69L231.23,325.52L231.27,325.46L231.99,325.83L232.02,325.8L232.02,325.65L232.7,326.09L232.81,325.95L232.82,325.78L233,326.15L233.57,326.05L233.58,325.97L234.35,326.25L234.41,326.21L234.41,326.08L234.51,326.04L235.12,326.44L235.22,326.33L235.23,326.18L235.99,326.51L235.99,326.4L236,326.3L236.54,326.27L236.76,326.6L236.77,326.53L237.84,326.78L237.84,326.64L237.85,326.57L238.59,326.93L238.61,326.76L238.62,326.89L239.07,327.05L239.31,326.67L239.37,326.72L239.38,326.97L239.4,326.7L239.78,327.12L240.12,327.07L240.13,327.1L240.5,326.93L240.65,327.29L240.88,327.11L240.89,327.2L241.87,327.3L241.89,327.44L241.9,327.47L242.42,327.31L242.52,327.62L242.65,327.39L242.65,327.64L242.81,327.68L243.11,327.42L243.4,327.57L243.41,327.71L243.47,327.45L244.11,327.84L244.15,327.71L244.16,327.77L244.23,327.81L244.9,327.67L244.91,327.77L244.92,327.9L244.93,327.66L245.57,328.04L245.66,327.92L245.67,328.05L245.68,327.77L246.4,328.19L246.41,328.18L246.42,328.08L247.45,328.1L247.45,328.33L247.9,328.11L248.18,328.44L248.2,328.33L248.21,328.46L248.47,328.2L248.92,328.54L248.96,328.47L248.97,328.44L249.01,328.26L249.18,328.58L249.7,328.62L249.71,328.6L249.79,328.66L250.55,328.46L250.56,328.63L250.57,328.69L250.74,328.83L251.28,328.63L251.3,328.68L251.31,328.91L251.36,328.61L252.02,329.01L252.06,328.88L252.07,328.8L252.15,328.75L252.94,329.09L252.94,328.92L252.99,328.89L253.71,329.22L253.72,329.05L253.86,328.95L254.3,329.35L254.47,329.27L254.48,329.13L255.22,329.48L255.26,329.36L255.27,329.23L255.44,329.2L256.04,329.65L256.05,329.61L256.6,329.39L256.75,329.73L256.8,329.55L256.8,329.66L257.15,329.44L257.43,329.78L257.54,329.77L257.55,329.76L257.78,329.56L258.3,329.79L258.31,329.89L258.43,329.95L258.66,329.66L259.06,329.92L259.07,329.95L259.15,330.06L259.79,329.84L259.85,329.9L259.86,330.08L260.39,330.24L260.49,329.92L260.61,330.01L260.62,330.08L261.54,330.41L261.64,330.2L261.64,330.16L262.39,330.47L262.43,330.41L262.44,330.33L262.56,330.28L263.19,330.6L263.19,330.53L263.2,330.43L263.73,330.76L263.96,330.6L263.97,330.51L264.15,330.5L264.64,330.85L264.72,330.83L264.73,330.64L265.51,330.93L265.51,330.8L265.52,330.83L265.52,330.98L265.65,330.66L266.27,330.96L266.28,330.83L267.42,331.13L267.43,331.05L267.43,330.9L268.22,331.26L268.22,331.17L268.23,331.03L268.99,331.36L269.01,331.33L269.02,331.17L269.04,331.12L269.7,331.5L269.77,331.37L269.78,331.24L269.87,331.21L270.03,331.54L270.53,331.42L270.54,331.38L270.68,331.29L271.48,331.67L271.48,331.56L271.49,331.45L271.61,331.41L272.14,331.82L272.24,331.57L272.25,331.77L272.34,331.5L272.92,331.87L273,331.76L273.01,331.73L273.11,331.79L273.65,331.66L273.74,331.8L273.74,331.98L273.83,331.69L274.31,332.07L274.48,331.91L274.49,332.02L274.74,332.14L275.03,331.83L275.23,332.04L275.24,332.09L275.62,331.94L275.82,332.28L275.99,332.06L276,332.19L276.19,332L276.63,332.37L276.74,332.24L276.75,332.34L277.16,332.14L277.22,332.46L277.5,332.26L277.5,332.46L277.63,332.54L278.13,332.25L278.27,332.33L278.27,332.43L278.32,332.23L278.76,332.61L279.02,332.45L279.03,332.59L279.61,332.38L279.73,332.7L279.78,332.52L279.79,332.56L279.86,332.47L280.44,332.86L280.56,332.69L280.57,332.56L280.67,332.55L281.29,332.92L281.32,332.77L281.33,332.9L281.61,333.01L281.99,332.7L282.07,332.84L282.08,332.94L283.64,333.25L283.65,333.21L283.65,333.09L283.89,333.03L284.38,333.35L284.41,333.3L284.41,333.2L284.53,333.14L285.21,333.41L285.25,333.33L285.26,333.24L285.48,333.21L285.66,333.54L286.01,333.41L286.02,333.24L286.63,333.59L286.77,333.53L286.78,333.36L286.84,333.32L287.48,333.77L287.53,333.53L287.54,333.5L287.59,333.48L288.16,333.83L288.36,333.74L288.36,333.65L288.53,333.55L289.06,333.88L289.16,333.79L289.16,333.67L289.99,333.98L290,333.93L290,333.86L290.08,333.78L290.69,334.11L290.76,334.01L290.77,333.96L292.87,334.29L292.88,334.24L292.89,334.09L293.53,334.48L293.64,334.21L293.65,334.37L294.91,334.37L294.92,334.5L294.96,334.53L295.36,334.33L295.67,334.47L295.68,334.54L295.99,334.71L296.16,334.41L296.41,334.57L296.42,334.72L297.1,334.91L297.17,334.62L297.17,334.74L297.18,334.82L297.21,334.6L297.79,335.03L297.92,334.94L297.92,335.01L298.18,335.17L298.66,334.91L298.76,334.99L298.76,335.08L299.65,334.96L299.71,335.06L299.72,335.19L299.81,335.02L300.41,335.34L300.46,335.14L300.47,335.29L301.81,335.35L301.82,335.51L302.55,335.28L302.58,335.37L302.59,335.47L302.71,335.56L303.09,335.39L303.32,335.53L303.33,335.64L303.99,335.59L304.1,335.7L304.1,335.78L304.24,335.85L304.81,335.61L304.85,335.71L304.86,335.86L304.89,335.59L305.33,335.93L305.61,335.84L305.62,335.8L307.13,336.05L307.14,336.02L307.14,335.86L307.64,336.19L307.9,336.02L307.91,336.02L308.32,335.98L308.39,336.24L308.66,336.24L308.67,336.16L309.61,336.39L309.67,336.33L309.68,336.18L309.72,336.12L310.02,336.45L310.45,336.31L310.46,336.25L310.49,336.17L311.02,336.55L311.21,336.49L311.22,336.39L312.11,336.66L312.12,336.54L312.13,336.39L312.44,336.71L312.88,336.64L312.89,336.63L314.13,336.91L314.14,336.85L314.14,336.75L314.95,336.99L314.97,336.95L314.98,336.86L315.13,336.76L315.65,337.12L315.74,336.97L315.75,336.89L316.02,337.16L316.22,336.82L316.5,336.92L316.51,336.96L317.39,336.84L317.49,336.97L317.49,337.05L318.42,337.2L318.43,336.98L319.06,337.28L319.18,337.14L319.19,337.05L319.27,337.02L319.79,337.34L319.94,337.26L319.95,337.36L320.56,337.49L320.71,337.21L320.71,337.4L321.55,337.35L321.58,337.47L321.58,337.51L322.41,337.43L322.43,337.45L322.43,337.58L322.44,337.42L323.08,337.74L323.17,337.74L323.18,337.66L324.51,337.66L324.51,337.72L324.52,337.84L324.72,337.65L325.14,337.95L325.26,337.75L325.27,337.93L325.3,337.74L325.58,338.11L326.02,337.89L326.03,337.9L327.44,338.21L327.44,338.15L327.45,338.02L328.05,338.32L328.21,338.13L328.22,338.1L329.04,338.28L329.05,338.21L329.05,338.09L329.76,338.46L329.81,338.31L329.82,338.37L330.8,338.52L330.81,338.38L331.54,338.64L331.6,338.59L331.61,338.45L331.77,338.43L332.29,338.69L332.37,338.64L332.38,338.54L333.33,338.73L333.34,338.69L333.34,338.61L333.65,338.54L334.04,338.87L334.11,338.66L334.12,338.64L334.92,338.91L334.96,338.86L334.97,338.77L335.07,338.74L335.73,338.99L335.75,338.95L335.76,338.88L336.68,339.08L336.68,338.97L336.69,338.87L337.44,339.26L337.45,339.19L337.46,339.05L338.36,339.23L338.37,339.14L338.37,339.02L339.07,339.41L339.15,339.28L339.16,339.22L340.18,339.47L340.2,339.34L340.21,339.26L340.32,339.23L340.8,339.52L340.96,339.38L340.97,339.44L342.18,339.43L342.2,339.54L342.21,339.58L342.97,339.52L342.98,339.7L343.2,339.52L343.52,339.86L343.72,339.74L343.73,339.8L343.8,339.57L344.2,339.9L344.48,339.83L344.49,339.79L344.51,339.64L344.88,339.94L345.23,339.79L345.24,339.89L346.11,339.87L346.11,339.95L346.12,340.05L346.22,340.09L346.79,339.87L346.87,340L346.87,340.09L346.93,340.15L347.56,339.94L347.66,340L347.66,340.14L347.74,340.2L348.14,339.97L348.43,340.09L348.43,340.22L349.58,340.34L349.58,340.32L349.59,340.19L350,340.16L350.14,340.42L350.34,340.26L350.35,340.21L350.46,340.19L351.02,340.45L351.1,340.29L351.11,340.36L352.5,340.55L352.51,340.53L352.51,340.38L353.14,340.65L353.27,340.54L353.28,340.57L354.91,340.91L354.92,340.81L354.93,340.69L355.06,340.93L355.23,340.64L355.68,340.73L355.69,340.89L356.65,340.96L356.65,340.88L356.66,340.78L356.72,340.77L357.4,341.09L357.42,340.97L357.43,340.88L357.49,341.1L358.16,340.8L358.18,340.93L358.19,341.04L359.02,340.96L359.07,341.1L359.07,341.17L359.93,341.09L359.93,341.19L361.34,341.37L361.36,341.33L361.37,341.19L362.16,341.43L362.17,341.37L362.17,341.28L362.21,341.27L362.93,341.52L362.93,341.51L362.94,341.37L363.81,341.54L363.82,341.47L363.82,341.42L363.94,341.36L364.6,341.67L364.66,341.58L364.67,341.46L364.77,341.45L365.41,341.68L365.43,341.61L365.43,341.57L365.51,341.52L366.19,341.78L366.23,341.64L366.24,341.6L367.13,341.83L367.15,341.81L367.16,341.68L367.29,341.64L367.89,341.9L367.93,341.87L367.94,341.75L368,341.71L368.7,341.98L368.72,341.95L368.73,341.84L368.86,341.77L369.47,342.07L369.49,342L369.5,341.88L369.58,341.86L370.25,342.1L370.27,342.02L370.28,341.9L370.89,342.17L371.05,342.12L371.05,342.02L371.13,341.98L371.8,342.2L371.82,342.16L371.82,342.05L372.66,342.26L372.7,342.23L372.71,342.13L372.78,342.07L373.44,342.31L373.47,342.18L373.48,342.15L374.54,342.47L374.54,342.39L374.55,342.32L374.63,342.29L375.31,342.48L375.34,342.44L375.35,342.33L375.41,342.28L376.14,342.55L376.15,342.44L377.24,342.46L377.24,342.6L377.94,342.49L378.03,342.55L378.04,342.67L378.32,342.78L378.79,342.64L378.8,342.8L378.92,342.88L379.54,342.59L379.56,342.64L379.57,342.79L380.55,342.75L380.56,342.9L381.64,342.83L381.64,343.03L381.82,342.77L382.25,343.08L382.39,342.88L382.4,343L382.51,343.09L383.07,342.8L383.23,343.03L383.24,343.05L384.03,343.01L384.03,343.19L384.05,343.21L384.47,342.99L384.78,343.05L384.79,343.19L385.56,343.15L385.6,343.2L385.6,343.33L385.71,343.39L386.36,343.22L386.38,343.24L386.39,343.38L386.95,343.22L387.14,343.34L387.15,343.41L388.16,343.36L388.18,343.39L388.19,343.52L389.03,343.39L389.06,343.48L389.07,343.6L389.64,343.45L389.84,343.53L389.85,343.62L391.48,343.81L391.53,343.71L391.54,343.63L392.1,343.89L392.31,343.81L392.32,343.75L393.11,344.05L393.13,343.9L393.14,343.81L393.84,344.05L393.93,343.95L393.93,343.86L394.02,343.84L394.48,344.13L394.7,343.97L394.7,343.89L394.76,343.87L395.44,344.11L395.46,344.04L395.46,344.02L396.39,344.26L396.45,344.14L396.46,344.07L396.82,343.98L397.23,344.21L397.24,344.08L397.3,344.05L397.98,344.35L398,344.22L398.01,344.2L399.41,344.43L399.42,344.36L399.42,344.29L399.5,344.24L400.24,344.52L400.28,344.43L400.29,344.35L400.35,344.33L401,344.54L401.06,344.46L401.07,344.37L401.14,344.34L401.64,344.65L401.85,344.6L401.85,344.53L402.83,344.69L402.84,344.59L402.84,344.54L402.92,344.51L403.62,344.8L403.62,344.66L403.63,344.63L403.65,344.61L404.32,344.84L404.38,344.77L404.39,344.71L404.56,344.61L405.16,344.93L405.18,344.91L405.19,344.74L405.21,344.71L405.95,344.97L405.95,344.86L406.05,344.78L406.73,344.98L406.74,344.86L406.75,344.83L407.83,345.15L407.92,344.99L407.92,344.93L408.6,345.17L408.69,345.1L408.7,345.01L408.78,344.99L409.47,345.2L409.48,345.16L409.48,345.06L410.41,345.31L410.45,345.15L410.45,345.1L410.47,345.09L411.17,345.32L411.2,345.24L411.21,345.15L411.28,345.14L411.56,345.41L411.97,345.32L411.97,345.2L412.86,345.46L412.86,345.41L412.87,345.3L413.24,345.21L413.6,345.45L413.63,345.35L413.64,345.33L414.58,345.56L414.6,345.44L414.61,345.41L414.62,345.37L415.22,345.68L415.36,345.57L415.37,345.57L416.45,345.56L416.46,345.59L416.46,345.7L417.19,345.59L417.23,345.7L417.24,345.71L417.35,345.78L418.03,345.66L418.06,345.77L418.06,345.81L418.86,345.71L418.9,345.82L418.9,345.93L419.27,345.7L419.66,345.84L419.67,345.87L420.84,345.83L420.85,346.03L421.31,346.06L421.52,345.82L421.6,345.93L421.61,346L422.58,345.99L422.59,346.17L422.93,345.94L423.33,346.22L423.34,346.14L423.35,346.07L424.37,346.28L424.4,346.18L424.4,346.11L425.16,346.39L425.22,346.35L425.23,346.26L426.38,346.43L426.43,346.34L426.44,346.22L426.99,346.54" style="vector-effect: non-scaling-stroke; fill: none; stroke: rgb(28, 167, 28); stroke-opacity: 1; stroke-width: 2px; opacity: 1;"/></g><g class="points"/><g class="text"/></g><g class="trace scatter trace145d7f" style="stroke-miterlimit: 2; opacity: 1;"><g class="fills"/><g class="errorbars"/><g class="lines"><path class="js-line" d="M0,190.99L0.68,394.89L0.77,394.71L0.78,394.63L0.83,394.87L1.52,394.05L1.53,394.17L1.54,394.26L1.57,394.28L2.28,393.38L2.29,393.43L2.3,393.44L2.3,393.6L3.01,392.83L3.05,392.83L3.06,392.92L3.1,393.09L3.71,392.48L3.78,392.72L3.79,392.46L3.81,392.73L4.52,392.25L4.53,392.34L4.54,392.3L4.54,392.5L5.24,392.08L5.29,392.08L5.3,392.28L5.33,392.37L6.01,392.02L6.05,392.03L6.06,392.31L6.64,392.01L6.81,392.28L6.82,392.01L6.96,391.98L7.11,392.28L7.56,392.2L7.57,391.96L7.73,391.94L8.11,392.26L8.32,392.03L8.33,392L8.41,391.94L8.9,392.3L9.08,392.08L9.09,392.27L9.11,392L9.8,392.33L9.84,392.06L9.85,392.33L9.87,392.34L10.14,392.05L10.6,392.13L10.61,392.38L10.63,392.1L10.98,392.47L11.35,392.25L11.36,392.46L11.43,392.21L11.97,392.56L12.11,392.53L12.12,392.31L12.84,392.71L12.87,392.62L12.88,392.61L12.99,392.72L13.42,392.41L13.63,392.47L13.64,392.64L13.65,392.46L14.35,392.87L14.39,392.61L14.39,392.76L14.56,392.61L15.05,392.98L15.11,392.74L15.12,392.98L15.19,392.73L15.83,393.2L15.87,393.11L15.88,392.94L15.97,392.93L16.58,393.32L16.63,393.17L16.64,393.32L16.64,393.1L17.33,393.48L17.39,393.47L17.4,393.29L17.45,393.23L18.14,393.67L18.15,393.64L18.16,393.41L18.18,393.4L18.92,393.84L18.92,393.6L18.94,393.58L19.66,394.02L19.7,393.99L19.7,393.77L20.46,394.14L20.47,393.9L21.16,394.37L21.22,394.14L21.23,394.32L21.37,394.12L21.93,394.53L21.97,394.31L21.97,394.54L22.07,394.31L22.64,394.74L22.71,394.51L22.72,394.71L22.9,394.5L23.44,394.95L23.45,394.76L23.46,394.95L23.48,394.72L24.21,395.16L24.21,395.01L24.22,394.97L24.29,394.92L24.97,395.34L24.99,395.31L24.99,395.09L25.76,395.55L25.76,395.39L25.8,395.31L26.5,395.76L26.52,395.74L26.53,395.53L27.19,395.93L27.28,395.84L27.29,395.73L27.38,395.71L28.03,396.15L28.04,396L28.05,396.12L28.14,395.94L28.77,396.38L28.78,396.29L28.79,396.31L28.88,396.4L29.52,396.37L29.55,396.47L29.55,396.56L29.56,396.37L30.06,396.74L30.3,396.57L30.31,396.63L30.38,396.57L31.22,397.02L31.23,396.82L31.25,396.81L31.99,397.23L32,397.03L32.75,397.47L32.75,397.26L32.76,397.37L33.9,397.83L33.92,397.77L33.92,397.62L34.68,398.02L34.68,397.9L34.69,397.87L34.74,397.84L35.44,398.22L35.47,398.17L35.48,398.05L36.18,398.48L36.23,398.46L36.24,398.38L36.32,398.3L37.26,398.75L37.26,398.57L38,398.99L38.03,398.91L38.03,398.81L38.09,398.79L38.87,399.19L38.88,399.06L38.89,399.04L38.92,399.01L39.63,399.42L39.64,399.28L39.65,399.25L40.32,399.62L40.4,399.48L40.41,399.64L40.5,399.45L41.06,399.84L41.15,399.68L41.16,399.83L41.61,400.02L41.88,399.86L41.88,400.07L41.92,399.89L42.52,400.27L42.62,400.13L42.63,400.27L42.63,400.08L43.35,400.47L43.38,400.44L43.39,400.36L44.56,400.79L44.56,400.69L44.57,400.62L45.32,400.98L45.32,400.85L45.33,400.83L45.34,400.82L46.06,401.2L46.08,401.18L46.09,401.01L46.79,401.38L46.84,401.38L46.85,401.31L49.05,402L49.06,401.97L49.07,401.81L49.82,402.15L49.83,402.08L49.84,402.12L50.66,402.23L50.67,402.39L50.69,402.23L51.36,402.58L51.41,402.54L51.42,402.53L53.19,402.98L53.19,402.83L53.95,403.2L53.96,403.08L54.95,403.46L54.95,403.29L55.69,403.65L55.71,403.62L55.72,403.49L56.49,403.8L56.49,403.72L56.5,403.67L56.53,403.65L57.23,403.98L57.26,403.97L57.27,403.94L58.9,404.38L58.9,404.33L58.91,404.24L59.6,404.55L59.66,404.51L59.67,404.52L61.62,404.98L61.63,404.84L62.46,405.2L62.5,405.14L62.5,405.05L63.28,405.36L63.29,405.29L63.3,405.24L64.17,405.57L64.19,405.54L64.2,405.43L64.99,405.75L65,405.74L65.01,405.62L66.05,405.95L66.05,405.84L66.06,405.81L66.87,406.13L66.89,406.09L66.9,405.98L67.66,406.28L67.67,406.26L67.68,406.14L68.44,406.45L68.44,406.32L68.45,406.35L70.32,406.76L70.33,406.63L71.09,406.96L71.11,406.93L71.11,406.82L71.97,407.08L71.99,407.07L72,406.96L72.75,407.26L72.78,407.25L72.79,407.17L74.43,407.56L74.45,407.5L74.46,407.44L75.54,407.74L75.54,407.63L76.39,407.86L76.39,407.85L76.4,407.76L77.11,407.99L77.18,407.95L77.19,407.88L78.04,408.18L78.05,408.06L78.93,408.32L78.94,408.22L80.3,408.49L80.31,408.39L81.21,408.67L81.22,408.55L82.11,408.81L82.14,408.78L82.15,408.68L83.02,408.93L83.05,408.91L83.06,408.82L84.13,409.14L84.14,409.03L85.25,409.31L85.26,409.3L85.27,409.18L86.15,409.41L86.16,409.31L87.15,409.58L87.16,409.47L88.11,409.74L88.15,409.71L88.15,409.62L89.36,409.86L89.36,409.81L89.37,409.77L90.79,410.07L90.8,410.04L90.8,409.97L91.71,410.22L91.72,410.11L92.91,410.36L92.93,410.29L92.94,410.26L93.96,410.5L93.96,410.47L93.97,410.42L95.93,410.81L95.94,410.69L96.86,410.85L96.86,410.79L96.87,410.76L98.21,411.01L98.23,410.98L98.23,410.91L99.37,411.18L99.4,411.15L99.41,411.08L100.74,411.27L100.74,411.2L101.73,411.41L101.73,411.31L102.81,411.58L102.82,411.49L104.15,411.72L104.15,411.65L104.16,411.63L105.12,411.81L105.14,411.78L105.15,411.7L106.4,411.98L106.41,411.88L107.37,412.03L107.39,412.01L107.4,411.92L108.39,412.11L108.39,412.02L109.71,412.21L109.72,412.14L110.83,412.31L110.84,412.24L112.47,412.46L112.48,412.37L113.7,412.59L113.71,412.54L113.71,412.52L115.53,412.78L115.53,412.69L117.1,412.85L117.1,412.76L118.28,412.96L118.28,412.91L118.29,412.87L119.97,413.08L119.98,413.02L122.38,413.31L122.39,413.23L126.15,413.54L126.15,413.49L126.16,413.46L127.21,413.63L127.22,413.56L129.06,413.71L129.07,413.65L130.44,413.81L130.44,413.73L132.12,413.97L132.13,413.89L134.4,414.13L134.4,414.1L134.41,414.05L135.85,414.16L135.86,414.13L135.87,414.07L137.64,414.24L137.65,414.17L138.63,414.37L138.64,414.36L138.65,414.29L140.41,414.39L140.42,414.33L143.32,414.62L143.32,414.59L143.33,414.54L147.3,414.73L147.3,414.78L148.67,414.85L148.67,414.87L148.68,414.93L150.08,414.88L150.09,414.93L150.1,414.95L151.13,414.9L151.15,414.93L151.16,415L154.27,415.13L154.27,415.07L157.88,415.28L157.88,415.36L159.09,415.31L159.09,415.36L159.1,415.38L160.25,415.4L160.26,415.49L162.03,415.39L162.04,415.46L163.79,415.45L163.8,415.49L165.23,415.47L165.24,415.5L165.24,415.54L166.77,415.5L166.78,415.57L170.06,415.75L170.06,415.72L170.07,415.67L174.35,415.9L174.35,415.86L174.36,415.82L178.3,415.99L178.3,416.06L180.13,416.09L180.13,416.03L183.46,416.21L183.46,416.17L183.47,416.15L198.2,416.52L198.21,416.49L201.73,416.71L201.74,416.78L202.66,416.61L202.67,416.67L203.92,416.68L203.92,416.7L203.93,416.72L205.71,416.71L205.71,416.78L206.78,416.78L206.8,416.75L206.8,416.7L211.11,416.93L211.12,416.87L224.89,417.16L224.9,417.1L226.36,417.16L226.37,417.14L226.38,417.1L227.93,417.31L227.93,417.26L229.01,417.32L229.01,417.28L229.02,417.28L233.36,417.4L233.37,417.46L235.44,417.34L235.45,417.39L238.36,417.45L238.37,417.39L240.12,417.4L240.13,417.45L240.13,417.46L241.17,417.4L241.17,417.4L241.18,417.37L247.24,417.55L247.25,417.5L258.37,417.68L258.38,417.65L259.32,417.87L259.36,417.73L259.37,417.71L263.01,417.71L263.02,417.76L264.24,417.76L264.25,417.78L264.26,417.83L265.45,417.91L265.46,417.97L266.98,417.78L266.98,417.83L268.22,417.95L268.23,417.92L268.24,417.87L269.46,417.77L269.47,417.83L270.72,417.88L270.72,417.91L270.73,417.95L271.84,417.83L271.84,417.89L271.85,417.9L279.44,418.1L279.44,418.15L280.32,417.9L280.35,417.93L280.36,417.93L281.38,417.99L281.41,417.95L281.42,417.92L282.44,417.98L282.47,417.95L282.48,417.9L283.74,418.16L283.77,418.11L283.78,418.07L284.82,417.93L284.83,417.99L286.52,418.12L286.53,418.15L286.53,418.18L288.18,418.15L288.18,418.2L290.06,418.04L290.07,418.09L291.26,418.28L291.27,418.26L291.27,418.22L292.09,418.05L292.22,418.15L292.23,418.19L296.5,418.05L296.5,418.09L306.75,418.16L306.75,418.1L308.27,418.2L308.28,418.15L309.62,418.14L309.63,418.09L310.57,418.16L310.57,418.12L316.41,418.23L316.41,418.2L323.6,418.23L323.61,418.2L324.65,418.32L324.66,418.27L325.66,418.43L325.66,418.42L325.67,418.4L327.32,418.42L327.33,418.47L328.42,418.32L328.43,418.27L329.34,418.41L329.36,418.39L329.37,418.34L333.37,418.32L333.37,418.31L334.87,418.38L334.87,418.36L334.88,418.32L336.6,418.39L336.61,418.34L341.51,418.41L341.51,418.39L343.5,418.61L343.5,418.64L352.25,418.54L352.25,418.51L356.33,418.52L356.33,418.47L358.67,418.66L358.67,418.6L361.08,418.54L361.08,418.58L371.67,418.65L371.67,418.61L372.73,418.87L372.74,418.83L373.68,418.64L373.69,418.61L375.69,418.66L375.69,418.61L379.47,418.66L379.47,418.63L379.48,418.62L384.24,418.79L384.25,418.75L385.87,419.04L385.87,419.02L385.88,418.99L386.61,418.7L386.73,418.85L386.73,418.91L387.68,418.68L387.69,418.65L391.51,418.8L391.51,418.76L393.31,418.78L393.31,418.77L393.32,418.74L400.31,418.8L400.31,418.8L400.32,418.75L402.79,418.86L402.79,418.82L410.62,418.83L410.63,418.77L411.6,418.91L411.62,418.87L411.63,418.85L413.24,419.05L413.24,419.08L413.25,419.09L413.9,418.92L414.05,419.08L414.05,419.12L416.98,419.01L416.98,419.05L417.93,419.04L417.96,418.96L417.97,418.91L419.11,419.19L419.12,419.24L420.69,418.87L420.7,418.9L422.02,419.01L422.04,418.96L422.05,418.93L423.36,419.21L423.41,419.12L423.42,419.07L424.49,418.91L424.49,418.94L426.19,419.1L426.2,419.14L426.21,419.14L426.99,418.99L426.99,418.92" style="vector-effect: non-scaling-stroke; fill: none; stroke: rgb(182, 129, 0); stroke-opacity: 1; stroke-width: 2px; opacity: 1;"/></g><g class="points"/><g class="text"/></g></g></g><g class="overplot"/><path class="xlines-above crisp" d="M57,438H486" style="fill: none; stroke-width: 2px; stroke: rgb(0, 0, 0); stroke-opacity: 1;"/><path class="ylines-above crisp" d="M58,10V437" style="fill: none; stroke-width: 2px; stroke: rgb(0, 0, 0); stroke-opacity: 1;"/><g class="overlines-above"/><g class="xaxislayer-above"><path class="xtick ticks crisp" d="M0,439v5" transform="translate(59,0)" style="stroke: rgb(68, 68, 68); stroke-opacity: 1; stroke-width: 1px;"/><path class="xtick ticks crisp" d="M0,439v5" transform="translate(130.17000000000002,0)" style="stroke: rgb(68, 68, 68); stroke-opacity: 1; stroke-width: 1px;"/><path class="xtick ticks crisp" d="M0,439v5" transform="translate(201.33,0)" style="stroke: rgb(68, 68, 68); stroke-opacity: 1; stroke-width: 1px;"/><path class="xtick ticks crisp" d="M0,439v5" transform="translate(272.5,0)" style="stroke: rgb(68, 68, 68); stroke-opacity: 1; stroke-width: 1px;"/><path class="xtick ticks crisp" d="M0,439v5" transform="translate(343.67,0)" style="stroke: rgb(68, 68, 68); stroke-opacity: 1; stroke-width: 1px;"/><path class="xtick ticks crisp" d="M0,439v5" transform="translate(414.83,0)" style="stroke: rgb(68, 68, 68); stroke-opacity: 1; stroke-width: 1px;"/><path class="xtick ticks crisp" d="M0,439v5" transform="translate(486,0)" style="stroke: rgb(68, 68, 68); stroke-opacity: 1; stroke-width: 1px;"/><g class="xtick"><text text-anchor="middle" x="0" y="465.6" transform="translate(59,0)" style="font-family: 'Times New Roman', monospace; font-size: 18px; fill: rgb(105, 105, 105); fill-opacity: 1; white-space: pre; opacity: 1;">0</text></g><g class="xtick"><text text-anchor="middle" x="0" y="465.6" style="font-family: 'Times New Roman', monospace; font-size: 18px; fill: rgb(105, 105, 105); fill-opacity: 1; white-space: pre; opacity: 1;" transform="translate(130.17000000000002,0)">20</text></g><g class="xtick"><text text-anchor="middle" x="0" y="465.6" style="font-family: 'Times New Roman', monospace; font-size: 18px; fill: rgb(105, 105, 105); fill-opacity: 1; white-space: pre; opacity: 1;" transform="translate(201.33,0)">40</text></g><g class="xtick"><text text-anchor="middle" x="0" y="465.6" style="font-family: 'Times New Roman', monospace; font-size: 18px; fill: rgb(105, 105, 105); fill-opacity: 1; white-space: pre; opacity: 1;" transform="translate(272.5,0)">60</text></g><g class="xtick"><text text-anchor="middle" x="0" y="465.6" style="font-family: 'Times New Roman', monospace; font-size: 18px; fill: rgb(105, 105, 105); fill-opacity: 1; white-space: pre; opacity: 1;" transform="translate(343.67,0)">80</text></g><g class="xtick"><text text-anchor="middle" x="0" y="465.6" style="font-family: 'Times New Roman', monospace; font-size: 18px; fill: rgb(105, 105, 105); fill-opacity: 1; white-space: pre; opacity: 1;" transform="translate(414.83,0)">100</text></g><g class="xtick"><text text-anchor="middle" x="0" y="465.6" style="font-family: 'Times New Roman', monospace; font-size: 18px; fill: rgb(105, 105, 105); fill-opacity: 1; white-space: pre; opacity: 1;" transform="translate(486,0)">120</text></g></g><g class="yaxislayer-above"><path class="ytick ticks crisp" d="M57,0h-5" transform="translate(0,437)" style="stroke: rgb(68, 68, 68); stroke-opacity: 1; stroke-width: 1px;"/><path class="ytick ticks crisp" d="M57,0h-5" transform="translate(0,351.6)" style="stroke: rgb(68, 68, 68); stroke-opacity: 1; stroke-width: 1px;"/><path class="ytick ticks crisp" d="M57,0h-5" transform="translate(0,266.2)" style="stroke: rgb(68, 68, 68); stroke-opacity: 1; stroke-width: 1px;"/><path class="ytick ticks crisp" d="M57,0h-5" transform="translate(0,180.8)" style="stroke: rgb(68, 68, 68); stroke-opacity: 1; stroke-width: 1px;"/><path class="ytick ticks crisp" d="M57,0h-5" transform="translate(0,95.4)" style="stroke: rgb(68, 68, 68); stroke-opacity: 1; stroke-width: 1px;"/><path class="ytick ticks crisp" d="M57,0h-5" transform="translate(0,10)" style="stroke: rgb(68, 68, 68); stroke-opacity: 1; stroke-width: 1px;"/><g class="ytick"><text text-anchor="end" x="48.4" y="6.3" transform="translate(0,437)" style="font-family: 'Times New Roman', monospace; font-size: 18px; fill: rgb(105, 105, 105); fill-opacity: 1; white-space: pre; opacity: 1;">0</text></g><g class="ytick"><text text-anchor="end" x="48.4" y="6.3" style="font-family: 'Times New Roman', monospace; font-size: 18px; fill: rgb(105, 105, 105); fill-opacity: 1; white-space: pre; opacity: 1;" transform="translate(0,351.6)">5</text></g><g class="ytick"><text text-anchor="end" x="48.4" y="6.3" style="font-family: 'Times New Roman', monospace; font-size: 18px; fill: rgb(105, 105, 105); fill-opacity: 1; white-space: pre; opacity: 1;" transform="translate(0,266.2)">10</text></g><g class="ytick"><text text-anchor="end" x="48.4" y="6.3" style="font-family: 'Times New Roman', monospace; font-size: 18px; fill: rgb(105, 105, 105); fill-opacity: 1; white-space: pre; opacity: 1;" transform="translate(0,180.8)">15</text></g><g class="ytick"><text text-anchor="end" x="48.4" y="6.3" style="font-family: 'Times New Roman', monospace; font-size: 18px; fill: rgb(105, 105, 105); fill-opacity: 1; white-space: pre; opacity: 1;" transform="translate(0,95.4)">20</text></g><g class="ytick"><text text-anchor="end" x="48.4" y="6.3" style="font-family: 'Times New Roman', monospace; font-size: 18px; fill: rgb(105, 105, 105); fill-opacity: 1; white-space: pre; opacity: 1;" transform="translate(0,10)">25</text></g></g><g class="overaxes-above"/></g></g><g class="polarlayer"/><g class="smithlayer"/><g class="ternarylayer"/><g class="geolayer"/><g class="funnelarealayer"/><g class="pielayer"/><g class="iciclelayer"/><g class="treemaplayer"/><g class="sunburstlayer"/><g class="glimages"/><defs id="topdefs-742b7a"><g class="clips"/><clipPath id="legend742b7a"><rect width="161" height="195" x="0" y="0"/></clipPath></defs><g class="layer-above"><g class="imagelayer"/><g class="shapelayer"/></g><g class="infolayer"><g class="legend" pointer-events="all" transform="translate(320.73,14.270000000000003)"><rect class="bg" shape-rendering="crispEdges" width="161" height="195" x="0" y="0" style="stroke: rgb(68, 68, 68); stroke-opacity: 1; fill: rgb(255, 255, 255); fill-opacity: 1; stroke-width: 0px;"/><g class="scrollbox" transform="" clip-path="url(#legend742b7a)"><g class="groups"><g class="traces" transform="translate(0,18.200000000000003)" style="opacity: 1;"><text class="legendtext" text-anchor="start" x="40" y="7.0200000000000005" style="font-family: 'Times New Roman', monospace; font-size: 18px; fill: rgb(105, 105, 105); fill-opacity: 1; white-space: pre;">IrO<tspan style="font-size:70%" dy="0.3em">x</tspan><tspan dy="-0.21em"></tspan></text><g class="layers" style="opacity: 1;"><g class="legendfill"/><g class="legendlines"><path class="js-line" d="M5,0h30" style="fill: none; stroke: rgb(46, 145, 229); stroke-opacity: 1; stroke-width: 2px;"/></g><g class="legendsymbols"><g class="legendpoints"/></g></g><rect class="legendtoggle" x="0" y="-13.200000000000001" width="155.8125" height="26.400000000000002" style="fill: rgb(0, 0, 0); fill-opacity: 0;"/></g><g class="traces" transform="translate(0,44.6)" style="opacity: 1;"><text class="legendtext" text-anchor="start" x="40" y="7.0200000000000005" style="font-family: 'Times New Roman', monospace; font-size: 18px; fill: rgb(105, 105, 105); fill-opacity: 1; white-space: pre;">Ni<tspan style="font-size:70%" dy="0.3em">60</tspan><tspan dy="-0.21em"></tspan>Co<tspan style="font-size:70%" dy="0.3em">30</tspan><tspan dy="-0.21em"></tspan>Fe<tspan style="font-size:70%" dy="0.3em">10</tspan><tspan dy="-0.21em"></tspan>O<tspan style="font-size:70%" dy="0.3em">x</tspan><tspan dy="-0.21em"></tspan></text><g class="layers" style="opacity: 1;"><g class="legendfill"/><g class="legendlines"><path class="js-line" d="M5,0h30" style="fill: none; stroke: rgb(225, 95, 153); stroke-opacity: 1; stroke-width: 2px;"/></g><g class="legendsymbols"><g class="legendpoints"/></g></g><rect class="legendtoggle" x="0" y="-13.200000000000001" width="155.8125" height="26.400000000000002" style="fill: rgb(0, 0, 0); fill-opacity: 0;"/></g><g class="traces" transform="translate(0,71)" style="opacity: 1;"><text class="legendtext" text-anchor="start" x="40" y="7.0200000000000005" style="font-family: 'Times New Roman', monospace; font-size: 18px; fill: rgb(105, 105, 105); fill-opacity: 1; white-space: pre;">FeN<tspan style="font-size:70%" dy="0.3em">x</tspan><tspan dy="-0.21em"></tspan></text><g class="layers" style="opacity: 1;"><g class="legendfill"/><g class="legendlines"><path class="js-line" d="M5,0h30" style="fill: none; stroke: rgb(251, 13, 13); stroke-opacity: 1; stroke-width: 2px;"/></g><g class="legendsymbols"><g class="legendpoints"/></g></g><rect class="legendtoggle" x="0" y="-13.200000000000001" width="155.8125" height="26.400000000000002" style="fill: rgb(0, 0, 0); fill-opacity: 0;"/></g><g class="traces" transform="translate(0,97.4)" style="opacity: 1;"><text class="legendtext" text-anchor="start" x="40" y="7.0200000000000005" style="font-family: 'Times New Roman', monospace; font-size: 18px; fill: rgb(105, 105, 105); fill-opacity: 1; white-space: pre;">CoN<tspan style="font-size:70%" dy="0.3em">x</tspan><tspan dy="-0.21em"></tspan></text><g class="layers" style="opacity: 1;"><g class="legendfill"/><g class="legendlines"><path class="js-line" d="M5,0h30" style="fill: none; stroke: rgb(218, 22, 255); stroke-opacity: 1; stroke-width: 2px;"/></g><g class="legendsymbols"><g class="legendpoints"/></g></g><rect class="legendtoggle" x="0" y="-13.200000000000001" width="155.8125" height="26.400000000000002" style="fill: rgb(0, 0, 0); fill-opacity: 0;"/></g><g class="traces" transform="translate(0,123.80000000000001)" style="opacity: 1;"><text class="legendtext" text-anchor="start" x="40" y="7.0200000000000005" style="font-family: 'Times New Roman', monospace; font-size: 18px; fill: rgb(105, 105, 105); fill-opacity: 1; white-space: pre;">NiN<tspan style="font-size:70%" dy="0.3em">x</tspan><tspan dy="-0.21em"></tspan></text><g class="layers" style="opacity: 1;"><g class="legendfill"/><g class="legendlines"><path class="js-line" d="M5,0h30" style="fill: none; stroke: rgb(34, 42, 42); stroke-opacity: 1; stroke-width: 2px;"/></g><g class="legendsymbols"><g class="legendpoints"/></g></g><rect class="legendtoggle" x="0" y="-13.200000000000001" width="155.8125" height="26.400000000000002" style="fill: rgb(0, 0, 0); fill-opacity: 0;"/></g><g class="traces" transform="translate(0,150.2)" style="opacity: 1;"><text class="legendtext" text-anchor="start" x="40" y="7.0200000000000005" style="font-family: 'Times New Roman', monospace; font-size: 18px; fill: rgb(105, 105, 105); fill-opacity: 1; white-space: pre;">Co<tspan style="font-size:70%" dy="0.3em">57</tspan><tspan dy="-0.21em"></tspan>Ni<tspan style="font-size:70%" dy="0.3em">14</tspan><tspan dy="-0.21em"></tspan>Fe<tspan style="font-size:70%" dy="0.3em">29</tspan><tspan dy="-0.21em"></tspan>N<tspan style="font-size:70%" dy="0.3em">x</tspan><tspan dy="-0.21em"></tspan></text><g class="layers" style="opacity: 1;"><g class="legendfill"/><g class="legendlines"><path class="js-line" d="M5,0h30" style="fill: none; stroke: rgb(28, 167, 28); stroke-opacity: 1; stroke-width: 2px;"/></g><g class="legendsymbols"><g class="legendpoints"/></g></g><rect class="legendtoggle" x="0" y="-13.200000000000001" width="155.8125" height="26.400000000000002" style="fill: rgb(0, 0, 0); fill-opacity: 0;"/></g><g class="traces" transform="translate(0,176.6)" style="opacity: 1;"><text class="legendtext" text-anchor="start" x="40" y="7.0200000000000005" style="font-family: 'Times New Roman', monospace; font-size: 18px; fill: rgb(105, 105, 105); fill-opacity: 1; white-space: pre;">Co<tspan style="font-size:70%" dy="0.3em">45</tspan><tspan dy="-0.21em"></tspan>Ni<tspan style="font-size:70%" dy="0.3em">45</tspan><tspan dy="-0.21em"></tspan>Fe<tspan style="font-size:70%" dy="0.3em">10</tspan><tspan dy="-0.21em"></tspan>N<tspan style="font-size:70%" dy="0.3em">x</tspan><tspan dy="-0.21em"></tspan></text><g class="layers" style="opacity: 1;"><g class="legendfill"/><g class="legendlines"><path class="js-line" d="M5,0h30" style="fill: none; stroke: rgb(182, 129, 0); stroke-opacity: 1; stroke-width: 2px;"/></g><g class="legendsymbols"><g class="legendpoints"/></g></g><rect class="legendtoggle" x="0" y="-13.200000000000001" width="155.8125" height="26.400000000000002" style="fill: rgb(0, 0, 0); fill-opacity: 0;"/></g></g></g><rect class="scrollbar" rx="20" ry="3" width="0" height="0" x="0" y="0" style="fill: rgb(128, 139, 164); fill-opacity: 1;"/></g><g class="g-gtitle"/><g class="g-xtitle" transform="translate(0,-5.009374999999977)"><text class="xtitle" x="272.5" y="500.009375" text-anchor="middle" style="font-family: 'Times New Roman', monospace; font-size: 22px; fill: rgb(105, 105, 105); opacity: 1; font-weight: normal; white-space: pre;">Time (min)</text></g><g class="g-ytitle" transform="translate(23.259765625,0)"><text class="ytitle" transform="rotate(-90,-0.009374999999998579,223.5)" x="-0.009374999999998579" y="223.5" text-anchor="middle" style="font-family: 'Times New Roman', monospace; font-size: 22px; fill: rgb(105, 105, 105); opacity: 1; font-weight: normal; white-space: pre;">Current (mA/cm<tspan style="font-size:70%" dy="-0.6em">2</tspan><tspan dy="0.42em"></tspan>)</text></g></g></svg>