<svg class="main-svg" xmlns="http://www.w3.org/2000/svg" xmlns:xlink="http://www.w3.org/1999/xlink" width="500" height="500" style="" viewBox="0 0 500 500"><rect x="0" y="0" width="500" height="500" style="fill: rgb(255, 255, 255); fill-opacity: 1;"/><defs id="defs-b381d0"><g class="clips"><clipPath id="clipb381d0xyplot" class="plotclip"><rect width="340" height="320"/></clipPath><clipPath class="axesclip" id="clipb381d0x"><rect x="80" y="0" width="340" height="500"/></clipPath><clipPath class="axesclip" id="clipb381d0y"><rect x="0" y="100" width="500" height="320"/></clipPath><clipPath class="axesclip" id="clipb381d0xy"><rect x="80" y="100" width="340" height="320"/></clipPath></g><g class="gradients"/><g class="patterns"/></defs><g class="bglayer"><rect class="bg" x="80" y="100" width="340" height="320" style="fill: rgb(0, 0, 0); fill-opacity: 0; stroke-width: 0;"/></g><g class="layer-below"><g class="imagelayer"/><g class="shapelayer"/></g><g class="cartesianlayer"><g class="subplot xy"><g class="layer-subplot"><g class="shapelayer"/><g class="imagelayer"/></g><g class="minor-gridlayer"><g class="x"/><g class="y"/></g><g class="gridlayer"><g class="x"/><g class="y"/></g><g class="zerolinelayer"/><path class="xlines-below"/><path class="ylines-below"/><g class="overlines-below"/><g class="xaxislayer-below"/><g class="yaxislayer-below"/><g class="overaxes-below"/><g class="plot" transform="translate(80,100)" clip-path="url(#clipb381d0xyplot)"><g class="scatterlayer mlayer"><g class="trace scatter trace069da7" style="stroke-miterlimit: 2; opacity: 1;"><g class="fills"/><g class="errorbars"/><g class="lines"><path class="js-line" d="M0,-123.67L0.75,245.72L0.75,245.3L0.76,245.45L0.76,245.26L1.49,247.65L1.51,247.22L1.52,247.71L1.52,247.17L2.26,248.75L2.27,248.61L2.28,248.24L2.98,249.5L3.03,248.94L3.04,249.46L3.06,248.97L3.74,250.08L3.79,249.92L3.8,249.9L3.82,249.57L4.54,250.62L4.55,250.56L4.56,250.24L4.7,250.07L5.25,251.02L5.32,250.83L5.33,250.55L5.35,250.51L6.04,251.42L6.08,250.89L6.09,251.46L6.12,250.94L6.84,251.84L6.85,251.25L7.51,252.14L7.6,251.82L7.61,251.98L7.61,251.62L8.35,252.46L8.36,252.15L8.37,252.23L8.38,251.94L9.1,252.76L9.1,252.25L9.11,252.72L9.13,252.29L9.86,253.05L9.87,252.52L10.55,253.32L10.62,252.76L10.63,253.3L10.67,252.72L11.38,253.6L11.38,253.06L11.39,253.45L11.45,253.06L12,253.85L12.14,253.75L12.15,253.46L12.16,253.29L12.9,254.07L12.9,253.67L12.91,253.92L12.98,253.52L13.62,254.35L13.64,253.66L13.65,254.28L13.67,253.67L14.36,254.49L14.4,254.42L14.41,254.12L14.43,254L15.07,254.7L15.16,254.27L15.17,254.71L15.2,254.17L15.89,255.04L15.92,254.86L15.93,254.57L15.99,254.33L16.62,255.14L16.69,255.07L16.69,254.61L17.38,255.36L17.44,255.31L17.45,254.8L18.14,255.54L18.2,255.45L18.21,255.32L18.24,254.95L18.95,255.74L18.96,255.65L18.97,255.48L19.02,255.18L19.69,255.93L19.72,255.56L19.73,255.51L19.87,255.4L20.48,256.1L20.49,255.57L20.57,255.5L21.08,256.22L21.24,255.9L21.25,256.21L21.25,255.6L21.78,256.43L22,256.03L22.01,256.24L22.1,255.88L22.71,256.62L22.76,256.57L22.77,256.21L22.78,256.04L23.39,256.75L23.52,256.72L23.52,256.16L24.07,256.97L24.27,256.56L24.28,256.46L24.49,257.04L24.57,256.33L25.03,256.97L25.04,256.78L25.05,256.46L25.67,257.23L25.79,256.97L25.8,257.11L25.92,256.67L26.33,257.37L26.55,256.88L26.56,257.35L26.65,256.82L27.28,257.52L27.31,257.17L27.32,257.23L27.33,256.97L28.07,257.74L28.07,257.26L28.08,257.39L28.12,257.1L28.64,257.86L28.81,257.6L28.81,257.74L28.91,257.3L29.45,258L29.56,257.44L29.56,257.94L29.68,257.4L30.22,258.1L30.31,257.7L30.32,258.12L30.32,257.58L31.05,258.35L31.07,257.77L31.08,258.25L31.18,257.75L31.51,258.47L31.83,258.12L31.84,258.05L32.06,257.88L32.38,258.55L32.58,258.17L32.59,258.51L32.78,258L33.23,258.68L33.34,258.64L33.35,258.35L33.43,258.15L34.06,258.85L34.09,258.79L34.1,258.24L34.85,258.93L34.85,258.46L34.86,258.76L34.89,258.34L35.37,259.1L35.6,258.68L35.61,259L35.7,258.51L36.19,259.19L36.36,258.93L36.37,259.13L36.37,258.63L37.01,259.36L37.12,258.91L37.13,259.25L37.2,258.8L37.71,259.47L37.88,259.23L37.89,259.38L37.89,258.96L38.61,259.66L38.64,259.56L38.65,259.3L38.71,259.04L39.26,259.78L39.39,259.58L39.4,259.23L40.04,259.89L40.15,259.42L40.16,259.86L40.18,259.29L40.35,260.04L40.91,260.01L40.92,259.58L40.96,259.5L41.55,260.21L41.67,259.68L41.68,260.12L41.7,259.64L42.3,260.32L42.43,260.14L42.44,259.74L42.53,259.71L43.14,260.48L43.19,259.92L43.2,260.34L43.26,259.94L43.93,260.59L43.95,260.5L43.96,260.21L44.25,260.05L44.67,260.72L44.71,260.56L44.71,260.17L45.43,260.87L45.46,260.33L45.47,260.89L45.84,260.32L45.98,261.03L46.22,260.55L46.23,260.72L46.24,260.49L46.71,261.14L46.98,260.66L46.99,260.96L47.14,260.59L47.71,261.27L47.74,260.85L47.75,261.24L47.81,260.74L48.34,261.4L48.5,260.85L48.51,261.43L48.96,260.87L49.08,261.55L49.26,261.16L49.27,261.31L49.48,261L49.48,261.68L50.01,261.21L50.02,261.62L50.05,261.13L50.65,261.82L50.77,261.48L50.78,261.29L50.9,261.25L51.53,261.92L51.54,261.45L51.72,261.33L51.85,262.04L52.29,261.74L52.3,261.64L52.35,261.44L52.97,262.15L53.05,262.03L53.06,262.07L53.19,261.63L53.67,262.32L53.81,261.86L53.82,262.31L53.84,261.8L54.49,262.46L54.57,262.25L54.58,262.31L54.72,261.91L55.16,262.55L55.33,262.51L55.34,262.07L55.38,262.01L56.05,262.71L56.09,262.69L56.1,262.31L56.24,262.17L56.72,262.89L56.85,262.57L56.86,262.35L56.89,262.27L57.6,262.96L57.61,262.84L57.62,262.68L57.68,262.45L58.27,263.11L58.37,262.67L58.38,263.09L58.41,262.51L58.92,263.19L59.13,263.07L59.14,262.7L59.45,262.69L59.84,263.33L59.89,263.01L59.9,262.88L59.93,262.8L60.49,263.48L60.65,263.44L60.66,262.94L60.74,262.93L61.41,263.59L61.42,263.2L61.49,263.07L62.04,263.71L62.17,263.69L62.18,263.35L62.19,263.21L62.86,263.85L62.93,263.81L62.94,263.49L63.15,263.34L63.67,263.95L63.7,263.92L63.7,263.51L63.72,263.46L64.44,264.09L64.45,263.94L64.46,263.66L64.57,263.6L65.18,264.23L65.21,264.07L65.22,263.94L65.31,263.71L65.89,264.38L65.97,264.27L65.98,264.09L66.01,263.84L66.71,264.48L66.73,264.24L66.74,264.06L66.93,263.97L67.48,264.63L67.49,264.16L67.5,264.59L67.69,264.12L68.17,264.81L68.25,264.36L68.26,264.8L68.37,264.22L68.91,264.89L69.01,264.5L69.02,264.69L69.02,264.38L69.66,265.01L69.77,264.99L69.78,264.67L69.79,264.54L70.42,265.17L70.53,264.73L70.54,265.07L70.55,264.61L71.15,265.28L71.29,265.18L71.3,264.98L71.31,264.8L72.03,265.4L72.05,265.27L72.05,264.95L72.17,264.93L72.76,265.55L72.81,265.47L72.81,265.1L72.87,264.98L73.37,265.68L73.57,265.42L73.58,265.26L73.6,265.2L74.12,265.82L74.33,265.57L74.34,265.72L74.34,265.31L74.95,265.96L75.09,265.83L75.1,265.5L75.18,265.44L75.56,266.09L75.85,266.04L75.86,265.69L75.92,265.61L76.61,266.21L76.61,265.91L76.62,265.85L76.65,265.74L77.29,266.39L77.37,266.01L77.38,266.29L77.4,265.88L78.1,266.52L78.13,266.02L78.14,266.49L78.24,266L78.88,266.64L78.89,266.52L78.9,266.5L79.06,266.17L79.65,266.78L79.66,266.4L79.67,266.34L80.32,266.93L80.41,266.71L80.42,266.58L80.54,266.46L81.05,267.07L81.17,266.75L81.18,266.76L81.19,266.55L81.87,267.17L81.93,266.93L81.94,266.78L81.96,266.71L82.55,267.35L82.69,267.04L82.7,267.23L82.78,266.87L83.31,267.5L83.45,267.12L83.46,267.48L83.46,267L84.13,267.64L84.21,267.38L84.22,267.23L84.31,267.14L84.49,267.73L84.97,267.62L84.98,267.56L84.99,267.31L85.66,267.92L85.73,267.89L85.74,267.58L85.77,267.42L86.46,268.07L86.5,268.05L86.5,267.61L87.24,268.21L87.26,267.94L87.26,267.9L87.27,267.7L87.89,268.34L88,268.26L88.01,267.88L88.74,268.51L88.76,268.07L88.77,268.48L88.91,268.05L89.51,268.64L89.52,268.28L89.53,268.61L89.53,268.15L90.26,268.78L90.28,268.54L90.29,268.38L90.34,268.35L90.92,268.91L91.04,268.64L91.05,268.6L91.1,268.48L91.64,269.08L91.8,268.67L91.81,269.03L91.96,268.66L92.53,269.23L92.56,269.12L92.57,268.98L92.6,268.79L93.25,269.39L93.31,269.31L93.32,268.93L93.46,268.92L94.05,269.55L94.07,269.51L94.08,269.1L94.81,269.7L94.83,269.58L94.84,269.45L94.9,269.26L95.52,269.84L95.59,269.82L95.6,269.4L96.33,270.06L96.35,269.58L96.36,270.01L96.51,269.58L97.05,270.18L97.11,270.01L97.12,269.75L97.19,269.74L97.81,270.31L97.87,270.29L97.88,270.02L98.1,269.9L98.62,270.48L98.63,270.43L98.64,270.1L98.7,270.04L99.4,270.67L99.4,270.17L100.12,270.79L100.16,270.75L100.16,270.39L100.23,270.37L100.89,270.93L100.91,270.91L100.92,270.69L100.93,270.55L101.57,271.12L101.67,270.99L101.68,270.68L101.7,270.64L102.36,271.28L102.43,271.27L102.44,270.98L102.45,270.86L103.17,271.42L103.19,271.36L103.2,271.03L103.24,270.99L103.92,271.59L103.95,271.33L103.96,271.38L103.97,271.21L104.64,271.76L104.68,271.36L104.69,271.79L104.71,271.36L105.31,271.93L105.44,271.79L105.45,271.9L105.62,271.53L106.03,272.07L106.2,272.05L106.21,271.84L106.27,271.72L106.96,272.28L106.97,271.93L106.98,271.87L107.61,272.48L107.72,272.14L107.73,272.24L107.82,272.05L108.38,272.62L108.47,272.23L108.47,272.56L108.6,272.2L108.98,272.72L109.22,272.39L109.22,272.75L109.28,272.4L109.96,272.98L109.97,272.8L109.98,272.81L110.06,272.52L110.68,273.11L110.73,272.73L110.74,273.11L110.75,272.73L111.42,273.27L111.49,273.21L111.5,273.08L111.53,272.9L112.24,273.45L112.25,273.21L112.26,273.2L112.27,273.09L112.9,273.66L113.01,273.32L113.02,273.41L113.17,273.23L113.71,273.8L113.75,273.46L113.75,273.79L113.79,273.42L114.46,273.97L114.48,273.64L114.49,273.99L114.5,273.61L115.11,274.11L115.24,273.82L115.25,273.92L115.34,273.72L115.73,274.28L115.99,273.96L115.99,274.29L116.06,273.93L116.64,274.46L116.73,274.08L116.74,274.44L116.79,274.07L117.42,274.64L117.49,274.31L117.5,274.48L117.53,274.26L118.17,274.84L118.24,274.47L118.24,274.85L118.32,274.42L118.95,275L118.99,274.65L119,274.99L119.23,274.6L119.68,275.19L119.75,274.94L119.76,275.09L119.77,274.78L120.45,275.38L120.51,275.29L120.52,275.03L120.53,274.92L120.97,275.49L121.27,275.31L121.28,275.19L121.29,275.16L121.97,275.69L122.03,275.37L122.04,275.7L122.1,275.37L122.77,275.89L122.79,275.55L122.8,275.87L122.85,275.53L123.5,276.07L123.55,275.83L123.56,276.08L123.61,275.74L124.29,276.27L124.31,276.25L124.32,275.86L125.02,276.44L125.07,276.43L125.08,276.17L125.09,276.09L125.8,276.63L125.84,276.43L125.85,276.52L125.85,276.29L126.59,276.82L126.6,276.71L126.61,276.7L126.66,276.46L127.34,276.98L127.36,276.95L127.37,276.75L127.41,276.66L128.13,277.18L128.13,276.89L128.15,276.82L128.86,277.35L128.89,277.33L128.89,277.11L128.93,277.01L129.61,277.53L129.65,277.47L129.66,277.18L130.29,277.69L130.41,277.5L130.42,277.53L130.45,277.4L131.18,277.91L131.18,277.7L131.19,277.65L131.28,277.58L131.91,278.08L131.94,277.99L131.95,277.98L131.95,277.77L132.67,278.26L132.7,278.11L132.71,278.23L132.71,277.92L133.36,278.47L133.46,278.43L133.47,278.26L133.53,278.1L134.07,278.66L134.23,278.51L134.23,278.39L134.38,278.32L134.97,278.85L134.99,278.76L135,278.48L135.71,279.03L135.75,278.73L135.76,279L135.78,278.69L136.41,279.17L136.51,278.89L136.52,279.18L136.59,278.87L137.2,279.39L137.27,279.3L137.28,279.24L137.37,279.08L138,279.56L138.02,279.28L138.03,279.55L138.04,279.24L138.72,279.74L138.78,279.44L138.79,279.74L138.8,279.41L139.54,279.98L139.55,279.63L140.29,280.16L140.3,280.09L140.31,279.79L141.01,280.3L141.06,280.2L141.07,280.01L141.8,280.51L141.82,280.5L141.83,280.26L141.84,280.23L142.54,280.72L142.58,280.72L142.59,280.47L142.6,280.41L143.34,280.89L143.36,280.82L143.36,280.6L144.1,281.1L144.12,280.91L144.13,281.06L144.13,280.81L144.88,281.29L144.89,281.04L144.92,281L145.6,281.52L145.64,281.2L145.65,281.52L145.67,281.19L146.2,281.65L146.4,281.59L146.41,281.53L146.5,281.39L147.23,281.85L147.25,281.74L147.25,281.6L147.99,282.06L148,281.99L148.01,281.71L148.68,282.23L148.76,282.1L148.77,281.99L148.78,281.98L149.5,282.46L149.52,282.44L149.53,282.17L150.23,282.61L150.28,282.48L150.29,282.36L150.39,282.33L151.02,282.8L151.04,282.78L151.05,282.68L151.14,282.58L151.89,283.01L151.92,282.91L151.93,282.79L151.95,282.76L152.64,283.22L152.68,283.03L152.69,283.07L152.74,282.99L153.44,283.42L153.48,283.33L153.49,283.16L153.53,283.15L154.18,283.6L154.24,283.37L154.25,283.62L154.27,283.36L155,283.82L155,283.57L155.01,283.63L155.02,283.54L155.75,284L155.76,283.94L155.77,283.86L155.8,283.75L156.55,284.19L156.56,283.98L156.78,283.95L157.25,284.38L157.31,284.37L157.32,284.22L157.35,284.13L158.06,284.57L158.08,284.48L158.08,284.35L158.11,284.33L158.82,284.78L158.83,284.73L158.84,284.55L158.85,284.54L159.55,284.97L159.59,284.94L159.6,284.69L160.33,285.13L160.35,284.91L160.36,285.12L160.46,284.9L161.1,285.31L161.11,285.13L161.11,285.17L161.22,285.09L162.08,285.55L162.09,285.5L162.1,285.31L162.84,285.74L162.85,285.57L162.86,285.69L162.98,285.51L163.55,285.92L163.61,285.92L163.62,285.75L163.68,285.72L164.35,286.14L164.38,285.98L164.39,285.94L164.41,285.91L165.07,286.3L165.14,286.07L165.15,286.3L165.16,286.1L165.87,286.5L165.89,286.46L165.9,286.38L165.98,286.3L166.77,286.71L166.79,286.7L166.8,286.49L167.55,286.89L167.55,286.73L167.56,286.75L167.63,286.68L168.37,287.09L168.39,287.06L168.39,286.85L169.14,287.28L169.15,287.06L169.83,287.46L169.91,287.42L169.91,287.24L169.92,287.21L170.59,287.63L170.66,287.53L170.67,287.45L170.71,287.4L171.42,287.81L171.43,287.78L171.44,287.62L172.15,287.98L172.19,287.87L172.2,287.86L172.25,287.82L173.03,288.19L173.04,287.99L173.74,288.36L173.79,288.22L173.8,288.35L173.8,288.15L174.54,288.53L174.55,288.49L174.56,288.34L175.29,288.73L175.31,288.65L175.32,288.72L175.32,288.52L176.02,288.9L176.07,288.69L176.08,288.91L176.17,288.72L176.77,289.08L176.83,288.9L176.83,289.1L176.97,288.89L177.45,289.25L177.58,289.07L177.58,289.27L177.66,289.07L178.31,289.42L178.33,289.28L178.33,289.43L178.33,289.25L178.94,289.62L179.08,289.56L179.09,289.45L179.16,289.42L179.87,289.79L179.89,289.77L179.89,289.61L179.93,289.6L180.66,289.94L180.66,289.84L180.67,289.82L180.72,289.79L181.46,290.12L181.48,290.1L181.49,289.95L182.19,290.31L182.24,290.27L182.25,290.14L182.85,290.47L183,290.3L183.01,290.45L183.76,290.45L183.79,290.48L183.8,290.65L184.11,290.52L184.43,290.81L184.54,290.64L184.54,290.82L184.56,290.67L185.09,290.97L185.27,290.88L185.28,290.98L185.28,290.82L185.99,291.18L186.03,290.99L186.04,291.19L186.09,291.01L186.78,291.33L186.79,291.29L186.8,291.16L186.82,291.14L187.55,291.5L187.58,291.38L187.59,291.39L188.51,291.7L188.51,291.5L189.26,291.86L189.27,291.76L189.28,291.86L189.28,291.7L190.03,292.04L190.04,291.89L190.1,291.87L190.79,292.19L190.8,292.1L190.81,292.01L191.54,292.36L191.56,292.25L191.57,292.35L191.57,292.2L192.32,292.53L192.33,292.36L193.09,292.69L193.1,292.65L193.11,292.52L193.85,292.84L193.86,292.79L193.87,292.7L193.88,292.69L194.58,293.01L194.62,292.94L194.63,292.87L194.66,292.85L195.4,293.17L195.41,293.14L195.41,293L196.19,293.33L196.19,293.18L196.97,293.48L196.97,293.34L197.88,293.67L197.88,293.51L198.65,293.83L198.66,293.73L198.67,293.72L199.8,294.05L199.81,294L199.82,293.9L200.56,294.2L200.57,294.17L200.58,294.04L201.31,294.36L201.33,294.21L201.34,294.35L201.36,294.2L201.98,294.5L202.07,294.36L202.08,294.48L203.08,294.52L203.09,294.69L203.87,294.7L203.88,294.71L203.89,294.84L204.67,294.85L204.67,294.99L205.48,294.99L205.48,295.17L205.54,295.01L206.07,295.29L206.22,295.15L206.23,295.26L208.8,295.75L208.8,295.63L209.6,295.92L209.6,295.79L210.58,296.1L210.58,295.98L211.53,296.28L211.55,296.24L211.55,296.16L212.46,296.43L212.47,296.37L212.47,296.32L213.43,296.63L213.46,296.55L213.47,296.5L214.41,296.79L214.42,296.77L214.43,296.66L215.38,296.97L215.38,296.83L216.35,297.13L216.36,297.1L216.37,297L217.25,297.28L217.26,297.25L217.26,297.17L218.49,297.48L218.5,297.44L218.51,297.35L219.53,297.64L219.54,297.53L220.59,297.81L220.61,297.79L220.61,297.69L221.56,297.95L221.56,297.84L222.39,298.12L222.41,298.08L222.41,297.99L223.32,298.27L223.35,298.25L223.35,298.11L224.14,298.39L224.15,298.38L224.16,298.28L225.23,298.55L225.24,298.44L226.39,298.71L226.39,298.62L227.45,298.89L227.45,298.78L228.39,299.03L228.4,299L228.4,298.91L229.42,299.18L229.44,299.16L229.44,299.07L230.46,299.33L230.47,299.26L230.47,299.24L231.84,299.53L231.85,299.42L232.97,299.69L232.99,299.67L233,299.56L233.94,299.81L233.95,299.71L235.11,299.97L235.12,299.93L235.13,299.87L236.28,300.12L236.29,300.07L236.3,300.03L237.52,300.31L237.52,300.18L238.42,300.42L238.43,300.39L238.43,300.31L239.46,300.54L239.47,300.52L239.48,300.43L240.57,300.68L240.58,300.57L241.54,300.8L241.56,300.77L241.56,300.7L242.78,300.93L242.78,300.93L242.79,300.85L243.85,301.09L243.85,300.99L245.2,301.24L245.21,301.22L245.22,301.14L246.5,301.4L246.52,301.37L246.52,301.29L247.62,301.53L247.63,301.51L247.64,301.44L248.96,301.66L248.97,301.57L250.12,301.79L250.13,301.7L251.31,301.91L251.32,301.9L251.33,301.82L252.55,302.06L252.55,301.96L253.72,302.16L253.74,302.13L253.75,302.08L255.27,302.31L255.27,302.21L256.22,302.4L256.23,302.31L257.28,302.51L257.29,302.41L258.48,302.63L258.49,302.62L258.49,302.54L259.64,302.74L259.66,302.69L259.66,302.64L260.99,302.85L260.99,302.77L262.41,302.98L262.41,302.95L262.42,302.89L263.49,303.08L263.5,303L264.89,303.2L264.89,303.12L266.12,303.3L266.13,303.22L267.64,303.44L267.65,303.35L269.41,303.56L269.42,303.49L270.81,303.68L270.81,303.62L270.81,303.61L272.42,303.79L272.42,303.77L272.42,303.72L274.05,303.92L274.05,303.9L274.06,303.84L275.45,304.02L275.45,303.94L276.88,304.13L276.9,304.1L276.9,304.04L278.5,304.23L278.51,304.15L279.79,304.32L279.8,304.24L281.43,304.44L281.43,304.36L282.95,304.52L282.95,304.49L282.96,304.45L284.24,304.6L284.24,304.54L285.95,304.73L285.96,304.65L287.32,304.8L287.33,304.73L289.04,304.92L289.04,304.83L290.21,304.99L290.21,304.94L290.22,304.92L291.89,305.06L291.89,305.01L293.31,305.19L293.33,305.14L293.34,305.1L294.76,305.25L294.77,305.23L294.78,305.17L296.35,305.33L296.35,305.3L296.36,305.26L297.79,305.41L297.8,305.33L299.15,305.48L299.15,305.4L300.56,305.55L300.57,305.48L302.01,305.62L302.02,305.6L302.03,305.55L303.43,305.69L303.44,305.67L303.45,305.63L305.13,305.79L305.13,305.72L307,305.88L307.01,305.82L309.2,305.96L309.21,305.89L310.58,306.01L310.59,305.95L311.94,306.09L311.95,306.03L313.74,306.16L313.75,306.12L313.75,306.09L315.11,306.22L315.11,306.16L316.56,306.3L316.56,306.23L318.73,306.37L318.73,306.31L320.3,306.45L320.31,306.38L322.1,306.5L322.11,306.43L323.88,306.56L323.88,306.51L325.69,306.63L325.69,306.57L327.76,306.7L327.77,306.64L329.91,306.8L329.92,306.74L332.01,306.81L332.01,306.77L333.53,306.89L333.54,306.87L333.54,306.82L335.14,306.93L335.14,306.87L339.99,307.04L339.99,307.1" style="vector-effect: non-scaling-stroke; fill: none; stroke: rgb(46, 145, 229); stroke-opacity: 1; stroke-width: 2px; opacity: 1;"/></g><g class="points"/><g class="text"/></g><g class="trace scatter trace3bceef" style="stroke-miterlimit: 2; opacity: 1;"><g class="fills"/><g class="errorbars"/><g class="lines"><path class="js-line" d="M0,46.86L0.75,317.39L0.75,317.39L0.76,317.4L2.16,318.25L2.16,318.25L2.17,318.25L8.16,318.69L8.16,318.69L8.17,318.69L91.89,319.44L91.89,319.44L91.9,319.45L103.02,319.46L103.02,319.46L103.03,319.46L339.99,319.55L339.99,319.55" style="vector-effect: non-scaling-stroke; fill: none; stroke: rgb(225, 95, 153); stroke-opacity: 1; stroke-width: 2px; opacity: 1;"/></g><g class="points"/><g class="text"/></g><g class="trace scatter tracee92a44" style="stroke-miterlimit: 2; opacity: 1;"><g class="fills"/><g class="errorbars"/><g class="lines"><path class="js-line" d="M0,315.95L0.74,319.6L0.75,319.59L0.76,319.59L339.99,319.72L339.99,319.71" style="vector-effect: non-scaling-stroke; fill: none; stroke: rgb(251, 13, 13); stroke-opacity: 1; stroke-width: 2px; opacity: 1;"/></g><g class="points"/><g class="text"/></g><g class="trace scatter trace56ec1c" style="stroke-miterlimit: 2; opacity: 1;"><g class="fills"/><g class="errorbars"/><g class="lines"><path class="js-line" d="M0,265.14L0.75,299.12L0.76,299.16L1.69,301.91L1.7,301.91L4.69,302.58L4.69,302.58L4.7,302.58L23.55,306.84L23.55,306.84L23.56,306.84L39.84,309.35L39.84,309.35L39.85,309.34L48.77,310.37L48.77,310.36L63.58,311.59L63.58,311.59L63.58,311.58L74.44,312.28L74.44,312.28L74.45,312.28L108.36,313.81L108.36,313.8L116.05,314.07L116.05,314.07L116.06,314.07L135.88,314.64L135.88,314.64L135.89,314.64L153.46,315.06L153.46,315.06L153.47,315.06L168.94,315.34L168.94,315.34L168.95,315.34L184.27,315.61L184.27,315.61L184.28,315.61L246.48,316.36L246.48,316.36L246.49,316.37L256.71,316.44L256.71,316.44L256.72,316.44L339.99,317L339.99,317" style="vector-effect: non-scaling-stroke; fill: none; stroke: rgb(218, 22, 255); stroke-opacity: 1; stroke-width: 2px; opacity: 1;"/></g><g class="points"/><g class="text"/></g><g class="trace scatter trace17c3af" style="stroke-miterlimit: 2; opacity: 1;"><g class="fills"/><g class="errorbars"/><g class="lines"><path class="js-line" d="M0,319.37L0.76,319.83L0.76,319.83L0.77,319.83L339.99,319.83L339.99,319.83" style="vector-effect: non-scaling-stroke; fill: none; stroke: rgb(34, 42, 42); stroke-opacity: 1; stroke-width: 2px; opacity: 1;"/></g><g class="points"/><g class="text"/></g><g class="trace scatter trace07516e" style="stroke-miterlimit: 2; opacity: 1;"><g class="fills"/><g class="errorbars"/><g class="lines"><path class="js-line" d="M0,-413.15L0.09,200.96L0.75,187.09L0.76,186.87L0.76,186.96L1.51,183L1.51,183.19L1.52,183.3L2.26,181.51L2.27,181.79L2.28,181.63L2.28,182.03L2.8,180.66L3.03,180.69L3.04,180.87L3.1,181.09L3.68,180.23L3.8,180.4L3.81,180.47L3.9,180.51L4.44,180.02L4.57,180.15L4.57,180.53L5.27,179.67L5.34,179.71L5.34,180.01L5.73,180.18L6.01,179.6L6.09,179.79L6.09,180.11L6.42,179.75L6.8,180.58L6.83,180.18L6.84,180.4L6.86,180.05L7.3,180.8L7.59,180.29L7.59,180.61L7.65,180.28L8.15,180.96L8.34,180.5L8.34,180.72L8.35,180.47L8.95,181.26L9.08,180.95L9.08,181.15L9.12,180.87L9.56,181.63L9.82,181.35L9.82,181.63L9.98,181.35L10.44,181.99L10.56,181.69L10.57,181.76L10.91,181.61L11.08,182.35L11.23,182.03L11.23,182.4L11.24,181.94L11.95,182.77L11.96,182.39L11.96,182.81L12.51,183.06L12.68,182.39L12.71,182.56L12.72,182.43L12.79,182.32L13.45,183.31L13.5,183.12L13.51,183.04L14.09,183.78L14.26,183.5L14.27,183.43L14.33,183.38L15.06,184.28L15.2,184.13L15.21,183.9L15.22,183.88L15.85,184.85L15.96,184.64L15.97,184.63L16.02,184.35L16.45,185.27L16.65,185.01L16.65,185.17L16.67,184.87L17.19,185.69L17.37,185.51L17.38,185.63L17.46,185.44L18.09,186.2L18.1,185.97L18.1,186.19L18.12,185.81L18.85,186.79L18.86,186.6L18.93,186.32L19.54,187.21L19.62,186.87L19.63,186.99L19.77,186.62L20.38,187.49L20.39,187.3L20.39,187.05L21.11,188.02L21.14,187.84L21.15,187.76L21.89,188.56L21.96,188.27L21.96,188.12L22.04,188.03L22.71,188.99L22.73,188.95L22.73,188.77L22.75,188.73L23.38,189.59L23.49,189.05L23.5,188.91L23.68,188.8L24.14,189.45L24.25,189.22L24.26,189.32L24.3,189.07L24.79,189.98L24.97,189.72L24.97,189.97L25,189.63L25.67,190.53L25.69,190.37L25.69,190.51L25.86,190.19L26.36,190.91L26.43,190.64L26.43,190.81L26.53,190.72L27.19,191.61L27.22,191.38L27.23,191.19L27.81,191.95L27.98,191.87L27.99,191.77L28.21,191.63L28.65,192.34L28.74,192.29L28.75,192.3L28.83,192.01L29.5,193.01L29.51,192.75L29.57,192.55L30.08,193.3L30.26,193.12L30.27,192.92L31.02,193.88L31.02,193.45L31.03,193.76L31.04,193.39L31.62,194.3L31.78,193.92L31.79,194.07L31.81,193.82L32.5,194.69L32.54,194.44L32.55,194.52L32.63,194.33L33.17,195.12L33.3,194.99L33.31,194.97L33.38,194.84L34.18,195.77L34.18,195.49L34.19,195.39L34.25,195.38L34.94,196.1L34.95,195.85L35.01,195.77L35.72,196.69L35.73,196.42L35.83,196.37L36.48,197.19L36.48,197.01L36.49,196.86L36.73,196.76L37.18,197.62L37.24,197.45L37.25,197.28L37.9,198.35L38,198.23L38.01,198.1L38.01,197.84L38.66,198.62L38.76,198.59L38.77,198.51L38.98,198.31L39.36,198.98L39.41,198.65L39.42,198.98L39.43,198.66L40.14,199.5L40.17,199.49L40.18,199.46L40.29,199.23L40.55,199.83L40.85,199.6L40.86,199.84L40.91,199.58L41.56,200.47L41.57,200.29L41.57,200.51L41.61,200.14L42.3,200.72L42.31,200.47L42.32,200.76L42.33,200.42L43.07,201.22L43.08,201.13L43.08,200.91L43.77,201.71L43.83,201.42L43.84,201.3L44.36,202L44.59,201.72L44.6,201.95L44.9,202.21L44.98,201.76L45.3,202.18L45.3,202.32L45.3,202.05L45.89,202.8L46.05,202.78L46.06,202.53L46.07,202.5L46.84,203.22L46.84,203.1L46.85,202.91L46.92,202.85L47.54,203.67L47.6,203.4L47.61,203.27L47.62,203.21L48.34,204.22L48.36,203.99L48.37,204.08L48.44,203.85L49.13,204.65L49.18,204.52L49.18,204.35L49.29,203.95L49.83,204.74L49.92,204.46L49.93,204.29L50.63,205.05L50.68,204.93L50.69,204.97L50.84,205.2L51.04,204.97L51.21,205.41L51.21,205.52L51.31,205.25L51.84,205.82L51.94,205.67L51.95,205.86L52,205.53L52.69,206.27L52.7,206.15L52.71,205.98L52.76,205.95L53.46,206.64L53.49,206.56L53.5,206.44L53.63,206.29L54.32,207.13L54.37,207.05L54.38,206.98L54.46,206.92L55.35,207.57L55.38,207.52L55.39,207.27L56.01,207.97L56.14,207.75L56.15,207.94L56.34,207.81L56.98,208.49L57,208.3L57,208.07L57.71,208.74L57.76,208.57L57.77,208.58L57.78,208.48L58.45,209.22L58.52,209.18L58.53,209.1L58.61,209.04L59.37,209.84L59.5,209.58L59.5,209.45L60.21,210.13L60.25,210.02L60.26,210.09L60.34,209.92L61.13,210.61L61.15,210.38L61.16,210.35L61.19,210.29L61.89,210.87L61.91,210.72L61.92,210.53L62.61,211.34L62.67,211.26L62.68,211.21L62.9,211.03L63.19,211.52L63.38,211.44L63.39,211.5L63.41,211.3L64.14,212.06L64.15,211.84L64.19,211.73L64.91,212.42L64.91,212.28L64.92,212.2L65.09,212.11L65.65,212.78L65.67,212.48L65.68,212.7L65.79,212.43L66.39,213.02L66.42,212.89L66.42,213.06L66.43,212.78L67.15,213.51L67.16,213.35L67.16,213.52L67.17,213.16L67.87,213.88L67.9,213.78L67.91,213.81L67.97,213.53L68.21,214.15L68.64,213.93L68.65,214.18L68.98,213.9L69.38,214.5L69.39,214.26L69.4,214.44L69.43,214.21L70.11,214.88L70.13,214.5L70.13,214.85L70.18,214.52L70.82,215.18L70.87,215.07L70.88,214.92L70.92,214.89L71.63,215.55L71.64,215.37L71.68,215.24L72.4,215.82L72.41,215.73L72.62,215.65L73.14,216.2L73.16,216.07L73.17,215.88L73.18,215.84L73.76,216.47L73.92,216.17L73.93,216.41L73.94,216.18L74.54,216.81L74.66,216.69L74.67,216.74L74.79,216.52L75.35,217.17L75.42,217.06L75.43,217.11L75.48,216.92L76.07,217.52L76.12,217.27L76.12,217.46L76.32,217.68L76.8,217.2L76.89,217.28L76.9,217.54L76.97,217.25L77.41,217.87L77.64,217.79L77.65,217.62L78.07,218.19L78.4,217.91L78.41,218.07L78.56,217.91L78.93,218.41L79.14,218.29L79.15,218.29L79.19,218.2L79.91,218.82L79.96,218.68L79.96,218.51L80.02,218.47L80.74,219.18L80.74,219.08L80.75,218.96L80.93,218.94L81.49,219.5L81.5,219.43L81.51,219.39L81.57,219.2L82.26,219.7L82.28,219.55L82.28,219.46L82.3,219.42L83.02,219.93L83.04,219.78L83.04,219.64L83.79,220.2L83.86,220.14L83.86,220.01L83.91,219.97L84.73,220.62L84.73,220.53L84.74,220.39L86.02,221.05L86.02,220.97L86.03,220.8L86.78,221.39L86.78,221.26L86.79,221.13L86.8,221.07L87.43,221.62L87.54,221.62L87.55,221.45L87.63,221.35L88.46,222.05L88.51,221.9L88.51,221.78L88.62,221.72L89.27,222.28L89.28,222.15L89.45,221.99L90.08,222.6L90.2,222.49L90.21,222.27L90.91,222.87L90.96,222.68L90.97,222.77L90.97,222.62L91.54,223.15L91.72,223L91.73,223.03L91.8,222.81L92.27,223.36L92.4,223.27L92.41,223.43L92.42,223.17L92.94,223.73L93.15,223.56L93.16,223.63L93.28,223.53L93.99,224.09L94.01,223.95L94.01,223.79L94.05,223.76L94.73,224.38L94.77,224.25L94.78,224.16L94.78,224L95.49,224.51L95.53,224.32L95.54,224.47L95.61,224.31L96.25,224.78L96.29,224.68L96.3,224.73L96.39,224.82L96.92,224.75L96.97,224.82L96.98,225.08L97.06,224.77L97.73,225.23L97.74,225.11L97.89,225.02L98.62,225.48L98.62,225.35L98.63,225.22L98.64,225.2L98.77,225.63L99.38,225.56L99.39,225.59L99.41,225.39L99.99,225.8L100.12,225.54L100.13,225.82L100.18,225.49L100.68,226.02L100.88,225.88L100.89,225.71L100.9,225.7L101.64,226.25L101.65,226.08L101.86,226.01L102.34,226.58L102.43,226.56L102.43,226.39L102.57,226.3L103.15,226.81L103.19,226.72L103.2,226.55L103.44,226.44L103.92,226.99L103.95,226.76L103.96,226.88L104.07,226.75L104.84,227.26L104.84,227.15L104.85,227.1L105.06,227.05L105.6,227.46L105.6,227.32L105.61,227.33L105.65,227.23L106.33,227.74L106.4,227.62L106.4,227.49L106.43,227.46L107.15,227.92L107.16,227.89L107.17,227.74L107.26,227.63L107.92,228.12L107.94,228.06L107.95,227.91L108.04,227.86L108.67,228.42L108.74,228.31L108.75,228.09L109.41,228.66L109.5,228.59L109.51,228.44L109.57,228.37L110.24,228.78L110.27,228.6L110.28,228.68L111.68,229.15L111.68,229.09L111.69,228.9L112.43,229.32L112.44,229.14L112.45,229.19L112.48,229.12L113.22,229.57L113.23,229.49L113.23,229.37L113.28,229.31L113.97,229.78L114,229.74L114,229.65L114.07,229.55L114.59,230.01L114.76,229.93L114.77,229.8L114.91,229.76L115.55,230.19L115.55,230.02L115.57,229.98L116.24,230.38L116.31,230.35L116.32,230.37L117.06,230.41L117.09,230.46L117.1,230.57L117.21,230.66L117.8,230.59L117.81,230.67L117.82,230.82L117.96,230.59L118.4,230.97L118.57,230.94L118.58,230.84L118.66,230.76L119.38,231.19L119.41,231.14L119.42,231.01L119.51,231L120.07,231.43L120.17,231.21L120.18,231.37L120.29,231.2L120.87,231.77L120.88,231.58L120.89,231.74L121.14,231.49L121.56,231.98L121.63,231.93L121.64,231.77L121.73,231.76L122.21,232.15L122.4,232.04L122.41,231.92L123.35,232.47L123.35,232.27L123.36,232.21L123.54,232.11L124.11,232.6L124.11,232.59L124.12,232.37L124.87,232.8L124.88,232.67L124.97,232.58L125.68,232.97L125.68,232.86L125.69,232.76L125.76,232.71L126.42,233.19L126.44,233.12L126.45,232.96L126.51,232.91L127.11,233.5L127.2,233.41L127.21,233.49L127.81,233.28L127.88,233.65L127.96,233.55L127.97,233.6L128.1,233.39L128.63,233.82L128.71,233.76L128.72,233.68L129.62,234.1L129.64,233.9L129.65,233.87L129.84,233.78L130.39,234.25L130.4,234.06L130.41,234.27L130.56,234.02L131.08,234.41L131.15,234.39L131.16,234.32L131.31,234.5L131.55,234.17L131.88,234.41L131.89,234.52L132.5,234.36L132.58,234.67L132.63,234.47L132.64,234.58L132.73,234.49L133.45,234.93L133.53,234.83L133.53,234.73L134.31,235.1L134.32,235L134.32,234.85L134.4,234.84L135.07,235.28L135.08,235.22L135.08,235.05L135.57,235.46L135.85,235.42L135.85,235.4L136.07,235.19L136.44,235.61L136.59,235.42L136.59,235.65L136.71,235.39L137.33,235.84L137.33,235.63L137.34,235.67L137.42,235.5L138.12,235.9L138.14,235.79L138.14,235.69L138.68,236.04L138.9,235.85L138.91,235.91L138.94,235.86L139.62,236.31L139.69,236.2L139.69,236.07L140.49,236.47L140.52,236.45L140.53,236.3L140.59,236.17L141.31,236.66L141.31,236.5L141.56,236.37L142.01,236.87L142.07,236.8L142.08,236.77L142.89,236.71L142.89,236.89L142.9,236.91L142.92,236.73L143.32,237.13L143.63,236.9L143.64,237.13L143.66,236.9L144.15,237.31L144.39,237.07L144.4,237.26L144.57,237.04L145.07,237.43L145.14,237.36L145.15,237.37L145.32,237.51L145.87,237.37L145.93,237.53L145.94,237.59L146.04,237.69L146.72,237.53L146.74,237.56L146.75,237.74L146.8,237.53L147.18,237.9L147.49,237.73L147.5,237.79L147.56,237.74L148.34,238.16L148.36,238.05L148.37,237.97L148.41,237.9L149.06,238.28L149.12,238.02L149.13,238.23L149.36,238L149.72,238.35L149.87,238.25L149.88,238.31L150.74,238.29L150.78,238.34L150.78,238.55L151.04,238.27L151.52,238.66L151.53,238.5L151.53,238.7L151.98,238.47L152.22,238.79L152.28,238.58L152.29,238.72L153.74,239.03L153.74,238.86L153.82,238.84L154.46,239.24L154.54,239.11L154.55,239.09L155.65,239.53L155.69,239.39L155.7,239.32L156.47,239.66L156.57,239.55L156.58,239.45L157.5,239.81L157.5,239.66L157.5,239.62L157.56,239.58L158.13,240.02L158.26,239.85L158.27,239.9L158.34,239.84L159.04,240.19L159.09,240.1L159.1,239.94L159.11,239.93L159.62,240.26L159.85,240.08L159.86,240.16L160.86,240.47L160.88,240.38L160.88,240.28L160.94,240.25L161.54,240.61L161.65,240.49L161.66,240.46L162.66,240.81L162.72,240.73L162.72,240.61L163.02,240.85L163.2,240.45L163.47,240.66L163.47,240.52L163.58,240.49L164.27,240.83L164.27,240.8L164.28,240.65L165.07,241.07L165.08,240.98L165.09,240.88L165.29,240.82L165.84,241.09L165.88,240.99L165.88,240.92L166.66,241.25L166.66,241.15L166.67,241.19L166.74,241.29L167.35,241.17L167.39,241.27L167.4,241.42L167.44,241.2L168.13,241.52L168.15,241.47L168.16,241.39L169.08,241.7L169.08,241.65L169.09,241.55L170.18,241.91L170.18,241.83L170.19,241.73L170.28,241.68L170.92,242.01L170.94,241.98L170.95,241.98L172.13,242.23L172.16,242.17L172.17,242.01L172.94,242.4L172.94,242.31L172.95,242.26L173.12,242.18L173.75,242.4L173.76,242.38L173.77,242.29L174.67,242.65L174.68,242.52L174.69,242.44L174.73,242.43L175.36,242.73L175.44,242.59L175.45,242.73L175.49,242.56L176.13,242.95L176.2,242.73L176.2,242.85L177.25,242.92L177.26,243.04L177.32,242.83L177.82,243.15L178.01,243.04L178.02,242.98L178.75,243.28L178.82,243.16L178.83,243.13L179.74,243.43L179.75,243.35L179.76,243.27L180.64,243.52L180.66,243.46L180.66,243.39L181.32,243.72L181.42,243.53L181.43,243.64L182.88,243.92L182.89,243.8L182.89,243.78L183.02,243.74L183.52,244.01L183.64,243.95L183.65,243.92L184.47,243.94L184.47,244.09L184.48,244.1L185.33,244.13L185.37,244.2L185.37,244.35L185.53,244.42L185.75,244.15L186.12,244.34L186.13,244.37L187.12,244.42L187.13,244.63L187.3,244.44L187.51,244.71L187.88,244.55L187.89,244.65L188.89,244.7L188.89,244.78L188.9,244.84L189.75,244.78L189.77,244.86L189.77,244.95L190.23,245.07L190.5,244.87L190.52,244.93L190.53,245.02L190.55,244.81L190.92,245.15L191.27,245.08L191.28,245.12L192.27,245.24L192.28,245.32L192.28,245.34L193.03,245.29L193.11,245.46L193.11,245.52L193.58,245.37L193.66,245.59L193.86,245.5L193.87,245.4L194.54,245.69L194.65,245.55L194.66,245.58L195.66,245.82L195.67,245.77L195.67,245.67L195.76,245.64L196.33,245.96L196.5,245.86L196.5,245.83L197.62,246.14L197.62,246.07L197.62,245.99L197.84,245.96L198.21,246.21L198.37,246.09L198.38,246.05L199.12,246.36L199.14,246.3L199.15,246.2L199.5,246.15L199.9,246.45L199.91,246.43L200.71,246.33L200.76,246.45L200.77,246.54L200.97,246.36L201.47,246.64L201.52,246.48L201.53,246.59L202.4,246.6L202.41,246.76L202.48,246.82L202.89,246.66L203.15,246.85L203.16,246.88L203.4,246.71L203.85,247.05L203.9,247.04L203.91,247L204.98,246.98L204.98,247.14L205.26,246.98L205.73,247.12L205.74,247.24L206.65,247.17L206.68,247.2L206.69,247.32L206.78,247.39L207.53,247.3L207.54,247.45L207.99,247.59L208.2,247.36L208.27,247.47L208.28,247.59L208.29,247.41L209.02,247.74L209.03,247.61L209.04,247.68L209.27,247.52L209.69,247.84L209.77,247.69L209.78,247.81L210.6,247.72L210.65,247.77L210.65,247.93L211.2,247.78L211.4,247.86L211.41,248.01L212.19,247.91L212.2,247.97L212.2,248.06L212.23,247.84L212.92,248.16L212.94,247.98L212.95,248.09L213.9,248.16L213.91,248.24L214.9,248.24L214.9,248.42L215.01,248.46L215.6,248.27L215.67,248.32L215.68,248.45L216.67,248.47L216.68,248.49L216.69,248.67L216.85,248.43L217.32,248.71L217.44,248.58L217.45,248.49L217.49,248.47L218.2,248.78L218.22,248.72L218.23,248.65L218.91,248.89L219.02,248.79L219.03,248.71L219.63,249.02L219.78,248.93L219.79,248.89L220.79,249.12L220.79,249.04L220.8,248.93L221.07,249.21L221.55,249.07L221.56,249.12L223.35,249.38L223.36,249.29L223.36,249.22L223.97,249.5L224.11,249.41L224.12,249.35L224.53,249.33L224.73,249.6L224.87,249.47L224.88,249.45L225.23,249.42L225.49,249.71L225.63,249.59L225.64,249.61L226.94,249.78L226.94,249.74L226.95,249.63L227.46,249.96L227.7,249.87L227.71,249.86L228.56,249.87L228.58,249.97L228.58,249.99L229.87,250L229.87,250.09L229.88,250.12L230.64,250.12L230.66,250.17L230.67,250.28L230.88,250.11L231.2,250.36L231.42,250.22L231.43,250.37L231.71,250.2L232.07,250.44L232.17,250.3L232.18,250.41L232.36,250.26L232.54,250.5L232.93,250.44L232.93,250.51L233.28,250.62L233.54,250.38L233.67,250.53L233.68,250.65L233.73,250.67L233.81,250.46L234.43,250.63L234.44,250.63L235.46,250.59L235.46,250.75L235.47,250.58L236.07,250.87L236.2,250.79L236.21,250.85L237.89,251.05L237.89,251.11L237.9,251.14L238.73,251.07L238.76,251.11L238.76,251.24L239.69,251.18L239.69,251.29L239.7,251.33L241.22,251.35L241.22,251.5L241.68,251.39L241.97,251.49L241.98,251.61L243.42,251.63L243.42,251.7L243.43,251.74L244.56,251.7L244.58,251.79L244.59,251.86L244.66,251.9L245.33,251.82L245.35,251.91L245.36,251.89L246.43,251.94L246.45,252.02L246.45,252.08L247.31,251.98L247.34,252.04L247.35,252.14L248.28,252.12L248.3,252.19L248.31,252.25L249.13,252.19L249.15,252.22L249.15,252.34L249.99,252.34L250,252.42L250,252.45L251.24,252.44L251.24,252.44L251.25,252.58L252.56,252.51L252.58,252.57L252.58,252.65L253.29,252.53L253.37,252.6L253.38,252.69L253.78,252.54L254.14,252.61L254.15,252.75L254.22,252.57L254.76,252.83L254.9,252.67L254.91,252.81L255.98,252.87L255.98,252.87L255.99,252.95L257.03,252.91L257.03,253.06L257.62,252.9L257.83,253L257.83,253.12L258.65,253.07L258.66,253.2L259.88,253.16L259.89,253.31L260.7,253.33L260.71,253.47L261.21,253.54L261.45,253.35L261.46,253.37L261.47,253.49L262.39,253.45L262.43,253.52L262.44,253.62L263.3,253.55L263.35,253.65L263.35,253.71L264.12,253.66L264.14,253.74L264.15,253.77L265.01,253.7L265.03,253.77L265.03,253.86L265.67,253.71L265.78,253.78L265.79,253.87L266.71,253.85L266.74,253.96L266.74,254L267.53,253.94L267.54,254.04L268.35,254.01L268.37,254.11L268.37,254.15L269.62,254.14L269.62,254.27L269.66,254.1L269.98,254.36L270.37,254.2L270.37,254.31L271.6,254.32L271.6,254.45L272.59,254.36L272.59,254.5L273.59,254.51L273.62,254.62L273.62,254.66L274.47,254.58L274.47,254.62L274.48,254.7L277.12,254.9L277.13,254.81L277.13,254.79L277.97,255.05L277.98,254.99L277.98,254.92L279.22,255.07L279.22,255.02L279.23,254.97L280.29,255.21L280.31,255.15L280.31,255.08L281.19,255.29L281.21,255.23L281.22,255.17L282.31,255.41L282.32,255.35L282.32,255.31L283.57,255.48L283.57,255.4L283.58,255.33L284.41,255.58L284.46,255.52L284.47,255.44L285.3,255.59L285.3,255.59L285.31,255.47L286.05,255.73L286.1,255.62L286.1,255.55L286.83,255.79L286.91,255.75L286.91,255.64L287.72,255.83L287.72,255.78L287.72,255.69L288.59,255.88L288.61,255.82L288.62,255.75L289.47,255.91L289.47,255.86L289.48,255.84L290.51,256.07L290.54,255.98L290.54,255.92L291.7,256.13L291.71,256.07L291.71,256.01L292.51,256.23L292.61,256.11L292.61,256.04L293.31,256.25L293.38,256.18L293.39,256.1L294.32,256.33L294.32,256.27L294.33,256.2L295.37,256.42L295.37,256.31L296.38,256.45L296.39,256.4L296.4,256.36L297.35,256.53L297.38,256.43L297.38,256.41L298.35,256.66L298.38,256.56L298.38,256.54L299.28,256.7L299.32,256.65L299.33,256.54L299.91,256.78L300.09,256.68L300.1,256.61L300.79,256.82L300.87,256.75L300.88,256.7L302.2,256.95L302.21,256.85L302.21,256.75L302.96,256.98L302.97,256.91L302.98,256.96L304.54,256.96L304.54,257.11L304.57,257.12L305.02,256.9L305.28,257.06L305.29,257.14L306.03,257.04L306.08,257.07L306.08,257.15L307.18,257.19L307.18,257.31L307.95,257.23L307.98,257.29L307.99,257.37L308.06,257.21L308.53,257.46L308.73,257.36L308.74,257.4L310.14,257.38L310.14,257.45L310.15,257.47L312.78,257.76L312.79,257.67L312.79,257.58L313.6,257.84L313.6,257.75L313.61,257.68L314.52,257.84L314.52,257.84L314.53,257.73L315.94,257.96L315.96,257.85L315.97,257.79L316.89,258.06L316.91,257.97L316.91,257.95L318.39,258.14L318.39,258.09L318.4,258L319.19,258.21L319.24,258.14L319.25,258.08L320.35,258.35L320.44,258.26L320.45,258.19L321.27,258.37L321.28,258.32L321.28,258.28L322.31,258.45L322.31,258.41L322.32,258.34L323.24,258.52L323.25,258.51L323.25,258.41L323.36,258.37L324.02,258.54L324.02,258.45L324.03,258.41L324.99,258.61L324.99,258.52L325,258.47L325.72,258.71L325.77,258.63L325.77,258.55L327.6,258.78L327.61,258.69L328.41,258.85L328.42,258.75L329.38,258.89L329.4,258.83L329.41,258.76L330.21,259L330.22,258.9L330.22,258.85L331.25,259.05L331.27,259.02L331.27,258.91L332.07,259.12L332.08,259.06L332.08,259L333.1,259.19L333.1,259.14L333.11,259.11L334.29,259.24L334.29,259.17L334.3,259.1L335.1,259.32L335.12,259.28L335.13,259.21L337.58,259.36L337.59,259.49L338.2,259.38L338.33,259.48L338.34,259.57L339.05,259.45L339.11,259.5L339.12,259.55L339.99,259.7" style="vector-effect: non-scaling-stroke; fill: none; stroke: rgb(28, 167, 28); stroke-opacity: 1; stroke-width: 2px; opacity: 1;"/></g><g class="points"/><g class="text"/></g><g class="trace scatter trace64c2f5" style="stroke-miterlimit: 2; opacity: 1;"><g class="fills"/><g class="errorbars"/><g class="lines"><path class="js-line" d="M0,143.13L0.54,295.94L0.75,295.88L0.76,295.73L2.41,294.39L2.42,294.42L2.43,294.6L3.15,294.06L3.18,294.26L3.19,294.15L4.23,293.83L4.24,293.86L4.25,294.05L4.79,293.78L5,293.99L5.01,293.86L5.91,293.95L5.93,293.93L5.93,293.75L6.16,293.73L6.46,293.97L6.68,293.75L6.69,293.9L6.7,293.73L6.86,293.99L7.44,293.78L7.44,293.97L7.47,294.01L7.77,293.79L8.18,293.9L8.19,294L8.27,293.82L8.74,294.12L8.94,293.93L8.95,294.04L9.09,294.15L9.65,294L9.7,294.06L9.71,294.21L9.76,294.01L10.34,294.31L10.46,294.22L10.47,294.12L10.66,294.08L11.23,294.37L11.24,294.22L11.27,294.19L11.98,294.51L12,294.45L12,294.32L12.7,294.68L12.75,294.66L12.76,294.48L13.44,294.82L13.52,294.74L13.53,294.63L14.22,294.96L14.28,294.9L14.29,294.93L15.19,295.02L15.2,295.18L15.32,295.01L15.65,295.29L15.94,295.2L15.94,295.31L15.96,295.14L16.48,295.46L16.68,295.33L16.69,295.36L17.65,295.71L17.65,295.56L18.53,295.94L18.54,295.91L18.55,295.76L19.28,296.14L19.32,296.09L19.32,295.97L20.06,296.31L20.1,296.23L20.1,296.16L20.14,296.15L20.86,296.52L20.87,296.45L20.88,296.34L21.51,296.71L21.63,296.7L21.64,296.61L23,297.07L23.02,296.99L23.02,296.89L23.65,297.25L23.79,297.22L23.79,297.18L25.43,297.66L25.43,297.62L25.44,297.53L26.23,297.91L26.24,297.76L27.16,298.2L27.17,298.18L27.18,298.03L27.98,298.39L27.99,298.25L28.92,298.65L28.92,298.49L29.73,298.87L29.73,298.74L29.74,298.75L30.85,299.14L30.86,299.02L30.87,299L31.75,299.36L31.76,299.32L31.77,299.24L32.69,299.65L32.73,299.61L32.74,299.5L33.63,299.87L33.63,299.74L34.4,300.08L34.42,300.05L34.42,299.95L35.21,300.29L35.21,300.21L35.22,300.17L36.16,300.53L36.18,300.5L36.18,300.4L37.02,300.73L37.03,300.72L37.04,300.62L38.01,300.98L38.01,300.91L38.02,300.89L39.24,301.32L39.26,301.3L39.26,301.19L40.29,301.55L40.3,301.44L41.54,301.85L41.54,301.74L42.75,302.11L42.75,302.04L42.76,302.01L43.79,302.36L43.79,302.32L43.8,302.25L45.24,302.69L45.25,302.57L46.2,302.88L46.2,302.79L47.06,303.11L47.1,303.09L47.11,303L48.56,303.42L48.57,303.31L49.67,303.63L49.67,303.53L50.78,303.87L50.8,303.84L50.8,303.76L51.8,304.08L51.81,304.07L51.82,303.98L52.93,304.27L52.93,304.17L54.13,304.5L54.13,304.43L55.59,304.78L55.59,304.67L56.75,305L56.77,304.98L56.77,304.88L58.07,305.21L58.08,305.12L59.18,305.42L59.18,305.32L60.44,305.62L60.45,305.6L60.46,305.52L61.53,305.78L61.54,305.69L62.82,305.97L62.82,305.95L62.83,305.9L64.26,306.21L64.26,306.17L64.27,306.13L65.87,306.42L65.87,306.39L65.88,306.33L67.22,306.65L67.23,306.62L67.23,306.55L69.17,306.89L69.17,306.8L70.35,307.08L70.37,307.03L70.37,306.99L71.98,307.26L71.98,307.18L73.43,307.49L73.44,307.41L74.99,307.64L75,307.57L76.44,307.86L76.44,307.82L76.45,307.8L78.54,308.07L78.54,308L80.2,308.23L80.21,308.21L80.22,308.16L81.48,308.35L81.48,308.28L83.11,308.55L83.12,308.53L83.12,308.5L84.96,308.77L84.97,308.69L87.54,308.97L87.54,308.91L89.11,309.08L89.12,309L90.32,309.2L90.33,309.13L91.8,309.3L91.81,309.23L92.96,309.4L92.98,309.37L92.98,309.32L95.06,309.59L95.06,309.53L95.07,309.52L98.84,309.78L98.84,309.73L100.79,309.93L100.8,309.87L103.26,310.11L103.26,310.1L103.27,310.05L105.47,310.24L105.47,310.21L105.48,310.18L108.99,310.38L109,310.34L110.5,310.52L110.51,310.47L112.58,310.68L112.59,310.65L112.6,310.61L114.92,310.71L114.93,310.78L116.29,310.76L116.29,310.83L118.09,310.82L118.09,310.87L124.03,311.17L124.04,311.22L125.75,311.24L125.75,311.29L127.05,311.21L127.06,311.26L129.52,311.32L129.53,311.38L148.16,311.98L148.16,311.94L148.17,311.92L152.57,312.06L152.58,312.1L153.93,312.03L153.93,312.04L153.94,312.08L155.67,312.14L155.68,312.08L162.3,312.3L162.3,312.26L166.92,312.52L166.92,312.48L174.9,312.61L174.9,312.65L186.81,312.76L186.82,312.71L187.92,312.85L187.93,312.81L192.78,312.88L192.78,312.9L194.22,312.9L194.23,312.92L194.23,312.95L195.76,312.92L195.76,312.89L195.77,312.88L207.46,313.03L207.47,312.99L210,313.08L210,313.07L210.01,313.04L272.47,313.77L272.47,313.78L273.55,313.71L273.56,313.73L273.57,313.77L275.04,313.62L275.05,313.64L279.03,313.8L279.03,313.85L280.85,313.67L280.86,313.7L280.86,313.72L282.12,313.83L282.13,313.81L282.13,313.8L285.05,313.64L285.05,313.63L285.06,313.62L286.27,313.71L286.27,313.68L287.63,313.73L287.63,313.7L289.19,313.65L289.19,313.68L294.66,313.71L294.67,313.67L295.57,313.75L295.57,313.72L296.47,313.77L296.47,313.74L298.11,313.72L298.12,313.76L299.9,313.79L299.91,313.75L301.82,313.79L301.82,313.76L301.83,313.75L311.87,313.85L311.87,313.82L313,313.92L313,313.88L314.2,313.96L314.21,313.98L314.22,314.01L316.75,314.05L316.75,314.08L317.71,313.83L317.71,313.84L317.72,313.85L320.4,314.05L320.4,314.08L321.45,313.83L321.47,313.85L321.47,313.88L322.47,313.94L322.48,313.93L322.48,313.91L323.24,314.07L323.32,313.95L323.32,313.91L326.24,313.89L326.24,313.91L333.63,314.11L333.63,314.14L335.78,313.96L335.79,313.93L337.37,313.95L337.37,313.95L337.38,313.93L339.99,314L339.99,313.95" style="vector-effect: non-scaling-stroke; fill: none; stroke: rgb(182, 129, 0); stroke-opacity: 1; stroke-width: 2px; opacity: 1;"/></g><g class="points"/><g class="text"/></g></g></g><g class="overplot"/><path class="xlines-above crisp" d="M78,421H420" style="fill: none; stroke-width: 2px; stroke: rgb(0, 0, 0); stroke-opacity: 1;"/><path class="ylines-above crisp" d="M79,100V420" style="fill: none; stroke-width: 2px; stroke: rgb(0, 0, 0); stroke-opacity: 1;"/><g class="overlines-above"/><g class="xaxislayer-above"><path class="xtick ticks crisp" d="M0,422v5" transform="translate(80,0)" style="stroke: rgb(68, 68, 68); stroke-opacity: 1; stroke-width: 1px;"/><path class="xtick ticks crisp" d="M0,422v5" transform="translate(136.67000000000002,0)" style="stroke: rgb(68, 68, 68); stroke-opacity: 1; stroke-width: 1px;"/><path class="xtick ticks crisp" d="M0,422v5" transform="translate(193.32999999999998,0)" style="stroke: rgb(68, 68, 68); stroke-opacity: 1; stroke-width: 1px;"/><path class="xtick ticks crisp" d="M0,422v5" transform="translate(250,0)" style="stroke: rgb(68, 68, 68); stroke-opacity: 1; stroke-width: 1px;"/><path class="xtick ticks crisp" d="M0,422v5" transform="translate(306.66999999999996,0)" style="stroke: rgb(68, 68, 68); stroke-opacity: 1; stroke-width: 1px;"/><path class="xtick ticks crisp" d="M0,422v5" transform="translate(363.33,0)" style="stroke: rgb(68, 68, 68); stroke-opacity: 1; stroke-width: 1px;"/><path class="xtick ticks crisp" d="M0,422v5" transform="translate(420,0)" style="stroke: rgb(68, 68, 68); stroke-opacity: 1; stroke-width: 1px;"/><g class="xtick"><text text-anchor="middle" x="0" y="448.6" transform="translate(80,0)" style="font-family: 'Times New Roman', monospace; font-size: 18px; fill: rgb(105, 105, 105); fill-opacity: 1; white-space: pre; opacity: 1;">0</text></g><g class="xtick"><text text-anchor="middle" x="0" y="448.6" style="font-family: 'Times New Roman', monospace; font-size: 18px; fill: rgb(105, 105, 105); fill-opacity: 1; white-space: pre; opacity: 1;" transform="translate(136.67000000000002,0)">20</text></g><g class="xtick"><text text-anchor="middle" x="0" y="448.6" style="font-family: 'Times New Roman', monospace; font-size: 18px; fill: rgb(105, 105, 105); fill-opacity: 1; white-space: pre; opacity: 1;" transform="translate(193.32999999999998,0)">40</text></g><g class="xtick"><text text-anchor="middle" x="0" y="448.6" style="font-family: 'Times New Roman', monospace; font-size: 18px; fill: rgb(105, 105, 105); fill-opacity: 1; white-space: pre; opacity: 1;" transform="translate(250,0)">60</text></g><g class="xtick"><text text-anchor="middle" x="0" y="448.6" style="font-family: 'Times New Roman', monospace; font-size: 18px; fill: rgb(105, 105, 105); fill-opacity: 1; white-space: pre; opacity: 1;" transform="translate(306.66999999999996,0)">80</text></g><g class="xtick"><text text-anchor="middle" x="0" y="448.6" style="font-family: 'Times New Roman', monospace; font-size: 18px; fill: rgb(105, 105, 105); fill-opacity: 1; white-space: pre; opacity: 1;" transform="translate(363.33,0)">100</text></g><g class="xtick"><text text-anchor="middle" x="0" y="448.6" style="font-family: 'Times New Roman', monospace; font-size: 18px; fill: rgb(105, 105, 105); fill-opacity: 1; white-space: pre; opacity: 1;" transform="translate(420,0)">120</text></g></g><g class="yaxislayer-above"><path class="ytick ticks crisp" d="M78,0h-5" transform="translate(0,420)" style="stroke: rgb(68, 68, 68); stroke-opacity: 1; stroke-width: 1px;"/><path class="ytick ticks crisp" d="M78,0h-5" transform="translate(0,356)" style="stroke: rgb(68, 68, 68); stroke-opacity: 1; stroke-width: 1px;"/><path class="ytick ticks crisp" d="M78,0h-5" transform="translate(0,292)" style="stroke: rgb(68, 68, 68); stroke-opacity: 1; stroke-width: 1px;"/><path class="ytick ticks crisp" d="M78,0h-5" transform="translate(0,228)" style="stroke: rgb(68, 68, 68); stroke-opacity: 1; stroke-width: 1px;"/><path class="ytick ticks crisp" d="M78,0h-5" transform="translate(0,164)" style="stroke: rgb(68, 68, 68); stroke-opacity: 1; stroke-width: 1px;"/><path class="ytick ticks crisp" d="M78,0h-5" transform="translate(0,100)" style="stroke: rgb(68, 68, 68); stroke-opacity: 1; stroke-width: 1px;"/><g class="ytick"><text text-anchor="end" x="69.4" y="6.3" transform="translate(0,420)" style="font-family: 'Times New Roman', monospace; font-size: 18px; fill: rgb(105, 105, 105); fill-opacity: 1; white-space: pre; opacity: 1;">0</text></g><g class="ytick"><text text-anchor="end" x="69.4" y="6.3" style="font-family: 'Times New Roman', monospace; font-size: 18px; fill: rgb(105, 105, 105); fill-opacity: 1; white-space: pre; opacity: 1;" transform="translate(0,356)">5</text></g><g class="ytick"><text text-anchor="end" x="69.4" y="6.3" style="font-family: 'Times New Roman', monospace; font-size: 18px; fill: rgb(105, 105, 105); fill-opacity: 1; white-space: pre; opacity: 1;" transform="translate(0,292)">10</text></g><g class="ytick"><text text-anchor="end" x="69.4" y="6.3" style="font-family: 'Times New Roman', monospace; font-size: 18px; fill: rgb(105, 105, 105); fill-opacity: 1; white-space: pre; opacity: 1;" transform="translate(0,228)">15</text></g><g class="ytick"><text text-anchor="end" x="69.4" y="6.3" style="font-family: 'Times New Roman', monospace; font-size: 18px; fill: rgb(105, 105, 105); fill-opacity: 1; white-space: pre; opacity: 1;" transform="translate(0,164)">20</text></g><g class="ytick"><text text-anchor="end" x="69.4" y="6.3" style="font-family: 'Times New Roman', monospace; font-size: 18px; fill: rgb(105, 105, 105); fill-opacity: 1; white-space: pre; opacity: 1;" transform="translate(0,100)">25</text></g></g><g class="overaxes-above"/></g></g><g class="polarlayer"/><g class="smithlayer"/><g class="ternarylayer"/><g class="geolayer"/><g class="funnelarealayer"/><g class="pielayer"/><g class="iciclelayer"/><g class="treemaplayer"/><g class="sunburstlayer"/><g class="glimages"/><defs id="topdefs-b381d0"><g class="clips"/><clipPath id="legendb381d0"><rect width="161" height="195" x="0" y="0"/></clipPath></defs><g class="layer-above"><g class="imagelayer"/><g class="shapelayer"/></g><g class="infolayer"><g class="legend" pointer-events="all" transform="translate(255.60000000000002,103.2)"><rect class="bg" shape-rendering="crispEdges" width="161" height="195" x="0" y="0" style="stroke: rgb(68, 68, 68); stroke-opacity: 1; fill: rgb(255, 255, 255); fill-opacity: 1; stroke-width: 0px;"/><g class="scrollbox" transform="" clip-path="url(#legendb381d0)"><g class="groups"><g class="traces" transform="translate(0,18.200000000000003)" style="opacity: 1;"><text class="legendtext" text-anchor="start" x="40" y="7.0200000000000005" style="font-family: 'Times New Roman', monospace; font-size: 18px; fill: rgb(105, 105, 105); fill-opacity: 1; white-space: pre;">IrO<tspan style="font-size:70%" dy="0.3em">x</tspan><tspan dy="-0.21em"></tspan></text><g class="layers" style="opacity: 1;"><g class="legendfill"/><g class="legendlines"><path class="js-line" d="M5,0h30" style="fill: none; stroke: rgb(46, 145, 229); stroke-opacity: 1; stroke-width: 2px;"/></g><g class="legendsymbols"><g class="legendpoints"/></g></g><rect class="legendtoggle" x="0" y="-13.200000000000001" width="155.8125" height="26.400000000000002" style="fill: rgb(0, 0, 0); fill-opacity: 0;"/></g><g class="traces" transform="translate(0,44.6)" style="opacity: 1;"><text class="legendtext" text-anchor="start" x="40" y="7.0200000000000005" style="font-family: 'Times New Roman', monospace; font-size: 18px; fill: rgb(105, 105, 105); fill-opacity: 1; white-space: pre;">Ni<tspan style="font-size:70%" dy="0.3em">60</tspan><tspan dy="-0.21em"></tspan>Co<tspan style="font-size:70%" dy="0.3em">30</tspan><tspan dy="-0.21em"></tspan>Fe<tspan style="font-size:70%" dy="0.3em">10</tspan><tspan dy="-0.21em"></tspan>O<tspan style="font-size:70%" dy="0.3em">x</tspan><tspan dy="-0.21em"></tspan></text><g class="layers" style="opacity: 1;"><g class="legendfill"/><g class="legendlines"><path class="js-line" d="M5,0h30" style="fill: none; stroke: rgb(225, 95, 153); stroke-opacity: 1; stroke-width: 2px;"/></g><g class="legendsymbols"><g class="legendpoints"/></g></g><rect class="legendtoggle" x="0" y="-13.200000000000001" width="155.8125" height="26.400000000000002" style="fill: rgb(0, 0, 0); fill-opacity: 0;"/></g><g class="traces" transform="translate(0,71)" style="opacity: 1;"><text class="legendtext" text-anchor="start" x="40" y="7.0200000000000005" style="font-family: 'Times New Roman', monospace; font-size: 18px; fill: rgb(105, 105, 105); fill-opacity: 1; white-space: pre;">FeN<tspan style="font-size:70%" dy="0.3em">x</tspan><tspan dy="-0.21em"></tspan></text><g class="layers" style="opacity: 1;"><g class="legendfill"/><g class="legendlines"><path class="js-line" d="M5,0h30" style="fill: none; stroke: rgb(251, 13, 13); stroke-opacity: 1; stroke-width: 2px;"/></g><g class="legendsymbols"><g class="legendpoints"/></g></g><rect class="legendtoggle" x="0" y="-13.200000000000001" width="155.8125" height="26.400000000000002" style="fill: rgb(0, 0, 0); fill-opacity: 0;"/></g><g class="traces" transform="translate(0,97.4)" style="opacity: 1;"><text class="legendtext" text-anchor="start" x="40" y="7.0200000000000005" style="font-family: 'Times New Roman', monospace; font-size: 18px; fill: rgb(105, 105, 105); fill-opacity: 1; white-space: pre;">CoN<tspan style="font-size:70%" dy="0.3em">x</tspan><tspan dy="-0.21em"></tspan></text><g class="layers" style="opacity: 1;"><g class="legendfill"/><g class="legendlines"><path class="js-line" d="M5,0h30" style="fill: none; stroke: rgb(218, 22, 255); stroke-opacity: 1; stroke-width: 2px;"/></g><g class="legendsymbols"><g class="legendpoints"/></g></g><rect class="legendtoggle" x="0" y="-13.200000000000001" width="155.8125" height="26.400000000000002" style="fill: rgb(0, 0, 0); fill-opacity: 0;"/></g><g class="traces" transform="translate(0,123.80000000000001)" style="opacity: 1;"><text class="legendtext" text-anchor="start" x="40" y="7.0200000000000005" style="font-family: 'Times New Roman', monospace; font-size: 18px; fill: rgb(105, 105, 105); fill-opacity: 1; white-space: pre;">NiN<tspan style="font-size:70%" dy="0.3em">x</tspan><tspan dy="-0.21em"></tspan></text><g class="layers" style="opacity: 1;"><g class="legendfill"/><g class="legendlines"><path class="js-line" d="M5,0h30" style="fill: none; stroke: rgb(34, 42, 42); stroke-opacity: 1; stroke-width: 2px;"/></g><g class="legendsymbols"><g class="legendpoints"/></g></g><rect class="legendtoggle" x="0" y="-13.200000000000001" width="155.8125" height="26.400000000000002" style="fill: rgb(0, 0, 0); fill-opacity: 0;"/></g><g class="traces" transform="translate(0,150.2)" style="opacity: 1;"><text class="legendtext" text-anchor="start" x="40" y="7.0200000000000005" style="font-family: 'Times New Roman', monospace; font-size: 18px; fill: rgb(105, 105, 105); fill-opacity: 1; white-space: pre;">Co<tspan style="font-size:70%" dy="0.3em">57</tspan><tspan dy="-0.21em"></tspan>Ni<tspan style="font-size:70%" dy="0.3em">14</tspan><tspan dy="-0.21em"></tspan>Fe<tspan style="font-size:70%" dy="0.3em">29</tspan><tspan dy="-0.21em"></tspan>N<tspan style="font-size:70%" dy="0.3em">x</tspan><tspan dy="-0.21em"></tspan></text><g class="layers" style="opacity: 1;"><g class="legendfill"/><g class="legendlines"><path class="js-line" d="M5,0h30" style="fill: none; stroke: rgb(28, 167, 28); stroke-opacity: 1; stroke-width: 2px;"/></g><g class="legendsymbols"><g class="legendpoints"/></g></g><rect class="legendtoggle" x="0" y="-13.200000000000001" width="155.8125" height="26.400000000000002" style="fill: rgb(0, 0, 0); fill-opacity: 0;"/></g><g class="traces" transform="translate(0,176.6)" style="opacity: 1;"><text class="legendtext" text-anchor="start" x="40" y="7.0200000000000005" style="font-family: 'Times New Roman', monospace; font-size: 18px; fill: rgb(105, 105, 105); fill-opacity: 1; white-space: pre;">Co<tspan style="font-size:70%" dy="0.3em">45</tspan><tspan dy="-0.21em"></tspan>Ni<tspan style="font-size:70%" dy="0.3em">45</tspan><tspan dy="-0.21em"></tspan>Fe<tspan style="font-size:70%" dy="0.3em">10</tspan><tspan dy="-0.21em"></tspan>N<tspan style="font-size:70%" dy="0.3em">x</tspan><tspan dy="-0.21em"></tspan></text><g class="layers" style="opacity: 1;"><g class="legendfill"/><g class="legendlines"><path class="js-line" d="M5,0h30" style="fill: none; stroke: rgb(182, 129, 0); stroke-opacity: 1; stroke-width: 2px;"/></g><g class="legendsymbols"><g class="legendpoints"/></g></g><rect class="legendtoggle" x="0" y="-13.200000000000001" width="155.8125" height="26.400000000000002" style="fill: rgb(0, 0, 0); fill-opacity: 0;"/></g></g></g><rect class="scrollbar" rx="20" ry="3" width="0" height="0" x="0" y="0" style="fill: rgb(128, 139, 164); fill-opacity: 1;"/></g><g class="g-gtitle"/><g class="g-xtitle"><text class="xtitle" x="250" y="483.009375" text-anchor="middle" style="font-family: 'Times New Roman', monospace; font-size: 22px; fill: rgb(105, 105, 105); opacity: 1; font-weight: normal; white-space: pre;">Time (min)</text></g><g class="g-ytitle" transform="translate(2.259765625,0)"><text class="ytitle" transform="rotate(-90,20.990625,260)" x="20.990625" y="260" text-anchor="middle" style="font-family: 'Times New Roman', monospace; font-size: 22px; fill: rgb(105, 105, 105); opacity: 1; font-weight: normal; white-space: pre;">Current (mA/cm<tspan style="font-size:70%" dy="-0.6em">2</tspan><tspan dy="0.42em"></tspan>/mg)</text></g></g></svg>