<svg class="main-svg" xmlns="http://www.w3.org/2000/svg" xmlns:xlink="http://www.w3.org/1999/xlink" width="500" height="500" style="" viewBox="0 0 500 500"><rect x="0" y="0" width="500" height="500" style="fill: rgb(255, 255, 255); fill-opacity: 1;"/><defs id="defs-b8e404"><g class="clips"><clipPath id="clipb8e404xyplot" class="plotclip"><rect width="416" height="428"/></clipPath><clipPath class="axesclip" id="clipb8e404x"><rect x="67" y="0" width="416" height="500"/></clipPath><clipPath class="axesclip" id="clipb8e404y"><rect x="0" y="0" width="500" height="428"/></clipPath><clipPath class="axesclip" id="clipb8e404xy"><rect x="67" y="0" width="416" height="428"/></clipPath></g><g class="gradients"/><g class="patterns"/></defs><g class="bglayer"><rect class="bg" x="67" y="0" width="416" height="428" style="fill: rgb(0, 0, 0); fill-opacity: 0; stroke-width: 0;"/></g><g class="layer-below"><g class="imagelayer"/><g class="shapelayer"/></g><g class="cartesianlayer"><g class="subplot xy"><g class="layer-subplot"><g class="shapelayer"/><g class="imagelayer"/></g><g class="minor-gridlayer"><g class="x"/><g class="y"/></g><g class="gridlayer"><g class="x"/><g class="y"/></g><g class="zerolinelayer"/><path class="xlines-below"/><path class="ylines-below"/><g class="overlines-below"/><g class="xaxislayer-below"/><g class="yaxislayer-below"/><g class="overaxes-below"/><g class="plot" transform="translate(67,0)" clip-path="url(#clipb8e404xyplot)"><g class="scatterlayer mlayer"><g class="trace scatter trace605b20" style="stroke-miterlimit: 2; opacity: 1;"><g class="fills"/><g class="errorbars"/><g class="lines"><path class="js-line" d="M0,-561L0.74,261.05L0.76,260.11L0.77,261.3L0.79,260.38L1.48,265.29L1.52,264.71L1.53,265.37L1.55,264.52L2.27,268.06L2.28,267.45L2.29,267.45L2.31,266.82L3.04,269.66L3.04,268.6L3.05,269.29L3.21,268.58L3.74,270.88L3.78,270.18L3.79,270.84L3.8,269.66L4.51,272.02L4.53,271.04L4.54,271.43L4.55,270.74L5.26,272.97L5.29,271.94L5.3,272.66L5.35,271.77L5.95,273.79L6.05,273.58L6.06,272.43L6.72,274.57L6.81,273.85L6.82,273.78L6.89,273.41L7.52,275.26L7.57,275.21L7.58,274.51L7.6,274.18L8.29,276.05L8.33,275.96L8.34,275L8.38,274.74L9.08,276.7L9.09,275.9L9.1,275.93L9.11,275.49L9.83,277.27L9.85,276.61L9.86,276.36L9.87,276.08L10.61,277.89L10.61,277.01L10.62,276.7L10.71,276.46L11.35,278.31L11.38,278.21L11.38,277.2L11.47,277.07L12.1,278.77L12.14,278.72L12.14,277.95L12.31,277.67L12.91,279.35L12.91,278.11L13.06,278.03L13.67,279.78L13.68,278.66L13.75,278.61L14.38,280.34L14.43,279.59L14.44,280.25L14.44,279.13L15.02,280.76L15.19,280.29L15.2,280.01L15.23,279.54L15.89,281.04L15.95,280.45L15.96,279.86L16.67,281.66L16.71,281.22L16.72,281.08L16.89,280.13L17.24,281.89L17.47,280.87L17.48,281.7L17.5,280.72L18.23,282.39L18.23,281.23L18.24,282.16L18.41,281.11L18.64,282.65L18.97,281.56L18.98,282.55L19.05,281.41L19.47,283.2L19.71,281.91L19.71,283.13L19.86,281.8L20.33,283.41L20.45,282.27L20.46,283.4L20.51,282.25L21.08,283.83L21.21,283.72L21.22,282.88L21.26,282.54L21.95,284.25L21.97,283.18L21.98,284.16L22.31,282.98L22.47,284.56L22.73,283.89L22.74,284.23L22.85,283.18L23.39,284.84L23.49,284.47L23.5,284.2L23.52,283.57L24.09,285.17L24.25,284.76L24.26,284.14L24.31,283.99L24.93,285.43L25.01,284.43L25.02,284.96L25.06,284.22L25.76,285.79L25.77,285.4L25.78,285.4L26,284.45L26.48,286.14L26.52,285.98L26.53,285.42L26.68,284.92L27.27,286.42L27.28,285.29L27.79,286.72L28.03,285.78L28.04,286.61L28.07,285.47L28.62,287.01L28.79,286.37L28.8,285.95L28.83,285.76L29.36,287.5L29.55,286.35L29.56,286.84L29.63,285.99L29.97,287.65L30.3,286.87L30.31,287.25L30.37,286.33L30.71,287.87L31.06,286.75L31.06,287.69L31.16,286.67L31.78,288.18L31.8,287.35L31.81,288.02L31.87,286.96L32.45,288.39L32.55,288.36L32.56,287.52L32.6,287.16L32.88,288.7L33.31,288.68L33.32,287.61L33.44,287.5L33.97,289L34.07,288.9L34.08,287.9L34.14,287.69L34.82,289.43L34.83,288.92L34.84,288.73L34.89,288.06L35.38,289.58L35.58,288.81L35.59,289.29L35.59,288.28L36.26,289.85L36.34,289.68L36.35,288.55L36.38,288.52L37.09,290.07L37.1,289.98L37.11,289.34L37.23,288.88L37.82,290.38L37.84,289.43L37.85,290.22L37.96,289.05L38.55,290.83L38.59,290.23L38.6,290.23L38.65,289.5L39.26,290.87L39.35,289.96L39.36,290.15L39.37,289.65L39.97,291.15L40.11,289.8L40.12,291.11L40.14,289.87L40.84,291.36L40.87,291.34L40.88,290.21L40.91,290.13L41.49,291.69L41.63,290.59L41.64,291.56L41.66,290.28L42.3,291.79L42.39,290.54L42.39,291.68L42.69,290.54L43.01,292.02L43.14,290.97L43.14,291.93L43.27,290.81L43.76,292.25L43.89,291.45L43.9,292.12L44.07,291.05L44.28,292.45L44.64,291.31L44.65,292.62L44.82,291.26L45.28,292.82L45.4,292.19L45.4,292.56L45.51,291.58L46.14,293.07L46.14,291.99L46.15,292.6L46.19,291.76L46.72,293.33L46.9,292.28L46.9,293.35L47.36,292.12L47.64,293.7L47.65,292.44L47.66,293.32L47.68,292.3L48.41,293.81L48.42,292.71L48.65,292.62L49.16,294.13L49.17,293.57L49.18,293.89L49.19,292.67L49.91,294.34L49.92,293.15L49.93,294.04L50.11,293.13L50.54,294.61L50.68,293.36L50.69,294.19L50.86,293.37L51.09,294.79L51.44,294.01L51.45,293.99L51.64,293.53L52.1,295.09L52.2,294.02L52.21,295.01L52.35,293.8L52.79,295.31L52.96,294.42L52.97,294.79L53.07,294.13L53.59,295.53L53.71,295.35L53.72,294.36L54.42,295.76L54.47,295.16L54.48,295.61L54.48,294.56L55.07,296.05L55.23,296.03L55.24,295.14L55.28,294.78L55.91,296.44L55.99,296.33L56,295.01L56.08,294.97L56.25,296.56L56.75,295.4L56.76,296.52L56.89,295.39L57.15,296.79L57.51,295.8L57.52,296.13L57.68,295.56L58.06,297.04L58.27,296.17L58.28,296.68L58.29,295.73L58.92,297.28L59.02,296.22L59.03,297.25L59.09,296.09L59.64,297.52L59.78,296.75L59.79,296.85L59.9,296.2L60.41,297.87L60.54,296.47L60.55,297.99L60.83,296.51L60.93,298.01L61.3,297.14L61.31,297.17L61.35,296.78L61.97,298.31L62.06,297.11L62.07,298.06L62.27,297.03L62.76,298.35L62.81,297.4L62.82,298.35L62.95,297.23L63.43,298.79L63.57,298.66L63.58,297.59L63.74,297.43L64.31,298.96L64.33,298.47L64.34,297.64L65.09,299.24L65.09,298.23L65.1,298.49L65.27,298L65.67,299.42L65.85,299.4L65.86,298.36L65.87,298.26L66.59,299.68L66.61,298.75L66.62,299.66L66.7,298.44L67.32,299.89L67.37,299.03L67.38,299.3L67.42,298.66L68.06,300.09L68.13,299.65L68.13,298.93L68.78,300.34L68.89,300.21L68.89,299.2L68.97,299.1L69.4,300.68L69.65,300.22L69.65,299.34L70.25,300.82L70.4,300.81L70.41,299.88L70.43,299.69L70.99,300.98L71.16,299.8L71.17,300.99L71.22,299.77L71.58,301.33L71.92,300.33L71.93,301.18L71.93,300.13L72.61,301.53L72.68,301.27L72.69,300.84L72.74,300.26L73.24,301.67L73.42,300.92L73.43,301.49L73.72,300.57L74.12,302.01L74.18,301.48L74.18,301.84L74.19,300.74L74.9,302.14L74.92,301.21L74.93,302.13L75.04,301.02L75.65,302.44L75.68,302.33L75.69,301.96L75.8,301.26L76.36,302.64L76.44,302.6L76.45,301.75L76.46,301.44L77.1,302.88L77.2,301.83L77.21,302.85L77.26,301.7L77.91,303.06L77.96,301.97L77.97,303.11L78.28,303.34L78.46,301.96L78.72,303.12L78.73,302.71L78.75,302.23L79.18,303.55L79.48,302.53L79.49,303.39L79.61,302.46L80.1,303.85L80.23,303.23L80.24,303.45L80.44,302.56L80.62,304.01L80.99,303.05L81,303.31L81.13,302.87L81.66,304.32L81.75,303.57L81.76,304.16L81.89,303.09L82.5,304.55L82.51,304.18L82.52,303.94L82.82,303.43L83.25,304.8L83.27,304.48L83.28,303.65L83.4,303.58L84,305.05L84.03,304.37L84.04,304.19L84.07,303.9L84.79,305.29L84.8,304.46L84.84,304.18L85.51,305.57L85.56,305.43L85.56,304.72L85.61,304.41L86.16,305.76L86.29,305.45L86.3,304.8L86.33,304.53L87.05,306.03L87.06,305L87.19,304.82L87.75,306.22L87.81,306.04L87.82,305.43L87.83,305.05L88.5,306.48L88.57,306.05L88.58,306.03L89.16,305.35L89.32,306.66L89.33,306.35L89.34,306.32L89.39,305.55L89.78,306.91L90.09,305.94L90.1,306.79L90.51,305.86L90.68,307.23L90.85,307.1L90.86,306.36L90.9,306.08L91.6,307.37L91.61,307L91.62,307.01L91.69,306.32L92.3,307.65L92.37,306.64L92.38,307.57L92.4,306.61L93.02,308.06L93.13,307.75L93.14,307.37L93.17,306.83L93.88,308.18L93.89,308.17L93.9,307.19L94.03,307.08L94.57,308.49L94.66,308.35L94.66,307.64L94.91,307.35L95.22,308.65L95.41,308.35L95.42,307.73L95.73,307.63L96.08,308.94L96.17,308.77L96.18,308.29L96.21,307.92L96.84,309.3L96.93,308.71L96.93,308.17L97.16,308.11L97.65,309.52L97.69,309.29L97.7,308.81L97.8,308.39L98.46,309.75L98.46,308.71L98.54,308.65L99.17,310.02L99.22,309.67L99.22,308.98L99.34,308.85L99.92,310.16L99.98,310.11L99.98,309.16L100.71,310.52L100.73,310.04L100.74,309.59L100.75,309.37L101.45,310.81L101.49,310.27L101.5,310.18L101.52,309.65L102.08,310.98L102.25,310.62L102.26,310.57L102.43,309.96L102.93,311.27L103.01,310.67L103.02,311.03L103.16,310.16L103.58,311.49L103.77,311.4L103.78,310.87L103.93,310.49L104.43,311.75L104.49,310.67L104.49,311.63L104.57,310.68L105.12,311.99L105.24,311.56L105.25,311.62L105.25,310.87L105.99,312.28L106,311.97L106.01,311.85L106.14,311.3L106.74,312.56L106.75,311.6L106.76,312.34L106.78,311.4L107.29,312.73L107.51,312.67L107.52,312.04L107.58,311.78L108.15,313.02L108.27,312.31L108.28,312.54L108.32,312.06L108.91,313.35L109.03,312.26L109.04,313.26L109.15,312.32L109.76,313.67L109.79,313.47L109.8,312.94L109.92,312.49L110.53,313.85L110.55,313.45L110.56,312.94L110.82,312.92L111.25,314.12L111.31,313.45L111.32,314.1L111.38,313.14L111.95,314.41L112.06,313.56L112.07,314.48L112.12,313.43L112.73,314.7L112.82,314.44L112.83,313.9L112.87,313.65L113.46,314.89L113.58,314.78L113.59,314.03L113.66,313.98L114.2,315.26L114.34,314.86L114.35,314.93L114.35,314.14L115.07,315.53L115.1,314.54L115.11,315.26L115.15,314.6L115.78,315.78L115.85,315.25L115.86,315.66L115.98,314.76L116.61,316.08L116.62,315.25L116.75,315.12L117.33,316.37L117.37,315.59L117.38,316.32L117.75,315.45L118.06,316.72L118.13,316.67L118.14,315.93L118.2,315.63L118.74,316.93L118.89,316.8L118.9,316.3L118.91,315.97L119.62,317.18L119.66,316.92L119.67,316.32L119.73,316.25L120.28,317.55L120.42,317.28L120.43,316.52L121.1,317.74L121.18,316.92L121.19,317.72L121.27,316.8L121.83,318.06L121.94,317.36L121.95,317.47L121.99,317.01L122.63,318.4L122.7,317.56L122.71,318.34L122.73,317.41L123.38,318.62L123.46,318.54L123.47,317.71L124.21,319.03L124.22,318.34L124.23,318.85L124.44,317.96L124.91,319.25L124.98,318.99L124.99,318.29L125.09,318.28L125.54,319.51L125.75,319.24L125.75,319.08L125.77,318.6L126.39,319.8L126.49,319.43L126.5,319.5L126.59,318.91L127.23,320.14L127.25,319.87L127.26,319.26L128,320.42L128.01,320.2L128.02,320.13L128.02,319.52L128.74,320.78L128.77,320.75L128.78,320.15L128.79,319.84L129.51,321.04L129.53,320.56L129.54,320.36L129.55,320.2L130.14,321.34L130.29,321.29L130.3,320.52L130.39,320.44L131.01,321.69L131.06,321.21L131.06,320.87L131.07,320.82L131.66,322.08L131.81,321.79L131.82,321.1L132.58,322.28L132.58,321.64L132.6,321.4L133.32,322.57L133.33,322.26L133.34,321.89L133.43,321.74L134.08,322.94L134.1,322.83L134.1,322.11L134.12,322L134.8,323.25L134.86,322.82L134.87,322.52L134.99,322.45L135.52,323.49L135.62,323.25L135.63,322.68L136.32,323.82L136.38,323.32L136.39,323.03L136.47,323.01L137.13,324.15L137.15,324.06L137.15,323.35L137.17,323.3L137.89,324.45L137.91,324.13L137.92,323.72L137.98,323.6L138.57,324.83L138.67,324.64L138.68,323.98L139.31,325.1L139.43,324.98L139.44,324.22L140.17,325.49L140.19,324.6L140.2,325.42L140.31,324.63L140.84,325.71L140.95,325.21L140.96,324.98L141.12,324.82L141.63,326.07L141.72,326L141.72,325.43L141.87,325.25L142.39,326.31L142.48,326.19L142.49,325.46L143.21,326.6L143.24,325.88L143.25,326.48L143.27,325.85L143.78,326.95L144,326.19L144.01,326.87L144.13,326.09L144.68,327.36L144.76,327.28L144.77,326.4L145.29,327.61L145.52,327.42L145.53,326.71L146.15,328L146.29,327.92L146.29,327.51L146.4,327.05L146.95,328.3L147.02,327.53L147.03,328.2L147.05,327.36L147.76,328.69L147.78,327.81L147.79,328.65L147.87,327.87L148.48,328.86L148.53,328.11L148.54,328.8L148.56,328.14L149.23,329.22L149.29,328.68L149.3,328.78L149.42,328.5L150.05,329.6L150.05,328.91L150.06,329.1L150.07,328.83L150.82,329.92L150.82,329.11L151.47,330.27L151.58,329.92L151.59,330.08L151.71,329.44L152.34,330.56L152.34,329.91L152.35,330.18L152.41,329.81L152.96,330.89L153.1,330.56L153.11,330.64L153.17,330.17L153.75,331.3L153.86,330.59L153.87,331.07L153.91,330.47L154.61,331.63L154.61,330.98L154.62,331.19L154.63,330.77L155.33,331.94L155.37,331.53L155.38,331.74L155.38,331.15L156.1,332.21L156.13,331.66L156.14,331.87L156.18,331.48L156.77,332.56L156.89,332.31L156.9,331.93L156.92,331.8L157.43,332.91L157.65,332.7L157.66,332.65L157.75,332.17L158.4,333.21L158.41,333.12L158.42,332.76L158.45,332.56L159.14,333.57L159.17,333.23L159.18,333L159.22,332.83L159.85,333.88L159.93,333.8L159.94,333.47L160.03,333.18L160.63,334.26L160.66,333.54L160.66,334.2L160.69,333.49L161.4,334.56L161.4,333.86L161.41,334.36L161.48,333.85L162.14,334.86L162.16,334.15L162.16,334.92L162.19,334.18L162.89,335.26L162.9,334.74L162.91,335.19L162.92,334.44L163.6,335.59L163.65,334.93L163.66,335.47L163.68,334.85L164.38,335.87L164.41,335.7L164.42,335.1L165.11,336.26L165.17,336.08L165.18,335.45L165.8,336.6L165.93,336.27L165.94,336.36L165.94,335.74L166.61,336.85L166.69,336.2L166.7,336.79L166.72,336.2L167.42,337.24L167.44,336.56L167.45,337.21L167.47,336.54L168.2,337.56L168.2,337.1L168.21,337.23L168.22,336.9L168.92,337.87L168.96,337.26L168.97,337.71L169.03,337.22L169.7,338.19L169.72,338.04L169.73,337.53L169.83,337.52L170.48,338.55L170.49,337.84L171.06,338.94L171.24,338.85L171.25,338.4L171.26,338.17L171.97,339.31L172,338.62L172.01,339.04L172.07,338.6L172.74,339.63L172.74,338.92L172.75,339.56L172.85,338.95L173.32,339.93L173.49,339.35L173.5,339.98L173.55,339.34L174.23,340.32L174.25,340.21L174.26,339.71L174.98,340.6L175.01,340.35L175.02,340.02L175.05,339.99L175.77,341L175.78,340.4L176.48,341.38L176.53,341.04L176.54,341.3L176.57,340.64L177.27,341.72L177.28,341.52L177.29,341.37L177.32,341.07L178.01,342.1L178.04,342.05L178.05,341.41L178.08,341.38L178.72,342.45L178.8,341.85L178.81,342.29L178.93,341.82L179.45,342.69L179.54,342.21L179.55,342.7L179.67,342.13L180.29,343.06L180.3,342.51L180.3,342.89L180.4,342.48L180.93,343.38L181.04,342.62L181.04,343.43L181.09,342.65L181.78,343.72L181.79,343.14L181.79,343.62L181.83,343.11L182.52,344.05L182.53,343.77L182.54,343.93L182.65,343.46L183.24,344.38L183.29,343.81L183.3,344.35L183.37,343.8L183.99,344.69L184.04,344.1L184.05,344.64L184.11,344.14L184.78,345.08L184.8,344.48L184.81,345.04L184.89,344.56L185.54,345.45L185.56,345.39L185.57,345L185.59,344.85L186.18,345.82L186.32,345.73L186.33,345.31L186.34,345.2L187.06,346.13L187.08,346.01L187.09,345.87L187.15,345.52L187.74,346.45L187.82,345.89L187.83,346.39L187.85,345.85L188.55,346.78L188.57,346.55L188.58,346.36L188.63,346.26L189.22,347.17L189.33,346.59L189.34,347.18L189.36,346.61L190.07,347.54L190.09,347.09L190.1,347.53L190.16,346.95L190.83,347.85L190.84,347.39L190.85,347.81L190.87,347.3L191.6,348.21L191.61,347.7L191.67,347.65L192.34,348.54L192.36,348.3L192.37,348.06L192.42,348L193.04,348.95L193.12,348.49L193.13,348.84L193.16,348.29L193.66,349.21L193.88,349.02L193.89,348.73L193.99,348.72L194.55,349.57L194.64,349.47L194.65,349.09L194.68,349.07L195.38,349.98L195.4,349.41L195.41,349.88L195.53,349.42L196.07,350.21L196.14,349.74L196.14,350.25L196.17,349.69L196.88,350.55L196.88,350.07L196.89,350.29L196.92,350.09L197.64,350.93L197.65,350.42L197.7,350.37L198.39,351.29L198.4,350.98L198.41,350.78L199.1,351.61L199.16,351.12L199.17,351.53L199.21,351.06L199.92,351.93L199.92,351.52L199.93,351.74L200,351.45L200.64,352.33L200.66,351.78L200.67,352.25L200.75,351.8L201.28,352.61L201.42,352.6L201.43,352.26L201.53,352.11L202.16,353.02L202.18,352.76L202.19,352.49L202.22,352.45L202.94,353.31L202.95,352.9L202.97,352.81L203.72,353.66L203.72,353.23L203.79,353.1L204.43,353.95L204.48,353.91L204.48,353.47L205.11,354.27L205.24,354.2L205.25,353.78L205.97,354.64L206,354.63L206.01,354.12L206.04,354.11L206.73,354.96L206.76,354.5L206.77,354.91L206.81,354.44L207.5,355.26L207.52,354.81L207.53,355.27L207.58,354.81L208.15,355.62L208.28,355.32L208.29,355.34L208.38,355.1L209.02,355.92L209.04,355.85L209.05,355.44L209.78,356.25L209.8,355.84L209.81,356.31L209.94,355.83L210.5,356.61L210.56,356.58L210.57,356.1L211.31,356.95L211.32,356.67L211.33,356.92L211.33,356.48L212.08,357.27L212.08,356.88L212.09,356.96L212.1,356.82L212.82,357.55L212.85,357.46L212.86,357.11L213.6,357.89L213.61,357.78L213.62,357.64L213.63,357.44L214.33,358.2L214.37,358.14L214.38,357.69L214.99,358.55L215.13,358.12L215.14,358.59L215.16,358.14L215.68,358.85L215.89,358.84L215.9,358.45L216.56,359.24L216.65,359.05L216.66,359.12L216.66,358.77L217.37,359.54L217.41,359.38L217.42,359.12L217.43,359.1L218.16,359.83L218.17,359.76L218.18,359.65L218.2,359.44L218.89,360.25L218.93,359.95L218.94,359.81L219,359.76L219.68,360.48L219.69,360.24L219.7,360.09L219.73,360.06L220.46,360.83L220.46,360.38L221.2,361.1L221.22,361.06L221.23,360.69L221.95,361.39L221.98,360.95L221.99,361.4L222.01,361L222.59,361.7L222.74,361.67L222.75,361.5L222.8,361.3L223.5,362.05L223.51,361.89L223.52,361.72L223.59,361.65L224.25,362.38L224.27,361.98L224.28,362.38L224.3,361.92L224.99,362.65L225.03,362.57L225.04,362.27L225.77,362.95L225.79,362.56L225.8,362.94L225.82,362.61L226.52,363.3L226.55,362.88L226.55,363.28L226.59,362.94L227.25,363.6L227.27,363.23L227.28,363.6L227.38,363.24L228,363.92L228.02,363.57L228.03,363.74L228.07,363.51L228.71,364.23L228.76,363.79L228.77,364.22L228.79,363.73L229.35,364.46L229.52,364.45L229.53,364.1L230.24,364.83L230.28,364.78L230.29,364.43L230.34,364.41L231.04,365.1L231.05,364.93L231.06,364.74L231.1,364.72L231.78,365.36L231.81,365.22L231.82,365.04L231.89,365.02L232.54,365.71L232.57,365.35L232.58,365.54L232.59,365.29L233.21,365.96L233.32,365.62L233.33,365.96L233.36,365.58L234.05,366.29L234.07,365.91L234.08,366.28L234.16,365.89L234.8,366.55L234.83,366.28L234.84,366.38L234.88,366.17L235.47,366.84L235.57,366.54L235.58,366.81L235.6,366.49L236.22,367.13L236.33,366.94L236.34,367.09L236.36,366.78L237.03,367.43L237.09,367.08L237.09,367.35L237.17,367.06L237.78,367.71L237.83,367.52L237.84,367.45L237.85,367.35L238.53,367.97L238.59,367.69L238.6,367.97L238.65,367.65L239.27,368.27L239.35,367.9L239.36,368.3L239.38,367.93L240.07,368.55L240.11,368.4L240.12,368.5L240.15,368.21L240.85,368.85L240.87,368.46L240.88,368.84L240.9,368.47L241.48,369.11L241.63,369.05L241.64,368.81L241.68,368.79L242.38,369.4L242.39,369.16L242.4,369.3L242.48,369.03L243.14,369.68L243.15,369.58L243.16,369.5L243.18,369.32L243.86,369.96L243.93,369.82L243.93,369.59L244.67,370.23L244.68,370.02L244.69,369.91L244.74,369.89L245.42,370.51L245.44,370.17L245.45,370.49L245.47,370.16L246.2,370.8L246.2,370.46L246.21,370.72L246.29,370.48L246.93,371.05L246.95,370.75L246.96,371.02L247.04,370.7L247.68,371.31L247.7,371.06L247.71,371.33L247.75,370.99L248.36,371.62L248.45,371.27L248.46,371.58L248.48,371.2L249.21,371.84L249.21,371.6L249.22,371.7L249.26,371.5L249.95,372.1L249.95,371.78L249.96,372.08L249.98,371.78L250.7,372.36L250.71,372.25L250.72,372.32L250.72,372.02L251.41,372.65L251.47,372.61L251.48,372.5L251.48,372.29L252.14,372.91L252.23,372.63L252.24,372.9L252.32,372.6L252.85,373.12L252.99,372.85L252.99,373.15L253.09,372.86L253.73,373.4L253.73,373.19L253.74,373.18L253.79,373.08L254.43,373.66L254.49,373.57L254.5,373.32L255.26,373.91L255.26,373.65L255.28,373.63L256,374.18L256.03,374.17L256.04,373.88L256.07,373.87L256.71,374.43L256.79,374.16L256.8,374.47L256.97,374.16L257.54,374.7L257.55,374.47L257.56,374.56L257.57,374.41L258.2,374.95L258.28,374.7L258.29,374.92L258.31,374.65L258.99,375.19L259.03,374.93L259.04,375.1L259.08,374.86L259.73,375.42L259.78,375.19L259.79,375.44L259.82,375.15L260.38,375.66L260.54,375.53L260.55,375.61L260.55,375.36L261.29,375.93L261.3,375.82L261.31,375.79L261.34,375.64L261.96,376.13L262.01,375.83L262.02,376.14L262.07,375.88L262.76,376.4L262.77,376.39L262.78,376.16L262.84,376.11L263.52,376.66L263.54,376.53L263.54,376.36L264.29,376.89L264.3,376.84L264.31,376.59L265.07,377.12L265.07,376.85L265.81,377.36L265.84,377.34L265.84,377.19L265.9,377.05L266.6,377.6L266.6,377.27L267.36,377.8L267.36,377.52L268.08,378.03L268.12,377.93L268.13,377.94L268.19,377.76L268.86,378.26L268.87,378.11L268.88,378.23L268.89,377.97L269.54,378.49L269.62,378.15L269.63,378.47L269.65,378.18L270.38,378.71L270.38,378.43L270.39,378.65L270.43,378.44L271.12,378.89L271.13,378.79L271.14,378.86L271.15,378.64L271.86,379.13L271.88,378.86L271.89,379.14L271.98,378.87L272.62,379.36L272.63,379.27L272.64,379.3L272.64,379.1L273.38,379.61L273.39,379.45L273.4,379.31L273.43,379.3L274.06,379.8L274.15,379.77L274.16,379.6L274.17,379.53L274.87,380.02L274.91,379.92L274.92,379.75L274.95,379.73L275.66,380.23L275.67,379.95L275.68,380.19L275.7,379.96L276.37,380.46L276.43,380.2L276.43,380.48L276.46,380.18L277.11,380.61L277.18,380.4L277.18,380.61L277.41,380.41L277.89,380.82L277.91,380.62L277.92,380.83L277.96,380.55L278.6,381.02L278.67,381.02L278.68,380.79L279.44,381.25L279.44,381.05L279.45,381.13L279.5,381.02L280.23,381.46L280.25,381.36L280.26,381.23L280.29,381.22L281.01,381.68L281.01,381.41L281.02,381.61L281.04,381.41L281.66,381.85L281.74,381.63L281.75,381.86L281.77,381.61L282.42,382.05L282.5,382.02L282.51,381.96L282.54,381.8L283.16,382.24L283.23,381.98L283.23,382.23L283.28,381.99L283.93,382.42L283.97,382.31L283.98,382.36L284.04,382.19L284.62,382.62L284.71,382.53L284.72,382.51L284.81,382.42L285.58,382.82L285.6,382.74L285.6,382.57L286.35,383.02L286.36,382.8L287.09,383.24L287.11,383.14L287.12,382.98L287.18,382.97L287.87,383.41L287.88,383.19L287.9,383.18L288.58,383.6L288.64,383.48L288.65,383.41L288.69,383.35L289.4,383.81L289.41,383.57L289.44,383.55L290.1,383.95L290.16,383.76L290.17,383.92L290.21,383.74L290.76,384.15L290.9,383.92L290.91,384.16L290.94,383.91L291.65,384.33L291.66,384.28L291.67,384.22L291.76,384.12L292.6,384.53L292.62,384.51L292.63,384.33L292.67,384.31L293.38,384.73L293.39,384.58L293.46,384.5L294.18,384.9L294.18,384.69L294.21,384.64L294.92,385.12L294.94,385.07L294.94,384.84L295.68,385.23L295.69,385.22L295.7,385.05L295.74,385.01L296.37,385.43L296.48,385.41L296.48,385.24L296.53,385.18L297.21,385.59L297.24,385.55L297.25,385.46L298.19,385.8L298.2,385.55L298.95,385.97L298.96,385.77L298.98,385.76L299.71,386.11L299.72,385.93L299.73,385.89L300.48,386.28L300.48,386.09L300.49,386.22L300.57,386.31L301.19,386.23L301.21,386.24L301.21,386.46L301.46,386.24L301.76,386.58L301.95,386.38L301.96,386.59L301.98,386.39L302.67,386.8L302.71,386.58L302.72,386.77L302.81,386.51L303.35,386.89L303.47,386.85L303.48,386.68L304.11,387.07L304.23,387.06L304.24,386.93L305.19,387.25L305.2,387.05L305.22,387.03L305.94,387.44L305.97,387.39L305.97,387.27L306.08,387.19L306.74,387.58L306.74,387.37L306.76,387.34L307.46,387.69L307.5,387.64L307.5,387.48L308.26,387.85L308.26,387.64L309,388L309.02,387.84L309.03,388L309.06,387.79L309.76,388.14L309.78,387.94L309.79,388.15L309.86,387.91L310.47,388.29L310.53,388.16L310.54,388.26L310.57,388.04L311.27,388.43L311.29,388.23L311.3,388.33L312.24,388.36L312.25,388.61L312.34,388.35L312.96,388.73L313,388.51L313.01,388.73L313.03,388.49L313.68,388.84L313.76,388.64L313.77,388.85L313.81,388.64L314.48,389L314.52,388.78L314.52,388.96L314.64,389.02L314.8,388.8L315.26,388.95L315.27,389.13L315.33,388.89L315.93,389.26L316.01,389.05L316.02,389.21L316.29,389.06L316.42,389.34L316.76,389.16L316.76,389.35L317.36,389.22L317.48,389.51L317.51,389.29L317.51,389.47L317.55,389.28L318.23,389.64L318.26,389.41L318.26,389.64L318.29,389.4L318.85,389.77L319,389.54L319.01,389.71L319.18,389.81L319.63,389.59L319.75,389.69L319.75,389.86L319.85,389.64L320.38,390L320.49,389.96L320.5,389.9L320.59,390.04L321.15,389.86L321.23,389.94L321.24,390.14L321.27,389.91L321.96,390.23L321.99,390.07L322,390.15L323.21,390.4L323.22,390.24L323.87,390.57L323.98,390.52L323.98,390.37L324,390.35L324.73,390.66L324.74,390.48L324.8,390.45L325.47,390.77L325.5,390.75L325.51,390.61L325.55,390.58L326.27,390.89L326.28,390.68L327.04,391.02L327.05,390.81L327.22,390.79L327.77,391.14L327.82,391.05L327.83,390.9L328.52,391.25L328.58,391.21L328.59,391.04L329.34,391.35L329.34,391.16L329.35,391.29L330.17,391.26L330.2,391.29L330.21,391.49L330.36,391.28L330.93,391.58L330.95,391.4L330.96,391.58L330.96,391.38L331.68,391.68L331.71,391.5L331.72,391.63L332.57,391.61L332.57,391.79L332.63,391.82L333.32,391.71L333.33,391.88L333.35,391.69L333.88,392L334.08,391.8L334.08,391.99L334.2,392.03L334.58,391.86L334.83,391.94L334.84,392.11L334.89,391.9L335.5,392.24L335.58,392.03L335.59,392.19L335.65,392.01L335.83,392.27L336.33,392.12L336.34,392.3L336.62,392.37L336.79,392.15L337.08,392.24L337.09,392.37L337.95,392.35L337.96,392.51L337.99,392.33L338.67,392.64L338.71,392.46L338.72,392.61L338.8,392.41L339.47,392.72L339.47,392.58L339.48,392.54L339.64,392.5L340.21,392.82L340.23,392.72L340.24,392.64L340.34,392.59L340.94,392.91L340.99,392.91L341,392.75L341.09,392.73L341.76,392.99L341.77,392.91L341.78,392.81L341.94,392.8L342.36,393.07L342.53,392.91L342.54,393.07L342.61,393.11L343.27,392.97L343.29,393L343.29,393.17L343.33,392.96L344.03,393.27L344.04,393.13L344.04,393.26L344.11,393.08L344.68,393.36L344.79,393.2L344.79,393.3L345.72,393.28L345.73,393.49L346.19,393.31L346.39,393.57L346.47,393.41L346.48,393.56L346.51,393.39L347,393.66L347.23,393.48L347.24,393.62L348.04,393.55L348.06,393.61L348.06,393.76L348.27,393.57L348.48,393.81L348.81,393.68L348.82,393.78L349.72,393.75L349.73,393.78L349.74,393.93L350.31,394.03L350.38,393.82L350.48,393.89L350.49,394.03L351.05,393.86L351.21,394.11L351.23,393.94L351.24,394.13L351.26,393.92L351.87,394.19L351.99,394.04L352,394.19L352.78,394.07L352.79,394.27L352.81,394.07L353.49,394.41L353.53,394.21L353.54,394.36L353.59,394.19L354.25,394.47L354.29,394.44L354.3,394.3L354.37,394.27L355.02,394.58L355.11,394.44L355.12,394.39L355.17,394.37L355.86,394.65L355.89,394.61L355.9,394.5L355.92,394.46L356.64,394.73L356.65,394.57L356.66,394.61L357.48,394.85L357.52,394.73L357.53,394.66L357.57,394.63L358.03,394.88L358.28,394.73L358.29,394.89L358.34,394.92L359,394.75L359.04,394.8L359.04,394.94L359.86,394.88L359.87,395.03L359.97,395.06L360.62,394.94L360.64,394.96L360.64,395.12L360.72,394.94L360.91,395.17L361.39,395.02L361.39,395.18L362.12,395.12L362.16,395.17L362.16,395.28L362.21,395.11L362.81,395.37L362.91,395.19L362.91,395.35L363.1,395.4L363.61,395.23L363.66,395.32L363.67,395.42L363.71,395.23L364.18,395.51L364.42,395.33L364.43,395.49L364.43,395.33L365.17,395.58L365.18,395.53L365.19,395.55L366.16,395.48L366.16,395.64L366.92,395.54L366.98,395.58L366.99,395.74L367.22,395.8L367.73,395.62L367.74,395.66L367.75,395.79L367.84,395.84L368.2,395.65L368.5,395.72L368.5,395.82L368.62,395.88L369.2,395.74L369.28,395.8L369.28,395.93L369.37,395.98L370.06,395.83L370.08,395.88L370.08,396.01L370.62,396.08L370.75,395.88L370.83,396L370.84,396.06L370.95,396.12L371.59,396L371.6,396.05L371.61,396.15L372.03,396.01L372.3,396.23L372.35,396.09L372.36,396.19L373.26,396.13L373.27,396.28L374.28,396.21L374.3,396.25L374.31,396.39L374.33,396.19L374.78,396.47L375.05,396.33L375.06,396.44L375.93,396.36L375.95,396.38L375.96,396.54L376.15,396.61L376.64,396.43L376.73,396.53L376.74,396.64L377.04,396.45L377.39,396.7L377.49,396.61L377.5,396.53L377.7,396.51L378.24,396.75L378.25,396.69L378.26,396.71L379.02,396.63L379.03,396.73L379.04,396.78L379.11,396.81L379.61,396.64L379.8,396.7L379.8,396.81L380.71,396.75L380.76,396.84L380.76,396.93L380.93,396.73L381.03,396.97L381.5,396.82L381.51,396.98L381.54,396.82L382.19,397.07L382.26,397.01L382.27,396.96L383.52,397.12L383.53,396.95L384.28,397.21L384.3,397.13L384.3,397.07L384.33,397.06L384.95,397.31L385.06,397.28L385.07,397.13L385.2,397.11L385.7,397.35L385.82,397.29L385.83,397.18L385.87,397.17L386.54,397.45L386.6,397.41L386.61,397.31L387.6,397.48L387.61,397.41L387.62,397.33L388.42,397.54L388.43,397.48L388.44,397.39L388.59,397.36L388.93,397.61L389.2,397.56L389.2,397.52L390.67,397.59L390.68,397.71L390.83,397.74L391.44,397.61L391.44,397.74L392.4,397.71L392.4,397.86L393.16,397.7L393.18,397.77L393.18,397.89L393.51,397.95L393.82,397.74L393.93,397.9L393.94,397.8L395.19,398.01L395.2,397.92L395.21,397.83L395.32,397.82L395.82,398.07L395.96,397.93L395.97,397.97L397.42,398.15L397.42,398.01L398.23,398.26L398.35,398.14L398.36,398.02L399.16,398.24L399.16,398.12L399.94,398.3L399.94,398.23L399.95,398.22L401.03,398.36L401.04,398.22L401.11,398.19L401.79,398.45L401.82,398.34L401.82,398.31L402.74,398.49L402.75,398.34L403.54,398.54L403.55,398.52L403.56,398.42L404.4,398.65L404.43,398.6L404.43,398.46L405.32,398.62L405.33,398.48L406.1,398.69L406.11,398.64L406.12,398.56L406.22,398.52L406.74,398.75L406.87,398.65L406.88,398.66L407.85,398.6L407.88,398.66L407.89,398.78L408.47,398.62L408.64,398.67L408.65,398.83L409.4,398.71L409.44,398.76L409.44,398.84L410.26,398.74L410.27,398.88L410.37,398.91L410.85,398.72L411.03,398.8L411.03,398.86L415.99,399.16L415.99,399.25" style="vector-effect: non-scaling-stroke; fill: none; stroke: rgb(46, 145, 229); stroke-opacity: 1; stroke-width: 2px; opacity: 1;"/></g><g class="points"/><g class="text"/></g><g class="trace scatter trace80a396" style="stroke-miterlimit: 2; opacity: 1;"><g class="fills"/><g class="errorbars"/><g class="lines"><path class="js-line" d="M0,-180.89L0.76,421.65L0.77,421.67L2.06,423.79L2.07,423.79L4.8,424.6L4.8,424.6L4.81,424.6L16.86,425.46L16.87,425.46L37.9,426.13L37.9,426.13L37.91,426.12L52.89,426.37L52.9,426.37L66.28,426.52L66.28,426.51L78.92,426.62L78.92,426.61L78.93,426.61L91.25,426.69L91.25,426.68L91.26,426.68L104.08,426.74L104.09,426.73L115.82,426.77L115.82,426.76L127.54,426.8L127.55,426.79L415.99,427L415.99,427" style="vector-effect: non-scaling-stroke; fill: none; stroke: rgb(225, 95, 153); stroke-opacity: 1; stroke-width: 2px; opacity: 1;"/></g><g class="points"/><g class="text"/></g><g class="trace scatter trace3cc1f6" style="stroke-miterlimit: 2; opacity: 1;"><g class="fills"/><g class="errorbars"/><g class="lines"><path class="js-line" d="M0,418.96L0.77,427.09L0.77,427.09L0.78,427.08L13.03,426.36L13.03,426.34L17.88,426.24L17.88,426.23L141.87,426.93L141.87,426.93L141.88,426.94L152.83,426.95L152.83,426.96L163.87,426.97L163.88,426.98L169.52,426.98L169.53,426.99L180.54,427L180.54,427.01L191.51,427.02L191.52,427.03L202.52,427.04L202.52,427.04L202.53,427.05L213.62,427.06L213.62,427.07L224.5,427.08L224.5,427.09L235.53,427.09L235.53,427.1L415.99,427.37L415.99,427.36" style="vector-effect: non-scaling-stroke; fill: none; stroke: rgb(251, 13, 13); stroke-opacity: 1; stroke-width: 2px; opacity: 1;"/></g><g class="points"/><g class="text"/></g><g class="trace scatter trace5d796d" style="stroke-miterlimit: 2; opacity: 1;"><g class="fills"/><g class="errorbars"/><g class="lines"><path class="js-line" d="M0,305.7L0.88,380.92L0.89,381.01L2.02,387.62L2.03,387.62L3.99,388.56L3.99,388.56L4,388.55L13.46,392.46L13.47,392.45L32.66,399.94L32.66,399.94L32.67,399.93L38.9,401.8L38.9,401.8L38.91,401.8L57.59,406.07L57.59,406.05L63.14,407.12L63.15,407.11L70.16,408.23L70.17,408.22L76.16,409.06L76.17,409.04L86.01,410.25L86.01,410.24L90.93,410.78L90.94,410.78L109,412.45L109,412.45L109.01,412.44L122.37,413.48L122.37,413.47L134.02,414.29L134.02,414.27L139.56,414.63L139.56,414.62L139.57,414.61L181.95,416.73L181.95,416.72L206.33,417.6L206.34,417.6L227.38,418.27L227.38,418.27L227.39,418.26L246.6,418.81L246.6,418.8L246.61,418.8L263.54,419.18L263.54,419.18L263.55,419.18L280.06,419.54L280.07,419.53L286.64,419.66L286.64,419.65L286.65,419.65L301.53,419.9L301.54,419.89L354.77,420.64L354.77,420.64L354.78,420.65L364.55,420.75L364.55,420.75L364.56,420.75L415.99,421.32L415.99,421.31" style="vector-effect: non-scaling-stroke; fill: none; stroke: rgb(218, 22, 255); stroke-opacity: 1; stroke-width: 2px; opacity: 1;"/></g><g class="points"/><g class="text"/></g><g class="trace scatter traced187e8" style="stroke-miterlimit: 2; opacity: 1;"><g class="fills"/><g class="errorbars"/><g class="lines"><path class="js-line" d="M0,426.6L0.77,427.62L0.78,427.61L10.42,427.51L10.42,427.51L10.43,427.51L415.99,427.62L415.99,427.62" style="vector-effect: non-scaling-stroke; fill: none; stroke: rgb(34, 42, 42); stroke-opacity: 1; stroke-width: 2px; opacity: 1;"/></g><g class="points"/><g class="text"/></g><g class="trace scatter tracee4fb42" style="stroke-miterlimit: 2; opacity: 1;"><g class="fills"/><g class="errorbars"/><g class="lines"><path class="js-line" d="M0,-1206.31L0.12,162.64L0.78,133.52L0.79,133.75L0.79,134.18L1.54,124.62L1.55,125.54L2.29,120.64L2.3,121.41L2.31,121.45L2.97,118.34L3.06,118.57L3.07,119.38L3.82,116.9L3.82,118.07L3.83,117.28L4.14,117.98L4.51,116.43L4.58,116.61L4.59,117.12L4.66,117.15L4.92,115.93L5.35,116.39L5.36,116.58L5.59,117.09L6.1,115.45L6.11,115.52L6.12,115.84L6.35,116.49L6.45,115.18L6.87,115.45L6.88,115.88L7.01,116.32L7.36,115.04L7.62,116.03L7.63,116.01L7.86,115.37L8.32,117.22L8.37,116.57L8.38,116.15L8.4,116.03L8.93,117.7L9.13,116.37L9.14,116.92L9.21,116.35L9.6,117.74L9.83,117.53L9.84,117.9L10.09,116.65L10.32,118.14L10.59,117.77L10.6,117.73L10.72,117.45L11.25,118.78L11.35,118.63L11.36,118.82L11.46,118.14L12.04,119.63L12.11,119.58L12.12,119.63L12.21,118.93L12.77,120.35L12.87,119.38L12.88,120.09L12.98,119.41L13.56,121.15L13.63,120.4L13.64,120.85L13.66,120.2L14.21,121.85L14.37,121.18L14.38,121.92L14.47,121.05L14.85,122.5L15.09,121.77L15.09,122.25L15.31,122.74L15.65,121.09L15.84,121.49L15.84,122.04L15.86,121.62L16.46,123.3L16.52,122.7L16.53,123.55L16.54,122.72L16.92,124.29L17.23,123.48L17.24,124.33L17.25,123.18L17.93,124.76L17.99,123.96L18,124.26L18.02,124.09L18.72,125.75L18.75,125.65L18.76,125.35L18.81,124.87L19.39,126.72L19.47,125.68L19.48,126.37L19.49,125.52L20.13,127.67L20.23,126.56L20.24,127.26L20.29,126.42L20.88,128.33L20.95,127.46L20.96,128.26L20.97,127.54L21.7,129.22L21.71,128.55L21.72,129.37L21.73,128.32L22.42,130.04L22.47,129.54L22.48,129.52L22.55,129.06L23.1,131.39L23.23,130.94L23.24,130.67L23.56,130.47L23.9,131.99L24,131.4L24.01,131.23L24.19,130.68L24.69,132.6L24.76,132.03L24.77,132.03L24.82,131.49L25.41,133.19L25.49,133.05L25.49,133.13L25.5,132.47L26.06,134.16L26.23,133.38L26.23,134.2L26.26,133.23L26.77,134.99L26.97,134.18L26.98,134.48L27.09,134.15L27.48,135.85L27.73,135.71L27.74,135.18L28.48,136.77L28.49,136.54L28.5,136.07L28.61,137.29L28.68,135.52L29.25,136.42L29.26,136.11L29.43,135.84L29.92,137.18L30.01,136.39L30.02,137.09L30.03,136.3L30.71,138.58L30.77,137.91L30.78,138.32L30.81,137.84L31.47,139.42L31.5,138.97L31.51,139.44L31.64,138.64L32.25,140.23L32.26,140.16L32.27,140.16L32.32,139.58L33.01,141.6L33.02,140.62L33.03,141.42L33.19,140.54L33.78,142.13L33.79,141.66L33.79,141.51L34.29,143.01L34.54,142.65L34.55,142.43L34.67,142.01L35.24,143.67L35.3,143.48L35.31,143.23L35.31,142.74L36.06,144.56L36.07,144.24L36.08,143.72L36.76,145.55L36.79,144.68L36.8,145.56L36.89,144.59L37.48,146.15L37.55,145.78L37.56,145.98L37.62,145.41L38.21,147.17L38.25,146.41L38.26,147.13L38.27,146.55L38.69,147.79L39.01,146.88L39.02,147.57L39.21,146.8L39.77,148.66L39.77,148.01L39.78,147.89L39.92,147.86L40.28,149.44L40.54,148.63L40.55,149.03L40.56,148.69L41.29,150.27L41.3,149.85L41.31,149.37L41.82,151.07L42.06,150.72L42.07,150.53L42.25,150.32L42.82,152.05L42.85,151.72L42.85,151.21L42.91,151.13L43.43,152.83L43.61,152.09L43.62,152.55L43.66,152.22L44.35,153.9L44.37,153.48L44.38,153.22L44.86,154.44L45.13,154.42L45.14,154.04L45.21,153.68L45.69,155.55L45.89,154.96L45.9,155.66L46.01,154.75L46.37,156.82L46.65,156.35L46.66,156.86L46.7,156.1L47.32,157.43L47.41,157.41L47.42,157.08L47.42,156.69L48.16,158.22L48.17,157.76L48.18,158.1L48.2,157.37L48.9,158.87L48.93,158.51L48.94,158.99L48.98,158.27L49.62,160.12L49.69,159.63L49.7,159.46L49.82,159.31L50.37,160.67L50.49,160.51L50.5,160.2L51.12,161.89L51.25,161.82L51.26,161.41L51.58,161.11L51.9,162.47L52.01,162L52.02,161.62L52.73,163.45L52.77,163.08L52.78,162.9L52.8,162.6L53.16,163.95L53.49,163.53L53.5,164.04L53.51,163.28L54.22,164.87L54.25,164.8L54.26,164.31L54.32,163.92L54.94,165.42L55.01,165.4L55.02,165.21L55.04,164.43L55.57,166.16L55.77,165.49L55.78,165.81L55.87,165.4L56.45,166.79L56.47,166.58L56.47,166.84L56.54,166.1L57.2,167.58L57.21,166.94L57.22,167.67L57.25,166.76L57.88,168.43L57.97,168.03L57.98,167.76L58.22,167.55L58.75,169.24L58.78,168.92L58.79,168.57L58.86,168.44L59.29,170.1L59.54,169.8L59.55,169.29L60.2,170.98L60.3,169.3L60.31,169.77L60.38,169.53L60.97,171.07L61.06,170.51L61.07,170.19L61.09,170.05L61.42,171.57L61.83,171.48L61.84,171.19L61.85,170.8L62.5,172.35L62.56,172.05L62.57,172.46L62.6,172.05L63.15,173.27L63.32,172.61L63.33,172.79L63.36,172.6L63.98,174.01L64.12,173.93L64.12,173.7L64.27,173.48L64.89,174.61L64.9,174.57L64.99,174.07L65.41,175.31L65.65,175.12L65.66,174.81L65.69,174.75L66.28,176.23L66.41,176.17L66.42,175.83L66.47,175.71L67.1,176.94L67.17,176.86L67.18,177.09L67.2,176.54L67.92,177.68L67.93,177.19L67.94,177.38L68.15,176.97L68.53,178.27L68.69,177.78L68.7,178.21L68.74,177.89L69.39,178.97L69.44,178.25L69.44,178.63L69.52,178.31L69.89,179.58L70.17,179.04L70.18,179.27L70.24,178.99L70.75,180.24L70.84,179.73L70.85,180.02L70.86,179.64L71.52,181.05L71.57,180.86L71.58,180.79L71.58,180.49L72.26,181.72L72.33,181.64L72.34,181.38L72.36,180.97L73.06,182.57L73.09,182.53L73.1,182.49L73.19,181.9L73.8,183.38L73.83,182.98L73.84,183.07L73.85,182.65L74.49,184.08L74.57,183.37L74.58,183.72L74.86,183.43L75.37,184.71L75.37,184.14L75.48,183.81L76.13,185.06L76.16,184.92L76.16,184.81L76.24,184.72L76.81,185.85L76.94,185.49L76.94,185.19L76.96,185.08L77.64,186.62L77.7,186.33L77.71,185.96L77.76,185.75L78.48,187.38L78.49,186.89L78.54,186.65L79.2,188.05L79.25,187.64L79.26,187.7L79.27,187.33L79.83,188.6L79.99,188.01L79.99,188.54L80.05,187.93L80.71,189.11L80.72,188.7L80.73,189L80.92,188.59L81.39,189.66L81.45,189.46L81.46,189.56L81.46,189.22L82.18,190.64L82.21,190.49L82.22,190.49L82.22,190.04L82.92,191.35L82.97,191.27L82.98,190.91L83.17,190.67L83.73,192.07L83.75,191.84L83.76,191.4L83.85,191.22L84.5,192.47L84.52,192.04L84.53,192.04L84.59,191.93L85.26,193.15L85.28,193.12L85.29,192.75L85.6,192.42L86.02,193.74L86.08,193.69L86.08,193.33L86.13,193.05L86.75,194.34L86.84,194.18L86.85,193.74L87.38,194.94L87.6,194.32L87.61,194.95L87.62,194.31L88.17,195.54L88.36,195.27L88.37,195.49L88.49,195.28L89.05,196.18L89.15,196.1L89.15,195.79L89.3,195.6L89.9,197.03L89.93,196.94L89.94,196.51L89.99,196.24L90.62,197.52L90.69,197.01L90.7,197.21L90.95,197.06L91.44,197.98L91.46,197.92L91.47,197.38L91.51,197.32L92.2,198.77L92.22,198L92.23,198.74L92.24,198.03L92.87,199.34L92.95,199.06L92.96,198.9L93,198.83L93.56,199.96L93.72,199.41L93.73,199.13L93.97,198.85L94.41,199.93L94.48,199.77L94.49,199.63L94.5,199.38L95.15,200.5L95.2,200.32L95.21,200.44L95.52,201.04L95.82,200L95.96,200.58L95.97,200.54L95.99,200.41L96.57,201.54L96.72,201.22L96.73,200.92L97.37,202.19L97.48,202.07L97.49,201.97L97.51,201.54L98.01,202.59L98.24,202.16L98.25,202.44L98.27,201.98L98.8,203.32L99,202.83L99.01,203.3L99.02,202.72L99.76,204.05L99.76,203.58L99.77,203.45L99.81,203.3L100.41,204.34L100.53,204.18L100.53,203.72L101.29,204.65L101.3,204.37L101.39,204.09L102.03,205.18L102.06,204.86L102.07,205.16L102.47,204.74L102.79,205.81L102.8,205.59L102.8,205.72L102.85,205.23L103.42,206.28L103.54,205.79L103.55,205.9L103.6,205.69L104.32,206.99L104.35,206.53L104.36,206.36L104.39,206.26L104.82,207.42L105.11,207.17L105.12,207.14L105.18,206.81L105.73,207.86L105.74,207.61L105.75,208L105.76,207.41L106.47,208.29L106.5,207.66L106.5,208.34L106.51,207.78L107.2,208.71L107.23,208.16L107.24,208.64L107.25,208.15L107.87,209.2L107.97,208.82L107.98,209.23L107.99,208.87L108.57,209.77L108.71,209.46L108.72,209.81L108.77,209.12L109.36,210.27L109.46,209.67L109.47,209.95L109.55,209.58L110.21,210.89L110.22,210.37L110.23,210.76L110.45,210.15L110.84,211.26L110.98,210.55L110.99,210.96L111,210.63L111.63,211.8L111.72,211.29L111.73,211.58L111.76,211.16L112.01,212.11L112.45,211.72L112.45,211.96L112.48,211.56L113.14,212.9L113.17,212.46L113.18,212.78L113.24,212.22L113.71,213.39L113.93,213.16L113.94,212.92L113.96,212.75L114.52,213.9L114.69,213.61L114.7,213.8L115.23,214.22L115.38,213.46L115.45,213.73L115.45,214.09L115.5,213.6L115.91,214.84L116.19,214.38L116.2,214.67L116.28,214.16L116.83,215.15L116.95,215.1L116.96,214.86L116.98,214.7L117.63,215.53L117.71,215.37L117.72,215.07L118.47,216.14L118.47,216.14L118.48,216.15L118.52,215.64L119.02,216.57L119.23,216.33L119.24,216.01L119.44,215.86L119.99,217L119.99,216.73L120,216.38L120.02,216.32L120.75,217.34L120.76,217.12L120.76,216.82L120.84,217.63L121.51,217.53L121.52,217.43L121.52,217L122.19,217.92L122.27,217.5L122.28,217.93L122.57,217.33L122.97,218.36L123.03,218.06L123.04,217.85L123.21,217.67L123.7,218.7L123.79,218.33L123.8,218.09L124.44,219.35L124.57,219.18L124.57,218.89L124.63,218.48L125.21,219.75L125.28,219.3L125.29,219.67L125.74,219.13L125.9,219.92L126.02,219.71L126.03,220.05L126.57,219.44L126.69,220.32L126.78,219.97L126.78,220.21L126.87,219.84L127.29,220.87L127.49,220.42L127.5,220.7L127.56,220.29L128.2,221.2L128.23,221.04L128.24,221.11L128.24,220.79L128.94,221.63L128.99,221.09L129,221.47L129.07,221.04L129.58,222.19L129.72,221.91L129.73,222.07L129.91,221.47L130.47,222.46L130.48,221.85L130.49,222.4L130.5,221.85L131.2,222.88L131.24,222.48L131.25,222.11L131.74,223.16L132,223.11L132.01,222.95L132.2,222.6L132.69,223.56L132.75,223.04L132.76,223.24L132.83,223.08L133.48,223.93L133.51,223.9L133.52,223.56L133.6,223.38L134.29,224.6L134.33,224.42L134.33,224L134.51,223.95L135.08,224.68L135.09,224.37L135.13,224.25L135.84,225.21L135.86,225.07L135.86,224.74L135.88,224.69L136.52,225.64L136.62,225.34L136.63,225.15L136.65,224.93L136.94,225.81L137.38,225.56L137.39,225.51L137.44,225.33L138.03,226.24L138.16,226.19L138.17,225.83L138.23,225.6L138.89,226.64L138.93,226.39L138.94,226.07L139.55,227.03L139.69,226.82L139.7,226.93L139.96,226.58L140.21,227.4L140.44,227.01L140.45,227.03L140.59,226.85L141.17,227.79L141.2,227.31L141.21,227.66L141.24,227.16L141.94,228.01L141.96,227.98L141.97,227.77L141.97,227.49L142.72,228.6L142.73,228.4L142.88,228.01L143.4,228.85L143.48,228.64L143.49,228.39L143.52,228.37L144.24,229.23L144.24,228.78L144.25,228.89L144.32,228.7L144.87,229.54L145,229.25L145.01,229.09L145.11,229L145.78,229.95L145.79,229.47L145.9,229.44L146.51,230.44L146.55,230.38L146.56,230.18L146.58,229.83L147.27,230.8L147.31,230.58L147.32,230.6L147.32,230.25L147.89,231.31L148.07,230.82L148.08,231.35L148.22,230.7L148.73,231.78L148.83,231.31L148.84,231.35L148.95,231.3L149.52,232.17L149.59,231.85L149.6,231.77L149.63,231.47L150.33,232.45L150.35,232.45L150.36,232.2L150.82,232.04L150.94,232.88L151.11,232.38L151.12,232.32L151.16,232.09L151.85,233.17L151.87,233.06L151.88,232.74L151.94,232.65L152.41,233.57L152.63,233.25L152.64,233.09L152.69,233.04L153.39,233.77L153.39,233.58L153.4,233.53L153.51,233.36L154.09,234.23L154.16,234.09L154.16,233.73L154.22,233.47L154.91,234.59L154.92,234.35L154.93,234.55L154.95,234.04L155.66,235.21L155.66,234.87L155.67,234.99L156.23,235.48L156.38,234.69L156.42,235.07L156.42,234.79L157.18,235.76L157.18,235.48L157.19,235.17L157.24,235.11L157.84,236.16L157.95,235.86L157.96,236.07L158.04,235.7L158.67,236.52L158.71,236.34L158.72,236.13L158.87,235.8L159.39,236.8L159.49,236.7L159.5,236.38L159.72,236.33L160.18,237.1L160.25,237.06L160.26,236.75L160.33,236.56L160.66,237.41L161.02,237.26L161.02,237.1L161.12,236.83L161.6,237.66L161.74,237.59L161.75,237.63L162.11,237.09L162.5,238.04L162.51,237.74L162.53,237.32L163.15,238.34L163.26,238.29L163.27,238.19L163.31,237.7L163.77,238.57L164.02,238.48L164.03,238.46L164.44,238.16L164.75,238.83L164.78,238.55L164.79,238.65L164.99,238.34L165.47,239.27L165.54,239.19L165.55,238.9L165.59,238.73L165.88,239.54L166.3,239.03L166.31,239.3L166.48,238.95L166.94,239.87L167.06,239.63L167.07,239.56L167.27,239.39L167.83,240.37L167.83,240.04L167.84,239.84L168.14,239.64L168.57,240.51L168.59,240.34L168.6,240.09L168.89,239.93L169.18,240.82L169.35,240.57L169.36,240.37L169.45,240.14L169.98,240.97L170.12,240.78L170.12,240.46L170.83,241.44L170.88,241.08L170.88,240.91L170.92,240.9L171.63,241.78L171.65,241.66L171.66,241.3L172.02,241.13L172.4,242.12L172.41,241.65L172.42,242.07L172.45,241.42L172.91,242.24L173.16,241.68L173.17,241.91L173.2,241.57L173.75,242.7L173.92,242.44L173.93,242.2L174.06,242.14L174.52,242.92L174.68,242.91L174.69,242.65L174.71,242.31L175.36,243.27L175.44,242.8L175.45,243.06L175.52,242.62L176.11,243.57L176.2,243.01L176.2,243.46L176.49,243.68L176.57,242.94L176.94,243.44L176.95,243.55L176.98,243.22L177.49,243.95L177.69,243.69L177.7,243.84L177.72,243.51L178.43,244.31L178.44,244.04L178.45,244.42L178.48,243.81L178.68,244.52L179.2,244.36L179.21,244.18L179.38,244.02L179.96,244.94L179.98,244.74L179.99,244.54L180.26,244.41L180.73,245.14L180.74,244.75L180.75,244.78L180.78,244.69L181.5,245.57L181.51,245.2L181.59,244.99L182.12,245.69L182.27,245.56L182.27,245.33L182.42,245.22L182.91,245.85L183.02,245.69L183.03,245.51L183.27,245.43L183.78,246.19L183.8,245.9L183.81,245.7L184.48,246.43L184.56,246.11L184.57,245.83L184.58,245.81L185.18,246.57L185.32,246.16L185.33,246.51L185.34,246.1L186.06,246.86L186.07,246.8L186.08,246.75L186.29,246.34L186.82,247.16L186.83,246.76L186.84,247.26L186.91,246.59L187.51,247.43L187.59,246.95L187.6,247.15L187.65,246.88L187.93,247.63L188.35,247.43L188.36,247.6L188.42,247.26L188.92,248L189.11,247.65L189.12,247.88L189.26,247.57L189.57,248.23L189.86,247.88L189.87,248.19L190.04,247.88L190.45,248.63L190.61,248.23L190.61,248.5L191.03,248.8L191.17,248.21L191.35,248.44L191.36,248.7L191.62,248.29L191.96,249.05L192.09,248.63L192.1,249.12L192.15,248.41L192.55,249.32L192.82,249L192.83,249.27L192.86,248.79L193.47,249.72L193.58,249.35L193.59,249.68L193.68,249.28L194.1,249.96L194.34,249.63L194.34,249.85L194.53,249.43L195.06,250.11L195.09,249.72L195.09,250.08L195.14,249.66L195.8,250.46L195.84,249.98L195.84,250.34L196.03,249.86L196.56,250.59L196.59,250.25L196.6,250.64L196.61,250.14L196.89,250.8L197.34,250.4L197.35,250.86L197.37,250.37L198.03,251.05L198.1,250.79L198.11,250.66L198.11,250.51L198.72,251.4L198.86,251.29L198.87,251.07L199.4,251.56L199.6,250.7L199.62,250.76L199.63,250.98L200.08,251.3L200.32,250.74L200.36,250.91L200.37,251.12L200.44,250.79L201.08,251.57L201.09,251.43L201.1,251.5L201.3,251.15L201.37,251.9L201.83,251.54L201.84,251.89L202.16,252.06L202.34,251.44L202.59,251.85L202.6,251.72L202.66,251.48L203.23,252.3L203.35,251.88L203.36,252.14L203.64,251.84L204.01,252.53L204.1,252.11L204.11,252.32L204.31,252.14L204.93,252.82L204.97,252.68L204.97,252.38L204.99,252.36L205.72,253.06L205.73,252.76L205.74,252.98L205.77,252.56L206.26,253.48L206.47,253.03L206.48,253.26L206.92,253.01L207.09,253.5L207.23,253.25L207.24,253.51L207.25,253.1L207.99,253.88L208,253.66L208.29,254L208.34,253.42L208.74,253.79L208.75,253.73L208.78,253.63L209.31,254.3L209.5,254.21L209.51,253.93L209.86,253.81L210.19,254.45L210.26,254.34L210.27,254.3L210.51,254.11L210.83,254.69L211.03,254.63L211.03,254.3L211.1,254.16L211.73,255.1L211.78,254.79L211.79,254.61L211.91,254.57L212.29,255.19L212.55,254.97L212.56,254.66L213.08,255.4L213.31,255.3L213.32,255.07L213.38,254.89L213.67,255.58L214.08,255.37L214.09,255.36L214.14,255.23L214.83,255.86L214.85,255.75L214.86,255.56L215.09,255.5L215.5,256.24L215.61,256.11L215.62,255.96L215.92,255.71L216.25,256.4L216.37,256.11L216.37,255.94L217.08,256.5L217.12,256.17L217.13,256.29L217.24,256.1L217.86,256.71L217.88,256.53L217.89,256.45L217.89,256.29L218.58,256.96L218.64,256.81L218.65,256.61L218.74,256.43L219.4,257.18L219.41,256.82L219.75,256.69L220.13,257.36L220.16,256.95L220.17,257.08L220.32,256.96L220.81,257.57L220.92,257.31L220.93,257.25L221.05,257.22L221.66,257.88L221.7,257.8L221.7,257.62L221.76,257.42L222.4,258.11L222.5,257.95L222.5,257.81L222.59,257.72L222.96,258.32L223.26,258L223.27,258.05L223.31,257.92L223.8,258.55L224.02,258.22L224.03,258.27L224.35,258.06L224.55,258.6L224.78,258.25L224.79,258.54L224.82,258.15L225.45,258.88L225.52,258.77L225.53,258.86L225.69,258.44L226.23,259.11L226.27,258.82L226.28,259.11L226.29,258.77L227,259.52L227.03,259.04L227.03,259.39L227.27,258.91L227.69,259.55L227.78,259.33L227.78,259.47L227.87,259.18L228.14,259.78L228.52,259.44L228.52,259.83L228.53,259.41L229.07,260.01L229.25,259.77L229.26,259.95L229.35,259.62L229.93,260.19L230.01,259.88L230.02,260.08L230.45,259.72L230.72,260.33L230.76,260.15L230.77,260.1L230.79,259.98L231.52,260.56L231.53,260.46L231.53,260.23L231.57,260.18L232.1,260.78L232.29,260.71L232.3,260.55L232.4,260.34L232.91,261.02L233.02,260.74L233.02,260.86L233.14,260.4L233.6,261.14L233.77,260.87L233.77,261.14L233.8,260.72L234.45,261.42L234.51,261.1L234.52,261.35L234.69,261.02L234.96,261.61L235.26,261.53L235.27,261.57L235.29,261.27L235.96,261.85L236.02,261.64L236.03,261.59L236.18,261.46L236.55,262.07L236.78,262L236.79,261.8L236.85,261.64L237.56,262.27L237.59,262.02L237.59,261.85L238.33,262.49L238.35,262.17L238.36,262.16L238.62,262.04L239.11,262.62L239.11,262.51L239.12,262.33L239.29,262.18L239.86,262.82L239.87,262.5L239.88,262.68L239.99,262.44L240.21,262.95L240.6,262.67L240.61,262.94L240.88,262.64L241.33,263.24L241.36,262.94L241.36,263.24L241.52,262.79L241.89,263.43L242.11,263.24L242.12,263.34L242.16,263L242.76,263.59L242.87,263.41L242.88,263.28L242.96,263.12L243.63,263.85L243.65,263.72L243.66,263.5L244.1,263.38L244.37,264.02L244.41,263.92L244.42,263.87L244.69,264.14L244.89,263.64L245.18,263.7L245.19,263.82L245.26,263.75L245.75,264.36L245.95,264.06L245.95,263.86L246.69,264.57L246.71,264.34L246.72,264.07L247.28,264.67L247.47,264.63L247.48,264.32L247.52,264.29L248.09,264.91L248.24,264.73L248.25,264.51L248.81,265.12L249,264.94L249.01,264.78L249.64,265.37L249.76,265.15L249.77,265.08L249.99,264.93L250.13,265.51L250.52,265.28L250.53,265.02L251.25,265.7L251.29,265.56L251.3,265.46L251.32,265.38L251.77,265.87L252.05,265.57L252.06,265.65L252.11,265.5L252.84,266.05L252.84,265.92L252.85,265.64L253.52,266.24L253.6,266.19L253.61,265.9L253.78,265.81L254.18,266.45L254.38,266.25L254.38,266.12L254.63,266.08L255.09,266.66L255.14,266.52L255.15,266.31L255.2,266.25L255.75,266.93L255.9,266.8L255.91,266.58L255.98,266.44L256.56,267.14L256.68,266.94L256.68,266.88L256.89,266.63L257.43,267.24L257.43,267.04L257.44,266.91L257.49,266.81L258,267.4L258.19,267.26L258.2,267.2L258.41,267L258.68,267.59L258.95,267.35L258.96,267.18L259.6,267.67L259.66,267.15L259.71,267.63L259.72,267.44L259.74,267.26L260.48,267.84L260.49,267.58L260.54,267.45L261.15,268.04L261.24,267.7L261.25,267.73L261.32,267.67L261.51,268.22L262,268.11L262.01,267.89L262.11,267.83L262.76,268.45L262.76,268.27L262.77,268.07L262.92,267.98L263.07,268.52L263.52,268.39L263.53,268.29L263.76,268.61L263.79,268.09L264.25,268.32L264.26,268.65L264.61,268.31L265.01,268.92L265.02,268.7L265.12,269L265.33,268.45L265.77,268.64L265.78,269L266.11,268.54L266.47,269.14L266.53,268.94L266.54,269.06L266.6,268.72L267.25,269.41L267.27,269.06L267.28,269.37L267.39,268.91L267.67,269.52L268.03,269.25L268.03,269.42L268.06,269.13L268.72,269.77L268.76,269.29L268.77,269.71L269.07,269.29L269.5,269.91L269.52,269.46L269.52,269.81L269.53,269.42L270.08,270.07L270.25,269.8L270.26,269.97L270.48,270.2L270.53,269.61L271,269.85L271.01,270.15L271.15,269.69L271.58,270.31L271.76,270.01L271.76,270.25L271.89,270.4L272.4,269.93L272.5,270.23L272.51,270.35L272.65,270.08L273.21,270.74L273.26,270.59L273.27,270.44L273.44,270.22L273.98,270.78L273.99,270.39L274,270.72L274.35,270.99L274.72,270.47L274.74,270.8L274.75,270.93L274.76,270.53L275.37,271.11L275.49,270.77L275.5,270.91L275.62,270.68L275.8,271.29L276.15,271.02L276.15,271.34L276.75,271.03L276.76,271.51L276.9,271.19L276.91,271.35L276.96,271.11L277.5,271.65L277.65,271.46L277.65,271.2L277.67,271.13L278.3,271.86L278.4,271.64L278.41,271.42L278.48,271.33L279.11,271.85L279.16,271.77L279.17,271.71L279.45,271.5L279.91,272.1L279.93,271.89L279.94,271.69L280.68,272.28L280.69,271.88L280.7,272.29L280.74,272.35L281.09,271.88L281.45,272.13L281.46,271.99L281.57,271.96L282.19,272.58L282.21,272.43L282.22,272.27L282.24,272.21L282.89,272.77L282.98,272.68L282.98,272.51L283.01,272.32L283.66,272.82L283.74,272.68L283.74,272.53L283.78,272.52L284.5,273.03L284.5,272.77L284.51,272.87L284.7,272.69L285.2,273.2L285.26,272.88L285.27,272.89L285.28,272.77L285.97,273.44L286.02,273.25L286.03,273.34L286.08,272.98L286.63,273.52L286.78,273.41L286.79,273.23L287.33,273.54L287.39,273.09L287.54,273.25L287.55,273.41L287.59,273.17L288.18,273.73L288.29,273.5L288.29,273.69L288.53,273.32L288.99,273.91L289.02,273.69L289.03,273.82L289.45,274.15L289.55,273.63L289.77,273.75L289.77,274.13L289.86,273.8L290.5,274.59L290.51,274.24L290.51,274.51L290.76,274.58L291.25,274.15L291.27,274.16L291.28,274.4L291.34,274.2L291.75,274.67L292.04,274.58L292.04,274.34L292.75,274.93L292.84,274.86L292.85,274.75L293.21,274.53L293.55,275.05L293.6,275.04L293.61,274.83L293.83,275.25L294.32,274.71L294.37,274.98L294.38,274.7L294.65,275.31L295.13,274.97L295.14,275.29L295.2,274.95L295.86,275.54L295.89,275.28L295.89,275.36L295.91,275.19L296.41,275.73L296.64,275.57L296.65,275.38L297.04,275.29L297.22,275.79L297.4,275.57L297.41,275.77L297.62,275.44L298.12,275.94L298.16,275.89L298.17,275.78L298.21,275.51L298.91,276.07L298.92,275.68L298.93,275.92L298.94,275.5L299.65,276.23L299.67,276.23L299.68,275.98L299.87,275.92L300.43,276.37L300.43,276.26L300.44,275.98L300.86,276.52L301.19,276.34L301.2,276.3L301.74,276.18L301.9,276.7L301.95,276.55L301.96,276.66L302.14,276.19L302.67,276.79L302.71,276.52L302.72,276.71L303.07,276.41L303.37,276.95L303.46,276.93L303.47,276.73L303.51,276.56L304.07,277.09L304.21,276.81L304.22,276.7L304.34,276.69L304.94,277.21L304.97,277.15L304.98,277.13L305.1,276.87L305.7,277.4L305.72,277.06L305.73,277.24L305.82,277.15L306.45,277.61L306.51,277.37L306.52,277.29L306.59,277.14L307.09,277.77L307.27,277.75L307.28,277.59L307.88,277.92L308.01,277.4L308.04,277.51L308.04,277.67L308.07,277.35L308.24,277.74L308.79,277.51L308.79,277.7L309.22,277.38L309.41,277.93L309.54,277.64L309.55,277.85L309.63,277.99L310.12,277.55L310.3,277.65L310.3,277.92L310.5,277.61L310.84,278.11L311.05,277.93L311.06,277.93L311.16,277.75L311.71,278.26L311.81,278.05L311.82,278.21L311.88,277.91L312.31,278.46L312.56,278.1L312.57,278.32L312.58,278.03L313.22,278.57L313.31,278.52L313.32,278.58L313.54,278.22L313.81,278.71L314.07,278.68L314.08,278.57L314.14,278.35L314.76,278.89L314.82,278.72L314.83,278.68L315.2,278.42L315.51,278.98L315.58,278.81L315.59,278.66L315.68,278.65L316.32,279.07L316.34,278.89L316.35,278.74L317.02,279.37L317.12,279.3L317.12,279.05L317.19,279.51L317.74,279L317.87,279.2L317.88,279.14L317.97,278.99L318.56,279.53L318.66,279.48L318.67,279.42L318.84,279.26L318.99,279.7L319.37,279.61L319.38,279.71L319.41,279.37L319.6,279.86L320.13,279.56L320.14,279.53L320.39,279.47L320.68,279.89L320.89,279.75L320.9,279.59L321.42,280.14L321.65,279.94L321.66,279.77L322.18,280.26L322.41,280.16L322.42,279.98L322.49,279.93L323.11,280.4L323.17,280.23L323.18,280.16L323.45,280.02L323.93,280.48L323.93,280.38L323.94,280.26L323.95,280.17L324.58,280.61L324.69,280.49L324.7,280.28L325.05,280.22L325.44,280.77L325.46,280.6L325.47,280.49L325.53,280.26L326.22,280.84L326.22,280.78L326.23,280.56L326.64,280.5L326.91,280.97L326.99,280.88L327,280.7L327.37,280.65L327.73,281.08L327.75,280.98L327.76,280.84L328.02,280.77L328.48,281.35L328.52,281.26L328.52,281L328.56,280.95L328.74,281.42L329.29,281.2L329.29,281.04L329.44,280.96L329.89,281.48L330.04,281.21L330.05,281.21L330.07,281.13L330.75,281.65L330.81,281.54L330.82,281.31L331.15,281.81L331.57,281.47L331.58,281.62L331.68,281.44L332.31,281.88L332.32,281.73L332.33,281.56L332.65,281.51L333.08,281.96L333.08,281.71L333.09,281.78L333.19,281.66L333.84,282.05L333.85,281.96L334.08,282.18L334.35,281.85L334.52,281.98L334.52,282.3L334.94,281.95L335.23,282.46L335.26,282.24L335.27,282.35L335.64,282.06L336.01,282.56L336.02,282.36L336.03,282.52L336.04,282.19L336.53,282.66L336.77,282.32L336.78,282.6L337.01,282.3L337.3,282.81L337.53,282.68L337.54,282.46L337.61,282.43L338.19,282.94L338.3,282.87L338.31,282.68L338.31,282.5L338.78,282.99L339.06,282.66L339.07,282.87L339.17,282.61L339.57,283.19L339.82,283.08L339.83,282.92L340.21,282.84L340.59,283.27L340.6,283.04L340.98,282.93L341.12,283.36L341.35,283.2L341.36,283L341.43,282.97L342.01,283.42L342.11,283.1L342.12,283.33L342.24,283.07L342.85,283.58L342.86,283.4L342.87,283.57L342.99,283.28L343.33,283.73L343.62,283.43L343.63,283.58L343.98,283.37L344.34,283.78L344.37,283.48L344.38,283.71L344.47,283.45L344.97,283.94L345.12,283.63L345.13,283.77L345.92,284.21L345.96,284.04L345.96,283.85L346.08,283.73L346.64,284.32L346.72,284.13L346.72,284L347.01,283.83L347.44,284.28L347.48,284.23L347.49,284.04L347.53,283.96L348.19,284.49L348.25,284.4L348.26,284.2L348.8,284.48L348.93,284L349.01,284.37L349.02,284.38L349.08,284.16L349.76,284.64L349.77,284.47L349.78,284.26L350.38,284.79L350.53,284.61L350.54,284.62L350.9,284.43L350.95,284.86L351.25,284.72L351.26,284.92L351.29,284.54L351.56,284.99L352.01,284.88L352.01,284.95L352.4,285.11L352.52,284.66L352.77,284.76L352.77,285.02L353.07,284.76L353.5,285.2L353.51,284.86L353.52,285.15L353.85,285.27L354.13,284.8L354.27,285.09L354.28,285.01L354.64,284.9L354.99,285.42L355.03,285.12L355.04,285.23L355.37,285.08L355.46,285.48L355.78,285.23L355.79,285.15L355.81,285.14L356.22,285.59L356.54,285.36L356.55,285.34L356.57,285.17L357.11,285.72L357.3,285.47L357.31,285.51L357.62,285.33L357.89,285.86L358.05,285.68L358.06,285.48L358.25,285.43L358.72,285.85L358.81,285.73L358.82,285.68L358.82,285.5L359.54,286.06L359.57,285.9L359.58,285.87L359.66,285.72L360.37,286.12L360.37,285.88L360.39,285.78L360.91,286.22L361.12,286.16L361.13,286.11L361.19,285.88L361.67,286.38L361.88,285.96L361.89,286.21L361.9,285.91L362.49,286.42L362.64,286.15L362.64,286.27L362.79,286.5L363.39,286.15L363.4,286.29L363.4,286.38L363.54,286.14L364.05,286.67L364.14,286.53L364.15,286.42L364.17,286.29L364.86,286.8L364.91,286.72L364.92,286.53L365.29,286.4L365.64,286.8L365.67,286.6L365.68,286.73L365.74,286.47L366.37,286.93L366.43,286.85L366.44,286.72L366.59,286.58L366.95,287.08L367.19,286.96L367.2,286.76L367.22,286.65L367.89,287.18L367.97,287.14L367.98,286.96L367.98,286.76L368.58,287.31L368.73,287.11L368.74,286.96L369.15,287.47L369.49,287.37L369.5,287.25L369.77,286.99L370.25,287.45L370.27,287.41L370.27,287.28L370.48,287.17L370.98,287.64L371.04,287.52L371.05,287.34L371.33,287.21L371.65,287.65L371.8,287.44L371.81,287.38L371.98,287.29L372.41,287.81L372.56,287.69L372.57,287.64L372.66,287.83L373.2,287.33L373.32,287.57L373.33,287.79L373.74,287.48L374.06,287.93L374.08,287.7L374.08,287.87L374.16,288.03L374.56,287.66L374.83,287.89L374.84,287.93L374.84,287.76L375.31,288.28L375.59,288.1L375.6,287.97L376.01,287.91L376.28,288.35L376.35,288.2L376.36,288.22L376.54,288.01L377.12,288.46L377.13,288.3L377.21,288.48L377.87,288.25L377.87,288.41L377.88,288.5L378.07,288.25L378.43,288.66L378.63,288.46L378.64,288.34L378.69,288.32L379.32,288.71L379.4,288.61L379.41,288.38L380.18,288.94L380.18,288.91L380.19,288.66L380.38,288.56L380.91,289.03L380.95,288.98L380.95,288.76L380.98,288.66L381.54,289.09L381.7,288.92L381.71,288.82L381.86,288.71L382.51,289.24L382.59,289.05L382.59,288.9L382.71,288.86L382.98,289.43L383.35,289.17L383.36,289.16L383.41,289.01L383.99,289.45L384.11,289.21L384.12,289.41L384.31,289.55L384.76,289.13L384.87,289.27L384.88,289.27L385.1,289.14L385.61,289.62L385.63,289.55L385.64,289.43L385.68,289.31L386.09,289.78L386.39,289.62L386.4,289.43L386.6,289.32L387.04,289.79L387.15,289.7L387.16,289.5L387.72,289.92L387.91,289.75L387.92,289.67L388,289.57L388.62,289.98L388.68,289.96L388.69,289.84L388.73,289.71L389.31,290.14L389.44,290L389.45,289.94L389.58,289.76L390.32,290.22L390.33,289.98L390.34,289.83L391.05,290.4L391.06,290.14L391.06,290.38L391.4,290.06L391.64,290.57L391.81,290.17L391.82,290.44L391.88,290.12L391.95,290.57L392.56,290.22L392.57,290.56L392.71,290.21L393.24,290.72L393.31,290.65L393.32,290.58L393.71,290.36L394.04,290.81L394.07,290.79L394.08,290.68L394.14,290.36L394.73,290.9L394.83,290.6L394.84,290.79L394.9,290.55L395.56,291.09L395.59,290.65L395.59,290.98L395.85,290.99L395.96,290.6L396.34,290.73L396.35,290.86L396.48,290.62L397.07,291.11L397.09,290.93L397.1,290.9L397.11,290.82L397.33,291.26L397.85,291.22L397.86,291.08L398.68,291.31L398.74,291.13L398.74,290.99L398.88,290.96L399.28,291.48L399.51,291.34L399.52,291.17L399.65,291.1L400.24,291.54L400.27,291.31L400.28,291.46L400.39,291.21L400.96,291.7L401.03,291.53L401.04,291.45L401.38,291.27L401.71,291.73L401.79,291.51L401.8,291.61L402.04,291.82L402.6,291.37L402.7,291.62L402.71,291.71L402.92,291.46L403.21,291.87L403.45,291.74L403.46,291.88L403.65,291.56L404.01,292.01L404.21,291.89L404.22,291.98L404.27,291.7L404.53,292.15L404.97,291.85L404.98,291.94L404.99,291.77L405.06,292.2L405.73,292.19L405.74,291.95L406.09,291.85L406.43,292.3L406.49,292.2L406.5,292L406.57,291.97L407.03,292.45L407.25,292.26L407.26,292.22L407.39,292.13L407.96,292.57L408.04,292.36L408.05,292.26L408.21,292.17L408.81,292.6L408.83,292.44L408.84,292.36L409.02,292.25L409.33,292.75L409.58,292.45L409.59,292.32L409.6,292.3L410.01,292.73L410.34,292.66L410.35,292.54L410.51,292.43L411.17,292.8L411.18,292.63L411.33,292.53L411.96,292.91L412,292.81L412,292.69L412.05,292.61L412.84,293.09L412.85,293.02L412.85,292.81L413.08,292.79L413.52,293.17L413.6,292.9L413.61,293.06L413.78,292.86L414.28,293.34L414.35,293.2L414.36,293.31L414.49,293.33L414.65,293.01L415.11,293.19L415.12,293.15L415.21,293.04L415.88,293.52L415.94,293.37L415.95,293.22L415.99,293.13L415.99,293.59" style="vector-effect: non-scaling-stroke; fill: none; stroke: rgb(28, 167, 28); stroke-opacity: 1; stroke-width: 2px; opacity: 1;"/></g><g class="points"/><g class="text"/></g><g class="trace scatter trace7914f6" style="stroke-miterlimit: 2; opacity: 1;"><g class="fills"/><g class="errorbars"/><g class="lines"><path class="js-line" d="M0,33.72L0.66,374.36L0.77,374.09L0.78,374.27L0.81,374.33L1.5,372.89L1.55,372.95L1.56,373.21L2.32,371.69L2.34,371.76L2.35,372.04L3.07,370.78L3.1,371.21L3.11,370.76L3.13,371.24L3.85,370.18L3.86,370.59L3.87,370.37L3.88,370.63L4.53,369.85L4.6,370.13L4.61,369.94L4.67,370.3L5.33,369.65L5.35,369.69L5.36,369.85L5.39,370.14L5.86,369.56L6.11,369.59L6.12,370.01L6.36,370.05L6.78,369.5L6.87,369.55L6.88,369.81L6.93,369.99L7.53,369.44L7.62,369.58L7.63,369.88L7.63,369.43L8.31,369.99L8.37,369.55L8.38,369.94L8.53,369.52L9.06,370.05L9.13,369.64L9.14,370.06L9.41,369.56L9.66,370.1L9.89,369.81L9.9,369.72L10.12,369.64L10.57,370.26L10.65,369.86L10.66,369.99L10.67,369.8L11.12,370.37L11.4,370.32L11.41,369.94L11.46,369.91L12.14,370.6L12.16,370.52L12.17,370.14L12.65,370.73L12.92,370.51L12.93,370.54L13.08,370.22L13.55,370.85L13.68,370.5L13.68,370.87L13.72,370.43L14.38,371.04L14.42,370.65L14.43,371.05L14.46,370.64L15.18,371.37L15.18,371.02L15.19,371.05L15.22,370.98L15.95,371.6L15.95,371.32L16.02,371.2L16.69,371.94L16.7,371.89L16.71,371.52L16.81,371.51L17.47,372.19L17.47,371.8L18.21,372.55L18.23,372.5L18.24,372.27L18.28,372.1L18.99,372.81L18.99,372.47L19,372.49L19.03,372.41L19.75,373.08L19.75,372.75L19.76,372.83L19.81,372.7L20.52,373.4L20.52,373.05L20.56,373.01L21.23,373.73L21.29,373.62L21.29,373.37L21.34,373.34L22.05,374.12L22.06,373.76L22.08,373.7L22.79,374.42L22.82,374.19L22.83,374.09L22.87,374.07L23.58,374.81L23.59,374.56L23.66,374.41L24.32,375.11L24.34,375.06L24.35,374.7L25.09,375.47L25.1,375.12L25.11,375.45L25.13,375.06L25.82,375.82L25.85,375.7L25.86,375.72L25.86,375.47L26.61,376.11L26.61,375.75L26.62,375.95L26.68,375.73L27.31,376.46L27.35,376.19L27.36,376.46L27.38,376.12L28.09,376.89L28.11,376.52L28.12,376.77L28.17,376.49L28.84,377.23L28.86,376.9L28.87,377.06L28.88,376.87L29.59,377.53L29.6,377.17L29.61,377.35L29.62,377.17L30.32,377.88L30.33,377.63L30.34,377.86L30.36,377.5L31.08,378.23L31.09,377.93L31.1,378.02L31.11,377.89L31.85,378.65L31.86,378.3L31.88,378.29L32.63,379.07L32.63,378.79L32.64,378.78L32.7,378.74L33.39,379.46L33.4,379.15L33.41,379.11L34.15,379.76L34.16,379.68L34.17,379.41L34.91,380.19L34.94,380.13L34.94,380.01L34.98,379.87L35.65,380.53L35.71,380.51L35.72,380.25L35.75,380.18L36.37,380.89L36.49,380.86L36.49,380.72L36.53,380.62L37.21,381.25L37.25,381.05L37.26,380.95L37.28,380.92L38.01,381.66L38.01,381.36L38.02,381.47L38.06,381.36L38.71,382L38.77,381.86L38.78,381.86L38.85,381.67L39.48,382.34L39.5,382.01L39.51,382.3L39.52,382.03L40.21,382.7L40.24,382.49L40.25,382.71L40.25,382.39L40.91,383.1L41,382.85L41.01,383.11L41.03,382.81L41.7,383.46L41.74,383.2L41.75,383.49L41.76,383.16L42.49,383.76L42.5,383.47L42.5,383.59L42.55,383.46L43.26,384.17L43.27,383.9L43.28,383.94L43.32,383.9L44.03,384.48L44.04,384.25L44.12,384.2L44.68,384.84L44.8,384.7L44.81,384.59L44.84,384.55L45.54,385.15L45.56,384.85L45.57,385.13L45.61,384.88L46.25,385.49L46.29,385.41L46.3,385.44L46.3,385.19L47.01,385.88L47.05,385.64L47.06,385.91L47.08,385.59L47.78,386.23L47.81,385.91L47.81,386.22L47.82,385.95L48.47,386.49L48.55,386.37L48.56,386.43L48.56,386.22L49.3,386.87L49.31,386.73L49.32,386.85L49.34,386.61L50.04,387.2L50.07,387.15L50.08,387.13L50.08,386.94L50.82,387.55L50.83,387.38L50.84,387.54L50.84,387.27L51.56,387.86L51.59,387.8L51.6,387.76L51.6,387.58L52.35,388.16L52.36,387.95L52.38,387.88L53.1,388.51L53.12,388.47L53.13,388.24L53.84,388.77L53.88,388.56L53.89,388.79L53.91,388.51L54.58,389.13L54.62,388.86L54.63,389.1L54.7,388.89L55.36,389.41L55.37,389.29L55.37,389.36L55.38,389.14L56.08,389.72L56.1,389.48L56.11,389.62L56.12,389.47L56.83,390L56.84,389.79L56.85,390.02L56.87,389.75L57.58,390.35L57.6,390.09L57.61,390.24L57.62,390.09L58.26,390.58L58.33,390.35L58.34,390.6L58.36,390.35L59.05,390.9L59.09,390.64L59.1,390.8L59.11,390.63L59.81,391.17L59.83,391.04L59.84,391.12L59.88,390.92L60.57,391.48L60.58,391.27L60.59,391.27L60.6,391.22L61.28,391.73L61.34,391.54L61.35,391.78L61.39,391.52L62.02,392.02L62.1,391.95L62.11,391.93L63.1,392.39L63.12,392.37L63.13,392.14L63.88,392.65L63.89,392.47L63.93,392.43L64.61,392.93L64.66,392.89L64.66,392.8L64.76,392.72L65.64,393.28L65.65,393.05L65.66,393.04L66.4,393.55L66.42,393.49L66.43,393.32L67.18,393.81L67.18,393.61L67.19,393.67L67.27,393.57L68.06,394.08L68.09,393.98L68.09,393.85L68.85,394.3L68.85,394.13L68.86,394.16L68.91,394.13L69.62,394.57L69.65,394.49L69.66,394.38L70.37,394.87L70.41,394.67L70.42,394.75L70.52,394.66L71.58,395.25L71.58,395.02L72.33,395.48L72.34,395.46L72.35,395.27L73.09,395.69L73.11,395.48L73.12,395.64L73.19,395.49L73.69,395.92L73.86,395.79L73.87,395.9L73.91,395.71L74.61,396.13L74.62,395.96L74.63,396.15L74.74,395.94L75.25,396.31L75.38,396.29L75.39,396.11L76.09,396.59L76.14,396.46L76.15,396.59L76.15,396.38L76.9,396.8L76.9,396.62L76.91,396.59L76.95,396.58L77.61,396.95L77.66,396.89L77.67,396.76L78.4,397.21L78.44,397.15L78.44,397.02L79.2,397.42L79.21,397.31L79.29,397.26L80.12,397.64L80.13,397.46L80.14,397.42L80.88,397.81L80.89,397.79L80.9,397.62L81.63,398.07L81.67,398.04L81.67,397.86L82.39,398.24L82.43,398.08L82.44,398.09L82.47,398.02L83.15,398.47L83.19,398.27L83.2,398.44L83.21,398.29L83.82,398.61L83.94,398.44L83.95,398.52L84.04,398.47L84.81,398.86L84.82,398.82L84.83,398.69L85.59,399.09L85.61,398.97L85.62,398.94L85.64,398.9L86.35,399.22L86.37,399.19L86.38,399.07L86.4,399.06L87.12,399.4L87.14,399.39L87.15,399.2L87.93,399.65L87.95,399.62L87.96,399.46L88.01,399.43L88.75,399.86L88.75,399.67L88.77,399.65L89.52,400.01L89.52,399.86L90.37,400.18L90.38,400.05L90.38,400.01L90.39,399.97L91.14,400.37L91.15,400.24L91.31,400.18L91.97,400.53L91.98,400.37L92.01,400.36L92.75,400.78L92.77,400.77L92.77,400.58L93.54,400.97L93.56,400.96L93.57,400.78L94.31,401.03L94.33,401.02L94.33,400.88L94.4,400.85L95.11,401.24L95.14,401.2L95.15,401.05L95.25,401.04L95.87,401.39L95.92,401.36L95.93,401.22L96.68,401.53L96.7,401.46L96.7,401.34L97.47,401.7L97.47,401.58L97.55,401.54L98.33,401.85L98.33,401.77L98.34,401.72L99.07,401.98L99.12,401.92L99.13,401.8L99.95,402.13L99.96,402.03L100.87,402.36L100.89,402.33L100.89,402.19L101.63,402.53L101.66,402.52L101.67,402.37L102.48,402.62L102.49,402.44L103.27,402.82L103.28,402.65L104,402.98L104.04,402.83L104.05,402.94L104.42,402.77L104.68,403.03L104.8,402.92L104.81,402.98L104.89,403.03L105.55,402.95L105.57,402.98L105.58,403.12L105.65,402.96L106.13,403.27L106.31,403.1L106.32,403.27L106.79,403.11L107.05,403.41L107.06,403.3L107.07,403.41L107.95,403.32L107.97,403.4L107.98,403.46L108.95,403.46L108.96,403.48L108.97,403.62L108.99,403.46L109.26,403.77L109.71,403.59L109.72,403.68L110.63,403.82L110.64,403.97L111.38,403.84L111.41,403.86L111.42,404.01L112.19,403.96L112.2,403.98L112.21,404.12L112.29,403.96L112.91,404.34L112.95,404.17L112.96,404.28L113.78,404.19L113.79,404.34L114.53,404.36L114.54,404.52L115.32,404.38L115.35,404.46L115.35,404.54L115.36,404.39L116.05,404.74L116.09,404.7L116.1,404.76L116.88,404.64L116.9,404.68L116.91,404.79L117.2,404.65L117.48,404.94L117.65,404.87L117.66,404.91L118.65,404.85L118.65,404.99L119.72,404.97L119.73,405.05L119.73,405.11L121.06,405.29L121.08,405.26L121.08,405.12L121.91,405.39L121.92,405.27L122.67,405.59L122.69,405.57L122.7,405.43L124.14,405.64L124.15,405.52L124.83,405.8L124.92,405.76L124.93,405.63L126.32,405.99L126.34,405.93L126.35,405.83L127.75,406.1L127.77,406.06L127.78,405.95L128.67,406.26L128.7,406.23L128.71,406.12L130.17,406.29L130.18,406.26L130.19,406.15L131.01,406.53L131.02,406.51L131.03,406.42L132.27,406.41L132.28,406.54L133.08,406.48L133.09,406.6L134.06,406.55L134.07,406.57L134.08,406.72L134.19,406.78L134.62,406.59L134.83,406.72L134.84,406.73L135.33,406.96L135.63,406.82L135.64,406.72L136.58,407.08L136.66,407.02L136.67,406.88L138.36,407.2L138.37,407.08L139.71,407.25L139.71,407.25L139.72,407.15L140.05,407.4L140.49,407.33L140.49,407.2L141.27,407.36L141.28,407.3L141.29,407.21L142.09,407.52L142.11,407.5L142.12,407.36L142.8,407.6L142.88,407.52L142.89,407.43L144.12,407.64L144.13,407.77L145.18,407.69L145.19,407.75L145.2,407.81L146.4,407.81L146.41,407.78L146.41,407.68L147.31,407.98L147.32,407.88L148.31,408.16L148.32,408.03L149.15,408.27L149.19,408.25L149.19,408.14L149.46,407.94L150.04,408.25L150.06,408.19L150.07,408.13L151.13,408.36L151.15,408.32L151.15,408.2L152.4,408.33L152.42,408.39L152.42,408.48L153.46,408.36L153.5,408.43L153.5,408.53L154.91,408.4L154.91,408.44L154.92,408.54L156.12,408.62L156.13,408.77L157.39,408.54L157.39,408.66L157.7,408.8L157.9,408.58L158.13,408.72L158.13,408.84L159.03,408.65L159.14,408.79L159.15,408.89L160.13,408.74L160.14,408.75L160.15,408.84L161.27,408.76L161.28,408.81L161.28,408.87L162.38,408.82L162.38,408.94L163.15,408.88L163.19,408.93L163.19,409.03L164.03,409.14L164.03,409.2L164.04,409.22L164.48,408.96L164.83,409.19L164.83,409.32L165.69,409.07L165.71,409.1L165.71,409.18L166.2,409.39L166.48,409.08L166.5,409.16L166.51,409.21L167.2,409.18L167.3,409.35L167.31,409.37L168.68,409.28L168.69,409.4L169.62,409.44L169.62,409.33L170.47,409.41L170.48,409.4L170.48,409.3L171.79,409.46L171.81,409.43L171.81,409.33L172.84,409.67L172.85,409.57L173.65,409.65L173.65,409.62L173.66,409.56L174.18,409.91L174.43,409.7L174.44,409.69L175.3,409.84L175.32,409.82L175.32,409.74L177.22,409.75L177.23,409.78L177.24,409.89L177.89,410.05L178.09,409.84L178.09,409.75L179.16,410.01L179.2,409.93L179.2,409.85L180.92,410.15L180.93,410.13L180.93,410.04L182.38,410.18L182.4,410.14L182.4,410.03L183.26,410.21L183.27,410.09L184.62,410.46L184.63,410.42L184.64,410.33L185.46,410.15L185.52,410.22L185.52,410.32L187.16,410.32L187.17,410.2L188.32,410.36L188.33,410.33L188.34,410.24L189.51,410.68L189.52,410.67L189.53,410.58L190.38,410.33L190.43,410.36L190.44,410.46L191.44,410.52L191.45,410.57L191.46,410.67L192.8,410.63L192.81,410.55L192.82,410.54L194.12,410.72L194.12,410.82L195.81,410.7L195.81,410.63L197.2,410.75L197.2,410.65L198.46,411.01L198.51,410.95L198.52,410.84L199.33,411.01L199.34,411.1L200.66,411.08L200.71,410.95L200.71,410.87L201.81,410.9L201.81,410.8L203.52,411.27L203.54,411.22L203.55,411.12L205.11,411.37L205.12,411.31L205.13,411.2L206.01,410.98L206.07,411.08L206.08,411.17L207.12,411.01L207.13,411.04L207.14,411.14L208.18,411.46L208.19,411.36L209.14,411.11L209.2,411.2L209.2,411.31L210.55,411.45L210.56,411.54L211.84,411.43L211.85,411.51L212.59,411.26L212.7,411.46L212.71,411.52L213.58,411.29L213.59,411.32L213.59,411.38L214.46,411.35L214.47,411.4L214.47,411.45L215.91,411.52L215.92,411.42L216.53,411.7L216.71,411.47L216.72,411.39L217.71,411.81L217.76,411.71L217.77,411.64L218.89,411.63L218.9,411.54L221.99,411.77L221.99,411.68L222.78,411.75L222.81,411.73L222.82,411.63L224.36,412.11L224.38,412.08L224.39,412L226.41,411.92L226.42,411.96L226.43,412.01L227.23,411.84L227.26,411.94L227.27,411.95L228.04,411.85L228.07,411.76L228.08,411.74L228.75,412.08L228.94,411.88L228.95,411.8L230.11,411.95L230.12,411.9L230.13,411.86L231.06,412.17L231.11,412L231.12,411.99L231.37,411.81L231.84,412.24L231.85,412.31L232.84,412.21L232.84,412.31L233.68,411.89L233.7,411.92L233.71,412L235.4,412.02L235.4,412.12L236.92,412.15L236.92,412.24L236.93,412.25L238.06,412.48L238.07,412.4L238.07,412.37L238.91,412.08L238.92,412.17L240.53,412.23L240.53,412.18L240.54,412.14L257.99,412.72L258,412.81L259.25,412.72L259.25,412.7L259.26,412.64L259.59,412.95L260.04,412.57L260.05,412.56L260.98,412.8L260.98,412.7L262.79,412.67L262.8,412.75L263.13,412.98L263.66,412.57L263.67,412.62L263.68,412.7L264.45,412.69L264.46,412.64L264.47,412.6L272.9,412.91L272.9,412.83L273.63,413.26L273.93,412.84L273.94,412.8L274.84,413.15L274.89,413.03L274.9,412.99L275.59,412.77L275.7,412.82L275.71,412.87L276.41,413.27L276.65,412.92L276.65,412.84L277.24,413.24L277.43,412.95L277.43,412.85L278.36,413.3L278.44,413.12L278.44,413.02L279.52,412.94L279.56,413.05L279.56,413.07L280.12,413.39L280.36,413L280.36,412.95L281.37,413.03L281.4,412.99L281.41,412.91L281.85,413.35L282.26,412.97L282.27,412.95L284.31,413.24L284.31,413.15L285.19,413.13L285.24,413.23L285.24,413.32L285.98,413.29L286.09,413.1L286.1,413.03L287.29,413.26L287.35,413.12L287.35,413.09L288.66,413L288.66,413L288.67,413.09L289.97,413.05L290,413.12L290.01,413.23L290.82,413.04L291,413.38L291,413.41L291.7,413.6L291.91,413.21L291.92,413.15L294.05,413.11L294.07,413.17L294.07,413.25L294.94,413.08L294.96,413.14L294.96,413.22L295.85,413.36L295.86,413.25L297.52,413.41L297.55,413.31L297.56,413.24L298.43,413.21L298.45,413.28L298.45,413.38L298.57,413.56L298.85,413.14L299.17,413.2L299.17,413.13L299.75,413.37L299.95,413.14L299.96,413.08L300.41,413.41L300.75,413.15L300.76,413.15L306.25,413.27L306.26,413.18L307.23,413.63L307.25,413.55L307.26,413.5L307.82,413.24L307.99,413.57L308,413.66L308.49,413.3L308.82,413.74L308.82,413.82L309.66,413.32L309.67,413.41L310.63,413.33L310.69,413.47L310.7,413.55L310.99,413.24L311.42,413.43L311.45,413.38L311.46,413.33L312.61,413.64L312.61,413.67L312.62,413.75L313.64,413.51L313.66,413.45L313.66,413.39L314.72,413.38L314.73,413.45L314.73,413.48L315,413.32L315.37,413.51L315.48,413.32L315.49,413.26L316.83,413.41L316.84,413.35L318.01,413.89L318.01,413.89L318.02,413.82L318.58,413.77L318.75,413.5L318.75,413.43L319.2,413.97L319.6,413.57L319.61,413.5L320.12,413.74L320.46,413.48L320.47,413.41L321.75,413.6L321.76,413.51L322.66,413.83L322.73,413.65L322.74,413.59L323.58,413.78L323.71,413.57L323.72,413.48L326.51,413.52L326.51,413.47L326.94,413.99L327.34,413.6L327.35,413.55L328.67,414L328.78,413.65L328.78,413.55L331.52,413.69L331.53,413.61L332.45,414.01L332.55,413.85L332.56,413.78L333.15,413.72L333.33,413.99L333.34,414.05L334.33,413.73L334.34,413.66L335.71,414.07L335.74,413.94L335.75,413.86L336.13,414.22L336.57,413.76L336.58,413.74L337.81,413.74L337.82,413.66L338.42,414.04L338.43,414.13L339.27,413.62L339.29,413.7L339.29,413.74L341.55,414.27L341.62,414.05L341.62,413.96L342.54,414.34L342.59,414.12L342.6,414.04L343.55,413.72L343.59,413.81L343.59,413.88L344.21,414.19L344.39,413.88L344.4,413.83L346.1,413.9L346.11,413.85L346.11,413.82L347.99,414.14L348,414.21L349.61,413.93L349.62,413.85L352.7,414.1L352.7,414.17L353.66,413.77L353.68,413.79L353.68,413.86L354.97,413.88L354.98,413.95L355.43,414.24L355.75,413.87L355.76,413.91L355.76,413.97L356.38,413.86L356.56,414.19L356.56,414.26L357.18,413.95L357.34,414.27L357.35,414.34L358.8,413.86L358.85,413.96L358.86,414.05L359.59,414.39L359.72,414.14L359.73,414.1L360.53,413.9L360.67,414.26L360.68,414.33L361.54,414.15L361.55,414.07L362.54,414.11L362.55,414.03L363.28,414.53L363.6,414.03L363.6,413.97L366.06,413.99L366.07,413.91L367.14,414.23L367.15,414.2L367.16,414.13L369.11,414.51L369.2,414.22L369.21,414.15L369.99,413.96L370.13,414.26L370.14,414.34L370.6,414.52L370.84,414.1L370.85,414.03L371.6,414.51L371.7,414.17L371.71,414.12L372.76,414.42L372.78,414.48L372.78,414.55L373.45,414.25L373.48,414.2L373.49,414.12L374.97,414.2L374.97,414.11L375.93,414.7L375.99,414.46L376,414.38L376.64,414.13L376.78,414.45L376.79,414.51L376.95,414.68L377.1,414.15L377.44,414.15L377.45,414.09L378.62,414.24L378.62,414.16L378.63,414.15L380.2,414.73L380.25,414.57L380.26,414.52L380.54,414.14L381.06,414.49L381.06,414.53L381.3,414.31L381.79,414.54L381.86,414.36L381.86,414.3L382.69,414.17L382.79,414.33L382.8,414.39L385.2,414.39L385.21,414.33L386.18,414.78L386.24,414.61L386.25,414.54L387.15,414.22L387.25,414.36L387.26,414.42L388.3,414.75L388.3,414.68L389.12,414.23L389.17,414.26L389.18,414.33L389.24,414.17L389.53,414.74L389.93,414.42L389.94,414.42L390.48,414.29L390.67,414.54L390.68,414.59L390.94,414.28L391.44,414.78L391.45,414.82L392.43,414.33L392.44,414.41L397.76,414.4L397.77,414.34L398.5,414.71L398.63,414.5L398.64,414.42L401.41,414.36L401.42,414.45L401.72,414.29L402.34,414.88L402.35,414.8L403.24,414.5L403.36,414.73L403.37,414.81L404.09,414.73L404.14,414.62L404.14,414.56L405.38,414.3L405.43,414.39L405.44,414.47L408,414.59L408.01,414.64L408.02,414.68L408.4,415.03L408.74,414.52L408.74,414.44L410.16,414.53L410.18,414.58L410.18,414.66L410.58,415L410.91,414.49L410.92,414.48L411.64,415.01L411.82,414.58L411.83,414.55L413.31,414.41L413.36,414.57L413.37,414.65L413.9,414.37L414.13,414.91L414.13,414.95L415.64,414.54L415.64,414.47L415.65,414.45L415.9,414.83L415.99,414.51" style="vector-effect: non-scaling-stroke; fill: none; stroke: rgb(182, 129, 0); stroke-opacity: 1; stroke-width: 2px; opacity: 1;"/></g><g class="points"/><g class="text"/></g></g></g><g class="overplot"/><path class="xlines-above crisp" d="M65,429H483" style="fill: none; stroke-width: 2px; stroke: rgb(0, 0, 0); stroke-opacity: 1;"/><path class="ylines-above crisp" d="M66,0V428" style="fill: none; stroke-width: 2px; stroke: rgb(0, 0, 0); stroke-opacity: 1;"/><g class="overlines-above"/><g class="xaxislayer-above"><path class="xtick ticks crisp" d="M0,430v5" transform="translate(67,0)" style="stroke: rgb(68, 68, 68); stroke-opacity: 1; stroke-width: 1px;"/><path class="xtick ticks crisp" d="M0,430v5" transform="translate(136.32999999999998,0)" style="stroke: rgb(68, 68, 68); stroke-opacity: 1; stroke-width: 1px;"/><path class="xtick ticks crisp" d="M0,430v5" transform="translate(205.67,0)" style="stroke: rgb(68, 68, 68); stroke-opacity: 1; stroke-width: 1px;"/><path class="xtick ticks crisp" d="M0,430v5" transform="translate(275,0)" style="stroke: rgb(68, 68, 68); stroke-opacity: 1; stroke-width: 1px;"/><path class="xtick ticks crisp" d="M0,430v5" transform="translate(344.33,0)" style="stroke: rgb(68, 68, 68); stroke-opacity: 1; stroke-width: 1px;"/><path class="xtick ticks crisp" d="M0,430v5" transform="translate(413.67,0)" style="stroke: rgb(68, 68, 68); stroke-opacity: 1; stroke-width: 1px;"/><path class="xtick ticks crisp" d="M0,430v5" transform="translate(483,0)" style="stroke: rgb(68, 68, 68); stroke-opacity: 1; stroke-width: 1px;"/><g class="xtick"><text text-anchor="middle" x="0" y="461.4" transform="translate(67,0)" style="font-family: 'Times New Roman', monospace; font-size: 22px; fill: rgb(105, 105, 105); fill-opacity: 1; white-space: pre; opacity: 1;">0</text></g><g class="xtick"><text text-anchor="middle" x="0" y="461.4" style="font-family: 'Times New Roman', monospace; font-size: 22px; fill: rgb(105, 105, 105); fill-opacity: 1; white-space: pre; opacity: 1;" transform="translate(136.32999999999998,0)">20</text></g><g class="xtick"><text text-anchor="middle" x="0" y="461.4" style="font-family: 'Times New Roman', monospace; font-size: 22px; fill: rgb(105, 105, 105); fill-opacity: 1; white-space: pre; opacity: 1;" transform="translate(205.67,0)">40</text></g><g class="xtick"><text text-anchor="middle" x="0" y="461.4" style="font-family: 'Times New Roman', monospace; font-size: 22px; fill: rgb(105, 105, 105); fill-opacity: 1; white-space: pre; opacity: 1;" transform="translate(275,0)">60</text></g><g class="xtick"><text text-anchor="middle" x="0" y="461.4" style="font-family: 'Times New Roman', monospace; font-size: 22px; fill: rgb(105, 105, 105); fill-opacity: 1; white-space: pre; opacity: 1;" transform="translate(344.33,0)">80</text></g><g class="xtick"><text text-anchor="middle" x="0" y="461.4" style="font-family: 'Times New Roman', monospace; font-size: 22px; fill: rgb(105, 105, 105); fill-opacity: 1; white-space: pre; opacity: 1;" transform="translate(413.67,0)">100</text></g><g class="xtick"><text text-anchor="middle" x="0" y="461.4" style="font-family: 'Times New Roman', monospace; font-size: 22px; fill: rgb(105, 105, 105); fill-opacity: 1; white-space: pre; opacity: 1;" transform="translate(483,0)">120</text></g></g><g class="yaxislayer-above"><path class="ytick ticks crisp" d="M65,0h-5" transform="translate(0,428)" style="stroke: rgb(68, 68, 68); stroke-opacity: 1; stroke-width: 1px;"/><path class="ytick ticks crisp" d="M65,0h-5" transform="translate(0,370.93)" style="stroke: rgb(68, 68, 68); stroke-opacity: 1; stroke-width: 1px;"/><path class="ytick ticks crisp" d="M65,0h-5" transform="translate(0,313.87)" style="stroke: rgb(68, 68, 68); stroke-opacity: 1; stroke-width: 1px;"/><path class="ytick ticks crisp" d="M65,0h-5" transform="translate(0,256.8)" style="stroke: rgb(68, 68, 68); stroke-opacity: 1; stroke-width: 1px;"/><path class="ytick ticks crisp" d="M65,0h-5" transform="translate(0,199.73)" style="stroke: rgb(68, 68, 68); stroke-opacity: 1; stroke-width: 1px;"/><path class="ytick ticks crisp" d="M65,0h-5" transform="translate(0,142.67)" style="stroke: rgb(68, 68, 68); stroke-opacity: 1; stroke-width: 1px;"/><path class="ytick ticks crisp" d="M65,0h-5" transform="translate(0,85.6)" style="stroke: rgb(68, 68, 68); stroke-opacity: 1; stroke-width: 1px;"/><path class="ytick ticks crisp" d="M65,0h-5" transform="translate(0,28.53)" style="stroke: rgb(68, 68, 68); stroke-opacity: 1; stroke-width: 1px;"/><g class="ytick"><text text-anchor="end" x="55.6" y="7.699999999999999" transform="translate(0,428)" style="font-family: 'Times New Roman', monospace; font-size: 22px; fill: rgb(105, 105, 105); fill-opacity: 1; white-space: pre; opacity: 1;">0</text></g><g class="ytick"><text text-anchor="end" x="55.6" y="7.699999999999999" style="font-family: 'Times New Roman', monospace; font-size: 22px; fill: rgb(105, 105, 105); fill-opacity: 1; white-space: pre; opacity: 1;" transform="translate(0,370.93)">2</text></g><g class="ytick"><text text-anchor="end" x="55.6" y="7.699999999999999" style="font-family: 'Times New Roman', monospace; font-size: 22px; fill: rgb(105, 105, 105); fill-opacity: 1; white-space: pre; opacity: 1;" transform="translate(0,313.87)">4</text></g><g class="ytick"><text text-anchor="end" x="55.6" y="7.699999999999999" style="font-family: 'Times New Roman', monospace; font-size: 22px; fill: rgb(105, 105, 105); fill-opacity: 1; white-space: pre; opacity: 1;" transform="translate(0,256.8)">6</text></g><g class="ytick"><text text-anchor="end" x="55.6" y="7.699999999999999" style="font-family: 'Times New Roman', monospace; font-size: 22px; fill: rgb(105, 105, 105); fill-opacity: 1; white-space: pre; opacity: 1;" transform="translate(0,199.73)">8</text></g><g class="ytick"><text text-anchor="end" x="55.6" y="7.699999999999999" style="font-family: 'Times New Roman', monospace; font-size: 22px; fill: rgb(105, 105, 105); fill-opacity: 1; white-space: pre; opacity: 1;" transform="translate(0,142.67)">10</text></g><g class="ytick"><text text-anchor="end" x="55.6" y="7.699999999999999" style="font-family: 'Times New Roman', monospace; font-size: 22px; fill: rgb(105, 105, 105); fill-opacity: 1; white-space: pre; opacity: 1;" transform="translate(0,85.6)">12</text></g><g class="ytick"><text text-anchor="end" x="55.6" y="7.699999999999999" style="font-family: 'Times New Roman', monospace; font-size: 22px; fill: rgb(105, 105, 105); fill-opacity: 1; white-space: pre; opacity: 1;" transform="translate(0,28.53)">14</text></g></g><g class="overaxes-above"/></g></g><g class="polarlayer"/><g class="smithlayer"/><g class="ternarylayer"/><g class="geolayer"/><g class="funnelarealayer"/><g class="pielayer"/><g class="iciclelayer"/><g class="treemaplayer"/><g class="sunburstlayer"/><g class="glimages"/><defs id="topdefs-b8e404"><g class="clips"/><clipPath id="legendb8e404"><rect width="186" height="232" x="0" y="0"/></clipPath></defs><g class="layer-above"><g class="imagelayer"/><g class="shapelayer"/></g><g class="infolayer"><g class="legend" pointer-events="all" transform="translate(297,0)"><rect class="bg" shape-rendering="crispEdges" width="186" height="232" x="0" y="0" style="stroke: rgb(68, 68, 68); stroke-opacity: 1; fill: rgb(255, 255, 255); fill-opacity: 1; stroke-width: 0px;"/><g class="scrollbox" transform="" clip-path="url(#legendb8e404)"><g class="groups"><g class="traces" transform="translate(0,20.8)" style="opacity: 1;"><text class="legendtext" text-anchor="start" x="40" y="8.58" style="font-family: 'Times New Roman', monospace; font-size: 22px; fill: rgb(105, 105, 105); fill-opacity: 1; white-space: pre;">IrO<tspan style="font-size:70%" dy="0.3em">x</tspan><tspan dy="-0.21em"></tspan></text><g class="layers" style="opacity: 1;"><g class="legendfill"/><g class="legendlines"><path class="js-line" d="M5,0h30" style="fill: none; stroke: rgb(46, 145, 229); stroke-opacity: 1; stroke-width: 2px;"/></g><g class="legendsymbols"><g class="legendpoints"/></g></g><rect class="legendtoggle" x="0" y="-15.8" width="180.765625" height="31.6" style="fill: rgb(0, 0, 0); fill-opacity: 0;"/></g><g class="traces" transform="translate(0,52.400000000000006)" style="opacity: 1;"><text class="legendtext" text-anchor="start" x="40" y="8.58" style="font-family: 'Times New Roman', monospace; font-size: 22px; fill: rgb(105, 105, 105); fill-opacity: 1; white-space: pre;">Ni<tspan style="font-size:70%" dy="0.3em">60</tspan><tspan dy="-0.21em"></tspan>Co<tspan style="font-size:70%" dy="0.3em">30</tspan><tspan dy="-0.21em"></tspan>Fe<tspan style="font-size:70%" dy="0.3em">10</tspan><tspan dy="-0.21em"></tspan>O<tspan style="font-size:70%" dy="0.3em">x</tspan><tspan dy="-0.21em"></tspan></text><g class="layers" style="opacity: 1;"><g class="legendfill"/><g class="legendlines"><path class="js-line" d="M5,0h30" style="fill: none; stroke: rgb(225, 95, 153); stroke-opacity: 1; stroke-width: 2px;"/></g><g class="legendsymbols"><g class="legendpoints"/></g></g><rect class="legendtoggle" x="0" y="-15.8" width="180.765625" height="31.6" style="fill: rgb(0, 0, 0); fill-opacity: 0;"/></g><g class="traces" transform="translate(0,84)" style="opacity: 1;"><text class="legendtext" text-anchor="start" x="40" y="8.58" style="font-family: 'Times New Roman', monospace; font-size: 22px; fill: rgb(105, 105, 105); fill-opacity: 1; white-space: pre;">FeN<tspan style="font-size:70%" dy="0.3em">x</tspan><tspan dy="-0.21em"></tspan></text><g class="layers" style="opacity: 1;"><g class="legendfill"/><g class="legendlines"><path class="js-line" d="M5,0h30" style="fill: none; stroke: rgb(251, 13, 13); stroke-opacity: 1; stroke-width: 2px;"/></g><g class="legendsymbols"><g class="legendpoints"/></g></g><rect class="legendtoggle" x="0" y="-15.8" width="180.765625" height="31.6" style="fill: rgb(0, 0, 0); fill-opacity: 0;"/></g><g class="traces" transform="translate(0,115.60000000000001)" style="opacity: 1;"><text class="legendtext" text-anchor="start" x="40" y="8.58" style="font-family: 'Times New Roman', monospace; font-size: 22px; fill: rgb(105, 105, 105); fill-opacity: 1; white-space: pre;">CoN<tspan style="font-size:70%" dy="0.3em">x</tspan><tspan dy="-0.21em"></tspan></text><g class="layers" style="opacity: 1;"><g class="legendfill"/><g class="legendlines"><path class="js-line" d="M5,0h30" style="fill: none; stroke: rgb(218, 22, 255); stroke-opacity: 1; stroke-width: 2px;"/></g><g class="legendsymbols"><g class="legendpoints"/></g></g><rect class="legendtoggle" x="0" y="-15.8" width="180.765625" height="31.6" style="fill: rgb(0, 0, 0); fill-opacity: 0;"/></g><g class="traces" transform="translate(0,147.20000000000002)" style="opacity: 1;"><text class="legendtext" text-anchor="start" x="40" y="8.58" style="font-family: 'Times New Roman', monospace; font-size: 22px; fill: rgb(105, 105, 105); fill-opacity: 1; white-space: pre;">NiN<tspan style="font-size:70%" dy="0.3em">x</tspan><tspan dy="-0.21em"></tspan></text><g class="layers" style="opacity: 1;"><g class="legendfill"/><g class="legendlines"><path class="js-line" d="M5,0h30" style="fill: none; stroke: rgb(34, 42, 42); stroke-opacity: 1; stroke-width: 2px;"/></g><g class="legendsymbols"><g class="legendpoints"/></g></g><rect class="legendtoggle" x="0" y="-15.8" width="180.765625" height="31.6" style="fill: rgb(0, 0, 0); fill-opacity: 0;"/></g><g class="traces" transform="translate(0,178.8)" style="opacity: 1;"><text class="legendtext" text-anchor="start" x="40" y="8.58" style="font-family: 'Times New Roman', monospace; font-size: 22px; fill: rgb(105, 105, 105); fill-opacity: 1; white-space: pre;">Co<tspan style="font-size:70%" dy="0.3em">57</tspan><tspan dy="-0.21em"></tspan>Ni<tspan style="font-size:70%" dy="0.3em">14</tspan><tspan dy="-0.21em"></tspan>Fe<tspan style="font-size:70%" dy="0.3em">29</tspan><tspan dy="-0.21em"></tspan>N<tspan style="font-size:70%" dy="0.3em">x</tspan><tspan dy="-0.21em"></tspan></text><g class="layers" style="opacity: 1;"><g class="legendfill"/><g class="legendlines"><path class="js-line" d="M5,0h30" style="fill: none; stroke: rgb(28, 167, 28); stroke-opacity: 1; stroke-width: 2px;"/></g><g class="legendsymbols"><g class="legendpoints"/></g></g><rect class="legendtoggle" x="0" y="-15.8" width="180.765625" height="31.6" style="fill: rgb(0, 0, 0); fill-opacity: 0;"/></g><g class="traces" transform="translate(0,210.4)" style="opacity: 1;"><text class="legendtext" text-anchor="start" x="40" y="8.58" style="font-family: 'Times New Roman', monospace; font-size: 22px; fill: rgb(105, 105, 105); fill-opacity: 1; white-space: pre;">Co<tspan style="font-size:70%" dy="0.3em">45</tspan><tspan dy="-0.21em"></tspan>Ni<tspan style="font-size:70%" dy="0.3em">45</tspan><tspan dy="-0.21em"></tspan>Fe<tspan style="font-size:70%" dy="0.3em">10</tspan><tspan dy="-0.21em"></tspan>N<tspan style="font-size:70%" dy="0.3em">x</tspan><tspan dy="-0.21em"></tspan></text><g class="layers" style="opacity: 1;"><g class="legendfill"/><g class="legendlines"><path class="js-line" d="M5,0h30" style="fill: none; stroke: rgb(182, 129, 0); stroke-opacity: 1; stroke-width: 2px;"/></g><g class="legendsymbols"><g class="legendpoints"/></g></g><rect class="legendtoggle" x="0" y="-15.8" width="180.765625" height="31.6" style="fill: rgb(0, 0, 0); fill-opacity: 0;"/></g></g></g><rect class="scrollbar" rx="20" ry="3" width="0" height="0" x="0" y="0" style="fill: rgb(128, 139, 164); fill-opacity: 1;"/></g><g class="g-gtitle"/><g class="g-xtitle" transform="translate(0,-5.606249999999989)"><text class="xtitle" x="275" y="499.60625" text-anchor="middle" style="font-family: 'Times New Roman', monospace; font-size: 26px; fill: rgb(105, 105, 105); opacity: 1; font-weight: normal; white-space: pre;">Time (min)</text></g><g class="g-ytitle" transform="translate(26.5283203125,0)"><text class="ytitle" transform="rotate(-90,0.39374999999999716,214)" x="0.39374999999999716" y="214" text-anchor="middle" style="font-family: 'Times New Roman', monospace; font-size: 26px; fill: rgb(105, 105, 105); opacity: 1; font-weight: normal; white-space: pre;">Current (mA/cm<tspan style="font-size:70%" dy="-0.6em">2</tspan><tspan dy="0.42em"></tspan>)</text></g></g></svg>