<svg class="main-svg" xmlns="http://www.w3.org/2000/svg" xmlns:xlink="http://www.w3.org/1999/xlink" width="750" height="500" style="" viewBox="0 0 750 500"><rect x="0" y="0" width="750" height="500" style="fill: rgb(255, 255, 255); fill-opacity: 1;"/><defs id="defs-c663b2"><g class="clips"><clipPath id="clipc663b2xyplot" class="plotclip"><rect width="535" height="427"/></clipPath><clipPath class="axesclip" id="clipc663b2x"><rect x="59" y="0" width="535" height="500"/></clipPath><clipPath class="axesclip" id="clipc663b2y"><rect x="0" y="10" width="750" height="427"/></clipPath><clipPath class="axesclip" id="clipc663b2xy"><rect x="59" y="10" width="535" height="427"/></clipPath></g><g class="gradients"/><g class="patterns"/></defs><g class="bglayer"><rect class="bg" x="59" y="10" width="535" height="427" style="fill: rgb(0, 0, 0); fill-opacity: 0; stroke-width: 0;"/></g><g class="layer-below"><g class="imagelayer"/><g class="shapelayer"/></g><g class="cartesianlayer"><g class="subplot xy"><g class="layer-subplot"><g class="shapelayer"/><g class="imagelayer"/></g><g class="minor-gridlayer"><g class="x"/><g class="y"/></g><g class="gridlayer"><g class="x"/><g class="y"/></g><g class="zerolinelayer"/><path class="xlines-below"/><path class="ylines-below"/><g class="overlines-below"/><g class="xaxislayer-below"/><g class="yaxislayer-below"/><g class="overaxes-below"/><g class="plot" transform="translate(59,10)" clip-path="url(#clipc663b2xyplot)"><g class="scatterlayer mlayer"><g class="trace scatter traceca7d2a" style="stroke-miterlimit: 2; opacity: 1;"><g class="fills"/><g class="errorbars"/><g class="lines"><path class="js-line" d="M0,378.99L0.68,392.33L0.8,392.3L0.81,392.28L4.6,391.47L4.61,391.49L8.68,391.97L8.69,391.98L16.9,393.82L16.91,393.83L62.47,405.41L62.48,405.41L85.43,409.25L85.44,409.25L95.84,410.58L95.85,410.57L122.4,413.38L122.41,413.37L139.82,414.95L139.83,414.94L202.08,418.5L202.09,418.49L209.98,418.81L209.99,418.8L228.13,419.3L228.13,419.29L230.18,419.36L230.18,419.36L230.19,419.35L234.89,419.53L234.89,419.52L243.83,419.67L243.83,419.68L247.45,419.71L247.46,419.72L250.48,419.76L250.48,419.76L250.49,419.75L256.86,419.86L256.87,419.84L261.59,419.96L261.59,419.97L274.51,420.09L274.51,420.09L274.52,420.09L278.07,420.14L278.07,420.15L286.95,420.28L286.95,420.29L292.23,420.28L292.24,420.29L297.51,420.32L297.52,420.33L307.31,420.41L307.31,420.41L307.32,420.41L310.44,420.35L310.45,420.36L321.28,420.37L321.29,420.36L324.55,420.47L324.56,420.46L335.04,420.49L335.04,420.5L335.05,420.5L346.18,420.48L346.19,420.49L351.97,420.52L351.98,420.51L362.27,420.47L362.28,420.46L368.03,420.5L368.04,420.49L370.86,420.51L370.87,420.52L534.99,420.15L534.99,420.17" style="vector-effect: non-scaling-stroke; fill: none; stroke: rgb(46, 145, 229); stroke-opacity: 1; stroke-width: 2px; opacity: 1;"/></g><g class="points"/><g class="text"/></g><g class="trace scatter trace795cd9" style="stroke-miterlimit: 2; opacity: 1;"><g class="fills"/><g class="errorbars"/><g class="lines"><path class="js-line" d="M0,389.21L0.64,395.98L0.79,395.9L0.8,395.91L3.83,394.72L3.83,394.72L3.84,394.72L8.62,394.83L8.63,394.84L14.77,395.99L14.78,396L60.86,407.69L60.86,407.69L60.87,407.69L69.48,409.22L69.48,409.21L82.27,411.01L82.28,411.01L102.72,413L102.73,412.99L144.59,415.13L144.6,415.12L160.09,415.43L160.09,415.41L162.61,415.49L162.61,415.48L162.62,415.47L164.59,415.62L164.6,415.62L168.35,415.62L168.36,415.64L170.37,415.69L170.38,415.68L179.3,415.79L179.31,415.8L185.52,415.88L185.53,415.86L189.3,415.92L189.3,415.91L189.31,415.86L197.93,416.03L197.94,416.04L305.1,415.37L305.11,415.36L307.59,415.42L307.6,415.41L310.05,415.47L310.06,415.47L312.05,415.52L312.06,415.52L313.19,415.55L313.19,415.56L319.02,415.48L319.03,415.49L321.3,415.48L321.31,415.47L323,415.32L323.01,415.32L324.87,415.42L324.87,415.41L334.18,415.4L334.18,415.36L334.19,415.32L337.05,415.31L337.05,415.32L337.06,415.35L339.11,415.16L339.12,415.17L340.58,415.31L340.59,415.29L340.6,415.28L343.46,415.29L343.47,415.3L346.84,415.3L346.85,415.3L350.63,415.21L350.64,415.22L352.48,415.2L352.49,415.19L353.56,415.18L353.56,415.17L353.57,415.16L354.31,415.08L354.43,415.25L354.44,415.26L356.02,415.23L356.02,415.24L356.03,415.25L359.02,415.04L359.02,415.04L359.03,415.05L403.83,414.5L403.84,414.49L405.15,414.63L405.15,414.63L405.16,414.62L409.49,414.57L409.49,414.55L409.5,414.53L414.23,414.54L414.24,414.53L415.64,414.49L415.69,414.35L415.7,414.35L417.57,414.64L417.58,414.63L418.62,414.33L418.63,414.34L418.64,414.35L422.95,414.56L422.96,414.55L428.51,414.47L428.52,414.48L430.11,414.5L430.11,414.52L433.88,414.42L433.89,414.43L442.75,414.27L442.75,414.26L444.73,414.36L444.74,414.35L446.01,414.33L446.01,414.33L446.02,414.34L452.8,414.08L452.81,414.07L453.73,414.19L453.73,414.18L458.74,414.14L458.74,414.14L458.75,414.13L468.27,414.02L468.28,414.02L471.11,414.03L471.11,414.04L471.12,414.05L471.93,413.99L471.94,414L471.95,414L476.96,414.06L476.96,414.07L480.76,413.85L480.77,413.83L484.86,413.89L484.87,413.88L486.79,414L486.79,414.01L492.16,413.96L492.17,413.98L494.25,413.9L494.25,413.91L518.47,413.34L518.48,413.31L523.35,413.74L523.36,413.72L524.86,413.63L524.87,413.65L524.88,413.66L526.51,413.55L526.52,413.54L528.83,413.69L528.84,413.7L532.69,413.63L532.7,413.63L534.99,413.62" style="vector-effect: non-scaling-stroke; fill: none; stroke: rgb(46, 145, 229); stroke-opacity: 1; stroke-width: 2px; opacity: 1;"/></g><g class="points"/><g class="text"/></g><g class="trace scatter trace4cd257" style="stroke-miterlimit: 2; opacity: 1;"><g class="fills"/><g class="errorbars"/><g class="lines"><path class="js-line" d="M0,413.85L0.14,420.29L0.76,419.82L0.77,419.8L3.56,418.62L3.57,418.64L6.77,417.83L6.78,417.87L17.44,416.42L17.45,416.46L21.55,416.09L21.56,416.13L48.84,414.96L48.85,415.01L53,414.89L53.01,414.93L59.3,414.79L59.31,414.82L61.79,414.76L61.8,414.79L139.43,415.35L139.44,415.39L141.66,415.4L141.67,415.44L144.38,415.46L144.38,415.5L147.75,415.55L147.76,415.59L155.63,415.75L155.63,415.79L158.31,415.83L158.32,415.86L166.02,416.03L166.02,416.07L173.71,416.25L173.72,416.28L181.42,416.47L181.43,416.5L184.76,416.57L184.77,416.6L189.64,416.7L189.65,416.74L217.09,417.42L217.09,417.46L225,417.63L225.01,417.66L256.53,418.37L256.53,418.36L256.54,418.39L264.98,418.53L264.98,418.55L280.29,418.85L280.3,418.82L295.18,419.11L295.19,419.09L301.56,419.22L301.56,419.19L308.03,419.33L308.04,419.31L312.16,419.39L312.17,419.37L316.32,419.46L316.33,419.44L320.41,419.52L320.41,419.49L323.51,419.56L323.52,419.54L329.72,419.63L329.73,419.61L333.88,419.7L333.89,419.67L338.03,419.77L338.04,419.74L344.19,419.83L344.19,419.8L357.77,420L357.78,419.97L371.06,420.15L371.07,420.13L384.37,420.3L384.38,420.29L393.85,420.38L393.86,420.41L397.53,420.43L397.54,420.45L401.26,420.46L401.27,420.47L410.97,420.53L410.98,420.56L414.66,420.57L414.66,420.59L419.98,420.62L419.98,420.64L430.16,420.69L430.16,420.71L435.54,420.73L435.54,420.75L441.15,420.78L441.15,420.78L441.16,420.8L451.09,420.85L451.1,420.87L454.92,420.85L454.92,420.86L454.93,420.87L466.97,420.94L466.98,420.92L469.95,420.95L469.95,420.93L475.88,420.99L475.89,420.97L487.78,421.05L487.79,421.03L499.27,421.07L499.28,421.05L503.2,421.09L503.21,421.07L534.99,421.16L534.99,421.14" style="vector-effect: non-scaling-stroke; fill: none; stroke: rgb(225, 95, 153); stroke-opacity: 1; stroke-width: 2px; opacity: 1;"/></g><g class="points"/><g class="text"/></g><g class="trace scatter tracef699a2" style="stroke-miterlimit: 2; opacity: 1;"><g class="fills"/><g class="errorbars"/><g class="lines"><path class="js-line" d="M0,424.78L0.71,426.55L0.82,426.54L0.85,426.55L487.97,425.86L488,425.85L499.71,425.9L499.74,425.89L511.37,425.86L511.41,425.87L517.02,425.88L517.06,425.86L520.85,425.86L520.88,425.85L534.96,425.86" style="vector-effect: non-scaling-stroke; fill: none; stroke: rgb(251, 13, 13); stroke-opacity: 1; stroke-width: 2px; opacity: 1;"/></g><g class="points"/><g class="text"/></g><g class="trace scatter trace89b15d" style="stroke-miterlimit: 2; opacity: 1;"><g class="fills"/><g class="errorbars"/><g class="lines"><path class="js-line" d="M0,422.46L0.84,424.25L0.85,424.25L6.55,424.64L6.56,424.63L14.18,424.89L14.18,424.89L14.19,424.89L31.31,425.28L31.32,425.28L138.85,426.03L138.85,426.03L138.86,426.04L149.83,426.06L149.84,426.06L534.99,426.35L534.99,426.34" style="vector-effect: non-scaling-stroke; fill: none; stroke: rgb(218, 22, 255); stroke-opacity: 1; stroke-width: 2px; opacity: 1;"/></g><g class="points"/><g class="text"/></g><g class="trace scatter trace449556" style="stroke-miterlimit: 2; opacity: 1;"><g class="fills"/><g class="errorbars"/><g class="lines"><path class="js-line" d="M0,421.83L0.79,422.76L0.8,422.76L35.41,423.31L35.42,423.32L534.99,423.08" style="vector-effect: non-scaling-stroke; fill: none; stroke: rgb(218, 22, 255); stroke-opacity: 1; stroke-width: 2px; opacity: 1;"/></g><g class="points"/><g class="text"/></g><g class="trace scatter trace35256a" style="stroke-miterlimit: 2; opacity: 1;"><g class="fills"/><g class="errorbars"/><g class="lines"><path class="js-line" d="M0,422.62L0.76,425.16L0.77,425.15L4.94,424.95L4.95,424.94L24.26,424.39L24.27,424.4L35.86,424.37L35.87,424.38L47.47,424.35L47.47,424.36L157.62,423.64L157.62,423.64L157.63,423.63L167.52,423.55L167.53,423.55L283.15,422.85L283.16,422.84L534.99,422.89L534.99,422.9" style="vector-effect: non-scaling-stroke; fill: none; stroke: rgb(34, 42, 42); stroke-opacity: 1; stroke-width: 2px; opacity: 1;"/></g><g class="points"/><g class="text"/></g><g class="trace scatter traceab50b1" style="stroke-miterlimit: 2; opacity: 1;"><g class="fills"/><g class="errorbars"/><g class="lines"><path class="js-line" d="M0,420.99L0.76,425.06L0.77,425.06L6.14,425.02L6.15,425.02L20.42,424.82L20.43,424.82L534.99,424.32L534.99,424.33" style="vector-effect: non-scaling-stroke; fill: none; stroke: rgb(34, 42, 42); stroke-opacity: 1; stroke-width: 2px; opacity: 1;"/></g><g class="points"/><g class="text"/></g><g class="trace scatter trace93eda6" style="stroke-miterlimit: 2; opacity: 1;"><g class="fills"/><g class="errorbars"/><g class="lines"><path class="js-line" d="M0,420.16L0.76,424.8L0.77,424.8L11.36,424.76L11.37,424.75L534.99,424.87L534.99,424.87" style="vector-effect: non-scaling-stroke; fill: none; stroke: rgb(182, 129, 0); stroke-opacity: 1; stroke-width: 2px; opacity: 1;"/></g><g class="points"/><g class="text"/></g><g class="trace scatter trace23908c" style="stroke-miterlimit: 2; opacity: 1;"><g class="fills"/><g class="errorbars"/><g class="lines"><path class="js-line" d="M0,411.23L0.14,419.64L0.76,419.29L0.77,419.29L5.34,418.24L5.34,418.24L5.35,418.26L11.19,417.46L11.2,417.47L38.08,416.3L38.08,416.31L38.09,416.32L44.38,416.22L44.38,416.24L50.46,416.16L50.46,416.18L62.39,416.1L62.4,416.11L73.83,416.06L73.84,416.08L79.51,416.07L79.52,416.09L90.28,416.08L90.28,416.08L90.29,416.1L93.23,416.08L93.23,416.09L93.24,416.09L534.99,416.24L534.99,416.23" style="vector-effect: non-scaling-stroke; fill: none; stroke: rgb(117, 13, 134); stroke-opacity: 1; stroke-width: 2px; opacity: 1;"/></g><g class="points"/><g class="text"/></g><g class="trace scatter trace971e9f" style="stroke-miterlimit: 2; opacity: 1;"><g class="fills"/><g class="errorbars"/><g class="lines"><path class="js-line" d="M0,416.3L0.05,418.72L0.76,418.35L0.77,418.34L1.54,418.1L1.55,418.13L1.56,418.12L4.71,417.43L4.72,417.47L4.73,417.48L7.17,417.03L7.18,417.07L7.19,417.08L9.85,416.67L9.86,416.71L9.87,416.74L11.33,416.52L11.34,416.55L11.35,416.58L13.4,416.33L13.4,416.33L13.41,416.39L15.13,416.17L15.14,416.22L15.14,416.24L17.41,415.99L17.42,416.04L17.42,416.07L26.62,415.46L26.62,415.49L26.63,415.54L28.05,415.4L28.06,415.42L28.07,415.47L29.92,415.32L29.93,415.37L29.94,415.38L31.91,415.24L31.91,415.28L31.92,415.31L34.15,415.15L34.16,415.19L34.17,415.21L36.22,415.07L36.22,415.12L36.23,415.15L38.42,415.01L38.43,415.04L38.44,415.06L41.02,414.93L41.02,414.97L41.03,414.98L43.19,414.86L43.19,414.89L43.2,414.92L45.36,414.78L45.37,414.84L45.38,414.86L47.24,414.76L47.24,414.8L47.25,414.81L48.9,414.7L48.91,414.74L48.92,414.77L50.52,414.66L50.53,414.71L50.54,414.72L52.55,414.6L52.56,414.67L52.57,414.67L54.73,414.56L54.73,414.56L54.74,414.62L60.87,414.44L60.88,414.5L62.73,414.39L62.74,414.43L62.74,414.46L64.25,414.35L64.26,414.39L64.27,414.42L66.72,414.31L66.73,414.36L66.73,414.38L68.38,414.27L68.39,414.32L68.4,414.34L72.28,414.26L72.28,414.28L75.29,414.15L75.3,414.19L75.31,414.23L77.31,414.13L77.31,414.16L77.32,414.19L78.99,414.1L78.99,414.15L92.38,413.92L92.38,413.96L94.45,413.85L94.46,413.88L94.46,413.92L97.47,413.81L97.47,413.88L98.97,413.79L98.97,413.81L98.98,413.85L101.37,413.75L101.38,413.79L101.38,413.82L103.34,413.74L103.34,413.78L103.35,413.78L105.43,413.69L105.44,413.73L105.45,413.76L106.86,413.68L106.87,413.73L106.87,413.74L108.54,413.66L108.55,413.69L108.55,413.7L110.61,413.61L110.62,413.67L110.63,413.69L112.56,413.6L112.57,413.64L112.57,413.66L114.2,413.57L114.21,413.65L115.86,413.54L115.87,413.56L115.88,413.62L118.8,413.5L118.81,413.54L118.81,413.58L120.86,413.5L120.87,413.54L120.87,413.55L123.27,413.45L123.28,413.49L123.29,413.52L125.35,413.42L125.35,413.47L125.36,413.5L183.62,412.8L183.62,412.77L183.63,412.73L185.31,412.79L185.32,412.74L187.58,412.79L187.59,412.73L187.6,412.71L189.35,412.77L189.37,412.71L189.38,412.7L190.88,412.76L190.89,412.71L190.9,412.68L192.78,412.73L192.79,412.67L194.44,412.72L194.45,412.67L194.46,412.66L196.18,412.7L196.19,412.67L196.2,412.64L198.01,412.69L198.02,412.64L198.02,412.61L206.93,412.61L206.93,412.57L206.94,412.53L208.51,412.61L208.52,412.56L208.53,412.52L210.25,412.59L210.25,412.55L210.26,412.52L211.74,412.57L211.75,412.53L211.76,412.51L213.38,412.57L213.39,412.5L213.4,412.49L215.19,412.54L215.2,412.48L216.56,412.55L216.57,412.49L216.58,412.47L218.29,412.55L218.29,412.53L218.3,412.47L220.55,412.51L220.55,412.49L220.56,412.43L222.08,412.51L222.09,412.48L222.1,412.43L224.77,412.46L224.77,412.4L228.32,412.45L228.33,412.39L229.94,412.44L229.95,412.39L229.95,412.35L231.03,412.43L231.04,412.39L231.05,412.35L232.42,412.41L232.43,412.37L232.44,412.33L234.26,412.42L234.27,412.35L234.28,412.34L235.94,412.4L235.95,412.33L238.63,412.35L238.64,412.27L239.76,412.37L239.77,412.35L239.78,412.29L241.4,412.38L241.42,412.32L241.43,412.29L243.03,412.35L243.04,412.3L243.05,412.27L244.9,412.33L244.9,412.29L244.91,412.28L247.18,412.34L247.2,412.27L247.21,412.26L248.91,412.31L248.92,412.24L248.92,412.23L249.99,412.31L250.01,412.25L250.02,412.22L252.84,412.29L252.85,412.25L252.85,412.23L255.12,412.27L255.13,412.22L255.14,412.21L256.95,412.26L256.96,412.23L256.96,412.17L257.88,412.25L257.89,412.2L257.9,412.17L259.06,412.26L259.07,412.18L259.08,412.17L260.73,412.21L260.74,412.16L262.47,412.2L262.48,412.15L262.48,412.14L265.88,412.13L265.89,412.09L266.96,412.2L266.97,412.15L266.98,412.11L269.69,412.16L269.7,412.12L269.71,412.09L270.82,412.16L270.83,412.14L270.84,412.08L272.8,412.17L272.81,412.13L272.81,412.07L275.03,412.14L275.04,412.09L275.05,412.07L276.83,412.12L276.83,412.08L276.84,412.04L278.16,412.12L278.17,412.08L278.18,412.03L279.45,412.11L279.46,412.07L279.46,412.03L280.72,412.11L280.73,412.05L280.74,412.05L282.44,412.1L282.45,412.04L282.46,412.02L284.09,412.07L284.1,412.02L284.11,412L285.59,412.09L285.6,412.04L285.61,412.02L287.32,412.07L287.32,412.04L287.33,411.99L288.68,412.07L288.69,412.02L288.7,411.98L290.27,412.03L290.28,412L290.29,411.94L292.19,412.05L292.2,411.99L302.84,411.97L302.85,412.01L304.01,411.87L304.03,411.94L304.04,411.94L314.87,411.9L314.88,411.92L315.97,411.81L315.98,411.87L315.98,411.89L317.72,411.83L317.73,411.87L317.74,411.92L319.05,411.79L319.06,411.86L319.07,411.87L320.36,411.79L320.37,411.82L320.38,411.87L322.01,411.8L322.02,411.86L322.03,411.87L323.09,411.79L323.1,411.85L323.1,411.87L325.35,411.8L325.35,411.82L325.36,411.89L326.45,411.75L326.46,411.81L328.17,411.82L328.18,411.78L328.19,411.72L329.73,411.83L329.75,411.76L329.75,411.75L331.31,411.82L331.32,411.76L331.33,411.74L333.19,411.8L333.19,411.77L333.2,411.72L334.63,411.79L334.64,411.73L334.64,411.71L336.9,411.76L336.91,411.69L338.26,411.78L338.27,411.73L338.28,411.71L472.02,411.11L472.03,411.05L473.01,411.18L473.01,411.13L473.02,411.1L475.24,411.18L475.25,411.13L475.26,411.09L477.35,411.19L477.35,411.14L477.36,411.12L479.49,411.12L479.49,411.09L479.5,411.02L480.41,411.16L480.42,411.11L484.06,411.12L484.06,411.08L485.43,411.11L485.44,411.06L485.45,411.03L486.55,411.13L486.55,411.13L486.56,411.07L487.71,411.17L487.72,411.14L487.73,411.09L492.76,411.13L492.76,411.14L494.77,411.04L494.78,411.1L496.22,411.03L496.23,411.09L496.23,411.12L500,410.96L500.01,411.02L500.02,411.08L502.08,411L502.08,411.06L512.14,411L512.14,411.04L512.15,411.07L513.23,410.99L513.24,411.01L513.24,411.07L514.37,410.99L514.37,411.04L514.38,411.04L515.63,410.99L515.64,411.03L515.65,411.06L516.71,410.96L516.71,411.01L516.72,411.06L517.61,410.97L517.61,411.03L517.62,411.05L518.86,410.95L518.87,410.98L518.88,411.04L520.58,410.98L520.58,410.99L520.59,411.07L521.77,410.98L521.78,411.02L521.79,411.05L523.45,410.94L523.46,410.99L523.47,411.02L524.63,410.95L524.64,411L524.65,411.03L525.74,410.91L525.76,410.98L525.76,411L526.92,410.93L526.93,411L526.94,411L529.31,410.93L529.32,410.99L529.32,411.03L530.99,410.88L530.99,410.91L531,410.98L532.82,410.92L532.83,410.97L532.84,411L533.68,410.87L533.75,410.94L533.76,410.99L534.99,411.01" style="vector-effect: non-scaling-stroke; fill: none; stroke: rgb(117, 13, 134); stroke-opacity: 1; stroke-width: 2px; opacity: 1;"/></g><g class="points"/><g class="text"/></g><g class="trace scatter trace30dbe1" style="stroke-miterlimit: 2; opacity: 1;"><g class="fills"/><g class="errorbars"/><g class="lines"><path class="js-line" d="M0,345.02L0.24,422.8L0.76,422.77L0.77,422.78L2.39,423.56L2.39,423.56L2.4,423.56L8.24,423.97L8.24,423.97L8.25,423.96L24.4,424.29L24.4,424.29L24.41,424.29L119.62,425.04L119.63,425.05L130.3,425.09L130.3,425.09L130.31,425.09L534.99,425.18L534.99,425.14" style="vector-effect: non-scaling-stroke; fill: none; stroke: rgb(235, 102, 59); stroke-opacity: 1; stroke-width: 2px; opacity: 1;"/></g><g class="points"/><g class="text"/></g><g class="trace scatter trace79ee3a" style="stroke-miterlimit: 2; opacity: 1;"><g class="fills"/><g class="errorbars"/><g class="lines"><path class="js-line" d="M0,145.39L1.2,318.32L1.21,318.25L1.22,318.25L2.39,319.33L2.41,319.27L2.42,319.17L3.3,319.81L3.31,319.64L3.32,319.62L4.04,320.23L4.14,320.17L4.15,320.14L4.99,320.9L5,320.89L5.01,320.89L8.23,323.13L8.23,323.02L9.1,323.82L9.11,323.86L10.86,325.03L10.87,324.89L11.9,325.98L11.92,325.86L11.93,325.85L13.2,327.07L13.21,326.97L15.41,328.68L15.42,328.63L16.67,329.64L16.68,329.57L17.8,330.57L17.82,330.49L17.83,330.46L19.18,331.53L19.21,331.49L19.22,331.5L20.41,332.47L20.42,332.41L20.43,332.4L22.66,334.15L22.67,334.05L23.53,334.94L23.53,334.86L23.54,334.83L24.74,335.74L24.74,335.68L26.72,337.34L26.74,337.27L26.75,337.26L28.85,338.93L28.85,338.87L31.1,340.44L31.12,340.42L31.13,340.4L32.06,341.19L32.09,341.14L32.1,341.12L33.8,342.52L33.81,342.51L33.82,342.48L39.86,346.5L39.89,346.37L39.89,346.34L42.53,348.11L42.53,348.07L44.78,349.5L44.78,349.48L44.79,349.42L46.01,350.33L46.02,350.34L62.59,360.62L62.59,360.65L68.84,364.07L68.84,364.07L68.85,364.1L73.15,366.28L73.16,366.31L76.63,368.06L76.64,368.05L80.83,370.09L80.84,370.07L83.87,371.64L83.88,371.62L102.49,379.03L102.5,379L106.26,380.29L106.26,380.28L115.94,383.65L115.95,383.63L122.24,385.36L122.25,385.33L124.04,385.72L124.05,385.74L129.41,387.09L129.42,387.06L132.26,387.84L132.26,387.83L132.27,387.83L136.42,388.81L136.42,388.79L174.33,395.85L174.34,395.83L181.29,396.93L181.3,396.92L186.93,397.66L186.94,397.67L188.44,397.83L188.45,397.84L213.91,400.57L213.92,400.56L232.07,402.23L232.08,402.23L245.33,403.26L245.33,403.25L245.34,403.25L257.74,404.17L257.74,404.17L257.75,404.17L270.11,404.96L270.12,404.96L308.12,406.83L308.12,406.82L316.07,407.17L316.07,407.17L316.08,407.16L336.39,407.79L336.4,407.78L340.73,407.95L340.74,407.95L362.4,408.68L362.4,408.68L362.41,408.67L369.3,408.85L369.31,408.84L377.5,409.07L377.51,409.08L385.99,409.26L386,409.27L393.75,409.49L393.75,409.51L409.85,409.78L409.85,409.77L417.58,409.98L417.59,409.99L430.13,410.12L430.13,410.11L430.14,410.1L435.09,410.19L435.1,410.2L440.21,410.26L440.22,410.27L448.95,410.43L448.95,410.44L524.92,411.18L524.92,411.18L524.93,411.19L529.03,411.12L529.03,411.12L529.04,411.13L532.27,411.23L532.27,411.24L532.28,411.24L534.99,411.21L534.99,411.22" style="vector-effect: non-scaling-stroke; fill: none; stroke: rgb(81, 28, 251); stroke-opacity: 1; stroke-width: 2px; opacity: 1;"/></g><g class="points"/><g class="text"/></g><g class="trace scatter tracea9ad12" style="stroke-miterlimit: 2; opacity: 1;"><g class="fills"/><g class="errorbars"/><g class="lines"><path class="js-line" d="M0,412.41L0.77,426.43L0.77,426.43L0.78,426.43L5.1,426.53L5.11,426.53L534.99,426.39L534.99,426.38" style="vector-effect: non-scaling-stroke; fill: none; stroke: rgb(0, 160, 139); stroke-opacity: 1; stroke-width: 2px; opacity: 1;"/></g><g class="points"/><g class="text"/></g><g class="trace scatter trace2725eb" style="stroke-miterlimit: 2; opacity: 1;"><g class="fills"/><g class="errorbars"/><g class="lines"><path class="js-line" d="M0,417.32L0.79,421.17L0.8,421.13L2.24,421.47L2.24,421.43L4.18,421.49L4.19,421.44L12.65,421.29L12.65,421.27L12.66,421.25L36.89,422L36.89,422L36.9,422.01L60.05,422.74L60.05,422.74L60.06,422.75L64.9,422.86L64.91,422.87L73.21,423.06L73.21,423.06L73.22,423.07L89.29,423.39L89.29,423.39L89.3,423.39L164.2,424.14L164.21,424.15L174.73,424.2L174.74,424.2L534.99,424.84L534.99,424.89" style="vector-effect: non-scaling-stroke; fill: none; stroke: rgb(251, 0, 209); stroke-opacity: 1; stroke-width: 2px; opacity: 1;"/></g><g class="points"/><g class="text"/></g><g class="trace scatter trace1a7442" style="stroke-miterlimit: 2; opacity: 1;"><g class="fills"/><g class="errorbars"/><g class="lines"><path class="js-line" d="M0,420.04L0.91,420.87L0.94,420.85L0.95,420.85L13.5,420.72L13.51,420.72L43.81,421.47L43.82,421.48L52.84,421.63L52.85,421.63L68.32,421.91L68.32,421.91L68.33,421.91L119.1,422.66L119.1,422.66L119.11,422.67L128.88,422.77L128.88,422.77L128.89,422.77L225.99,423.52L225.99,423.53L236.82,423.55L236.83,423.56L247.56,423.59L247.56,423.6L257.97,423.65L257.97,423.65L257.98,423.66L268.95,423.68L268.96,423.68L534.99,423.59L534.99,423.57" style="vector-effect: non-scaling-stroke; fill: none; stroke: rgb(252, 0, 128); stroke-opacity: 1; stroke-width: 2px; opacity: 1;"/></g><g class="points"/><g class="text"/></g><g class="trace scatter trace7c6b9b" style="stroke-miterlimit: 2; opacity: 1;"><g class="fills"/><g class="errorbars"/><g class="lines"><path class="js-line" d="M0,420.13L0.77,423.32L0.77,423.32L0.78,423.32L5.68,423.54L5.68,423.54L5.69,423.54L62.97,424.29L62.97,424.29L62.98,424.3L73.2,424.37L73.21,424.37L534.99,424.87L534.99,424.87" style="vector-effect: non-scaling-stroke; fill: none; stroke: rgb(252, 0, 128); stroke-opacity: 1; stroke-width: 2px; opacity: 1;"/></g><g class="points"/><g class="text"/></g><g class="trace scatter trace45d641" style="stroke-miterlimit: 2; opacity: 1;"><g class="fills"/><g class="errorbars"/><g class="lines"><path class="js-line" d="M0,314.62L0.03,341.99L0.74,319.81L0.75,319.45L0.76,319.8L1.38,315.43L1.39,315.75L1.4,315.59L2.8,311.33L2.92,311.6L2.93,311.59L2.97,311.86L3.48,310.18L3.7,310.42L3.71,310.55L3.74,310.79L4.35,309.69L4.49,309.7L4.5,309.84L5.59,308.79L5.61,308.95L5.62,309.32L5.71,309.44L6.23,308.38L6.4,308.41L6.41,308.74L6.58,308.99L7.17,308.18L7.18,308.65L7.42,308.81L7.94,307.84L7.94,308.32L7.95,308.32L8.15,308.66L8.5,307.59L8.7,307.87L8.71,308.11L8.8,308.38L9.43,307.74L9.45,307.91L9.46,308.04L9.47,308.35L9.88,307.63L10.2,308.17L10.21,307.74L10.6,307.56L10.87,308.3L10.96,308.29L10.97,308.24L11.05,308.43L11.53,307.56L11.72,307.61L11.73,308.06L11.74,307.62L12.35,308.46L12.47,308.08L12.48,308.36L12.59,308.61L13.18,307.78L13.23,307.97L13.24,308.11L13.25,307.77L13.46,308.8L13.98,308.36L13.98,308.49L14.28,308.69L14.49,307.9L14.73,308.48L14.74,308.26L14.88,307.91L14.94,308.76L15.46,308.45L15.47,308.69L15.49,308.94L15.63,307.99L16.21,308.36L16.22,308.76L16.38,308.24L16.79,309.23L16.95,308.53L16.96,309.29L17.02,308.56L17.29,309.44L17.71,308.96L17.72,308.81L17.85,308.5L18.29,309.64L18.45,308.76L18.46,308.65L19.1,309.67L19.21,309.56L19.22,309.38L19.31,308.83L19.61,310.07L19.97,309.51L19.97,309.31L19.99,309L20.61,310.1L20.68,309.49L20.69,309.95L20.86,309.48L21.06,310.47L21.42,309.97L21.43,310.27L21.56,309.66L21.72,310.65L22.18,310.16L22.19,310.17L22.37,310.04L22.8,310.87L22.93,310.61L22.94,310.12L23.21,311.04L23.69,310.76L23.7,310.48L24.28,311.64L24.34,310.45L24.45,310.78L24.46,311.14L24.52,310.72L25,311.56L25.2,311.38L25.2,311.51L25.42,311.03L25.87,311.87L25.92,311.78L25.93,311.87L26.07,311.26L26.6,312.27L26.68,312.03L26.69,311.69L26.79,311.58L27.22,312.46L27.44,312.34L27.45,312.09L27.7,311.96L28.12,312.8L28.22,312.61L28.23,312.43L28.28,312.25L28.67,313.1L28.98,312.87L28.99,312.73L29.39,312.33L29.74,313.6L29.74,313.19L29.75,313.66L29.92,312.99L30.33,313.91L30.49,313.81L30.5,313.68L31.07,313.44L31.13,314.23L31.2,313.96L31.21,314.08L31.48,313.72L31.91,314.57L31.93,314.46L31.94,314.58L32.06,314.12L32.51,314.98L32.69,314.65L32.7,314.56L32.78,314.42L33.33,315.39L33.47,315.15L33.47,315L33.64,314.83L34.34,315.66L34.34,315.42L34.51,315.28L35.08,316.16L35.1,316.14L35.11,316.03L35.34,315.66L35.81,316.67L35.84,316.14L35.85,316.47L35.94,316.05L36.46,316.88L36.56,316.73L36.57,316.84L36.85,316.52L37.08,317.2L37.29,317.08L37.3,317.11L37.42,316.88L37.78,317.64L37.96,317.24L37.96,317.68L38,317.04L38.62,317.92L38.7,317.84L38.71,317.77L38.97,317.56L39.4,318.45L39.55,318.32L39.56,318.16L39.58,317.96L40.34,318.85L40.35,318.74L40.4,318.52L41.16,319.53L41.17,319.36L41.17,319.11L41.37,319.08L41.76,319.99L41.94,319.86L41.95,319.69L42.25,319.38L42.68,320.42L42.7,320.35L42.71,320.06L42.75,320.02L43.46,320.9L43.47,320.65L43.48,320.51L43.74,320.38L44.13,321.07L44.23,320.7L44.24,321.11L44.32,320.78L44.71,321.57L44.97,321.19L44.98,321.55L45.01,321.23L45.53,321.93L45.73,321.61L45.74,321.69L45.76,321.2L46.38,322.51L46.44,322.33L46.45,322.4L46.47,322.13L47.02,322.86L47.17,322.64L47.18,322.86L47.26,322.51L47.86,323.66L47.93,323.23L47.94,323.21L47.95,322.91L48.63,323.8L48.67,323.42L48.68,323.66L48.77,323.41L49.7,324.36L49.71,324.26L49.72,324.02L50.45,324.91L50.48,324.68L50.49,324.61L50.51,324.36L51.06,325.19L51.19,325.14L51.2,325.17L51.21,325L51.89,325.64L51.92,325.52L51.93,325.54L52.04,325.45L52.7,326.12L52.76,326.07L52.76,325.87L52.82,325.79L53.5,326.56L53.54,326.36L53.54,326.22L54.25,327.01L54.3,326.93L54.31,326.72L54.38,326.65L55,327.49L55.07,327.38L55.08,327.4L55.15,327.17L55.83,327.97L55.89,327.72L55.9,327.72L55.93,327.68L56.68,328.41L56.69,328.21L56.7,328.19L56.85,328.16L57.42,328.99L57.45,328.66L57.46,328.78L57.48,328.46L58.16,329.41L58.19,329.15L58.2,329.36L58.52,329.11L59.01,330.03L59.02,329.84L59.3,329.59L59.77,330.43L59.78,330.26L59.79,330.27L59.93,330.08L60.49,330.88L60.69,330.75L60.7,330.67L60.73,330.54L61.5,331.46L61.51,331.26L61.52,331.19L62.25,331.96L62.27,331.82L62.28,331.79L62.48,331.59L63.6,332.74L63.61,332.66L63.62,332.38L63.75,332.35L64.36,333.1L64.39,332.92L64.4,332.83L64.44,332.62L64.98,333.62L65.17,333.42L65.18,333.34L65.26,333.08L66.04,334.22L66.07,334.12L66.08,334.11L66.21,333.81L66.62,334.5L66.83,334.26L66.84,334.1L67.62,335.02L67.63,334.77L68.05,334.73L68.19,335.62L68.4,335.53L68.41,335.42L68.48,335.12L69.04,335.87L69.09,335.78L69.1,335.85L69.19,335.54L69.68,336.19L69.82,336.14L69.83,336.18L69.84,335.85L70.55,336.63L70.57,336.51L70.58,336.51L70.79,336.32L71.09,337.14L71.24,336.81L71.25,337.21L71.53,336.86L71.94,337.65L71.99,337.25L71.99,337.45L72.02,337.19L72.59,337.9L72.67,337.71L72.68,338.15L72.75,337.77L73.31,338.27L73.42,337.93L73.43,338.24L73.96,338.65L73.99,338.17L74.08,338.56L74.09,338.62L74.35,338.43L74.69,339.09L74.81,338.65L74.82,339.09L74.9,338.73L75.52,339.5L75.55,339.31L75.56,339.58L75.58,339.29L76.12,339.92L76.29,339.85L76.3,339.84L76.43,339.68L77.11,340.29L77.14,340.12L77.14,340.1L77.89,340.89L77.93,340.77L77.94,340.63L78.16,340.62L78.71,341.38L78.72,341.18L78.79,341.05L79.4,341.76L79.49,341.72L79.5,341.61L80.43,342.16L80.44,342.09L80.45,341.79L81.03,342.56L81.23,342.5L81.24,342.31L81.3,342.12L81.97,342.99L82.01,342.76L82.02,342.89L82.06,342.88L82.81,343.46L82.82,343.29L82.87,343.17L83.62,343.91L83.63,343.75L83.64,343.73L83.73,343.68L84.42,344.31L84.44,344.22L84.45,344.21L84.57,343.9L85.09,344.72L85.16,344.41L85.17,344.61L85.2,344.42L85.85,345.04L85.87,344.91L85.88,345.04L85.98,344.75L86.37,345.41L86.62,345.31L86.63,345.22L86.8,345.07L87.29,345.74L87.31,345.56L87.32,345.78L87.53,346.01L87.91,345.7L88.02,345.83L88.03,346.12L88.1,345.78L88.7,346.55L88.74,346.32L88.74,346.57L89.25,346.25L89.48,346.74L89.49,346.67L89.51,346.47L90.16,347.33L90.18,347.22L90.19,347.28L90.64,346.97L90.92,347.51L90.93,347.33L90.94,347.47L91.06,347.61L91.25,347.37L91.58,347.77L91.59,347.85L91.63,347.61L92.09,348.11L92.32,347.96L92.33,348.13L92.51,348.34L92.79,348.05L93.02,348.28L93.03,348.56L93.07,348.17L93.75,348.92L93.76,348.75L93.77,348.82L93.94,348.61L94.4,349.25L94.46,349.02L94.47,349.12L94.58,348.93L95.42,349.57L95.44,349.53L95.45,349.38L96.19,349.94L96.25,349.79L96.26,349.81L96.32,349.78L97.18,350.42L97.19,350.4L97.2,350.29L97.95,350.86L97.97,350.73L97.98,350.65L98.1,350.58L98.63,351.22L98.85,351.14L98.86,351.04L100.02,351.67L100.02,351.57L100.03,351.46L100.12,351.35L100.79,352.01L100.8,351.84L101.53,352.51L101.56,352.26L101.57,352.16L102.5,352.79L102.5,352.62L103.45,353.14L103.46,353.09L103.47,352.9L103.54,352.81L104.22,353.57L104.24,353.48L104.24,353.25L105.01,353.93L105.02,353.86L105.16,353.62L105.45,354.08L105.71,354.03L105.71,354.17L106.37,354.04L106.41,354.14L106.42,354.36L106.52,354.13L107.04,354.67L107.16,354.48L107.17,354.52L108.12,355.02L108.14,354.96L108.14,354.87L108.18,354.79L108.87,355.32L108.97,355.3L108.98,355.14L109.65,355.71L109.73,355.62L109.74,355.52L109.8,355.44L110.53,355.97L110.55,355.96L110.56,355.94L111.9,356.58L111.93,356.51L111.93,356.33L112.56,356.84L112.69,356.81L112.7,356.72L113.95,357.26L113.98,357.21L113.98,357.14L114.56,357.6L114.74,357.51L114.75,357.43L114.88,357.33L115.46,357.88L115.52,357.85L115.53,357.81L116.74,358.38L116.75,358.32L116.76,358.18L116.78,358.17L117.45,358.65L117.51,358.49L117.52,358.72L117.66,358.48L118.15,358.88L118.28,358.68L118.29,358.84L118.35,358.61L118.72,359.12L118.99,359.07L118.99,359.2L119.77,359.25L119.8,359.39L119.8,359.47L119.85,359.24L120.29,359.72L120.54,359.59L120.55,359.64L121.77,360.09L121.78,360.03L121.79,359.93L121.83,359.9L122.55,360.38L122.56,360.34L122.57,360.32L124,360.83L124.05,360.68L124.05,360.63L124.86,361.24L124.86,361.14L124.97,361.01L125.71,361.46L125.74,361.41L125.75,361.41L127.28,361.94L127.29,361.88L127.29,361.77L127.93,362.27L128.05,362.03L128.06,362.13L129.51,362.68L129.51,362.49L129.67,362.41L130.43,362.97L130.45,362.96L130.46,362.8L130.62,362.78L131.14,363.17L131.22,363.03L131.23,363.17L131.38,362.99L131.94,363.49L131.96,363.23L131.97,363.42L132.06,363.22L132.32,363.62L132.69,363.5L132.69,363.68L132.93,363.77L133.04,363.53L133.43,363.68L133.44,363.81L135.18,364.53L135.25,364.4L135.26,364.32L135.47,364.27L135.99,364.64L136.02,364.6L136.03,364.53L137.09,365.02L137.1,365L137.11,364.93L137.21,364.9L137.82,365.22L137.87,365.12L137.88,365.09L138.81,365.58L138.83,365.57L138.84,365.5L141.26,366.25L141.27,366.05L141.34,366.03L142.02,366.47L142.04,366.42L142.05,366.35L142.12,366.31L142.83,366.64L142.84,366.48L143.56,366.93L143.6,366.83L143.61,366.74L144.18,367.07L144.4,367.02L144.41,367.04L146.55,367.7L146.58,367.64L146.58,367.51L146.75,367.48L147.32,367.91L147.34,367.81L147.35,367.81L148.36,368.11L148.37,368.04L149.96,368.56L149.97,368.42L150.73,368.87L150.76,368.75L150.77,368.8L151.48,368.79L151.55,368.92L151.56,369.02L154.06,369.55L154.07,369.75L154.18,369.52L154.81,369.88L154.82,369.72L154.83,369.81L155.56,369.93L155.6,369.97L155.6,370.12L156.13,370.01L156.35,370.13L156.35,370.23L157.96,370.62L157.97,370.52L159.55,371.02L159.56,370.98L161.67,371.57L161.67,371.43L161.87,371.35L162.28,371.71L162.44,371.61L162.45,371.49L163.17,371.9L163.2,371.85L163.21,371.78L164.07,372.12L164.08,372.09L164.09,371.94L164.82,372.27L164.85,372.23L164.86,372.23L177.72,375.06L177.72,374.95L178.64,375.33L178.65,375.23L180.48,375.59L180.49,375.51L181.4,375.83L181.41,375.71L182.07,376.03L182.17,375.97L182.18,375.96L185.18,376.54L185.18,376.58L185.19,376.63L186.03,376.68L186.04,376.79L187.02,376.84L187.03,376.86L187.03,376.97L189.38,377.32L189.38,377.49L189.95,377.37L190.01,377.61L190.13,377.52L190.14,377.55L192.31,377.94L192.33,377.89L192.33,377.78L193.13,378.16L193.13,378.1L198.63,379.13L198.64,379.22L199.82,379.26L199.83,379.36L200.92,379.47L200.93,379.53L203,379.89L203.01,379.83L203.02,379.79L203.91,380L203.92,379.97L203.93,379.93L205.24,380.27L205.28,380.22L205.28,380.17L206.61,380.51L206.64,380.47L206.64,380.45L209.39,380.89L209.39,380.79L210.15,381.08L210.16,381.02L211.61,381.29L211.62,381.27L211.63,381.2L212.43,381.39L212.44,381.36L212.45,381.38L271.38,388.84L271.39,388.79L272.83,389.01L272.84,388.99L272.85,388.92L273.98,389.13L273.99,389.1L277.03,389.4L277.03,389.36L277.04,389.34L278.18,389.54L278.19,389.46L279.57,389.66L279.57,389.64L279.58,389.61L315.64,392.68L315.64,392.66L315.65,392.7L317.57,392.8L317.58,392.85L320.32,392.96L320.33,393.01L320.34,393.03L330.97,393.63L330.98,393.71L333.85,393.85L333.85,393.89L343.33,394.43L343.34,394.4L344.21,394.51L344.24,394.46L344.24,394.43L345.82,394.59L345.83,394.54L348.54,394.68L348.55,394.67L349.97,394.81L349.99,394.78L350,394.76L352.16,394.93L352.17,394.86L353.35,395.02L353.35,394.98L353.36,394.96L356.21,395.17L356.21,395.14L356.22,395.11L357.89,395.22L357.89,395.2L359.91,395.4L359.93,395.35L359.94,395.32L362.08,395.49L362.08,395.46L362.09,395.44L366.71,395.64L366.71,395.63L368.42,395.77L368.43,395.74L372.89,395.94L372.89,395.93L372.9,395.9L374.64,396.05L374.65,396.02L376.68,396.15L376.69,396.12L376.7,396.08L384.7,396.49L384.71,396.42L386.68,396.57L386.69,396.54L391.46,396.8L391.46,396.79L391.47,396.74L395.83,396.92L395.84,396.87L395.85,396.84L400.24,397.04L400.25,397.01L402.98,397.14L402.99,397.14L409.87,397.35L409.88,397.32L413.11,397.48L413.12,397.44L414.72,397.58L414.74,397.53L414.75,397.53L421.25,397.72L421.26,397.67L423.31,397.79L423.32,397.75L423.33,397.73L425,397.89L425.01,397.88L426.8,397.87L426.81,397.9L426.82,397.93L427.87,397.85L427.9,397.9L427.91,397.93L430.48,397.95L430.49,397.95L433.45,398.04L433.46,398L433.47,397.99L435.02,398.1L435.03,398.06L438.5,398.25L438.51,398.23L445.9,398.42L445.91,398.43L446.93,398.44L446.93,398.49L477.58,399.11L477.58,399.11L477.59,399.13L486.02,399.23L486.03,399.24L524.91,399.85L524.92,399.87L525.52,399.61L525.71,399.71L525.72,399.75L527.77,399.83L527.78,399.84L528.65,399.75L528.66,399.78L528.67,399.83L534.99,399.82L534.99,399.82" style="vector-effect: non-scaling-stroke; fill: none; stroke: rgb(178, 130, 141); stroke-opacity: 1; stroke-width: 2px; opacity: 1;"/></g><g class="points"/><g class="text"/></g><g class="trace scatter trace58c87d" style="stroke-miterlimit: 2; opacity: 1;"><g class="fills"/><g class="errorbars"/><g class="lines"><path class="js-line" d="M0,383.15L0.76,424.69L0.77,424.7L2.73,425.03L2.74,425.03L27.94,424.33L27.95,424.25L29.49,424.32L29.49,424.32L29.5,424.32L213.36,424.78L213.36,424.79L534.99,425.46L534.99,425.41" style="vector-effect: non-scaling-stroke; fill: none; stroke: rgb(108, 124, 50); stroke-opacity: 1; stroke-width: 2px; opacity: 1;"/></g><g class="points"/><g class="text"/></g><g class="trace scatter trace0a81a2" style="stroke-miterlimit: 2; opacity: 1;"><g class="fills"/><g class="errorbars"/><g class="lines"><path class="js-line" d="M0,360.58L0.13,393.91L0.77,392.41L0.78,392.44L2.24,391.04L2.25,391.06L2.26,391.06L7.84,388.98L7.85,389.01L10.34,388.74L10.34,388.76L18.59,388.9L18.6,388.94L21.26,388.98L21.27,389.01L25.09,388.55L25.09,388.51L29.95,388.79L29.95,388.81L41.61,389.05L41.62,389.03L43.21,389.15L43.22,389.17L55.38,389.42L55.39,389.34L60.94,389.39L60.95,389.34L66.5,389.92L66.5,389.9L67.39,389.45L67.4,389.36L70.14,389.77L70.14,389.7L77.57,390.45L77.57,390.47L78.38,390.83L78.5,390.19L78.51,390.14L79.46,389.43L79.49,389.48L79.5,389.5L82.72,390.12L82.72,390L84.81,390.65L84.82,390.52L84.83,390.37L85.29,389.76L85.63,389.87L85.64,389.88L93.26,390.2L93.27,390.1L94.06,390.08L94.07,390.1L95.98,390.6L96.01,390.43L96.02,390.41L98.82,390.4L98.83,390.42L100.64,390.56L100.65,390.5L104.77,391.69L104.78,391.66L104.79,391.5L105.83,390.92L105.85,390.93L105.86,390.95L110.8,391.3L110.8,391.33L110.81,391.35L112.1,391.02L112.1,390.95L113.1,391.02L113.11,391.03L115.2,391.61L115.2,391.6L116.66,391.17L116.67,391.16L118.09,390.65L118.09,390.6L120.41,391.01L120.42,390.99L121.85,390.96L121.85,391L125.95,392.15L125.99,391.56L126,391.51L126.82,391.49L126.82,391.51L127.17,391.56L127.22,390.88L127.23,390.8L128.02,390.94L128.03,390.98L132.4,391.74L132.41,391.69L132.42,391.68L133.37,390.81L133.41,390.85L133.42,390.86L134.72,391.26L134.75,390.86L134.76,390.76L135.5,390.3L135.55,390.31L135.56,390.31L137.26,390.71L137.26,390.73L141.17,390.85L141.17,390.85L141.18,390.84L144.22,392.12L144.26,391.6L144.27,391.57L145.1,390.69L145.11,390.7L146.55,391.08L146.55,391.08L146.56,391.09L147.51,391.11L147.52,391.09L147.53,390.85L148.4,390.7L148.41,390.73L148.42,390.73L149.63,390.7L149.64,390.74L150.99,391.23L151,391.26L152.69,391.85L152.74,391.48L152.74,391.4L153.52,389.53L153.81,389.64L153.82,389.64L157.14,388.97L157.15,388.92L158.23,389.39L158.23,389.42L161.83,390.77L161.84,390.72L161.84,390.57L161.95,389.99L162.62,390.21L162.63,390.23L165.78,391.25L165.79,391.19L165.8,391.17L167.42,391.99L167.43,391.76L167.43,391.65L168.64,391.12L168.64,391.15L168.65,391.14L169.61,390.55L169.62,390.48L170.06,389.66L170.48,389.94L170.49,389.97L171.89,390.36L171.9,390.39L173.96,389.75L173.96,389.72L173.97,389.66L174.37,388.86L174.81,388.99L174.82,389.02L176.95,389.85L176.98,389.58L176.99,389.45L177.04,389.12L177.63,389.6L177.72,389.6L177.73,389.6L180.27,390.67L180.28,390.6L182.46,390.19L182.46,390.14L183.26,390.17L183.31,390.21L183.32,390.25L183.91,390.53L183.92,390.33L183.93,389.73L183.98,389.17L184.67,389.72L184.68,389.72L186.63,390.91L186.69,390.69L186.7,390.66L188.66,391.63L188.67,391.67L189.08,391.88L189.09,391.22L189.1,390.9L189.12,390.47L189.81,390.95L189.85,390.76L189.86,390.75L190.64,390.92L190.65,390.96L192.93,392.2L193.01,391.89L193.02,391.87L195.17,391.51L195.18,391.47L196.17,390.87L196.17,390.76L196.3,390.46L196.93,390.57L196.94,390.58L200.71,390.49L200.71,390.23L200.79,389.34L201.48,389.6L201.49,389.64L202.92,390.55L202.93,390.58L204.65,391.35L204.66,391.34L205.67,391.72L205.72,391.17L205.73,391.09L207.08,391.41L207.09,391.43L207.8,391.49L207.85,391.05L207.85,391L209.07,389.4L209.14,389.49L209.15,389.47L210.4,390.03L210.41,389.99L210.42,389.95L213.78,391.06L213.78,391.09L215.25,391.82L215.3,391.76L215.31,391.72L217.79,392.16L217.8,392.11L218.06,392.18L218.18,391.5L218.19,391.46L218.54,389.07L219.14,389.36L219.15,389.39L220.57,390.12L220.69,389.41L220.69,389.38L222.17,389.54L222.18,389.61L226.37,390.83L226.38,390.72L226.39,390.3L226.44,389.17L227.14,389.33L227.15,389.37L229.21,390.57L229.22,390.6L233.62,392.14L233.68,391.69L233.68,391.61L234.62,389.66L234.63,389.66L240.47,392.24L240.54,391.92L240.55,391.9L240.77,391.08L241.37,391.36L241.38,391.4L241.74,390.27L241.75,390.13L242.49,389.55L242.51,389.57L242.52,389.59L245.39,389.53L245.39,389.49L246.84,389.67L246.84,389.67L246.85,389.7L250.6,391.15L250.61,390.67L250.62,390.49L250.71,389.36L251.39,389.67L251.4,389.67L253.49,390.12L253.5,390.07L256.9,391.82L256.93,391.78L256.94,391.77L258.52,392.6L258.65,391.98L258.66,391.95L260.08,391.72L260.08,391.74L260.23,391.84L260.26,391L260.27,390.89L261.08,389.69L261.09,389.67L263.35,389.47L263.35,389.42L263.36,389.39L263.41,388.96L264.11,389.38L264.12,389.4L265.22,389.87L265.23,389.89L267.99,391.46L268,391.43L268.01,391.42L268.84,390.43L268.84,390.28L269,389.46L269.61,389.72L269.62,389.7L270.7,389.56L270.7,389.56L270.71,389.59L272.51,390.2L272.52,390.23L274.13,389.74L274.14,389.77L275.11,389.84L275.12,389.88L277.71,391.01L277.73,390.34L277.74,390.16L277.79,389.19L278.51,389.6L278.52,389.63L282.58,391.23L282.59,391.12L284.66,390.58L284.67,390.5L284.74,389.97L285.43,390.26L285.44,390.3L286.04,390.59L286.06,390.02L286.07,389.85L286.16,388.89L286.84,389.12L286.85,389.15L287.26,389.26L287.37,388.59L287.38,388.59L288.7,388.21L288.71,388.24L289.76,388.68L289.77,388.73L292.24,390.08L292.25,390.05L292.26,390.03L293.6,390.34L293.61,390.33L293.62,390.32L296.33,390.73L296.35,390.21L296.35,390.01L296.46,388.87L297.15,389.03L297.16,389.01L298.04,389.23L298.05,389.28L300.64,390.2L300.65,390.23L301.92,390.82L301.99,390.38L302,390.36L302.69,390.34L302.84,390.5L302.85,390.53L304.36,390.91L304.36,390.91L304.37,390.78L306.94,390.91L306.95,390.7L306.96,390.49L307.05,389.01L307.71,389.18L307.72,389.2L308.18,388.09L308.19,387.94L308.24,387.74L308.85,388.07L308.93,388.01L308.94,388.02L312.19,389.79L312.19,389.79L312.2,389.75L312.95,389.95L312.97,389.99L312.98,390.02L315.29,390.69L315.29,390.62L315.99,390.48L316.03,390.18L316.04,390.14L316.81,389.75L316.86,389.78L316.87,389.81L317.33,389.8L317.35,389.12L317.36,388.94L317.54,387.78L318.15,388.05L318.16,388.08L320.7,389.13L320.74,389.02L320.75,388.99L321.37,389.23L321.45,389.34L321.46,389.37L326.3,390.95L326.31,390.89L326.31,390.88L328.28,391.94L328.29,391.97L328.54,391.78L328.56,391.34L328.56,391.24L329.04,389.81L329.38,390.02L329.39,390.04L329.6,390.16L329.79,389.43L329.8,389.38L330.93,389.03L331.05,389.15L331.06,389.19L331.83,389.31L331.94,388.95L331.95,388.9L332.48,387.97L332.88,388.17L332.89,388.19L334.09,388.77L334.09,388.8L335.93,389.14L335.94,389.09L339.23,390L339.23,389.98L339.24,389.6L339.36,388.06L340.06,388.38L340.07,388.36L343.74,390.12L343.74,390.08L343.75,390L344.53,388.66L344.61,388.72L344.62,388.74L345.68,388.79L345.71,388.84L345.71,388.85L347.92,389.63L347.93,389.61L350.19,390.67L350.23,389.94L350.24,389.87L350.65,388.77L351.04,389.03L351.05,389.07L353.98,390.62L353.98,390.58L353.99,390.57L355.6,390.68L355.61,390.7L356.44,390.78L356.52,390.7L356.53,390.7L357.81,390.39L357.82,390.35L358.61,388.86L358.74,388.93L358.75,388.92L360.92,389.45L360.93,389.37L360.94,389.06L361,387.17L361.72,387.55L361.73,387.51L362.79,387.56L362.8,387.56L363.83,387.73L363.84,387.76L366.01,388.38L366.02,388.36L366.03,388.36L371.82,390.28L371.99,389.63L372,389.59L373.17,389.75L373.18,389.79L376.65,390.8L376.67,390.09L376.68,389.87L376.71,388.21L377.43,388.32L377.44,388.32L379.11,388.52L379.13,388.46L379.14,388.45L381.74,389.48L381.74,389.43L384.2,390.46L384.22,390.29L384.23,390.27L384.76,388.72L385.26,389.02L385.27,389.06L385.95,388.56L385.96,388.52L387.98,388.53L387.99,388.57L391.91,389.72L391.92,389.57L391.92,389.48L392.02,387.96L392.74,388.32L392.75,388.35L397.87,389.05L397.88,389.09L399.73,390.2L399.73,390.24L401.84,389.87L401.85,389.92L403.75,390.47L403.76,390.5L404.94,391.08L404.96,390.31L404.97,390.03L404.99,388.23L405.72,388.43L405.73,388.34L410.08,389.24L410.08,389.21L410.09,389.26L411.57,389.55L411.68,389.19L411.68,389.14L411.88,388.43L412.48,388.85L412.48,388.87L415.31,389.12L415.32,389.1L415.98,388.59L416.22,388.73L416.23,388.74L421.91,390.1L421.93,389.72L421.94,389.52L422.04,388.17L422.73,388.44L422.74,388.46L424.16,388.86L424.17,388.91L426.6,389.69L426.6,389.69L426.61,389.62L428.87,390.02L428.88,390.06L430.21,390.01L430.21,389.97L431.88,390.55L431.89,390.57L434.42,391.58L434.43,391.43L434.44,391.1L434.49,388.95L435.23,389.14L435.24,389.11L435.94,388.92L435.98,388.69L435.99,388.66L436.56,387.25L436.91,387.39L436.92,387.38L438.79,387.4L438.8,387.35L438.8,387.32L440.2,387.61L440.21,387.58L445.65,389.01L445.65,388.89L451.76,390.53L451.85,390.05L451.86,390.04L452.66,390.12L452.67,390.13L452.68,390.14L452.84,390.2L452.88,389.42L452.89,389.37L452.99,388.29L453.68,388.63L453.69,388.66L454.56,389.07L454.62,388.93L454.63,388.9L461.04,391.36L461.04,391.33L461.42,390.65L461.42,390.57L462.27,389.38L462.28,389.41L462.29,389.4L463.64,389.47L463.64,389.45L463.65,389.36L465.41,389.95L465.44,389.57L465.44,389.41L465.55,388.01L466.25,388.26L466.26,388.27L468.01,388.37L468.01,388.38L469.03,388.22L469.04,388.18L471.06,389.28L471.08,389.26L471.09,389.21L472.31,389.42L472.32,389.45L472.32,389.46L474.13,390.12L474.17,389.87L474.17,389.85L474.88,389.23L475.12,389.35L475.12,389.38L477.58,390.4L477.58,390.43L477.81,390.46L477.86,389.83L477.87,389.71L478.1,388.59L478.67,388.87L478.68,388.85L479.96,388.97L479.97,388.95L485.05,390.93L485.06,390.91L485.98,390.9L486,390.79L486,390.78L486.6,391.01L486.82,390.33L486.83,390.29L487.2,389.74L487.64,389.99L487.65,390.01L489.47,390.56L489.51,390.35L489.52,390.31L490.51,389.12L490.52,389.15L491.72,387.44L491.72,387.49L493.75,387.88L493.78,387.77L493.79,387.74L495.26,388.21L495.27,388.27L499.71,390.84L499.72,390.79L499.73,390.65L501.85,391.46L501.86,391.5L503.27,391.73L503.28,391.7L504.36,391.22L504.36,391.14L505.27,389.66L505.28,389.67L505.29,389.68L506.62,389.02L506.63,389.04L506.64,389.05L509.08,389.36L509.09,389.32L509.1,389.3L510.49,389.93L510.49,389.97L511.47,390.23L511.47,390.26L513.87,390.5L513.9,390.23L513.91,390.15L514.48,389.65L514.7,389.81L514.71,389.82L516.36,390.25L516.38,390.15L516.39,389.8L516.6,388.34L517.14,388.48L517.15,388.51L520.38,390.02L520.48,389.77L520.49,389.76L521.38,389.59L521.39,389.61L522.78,389.15L522.78,389.15L522.79,389.09L523.83,388.89L523.88,388.75L523.89,388.72L527.41,390.37L527.43,390.3L527.44,390.17L529.17,391.05L529.17,390.96L529.18,390.79L529.93,389.14L530.03,389.2L530.04,389.21L530.89,389.44L530.9,389.47L532.09,389.82L532.1,389.78L532.11,389.78L534.99,390.79" style="vector-effect: non-scaling-stroke; fill: none; stroke: rgb(167, 119, 241); stroke-opacity: 1; stroke-width: 2px; opacity: 1;"/></g><g class="points"/><g class="text"/></g><g class="trace scatter tracecca36e" style="stroke-miterlimit: 2; opacity: 1;"><g class="fills"/><g class="errorbars"/><g class="lines"><path class="js-line" d="M0,405.67L0.33,414.86L0.77,414.58L0.78,414.57L4.24,413.29L4.25,413.3L9.88,412.56L9.88,412.57L9.89,412.57L31.57,411.84L31.58,411.85L534.99,411.79L534.99,411.78" style="vector-effect: non-scaling-stroke; fill: none; stroke: rgb(167, 119, 241); stroke-opacity: 1; stroke-width: 2px; opacity: 1;"/></g><g class="points"/><g class="text"/></g></g></g><g class="overplot"/><path class="xlines-above crisp" d="M57,438H594" style="fill: none; stroke-width: 2px; stroke: rgb(0, 0, 0); stroke-opacity: 1;"/><path class="ylines-above crisp" d="M58,10V437" style="fill: none; stroke-width: 2px; stroke: rgb(0, 0, 0); stroke-opacity: 1;"/><g class="overlines-above"/><g class="xaxislayer-above"><path class="xtick ticks crisp" d="M0,439v5" transform="translate(59,0)" style="stroke: rgb(68, 68, 68); stroke-opacity: 1; stroke-width: 1px;"/><path class="xtick ticks crisp" d="M0,439v5" transform="translate(148.17000000000002,0)" style="stroke: rgb(68, 68, 68); stroke-opacity: 1; stroke-width: 1px;"/><path class="xtick ticks crisp" d="M0,439v5" transform="translate(237.33,0)" style="stroke: rgb(68, 68, 68); stroke-opacity: 1; stroke-width: 1px;"/><path class="xtick ticks crisp" d="M0,439v5" transform="translate(326.5,0)" style="stroke: rgb(68, 68, 68); stroke-opacity: 1; stroke-width: 1px;"/><path class="xtick ticks crisp" d="M0,439v5" transform="translate(415.67,0)" style="stroke: rgb(68, 68, 68); stroke-opacity: 1; stroke-width: 1px;"/><path class="xtick ticks crisp" d="M0,439v5" transform="translate(504.83,0)" style="stroke: rgb(68, 68, 68); stroke-opacity: 1; stroke-width: 1px;"/><path class="xtick ticks crisp" d="M0,439v5" transform="translate(594,0)" style="stroke: rgb(68, 68, 68); stroke-opacity: 1; stroke-width: 1px;"/><g class="xtick"><text text-anchor="middle" x="0" y="465.6" transform="translate(59,0)" style="font-family: 'Times New Roman', monospace; font-size: 18px; fill: rgb(105, 105, 105); fill-opacity: 1; white-space: pre; opacity: 1;">0</text></g><g class="xtick"><text text-anchor="middle" x="0" y="465.6" style="font-family: 'Times New Roman', monospace; font-size: 18px; fill: rgb(105, 105, 105); fill-opacity: 1; white-space: pre; opacity: 1;" transform="translate(148.17000000000002,0)">20</text></g><g class="xtick"><text text-anchor="middle" x="0" y="465.6" style="font-family: 'Times New Roman', monospace; font-size: 18px; fill: rgb(105, 105, 105); fill-opacity: 1; white-space: pre; opacity: 1;" transform="translate(237.33,0)">40</text></g><g class="xtick"><text text-anchor="middle" x="0" y="465.6" style="font-family: 'Times New Roman', monospace; font-size: 18px; fill: rgb(105, 105, 105); fill-opacity: 1; white-space: pre; opacity: 1;" transform="translate(326.5,0)">60</text></g><g class="xtick"><text text-anchor="middle" x="0" y="465.6" style="font-family: 'Times New Roman', monospace; font-size: 18px; fill: rgb(105, 105, 105); fill-opacity: 1; white-space: pre; opacity: 1;" transform="translate(415.67,0)">80</text></g><g class="xtick"><text text-anchor="middle" x="0" y="465.6" style="font-family: 'Times New Roman', monospace; font-size: 18px; fill: rgb(105, 105, 105); fill-opacity: 1; white-space: pre; opacity: 1;" transform="translate(504.83,0)">100</text></g><g class="xtick"><text text-anchor="middle" x="0" y="465.6" style="font-family: 'Times New Roman', monospace; font-size: 18px; fill: rgb(105, 105, 105); fill-opacity: 1; white-space: pre; opacity: 1;" transform="translate(594,0)">120</text></g></g><g class="yaxislayer-above"><path class="ytick ticks crisp" d="M57,0h-5" transform="translate(0,437)" style="stroke: rgb(68, 68, 68); stroke-opacity: 1; stroke-width: 1px;"/><path class="ytick ticks crisp" d="M57,0h-5" transform="translate(0,351.6)" style="stroke: rgb(68, 68, 68); stroke-opacity: 1; stroke-width: 1px;"/><path class="ytick ticks crisp" d="M57,0h-5" transform="translate(0,266.2)" style="stroke: rgb(68, 68, 68); stroke-opacity: 1; stroke-width: 1px;"/><path class="ytick ticks crisp" d="M57,0h-5" transform="translate(0,180.8)" style="stroke: rgb(68, 68, 68); stroke-opacity: 1; stroke-width: 1px;"/><path class="ytick ticks crisp" d="M57,0h-5" transform="translate(0,95.4)" style="stroke: rgb(68, 68, 68); stroke-opacity: 1; stroke-width: 1px;"/><path class="ytick ticks crisp" d="M57,0h-5" transform="translate(0,10)" style="stroke: rgb(68, 68, 68); stroke-opacity: 1; stroke-width: 1px;"/><g class="ytick"><text text-anchor="end" x="48.4" y="6.3" transform="translate(0,437)" style="font-family: 'Times New Roman', monospace; font-size: 18px; fill: rgb(105, 105, 105); fill-opacity: 1; white-space: pre; opacity: 1;">0</text></g><g class="ytick"><text text-anchor="end" x="48.4" y="6.3" style="font-family: 'Times New Roman', monospace; font-size: 18px; fill: rgb(105, 105, 105); fill-opacity: 1; white-space: pre; opacity: 1;" transform="translate(0,351.6)">5</text></g><g class="ytick"><text text-anchor="end" x="48.4" y="6.3" style="font-family: 'Times New Roman', monospace; font-size: 18px; fill: rgb(105, 105, 105); fill-opacity: 1; white-space: pre; opacity: 1;" transform="translate(0,266.2)">10</text></g><g class="ytick"><text text-anchor="end" x="48.4" y="6.3" style="font-family: 'Times New Roman', monospace; font-size: 18px; fill: rgb(105, 105, 105); fill-opacity: 1; white-space: pre; opacity: 1;" transform="translate(0,180.8)">15</text></g><g class="ytick"><text text-anchor="end" x="48.4" y="6.3" style="font-family: 'Times New Roman', monospace; font-size: 18px; fill: rgb(105, 105, 105); fill-opacity: 1; white-space: pre; opacity: 1;" transform="translate(0,95.4)">20</text></g><g class="ytick"><text text-anchor="end" x="48.4" y="6.3" style="font-family: 'Times New Roman', monospace; font-size: 18px; fill: rgb(105, 105, 105); fill-opacity: 1; white-space: pre; opacity: 1;" transform="translate(0,10)">25</text></g></g><g class="overaxes-above"/></g></g><g class="polarlayer"/><g class="smithlayer"/><g class="ternarylayer"/><g class="geolayer"/><g class="funnelarealayer"/><g class="pielayer"/><g class="iciclelayer"/><g class="treemaplayer"/><g class="sunburstlayer"/><g class="glimages"/><defs id="topdefs-c663b2"><g class="clips"/><clipPath id="legendc663b2"><rect width="156" height="409" x="0" y="0"/></clipPath></defs><g class="layer-above"><g class="imagelayer"/><g class="shapelayer"/></g><g class="infolayer"><g class="legend" pointer-events="all" transform="translate(594,14.270000000000003)"><rect class="bg" shape-rendering="crispEdges" width="156" height="409" x="0" y="0" style="stroke: rgb(68, 68, 68); stroke-opacity: 1; fill: rgb(255, 255, 255); fill-opacity: 1; stroke-width: 0px;"/><g class="scrollbox" transform="" clip-path="url(#legendc663b2)"><g class="groups"><g class="traces" transform="translate(0,14.5)" style="opacity: 1;"><text class="legendtext" text-anchor="start" x="40" y="3.9" style="font-family: 'Times New Roman', monospace; font-size: 10px; fill: rgb(105, 105, 105); fill-opacity: 1; white-space: pre;">Co50 Ni0 Fe50 300C 2h_</text><g class="layers" style="opacity: 1;"><g class="legendfill"/><g class="legendlines"><path class="js-line" d="M5,0h30" style="fill: none; stroke: rgb(46, 145, 229); stroke-opacity: 1; stroke-width: 2px;"/></g><g class="legendsymbols"><g class="legendpoints"/></g></g><rect class="legendtoggle" x="0" y="-9.5" width="150.84375" height="19" style="fill: rgb(0, 0, 0); fill-opacity: 0;"/></g><g class="traces" transform="translate(0,33.5)" style="opacity: 1;"><text class="legendtext" text-anchor="start" x="40" y="3.9" style="font-family: 'Times New Roman', monospace; font-size: 10px; fill: rgb(105, 105, 105); fill-opacity: 1; white-space: pre;">Co50 Ni0 Fe50 300C 2h</text><g class="layers" style="opacity: 1;"><g class="legendfill"/><g class="legendlines"><path class="js-line" d="M5,0h30" style="fill: none; stroke: rgb(46, 145, 229); stroke-opacity: 1; stroke-width: 2px;"/></g><g class="legendsymbols"><g class="legendpoints"/></g></g><rect class="legendtoggle" x="0" y="-9.5" width="150.84375" height="19" style="fill: rgb(0, 0, 0); fill-opacity: 0;"/></g><g class="traces" transform="translate(0,52.5)" style="opacity: 1;"><text class="legendtext" text-anchor="start" x="40" y="3.9" style="font-family: 'Times New Roman', monospace; font-size: 10px; fill: rgb(105, 105, 105); fill-opacity: 1; white-space: pre;">Co0 Ni50 Fe50 400C 2h</text><g class="layers" style="opacity: 1;"><g class="legendfill"/><g class="legendlines"><path class="js-line" d="M5,0h30" style="fill: none; stroke: rgb(225, 95, 153); stroke-opacity: 1; stroke-width: 2px;"/></g><g class="legendsymbols"><g class="legendpoints"/></g></g><rect class="legendtoggle" x="0" y="-9.5" width="150.84375" height="19" style="fill: rgb(0, 0, 0); fill-opacity: 0;"/></g><g class="traces" transform="translate(0,71.5)" style="opacity: 1;"><text class="legendtext" text-anchor="start" x="40" y="3.9" style="font-family: 'Times New Roman', monospace; font-size: 10px; fill: rgb(105, 105, 105); fill-opacity: 1; white-space: pre;">Co33 Ni33 Fe33 800C 2h</text><g class="layers" style="opacity: 1;"><g class="legendfill"/><g class="legendlines"><path class="js-line" d="M5,0h30" style="fill: none; stroke: rgb(251, 13, 13); stroke-opacity: 1; stroke-width: 2px;"/></g><g class="legendsymbols"><g class="legendpoints"/></g></g><rect class="legendtoggle" x="0" y="-9.5" width="150.84375" height="19" style="fill: rgb(0, 0, 0); fill-opacity: 0;"/></g><g class="traces" transform="translate(0,90.5)" style="opacity: 1;"><text class="legendtext" text-anchor="start" x="40" y="3.9" style="font-family: 'Times New Roman', monospace; font-size: 10px; fill: rgb(105, 105, 105); fill-opacity: 1; white-space: pre;">Co50 Ni50 Fe0 300C 6h</text><g class="layers" style="opacity: 1;"><g class="legendfill"/><g class="legendlines"><path class="js-line" d="M5,0h30" style="fill: none; stroke: rgb(218, 22, 255); stroke-opacity: 1; stroke-width: 2px;"/></g><g class="legendsymbols"><g class="legendpoints"/></g></g><rect class="legendtoggle" x="0" y="-9.5" width="150.84375" height="19" style="fill: rgb(0, 0, 0); fill-opacity: 0;"/></g><g class="traces" transform="translate(0,109.5)" style="opacity: 1;"><text class="legendtext" text-anchor="start" x="40" y="3.9" style="font-family: 'Times New Roman', monospace; font-size: 10px; fill: rgb(105, 105, 105); fill-opacity: 1; white-space: pre;">Co50 Ni50 Fe0 300C 6h</text><g class="layers" style="opacity: 1;"><g class="legendfill"/><g class="legendlines"><path class="js-line" d="M5,0h30" style="fill: none; stroke: rgb(218, 22, 255); stroke-opacity: 1; stroke-width: 2px;"/></g><g class="legendsymbols"><g class="legendpoints"/></g></g><rect class="legendtoggle" x="0" y="-9.5" width="150.84375" height="19" style="fill: rgb(0, 0, 0); fill-opacity: 0;"/></g><g class="traces" transform="translate(0,128.5)" style="opacity: 1;"><text class="legendtext" text-anchor="start" x="40" y="3.9" style="font-family: 'Times New Roman', monospace; font-size: 10px; fill: rgb(105, 105, 105); fill-opacity: 1; white-space: pre;">Co0 Ni0 Fe100 400C 6h</text><g class="layers" style="opacity: 1;"><g class="legendfill"/><g class="legendlines"><path class="js-line" d="M5,0h30" style="fill: none; stroke: rgb(34, 42, 42); stroke-opacity: 1; stroke-width: 2px;"/></g><g class="legendsymbols"><g class="legendpoints"/></g></g><rect class="legendtoggle" x="0" y="-9.5" width="150.84375" height="19" style="fill: rgb(0, 0, 0); fill-opacity: 0;"/></g><g class="traces" transform="translate(0,147.5)" style="opacity: 1;"><text class="legendtext" text-anchor="start" x="40" y="3.9" style="font-family: 'Times New Roman', monospace; font-size: 10px; fill: rgb(105, 105, 105); fill-opacity: 1; white-space: pre;">Co0 Ni0 Fe100 400C 6h</text><g class="layers" style="opacity: 1;"><g class="legendfill"/><g class="legendlines"><path class="js-line" d="M5,0h30" style="fill: none; stroke: rgb(34, 42, 42); stroke-opacity: 1; stroke-width: 2px;"/></g><g class="legendsymbols"><g class="legendpoints"/></g></g><rect class="legendtoggle" x="0" y="-9.5" width="150.84375" height="19" style="fill: rgb(0, 0, 0); fill-opacity: 0;"/></g><g class="traces" transform="translate(0,166.5)" style="opacity: 1;"><text class="legendtext" text-anchor="start" x="40" y="3.9" style="font-family: 'Times New Roman', monospace; font-size: 10px; fill: rgb(105, 105, 105); fill-opacity: 1; white-space: pre;">Co25 Ni75 Fe0 600C 6h</text><g class="layers" style="opacity: 1;"><g class="legendfill"/><g class="legendlines"><path class="js-line" d="M5,0h30" style="fill: none; stroke: rgb(182, 129, 0); stroke-opacity: 1; stroke-width: 2px;"/></g><g class="legendsymbols"><g class="legendpoints"/></g></g><rect class="legendtoggle" x="0" y="-9.5" width="150.84375" height="19" style="fill: rgb(0, 0, 0); fill-opacity: 0;"/></g><g class="traces" transform="translate(0,185.5)" style="opacity: 1;"><text class="legendtext" text-anchor="start" x="40" y="3.9" style="font-family: 'Times New Roman', monospace; font-size: 10px; fill: rgb(105, 105, 105); fill-opacity: 1; white-space: pre;">Co25 Ni0 Fe75 800C 6h</text><g class="layers" style="opacity: 1;"><g class="legendfill"/><g class="legendlines"><path class="js-line" d="M5,0h30" style="fill: none; stroke: rgb(117, 13, 134); stroke-opacity: 1; stroke-width: 2px;"/></g><g class="legendsymbols"><g class="legendpoints"/></g></g><rect class="legendtoggle" x="0" y="-9.5" width="150.84375" height="19" style="fill: rgb(0, 0, 0); fill-opacity: 0;"/></g><g class="traces" transform="translate(0,204.5)" style="opacity: 1;"><text class="legendtext" text-anchor="start" x="40" y="3.9" style="font-family: 'Times New Roman', monospace; font-size: 10px; fill: rgb(105, 105, 105); fill-opacity: 1; white-space: pre;">Co25 Ni0 Fe75 800C 6h</text><g class="layers" style="opacity: 1;"><g class="legendfill"/><g class="legendlines"><path class="js-line" d="M5,0h30" style="fill: none; stroke: rgb(117, 13, 134); stroke-opacity: 1; stroke-width: 2px;"/></g><g class="legendsymbols"><g class="legendpoints"/></g></g><rect class="legendtoggle" x="0" y="-9.5" width="150.84375" height="19" style="fill: rgb(0, 0, 0); fill-opacity: 0;"/></g><g class="traces" transform="translate(0,223.5)" style="opacity: 1;"><text class="legendtext" text-anchor="start" x="40" y="3.9" style="font-family: 'Times New Roman', monospace; font-size: 10px; fill: rgb(105, 105, 105); fill-opacity: 1; white-space: pre;">Co25 Ni50 Fe25 300C 12h</text><g class="layers" style="opacity: 1;"><g class="legendfill"/><g class="legendlines"><path class="js-line" d="M5,0h30" style="fill: none; stroke: rgb(235, 102, 59); stroke-opacity: 1; stroke-width: 2px;"/></g><g class="legendsymbols"><g class="legendpoints"/></g></g><rect class="legendtoggle" x="0" y="-9.5" width="150.84375" height="19" style="fill: rgb(0, 0, 0); fill-opacity: 0;"/></g><g class="traces" transform="translate(0,242.5)" style="opacity: 1;"><text class="legendtext" text-anchor="start" x="40" y="3.9" style="font-family: 'Times New Roman', monospace; font-size: 10px; fill: rgb(105, 105, 105); fill-opacity: 1; white-space: pre;">Co100 Ni0 Fe0 400C 12h</text><g class="layers" style="opacity: 1;"><g class="legendfill"/><g class="legendlines"><path class="js-line" d="M5,0h30" style="fill: none; stroke: rgb(81, 28, 251); stroke-opacity: 1; stroke-width: 2px;"/></g><g class="legendsymbols"><g class="legendpoints"/></g></g><rect class="legendtoggle" x="0" y="-9.5" width="150.84375" height="19" style="fill: rgb(0, 0, 0); fill-opacity: 0;"/></g><g class="traces" transform="translate(0,261.5)" style="opacity: 1;"><text class="legendtext" text-anchor="start" x="40" y="3.9" style="font-family: 'Times New Roman', monospace; font-size: 10px; fill: rgb(105, 105, 105); fill-opacity: 1; white-space: pre;">Co0 Ni25 Fe75 600C 12h</text><g class="layers" style="opacity: 1;"><g class="legendfill"/><g class="legendlines"><path class="js-line" d="M5,0h30" style="fill: none; stroke: rgb(0, 160, 139); stroke-opacity: 1; stroke-width: 2px;"/></g><g class="legendsymbols"><g class="legendpoints"/></g></g><rect class="legendtoggle" x="0" y="-9.5" width="150.84375" height="19" style="fill: rgb(0, 0, 0); fill-opacity: 0;"/></g><g class="traces" transform="translate(0,280.5)" style="opacity: 1;"><text class="legendtext" text-anchor="start" x="40" y="3.9" style="font-family: 'Times New Roman', monospace; font-size: 10px; fill: rgb(105, 105, 105); fill-opacity: 1; white-space: pre;">Co0 Ni100 Fe0 800C 12h 2</text><g class="layers" style="opacity: 1;"><g class="legendfill"/><g class="legendlines"><path class="js-line" d="M5,0h30" style="fill: none; stroke: rgb(251, 0, 209); stroke-opacity: 1; stroke-width: 2px;"/></g><g class="legendsymbols"><g class="legendpoints"/></g></g><rect class="legendtoggle" x="0" y="-9.5" width="150.84375" height="19" style="fill: rgb(0, 0, 0); fill-opacity: 0;"/></g><g class="traces" transform="translate(0,299.5)" style="opacity: 1;"><text class="legendtext" text-anchor="start" x="40" y="3.9" style="font-family: 'Times New Roman', monospace; font-size: 10px; fill: rgb(105, 105, 105); fill-opacity: 1; white-space: pre;">Co75 Ni25 Fe0 300C 24h</text><g class="layers" style="opacity: 1;"><g class="legendfill"/><g class="legendlines"><path class="js-line" d="M5,0h30" style="fill: none; stroke: rgb(252, 0, 128); stroke-opacity: 1; stroke-width: 2px;"/></g><g class="legendsymbols"><g class="legendpoints"/></g></g><rect class="legendtoggle" x="0" y="-9.5" width="150.84375" height="19" style="fill: rgb(0, 0, 0); fill-opacity: 0;"/></g><g class="traces" transform="translate(0,318.5)" style="opacity: 1;"><text class="legendtext" text-anchor="start" x="40" y="3.9" style="font-family: 'Times New Roman', monospace; font-size: 10px; fill: rgb(105, 105, 105); fill-opacity: 1; white-space: pre;">Co75 Ni25 Fe0 300C 24h</text><g class="layers" style="opacity: 1;"><g class="legendfill"/><g class="legendlines"><path class="js-line" d="M5,0h30" style="fill: none; stroke: rgb(252, 0, 128); stroke-opacity: 1; stroke-width: 2px;"/></g><g class="legendsymbols"><g class="legendpoints"/></g></g><rect class="legendtoggle" x="0" y="-9.5" width="150.84375" height="19" style="fill: rgb(0, 0, 0); fill-opacity: 0;"/></g><g class="traces" transform="translate(0,337.5)" style="opacity: 1;"><text class="legendtext" text-anchor="start" x="40" y="3.9" style="font-family: 'Times New Roman', monospace; font-size: 10px; fill: rgb(105, 105, 105); fill-opacity: 1; white-space: pre;">Co50 Ni25 Fe25 400C 24h</text><g class="layers" style="opacity: 1;"><g class="legendfill"/><g class="legendlines"><path class="js-line" d="M5,0h30" style="fill: none; stroke: rgb(178, 130, 141); stroke-opacity: 1; stroke-width: 2px;"/></g><g class="legendsymbols"><g class="legendpoints"/></g></g><rect class="legendtoggle" x="0" y="-9.5" width="150.84375" height="19" style="fill: rgb(0, 0, 0); fill-opacity: 0;"/></g><g class="traces" transform="translate(0,356.5)" style="opacity: 1;"><text class="legendtext" text-anchor="start" x="40" y="3.9" style="font-family: 'Times New Roman', monospace; font-size: 10px; fill: rgb(105, 105, 105); fill-opacity: 1; white-space: pre;">Co0 Ni75 Fe25 600C 24h</text><g class="layers" style="opacity: 1;"><g class="legendfill"/><g class="legendlines"><path class="js-line" d="M5,0h30" style="fill: none; stroke: rgb(108, 124, 50); stroke-opacity: 1; stroke-width: 2px;"/></g><g class="legendsymbols"><g class="legendpoints"/></g></g><rect class="legendtoggle" x="0" y="-9.5" width="150.84375" height="19" style="fill: rgb(0, 0, 0); fill-opacity: 0;"/></g><g class="traces" transform="translate(0,375.5)" style="opacity: 1;"><text class="legendtext" text-anchor="start" x="40" y="3.9" style="font-family: 'Times New Roman', monospace; font-size: 10px; fill: rgb(105, 105, 105); fill-opacity: 1; white-space: pre;">Co75 Ni0 Fe25 800C 24h</text><g class="layers" style="opacity: 1;"><g class="legendfill"/><g class="legendlines"><path class="js-line" d="M5,0h30" style="fill: none; stroke: rgb(167, 119, 241); stroke-opacity: 1; stroke-width: 2px;"/></g><g class="legendsymbols"><g class="legendpoints"/></g></g><rect class="legendtoggle" x="0" y="-9.5" width="150.84375" height="19" style="fill: rgb(0, 0, 0); fill-opacity: 0;"/></g><g class="traces" transform="translate(0,394.5)" style="opacity: 1;"><text class="legendtext" text-anchor="start" x="40" y="3.9" style="font-family: 'Times New Roman', monospace; font-size: 10px; fill: rgb(105, 105, 105); fill-opacity: 1; white-space: pre;">Co75 Ni0 Fe25 800C 24h</text><g class="layers" style="opacity: 1;"><g class="legendfill"/><g class="legendlines"><path class="js-line" d="M5,0h30" style="fill: none; stroke: rgb(167, 119, 241); stroke-opacity: 1; stroke-width: 2px;"/></g><g class="legendsymbols"><g class="legendpoints"/></g></g><rect class="legendtoggle" x="0" y="-9.5" width="150.84375" height="19" style="fill: rgb(0, 0, 0); fill-opacity: 0;"/></g></g></g><rect class="scrollbar" rx="20" ry="3" width="0" height="0" x="0" y="0" style="fill: rgb(128, 139, 164); fill-opacity: 1;"/></g><g class="g-gtitle"/><g class="g-xtitle" transform="translate(0,-5.009374999999977)"><text class="xtitle" x="326.5" y="500.009375" text-anchor="middle" style="font-family: 'Times New Roman', monospace; font-size: 22px; fill: rgb(105, 105, 105); opacity: 1; font-weight: normal; white-space: pre;">Time (min)</text></g><g class="g-ytitle" transform="translate(23.259765625,0)"><text class="ytitle" transform="rotate(-90,-0.009374999999998579,223.5)" x="-0.009374999999998579" y="223.5" text-anchor="middle" style="font-family: 'Times New Roman', monospace; font-size: 22px; fill: rgb(105, 105, 105); opacity: 1; font-weight: normal; white-space: pre;">Current (mA/cm<tspan style="font-size:70%" dy="-0.6em">2</tspan><tspan dy="0.42em"></tspan>)</text></g></g></svg>