<svg class="main-svg" xmlns="http://www.w3.org/2000/svg" xmlns:xlink="http://www.w3.org/1999/xlink" width="750" height="500" style="" viewBox="0 0 750 500"><rect x="0" y="0" width="750" height="500" style="fill: rgb(255, 255, 255); fill-opacity: 1;"/><defs id="defs-e65bd1"><g class="clips"><clipPath id="clipe65bd1xyplot" class="plotclip"><rect width="336" height="416"/></clipPath><clipPath class="axesclip" id="clipe65bd1x"><rect x="78" y="0" width="336" height="500"/></clipPath><clipPath class="axesclip" id="clipe65bd1y"><rect x="0" y="12" width="750" height="416"/></clipPath><clipPath class="axesclip" id="clipe65bd1xy"><rect x="78" y="12" width="336" height="416"/></clipPath></g><g class="gradients"/><g class="patterns"/></defs><g class="bglayer"><rect class="bg" x="78" y="12" width="336" height="416" style="fill: rgb(0, 0, 0); fill-opacity: 0; stroke-width: 0;"/></g><g class="layer-below"><g class="imagelayer"/><g class="shapelayer"/></g><g class="cartesianlayer"><g class="subplot xy"><g class="layer-subplot"><g class="shapelayer"/><g class="imagelayer"/></g><g class="minor-gridlayer"><g class="x"/><g class="y"/></g><g class="gridlayer"><g class="x"/><g class="y"/></g><g class="zerolinelayer"><path class="yzl zl crisp" transform="translate(0,415.39)" d="M78,0h336" style="stroke: rgb(128, 128, 128); stroke-opacity: 1; stroke-width: 1px;"/></g><path class="xlines-below"/><path class="ylines-below"/><g class="overlines-below"/><g class="xaxislayer-below"/><g class="yaxislayer-below"/><g class="overaxes-below"/><g class="plot" transform="translate(78,12)" clip-path="url(#clipe65bd1xyplot)"><g class="scatterlayer mlayer"><g class="trace scatter trace2be801" style="stroke-miterlimit: 2; opacity: 1;"><g class="fills"/><g class="errorbars"/><g class="lines"><path class="js-line" d="M-133.88,403.61L-9.6,403.35L-9.23,403.35L98.8,402.6L99.24,402.59L150.94,400.79L151.41,400.76L172.86,398.13L173.12,398.05L183.96,395.89L184.39,395.8L202.97,390.65L203.36,390.51L220.86,384.06L221.17,383.89L229.28,380.32L229.74,380.13L253.56,367.84L253.88,367.61L262.3,362.76L262.58,362.53L277.61,353.49L277.98,353.23L295.36,342.67L295.8,342.45L299.75,340L297.67,342.02L297.3,342.37L283.6,353.28L283.15,353.55L276.69,358.1L276.14,358.35L273.94,359.85L273.48,360.09L265.68,364.9L265.24,365.12L244.42,376.09L243.95,376.28L239.99,378.15L239.56,378.32L222.7,385.18L222.3,385.34L199.72,392.46L199.29,392.57L170.01,398.6L169.57,398.67L147.68,401.28L147.2,401.32L129.97,402.61L129.57,402.63L100.83,403.76L100.41,403.77L43.61,404.15L43.11,404.15L-134.18,403.61" style="vector-effect: non-scaling-stroke; fill: none; stroke: rgb(46, 145, 229); stroke-opacity: 1; stroke-width: 2px; opacity: 1;"/></g><g class="points"/><g class="text"/></g><g class="trace scatter trace3192c9" style="stroke-miterlimit: 2; opacity: 1;"><g class="fills"/><g class="errorbars"/><g class="lines"><path class="js-line" d="M-133.78,403.65L87.01,402.9L87.42,402.89L127.58,402.14L128.12,402.12L156.06,400.8L156.51,400.76L172.02,399.04L172.44,398.98L186.81,396.29L187.26,396.19L208.19,390.02L208.61,389.86L219.43,385.45L219.82,385.27L235.08,377.72L235.48,377.48L244.96,372.04L245.33,371.79L253.03,366.99L253.42,366.72L259.5,362.74L259.89,362.47L267.89,356.97L268.27,356.69L297.95,336.46L298.36,336.25L301.82,334.05L301.27,334.87L300.93,335.35L293.79,343.07L293.33,343.43L279.34,355.18L278.87,355.45L270.19,361.68L269.65,361.93L254.35,371.25L253.86,371.47L234.13,381.29L233.71,381.47L203.22,392.39L202.81,392.51L184.19,396.84L183.71,396.92L174.28,398.58L173.83,398.65L142.56,401.99L142.15,402.02L116.68,403.29L116.19,403.3L92.11,403.86L91.66,403.87L49.61,404.1L49.25,404.1L-133.98,403.66" style="vector-effect: non-scaling-stroke; fill: none; stroke: rgb(46, 145, 229); stroke-opacity: 1; stroke-width: 2px; opacity: 1;"/></g><g class="points"/><g class="text"/></g><g class="trace scatter trace24bb2b" style="stroke-miterlimit: 2; opacity: 1;"><g class="fills"/><g class="errorbars"/><g class="lines"><path class="js-line" d="M-137.3,403.41L-12.83,403.39L-12.34,403.39L176.28,402.64L176.78,402.62L208.1,400.13L208.4,400.07L235.31,395.52L235.57,395.42L258.43,388.69L258.84,388.54L299.29,371.41L299.57,371.2L306.01,368.07L303.95,369.73L303.47,370.04L297.68,374.06L297.39,374.31L290.57,378.07L290.24,378.28L263.48,388.86L262.72,388.99L261.22,389.52L260.79,389.65L256.72,390.91L255.88,391.03L234.11,396.2L233.56,396.28L230.61,396.84L229.96,396.92L222.58,398.21L221.9,398.27L194,401.35L193.61,401.38L183.49,402.07L182.85,402.09L166.8,402.82L166.19,402.83L149.8,403.19L149.32,403.2L-137.71,403.4" style="vector-effect: non-scaling-stroke; fill: none; stroke: rgb(225, 95, 153); stroke-opacity: 1; stroke-width: 2px; opacity: 1;"/></g><g class="points"/><g class="text"/></g><g class="trace scatter trace0cb3ba" style="stroke-miterlimit: 2; opacity: 1;"><g class="fills"/><g class="errorbars"/><g class="lines"><path class="js-line" d="M-137.57,403.4L235.3,402.66L235.86,402.64L270.89,400.55L271.52,400.51L309.12,395.58L263.54,401.13L263.05,401.16L220.55,402.92L220.28,402.93L-137.95,403.41" style="vector-effect: non-scaling-stroke; fill: none; stroke: rgb(251, 13, 13); stroke-opacity: 1; stroke-width: 2px; opacity: 1;"/></g><g class="points"/><g class="text"/></g><g class="trace scatter trace32a4b0" style="stroke-miterlimit: 2; opacity: 1;"><g class="fills"/><g class="errorbars"/><g class="lines"><path class="js-line" d="M-136.04,403.88L-10.3,403.44L-9.71,403.44L197.05,402.69L197.41,402.68L238.16,401.93L238.61,401.92L311,399.85L268.14,401.61L267.62,401.63L166.02,403.16L165.58,403.16L-136.42,403.7" style="vector-effect: non-scaling-stroke; fill: none; stroke: rgb(218, 22, 255); stroke-opacity: 1; stroke-width: 2px; opacity: 1;"/></g><g class="points"/><g class="text"/></g><g class="trace scatter trace042156" style="stroke-miterlimit: 2; opacity: 1;"><g class="fills"/><g class="errorbars"/><g class="lines"><path class="js-line" d="M-136.03,404.38L-29.95,403.53L-29.48,403.53L162.66,402.78L163.13,402.77L236.4,400.39L236.83,400.36L282.11,397.36L282.61,397.32L310.41,395.31L300.61,396.48L300.2,396.53L284.78,397.98L284.3,398.01L251.01,400.23L250.31,400.26L227.36,401.35L226.93,401.37L184.86,402.63L184.37,402.64L123.09,403.32L122.69,403.32L-136.22,403.97" style="vector-effect: non-scaling-stroke; fill: none; stroke: rgb(218, 22, 255); stroke-opacity: 1; stroke-width: 2px; opacity: 1;"/></g><g class="points"/><g class="text"/></g><g class="trace scatter tracec15478" style="stroke-miterlimit: 2; opacity: 1;"><g class="fills"/><g class="errorbars"/><g class="lines"><path class="js-line" d="M-133.76,403.4L195.14,402.65L195.57,402.63L214.99,401.03L215.44,400.97L229.04,398.64L229.47,398.55L240.97,395.49L241.38,395.36L255.21,390.08L255.63,389.89L268.32,383.35L268.73,383.11L279.13,376.46L279.55,376.18L294.19,364.81L294.57,364.47L305.02,354.86L299.96,360.35L299.62,360.74L288.17,371.75L287.81,372.08L275.58,381.19L275.19,381.46L260.94,389.17L260.52,389.36L246.54,394.56L246.13,394.69L231.1,398.36L230.69,398.44L212.8,401.03L212.38,401.08L193.65,402.47L193.2,402.5L159.19,403.3L158.66,403.3L-133.92,403.41" style="vector-effect: non-scaling-stroke; fill: none; stroke: rgb(34, 42, 42); stroke-opacity: 1; stroke-width: 2px; opacity: 1;"/></g><g class="points"/><g class="text"/></g><g class="trace scatter trace645fc2" style="stroke-miterlimit: 2; opacity: 1;"><g class="fills"/><g class="errorbars"/><g class="lines"><path class="js-line" d="M-133.79,403.39L195.15,402.64L195.56,402.61L215,401.02L215.4,400.96L228.61,398.76L229.01,398.67L243.47,394.76L243.88,394.63L256.01,389.94L256.37,389.76L272.3,381.46L272.68,381.22L281.95,375.31L282.29,375.04L294.5,365.62L294.88,365.3L301.83,359.21L302.29,358.85L304.92,356.21L292.38,368.96L291.97,369.31L283.47,376.4L283.07,376.69L270.27,384.92L269.84,385.15L262.88,388.63L262.48,388.81L251.62,393.14L251.18,393.28L227.19,399.1L226.73,399.17L204.83,401.73L204.37,401.76L186.09,402.77L185.63,402.79L114.38,403.38L113.88,403.38L-134.06,403.4" style="vector-effect: non-scaling-stroke; fill: none; stroke: rgb(34, 42, 42); stroke-opacity: 1; stroke-width: 2px; opacity: 1;"/></g><g class="points"/><g class="text"/></g><g class="trace scatter trace625295" style="stroke-miterlimit: 2; opacity: 1;"><g class="fills"/><g class="errorbars"/><g class="lines"><path class="js-line" d="M-133.53,403.4L203.05,402.65L203.8,402.63L244.18,401.03L244.54,401.01L303.89,396.52L304.22,396.42L312.17,395.84L301.65,397.32L301.29,397.37L286.31,398.84L286.06,398.88L255.94,400.75L255.46,400.77L218.68,402.25L218.32,402.26L152.11,403.31L151.67,403.31L119.89,403.38L119.48,403.38L-133.94,403.4L-133.7,403.4" style="vector-effect: non-scaling-stroke; fill: none; stroke: rgb(182, 129, 0); stroke-opacity: 1; stroke-width: 2px; opacity: 1;"/></g><g class="points"/><g class="text"/></g><g class="trace scatter tracef7f73d" style="stroke-miterlimit: 2; opacity: 1;"><g class="fills"/><g class="errorbars"/><g class="lines"><path class="js-line" d="M-133.87,403.41L171.44,402.66L171.83,402.64L195.9,400.95L196.19,400.91L215.23,397.85L215.68,397.76L236.57,391.83L236.83,391.68L259.27,381.63L259.64,381.38L266.81,377.22L267.13,376.95L274.34,372.25L274.7,371.96L278.43,369.34L278.83,369.04L284.57,364.75L284.95,364.42L306.36,347L304.32,349.51L303.96,349.94L302.16,352.06L301.61,352.48L298.57,355.68L298.08,356.07L293.7,360.27L293.52,360.63L288.5,364.84L288.15,365.18L269.25,378.83L268.77,379.07L263.92,382.05L263.48,382.27L241.81,392.1L241.29,392.29L225.28,396.8L224.85,396.9L212.29,399.22L211.7,399.28L202.5,400.45L202.02,400.5L188.26,401.67L187.86,401.7L165.91,402.7L165.46,402.71L135.6,403.24L135.05,403.25L-134.14,403.42" style="vector-effect: non-scaling-stroke; fill: none; stroke: rgb(117, 13, 134); stroke-opacity: 1; stroke-width: 2px; opacity: 1;"/></g><g class="points"/><g class="text"/></g><g class="trace scatter tracea473a1" style="stroke-miterlimit: 2; opacity: 1;"><g class="fills"/><g class="errorbars"/><g class="lines"><path class="js-line" d="M-134,403.41L174.07,402.66L174.48,402.64L203.3,400.39L203.76,400.33L222.13,396.97L222.46,396.86L232.61,393.92L233.23,393.77L234.71,393.19L235.35,393.05L235.71,392.75L236.58,392.59L240.58,390.98L240.94,390.81L261.85,379.74L262.23,379.46L277.63,367.43L277.88,367.04L286.8,358.92L287.08,358.52L292.81,352.95L292.95,352.58L294.73,351.03L295.03,350.68L297.51,348.51L297.74,348.01L298.38,347.3L299.04,346.86L303.22,342.95L301.83,344.09L301.88,344.55L298.59,348.23L298.34,348.71L296.81,350.43L296.51,350.93L285.65,362.66L285.45,363.06L283.19,364.79L282.76,365.19L281.97,366.29L281.44,366.66L276.94,370.67L276.44,371.02L273.66,373.2L273.24,373.5L269.27,376.54L268.68,376.82L264.74,379.87L263.95,380.13L259.53,383.16L258.96,383.39L256.64,384.82L256.29,385.04L250.44,388.04L249.92,388.24L245.74,390.13L245.43,390.32L242.88,391.33L242.21,391.49L237.88,393.27L237.38,393.41L221.24,397.76L220.73,397.84L181.64,402.13L180.68,402.15L174.62,402.45L173.7,402.47L116.86,403.36L116.45,403.36L87.59,403.42L86.64,403.42L-134.25,403.43" style="vector-effect: non-scaling-stroke; fill: none; stroke: rgb(117, 13, 134); stroke-opacity: 1; stroke-width: 2px; opacity: 1;"/></g><g class="points"/><g class="text"/></g><g class="trace scatter trace9f7dbb" style="stroke-miterlimit: 2; opacity: 1;"><g class="fills"/><g class="errorbars"/><g class="lines"><path class="js-line" d="M63.15,403.38L185.41,402.63L185.73,402.61L220.22,400.96L220.43,400.92L249.74,398.27L250.35,398.23L291.23,393.33L291.44,393.19L304.83,391.67L305.01,391.58L310.45,390.99L310.94,390.96L304.32,392.42L304.09,392.53L298.02,393.52L297.45,393.63L269.77,397.36L269.17,397.4L220.09,401.26L219.53,401.29L139.75,403.28L138.94,403.29L-134.63,403.5" style="vector-effect: non-scaling-stroke; fill: none; stroke: rgb(235, 102, 59); stroke-opacity: 1; stroke-width: 2px; opacity: 1;"/></g><g class="points"/><g class="text"/></g><g class="trace scatter trace568b03" style="stroke-miterlimit: 2; opacity: 1;"><g class="fills"/><g class="errorbars"/><g class="lines"><path class="js-line" d="M-133.6,404.55L-24.62,402.88L-23.92,402.86L17.03,401.27L17.3,401.25L22.04,401.03L22.4,401.01L41.68,400.13L41.61,400.11L42.62,400.09L97.18,397.79L97.72,397.76L112.93,396.48L113.15,396.43L121.78,395.51L122.6,395.46L124.61,395.15L125.29,395.1L157.99,390.74L158.56,390.63L161.6,389.83L161.98,389.7L172.09,386.23L172.65,386.06L174.62,384.99L175.79,384.8L175.59,384.43L176.71,384.24L176.54,384.06L177.12,383.86L177.78,383.67L182.12,381.49L182.35,381.28L186.68,379.37L186.72,379.16L188.45,378.06L189.28,377.84L206.85,367.53L207.07,367.25L210.87,364.85L211.35,364.58L238.22,344.08L238.24,343.74L241.2,341.3L241.57,340.96L244.09,338.91L244.38,338.58L245.62,337.37L246.07,337.05L248.69,334.56L249.24,334.2L276.44,308.21L276.34,307.82L278.51,306.28L278.56,305.89L281.24,303.54L281.05,303.15L283.5,301.68L283.32,301.32L285.09,299.82L285.38,299.46L295.4,290.26L295.43,289.94L297.77,288.28L297.55,288.4L297.55,288.99L294.32,292.46L294.48,292.88L290.36,297.32L290.2,297.77L287.68,300.43L287.43,300.9L285.41,303.1L285.22,303.51L282.7,306.09L282.51,306.5L280.53,308.54L279.93,308.92L279.18,309.71L278.74,310.11L276.17,312.96L275.61,313.39L273.82,315.47L273.36,315.76L268.31,320.81L267.97,321.2L264.7,324.3L264.31,324.66L260.78,327.94L260.62,328.32L257.16,331.19L256.81,331.53L232.1,352L231.31,352.31L221.82,359.63L220.56,359.92L220.79,360.2L219.71,360.49L218.93,361.32L218.18,361.6L212.24,365.73L212.3,365.99L210.2,367.05L210.32,367.32L206.55,369.4L206.48,369.66L174.82,386.72L173.79,386.92L173.9,387.11L173.23,387.31L172.95,387.49L162.88,391.83L162.27,392L145.32,398.11L144.74,398.25L133.1,401.44L132.58,401.54L102.86,406.41L102.09,406.45L102.42,406.49L99.16,406.77L98.69,406.81L61.66,408.08L61.14,408.08L30.75,407.34L30.39,407.32L0.32,406.28L-0.12,406.27L-35.74,405.35L-36.73,405.34L-133.48,404.53" style="vector-effect: non-scaling-stroke; fill: none; stroke: rgb(81, 28, 251); stroke-opacity: 1; stroke-width: 2px; opacity: 1;"/></g><g class="points"/><g class="text"/></g><g class="trace scatter tracec1ecd4" style="stroke-miterlimit: 2; opacity: 1;"><g class="fills"/><g class="errorbars"/><g class="lines"><path class="js-line" d="M-137.42,403.39L254.43,402.65L254.69,402.63L296.96,400.26L297.28,400.23L309.98,399.02L275.11,401.86L274.19,401.88L261.18,402.42L260.49,402.43L242.34,402.89L242.01,402.9L-137.57,403.4L-137.44,403.4" style="vector-effect: non-scaling-stroke; fill: none; stroke: rgb(0, 160, 139); stroke-opacity: 1; stroke-width: 2px; opacity: 1;"/></g><g class="points"/><g class="text"/></g><g class="trace scatter trace7fd9d8" style="stroke-miterlimit: 2; opacity: 1;"><g class="fills"/><g class="errorbars"/><g class="lines"><path class="js-line" d="M-136.16,403.44L-13.46,403.4L-12.6,403.4L178.05,402.66L178.51,402.64L200.87,401.52L201.05,401.5L220.44,400.02L220.96,399.98L249.4,396.5L249.94,396.42L269.88,392.85L270.26,392.75L277.53,391.43L277.99,391.27L285.86,389.86L286.46,389.8L310.47,385.38L308.45,386.33L308.1,386.56L295.88,390.07L295.36,390.15L288.4,391.7L288.02,391.72L277.84,393.53L277.24,393.62L225.49,399.94L224.94,399.98L204.68,401.37L203.95,401.4L169.75,402.84L169.3,402.85L149.19,403.2L148.59,403.21L-136.59,403.43L-136.35,403.34" style="vector-effect: non-scaling-stroke; fill: none; stroke: rgb(251, 0, 209); stroke-opacity: 1; stroke-width: 2px; opacity: 1;"/></g><g class="points"/><g class="text"/></g><g class="trace scatter trace590fd7" style="stroke-miterlimit: 2; opacity: 1;"><g class="fills"/><g class="errorbars"/><g class="lines"><path class="js-line" d="M-136.14,403.45L167.05,402.7L167.45,402.69L209.3,400.98L209.56,400.96L237.57,398.64L237.86,398.6L253.39,396.9L253.64,396.86L258.71,396.21L259.05,396.16L272.28,394.47L272.74,394.41L278.36,393.64L278.88,393.61L286.24,392.59L286.7,392.54L295.31,391.31L295.7,391.26L308.29,389.5L279.1,393.95L278.67,394.01L269.14,395.23L268.73,395.28L229.3,399.35L228.81,399.39L193.5,401.68L193,401.7L176.83,402.38L176.28,402.39L125.38,403.32L124.91,403.32L-136.45,403.45" style="vector-effect: non-scaling-stroke; fill: none; stroke: rgb(252, 0, 128); stroke-opacity: 1; stroke-width: 2px; opacity: 1;"/></g><g class="points"/><g class="text"/></g><g class="trace scatter trace5af714" style="stroke-miterlimit: 2; opacity: 1;"><g class="fills"/><g class="errorbars"/><g class="lines"><path class="js-line" d="M-136.32,403.42L191.16,402.67L191.72,402.66L256.49,400.18L256.87,400.16L288.93,398.11L289.5,398.08L310.63,396.66L281.72,398.87L281.66,398.9L249.67,400.69L249.26,400.71L180.02,402.84L179.6,402.84L90.52,403.43L90,403.43L-136.49,403.41L-136.07,403.42" style="vector-effect: non-scaling-stroke; fill: none; stroke: rgb(252, 0, 128); stroke-opacity: 1; stroke-width: 2px; opacity: 1;"/></g><g class="points"/><g class="text"/></g><g class="trace scatter traceedc9df" style="stroke-miterlimit: 2; opacity: 1;"><g class="fills"/><g class="errorbars"/><g class="lines"><path class="js-line" d="M-137.49,403.46L117.28,402.71L117.77,402.7L137.8,401.97L138.26,401.94L152.18,399.63L152.63,399.51L161.31,396.36L161.72,396.17L168.23,392.63L168.59,392.38L173.63,388.71L174.01,388.39L182.46,380.25L182.85,379.85L186.16,376.1L186.49,375.58L202.77,350.57L202.99,349.97L206.84,342.65L207.14,342.03L211.46,333.06L211.82,332.38L216.05,322.89L216.36,322.16L236.48,267.24L236.59,266.41L244.35,241.78L244.6,240.95L250.9,219.67L251.14,218.9L252.15,215.55L252.48,214.7L254.88,205.52L255.15,204.64L256.48,200.26L256.79,199.31L259.09,191.26L259.17,190.33L261.97,179.87L262.15,179.27L262.35,179.29L262.22,179.74L261.86,180.79L259.4,190.52L259.29,191.58L255.91,205.34L255.58,206.26L252.32,219.38L252.02,220.3L249.47,229.57L249.32,230.46L229.5,292.79L229.08,293.55L224.62,305.63L224.25,306.13L216.82,323.99L216.53,324.64L211.05,336.52L210.66,337.17L209.17,340.28L208.85,340.89L200.47,356L200.12,356.53L190.92,369.9L190.55,370.35L177.46,384.3L176.99,384.62L165.63,392.66L165.14,392.88L157.5,396.54L156.98,396.7L149.96,399.06L149.55,399.18L138.81,401.41L138.4,401.47L120.7,403.04L120.13,403.06L96.07,403.55L95.66,403.56L-137.78,403.48" style="vector-effect: non-scaling-stroke; fill: none; stroke: rgb(178, 130, 141); stroke-opacity: 1; stroke-width: 2px; opacity: 1;"/></g><g class="points"/><g class="text"/></g><g class="trace scatter trace145bf8" style="stroke-miterlimit: 2; opacity: 1;"><g class="fills"/><g class="errorbars"/><g class="lines"><path class="js-line" d="M-133.46,403.4L216.27,402.65L216.6,402.63L235.25,401.6L235.7,401.55L239.92,401.08L240.71,401.03L249.3,399.88L249.73,399.81L257.16,398.55L257.1,398.46L257.63,398.37L264.3,396.85L264.54,396.74L277.27,392.71L277.42,392.55L281.14,391.08L281.88,390.91L284.75,389.69L284.94,389.51L289.64,387.64L289.93,387.44L291.08,386.86L291.69,386.67L292.65,386.07L293.58,385.87L294.06,385.26L294.97,385.05L297.1,383.74L297.5,383.4L297.96,382.98L298.46,382.77L309.69,376.75L306.45,379.05L306.34,379.34L296.25,385.93L295.99,386.17L275.33,394.81L274.78,394.94L269.42,396.41L268.8,396.52L268.17,396.84L267.36,396.94L242.59,400.95L242.27,400.99L230.48,401.97L229.89,401.99L195.38,403.13L194.96,403.14L-133.99,403.4L-133.7,403.41" style="vector-effect: non-scaling-stroke; fill: none; stroke: rgb(108, 124, 50); stroke-opacity: 1; stroke-width: 2px; opacity: 1;"/></g><g class="points"/><g class="text"/></g><g class="trace scatter trace231366" style="stroke-miterlimit: 2; opacity: 1;"><g class="fills"/><g class="errorbars"/><g class="lines"><path class="js-line" d="M-133.82,403.4L148.53,402.66L149.11,402.64L167.45,401.13L167.95,401.05L180.68,398.71L181.01,398.6L203.98,390.09L204.16,389.89L217.76,381.57L218.02,381.3L222.67,378.09L222.77,377.81L226.33,375.07L226.71,374.76L237.05,364.61L237.29,364.26L240.19,361.31L240.33,360.93L244.2,357.18L244.46,356.82L247.9,352.9L248.33,352.51L255.56,342.37L255.8,341.88L258,339.21L258.35,338.76L261.49,334.6L261.59,334.12L266.82,327.6L266.99,327.17L268.22,325.37L268.77,324.93L269.99,322.4L270.09,321.85L273.55,315.75L273.92,315.19L275.69,311.97L275.96,311.42L278.3,307.87L278.79,307.31L286.91,294.78L285.96,294.84L286.39,295.03L285.99,295.47L285.94,296.03L284.15,298.76L284,299.35L262.29,335.76L261.73,336.21L259.82,338.97L259.5,339.42L240.48,363.17L239.91,363.56L237.03,366.9L236.44,367.26L224.78,377.79L224.18,378.09L222.23,379.81L221.7,380.09L213.47,385.7L212.8,385.92L210.23,387.47L209.75,387.69L195.58,394.12L195.14,394.27L177.11,399.18L176.63,399.26L167.34,400.81L166.6,400.87L154.78,402.14L154.03,402.17L137.78,403.04L137.45,403.05L96.22,403.5L95.61,403.5L-134.29,403.41L-134.13,403.42" style="vector-effect: non-scaling-stroke; fill: none; stroke: rgb(167, 119, 241); stroke-opacity: 1; stroke-width: 2px; opacity: 1;"/></g><g class="points"/><g class="text"/></g><g class="trace scatter trace648ad8" style="stroke-miterlimit: 2; opacity: 1;"><g class="fills"/><g class="errorbars"/><g class="lines"><path class="js-line" d="M-133.97,403.41L158.5,402.67L158.93,402.65L178.73,401.49L179.17,401.45L195.77,399.35L196.17,399.28L210.2,396.35L210.57,396.25L222.66,392.62L223,392.48L230.78,389.54L231.14,389.37L247.36,381.36L247.7,381.13L256.26,375.73L256.66,375.47L264.93,369.59L265.32,369.31L285.82,354.27L286.23,354.03L298.44,346.06L297.15,347.56L296.82,347.98L288.11,357.2L287.74,357.52L282.03,362.71L281.6,363.01L276.07,367.48L275.67,367.76L269.33,372.32L269.01,372.58L253.18,382.08L252.82,382.27L234.81,390.16L234.39,390.3L213.49,396.36L213.01,396.45L203.29,398.35L202.8,398.42L187.29,400.54L186.86,400.59L153.24,402.78L152.8,402.79L120.74,403.38L120.26,403.39L-134.35,403.42" style="vector-effect: non-scaling-stroke; fill: none; stroke: rgb(167, 119, 241); stroke-opacity: 1; stroke-width: 2px; opacity: 1;"/></g><g class="points"/><g class="text"/></g></g></g><g class="overplot"/><path class="xlines-above crisp" d="M76,429H414" style="fill: none; stroke-width: 2px; stroke: rgb(0, 0, 0); stroke-opacity: 1;"/><path class="ylines-above crisp" d="M77,12V428" style="fill: none; stroke-width: 2px; stroke: rgb(0, 0, 0); stroke-opacity: 1;"/><g class="overlines-above"/><g class="xaxislayer-above"><path class="xtick ticks crisp" d="M0,430v5" transform="translate(78,0)" style="stroke: rgb(68, 68, 68); stroke-opacity: 1; stroke-width: 1px;"/><path class="xtick ticks crisp" d="M0,430v5" transform="translate(122.8,0)" style="stroke: rgb(68, 68, 68); stroke-opacity: 1; stroke-width: 1px;"/><path class="xtick ticks crisp" d="M0,430v5" transform="translate(167.6,0)" style="stroke: rgb(68, 68, 68); stroke-opacity: 1; stroke-width: 1px;"/><path class="xtick ticks crisp" d="M0,430v5" transform="translate(212.4,0)" style="stroke: rgb(68, 68, 68); stroke-opacity: 1; stroke-width: 1px;"/><path class="xtick ticks crisp" d="M0,430v5" transform="translate(257.2,0)" style="stroke: rgb(68, 68, 68); stroke-opacity: 1; stroke-width: 1px;"/><path class="xtick ticks crisp" d="M0,430v5" transform="translate(302,0)" style="stroke: rgb(68, 68, 68); stroke-opacity: 1; stroke-width: 1px;"/><path class="xtick ticks crisp" d="M0,430v5" transform="translate(346.8,0)" style="stroke: rgb(68, 68, 68); stroke-opacity: 1; stroke-width: 1px;"/><path class="xtick ticks crisp" d="M0,430v5" transform="translate(391.6,0)" style="stroke: rgb(68, 68, 68); stroke-opacity: 1; stroke-width: 1px;"/><g class="xtick"><text text-anchor="middle" x="0" y="461.4" transform="translate(78,0)" style="font-family: 'Times New Roman', monospace; font-size: 22px; fill: rgb(105, 105, 105); fill-opacity: 1; white-space: pre; opacity: 1;">0</text></g><g class="xtick"><text text-anchor="middle" x="0" y="461.4" style="font-family: 'Times New Roman', monospace; font-size: 22px; fill: rgb(105, 105, 105); fill-opacity: 1; white-space: pre; opacity: 1;" transform="translate(122.8,0)">0.1</text></g><g class="xtick"><text text-anchor="middle" x="0" y="461.4" style="font-family: 'Times New Roman', monospace; font-size: 22px; fill: rgb(105, 105, 105); fill-opacity: 1; white-space: pre; opacity: 1;" transform="translate(167.6,0)">0.2</text></g><g class="xtick"><text text-anchor="middle" x="0" y="461.4" style="font-family: 'Times New Roman', monospace; font-size: 22px; fill: rgb(105, 105, 105); fill-opacity: 1; white-space: pre; opacity: 1;" transform="translate(212.4,0)">0.3</text></g><g class="xtick"><text text-anchor="middle" x="0" y="461.4" style="font-family: 'Times New Roman', monospace; font-size: 22px; fill: rgb(105, 105, 105); fill-opacity: 1; white-space: pre; opacity: 1;" transform="translate(257.2,0)">0.4</text></g><g class="xtick"><text text-anchor="middle" x="0" y="461.4" style="font-family: 'Times New Roman', monospace; font-size: 22px; fill: rgb(105, 105, 105); fill-opacity: 1; white-space: pre; opacity: 1;" transform="translate(302,0)">0.5</text></g><g class="xtick"><text text-anchor="middle" x="0" y="461.4" style="font-family: 'Times New Roman', monospace; font-size: 22px; fill: rgb(105, 105, 105); fill-opacity: 1; white-space: pre; opacity: 1;" transform="translate(346.8,0)">0.6</text></g><g class="xtick"><text text-anchor="middle" x="0" y="461.4" style="font-family: 'Times New Roman', monospace; font-size: 22px; fill: rgb(105, 105, 105); fill-opacity: 1; white-space: pre; opacity: 1;" transform="translate(391.6,0)">0.7</text></g></g><g class="yaxislayer-above"><path class="ytick ticks crisp" d="M76,0h-5" transform="translate(0,415.39)" style="stroke: rgb(68, 68, 68); stroke-opacity: 1; stroke-width: 1px;"/><path class="ytick ticks crisp" d="M76,0h-5" transform="translate(0,364.97)" style="stroke: rgb(68, 68, 68); stroke-opacity: 1; stroke-width: 1px;"/><path class="ytick ticks crisp" d="M76,0h-5" transform="translate(0,314.55)" style="stroke: rgb(68, 68, 68); stroke-opacity: 1; stroke-width: 1px;"/><path class="ytick ticks crisp" d="M76,0h-5" transform="translate(0,264.12)" style="stroke: rgb(68, 68, 68); stroke-opacity: 1; stroke-width: 1px;"/><path class="ytick ticks crisp" d="M76,0h-5" transform="translate(0,213.7)" style="stroke: rgb(68, 68, 68); stroke-opacity: 1; stroke-width: 1px;"/><path class="ytick ticks crisp" d="M76,0h-5" transform="translate(0,163.27)" style="stroke: rgb(68, 68, 68); stroke-opacity: 1; stroke-width: 1px;"/><path class="ytick ticks crisp" d="M76,0h-5" transform="translate(0,112.85)" style="stroke: rgb(68, 68, 68); stroke-opacity: 1; stroke-width: 1px;"/><path class="ytick ticks crisp" d="M76,0h-5" transform="translate(0,62.42)" style="stroke: rgb(68, 68, 68); stroke-opacity: 1; stroke-width: 1px;"/><path class="ytick ticks crisp" d="M76,0h-5" transform="translate(0,12)" style="stroke: rgb(68, 68, 68); stroke-opacity: 1; stroke-width: 1px;"/><g class="ytick"><text text-anchor="end" x="66.6" y="7.699999999999999" transform="translate(0,415.39)" style="font-family: 'Times New Roman', monospace; font-size: 22px; fill: rgb(105, 105, 105); fill-opacity: 1; white-space: pre; opacity: 1;">0</text></g><g class="ytick"><text text-anchor="end" x="66.6" y="7.699999999999999" style="font-family: 'Times New Roman', monospace; font-size: 22px; fill: rgb(105, 105, 105); fill-opacity: 1; white-space: pre; opacity: 1;" transform="translate(0,364.97)">20</text></g><g class="ytick"><text text-anchor="end" x="66.6" y="7.699999999999999" style="font-family: 'Times New Roman', monospace; font-size: 22px; fill: rgb(105, 105, 105); fill-opacity: 1; white-space: pre; opacity: 1;" transform="translate(0,314.55)">40</text></g><g class="ytick"><text text-anchor="end" x="66.6" y="7.699999999999999" style="font-family: 'Times New Roman', monospace; font-size: 22px; fill: rgb(105, 105, 105); fill-opacity: 1; white-space: pre; opacity: 1;" transform="translate(0,264.12)">60</text></g><g class="ytick"><text text-anchor="end" x="66.6" y="7.699999999999999" style="font-family: 'Times New Roman', monospace; font-size: 22px; fill: rgb(105, 105, 105); fill-opacity: 1; white-space: pre; opacity: 1;" transform="translate(0,213.7)">80</text></g><g class="ytick"><text text-anchor="end" x="66.6" y="7.699999999999999" style="font-family: 'Times New Roman', monospace; font-size: 22px; fill: rgb(105, 105, 105); fill-opacity: 1; white-space: pre; opacity: 1;" transform="translate(0,163.27)">100</text></g><g class="ytick"><text text-anchor="end" x="66.6" y="7.699999999999999" style="font-family: 'Times New Roman', monospace; font-size: 22px; fill: rgb(105, 105, 105); fill-opacity: 1; white-space: pre; opacity: 1;" transform="translate(0,112.85)">120</text></g><g class="ytick"><text text-anchor="end" x="66.6" y="7.699999999999999" style="font-family: 'Times New Roman', monospace; font-size: 22px; fill: rgb(105, 105, 105); fill-opacity: 1; white-space: pre; opacity: 1;" transform="translate(0,62.42)">140</text></g><g class="ytick"><text text-anchor="end" x="66.6" y="7.699999999999999" style="font-family: 'Times New Roman', monospace; font-size: 22px; fill: rgb(105, 105, 105); fill-opacity: 1; white-space: pre; opacity: 0;" transform="translate(0,12)">160</text></g></g><g class="overaxes-above"/></g></g><g class="polarlayer"/><g class="smithlayer"/><g class="ternarylayer"/><g class="geolayer"/><g class="funnelarealayer"/><g class="pielayer"/><g class="iciclelayer"/><g class="treemaplayer"/><g class="sunburstlayer"/><g class="glimages"/><defs id="topdefs-e65bd1"><g class="clips"/><clipPath id="legende65bd1"><rect width="285" height="416" x="0" y="0"/></clipPath></defs><g class="layer-above"><g class="imagelayer"/><g class="shapelayer"/></g><g class="infolayer"><g class="legend" pointer-events="all" transform="translate(465,12)"><rect class="bg" shape-rendering="crispEdges" width="285" height="416" x="0" y="0" style="stroke: rgb(68, 68, 68); stroke-opacity: 1; fill: rgb(255, 255, 255); fill-opacity: 1; stroke-width: 0px;"/><g class="scrollbox" transform="" clip-path="url(#legende65bd1)"><g class="groups"><g class="traces" transform="translate(0,20.8)" style="opacity: 1;"><text class="legendtext" text-anchor="start" x="40" y="8.58" style="font-family: 'Times New Roman', monospace; font-size: 22px; fill: rgb(105, 105, 105); fill-opacity: 1; white-space: pre;">Co50 Ni0 Fe50 300C 2h_</text><g class="layers" style="opacity: 1;"><g class="legendfill"/><g class="legendlines"><path class="js-line" d="M5,0h30" style="fill: none; stroke: rgb(46, 145, 229); stroke-opacity: 1; stroke-width: 2px;"/></g><g class="legendsymbols"><g class="legendpoints"/></g></g><rect class="legendtoggle" x="0" y="-15.8" width="279.359375" height="31.6" style="fill: rgb(0, 0, 0); fill-opacity: 0;"/></g><g class="traces" transform="translate(0,52.400000000000006)" style="opacity: 1;"><text class="legendtext" text-anchor="start" x="40" y="8.58" style="font-family: 'Times New Roman', monospace; font-size: 22px; fill: rgb(105, 105, 105); fill-opacity: 1; white-space: pre;">Co50 Ni0 Fe50 300C 2h</text><g class="layers" style="opacity: 1;"><g class="legendfill"/><g class="legendlines"><path class="js-line" d="M5,0h30" style="fill: none; stroke: rgb(46, 145, 229); stroke-opacity: 1; stroke-width: 2px;"/></g><g class="legendsymbols"><g class="legendpoints"/></g></g><rect class="legendtoggle" x="0" y="-15.8" width="279.359375" height="31.6" style="fill: rgb(0, 0, 0); fill-opacity: 0;"/></g><g class="traces" transform="translate(0,84)" style="opacity: 1;"><text class="legendtext" text-anchor="start" x="40" y="8.58" style="font-family: 'Times New Roman', monospace; font-size: 22px; fill: rgb(105, 105, 105); fill-opacity: 1; white-space: pre;">Co0 Ni50 Fe50 400C 2h</text><g class="layers" style="opacity: 1;"><g class="legendfill"/><g class="legendlines"><path class="js-line" d="M5,0h30" style="fill: none; stroke: rgb(225, 95, 153); stroke-opacity: 1; stroke-width: 2px;"/></g><g class="legendsymbols"><g class="legendpoints"/></g></g><rect class="legendtoggle" x="0" y="-15.8" width="279.359375" height="31.6" style="fill: rgb(0, 0, 0); fill-opacity: 0;"/></g><g class="traces" transform="translate(0,115.60000000000001)" style="opacity: 1;"><text class="legendtext" text-anchor="start" x="40" y="8.58" style="font-family: 'Times New Roman', monospace; font-size: 22px; fill: rgb(105, 105, 105); fill-opacity: 1; white-space: pre;">Co33 Ni33 Fe33 800C 2h</text><g class="layers" style="opacity: 1;"><g class="legendfill"/><g class="legendlines"><path class="js-line" d="M5,0h30" style="fill: none; stroke: rgb(251, 13, 13); stroke-opacity: 1; stroke-width: 2px;"/></g><g class="legendsymbols"><g class="legendpoints"/></g></g><rect class="legendtoggle" x="0" y="-15.8" width="279.359375" height="31.6" style="fill: rgb(0, 0, 0); fill-opacity: 0;"/></g><g class="traces" transform="translate(0,147.20000000000002)" style="opacity: 1;"><text class="legendtext" text-anchor="start" x="40" y="8.58" style="font-family: 'Times New Roman', monospace; font-size: 22px; fill: rgb(105, 105, 105); fill-opacity: 1; white-space: pre;">Co50 Ni50 Fe0 300C 6h</text><g class="layers" style="opacity: 1;"><g class="legendfill"/><g class="legendlines"><path class="js-line" d="M5,0h30" style="fill: none; stroke: rgb(218, 22, 255); stroke-opacity: 1; stroke-width: 2px;"/></g><g class="legendsymbols"><g class="legendpoints"/></g></g><rect class="legendtoggle" x="0" y="-15.8" width="279.359375" height="31.6" style="fill: rgb(0, 0, 0); fill-opacity: 0;"/></g><g class="traces" transform="translate(0,178.8)" style="opacity: 1;"><text class="legendtext" text-anchor="start" x="40" y="8.58" style="font-family: 'Times New Roman', monospace; font-size: 22px; fill: rgb(105, 105, 105); fill-opacity: 1; white-space: pre;">Co50 Ni50 Fe0 300C 6h</text><g class="layers" style="opacity: 1;"><g class="legendfill"/><g class="legendlines"><path class="js-line" d="M5,0h30" style="fill: none; stroke: rgb(218, 22, 255); stroke-opacity: 1; stroke-width: 2px;"/></g><g class="legendsymbols"><g class="legendpoints"/></g></g><rect class="legendtoggle" x="0" y="-15.8" width="279.359375" height="31.6" style="fill: rgb(0, 0, 0); fill-opacity: 0;"/></g><g class="traces" transform="translate(0,210.4)" style="opacity: 1;"><text class="legendtext" text-anchor="start" x="40" y="8.58" style="font-family: 'Times New Roman', monospace; font-size: 22px; fill: rgb(105, 105, 105); fill-opacity: 1; white-space: pre;">Co0 Ni0 Fe100 400C 6h</text><g class="layers" style="opacity: 1;"><g class="legendfill"/><g class="legendlines"><path class="js-line" d="M5,0h30" style="fill: none; stroke: rgb(34, 42, 42); stroke-opacity: 1; stroke-width: 2px;"/></g><g class="legendsymbols"><g class="legendpoints"/></g></g><rect class="legendtoggle" x="0" y="-15.8" width="279.359375" height="31.6" style="fill: rgb(0, 0, 0); fill-opacity: 0;"/></g><g class="traces" transform="translate(0,242)" style="opacity: 1;"><text class="legendtext" text-anchor="start" x="40" y="8.58" style="font-family: 'Times New Roman', monospace; font-size: 22px; fill: rgb(105, 105, 105); fill-opacity: 1; white-space: pre;">Co0 Ni0 Fe100 400C 6h</text><g class="layers" style="opacity: 1;"><g class="legendfill"/><g class="legendlines"><path class="js-line" d="M5,0h30" style="fill: none; stroke: rgb(34, 42, 42); stroke-opacity: 1; stroke-width: 2px;"/></g><g class="legendsymbols"><g class="legendpoints"/></g></g><rect class="legendtoggle" x="0" y="-15.8" width="279.359375" height="31.6" style="fill: rgb(0, 0, 0); fill-opacity: 0;"/></g><g class="traces" transform="translate(0,273.59999999999997)" style="opacity: 1;"><text class="legendtext" text-anchor="start" x="40" y="8.58" style="font-family: 'Times New Roman', monospace; font-size: 22px; fill: rgb(105, 105, 105); fill-opacity: 1; white-space: pre;">Co25 Ni75 Fe0 600C 6h</text><g class="layers" style="opacity: 1;"><g class="legendfill"/><g class="legendlines"><path class="js-line" d="M5,0h30" style="fill: none; stroke: rgb(182, 129, 0); stroke-opacity: 1; stroke-width: 2px;"/></g><g class="legendsymbols"><g class="legendpoints"/></g></g><rect class="legendtoggle" x="0" y="-15.8" width="279.359375" height="31.6" style="fill: rgb(0, 0, 0); fill-opacity: 0;"/></g><g class="traces" transform="translate(0,305.2)" style="opacity: 1;"><text class="legendtext" text-anchor="start" x="40" y="8.58" style="font-family: 'Times New Roman', monospace; font-size: 22px; fill: rgb(105, 105, 105); fill-opacity: 1; white-space: pre;">Co25 Ni0 Fe75 800C 6h</text><g class="layers" style="opacity: 1;"><g class="legendfill"/><g class="legendlines"><path class="js-line" d="M5,0h30" style="fill: none; stroke: rgb(117, 13, 134); stroke-opacity: 1; stroke-width: 2px;"/></g><g class="legendsymbols"><g class="legendpoints"/></g></g><rect class="legendtoggle" x="0" y="-15.8" width="279.359375" height="31.6" style="fill: rgb(0, 0, 0); fill-opacity: 0;"/></g><g class="traces" transform="translate(0,336.8)" style="opacity: 1;"><text class="legendtext" text-anchor="start" x="40" y="8.58" style="font-family: 'Times New Roman', monospace; font-size: 22px; fill: rgb(105, 105, 105); fill-opacity: 1; white-space: pre;">Co25 Ni0 Fe75 800C 6h</text><g class="layers" style="opacity: 1;"><g class="legendfill"/><g class="legendlines"><path class="js-line" d="M5,0h30" style="fill: none; stroke: rgb(117, 13, 134); stroke-opacity: 1; stroke-width: 2px;"/></g><g class="legendsymbols"><g class="legendpoints"/></g></g><rect class="legendtoggle" x="0" y="-15.8" width="279.359375" height="31.6" style="fill: rgb(0, 0, 0); fill-opacity: 0;"/></g><g class="traces" transform="translate(0,368.40000000000003)" style="opacity: 1;"><text class="legendtext" text-anchor="start" x="40" y="8.58" style="font-family: 'Times New Roman', monospace; font-size: 22px; fill: rgb(105, 105, 105); fill-opacity: 1; white-space: pre;">Co25 Ni50 Fe25 300C 12h</text><g class="layers" style="opacity: 1;"><g class="legendfill"/><g class="legendlines"><path class="js-line" d="M5,0h30" style="fill: none; stroke: rgb(235, 102, 59); stroke-opacity: 1; stroke-width: 2px;"/></g><g class="legendsymbols"><g class="legendpoints"/></g></g><rect class="legendtoggle" x="0" y="-15.8" width="279.359375" height="31.6" style="fill: rgb(0, 0, 0); fill-opacity: 0;"/></g><g class="traces" transform="translate(0,400.00000000000006)" style="opacity: 1;"><text class="legendtext" text-anchor="start" x="40" y="8.58" style="font-family: 'Times New Roman', monospace; font-size: 22px; fill: rgb(105, 105, 105); fill-opacity: 1; white-space: pre;">Co100 Ni0 Fe0 400C 12h</text><g class="layers" style="opacity: 1;"><g class="legendfill"/><g class="legendlines"><path class="js-line" d="M5,0h30" style="fill: none; stroke: rgb(81, 28, 251); stroke-opacity: 1; stroke-width: 2px;"/></g><g class="legendsymbols"><g class="legendpoints"/></g></g><rect class="legendtoggle" x="0" y="-15.8" width="279.359375" height="31.6" style="fill: rgb(0, 0, 0); fill-opacity: 0;"/></g><g class="traces" transform="translate(0,431.6000000000001)" style="opacity: 1;"><text class="legendtext" text-anchor="start" x="40" y="8.58" style="font-family: 'Times New Roman', monospace; font-size: 22px; fill: rgb(105, 105, 105); fill-opacity: 1; white-space: pre;">Co0 Ni25 Fe75 600C 12h</text><g class="layers" style="opacity: 1;"><g class="legendfill"/><g class="legendlines"><path class="js-line" d="M5,0h30" style="fill: none; stroke: rgb(0, 160, 139); stroke-opacity: 1; stroke-width: 2px;"/></g><g class="legendsymbols"><g class="legendpoints"/></g></g><rect class="legendtoggle" x="0" y="-15.8" width="279.359375" height="31.6" style="fill: rgb(0, 0, 0); fill-opacity: 0;"/></g><g class="traces" transform="translate(0,463.2000000000001)" style="opacity: 1;"><text class="legendtext" text-anchor="start" x="40" y="8.58" style="font-family: 'Times New Roman', monospace; font-size: 22px; fill: rgb(105, 105, 105); fill-opacity: 1; white-space: pre;">Co0 Ni100 Fe0 800C 12h</text><g class="layers" style="opacity: 1;"><g class="legendfill"/><g class="legendlines"><path class="js-line" d="M5,0h30" style="fill: none; stroke: rgb(251, 0, 209); stroke-opacity: 1; stroke-width: 2px;"/></g><g class="legendsymbols"><g class="legendpoints"/></g></g><rect class="legendtoggle" x="0" y="-15.8" width="279.359375" height="31.6" style="fill: rgb(0, 0, 0); fill-opacity: 0;"/></g><g class="traces" transform="translate(0,494.8000000000001)" style="opacity: 1;"><text class="legendtext" text-anchor="start" x="40" y="8.58" style="font-family: 'Times New Roman', monospace; font-size: 22px; fill: rgb(105, 105, 105); fill-opacity: 1; white-space: pre;">Co75 Ni25 Fe0 300C 24h</text><g class="layers" style="opacity: 1;"><g class="legendfill"/><g class="legendlines"><path class="js-line" d="M5,0h30" style="fill: none; stroke: rgb(252, 0, 128); stroke-opacity: 1; stroke-width: 2px;"/></g><g class="legendsymbols"><g class="legendpoints"/></g></g><rect class="legendtoggle" x="0" y="-15.8" width="279.359375" height="31.6" style="fill: rgb(0, 0, 0); fill-opacity: 0;"/></g><g class="traces" transform="translate(0,526.4000000000001)" style="opacity: 1;"><text class="legendtext" text-anchor="start" x="40" y="8.58" style="font-family: 'Times New Roman', monospace; font-size: 22px; fill: rgb(105, 105, 105); fill-opacity: 1; white-space: pre;">Co75 Ni25 Fe0 300C 24h</text><g class="layers" style="opacity: 1;"><g class="legendfill"/><g class="legendlines"><path class="js-line" d="M5,0h30" style="fill: none; stroke: rgb(252, 0, 128); stroke-opacity: 1; stroke-width: 2px;"/></g><g class="legendsymbols"><g class="legendpoints"/></g></g><rect class="legendtoggle" x="0" y="-15.8" width="279.359375" height="31.6" style="fill: rgb(0, 0, 0); fill-opacity: 0;"/></g><g class="traces" transform="translate(0,558.0000000000001)" style="opacity: 1;"><text class="legendtext" text-anchor="start" x="40" y="8.58" style="font-family: 'Times New Roman', monospace; font-size: 22px; fill: rgb(105, 105, 105); fill-opacity: 1; white-space: pre;">Co50 Ni25 Fe25 400C 24h</text><g class="layers" style="opacity: 1;"><g class="legendfill"/><g class="legendlines"><path class="js-line" d="M5,0h30" style="fill: none; stroke: rgb(178, 130, 141); stroke-opacity: 1; stroke-width: 2px;"/></g><g class="legendsymbols"><g class="legendpoints"/></g></g><rect class="legendtoggle" x="0" y="-15.8" width="279.359375" height="31.6" style="fill: rgb(0, 0, 0); fill-opacity: 0;"/></g><g class="traces" transform="translate(0,589.6000000000001)" style="opacity: 1;"><text class="legendtext" text-anchor="start" x="40" y="8.58" style="font-family: 'Times New Roman', monospace; font-size: 22px; fill: rgb(105, 105, 105); fill-opacity: 1; white-space: pre;">Co0 Ni75 Fe25 600C 24h</text><g class="layers" style="opacity: 1;"><g class="legendfill"/><g class="legendlines"><path class="js-line" d="M5,0h30" style="fill: none; stroke: rgb(108, 124, 50); stroke-opacity: 1; stroke-width: 2px;"/></g><g class="legendsymbols"><g class="legendpoints"/></g></g><rect class="legendtoggle" x="0" y="-15.8" width="279.359375" height="31.6" style="fill: rgb(0, 0, 0); fill-opacity: 0;"/></g><g class="traces" transform="translate(0,621.2000000000002)" style="opacity: 1;"><text class="legendtext" text-anchor="start" x="40" y="8.58" style="font-family: 'Times New Roman', monospace; font-size: 22px; fill: rgb(105, 105, 105); fill-opacity: 1; white-space: pre;">Co75 Ni0 Fe25 800C 24h</text><g class="layers" style="opacity: 1;"><g class="legendfill"/><g class="legendlines"><path class="js-line" d="M5,0h30" style="fill: none; stroke: rgb(167, 119, 241); stroke-opacity: 1; stroke-width: 2px;"/></g><g class="legendsymbols"><g class="legendpoints"/></g></g><rect class="legendtoggle" x="0" y="-15.8" width="279.359375" height="31.6" style="fill: rgb(0, 0, 0); fill-opacity: 0;"/></g><g class="traces" transform="translate(0,652.8000000000002)" style="opacity: 1;"><text class="legendtext" text-anchor="start" x="40" y="8.58" style="font-family: 'Times New Roman', monospace; font-size: 22px; fill: rgb(105, 105, 105); fill-opacity: 1; white-space: pre;">Co75 Ni0 Fe25 800C 24h</text><g class="layers" style="opacity: 1;"><g class="legendfill"/><g class="legendlines"><path class="js-line" d="M5,0h30" style="fill: none; stroke: rgb(167, 119, 241); stroke-opacity: 1; stroke-width: 2px;"/></g><g class="legendsymbols"><g class="legendpoints"/></g></g><rect class="legendtoggle" x="0" y="-15.8" width="279.359375" height="31.6" style="fill: rgb(0, 0, 0); fill-opacity: 0;"/></g></g></g><rect class="scrollbar" rx="20" ry="3" width="0" height="0" x="0" y="0" style="fill: rgb(128, 139, 164); fill-opacity: 1;"/></g><g class="g-gtitle"/><g class="g-xtitle" transform="translate(0,-9.074999999999989)"><text class="xtitle" x="246" y="499.60625" text-anchor="middle" style="font-family: 'Times New Roman', monospace; font-size: 26px; fill: rgb(105, 105, 105); opacity: 1; font-weight: normal; white-space: pre;">Overpotential, η(V) - iR​<tspan style="font-size:70%" dy="0.3em">u</tspan><tspan dy="-0.21em">​</tspan></text></g><g class="g-ytitle" transform="translate(26.5283203125,0)"><text class="ytitle" transform="rotate(-90,0.39374999999999716,220)" x="0.39374999999999716" y="220" text-anchor="middle" style="font-family: 'Times New Roman', monospace; font-size: 26px; fill: rgb(105, 105, 105); opacity: 1; font-weight: normal; white-space: pre;">Current (mA/cm​<tspan style="font-size:70%" dy="-0.6em">2</tspan><tspan dy="0.42em">​</tspan>)</text></g></g></svg>