<svg class="main-svg" xmlns="http://www.w3.org/2000/svg" xmlns:xlink="http://www.w3.org/1999/xlink" width="500" height="500" style="" viewBox="0 0 500 500"><rect x="0" y="0" width="500" height="500" style="fill: rgb(255, 255, 255); fill-opacity: 1;"/><defs id="defs-67815f"><g class="clips"><clipPath id="clip67815fxyplot" class="plotclip"><rect width="340" height="320"/></clipPath><clipPath class="axesclip" id="clip67815fx"><rect x="80" y="0" width="340" height="500"/></clipPath><clipPath class="axesclip" id="clip67815fy"><rect x="0" y="100" width="500" height="320"/></clipPath><clipPath class="axesclip" id="clip67815fxy"><rect x="80" y="100" width="340" height="320"/></clipPath></g><g class="gradients"/><g class="patterns"/></defs><g class="bglayer"><rect class="bg" x="80" y="100" width="340" height="320" style="fill: rgb(0, 0, 0); fill-opacity: 0; stroke-width: 0;"/></g><g class="layer-below"><g class="imagelayer"/><g class="shapelayer"/></g><g class="cartesianlayer"><g class="subplot xy"><g class="layer-subplot"><g class="shapelayer"/><g class="imagelayer"/></g><g class="minor-gridlayer"><g class="x"/><g class="y"/></g><g class="gridlayer"><g class="x"/><g class="y"/></g><g class="zerolinelayer"><path class="yzl zl crisp" transform="translate(0,410.3)" d="M80,0h340" style="stroke: rgb(128, 128, 128); stroke-opacity: 1; stroke-width: 1px;"/></g><path class="xlines-below"/><path class="ylines-below"/><g class="overlines-below"/><g class="xaxislayer-below"/><g class="yaxislayer-below"/><g class="overaxes-below"/><g class="plot" transform="translate(80,100)" clip-path="url(#clip67815fxyplot)"><g class="scatterlayer mlayer"><g class="trace scatter trace79494b" style="stroke-miterlimit: 2; opacity: 1;"><g class="fills"/><g class="errorbars"/><g class="lines"><path class="js-line" d="M-138.92,310.38L-113.15,310.05L-112.65,310.05L-14.42,310.01L-13.84,310.02L8.59,310.01L9.33,310.02L41.32,310L41.78,310L123.43,309.26L123.99,309.22L136.77,307.36L137.12,307.26L144.89,304.69L145.31,304.52L151.92,300.97L152.21,300.71L157.07,297.18L157.21,296.86L160.16,294.48L160.49,294.12L163.97,290.64L164.16,290.23L166.99,287.19L167.26,286.75L171.04,281.83L171.25,281.33L173.17,278.76L173.56,278.22L176.69,273.28L176.88,272.7L178.42,270.35L178.67,269.75L182.78,262.33L183.1,261.67L184.8,258.37L185.12,257.71L185.69,256.37L186.21,255.68L199.33,223.22L199.51,222.41L202.98,213.06L203.11,212.15L204.52,207.85L204.87,206.98L206.37,202.62L206.71,201.65L207.56,198.85L207.92,197.91L208.66,195.23L209.05,194.31L209.64,191.51L210.05,190.55L211.47,185L211.93,184.11L212.63,181.34L212.85,180.38L213.65,177.58L214.16,176.67L225.7,131.98L225.69,130.92L228.79,119.06L228.77,118.02L230.29,111.35L230.62,110.2L239.18,69.85L239.4,68.81L241.68,58.55L241.8,57.15L242.53,53.77L242.99,52.87L246.33,34.63L246.76,33.52L249.13,20.97L249.48,19.63L250.8,11.54L251.29,10.5L252.75,3.59L252.88,2.11L254.46,-6.04L252.25,5.99L251.91,7.4L251.55,11.15L250.66,11.21L250.07,11.12L250.26,12.34L249.89,15.32L249.38,16.55L248.91,20.4L248.5,21.62L248.26,25.92L247.73,26.96L245.54,40.43L245.13,41.81L241.92,62.32L241.45,63.2L238.13,82.59L237.72,83.84L237.16,87.46L236.67,88.31L235.51,96.71L235.04,97.84L234.09,102.31L233.72,103.46L232.76,108.16L232.54,109.35L231.98,112.69L231.77,114L225.28,145.15L225.11,146.28L223.8,148.46L224.07,149.49L210.84,199.63L210.34,200.02L207.41,210.46L207.04,211.37L197.25,238.97L196.86,239.71L195.69,242.79L195.36,243.56L193.31,248.74L192.84,249.47L192.03,251.66L191.49,252.38L189.44,257.25L189.11,257.94L179.8,275.35L179.29,275.89L169.23,289.6L168.83,290.02L155.93,301.22L155.36,301.48L150.52,304.17L150.01,304.37L145.56,306.25L144.98,306.4L137.27,308.45L136.85,308.53L123.48,310.03L122.85,310.05L109.87,310.4L109.32,310.41L-139.11,310.76L-139.06,310.64" style="vector-effect: non-scaling-stroke; fill: none; stroke: rgb(46, 145, 229); stroke-opacity: 1; stroke-width: 2px; opacity: 1;"/></g><g class="points"/><g class="text"/></g><g class="trace scatter trace3c68b5" style="stroke-miterlimit: 2; opacity: 1;"><g class="fills"/><g class="errorbars"/><g class="lines"><path class="js-line" d="M-139.1,310.34L220.05,309.59L220.56,309.58L313.3,307.13L286.79,308.41L286.22,308.43L168.59,310.19L168.16,310.19L-139.27,310.33L-139.21,310.33" style="vector-effect: non-scaling-stroke; fill: none; stroke: rgb(225, 95, 153); stroke-opacity: 1; stroke-width: 2px; opacity: 1;"/></g><g class="points"/><g class="text"/></g><g class="trace scatter trace6e1351" style="stroke-miterlimit: 2; opacity: 1;"><g class="fills"/><g class="errorbars"/><g class="lines"><path class="js-line" d="M-139.05,310.32L-21.62,310.29L-21.1,310.29L204.33,309.54L204.78,309.52L238.85,306.4L239.16,306.34L267.29,301.12L267.52,301.02L291.32,294.69L291.59,294.57L308.13,289.26L301.81,291.94L301.5,292.12L282.48,298.63L282.01,298.75L263.94,302.94L263.54,303.02L249.55,305.31L249.03,305.37L244.09,306.07L243.47,306.12L234.74,307.13L234.36,307.17L221.96,308.27L221.38,308.3L211.77,308.95L211.31,308.97L191.86,309.78L191.35,309.79L172.97,310.14L172.46,310.14L132.58,310.28L132.01,310.28L-139.68,310.31" style="vector-effect: non-scaling-stroke; fill: none; stroke: rgb(251, 13, 13); stroke-opacity: 1; stroke-width: 2px; opacity: 1;"/></g><g class="points"/><g class="text"/></g><g class="trace scatter trace319a30" style="stroke-miterlimit: 2; opacity: 1;"><g class="fills"/><g class="errorbars"/><g class="lines"><path class="js-line" d="M-138.79,310.89L-44.18,310.33L-43.7,310.33L48.42,309.58L48.88,309.57L90.88,308.82L91.46,308.81L152.12,306.12L152.49,306.09L176.7,303.21L177.29,303.14L189.75,300.73L190.23,300.64L201.53,297.88L202.06,297.76L228.42,288.73L228.5,288.56L233.6,286.44L234.11,286.26L246.82,280.24L247.04,280.03L257.53,274.6L257.73,274.35L301.15,249.66L300.86,249.87L300.43,250.27L291.69,257.74L291.1,258.03L288.54,260.01L287.97,260.27L281.48,265.03L280.91,265.22L270.24,271.88L269.82,272.05L265.36,274.49L265.01,274.74L253.9,280.39L253.5,280.61L225.66,292.13L225.18,292.28L210.89,296.85L210.26,296.98L173.84,305.09L173.4,305.16L143.38,308.87L142.82,308.91L110.29,310.85L109.81,310.87L73.63,311.68L73.01,311.68L55.62,311.78L54.89,311.78L27.99,311.73L27.47,311.73L-139.3,310.94" style="vector-effect: non-scaling-stroke; fill: none; stroke: rgb(218, 22, 255); stroke-opacity: 1; stroke-width: 2px; opacity: 1;"/></g><g class="points"/><g class="text"/></g><g class="trace scatter trace3f798c" style="stroke-miterlimit: 2; opacity: 1;"><g class="fills"/><g class="errorbars"/><g class="lines"><path class="js-line" d="M-138.99,310.3L273.57,309.55L274.31,309.54L298,309.26L298.47,309.25L313.87,309.08L261.3,309.83L260.64,309.84L-139.18,310.31L-138.95,310.31" style="vector-effect: non-scaling-stroke; fill: none; stroke: rgb(34, 42, 42); stroke-opacity: 1; stroke-width: 2px; opacity: 1;"/></g><g class="points"/><g class="text"/></g><g class="trace scatter tracea1aee8" style="stroke-miterlimit: 2; opacity: 1;"><g class="fills"/><g class="errorbars"/><g class="lines"><path class="js-line" d="M-138.91,310.59L10.77,309.34L11.3,309.34L42.24,308.63L42.74,308.58L55.87,307.58L56.32,307.61L78.35,308.76L78.85,308.78L106.39,308.84L106.87,308.84L127.57,307.67L127.94,307.6L137.09,305.23L137.56,305.06L143.47,302.14L143.82,301.89L145.74,300.54L146.13,300.25L156.21,291.11L156.56,290.71L159.45,287.6L159.63,287.16L170.98,271.78L171.21,271.24L176.16,263.22L176.58,262.61L192.19,234.25L192.42,233.57L195.83,226.94L196.07,226.2L215.31,182.88L215.58,182.12L218.57,175.31L218.8,174.51L220.63,169.6L220.99,168.82L225.59,156.8L225.81,155.93L234.26,132.93L234.67,132.1L239.78,118.51L239.94,117.17L241.4,112.76L241.77,111.76L247.03,96.56L247.19,94.63L248.07,88.89L248.37,87.93L258.41,56.19L258.54,55.24L263.99,38.32L261.66,46.84L261.45,47.91L259.69,55.14L259.26,55.84L258.39,58.77L257.95,59.74L256.35,66.35L255.95,67.09L255.29,68.99L255.25,70.09L251.16,82.99L250.91,84.03L249.99,86.56L249.55,87.6L248.93,90.59L248.4,90.21L247.92,90.05L247.66,91.12L245.91,96.64L245.57,97.25L242.47,107.45L242.22,108.35L239.79,115.16L239.43,116.02L237.93,121.51L237.44,122.37L232.27,138.01L231.9,138.73L228.04,149.67L227.75,150.53L203.7,209.13L203.27,209.8L196.77,223.38L196.37,224.05L187.01,242.29L186.59,242.9L175.56,261.66L175.14,262.22L166.59,274.84L166.3,275.34L154.46,289.85L153.98,290.26L147.85,296.26L147.42,296.61L141.21,301.55L140.57,301.83L137.01,304.16L136.52,304.39L126.92,308.33L126.46,308.45L114.38,310.41L113.87,310.44L95.53,311.02L94.97,311.03L19.05,311.78L18.51,311.81L3.52,312.35L3.04,312.32L-29.54,311.34L-29.77,311.33L-139.25,310.6" style="vector-effect: non-scaling-stroke; fill: none; stroke: rgb(28, 167, 28); stroke-opacity: 1; stroke-width: 2px; opacity: 1;"/></g><g class="points"/><g class="text"/></g><g class="trace scatter tracee3dd60" style="stroke-miterlimit: 2; opacity: 1;"><g class="fills"/><g class="errorbars"/><g class="lines"><path class="js-line" d="M-138.92,310.46L-17.81,310.19L-17.4,310.19L23.02,310.07L23.55,310.07L124.45,309.32L124.83,309.31L142.74,308.56L143.53,308.52L148.64,307.9L149.3,307.84L162.96,304.81L163.29,304.68L172.9,300.92L172.89,300.72L176.28,299.06L176.68,298.84L179.91,296.97L180.32,296.73L188.34,290.99L188.56,290.63L191.71,288.07L192.06,287.74L203.14,276.05L203.5,275.63L206.09,272.61L206.28,272.17L219,253.3L219.29,252.75L220.8,250.09L221.24,249.53L237.82,215.25L237.76,214.6L239.09,212L239.27,211.39L240.28,209.34L240.24,208.64L241.38,206.64L241.49,205.93L244.94,197.44L245.08,196.73L247.82,189.73L247.93,188.96L249.07,186.05L249.38,185.24L254.83,169.23L254.88,168.38L256.81,163.16L257.02,162.33L258.55,157.3L258.8,156.55L263.09,142.45L263.57,141.79L266.98,129.47L262.41,146.77L261.89,147.47L260.93,151.72L260.6,152.52L259.84,154.79L259.49,155.55L258.43,159.69L258.18,160.46L256.88,164.59L256.92,165.43L255.85,167.69L255.75,168.48L254.57,171.65L254.48,172.36L253.5,174.66L253.45,175.45L246.45,195.68L246.29,196.39L243.62,202.84L243.49,203.56L241.97,207.71L241.54,208.37L238.6,215.93L238.26,216.53L236.53,220.62L236.41,221.31L234.79,224.48L234.66,225.11L225.44,243.9L224.97,244.45L223.77,246.68L223.58,247.24L207.82,271.37L207.23,271.79L205.28,274.29L204.88,274.7L195.33,284.77L194.85,285.11L188.47,290.4L188.28,290.7L185.47,292.67L185.2,292.94L170.98,301.02L170.39,301.19L167.7,302.45L166.99,302.61L163.04,304.11L162.51,304.25L153.7,306.7L153.16,306.79L145.86,308.17L145.44,308.24L127.15,309.95L126.7,309.98L94.75,310.58L94.15,310.59L-139.07,310.45" style="vector-effect: non-scaling-stroke; fill: none; stroke: rgb(182, 129, 0); stroke-opacity: 1; stroke-width: 2px; opacity: 1;"/></g><g class="points"/><g class="text"/></g></g></g><g class="overplot"/><path class="xlines-above crisp" d="M78,421H420" style="fill: none; stroke-width: 2px; stroke: rgb(0, 0, 0); stroke-opacity: 1;"/><path class="ylines-above crisp" d="M79,100V420" style="fill: none; stroke-width: 2px; stroke: rgb(0, 0, 0); stroke-opacity: 1;"/><g class="overlines-above"/><g class="xaxislayer-above"><path class="xtick ticks crisp" d="M0,422v5" transform="translate(80,0)" style="stroke: rgb(68, 68, 68); stroke-opacity: 1; stroke-width: 1px;"/><path class="xtick ticks crisp" d="M0,422v5" transform="translate(125.33,0)" style="stroke: rgb(68, 68, 68); stroke-opacity: 1; stroke-width: 1px;"/><path class="xtick ticks crisp" d="M0,422v5" transform="translate(170.67000000000002,0)" style="stroke: rgb(68, 68, 68); stroke-opacity: 1; stroke-width: 1px;"/><path class="xtick ticks crisp" d="M0,422v5" transform="translate(216,0)" style="stroke: rgb(68, 68, 68); stroke-opacity: 1; stroke-width: 1px;"/><path class="xtick ticks crisp" d="M0,422v5" transform="translate(261.33000000000004,0)" style="stroke: rgb(68, 68, 68); stroke-opacity: 1; stroke-width: 1px;"/><path class="xtick ticks crisp" d="M0,422v5" transform="translate(306.66999999999996,0)" style="stroke: rgb(68, 68, 68); stroke-opacity: 1; stroke-width: 1px;"/><path class="xtick ticks crisp" d="M0,422v5" transform="translate(352,0)" style="stroke: rgb(68, 68, 68); stroke-opacity: 1; stroke-width: 1px;"/><path class="xtick ticks crisp" d="M0,422v5" transform="translate(397.33,0)" style="stroke: rgb(68, 68, 68); stroke-opacity: 1; stroke-width: 1px;"/><g class="xtick"><text text-anchor="middle" x="0" y="448.6" transform="translate(80,0)" style="font-family: 'Times New Roman', monospace; font-size: 18px; fill: rgb(105, 105, 105); fill-opacity: 1; white-space: pre; opacity: 1;">0</text></g><g class="xtick"><text text-anchor="middle" x="0" y="448.6" style="font-family: 'Times New Roman', monospace; font-size: 18px; fill: rgb(105, 105, 105); fill-opacity: 1; white-space: pre; opacity: 1;" transform="translate(125.33,0)">0.1</text></g><g class="xtick"><text text-anchor="middle" x="0" y="448.6" style="font-family: 'Times New Roman', monospace; font-size: 18px; fill: rgb(105, 105, 105); fill-opacity: 1; white-space: pre; opacity: 1;" transform="translate(170.67000000000002,0)">0.2</text></g><g class="xtick"><text text-anchor="middle" x="0" y="448.6" style="font-family: 'Times New Roman', monospace; font-size: 18px; fill: rgb(105, 105, 105); fill-opacity: 1; white-space: pre; opacity: 1;" transform="translate(216,0)">0.3</text></g><g class="xtick"><text text-anchor="middle" x="0" y="448.6" style="font-family: 'Times New Roman', monospace; font-size: 18px; fill: rgb(105, 105, 105); fill-opacity: 1; white-space: pre; opacity: 1;" transform="translate(261.33000000000004,0)">0.4</text></g><g class="xtick"><text text-anchor="middle" x="0" y="448.6" style="font-family: 'Times New Roman', monospace; font-size: 18px; fill: rgb(105, 105, 105); fill-opacity: 1; white-space: pre; opacity: 1;" transform="translate(306.66999999999996,0)">0.5</text></g><g class="xtick"><text text-anchor="middle" x="0" y="448.6" style="font-family: 'Times New Roman', monospace; font-size: 18px; fill: rgb(105, 105, 105); fill-opacity: 1; white-space: pre; opacity: 1;" transform="translate(352,0)">0.6</text></g><g class="xtick"><text text-anchor="middle" x="0" y="448.6" style="font-family: 'Times New Roman', monospace; font-size: 18px; fill: rgb(105, 105, 105); fill-opacity: 1; white-space: pre; opacity: 1;" transform="translate(397.33,0)">0.7</text></g></g><g class="yaxislayer-above"><path class="ytick ticks crisp" d="M78,0h-5" transform="translate(0,410.3)" style="stroke: rgb(68, 68, 68); stroke-opacity: 1; stroke-width: 1px;"/><path class="ytick ticks crisp" d="M78,0h-5" transform="translate(0,371.52)" style="stroke: rgb(68, 68, 68); stroke-opacity: 1; stroke-width: 1px;"/><path class="ytick ticks crisp" d="M78,0h-5" transform="translate(0,332.73)" style="stroke: rgb(68, 68, 68); stroke-opacity: 1; stroke-width: 1px;"/><path class="ytick ticks crisp" d="M78,0h-5" transform="translate(0,293.94)" style="stroke: rgb(68, 68, 68); stroke-opacity: 1; stroke-width: 1px;"/><path class="ytick ticks crisp" d="M78,0h-5" transform="translate(0,255.15)" style="stroke: rgb(68, 68, 68); stroke-opacity: 1; stroke-width: 1px;"/><path class="ytick ticks crisp" d="M78,0h-5" transform="translate(0,216.36)" style="stroke: rgb(68, 68, 68); stroke-opacity: 1; stroke-width: 1px;"/><path class="ytick ticks crisp" d="M78,0h-5" transform="translate(0,177.57999999999998)" style="stroke: rgb(68, 68, 68); stroke-opacity: 1; stroke-width: 1px;"/><path class="ytick ticks crisp" d="M78,0h-5" transform="translate(0,138.79)" style="stroke: rgb(68, 68, 68); stroke-opacity: 1; stroke-width: 1px;"/><path class="ytick ticks crisp" d="M78,0h-5" transform="translate(0,100)" style="stroke: rgb(68, 68, 68); stroke-opacity: 1; stroke-width: 1px;"/><g class="ytick"><text text-anchor="end" x="69.4" y="6.3" transform="translate(0,410.3)" style="font-family: 'Times New Roman', monospace; font-size: 18px; fill: rgb(105, 105, 105); fill-opacity: 1; white-space: pre; opacity: 1;">0</text></g><g class="ytick"><text text-anchor="end" x="69.4" y="6.3" style="font-family: 'Times New Roman', monospace; font-size: 18px; fill: rgb(105, 105, 105); fill-opacity: 1; white-space: pre; opacity: 1;" transform="translate(0,371.52)">20</text></g><g class="ytick"><text text-anchor="end" x="69.4" y="6.3" style="font-family: 'Times New Roman', monospace; font-size: 18px; fill: rgb(105, 105, 105); fill-opacity: 1; white-space: pre; opacity: 1;" transform="translate(0,332.73)">40</text></g><g class="ytick"><text text-anchor="end" x="69.4" y="6.3" style="font-family: 'Times New Roman', monospace; font-size: 18px; fill: rgb(105, 105, 105); fill-opacity: 1; white-space: pre; opacity: 1;" transform="translate(0,293.94)">60</text></g><g class="ytick"><text text-anchor="end" x="69.4" y="6.3" style="font-family: 'Times New Roman', monospace; font-size: 18px; fill: rgb(105, 105, 105); fill-opacity: 1; white-space: pre; opacity: 1;" transform="translate(0,255.15)">80</text></g><g class="ytick"><text text-anchor="end" x="69.4" y="6.3" style="font-family: 'Times New Roman', monospace; font-size: 18px; fill: rgb(105, 105, 105); fill-opacity: 1; white-space: pre; opacity: 1;" transform="translate(0,216.36)">100</text></g><g class="ytick"><text text-anchor="end" x="69.4" y="6.3" style="font-family: 'Times New Roman', monospace; font-size: 18px; fill: rgb(105, 105, 105); fill-opacity: 1; white-space: pre; opacity: 1;" transform="translate(0,177.57999999999998)">120</text></g><g class="ytick"><text text-anchor="end" x="69.4" y="6.3" style="font-family: 'Times New Roman', monospace; font-size: 18px; fill: rgb(105, 105, 105); fill-opacity: 1; white-space: pre; opacity: 1;" transform="translate(0,138.79)">140</text></g><g class="ytick"><text text-anchor="end" x="69.4" y="6.3" style="font-family: 'Times New Roman', monospace; font-size: 18px; fill: rgb(105, 105, 105); fill-opacity: 1; white-space: pre; opacity: 1;" transform="translate(0,100)">160</text></g></g><g class="overaxes-above"/></g></g><g class="polarlayer"/><g class="smithlayer"/><g class="ternarylayer"/><g class="geolayer"/><g class="funnelarealayer"/><g class="pielayer"/><g class="iciclelayer"/><g class="treemaplayer"/><g class="sunburstlayer"/><g class="glimages"/><defs id="topdefs-67815f"><g class="clips"/><clipPath id="legend67815f"><rect width="161" height="195" x="0" y="0"/></clipPath></defs><g class="layer-above"><g class="imagelayer"/><g class="shapelayer"/></g><g class="infolayer"><g class="legend" pointer-events="all" transform="translate(83.4,103.2)"><rect class="bg" shape-rendering="crispEdges" width="161" height="195" x="0" y="0" style="stroke: rgb(68, 68, 68); stroke-opacity: 1; fill: rgb(255, 255, 255); fill-opacity: 1; stroke-width: 0px;"/><g class="scrollbox" transform="" clip-path="url(#legend67815f)"><g class="groups"><g class="traces" transform="translate(0,18.200000000000003)" style="opacity: 1;"><text class="legendtext" text-anchor="start" x="40" y="7.0200000000000005" style="font-family: 'Times New Roman', monospace; font-size: 18px; fill: rgb(105, 105, 105); fill-opacity: 1; white-space: pre;">IrO​<tspan style="font-size:70%" dy="0.3em">x</tspan><tspan dy="-0.21em">​</tspan></text><g class="layers" style="opacity: 1;"><g class="legendfill"/><g class="legendlines"><path class="js-line" d="M5,0h30" style="fill: none; stroke: rgb(46, 145, 229); stroke-opacity: 1; stroke-width: 2px;"/></g><g class="legendsymbols"><g class="legendpoints"/></g></g><rect class="legendtoggle" x="0" y="-13.200000000000001" width="155.8125" height="26.400000000000002" style="fill: rgb(0, 0, 0); fill-opacity: 0;"/></g><g class="traces" transform="translate(0,44.6)" style="opacity: 1;"><text class="legendtext" text-anchor="start" x="40" y="7.0200000000000005" style="font-family: 'Times New Roman', monospace; font-size: 18px; fill: rgb(105, 105, 105); fill-opacity: 1; white-space: pre;">Ni​<tspan style="font-size:70%" dy="0.3em">60</tspan><tspan dy="-0.21em">​</tspan>Co​<tspan style="font-size:70%" dy="0.3em">30</tspan><tspan dy="-0.21em">​</tspan>Fe​<tspan style="font-size:70%" dy="0.3em">10</tspan><tspan dy="-0.21em">​</tspan>O​<tspan style="font-size:70%" dy="0.3em">x</tspan><tspan dy="-0.21em">​</tspan></text><g class="layers" style="opacity: 1;"><g class="legendfill"/><g class="legendlines"><path class="js-line" d="M5,0h30" style="fill: none; stroke: rgb(225, 95, 153); stroke-opacity: 1; stroke-width: 2px;"/></g><g class="legendsymbols"><g class="legendpoints"/></g></g><rect class="legendtoggle" x="0" y="-13.200000000000001" width="155.8125" height="26.400000000000002" style="fill: rgb(0, 0, 0); fill-opacity: 0;"/></g><g class="traces" transform="translate(0,71)" style="opacity: 1;"><text class="legendtext" text-anchor="start" x="40" y="7.0200000000000005" style="font-family: 'Times New Roman', monospace; font-size: 18px; fill: rgb(105, 105, 105); fill-opacity: 1; white-space: pre;">FeN​<tspan style="font-size:70%" dy="0.3em">x</tspan><tspan dy="-0.21em">​</tspan></text><g class="layers" style="opacity: 1;"><g class="legendfill"/><g class="legendlines"><path class="js-line" d="M5,0h30" style="fill: none; stroke: rgb(251, 13, 13); stroke-opacity: 1; stroke-width: 2px;"/></g><g class="legendsymbols"><g class="legendpoints"/></g></g><rect class="legendtoggle" x="0" y="-13.200000000000001" width="155.8125" height="26.400000000000002" style="fill: rgb(0, 0, 0); fill-opacity: 0;"/></g><g class="traces" transform="translate(0,97.4)" style="opacity: 1;"><text class="legendtext" text-anchor="start" x="40" y="7.0200000000000005" style="font-family: 'Times New Roman', monospace; font-size: 18px; fill: rgb(105, 105, 105); fill-opacity: 1; white-space: pre;">CoN​<tspan style="font-size:70%" dy="0.3em">x</tspan><tspan dy="-0.21em">​</tspan></text><g class="layers" style="opacity: 1;"><g class="legendfill"/><g class="legendlines"><path class="js-line" d="M5,0h30" style="fill: none; stroke: rgb(218, 22, 255); stroke-opacity: 1; stroke-width: 2px;"/></g><g class="legendsymbols"><g class="legendpoints"/></g></g><rect class="legendtoggle" x="0" y="-13.200000000000001" width="155.8125" height="26.400000000000002" style="fill: rgb(0, 0, 0); fill-opacity: 0;"/></g><g class="traces" transform="translate(0,123.80000000000001)" style="opacity: 1;"><text class="legendtext" text-anchor="start" x="40" y="7.0200000000000005" style="font-family: 'Times New Roman', monospace; font-size: 18px; fill: rgb(105, 105, 105); fill-opacity: 1; white-space: pre;">NiN​<tspan style="font-size:70%" dy="0.3em">x</tspan><tspan dy="-0.21em">​</tspan></text><g class="layers" style="opacity: 1;"><g class="legendfill"/><g class="legendlines"><path class="js-line" d="M5,0h30" style="fill: none; stroke: rgb(34, 42, 42); stroke-opacity: 1; stroke-width: 2px;"/></g><g class="legendsymbols"><g class="legendpoints"/></g></g><rect class="legendtoggle" x="0" y="-13.200000000000001" width="155.8125" height="26.400000000000002" style="fill: rgb(0, 0, 0); fill-opacity: 0;"/></g><g class="traces" transform="translate(0,150.2)" style="opacity: 1;"><text class="legendtext" text-anchor="start" x="40" y="7.0200000000000005" style="font-family: 'Times New Roman', monospace; font-size: 18px; fill: rgb(105, 105, 105); fill-opacity: 1; white-space: pre;">Co​<tspan style="font-size:70%" dy="0.3em">57</tspan><tspan dy="-0.21em">​</tspan>Ni​<tspan style="font-size:70%" dy="0.3em">14</tspan><tspan dy="-0.21em">​</tspan>Fe​<tspan style="font-size:70%" dy="0.3em">29</tspan><tspan dy="-0.21em">​</tspan>N​<tspan style="font-size:70%" dy="0.3em">x</tspan><tspan dy="-0.21em">​</tspan></text><g class="layers" style="opacity: 1;"><g class="legendfill"/><g class="legendlines"><path class="js-line" d="M5,0h30" style="fill: none; stroke: rgb(28, 167, 28); stroke-opacity: 1; stroke-width: 2px;"/></g><g class="legendsymbols"><g class="legendpoints"/></g></g><rect class="legendtoggle" x="0" y="-13.200000000000001" width="155.8125" height="26.400000000000002" style="fill: rgb(0, 0, 0); fill-opacity: 0;"/></g><g class="traces" transform="translate(0,176.6)" style="opacity: 1;"><text class="legendtext" text-anchor="start" x="40" y="7.0200000000000005" style="font-family: 'Times New Roman', monospace; font-size: 18px; fill: rgb(105, 105, 105); fill-opacity: 1; white-space: pre;">Co​<tspan style="font-size:70%" dy="0.3em">45</tspan><tspan dy="-0.21em">​</tspan>Ni​<tspan style="font-size:70%" dy="0.3em">45</tspan><tspan dy="-0.21em">​</tspan>Fe​<tspan style="font-size:70%" dy="0.3em">10</tspan><tspan dy="-0.21em">​</tspan>N​<tspan style="font-size:70%" dy="0.3em">x</tspan><tspan dy="-0.21em">​</tspan></text><g class="layers" style="opacity: 1;"><g class="legendfill"/><g class="legendlines"><path class="js-line" d="M5,0h30" style="fill: none; stroke: rgb(182, 129, 0); stroke-opacity: 1; stroke-width: 2px;"/></g><g class="legendsymbols"><g class="legendpoints"/></g></g><rect class="legendtoggle" x="0" y="-13.200000000000001" width="155.8125" height="26.400000000000002" style="fill: rgb(0, 0, 0); fill-opacity: 0;"/></g></g></g><rect class="scrollbar" rx="20" ry="3" width="0" height="0" x="0" y="0" style="fill: rgb(128, 139, 164); fill-opacity: 1;"/></g><g class="g-gtitle"/><g class="g-xtitle"><text class="xtitle" x="250" y="483.009375" text-anchor="middle" style="font-family: 'Times New Roman', monospace; font-size: 22px; fill: rgb(105, 105, 105); opacity: 1; font-weight: normal; white-space: pre;">Overpotential, η(V) - iR​<tspan style="font-size:70%" dy="0.3em">u</tspan><tspan dy="-0.21em">​</tspan></text></g><g class="g-ytitle" transform="translate(11.259765625,0)"><text class="ytitle" transform="rotate(-90,11.990624999999994,260)" x="11.990624999999994" y="260" text-anchor="middle" style="font-family: 'Times New Roman', monospace; font-size: 22px; fill: rgb(105, 105, 105); opacity: 1; font-weight: normal; white-space: pre;">Current (mA/cm​<tspan style="font-size:70%" dy="-0.6em">2</tspan><tspan dy="0.42em">​</tspan>)</text></g></g></svg>