<svg class="main-svg" xmlns="http://www.w3.org/2000/svg" xmlns:xlink="http://www.w3.org/1999/xlink" width="1000" height="500" style="" viewBox="0 0 1000 500"><rect x="0" y="0" width="1000" height="500" style="fill: rgb(255, 255, 255); fill-opacity: 1;"/><defs id="defs-249d76"><g class="clips"><clipPath id="clip249d76xyplot" class="plotclip"><rect width="690" height="427"/></clipPath><clipPath class="axesclip" id="clip249d76x"><rect x="68" y="0" width="690" height="500"/></clipPath><clipPath class="axesclip" id="clip249d76y"><rect x="0" y="10" width="1000" height="427"/></clipPath><clipPath class="axesclip" id="clip249d76xy"><rect x="68" y="10" width="690" height="427"/></clipPath></g><g class="gradients"/><g class="patterns"/></defs><g class="bglayer"><rect class="bg" x="68" y="10" width="690" height="427" style="fill: rgb(0, 0, 0); fill-opacity: 0; stroke-width: 0;"/></g><g class="layer-below"><g class="imagelayer"/><g class="shapelayer"/></g><g class="cartesianlayer"><g class="subplot xy"><g class="layer-subplot"><g class="shapelayer"/><g class="imagelayer"/></g><g class="minor-gridlayer"><g class="x"/><g class="y"/></g><g class="gridlayer"><g class="x"/><g class="y"/></g><g class="zerolinelayer"><path class="yzl zl crisp" transform="translate(0,424.06)" d="M68,0h690" style="stroke: rgb(128, 128, 128); stroke-opacity: 1; stroke-width: 1px;"/></g><path class="xlines-below"/><path class="ylines-below"/><g class="overlines-below"/><g class="xaxislayer-below"/><g class="yaxislayer-below"/><g class="overaxes-below"/><g class="plot" transform="translate(68,10)" clip-path="url(#clip249d76xyplot)"><g class="scatterlayer mlayer"><g class="trace scatter traceaecb2a" style="stroke-miterlimit: 2; opacity: 1;"><g class="fills"/><g class="errorbars"/><g class="lines"><path class="js-line" d="M-274.92,414.28L-84.08,414.09L-83.15,414.09L-7.67,414L-6.99,414L202.04,413.25L202.88,413.24L309.96,411.39L310.92,411.35L343.28,409.57L344.08,409.51L381.27,405.95L382.08,405.85L432.25,398.33L432.92,398.17L462.49,392.24L463.29,392.06L486.12,386.75L486.89,386.54L524.71,376.37L525.5,376.13L550.72,368.7L551.41,368.46L615.55,348.99L613.59,350L612.8,350.38L595.01,357.93L594.3,358.23L587.36,360.93L586.18,361.21L582.4,362.62L581.46,362.9L569.75,367.05L568.92,367.32L548.82,373.62L548.01,373.85L508.61,384.45L507.54,384.64L501.94,386.04L500.98,386.23L494.16,387.77L493.48,387.96L480.98,390.7L479.91,390.87L470.84,392.77L469.85,392.94L447.94,397.04L447.07,397.2L394.12,404.83L393.15,404.93L336.46,410.03L335.64,410.1L287.17,412.57L286.12,412.6L254.11,413.6L253.2,413.62L171.42,414.74L170.4,414.74L93.21,414.84L92.12,414.84L-275.54,414.28" style="vector-effect: non-scaling-stroke; fill: none; stroke: rgb(46, 145, 229); stroke-opacity: 1; stroke-width: 2px; opacity: 1;"/></g><g class="points"/><g class="text"/></g><g class="trace scatter tracebdc729" style="stroke-miterlimit: 2; opacity: 1;"><g class="fills"/><g class="errorbars"/><g class="lines"><path class="js-line" d="M-274.73,414.33L-102.67,414.12L-101.77,414.12L-15.34,414.05L-14.34,414.05L216.34,413.3L217.31,413.29L321.41,411.36L322.39,411.32L353.26,409.59L354.13,409.53L381.91,406.97L382.73,406.87L413.65,402.7L414.39,402.56L456.51,394.3L457.42,394.1L486.98,386.55L487.84,386.31L527.09,374.26L527.98,373.95L550.14,366.41L550.9,366.12L619.29,343.11L619.98,343.05L619.81,342.89L619.49,343.25L618.68,343.73L611.14,348.23L610.17,348.63L590.51,357.88L589.7,358.18L575.8,363.65L575.01,363.96L567.93,366.67L567.06,367L542.15,375.2L541.5,375.44L494.48,388.24L493.54,388.44L435.06,400.09L434.13,400.23L401.52,404.83L400.54,404.93L362.32,408.76L361.5,408.84L315.66,411.7L314.57,411.75L258.79,413.57L257.77,413.59L221.24,414.22L220.46,414.23L162.68,414.69L161.63,414.69L93.65,414.79L92.66,414.79L12.52,414.68L11.61,414.68L-275.14,414.34" style="vector-effect: non-scaling-stroke; fill: none; stroke: rgb(46, 145, 229); stroke-opacity: 1; stroke-width: 2px; opacity: 1;"/></g><g class="points"/><g class="text"/></g><g class="trace scatter trace57fd3a" style="stroke-miterlimit: 2; opacity: 1;"><g class="fills"/><g class="errorbars"/><g class="lines"><path class="js-line" d="M-281.95,414.07L360.38,413.33L361.06,413.31L413.47,411.46L414.23,411.42L446.12,409.42L446.76,409.35L500.79,403.73L501.64,403.61L564.31,392.58L564.48,392.4L589.61,387.12L590.21,386.92L628.41,377.8L627.5,378.06L626.44,378.42L599.58,387.4L598.54,387.62L547.8,398.01L546.82,398.16L541.07,399.14L539.51,399.28L537.24,399.69L536.44,399.82L495.82,405.1L494.93,405.2L485.01,406.23L484.27,406.32L466.43,407.95L465.62,408.03L410.35,411.46L409.26,411.5L374.21,412.78L372.81,412.8L314.8,413.8L314.19,413.81L-282.8,414.07" style="vector-effect: non-scaling-stroke; fill: none; stroke: rgb(225, 95, 153); stroke-opacity: 1; stroke-width: 2px; opacity: 1;"/></g><g class="points"/><g class="text"/></g><g class="trace scatter trace092fed" style="stroke-miterlimit: 2; opacity: 1;"><g class="fills"/><g class="errorbars"/><g class="lines"><path class="js-line" d="M-282.5,414.07L482.23,413.32L483.21,413.3L531.86,412.13L532.38,412.1L571.61,410.39L572.35,410.34L602.62,408.52L602.88,408.46L630.27,406.42L631.16,406.32L634.81,406.04L632.07,406.23L630.74,406.32L599.23,408.83L597.8,408.89L572.09,410.43L571.05,410.47L500.11,412.87L498.93,412.89L457.99,413.52L456.55,413.53L393.68,413.92L392.57,413.92L281.23,414.05L280.56,414.05L-283.28,414.08" style="vector-effect: non-scaling-stroke; fill: none; stroke: rgb(251, 13, 13); stroke-opacity: 1; stroke-width: 2px; opacity: 1;"/></g><g class="points"/><g class="text"/></g><g class="trace scatter trace5b3d99" style="stroke-miterlimit: 2; opacity: 1;"><g class="fills"/><g class="errorbars"/><g class="lines"><path class="js-line" d="M-274.69,414.07L399.85,413.32L400.73,413.3L441.5,411.63L442.42,411.58L475.59,408.58L476.54,408.48L506.12,404.04L506.99,403.88L533.47,398.2L534.25,397.98L563.5,389.69L564.23,389.43L585.61,381.88L586.45,381.57L607.32,373.08L607.99,372.73L618.35,368.11L619.14,367.75L626.39,364.25L609.85,373.08L609.08,373.48L586.21,383.91L585.44,384.23L564.27,391.81L563.48,392.07L540.06,398.49L539.2,398.69L510.64,404.31L509.73,404.45L484.36,407.88L483.44,407.98L453.21,410.66L452.29,410.72L412.53,412.68L411.62,412.71L357.43,413.77L356.54,413.78L265.2,414.03L264.24,414.03L197.99,414.05L197.14,414.05L-275.01,414.08" style="vector-effect: non-scaling-stroke; fill: none; stroke: rgb(34, 42, 42); stroke-opacity: 1; stroke-width: 2px; opacity: 1;"/></g><g class="points"/><g class="text"/></g><g class="trace scatter trace0ee0ef" style="stroke-miterlimit: 2; opacity: 1;"><g class="fills"/><g class="errorbars"/><g class="lines"><path class="js-line" d="M-274.74,414.06L398.97,413.32L399.83,413.3L440.66,411.68L441.52,411.62L472.18,409.02L473.02,408.92L502.55,404.77L503.49,404.62L525.73,400.25L526.48,400.06L551.71,393.72L552.66,393.48L590.49,381.04L591.12,380.74L604.11,375.62L604.78,375.29L626.17,365.63L618.92,369.49L618.16,369.9L598.82,379.44L598.02,379.8L579.7,387.24L578.9,387.54L565.79,391.92L564.98,392.18L548.41,396.87L547.54,397.09L519.14,403.09L518.29,403.24L500.98,405.92L500.07,406.04L458.6,410.28L457.49,410.34L423.41,412.24L422.35,412.28L381.2,413.44L379.99,413.45L340.76,413.9L339.87,413.91L-275.3,414.07" style="vector-effect: non-scaling-stroke; fill: none; stroke: rgb(34, 42, 42); stroke-opacity: 1; stroke-width: 2px; opacity: 1;"/></g><g class="points"/><g class="text"/></g><g class="trace scatter traceb27054" style="stroke-miterlimit: 2; opacity: 1;"><g class="fills"/><g class="errorbars"/><g class="lines"><path class="js-line" d="M-274.91,414.08L-112.02,414.06L-111.3,414.06L352.06,413.31L352.87,413.29L401.46,411.61L402.29,411.56L456.21,406.68L457.31,406.56L482.89,402.67L483.46,402.51L497.8,399.87L498.45,399.69L516.14,395.89L516.88,395.69L543.58,388.52L544.36,388.24L564.12,381.79L565.25,381.52L572.6,378.8L573.58,378.5L578.29,376.59L579.31,376.28L596,369.85L596.75,369.53L605.11,366.25L606.18,365.91L629.27,356.42L629.13,356.18L628.38,357L627.65,357.46L616.39,363.44L615.42,363.86L579.2,379.79L578.11,380.12L560.58,386.39L559.7,386.66L533.19,394.47L532.19,394.69L523.15,397.04L521.77,397.25L505.47,400.81L504.39,400.99L500.54,401.81L499.36,401.97L448.58,408.74L447.28,408.82L423,410.63L422.05,410.68L414.11,411.14L413.09,411.19L385.01,412.35L384.17,412.38L307.71,413.72L306.87,413.73L178.69,414.09L177.94,414.09L-275.46,414.08" style="vector-effect: non-scaling-stroke; fill: none; stroke: rgb(117, 13, 134); stroke-opacity: 1; stroke-width: 2px; opacity: 1;"/></g><g class="points"/><g class="text"/></g><g class="trace scatter trace1e8ae3" style="stroke-miterlimit: 2; opacity: 1;"><g class="fills"/><g class="errorbars"/><g class="lines"><path class="js-line" d="M-275.17,414.07L356.62,413.32L357.46,413.3L412.97,411.28L413.78,411.23L464.4,406.31L465.37,406.18L483.3,403.44L483.22,403.29L513.04,397.07L513.21,396.87L527.98,392.92L528.1,392.68L536.06,390.32L536.6,390.06L545.27,387.21L545.94,386.89L548.05,386.04L549.32,385.73L550.24,385.15L551.64,384.78L559.84,381.49L559.97,381.15L570.14,377.15L570.65,376.74L581.07,372.08L581.29,371.7L585.21,370.25L585.3,369.88L590.57,367.57L591.29,367.15L592.81,366.46L594.06,366.06L595.71,364.92L596.66,364.61L605.26,360.32L605.86,359.95L610.96,357.73L611.43,357.21L611.6,356.87L612.75,356.48L617.95,354.09L618.16,353.7L621.64,352.12L622.68,352.02L620.73,352.63L619.84,353.19L619.93,353.66L618.77,354.14L613.17,357.44L612.67,357.93L609.52,359.7L608.91,360.21L593.49,368.6L593.31,369.02L586.52,371.8L586.6,372.25L586.2,372.66L584.49,373.05L576.35,377.03L576.1,377.4L569.31,380.11L568.73,380.47L558.62,384.34L558.49,384.69L549.5,387.65L548.88,387.95L546.56,388.79L545.81,389.07L537.73,391.75L536.85,392L535.12,392.53L534.2,392.79L514.29,398.3L513.23,398.5L504.64,400.45L504.01,400.64L498.77,401.67L497.4,401.84L489.1,403.52L488.5,403.67L453.28,408.36L451.6,408.45L444.65,409.2L443.39,409.28L397.82,411.99L396.56,412.02L337.2,413.44L335.79,413.45L262.27,413.98L260.85,413.98L-275.68,414.09" style="vector-effect: non-scaling-stroke; fill: none; stroke: rgb(117, 13, 134); stroke-opacity: 1; stroke-width: 2px; opacity: 1;"/></g><g class="points"/><g class="text"/></g><g class="trace scatter trace43db28" style="stroke-miterlimit: 2; opacity: 1;"><g class="fills"/><g class="errorbars"/><g class="lines"><path class="js-line" d="M-282.21,414.06L520.78,413.31L522.48,413.29L605.82,411.04L605.81,411L636.56,409.57L569.44,412.37L568.2,412.39L457.85,413.82L456.37,413.82L456.56,413.83L444.31,413.88L443.06,413.88L-282.52,414.06L-282.25,414.07" style="vector-effect: non-scaling-stroke; fill: none; stroke: rgb(0, 160, 139); stroke-opacity: 1; stroke-width: 2px; opacity: 1;"/></g><g class="points"/><g class="text"/></g><g class="trace scatter trace3e372c" style="stroke-miterlimit: 2; opacity: 1;"><g class="fills"/><g class="errorbars"/><g class="lines"><path class="js-line" d="M-282.35,414.13L238.15,413.38L239.19,413.37L293.79,412.03L294.63,411.97L321.11,408.88L322.04,408.73L338,405.19L338.77,404.96L355.03,399.61L355.56,399.3L363.6,395.99L364.35,395.64L371.65,391.9L372.67,391.51L400.15,373.54L400.69,373L409.65,365.73L410.32,365.15L418.24,358.01L419.09,357.38L422.67,353.65L423.62,353.02L436.17,339.79L436.87,339.1L447.82,326.21L448.36,325.47L452.36,321.14L452.69,320.39L456.87,314.88L457.64,314.13L462.55,307.16L463.35,306.4L464.94,304.02L465.58,303.21L469.45,297.22L469.94,296.37L473.72,291.59L474.12,290.79L480.5,281.87L480.85,281.06L488.38,270.09L488.79,269.22L492.14,264.12L492.77,263.25L502.77,246.42L503.41,245.43L510.93,233.03L511.3,232.12L514.18,227.52L514.59,226.49L522.72,213.01L523.08,211.92L524.75,209.26L525.45,208.45L528.83,202.16L529.82,201.3L532.06,196.32L532.22,195.36L536.21,188.67L536.51,187.81L538.75,184.03L534.72,191.73L534.49,192.84L532.46,196.64L532.07,197.72L530.41,200.74L530.1,201.73L526.92,207.86L526.59,208.8L524.14,213.55L523.53,214.45L520.92,219.58L520.64,220.53L519.56,222.43L518.82,223.33L516.82,227.12L516.4,228.11L515.61,230.12L514.84,230.95L502.93,251.88L502.06,252.82L493.68,267.08L492.88,267.88L489.2,273.95L488.56,274.84L486.26,278.28L485.73,279.2L484.88,280.87L484.09,281.63L479.56,288.22L479.16,289.07L475.34,294.93L474.46,295.73L473.61,297.31L472.88,298.13L470.44,301.32L469.91,302.13L468.21,304.53L467.66,305.34L463.74,310.74L462.99,311.51L456.48,319.62L455.79,320.39L441.53,336.68L440.9,337.37L433.4,345.42L432.6,346.08L430.87,348.02L430.09,348.65L423.13,355.5L422.39,356.11L415.66,362.06L415.02,362.63L401.93,372.85L401.24,373.36L392.69,379.21L392.07,379.68L372.76,390.57L371.76,390.94L361.86,395.44L361.14,395.76L345.37,401.49L344.51,401.74L319.18,407.83L318.25,407.98L306.24,409.86L305.17,409.97L285.05,412.02L284.22,412.09L246.69,413.72L245.9,413.74L195.53,414.23L194.61,414.23L113.65,414.33L112.71,414.33L-282.95,414.15" style="vector-effect: non-scaling-stroke; fill: none; stroke: rgb(178, 130, 141); stroke-opacity: 1; stroke-width: 2px; opacity: 1;"/></g><g class="points"/><g class="text"/></g><g class="trace scatter tracebf08f8" style="stroke-miterlimit: 2; opacity: 1;"><g class="fills"/><g class="errorbars"/><g class="lines"><path class="js-line" d="M-274.82,414.07L304.25,413.32L305.01,413.3L334.2,412.33L334.67,412.28L361.02,410.31L362.19,410.22L368.35,409.56L369,409.45L384.11,407.36L385.2,407.23L425.4,398.68L426.02,398.45L463.15,385.62L463.69,385.32L470.26,382.56L470.2,382.2L486.54,374.6L486.79,374.25L490.7,371.97L491.83,371.62L510.62,361.41L511.79,360.95L519.38,355.12L520.37,354.69L553.35,332.13L553.56,331.49L556.94,328.58L557.21,328.02L559.21,326.4L559.87,325.83L561.04,324.68L561.75,324.1L566.71,319.66L567.18,319.13L569.86,317.55L570.18,317.04L571.5,316.01L572.52,315.44L589.18,302.57L587.25,302.64L588.11,302.84L587.31,303.28L587.19,303.85L583.53,306.66L583.22,307.27L571.89,316.12L570.88,316.55L568.78,318.87L568,319.47L564.89,322.22L564.28,322.73L561.78,325.17L560.84,325.74L560.72,326.26L559.64,326.76L554.16,332.07L553.59,332.59L547.13,338.25L546.3,338.76L543.54,341.44L542.65,342.01L539.74,343.65L539.02,344.16L536.66,346.06L535.6,346.52L532.17,348.86L531.61,349.3L523.24,354.97L522.52,355.48L520.71,356.74L519.61,357.2L518.75,358.12L517.71,358.51L509.2,363.56L508.38,363.98L505.01,366.14L504.33,366.56L477.19,380.93L476.43,381.27L468.76,384.92L467.68,385.26L463.08,387.15L462.45,387.46L438.38,395.9L437,396.13L431.73,397.72L430.74,397.94L405.26,403.84L403.98,404.08L402.69,404.39L401.65,404.54L371.18,409L369.68,409.1L363.72,409.74L362.71,409.82L344.21,411.35L343.65,411.41L272.68,413.84L271.42,413.85L209.42,414.16L208.22,414.16L-275.78,414.08L-275.45,414.09" style="vector-effect: non-scaling-stroke; fill: none; stroke: rgb(119, 138, 174); stroke-opacity: 1; stroke-width: 2px; opacity: 1;"/></g><g class="points"/><g class="text"/></g><g class="trace scatter traceff7467" style="stroke-miterlimit: 2; opacity: 1;"><g class="fills"/><g class="errorbars"/><g class="lines"><path class="js-line" d="M-275.11,414.08L324.48,413.33L325.48,413.31L367.04,412.1L367.93,412.06L401.15,409.99L402.03,409.91L435.91,406.27L436.74,406.16L458.96,402.71L459.78,402.56L479.68,398.6L480.47,398.42L506.46,391.89L507.09,391.67L523.14,386.77L523.9,386.45L541.75,380.22L542.6,379.93L553.15,375.88L554,375.59L600.19,359.3L601.11,359.05L612.87,355.21L610.89,356.33L610.23,356.75L597.52,363.82L596.68,364.19L580.57,371.66L579.82,371.98L570.8,375.72L570.06,376.02L542.31,385.75L541.38,385.99L535.02,387.94L534.27,388.17L525.68,390.67L524.78,390.88L515.08,393.4L514.29,393.6L490.45,398.89L489.64,399.06L464.14,403.49L463.25,403.62L433.95,407.31L433.03,407.4L417.47,408.88L416.47,408.96L381.91,411.27L381.04,411.32L314.7,413.43L313.78,413.45L178,414.16L177.22,414.16L-275.9,414.09" style="vector-effect: non-scaling-stroke; fill: none; stroke: rgb(119, 138, 174); stroke-opacity: 1; stroke-width: 2px; opacity: 1;"/></g><g class="points"/><g class="text"/></g><g class="trace scatter traced3ac84" style="stroke-miterlimit: 2; opacity: 1;"><g class="fills"/><g class="errorbars"/><g class="lines"><path class="js-line" d="M-279.61,414.1L363.27,413.36L363.54,413.34L420.5,411.87L421.49,411.84L519.01,406.49L519.64,406.42L538.09,404.74L538.46,404.64L637.58,395.57L637.35,395.83L637.13,395.98L612.2,399.84L611.48,399.93L589.35,402.21L588.5,402.34L579.74,403.2L578.12,403.27L574.92,403.58L573.74,403.65L550.54,405.57L549.08,405.63L546.77,405.82L545.61,405.89L537.64,406.47L536.17,406.54L429.13,411.72L428.24,411.75L313.53,413.83L312.1,413.83L261.21,413.98L259.98,413.98L-280.49,414.1L-280,414.01" style="vector-effect: non-scaling-stroke; fill: none; stroke: rgb(108, 124, 50); stroke-opacity: 1; stroke-width: 2px; opacity: 1;"/></g><g class="points"/><g class="text"/></g><g class="trace scatter tracebfb79c" style="stroke-miterlimit: 2; opacity: 1;"><g class="fills"/><g class="errorbars"/><g class="lines"><path class="js-line" d="M-279.58,414.12L340.08,413.37L340.65,413.36L409.94,412.16L410.51,412.14L477.85,409.68L478.78,409.64L549.25,405.54L550.16,405.48L607.95,401.54L608.96,401.46L633.1,399.8L609.69,401.75L608.82,401.82L497.14,408.74L496.25,408.77L423.14,411.62L421.9,411.65L395.87,412.35L394.79,412.37L277.75,413.89L276.77,413.9L-280.22,414.12" style="vector-effect: non-scaling-stroke; fill: none; stroke: rgb(119, 138, 174); stroke-opacity: 1; stroke-width: 2px; opacity: 1;"/></g><g class="points"/><g class="text"/></g><g class="trace scatter trace1e9dc0" style="stroke-miterlimit: 2; opacity: 1;"><g class="fills"/><g class="errorbars"/><g class="lines"><path class="js-line" d="M-279.94,414.09L390.37,413.34L390.86,413.33L520.1,410.95L521.28,410.92L637.91,407.15L480.75,411.97L481.02,411.99L479.23,412.01L424.49,412.91L423.55,412.92L330.41,413.75L328.91,413.76L-280.29,414.08L-279.43,414.08" style="vector-effect: non-scaling-stroke; fill: none; stroke: rgb(119, 138, 174); stroke-opacity: 1; stroke-width: 2px; opacity: 1;"/></g><g class="points"/><g class="text"/></g><g class="trace scatter tracec4ba06" style="stroke-miterlimit: 2; opacity: 1;"><g class="fills"/><g class="errorbars"/><g class="lines"><path class="js-line" d="M-279.37,414.56L-94.59,414.16L-93.56,414.16L393.67,413.41L394.67,413.4L481.78,412.65L482.57,412.64L612.9,410.78L613.89,410.76L638.65,410.42L577.22,411.82L576.16,411.84L481.61,413.04L480.58,413.04L348.32,413.8L347.5,413.8L-280.15,414.38" style="vector-effect: non-scaling-stroke; fill: none; stroke: rgb(134, 42, 22); stroke-opacity: 1; stroke-width: 2px; opacity: 1;"/></g><g class="points"/><g class="text"/></g><g class="trace scatter trace01777e" style="stroke-miterlimit: 2; opacity: 1;"><g class="fills"/><g class="errorbars"/><g class="lines"><path class="js-line" d="M-279.35,415.07L-73.42,414.22L-72.55,414.21L329.29,413.46L330.3,413.45L401.9,412.71L402.74,412.69L482.63,411.05L483.56,411.02L555.75,408.71L556.51,408.67L637.45,405.77L608.47,407.43L607.43,407.48L507.28,411.03L506.22,411.06L391.65,413.15L390.65,413.16L240.93,414.01L239.96,414.01L-279.73,414.65" style="vector-effect: non-scaling-stroke; fill: none; stroke: rgb(134, 42, 22); stroke-opacity: 1; stroke-width: 2px; opacity: 1;"/></g><g class="points"/><g class="text"/></g></g></g><g class="overplot"/><path class="xlines-above crisp" d="M66,438H758" style="fill: none; stroke-width: 2px; stroke: rgb(0, 0, 0); stroke-opacity: 1;"/><path class="ylines-above crisp" d="M67,10V437" style="fill: none; stroke-width: 2px; stroke: rgb(0, 0, 0); stroke-opacity: 1;"/><g class="overlines-above"/><g class="xaxislayer-above"><path class="xtick ticks crisp" d="M0,439v5" transform="translate(68,0)" style="stroke: rgb(68, 68, 68); stroke-opacity: 1; stroke-width: 1px;"/><path class="xtick ticks crisp" d="M0,439v5" transform="translate(160,0)" style="stroke: rgb(68, 68, 68); stroke-opacity: 1; stroke-width: 1px;"/><path class="xtick ticks crisp" d="M0,439v5" transform="translate(252,0)" style="stroke: rgb(68, 68, 68); stroke-opacity: 1; stroke-width: 1px;"/><path class="xtick ticks crisp" d="M0,439v5" transform="translate(344,0)" style="stroke: rgb(68, 68, 68); stroke-opacity: 1; stroke-width: 1px;"/><path class="xtick ticks crisp" d="M0,439v5" transform="translate(436,0)" style="stroke: rgb(68, 68, 68); stroke-opacity: 1; stroke-width: 1px;"/><path class="xtick ticks crisp" d="M0,439v5" transform="translate(528,0)" style="stroke: rgb(68, 68, 68); stroke-opacity: 1; stroke-width: 1px;"/><path class="xtick ticks crisp" d="M0,439v5" transform="translate(620,0)" style="stroke: rgb(68, 68, 68); stroke-opacity: 1; stroke-width: 1px;"/><path class="xtick ticks crisp" d="M0,439v5" transform="translate(712,0)" style="stroke: rgb(68, 68, 68); stroke-opacity: 1; stroke-width: 1px;"/><g class="xtick"><text text-anchor="middle" x="0" y="465.6" transform="translate(68,0)" style="font-family: 'Times New Roman', monospace; font-size: 18px; fill: rgb(105, 105, 105); fill-opacity: 1; white-space: pre; opacity: 1;">0</text></g><g class="xtick"><text text-anchor="middle" x="0" y="465.6" style="font-family: 'Times New Roman', monospace; font-size: 18px; fill: rgb(105, 105, 105); fill-opacity: 1; white-space: pre; opacity: 1;" transform="translate(160,0)">0.1</text></g><g class="xtick"><text text-anchor="middle" x="0" y="465.6" style="font-family: 'Times New Roman', monospace; font-size: 18px; fill: rgb(105, 105, 105); fill-opacity: 1; white-space: pre; opacity: 1;" transform="translate(252,0)">0.2</text></g><g class="xtick"><text text-anchor="middle" x="0" y="465.6" style="font-family: 'Times New Roman', monospace; font-size: 18px; fill: rgb(105, 105, 105); fill-opacity: 1; white-space: pre; opacity: 1;" transform="translate(344,0)">0.3</text></g><g class="xtick"><text text-anchor="middle" x="0" y="465.6" style="font-family: 'Times New Roman', monospace; font-size: 18px; fill: rgb(105, 105, 105); fill-opacity: 1; white-space: pre; opacity: 1;" transform="translate(436,0)">0.4</text></g><g class="xtick"><text text-anchor="middle" x="0" y="465.6" style="font-family: 'Times New Roman', monospace; font-size: 18px; fill: rgb(105, 105, 105); fill-opacity: 1; white-space: pre; opacity: 1;" transform="translate(528,0)">0.5</text></g><g class="xtick"><text text-anchor="middle" x="0" y="465.6" style="font-family: 'Times New Roman', monospace; font-size: 18px; fill: rgb(105, 105, 105); fill-opacity: 1; white-space: pre; opacity: 1;" transform="translate(620,0)">0.6</text></g><g class="xtick"><text text-anchor="middle" x="0" y="465.6" style="font-family: 'Times New Roman', monospace; font-size: 18px; fill: rgb(105, 105, 105); fill-opacity: 1; white-space: pre; opacity: 1;" transform="translate(712,0)">0.7</text></g></g><g class="yaxislayer-above"><path class="ytick ticks crisp" d="M66,0h-5" transform="translate(0,424.06)" style="stroke: rgb(68, 68, 68); stroke-opacity: 1; stroke-width: 1px;"/><path class="ytick ticks crisp" d="M66,0h-5" transform="translate(0,372.3)" style="stroke: rgb(68, 68, 68); stroke-opacity: 1; stroke-width: 1px;"/><path class="ytick ticks crisp" d="M66,0h-5" transform="translate(0,320.55)" style="stroke: rgb(68, 68, 68); stroke-opacity: 1; stroke-width: 1px;"/><path class="ytick ticks crisp" d="M66,0h-5" transform="translate(0,268.79)" style="stroke: rgb(68, 68, 68); stroke-opacity: 1; stroke-width: 1px;"/><path class="ytick ticks crisp" d="M66,0h-5" transform="translate(0,217.03)" style="stroke: rgb(68, 68, 68); stroke-opacity: 1; stroke-width: 1px;"/><path class="ytick ticks crisp" d="M66,0h-5" transform="translate(0,165.27)" style="stroke: rgb(68, 68, 68); stroke-opacity: 1; stroke-width: 1px;"/><path class="ytick ticks crisp" d="M66,0h-5" transform="translate(0,113.52)" style="stroke: rgb(68, 68, 68); stroke-opacity: 1; stroke-width: 1px;"/><path class="ytick ticks crisp" d="M66,0h-5" transform="translate(0,61.76)" style="stroke: rgb(68, 68, 68); stroke-opacity: 1; stroke-width: 1px;"/><path class="ytick ticks crisp" d="M66,0h-5" transform="translate(0,10)" style="stroke: rgb(68, 68, 68); stroke-opacity: 1; stroke-width: 1px;"/><g class="ytick"><text text-anchor="end" x="57.4" y="6.3" transform="translate(0,424.06)" style="font-family: 'Times New Roman', monospace; font-size: 18px; fill: rgb(105, 105, 105); fill-opacity: 1; white-space: pre; opacity: 1;">0</text></g><g class="ytick"><text text-anchor="end" x="57.4" y="6.3" style="font-family: 'Times New Roman', monospace; font-size: 18px; fill: rgb(105, 105, 105); fill-opacity: 1; white-space: pre; opacity: 1;" transform="translate(0,372.3)">20</text></g><g class="ytick"><text text-anchor="end" x="57.4" y="6.3" style="font-family: 'Times New Roman', monospace; font-size: 18px; fill: rgb(105, 105, 105); fill-opacity: 1; white-space: pre; opacity: 1;" transform="translate(0,320.55)">40</text></g><g class="ytick"><text text-anchor="end" x="57.4" y="6.3" style="font-family: 'Times New Roman', monospace; font-size: 18px; fill: rgb(105, 105, 105); fill-opacity: 1; white-space: pre; opacity: 1;" transform="translate(0,268.79)">60</text></g><g class="ytick"><text text-anchor="end" x="57.4" y="6.3" style="font-family: 'Times New Roman', monospace; font-size: 18px; fill: rgb(105, 105, 105); fill-opacity: 1; white-space: pre; opacity: 1;" transform="translate(0,217.03)">80</text></g><g class="ytick"><text text-anchor="end" x="57.4" y="6.3" style="font-family: 'Times New Roman', monospace; font-size: 18px; fill: rgb(105, 105, 105); fill-opacity: 1; white-space: pre; opacity: 1;" transform="translate(0,165.27)">100</text></g><g class="ytick"><text text-anchor="end" x="57.4" y="6.3" style="font-family: 'Times New Roman', monospace; font-size: 18px; fill: rgb(105, 105, 105); fill-opacity: 1; white-space: pre; opacity: 1;" transform="translate(0,113.52)">120</text></g><g class="ytick"><text text-anchor="end" x="57.4" y="6.3" style="font-family: 'Times New Roman', monospace; font-size: 18px; fill: rgb(105, 105, 105); fill-opacity: 1; white-space: pre; opacity: 1;" transform="translate(0,61.76)">140</text></g><g class="ytick"><text text-anchor="end" x="57.4" y="6.3" style="font-family: 'Times New Roman', monospace; font-size: 18px; fill: rgb(105, 105, 105); fill-opacity: 1; white-space: pre; opacity: 1;" transform="translate(0,10)">160</text></g></g><g class="overaxes-above"/></g></g><g class="polarlayer"/><g class="smithlayer"/><g class="ternarylayer"/><g class="geolayer"/><g class="funnelarealayer"/><g class="pielayer"/><g class="iciclelayer"/><g class="treemaplayer"/><g class="sunburstlayer"/><g class="glimages"/><defs id="topdefs-249d76"><g class="clips"/><clipPath id="legend249d76"><rect width="242" height="427" x="0" y="0"/></clipPath></defs><g class="layer-above"><g class="imagelayer"/><g class="shapelayer"/></g><g class="infolayer"><g class="legend" pointer-events="all" transform="translate(758,14.270000000000003)"><rect class="bg" shape-rendering="crispEdges" width="242" height="427" x="0" y="0" style="stroke: rgb(68, 68, 68); stroke-opacity: 1; fill: rgb(255, 255, 255); fill-opacity: 1; stroke-width: 0px;"/><g class="scrollbox" transform="" clip-path="url(#legend249d76)"><g class="groups"><g class="traces" transform="translate(0,18.200000000000003)" style="opacity: 1;"><text class="legendtext" text-anchor="start" x="40" y="7.0200000000000005" style="font-family: 'Times New Roman', monospace; font-size: 18px; fill: rgb(105, 105, 105); fill-opacity: 1; white-space: pre;">Co50 Ni0 Fe50 300C 2h_</text><g class="layers" style="opacity: 1;"><g class="legendfill"/><g class="legendlines"><path class="js-line" d="M5,0h30" style="fill: none; stroke: rgb(46, 145, 229); stroke-opacity: 1; stroke-width: 2px;"/></g><g class="legendsymbols"><g class="legendpoints"/></g></g><rect class="legendtoggle" x="0" y="-13.200000000000001" width="236.015625" height="26.400000000000002" style="fill: rgb(0, 0, 0); fill-opacity: 0;"/></g><g class="traces" transform="translate(0,44.6)" style="opacity: 1;"><text class="legendtext" text-anchor="start" x="40" y="7.0200000000000005" style="font-family: 'Times New Roman', monospace; font-size: 18px; fill: rgb(105, 105, 105); fill-opacity: 1; white-space: pre;">Co50 Ni0 Fe50 300C 2h</text><g class="layers" style="opacity: 1;"><g class="legendfill"/><g class="legendlines"><path class="js-line" d="M5,0h30" style="fill: none; stroke: rgb(46, 145, 229); stroke-opacity: 1; stroke-width: 2px;"/></g><g class="legendsymbols"><g class="legendpoints"/></g></g><rect class="legendtoggle" x="0" y="-13.200000000000001" width="236.015625" height="26.400000000000002" style="fill: rgb(0, 0, 0); fill-opacity: 0;"/></g><g class="traces" transform="translate(0,71)" style="opacity: 1;"><text class="legendtext" text-anchor="start" x="40" y="7.0200000000000005" style="font-family: 'Times New Roman', monospace; font-size: 18px; fill: rgb(105, 105, 105); fill-opacity: 1; white-space: pre;">Co0 Ni50 Fe50 400C 2h</text><g class="layers" style="opacity: 1;"><g class="legendfill"/><g class="legendlines"><path class="js-line" d="M5,0h30" style="fill: none; stroke: rgb(225, 95, 153); stroke-opacity: 1; stroke-width: 2px;"/></g><g class="legendsymbols"><g class="legendpoints"/></g></g><rect class="legendtoggle" x="0" y="-13.200000000000001" width="236.015625" height="26.400000000000002" style="fill: rgb(0, 0, 0); fill-opacity: 0;"/></g><g class="traces" transform="translate(0,97.4)" style="opacity: 1;"><text class="legendtext" text-anchor="start" x="40" y="7.0200000000000005" style="font-family: 'Times New Roman', monospace; font-size: 18px; fill: rgb(105, 105, 105); fill-opacity: 1; white-space: pre;">Co33 Ni33 Fe33 800C 2h</text><g class="layers" style="opacity: 1;"><g class="legendfill"/><g class="legendlines"><path class="js-line" d="M5,0h30" style="fill: none; stroke: rgb(251, 13, 13); stroke-opacity: 1; stroke-width: 2px;"/></g><g class="legendsymbols"><g class="legendpoints"/></g></g><rect class="legendtoggle" x="0" y="-13.200000000000001" width="236.015625" height="26.400000000000002" style="fill: rgb(0, 0, 0); fill-opacity: 0;"/></g><g class="traces" transform="translate(0,123.80000000000001)" style="opacity: 1;"><text class="legendtext" text-anchor="start" x="40" y="7.0200000000000005" style="font-family: 'Times New Roman', monospace; font-size: 18px; fill: rgb(105, 105, 105); fill-opacity: 1; white-space: pre;">Co0 Ni0 Fe100 400C 6h</text><g class="layers" style="opacity: 1;"><g class="legendfill"/><g class="legendlines"><path class="js-line" d="M5,0h30" style="fill: none; stroke: rgb(34, 42, 42); stroke-opacity: 1; stroke-width: 2px;"/></g><g class="legendsymbols"><g class="legendpoints"/></g></g><rect class="legendtoggle" x="0" y="-13.200000000000001" width="236.015625" height="26.400000000000002" style="fill: rgb(0, 0, 0); fill-opacity: 0;"/></g><g class="traces" transform="translate(0,150.2)" style="opacity: 1;"><text class="legendtext" text-anchor="start" x="40" y="7.0200000000000005" style="font-family: 'Times New Roman', monospace; font-size: 18px; fill: rgb(105, 105, 105); fill-opacity: 1; white-space: pre;">Co0 Ni0 Fe100 400C 6h</text><g class="layers" style="opacity: 1;"><g class="legendfill"/><g class="legendlines"><path class="js-line" d="M5,0h30" style="fill: none; stroke: rgb(34, 42, 42); stroke-opacity: 1; stroke-width: 2px;"/></g><g class="legendsymbols"><g class="legendpoints"/></g></g><rect class="legendtoggle" x="0" y="-13.200000000000001" width="236.015625" height="26.400000000000002" style="fill: rgb(0, 0, 0); fill-opacity: 0;"/></g><g class="traces" transform="translate(0,176.6)" style="opacity: 1;"><text class="legendtext" text-anchor="start" x="40" y="7.0200000000000005" style="font-family: 'Times New Roman', monospace; font-size: 18px; fill: rgb(105, 105, 105); fill-opacity: 1; white-space: pre;">Co25 Ni0 Fe75 800C 6h</text><g class="layers" style="opacity: 1;"><g class="legendfill"/><g class="legendlines"><path class="js-line" d="M5,0h30" style="fill: none; stroke: rgb(117, 13, 134); stroke-opacity: 1; stroke-width: 2px;"/></g><g class="legendsymbols"><g class="legendpoints"/></g></g><rect class="legendtoggle" x="0" y="-13.200000000000001" width="236.015625" height="26.400000000000002" style="fill: rgb(0, 0, 0); fill-opacity: 0;"/></g><g class="traces" transform="translate(0,203)" style="opacity: 1;"><text class="legendtext" text-anchor="start" x="40" y="7.0200000000000005" style="font-family: 'Times New Roman', monospace; font-size: 18px; fill: rgb(105, 105, 105); fill-opacity: 1; white-space: pre;">Co25 Ni0 Fe75 800C 6h</text><g class="layers" style="opacity: 1;"><g class="legendfill"/><g class="legendlines"><path class="js-line" d="M5,0h30" style="fill: none; stroke: rgb(117, 13, 134); stroke-opacity: 1; stroke-width: 2px;"/></g><g class="legendsymbols"><g class="legendpoints"/></g></g><rect class="legendtoggle" x="0" y="-13.200000000000001" width="236.015625" height="26.400000000000002" style="fill: rgb(0, 0, 0); fill-opacity: 0;"/></g><g class="traces" transform="translate(0,229.4)" style="opacity: 1;"><text class="legendtext" text-anchor="start" x="40" y="7.0200000000000005" style="font-family: 'Times New Roman', monospace; font-size: 18px; fill: rgb(105, 105, 105); fill-opacity: 1; white-space: pre;">Co0 Ni25 Fe75 600C 12h</text><g class="layers" style="opacity: 1;"><g class="legendfill"/><g class="legendlines"><path class="js-line" d="M5,0h30" style="fill: none; stroke: rgb(0, 160, 139); stroke-opacity: 1; stroke-width: 2px;"/></g><g class="legendsymbols"><g class="legendpoints"/></g></g><rect class="legendtoggle" x="0" y="-13.200000000000001" width="236.015625" height="26.400000000000002" style="fill: rgb(0, 0, 0); fill-opacity: 0;"/></g><g class="traces" transform="translate(0,255.8)" style="opacity: 1;"><text class="legendtext" text-anchor="start" x="40" y="7.0200000000000005" style="font-family: 'Times New Roman', monospace; font-size: 18px; fill: rgb(105, 105, 105); fill-opacity: 1; white-space: pre;">Co50 Ni25 Fe25 400C 24h</text><g class="layers" style="opacity: 1;"><g class="legendfill"/><g class="legendlines"><path class="js-line" d="M5,0h30" style="fill: none; stroke: rgb(178, 130, 141); stroke-opacity: 1; stroke-width: 2px;"/></g><g class="legendsymbols"><g class="legendpoints"/></g></g><rect class="legendtoggle" x="0" y="-13.200000000000001" width="236.015625" height="26.400000000000002" style="fill: rgb(0, 0, 0); fill-opacity: 0;"/></g><g class="traces" transform="translate(0,282.2)" style="opacity: 1;"><text class="legendtext" text-anchor="start" x="40" y="7.0200000000000005" style="font-family: 'Times New Roman', monospace; font-size: 18px; fill: rgb(105, 105, 105); fill-opacity: 1; white-space: pre;">Co75 Ni0 Fe25 800C 24h</text><g class="layers" style="opacity: 1;"><g class="legendfill"/><g class="legendlines"><path class="js-line" d="M5,0h30" style="fill: none; stroke: rgb(119, 138, 174); stroke-opacity: 1; stroke-width: 2px;"/></g><g class="legendsymbols"><g class="legendpoints"/></g></g><rect class="legendtoggle" x="0" y="-13.200000000000001" width="236.015625" height="26.400000000000002" style="fill: rgb(0, 0, 0); fill-opacity: 0;"/></g><g class="traces" transform="translate(0,308.59999999999997)" style="opacity: 1;"><text class="legendtext" text-anchor="start" x="40" y="7.0200000000000005" style="font-family: 'Times New Roman', monospace; font-size: 18px; fill: rgb(105, 105, 105); fill-opacity: 1; white-space: pre;">Co75 Ni0 Fe25 800C 24h</text><g class="layers" style="opacity: 1;"><g class="legendfill"/><g class="legendlines"><path class="js-line" d="M5,0h30" style="fill: none; stroke: rgb(119, 138, 174); stroke-opacity: 1; stroke-width: 2px;"/></g><g class="legendsymbols"><g class="legendpoints"/></g></g><rect class="legendtoggle" x="0" y="-13.200000000000001" width="236.015625" height="26.400000000000002" style="fill: rgb(0, 0, 0); fill-opacity: 0;"/></g><g class="traces" transform="translate(0,334.99999999999994)" style="opacity: 1;"><text class="legendtext" text-anchor="start" x="40" y="7.0200000000000005" style="font-family: 'Times New Roman', monospace; font-size: 18px; fill: rgb(105, 105, 105); fill-opacity: 1; white-space: pre;">Co0 Ni100 Fe0 800C 12h</text><g class="layers" style="opacity: 1;"><g class="legendfill"/><g class="legendlines"><path class="js-line" d="M5,0h30" style="fill: none; stroke: rgb(108, 124, 50); stroke-opacity: 1; stroke-width: 2px;"/></g><g class="legendsymbols"><g class="legendpoints"/></g></g><rect class="legendtoggle" x="0" y="-13.200000000000001" width="236.015625" height="26.400000000000002" style="fill: rgb(0, 0, 0); fill-opacity: 0;"/></g><g class="traces" transform="translate(0,361.3999999999999)" style="opacity: 1;"><text class="legendtext" text-anchor="start" x="40" y="7.0200000000000005" style="font-family: 'Times New Roman', monospace; font-size: 18px; fill: rgb(105, 105, 105); fill-opacity: 1; white-space: pre;">Co75 Ni25 Fe0 300C 24h</text><g class="layers" style="opacity: 1;"><g class="legendfill"/><g class="legendlines"><path class="js-line" d="M5,0h30" style="fill: none; stroke: rgb(119, 138, 174); stroke-opacity: 1; stroke-width: 2px;"/></g><g class="legendsymbols"><g class="legendpoints"/></g></g><rect class="legendtoggle" x="0" y="-13.200000000000001" width="236.015625" height="26.400000000000002" style="fill: rgb(0, 0, 0); fill-opacity: 0;"/></g><g class="traces" transform="translate(0,387.7999999999999)" style="opacity: 1;"><text class="legendtext" text-anchor="start" x="40" y="7.0200000000000005" style="font-family: 'Times New Roman', monospace; font-size: 18px; fill: rgb(105, 105, 105); fill-opacity: 1; white-space: pre;">Co75 Ni25 Fe0 300C 24h</text><g class="layers" style="opacity: 1;"><g class="legendfill"/><g class="legendlines"><path class="js-line" d="M5,0h30" style="fill: none; stroke: rgb(119, 138, 174); stroke-opacity: 1; stroke-width: 2px;"/></g><g class="legendsymbols"><g class="legendpoints"/></g></g><rect class="legendtoggle" x="0" y="-13.200000000000001" width="236.015625" height="26.400000000000002" style="fill: rgb(0, 0, 0); fill-opacity: 0;"/></g><g class="traces" transform="translate(0,414.1999999999999)" style="opacity: 1;"><text class="legendtext" text-anchor="start" x="40" y="7.0200000000000005" style="font-family: 'Times New Roman', monospace; font-size: 18px; fill: rgb(105, 105, 105); fill-opacity: 1; white-space: pre;">Co50 Ni50 Fe0 300C 6h</text><g class="layers" style="opacity: 1;"><g class="legendfill"/><g class="legendlines"><path class="js-line" d="M5,0h30" style="fill: none; stroke: rgb(134, 42, 22); stroke-opacity: 1; stroke-width: 2px;"/></g><g class="legendsymbols"><g class="legendpoints"/></g></g><rect class="legendtoggle" x="0" y="-13.200000000000001" width="236.015625" height="26.400000000000002" style="fill: rgb(0, 0, 0); fill-opacity: 0;"/></g><g class="traces" transform="translate(0,440.59999999999985)" style="opacity: 1;"><text class="legendtext" text-anchor="start" x="40" y="7.0200000000000005" style="font-family: 'Times New Roman', monospace; font-size: 18px; fill: rgb(105, 105, 105); fill-opacity: 1; white-space: pre;">Co50 Ni50 Fe0 300C 6h</text><g class="layers" style="opacity: 1;"><g class="legendfill"/><g class="legendlines"><path class="js-line" d="M5,0h30" style="fill: none; stroke: rgb(134, 42, 22); stroke-opacity: 1; stroke-width: 2px;"/></g><g class="legendsymbols"><g class="legendpoints"/></g></g><rect class="legendtoggle" x="0" y="-13.200000000000001" width="236.015625" height="26.400000000000002" style="fill: rgb(0, 0, 0); fill-opacity: 0;"/></g></g></g><rect class="scrollbar" rx="20" ry="3" width="0" height="0" x="0" y="0" style="fill: rgb(128, 139, 164); fill-opacity: 1;"/></g><g class="g-gtitle"/><g class="g-xtitle" transform="translate(0,-7.634374999999977)"><text class="xtitle" x="413" y="500.009375" text-anchor="middle" style="font-family: 'Times New Roman', monospace; font-size: 22px; fill: rgb(105, 105, 105); opacity: 1; font-weight: normal; white-space: pre;">Overpotential, η(V) - iR​<tspan style="font-size:70%" dy="0.3em">u</tspan><tspan dy="-0.21em">​</tspan></text></g><g class="g-ytitle" transform="translate(23.259765625,0)"><text class="ytitle" transform="rotate(-90,-0.009375000000005684,223.5)" x="-0.009375000000005684" y="223.5" text-anchor="middle" style="font-family: 'Times New Roman', monospace; font-size: 22px; fill: rgb(105, 105, 105); opacity: 1; font-weight: normal; white-space: pre;">Current (mA/cm​<tspan style="font-size:70%" dy="-0.6em">2</tspan><tspan dy="0.42em">​</tspan>)</text></g></g></svg>