<svg class="main-svg" xmlns="http://www.w3.org/2000/svg" xmlns:xlink="http://www.w3.org/1999/xlink" width="500" height="500" style="" viewBox="0 0 500 500"><rect x="0" y="0" width="500" height="500" style="fill: rgb(255, 255, 255); fill-opacity: 1;"/><defs id="defs-85bcb1"><g class="clips"><clipPath id="clip85bcb1xyplot" class="plotclip"><rect width="408" height="428"/></clipPath><clipPath class="axesclip" id="clip85bcb1x"><rect x="78" y="0" width="408" height="500"/></clipPath><clipPath class="axesclip" id="clip85bcb1y"><rect x="0" y="0" width="500" height="428"/></clipPath><clipPath class="axesclip" id="clip85bcb1xy"><rect x="78" y="0" width="408" height="428"/></clipPath></g><g class="gradients"/><g class="patterns"/></defs><g class="bglayer"><rect class="bg" x="78" y="0" width="408" height="428" style="fill: rgb(0, 0, 0); fill-opacity: 0; stroke-width: 0;"/></g><g class="layer-below"><g class="imagelayer"/><g class="shapelayer"/></g><g class="cartesianlayer"><g class="subplot xy"><g class="layer-subplot"><g class="shapelayer"/><g class="imagelayer"/></g><g class="minor-gridlayer"><g class="x"/><g class="y"/></g><g class="gridlayer"><g class="x"/><g class="y"/></g><g class="zerolinelayer"><path class="yzl zl crisp" transform="translate(0,420.98)" d="M78,0h408" style="stroke: rgb(128, 128, 128); stroke-opacity: 1; stroke-width: 1px;"/></g><path class="xlines-below"/><path class="ylines-below"/><g class="overlines-below"/><g class="xaxislayer-below"/><g class="yaxislayer-below"/><g class="overaxes-below"/><g class="plot" transform="translate(78,0)" clip-path="url(#clip85bcb1xyplot)"><g class="scatterlayer mlayer"><g class="trace scatter trace354400" style="stroke-miterlimit: 2; opacity: 1;"><g class="fills"/><g class="errorbars"/><g class="lines"><path class="js-line" d="M-178.87,421.15L-150,420.67L-148.96,420.66L-17.51,420.61L-18.13,420.61L-15.97,420.62L-16.28,420.62L158.21,419.89L157.84,419.86L170.87,418.77L171.1,418.68L170.5,418.6L173.47,418.32L173.02,418.24L173.38,418.14L178.43,417.36L178.42,417.26L179.59,417.12L181.57,416.55L182.25,416.41L182.34,416.09L183.83,415.93L189.28,414.22L189.04,414.02L189.14,413.79L193.83,411.86L193.71,411.59L198.26,409.59L198.26,409.28L202.02,407.65L201.47,407.31L203.72,406.26L203.95,405.9L205.58,404.76L205.77,404.38L207.6,403.98L206.78,403.59L207.58,403.18L207.97,402.78L209.52,402.37L209,401.53L209.75,401.1L212.12,399.77L211.95,399.32L213.85,397.91L213.45,397.45L216.03,395.98L215.71,395.5L217.73,394.99L217.2,394.48L218.17,393.95L217.48,393.43L218.33,392.92L220.38,391.83L219.82,391.28L222.07,389.63L221.35,389.07L223.71,387.35L224.69,386.77L224.31,386.18L225.2,385.6L226.08,384.39L225.73,383.54L227.86,382.36L228.48,381.71L227.83,381.09L229.35,380.49L229.07,379.88L230.75,379.2L229.91,378.53L230.47,377.91L232.56,377.26L231.66,376.6L232.11,375.26L233.97,374.61L233.65,373.24L234.97,372.57L236.9,369.75L236.9,369.07L238.34,368.35L237.9,367.59L239.03,366.88L238.34,366.18L240.36,364.7L240.17,363.97L241.81,361.74L242.13,360.96L243.57,359.47L243.53,358.63L243.6,357.07L244.8,356.34L245.71,355.55L245.2,354.73L245.37,353.93L246.85,353.18L246.89,352.38L248.44,351.53L246.48,350.69L248.42,349.91L249.51,348.2L249.21,347.36L251.38,344.88L250.99,344.01L251.48,343.2L253.1,342.37L252.59,341.49L253.49,340.57L252.76,339.73L254.8,338.87L254.24,336.2L256,335.35L257.33,333.55L256.16,332.64L258.54,330.91L258.79,329.96L257.87,329L259.85,328.1L259.88,327.18L260.94,326.2L260.04,325.22L260.32,324.32L260.52,323.39L262.92,322.43L261.91,321.48L262.18,320.55L262.85,319.66L264.9,318.66L263.34,317.65L264.87,316.68L264.5,315.78L266.06,314.81L265.48,312.76L266.41,311.79L267.78,309.83L267.31,308.86L267.49,307.91L269.26,306.94L269.38,304.8L269.36,303.78L271.06,301.71L270.99,300.67L270.83,299.7L271.5,298.69L273.38,297.67L272.12,296.54L273.46,295.52L272.66,294.5L274.62,293.44L274.16,292.36L276.72,287.13L275.95,285.78L277.57,284.45L277.44,283.29L278.05,281.13L278.74,280.07L279.83,278.97L279.48,277.84L280.37,275.55L281.13,274.43L280.96,272.16L281.57,271.06L283.29,270.05L282.91,268.87L283.51,267.79L282.8,266.71L284.48,265.62L283.84,264.41L285.09,263.29L284.61,262.13L286.19,261.02L286.28,259.87L285.88,258.72L286.78,257.64L286.8,256.5L287.72,255.31L287.32,254.08L288.09,252.89L288.25,251.8L289.51,250.65L289.59,247.16L290.64,246.02L290.65,244.78L291.49,243.54L290.2,242.35L292,241.14L293.68,240L291.7,238.84L294.35,235.33L294.28,234L294.92,231.54L296.37,230.24L295.93,226.65L296.97,225.43L298,224.14L297.29,222.85L299,219.06L298.91,217.85L301.07,211.53L300.83,210.29L302.16,209.02L302.08,207.77L302.57,205.11L303.77,203.77L303.06,202.44L304.04,201.08L304.9,197.26L304.12,196.04L306.56,193.54L306.66,192.3L306.49,189.65L307.74,188.42L308.4,185.74L307.88,184.34L309.89,181.66L309.83,180.29L309.21,179.04L310.25,177.82L311.26,175.1L310.7,173.67L312.83,171.18L312.35,169.88L312.65,168.57L312.11,167.3L314.76,166.04L314.46,164.63L313.4,163.16L314.85,161.75L314.63,160.26L316.24,158.98L315.17,157.61L315.62,156.27L316.21,154.99L317.91,153.69L317.2,152.43L317.53,151.13L317.51,149.73L319.09,148.37L318.37,144.29L320.35,142.81L319.97,139.97L320.58,138.69L321.91,135.9L322.02,134.6L322.45,131.78L323.24,130.25L323.25,126.07L324.82,124.86L324.93,122.23L325.23,120.87L326.59,119.47L326.37,117.83L325.34,116.43L326.68,115.07L327.6,112.07L327.83,110.68L327.46,109.33L328.85,107.97L329.29,106.63L328.74,104.76L330.68,96.52L330.95,95.12L332.49,92.33L331.56,91L332.27,88.23L332.7,86.42L333.42,84.75L333.16,83.27L334.27,81.83L334.27,80.56L334.62,77.18L335.46,75.41L335.96,72.58L336.86,71.22L336.85,69.81L337.59,68.37L338.15,66.84L337.42,65.32L339.19,61.12L338.63,59.75L339.41,56.77L340.13,54.97L340.53,52.39L340.79,51.25L341.43,50.47L340.61,51.93L341.09,53.77L339.34,59.12L339.99,60.41L338.41,62.28L338.08,63.96L338.97,67.13L338.16,68.83L337.09,70.79L337.82,72.53L337.39,74.02L336.12,75.68L335.53,77.4L336.41,79L334.84,85.7L335.33,87.39L333.15,90.24L333.24,91.9L333.72,95.2L331.3,96.58L332.07,98.21L331.47,99.94L332.58,101.37L330.92,102.91L330.41,104.3L331.09,106L330.77,109.2L329.28,110.55L328.72,111.9L329.71,113.49L329.75,114.99L328.19,116.57L326.87,118.23L327.75,119.98L328.35,121.38L327.27,122.86L326.2,126.24L326.91,127.54L325.86,130.39L324.86,132.18L325.63,133.8L324.63,135.25L323.63,136.67L323.91,138.18L324.16,139.71L322.88,141.09L321.7,142.63L322.21,144.1L322.96,145.55L322.47,146.98L320.94,148.47L321.25,149.97L319.3,157.43L318.67,158.89L319.01,160.39L318.41,161.92L318.5,164.71L316.87,166.13L316.36,167.48L317,168.98L316.41,171.88L315.43,173.41L315.37,177.58L314.03,179.01L312.05,187.61L312.52,188.87L310.87,191.77L310.85,193.22L311.02,194.65L309.63,195.92L308.89,198.7L309.77,200.05L309.51,201.32L307.86,202.59L307.31,204.02L308.53,205.39L306.76,208.04L306.75,209.45L304.98,216.33L304.84,217.68L303.59,220.21L303.45,221.52L303.89,222.77L303.33,224.06L300.8,226.77L302.44,228.2L300.06,231.91L301.3,233.2L298.85,235.66L299.42,236.92L298.16,239.42L298.13,240.59L297.03,241.9L297.07,243.18L296.5,245.61L295.58,246.92L295.5,248.23L296.33,249.57L294.26,253.08L294.29,254.29L293.79,255.45L292.31,256.69L292.76,259.02L291.82,260.19L290.18,263.76L290.53,264.92L288.61,268.51L289.33,269.75L288.24,272.16L286.77,273.32L287.35,274.46L285.99,275.55L285.9,277.83L286.16,279.02L283.45,285.65L282.27,286.77L282.09,289.73L280.87,290.85L280.5,292.05L280.97,293.16L279.01,296.37L279.17,297.45L277.59,299.52L277.62,300.64L277.72,301.78L276.34,302.82L275.5,304.91L276.04,305.94L274.89,307.98L274.08,309L273.42,310.05L274.23,311.06L274.1,312.04L272.31,313.12L271.78,314.14L272.3,315.16L270.48,319.12L270.35,320.06L268.19,322.03L268.49,323L268.73,323.94L267.49,324.86L266.67,325.9L267.31,326.87L267.35,327.8L266.12,328.72L265.33,329.66L265.52,330.64L265.44,331.54L264.15,332.44L263.24,333.35L264.54,334.29L263.41,335.21L263.61,336.09L261.37,336.99L262.19,337.96L262.07,338.88L261.15,339.74L259.69,340.62L259.89,341.51L260.46,342.44L259.33,343.27L257.48,344.94L258.39,345.83L255.34,349.2L256.6,350.03L254.05,351.64L254.48,352.52L253.68,354.12L252.09,354.86L252.09,357.32L251.32,358.06L249.66,358.88L250.18,359.69L250.87,360.45L250.04,361.19L248.29,361.98L248.34,362.79L248.97,363.55L248.16,364.25L246.26,365.74L246.24,366.49L246.53,367.16L245.09,367.87L243.95,368.65L244.64,369.38L245.4,370.05L242.31,370.73L242.97,372.16L242.44,372.86L241.3,374.17L240.29,374.91L240.81,375.55L239.42,376.21L239.46,376.85L238.48,377.57L237.37,379.46L236.82,380.13L235.41,381.95L234.05,382.56L234.69,383.21L233.89,383.79L232.31,385.62L232.94,386.16L230.13,387.29L231.03,387.89L228.19,390.08L228.81,390.62L226.31,392.23L225.94,392.77L226.09,393.27L225.09,393.72L224.05,394.28L224.97,394.81L222.25,396.24L222.88,396.7L220.72,397.63L220.1,398.07L219.71,399.06L218.2,399.46L217.44,399.9L218.72,400.38L216.99,401.23L215.68,401.6L215.26,402.03L216.41,402.47L213.13,403.63L213.75,404.09L213.53,404.44L211.59,405.35L212.04,405.69L211.23,406.05L209.08,407.09L209.25,407.44L206.86,408.43L207.22,408.76L202.76,410.56L202.3,410.85L202.37,411.4L200.6,411.67L198.97,412.7L197.73,412.97L198.59,413.2L197.85,413.44L196.31,413.66L193.33,414.75L193.74,414.96L193.87,415.16L189.04,416.25L189.44,416.44L189.24,416.6L181.29,418.15L182.38,418.28L179.63,418.82L178.38,418.9L154.83,420.95L153.48,420.96L153.66,420.99L136.7,421.18L136.51,421.17L69.53,421.29L69.86,421.29L67.62,421.28L11.88,421.33L9.74,421.33L11.08,421.34L-208.67,421.07" style="vector-effect: non-scaling-stroke; fill: none; stroke: rgb(46, 145, 229); stroke-opacity: 1; stroke-width: 2px; opacity: 1;"/></g><g class="points"/><g class="text"/></g><g class="trace scatter trace78992f" style="stroke-miterlimit: 2; opacity: 1;"><g class="fills"/><g class="errorbars"/><g class="lines"><path class="js-line" d="M-178.78,421L253.8,420.25L254.45,420.23L278.52,418.78L279.22,418.73L300.8,416.27L301.31,416.19L320.38,412.98L320.88,412.87L330.29,410.88L330.79,410.75L341.41,408.26L341.77,408.12L366.93,400.89L367.21,400.72L378.19,397.11L378.74,396.92L396.17,390.53L391.11,392.96L390.7,393.22L387.65,394.66L387.1,394.9L367.49,402.71L366.98,402.89L340.01,410.21L339.35,410.33L318.09,414.19L317.54,414.28L314.51,414.77L313.83,414.85L265.44,419.43L264.83,419.46L228.24,420.67L227.76,420.67L154.71,420.96L154,420.96L-179.58,421" style="vector-effect: non-scaling-stroke; fill: none; stroke: rgb(251, 13, 13); stroke-opacity: 1; stroke-width: 2px; opacity: 1;"/></g><g class="points"/><g class="text"/></g><g class="trace scatter trace9feb19" style="stroke-miterlimit: 2; opacity: 1;"><g class="fills"/><g class="errorbars"/><g class="lines"><path class="js-line" d="M-178.45,421.83L-46.76,420.98L-46.23,420.98L41.73,420.23L42.4,420.22L142.33,417.98L142.83,417.95L180.1,416.12L180.59,416.08L220.62,411.87L221.05,411.78L240.32,408.07L241,407.94L271.15,398.97L271.63,398.77L289.03,391.76L289.55,391.44L293.79,389.52L294.17,389.27L298.72,387.22L299.09,386.97L304.63,384.32L304.92,384.04L309.44,381.84L309.81,381.57L317.34,377.48L317.62,377.18L329.06,370.59L329.38,370.26L330.44,369.62L331.11,369.32L332.42,368.31L332.99,367.99L354.41,354.25L354.7,353.87L387.2,333.23L386.82,333.54L375.02,344.92L374.27,345.33L371.6,347.8L370.98,348.21L367.72,350.7L367.29,351.06L365.74,352.29L365.12,352.73L363.83,353.86L363.23,354.27L359.26,357.29L358.56,357.63L349.95,363.65L349.31,363.97L347.98,365.05L347.46,365.39L342.62,368.2L342.17,368.52L327.4,377.13L326.91,377.41L315.91,383.18L315,383.47L311.64,385.32L310.99,385.57L282.51,397.58L281.76,397.78L264.75,403.42L264.09,403.58L263.48,403.92L262.56,404.08L252.2,407.01L251.59,407.16L220.82,413.95L220.1,414.05L189.99,418.32L189.41,418.38L161.76,420.73L161.28,420.76L121.37,422.47L120.95,422.49L54.52,423.13L54.02,423.12L-179.1,421.9" style="vector-effect: non-scaling-stroke; fill: none; stroke: rgb(218, 22, 255); stroke-opacity: 1; stroke-width: 2px; opacity: 1;"/></g><g class="points"/><g class="text"/></g><g class="trace scatter trace50b5f9" style="stroke-miterlimit: 2; opacity: 1;"><g class="fills"/><g class="errorbars"/><g class="lines"><path class="js-line" d="M-178.7,420.99L322.56,420.24L323.08,420.23L383.14,419.48L383.74,419.47L403.55,419.22L253.99,420.83L253.42,420.83L-178.94,420.99L-178.65,420.99" style="vector-effect: non-scaling-stroke; fill: none; stroke: rgb(34, 42, 42); stroke-opacity: 1; stroke-width: 2px; opacity: 1;"/></g><g class="points"/><g class="text"/></g><g class="trace scatter trace830866" style="stroke-miterlimit: 2; opacity: 1;"><g class="fills"/><g class="errorbars"/><g class="lines"><path class="js-line" d="M-178.6,421.4L-24.7,419.21L-24.21,419.22L51.45,418.84L51.89,418.8L60.87,417.49L61.39,417.39L69.45,416.88L70.11,416.91L104.15,418.84L104.72,418.85L143.82,418.74L144.46,418.72L162.91,417.35L163.46,417.27L173.6,414.72L174.24,414.52L184.46,409.18L184.91,408.81L186.42,407.66L187.07,407.26L189.4,405.17L190.05,404.73L194.96,399.88L195.36,399.37L202.58,391.24L202.91,390.63L205.69,386.85L206.41,386.2L209.18,382.21L209.56,381.52L225.96,353.91L226.49,352.84L231.4,343.49L231.78,342.64L251.78,300.35L252.09,299.27L270.89,252.68L271.12,251.61L281.31,224.48L281.6,223.14L288.31,203.41L288.67,202.36L290.68,196.38L291.11,195.22L308.5,141.49L308.78,139.72L310.85,133.66L311.36,132.21L314.07,123.88L314.41,122.76L315.82,117.43L316.43,116.48L317.61,111.67L317.81,108.87L318.58,101.85L318.95,100.58L339.42,27.39L339.28,28.09L339,29.62L332.22,56.98L331.65,58.39L330.55,64.33L329.87,65.75L329.08,69.02L328.53,70.14L326.09,81.38L325.41,82.79L324.46,87.05L324.19,88.38L322.6,93.54L322.41,95.11L320.66,100.15L320.56,101.64L320.06,103.02L319.38,102.48L318.75,102.25L318.42,103.8L316.63,110.5L316.17,111.79L315.09,115.32L314.8,116.73L311.12,130.07L310.57,131.23L307.83,139.83L307.64,141.19L305.91,147.78L305.28,149.02L300.19,166.76L299.74,167.88L286.15,209.59L285.68,210.61L276.26,237.69L275.69,238.66L251.36,299.07L250.71,300.03L243.41,316.18L242.88,317.12L239.9,323.44L239.46,324.33L229.25,343.99L228.75,344.83L223.45,354.55L222.88,355.34L210,376.01L209.24,376.71L208.33,378.78L207.56,379.45L204.71,383.39L204.55,384.04L186.81,404.02L186.18,404.48L182.94,407.12L182.46,407.53L179.39,409.99L178.54,410.36L168.02,416.3L167.41,416.53L160.99,418.78L160.46,418.92L148.72,420.96L148.25,421.02L135.02,421.81L134.38,421.82L98.86,422.12L98.33,422.12L20.87,423.47L20.29,423.53L10.92,424.28L10.26,424.27L-179.04,421.41" style="vector-effect: non-scaling-stroke; fill: none; stroke: rgb(28, 167, 28); stroke-opacity: 1; stroke-width: 2px; opacity: 1;"/></g><g class="points"/><g class="text"/></g></g></g><g class="overplot"/><path class="xlines-above crisp" d="M76,429H486" style="fill: none; stroke-width: 2px; stroke: rgb(0, 0, 0); stroke-opacity: 1;"/><path class="ylines-above crisp" d="M77,0V428" style="fill: none; stroke-width: 2px; stroke: rgb(0, 0, 0); stroke-opacity: 1;"/><g class="overlines-above"/><g class="xaxislayer-above"><path class="xtick ticks crisp" d="M0,430v5" transform="translate(78,0)" style="stroke: rgb(68, 68, 68); stroke-opacity: 1; stroke-width: 1px;"/><path class="xtick ticks crisp" d="M0,430v5" transform="translate(136.29,0)" style="stroke: rgb(68, 68, 68); stroke-opacity: 1; stroke-width: 1px;"/><path class="xtick ticks crisp" d="M0,430v5" transform="translate(194.57,0)" style="stroke: rgb(68, 68, 68); stroke-opacity: 1; stroke-width: 1px;"/><path class="xtick ticks crisp" d="M0,430v5" transform="translate(252.86,0)" style="stroke: rgb(68, 68, 68); stroke-opacity: 1; stroke-width: 1px;"/><path class="xtick ticks crisp" d="M0,430v5" transform="translate(311.14,0)" style="stroke: rgb(68, 68, 68); stroke-opacity: 1; stroke-width: 1px;"/><path class="xtick ticks crisp" d="M0,430v5" transform="translate(369.43,0)" style="stroke: rgb(68, 68, 68); stroke-opacity: 1; stroke-width: 1px;"/><path class="xtick ticks crisp" d="M0,430v5" transform="translate(427.71,0)" style="stroke: rgb(68, 68, 68); stroke-opacity: 1; stroke-width: 1px;"/><path class="xtick ticks crisp" d="M0,430v5" transform="translate(486,0)" style="stroke: rgb(68, 68, 68); stroke-opacity: 1; stroke-width: 1px;"/><g class="xtick"><text text-anchor="middle" x="0" y="461.4" transform="translate(78,0)" style="font-family: 'Times New Roman', monospace; font-size: 22px; fill: rgb(105, 105, 105); fill-opacity: 1; white-space: pre; opacity: 1;">0</text></g><g class="xtick"><text text-anchor="middle" x="0" y="461.4" style="font-family: 'Times New Roman', monospace; font-size: 22px; fill: rgb(105, 105, 105); fill-opacity: 1; white-space: pre; opacity: 1;" transform="translate(136.29,0)">0.1</text></g><g class="xtick"><text text-anchor="middle" x="0" y="461.4" style="font-family: 'Times New Roman', monospace; font-size: 22px; fill: rgb(105, 105, 105); fill-opacity: 1; white-space: pre; opacity: 1;" transform="translate(194.57,0)">0.2</text></g><g class="xtick"><text text-anchor="middle" x="0" y="461.4" style="font-family: 'Times New Roman', monospace; font-size: 22px; fill: rgb(105, 105, 105); fill-opacity: 1; white-space: pre; opacity: 1;" transform="translate(252.86,0)">0.3</text></g><g class="xtick"><text text-anchor="middle" x="0" y="461.4" style="font-family: 'Times New Roman', monospace; font-size: 22px; fill: rgb(105, 105, 105); fill-opacity: 1; white-space: pre; opacity: 1;" transform="translate(311.14,0)">0.4</text></g><g class="xtick"><text text-anchor="middle" x="0" y="461.4" style="font-family: 'Times New Roman', monospace; font-size: 22px; fill: rgb(105, 105, 105); fill-opacity: 1; white-space: pre; opacity: 1;" transform="translate(369.43,0)">0.5</text></g><g class="xtick"><text text-anchor="middle" x="0" y="461.4" style="font-family: 'Times New Roman', monospace; font-size: 22px; fill: rgb(105, 105, 105); fill-opacity: 1; white-space: pre; opacity: 1;" transform="translate(427.71,0)">0.6</text></g><g class="xtick"><text text-anchor="middle" x="0" y="461.4" style="font-family: 'Times New Roman', monospace; font-size: 22px; fill: rgb(105, 105, 105); fill-opacity: 1; white-space: pre; opacity: 1;" transform="translate(486,0)">0.7</text></g></g><g class="yaxislayer-above"><path class="ytick ticks crisp" d="M76,0h-5" transform="translate(0,420.98)" style="stroke: rgb(68, 68, 68); stroke-opacity: 1; stroke-width: 1px;"/><path class="ytick ticks crisp" d="M76,0h-5" transform="translate(0,364.85)" style="stroke: rgb(68, 68, 68); stroke-opacity: 1; stroke-width: 1px;"/><path class="ytick ticks crisp" d="M76,0h-5" transform="translate(0,308.72)" style="stroke: rgb(68, 68, 68); stroke-opacity: 1; stroke-width: 1px;"/><path class="ytick ticks crisp" d="M76,0h-5" transform="translate(0,252.59)" style="stroke: rgb(68, 68, 68); stroke-opacity: 1; stroke-width: 1px;"/><path class="ytick ticks crisp" d="M76,0h-5" transform="translate(0,196.46)" style="stroke: rgb(68, 68, 68); stroke-opacity: 1; stroke-width: 1px;"/><path class="ytick ticks crisp" d="M76,0h-5" transform="translate(0,140.33)" style="stroke: rgb(68, 68, 68); stroke-opacity: 1; stroke-width: 1px;"/><path class="ytick ticks crisp" d="M76,0h-5" transform="translate(0,84.2)" style="stroke: rgb(68, 68, 68); stroke-opacity: 1; stroke-width: 1px;"/><path class="ytick ticks crisp" d="M76,0h-5" transform="translate(0,28.07)" style="stroke: rgb(68, 68, 68); stroke-opacity: 1; stroke-width: 1px;"/><g class="ytick"><text text-anchor="end" x="66.6" y="7.699999999999999" transform="translate(0,420.98)" style="font-family: 'Times New Roman', monospace; font-size: 22px; fill: rgb(105, 105, 105); fill-opacity: 1; white-space: pre; opacity: 1;">0</text></g><g class="ytick"><text text-anchor="end" x="66.6" y="7.699999999999999" style="font-family: 'Times New Roman', monospace; font-size: 22px; fill: rgb(105, 105, 105); fill-opacity: 1; white-space: pre; opacity: 1;" transform="translate(0,364.85)">20</text></g><g class="ytick"><text text-anchor="end" x="66.6" y="7.699999999999999" style="font-family: 'Times New Roman', monospace; font-size: 22px; fill: rgb(105, 105, 105); fill-opacity: 1; white-space: pre; opacity: 1;" transform="translate(0,308.72)">40</text></g><g class="ytick"><text text-anchor="end" x="66.6" y="7.699999999999999" style="font-family: 'Times New Roman', monospace; font-size: 22px; fill: rgb(105, 105, 105); fill-opacity: 1; white-space: pre; opacity: 1;" transform="translate(0,252.59)">60</text></g><g class="ytick"><text text-anchor="end" x="66.6" y="7.699999999999999" style="font-family: 'Times New Roman', monospace; font-size: 22px; fill: rgb(105, 105, 105); fill-opacity: 1; white-space: pre; opacity: 1;" transform="translate(0,196.46)">80</text></g><g class="ytick"><text text-anchor="end" x="66.6" y="7.699999999999999" style="font-family: 'Times New Roman', monospace; font-size: 22px; fill: rgb(105, 105, 105); fill-opacity: 1; white-space: pre; opacity: 1;" transform="translate(0,140.33)">100</text></g><g class="ytick"><text text-anchor="end" x="66.6" y="7.699999999999999" style="font-family: 'Times New Roman', monospace; font-size: 22px; fill: rgb(105, 105, 105); fill-opacity: 1; white-space: pre; opacity: 1;" transform="translate(0,84.2)">120</text></g><g class="ytick"><text text-anchor="end" x="66.6" y="7.699999999999999" style="font-family: 'Times New Roman', monospace; font-size: 22px; fill: rgb(105, 105, 105); fill-opacity: 1; white-space: pre; opacity: 1;" transform="translate(0,28.07)">140</text></g></g><g class="overaxes-above"/></g></g><g class="polarlayer"/><g class="smithlayer"/><g class="ternarylayer"/><g class="geolayer"/><g class="funnelarealayer"/><g class="pielayer"/><g class="iciclelayer"/><g class="treemaplayer"/><g class="sunburstlayer"/><g class="glimages"/><defs id="topdefs-85bcb1"><g class="clips"/><clipPath id="legend85bcb1"><rect width="185" height="168" x="0" y="0"/></clipPath></defs><g class="layer-above"><g class="imagelayer"/><g class="shapelayer"/></g><g class="infolayer"><g class="legend" pointer-events="all" transform="translate(118.80000000000001,0)"><rect class="bg" shape-rendering="crispEdges" width="185" height="168" x="0" y="0" style="stroke: rgb(68, 68, 68); stroke-opacity: 1; fill: rgb(255, 255, 255); fill-opacity: 1; stroke-width: 0px;"/><g class="scrollbox" transform="" clip-path="url(#legend85bcb1)"><g class="groups"><g class="traces" transform="translate(0,20.8)" style="opacity: 1;"><text class="legendtext" text-anchor="start" x="40" y="8.58" style="font-family: 'Times New Roman', monospace; font-size: 22px; fill: rgb(105, 105, 105); fill-opacity: 1; white-space: pre;">IrO​<tspan style="font-size:70%" dy="0.3em">x</tspan><tspan dy="-0.21em">​</tspan></text><g class="layers" style="opacity: 1;"><g class="legendfill"/><g class="legendlines"><path class="js-line" d="M5,0h30" style="fill: none; stroke: rgb(46, 145, 229); stroke-opacity: 1; stroke-width: 2px;"/></g><g class="legendsymbols"><g class="legendpoints"/></g></g><rect class="legendtoggle" x="0" y="-15.8" width="179.765625" height="31.6" style="fill: rgb(0, 0, 0); fill-opacity: 0;"/></g><g class="traces" transform="translate(0,52.400000000000006)" style="opacity: 1;"><text class="legendtext" text-anchor="start" x="40" y="8.58" style="font-family: 'Times New Roman', monospace; font-size: 22px; fill: rgb(105, 105, 105); fill-opacity: 1; white-space: pre;">Fe​<tspan style="font-size:70%" dy="0.3em">3</tspan><tspan dy="-0.21em">​</tspan>N</text><g class="layers" style="opacity: 1;"><g class="legendfill"/><g class="legendlines"><path class="js-line" d="M5,0h30" style="fill: none; stroke: rgb(251, 13, 13); stroke-opacity: 1; stroke-width: 2px;"/></g><g class="legendsymbols"><g class="legendpoints"/></g></g><rect class="legendtoggle" x="0" y="-15.8" width="179.765625" height="31.6" style="fill: rgb(0, 0, 0); fill-opacity: 0;"/></g><g class="traces" transform="translate(0,84)" style="opacity: 1;"><text class="legendtext" text-anchor="start" x="40" y="8.58" style="font-family: 'Times New Roman', monospace; font-size: 22px; fill: rgb(105, 105, 105); fill-opacity: 1; white-space: pre;">Co​<tspan style="font-size:70%" dy="0.3em">4</tspan><tspan dy="-0.21em">​</tspan>N</text><g class="layers" style="opacity: 1;"><g class="legendfill"/><g class="legendlines"><path class="js-line" d="M5,0h30" style="fill: none; stroke: rgb(218, 22, 255); stroke-opacity: 1; stroke-width: 2px;"/></g><g class="legendsymbols"><g class="legendpoints"/></g></g><rect class="legendtoggle" x="0" y="-15.8" width="179.765625" height="31.6" style="fill: rgb(0, 0, 0); fill-opacity: 0;"/></g><g class="traces" transform="translate(0,115.60000000000001)" style="opacity: 1;"><text class="legendtext" text-anchor="start" x="40" y="8.58" style="font-family: 'Times New Roman', monospace; font-size: 22px; fill: rgb(105, 105, 105); fill-opacity: 1; white-space: pre;">Ni​<tspan style="font-size:70%" dy="0.3em">3</tspan><tspan dy="-0.21em">​</tspan>N</text><g class="layers" style="opacity: 1;"><g class="legendfill"/><g class="legendlines"><path class="js-line" d="M5,0h30" style="fill: none; stroke: rgb(34, 42, 42); stroke-opacity: 1; stroke-width: 2px;"/></g><g class="legendsymbols"><g class="legendpoints"/></g></g><rect class="legendtoggle" x="0" y="-15.8" width="179.765625" height="31.6" style="fill: rgb(0, 0, 0); fill-opacity: 0;"/></g><g class="traces" transform="translate(0,147.20000000000002)" style="opacity: 1;"><text class="legendtext" text-anchor="start" x="40" y="8.58" style="font-family: 'Times New Roman', monospace; font-size: 22px; fill: rgb(105, 105, 105); fill-opacity: 1; white-space: pre;">Co​<tspan style="font-size:70%" dy="0.3em">57</tspan><tspan dy="-0.21em">​</tspan>Ni​<tspan style="font-size:70%" dy="0.3em">14</tspan><tspan dy="-0.21em">​</tspan>Fe​<tspan style="font-size:70%" dy="0.3em">29</tspan><tspan dy="-0.21em">​</tspan>N​<tspan style="font-size:70%" dy="0.3em">x</tspan><tspan dy="-0.21em">​</tspan></text><g class="layers" style="opacity: 1;"><g class="legendfill"/><g class="legendlines"><path class="js-line" d="M5,0h30" style="fill: none; stroke: rgb(28, 167, 28); stroke-opacity: 1; stroke-width: 2px;"/></g><g class="legendsymbols"><g class="legendpoints"/></g></g><rect class="legendtoggle" x="0" y="-15.8" width="179.765625" height="31.6" style="fill: rgb(0, 0, 0); fill-opacity: 0;"/></g></g></g><rect class="scrollbar" rx="20" ry="3" width="0" height="0" x="0" y="0" style="fill: rgb(128, 139, 164); fill-opacity: 1;"/></g><g class="g-gtitle"/><g class="g-xtitle" transform="translate(0,-9.074999999999989)"><text class="xtitle" x="282" y="499.60625" text-anchor="middle" style="font-family: 'Times New Roman', monospace; font-size: 26px; fill: rgb(105, 105, 105); opacity: 1; font-weight: normal; white-space: pre;">Overpotential, η(V) - iR​<tspan style="font-size:70%" dy="0.3em">u</tspan><tspan dy="-0.21em">​</tspan></text></g><g class="g-ytitle" transform="translate(26.5283203125,0)"><text class="ytitle" transform="rotate(-90,0.39374999999999716,214)" x="0.39374999999999716" y="214" text-anchor="middle" style="font-family: 'Times New Roman', monospace; font-size: 26px; fill: rgb(105, 105, 105); opacity: 1; font-weight: normal; white-space: pre;">Current (mA/cm​<tspan style="font-size:70%" dy="-0.6em">2</tspan><tspan dy="0.42em">​</tspan>)</text></g></g></svg>