<svg class="main-svg" xmlns="http://www.w3.org/2000/svg" xmlns:xlink="http://www.w3.org/1999/xlink" width="500" height="500" style="" viewBox="0 0 500 500"><rect x="0" y="0" width="500" height="500" style="fill: rgb(255, 255, 255); fill-opacity: 1;"/><defs id="defs-33cf26"><g class="clips"><clipPath id="clip33cf26xyplot" class="plotclip"><rect width="422" height="428"/></clipPath><clipPath class="axesclip" id="clip33cf26x"><rect x="78" y="0" width="422" height="500"/></clipPath><clipPath class="axesclip" id="clip33cf26y"><rect x="0" y="0" width="500" height="428"/></clipPath><clipPath class="axesclip" id="clip33cf26xy"><rect x="78" y="0" width="422" height="428"/></clipPath></g><g class="gradients"/><g class="patterns"/></defs><g class="bglayer"><rect class="bg" x="78" y="0" width="422" height="428" style="fill: rgb(0, 0, 0); fill-opacity: 0; stroke-width: 0;"/></g><g class="layer-below"><g class="imagelayer"/><g class="shapelayer"/></g><g class="cartesianlayer"><g class="subplot xy"><g class="layer-subplot"><g class="shapelayer"/><g class="imagelayer"/></g><g class="minor-gridlayer"><g class="x"/><g class="y"/></g><g class="gridlayer"><g class="x"/><g class="y"/></g><g class="zerolinelayer"><path class="yzl zl crisp" transform="translate(0,415.77)" d="M78,0h422" style="stroke: rgb(128, 128, 128); stroke-opacity: 1; stroke-width: 1px;"/></g><path class="xlines-below"/><path class="ylines-below"/><g class="overlines-below"/><g class="xaxislayer-below"/><g class="yaxislayer-below"/><g class="overaxes-below"/><g class="plot" transform="translate(78,0)" clip-path="url(#clip33cf26xyplot)"><g class="scatterlayer mlayer"><g class="trace scatter trace56c1db" style="stroke-miterlimit: 2; opacity: 1;"><g class="fills"/><g class="errorbars"/><g class="lines"><path class="js-line" d="M-172.42,415.87L-146.84,415.47L-146.07,415.46L148.67,414.73L149.12,414.7L166.11,412.92L166.48,412.78L175,410.52L175.66,410.34L178.78,409.15L179.18,408.93L184.85,406.15L185.47,405.86L188.05,404.32L188.56,404L193.78,400.02L194.45,399.62L201.3,393.47L201.49,392.99L205.35,388.85L205.93,388.31L210.52,382.35L210.95,381.73L213.96,377.31L214.47,376.66L220.24,367.63L220.41,366.88L222.66,363.11L223.06,362.35L236.2,335.33L236.41,334.4L238.69,328.78L239.36,327.83L241.36,322.08L241.82,321.1L244.39,315.22L244.39,314.22L249.61,299.74L250.16,298.69L253.78,287.68L253.85,286.57L256.56,278.76L256.68,277.54L258.48,271.78L258.98,270.65L260.71,264.75L260.9,263.63L263.04,256.63L263.59,255.48L264.18,251.93L264.88,250.74L265.81,247.25L266.13,246.02L283.94,173.29L284.12,171.8L288.54,152.5L289.12,151.19L289.76,147L290.45,145.54L291.24,139.89L291.85,138.45L292.62,133.97L292.92,132.69L293.5,130.04L293.84,128.71L296.76,113.8L296.86,112.54L304.99,72.96L305.09,71.16L306.28,66.73L306.49,65.27L306.75,62.52L307.44,60.99L308.96,52.4L309.22,50.9L311.21,40.37L311.29,39.01L312.48,34.68L312.51,33.05L313.71,28.99L313.87,27.12L315.82,16.84L314.43,22.2L314.12,23.72L313.34,30.45L313.09,32.02L312.22,38.52L311.11,38.6L310.38,38.48L310.62,40.02L310.16,43.77L309.52,45.33L308.94,50.18L308.43,51.72L308.13,57.15L307.48,58.46L304.76,75.44L304.25,77.18L300.26,103.05L299.68,104.16L297.6,116.44L297.08,117.96L296.66,122.42L296.09,124.06L295.57,128.61L295.05,130.18L294.36,134.76L293.75,135.83L293.29,140.11L292.62,141.8L291.73,147.85L291.24,149.11L289.44,159.36L288.9,160.85L285.76,176.6L285.27,177.98L283.96,185.24L283.75,186.67L282.23,193.65L281.9,195.16L281.65,198.05L281.12,199.4L279.91,203.38L279.6,204.82L279.4,208.92L278.5,210.43L277.78,211.67L278.11,212.98L269.71,247.17L269.52,248.54L261.69,276.21L261.06,276.7L257.8,288.73L257.43,289.86L254.58,298.87L254.26,299.99L253.51,302.14L253.14,303.23L239.93,338.14L239.35,339.06L238.34,341.82L237.67,342.73L235.75,347.13L235.51,348.02L227.2,364.35L226.76,365.12L220.81,375.13L220.12,375.8L219.16,377.79L218.59,378.44L216.88,380.98L216.42,381.59L214.22,384.61L213.89,385.19L208.98,390.71L208.61,391.22L203.37,396.51L202.74,396.96L201.49,398.24L200.96,398.66L190.87,405.87L190.22,406.16L188.23,407.26L187.87,407.53L183.34,409.65L182.72,409.87L169.31,413.63L168.57,413.73L162.6,414.65L162.01,414.71L142.01,415.81L141.44,415.82L71.26,416.06L70.5,416.06L-172.66,416.34L-172.6,416.2" style="vector-effect: non-scaling-stroke; fill: none; stroke: rgb(46, 145, 229); stroke-opacity: 1; stroke-width: 2px; opacity: 1;"/></g><g class="points"/><g class="text"/></g><g class="trace scatter trace2c973c" style="stroke-miterlimit: 2; opacity: 1;"><g class="fills"/><g class="errorbars"/><g class="lines"><path class="js-line" d="M-172.65,415.82L257.97,415.07L258.55,415.06L302.75,414.31L303.37,414.3L388.86,411.76L271.03,415.22L270.46,415.22L215.58,415.6L215,415.6L154.61,415.72L153.83,415.72L-172.85,415.8L-172.79,415.81" style="vector-effect: non-scaling-stroke; fill: none; stroke: rgb(225, 95, 153); stroke-opacity: 1; stroke-width: 2px; opacity: 1;"/></g><g class="points"/><g class="text"/></g><g class="trace scatter trace3e61f2" style="stroke-miterlimit: 2; opacity: 1;"><g class="fills"/><g class="errorbars"/><g class="lines"><path class="js-line" d="M-172.59,415.79L247.81,415.04L248.44,415.02L276.22,413.23L276.98,413.17L303.4,409.79L303.94,409.7L337,402.92L337.61,402.79L355.15,397.96L355.79,397.8L367.16,394.31L367.63,394.15L382.45,389.23L377.56,391.35L377.17,391.58L373.69,393.04L373.16,393.25L363.43,396.95L362.82,397.13L354.76,399.85L354.27,400L328.23,406.38L327.6,406.49L300.05,410.78L299.44,410.84L278.33,412.99L277.62,413.03L256.86,414.39L256.25,414.42L199.96,415.68L199.33,415.68L-173.36,415.79" style="vector-effect: non-scaling-stroke; fill: none; stroke: rgb(251, 13, 13); stroke-opacity: 1; stroke-width: 2px; opacity: 1;"/></g><g class="points"/><g class="text"/></g><g class="trace scatter traceb2159a" style="stroke-miterlimit: 2; opacity: 1;"><g class="fills"/><g class="errorbars"/><g class="lines"><path class="js-line" d="M-172.27,416.51L-50.23,415.79L-49.63,415.79L46.46,415.04L46.98,415.03L95.39,414.28L95.94,414.27L165.46,411.97L165.86,411.94L186.5,410.68L187.01,410.64L212.98,407.83L213.39,407.75L234.15,404.06L234.8,403.94L244.8,401.52L245.38,401.38L262.22,396.41L262.75,396.24L279.02,390.31L279.52,390.02L285.51,387.68L285.83,387.46L287.6,386.78L288.08,386.57L290.57,385.45L291.15,385.21L294.36,383.58L295.17,383.33L301.37,380.42L301.87,380.12L303.39,379.37L304.01,379.12L305.31,378.33L306.04,378.1L309.76,376.03L310.47,375.75L314.93,373.3L315.46,373.03L328.99,365.35L329.42,365.06L335.84,361.2L336.45,360.87L344.6,356.08L344.86,355.72L353.4,350.6L353.76,350.24L358.44,347.68L359,347.32L371.97,339.97L372.6,339.78L373.79,339.3L372.44,340.49L372.06,340.96L358.13,352.35L357.42,352.68L349.36,358.68L348.65,358.92L335.42,367.32L334.9,367.53L330.32,370.05L329.81,370.34L318.18,376.53L317.63,376.8L308.51,381.21L308.03,381.44L274.71,394.68L274.1,394.85L270.73,396.05L270.02,396.22L240.97,404.22L240.08,404.35L207.75,410.48L207.06,410.57L169.69,414.65L169.04,414.69L149.74,415.89L149.18,415.92L124.05,416.89L123.55,416.91L35.7,417.58L35.18,417.58L-172.9,416.57" style="vector-effect: non-scaling-stroke; fill: none; stroke: rgb(218, 22, 255); stroke-opacity: 1; stroke-width: 2px; opacity: 1;"/></g><g class="points"/><g class="text"/></g><g class="trace scatter tracee8a98e" style="stroke-miterlimit: 2; opacity: 1;"><g class="fills"/><g class="errorbars"/><g class="lines"><path class="js-line" d="M-172.51,415.77L321.35,415.02L322.23,415.01L387.29,414.26L387.86,414.25L389.57,414.23L343.8,414.98L343.28,414.99L196.18,415.74L195.5,415.75L-172.74,415.77L-172.46,415.78" style="vector-effect: non-scaling-stroke; fill: none; stroke: rgb(34, 42, 42); stroke-opacity: 1; stroke-width: 2px; opacity: 1;"/></g><g class="points"/><g class="text"/></g><g class="trace scatter trace119120" style="stroke-miterlimit: 2; opacity: 1;"><g class="fills"/><g class="errorbars"/><g class="lines"><path class="js-line" d="M-172.42,416.14L-33.94,414.22L-33.36,414.22L-6.97,414.43L-6.27,414.44L29.54,414.48L30.33,414.48L55.44,413.28L55.97,413.19L65.99,412.16L66.44,412.17L123.62,414.01L124.16,414L151.14,413.25L151.64,413.2L162.14,411.76L162.64,411.65L171.31,408.95L171.8,408.72L174.65,407.23L175.37,406.95L178.76,404.83L179.19,404.5L182.27,402.37L182.84,401.99L186.25,399.14L186.67,398.71L191.56,394.08L192.07,393.59L197.91,387.14L198.13,386.58L209.97,370.54L210.43,369.86L214.75,363.05L215.22,362.34L219.17,355.62L219.59,354.88L224.15,346.75L224.76,345.99L237.29,322.44L237.69,321.58L245.84,304.54L246.38,303.71L251.87,291.35L252.38,290.42L278.08,227.12L278.32,226.17L289.71,195.25L289.93,194.32L297.61,173.91L297.81,172.22L299.21,167.67L299.62,166.66L306.61,146.23L306.8,143.79L307.54,137.67L307.9,136.56L327.66,72.78L326.12,78.48L325.95,79.72L323.98,87.6L323.5,88.99L319.94,101.96L319.81,103.58L317.15,110.04L316.86,111.46L316.4,114.01L315.79,115.19L312.44,127.02L312,128.08L308.97,138.69L308.31,138.22L307.71,138.02L307.39,139.37L305.66,145.21L305.22,146.33L304.18,149.41L303.9,150.63L300.34,162.26L299.81,163.27L297.17,170.76L296.98,171.95L295.31,177.69L294.7,178.78L288.74,197.32L288.29,198.49L286.88,202.7L286.43,203.93L280.73,219.4L280.51,220.49L268.6,251.11L268.21,252.19L249.89,294.13L249.5,294.94L242.98,308.68L242.65,309.53L240.96,313.03L240.45,314.01L238.78,317.28L238.25,318.06L220.11,350.87L219.61,351.58L203.48,375.98L202.72,376.58L201.68,378.39L201.12,378.99L197.9,382.45L197.62,383.01L196.93,384.13L196.21,384.68L186.41,395.36L185.99,395.82L175.26,404.74L174.48,405.08L170.54,407.73L170.05,408.02L157.93,413.13L157.53,413.29L147.01,415.38L146.31,415.45L136.27,416.26L135.8,416.29L108.43,416.74L107.86,416.74L18.58,418.11L17.85,418.18L9.39,418.63L8.73,418.61L-172.84,416.15" style="vector-effect: non-scaling-stroke; fill: none; stroke: rgb(28, 167, 28); stroke-opacity: 1; stroke-width: 2px; opacity: 1;"/></g><g class="points"/><g class="text"/></g><g class="trace scatter trace3b33a8" style="stroke-miterlimit: 2; opacity: 1;"><g class="fills"/><g class="errorbars"/><g class="lines"><path class="js-line" d="M-172.42,415.96L68.99,415.21L69.72,415.2L158.94,414.45L159.58,414.44L179.51,413.34L180.25,413.28L195.44,410.74L196.03,410.61L198.93,409.78L199.88,409.64L201.08,409.17L201.76,409.01L214.6,403.93L214.58,403.69L218.37,401.87L218.79,401.59L227.7,396.08L228,395.74L233.76,391.41L234.04,390.96L237.75,388.15L237.95,387.74L248.47,377.25L248.65,376.74L251.34,373.63L251.65,373.1L257.01,366.56L257.23,366L260.26,362.01L260.67,361.4L264.82,355.36L264.82,354.74L266.63,352.24L267.07,351.62L273.67,340.51L274.06,339.84L276.65,335.53L276.77,334.81L279.8,329L280.19,328.28L287.23,313.76L287.56,313L294.37,297.64L294.49,296.77L295.79,294.27L296.11,293.45L304.65,271.62L304.66,270.73L306.21,267.29L306.45,266.45L307.23,264.7L307.59,263.73L308.61,260.96L308.89,260.05L312.4,249.42L312.87,248.51L314.51,242.63L314.89,241.71L316.28,237.87L316.35,236.8L318.61,231.22L318.75,230.21L321.94,219.07L322.57,217.97L323.16,215.2L323.83,214.2L324.4,210.84L324.85,209.84L327.67,201.31L328.04,200.12L331.37,187.73L327.12,203.2L327.15,204.34L318.83,232.01L318.88,233.07L317.56,235.93L317.43,236.92L315.97,240.92L315.85,241.82L314.64,244.72L314.57,245.72L310.81,257.67L310.62,258.6L309.49,261.06L309.2,261.89L307.8,265.53L307.54,266.46L303.47,277.56L303.22,278.45L295.72,297.52L295.21,298.35L294.36,301L294.12,301.84L292.18,305.9L291.96,306.74L289.62,311.53L289.53,312.3L287.01,316.98L286.92,317.75L282.77,326.12L282.5,326.84L280.04,331.33L279.81,332.03L277.74,335.54L277.51,336.25L273.57,343.12L273.36,343.78L271.13,347L270.83,347.64L259.5,364.48L258.73,365.05L256.97,367.73L256.38,368.26L254.79,370.35L254.29,370.87L246.1,380.03L245.43,380.5L242.44,383.57L241.85,384L237.14,388.04L236.9,388.43L232.03,392.15L231.71,392.5L211.17,404.51L210.49,404.72L205.28,406.86L204.72,407.05L197.59,409.44L196.95,409.59L192.26,410.85L191.59,410.98L187.44,411.92L186.89,412.03L183.08,412.73L182.59,412.82L171.2,414.34L170.49,414.39L162.36,415.07L161.69,415.11L138.32,415.92L137.58,415.93L92.74,416.21L92.22,416.21L-172.61,415.96" style="vector-effect: non-scaling-stroke; fill: none; stroke: rgb(182, 129, 0); stroke-opacity: 1; stroke-width: 2px; opacity: 1;"/></g><g class="points"/><g class="text"/></g></g></g><g class="overplot"/><path class="xlines-above crisp" d="M76,429H500" style="fill: none; stroke-width: 2px; stroke: rgb(0, 0, 0); stroke-opacity: 1;"/><path class="ylines-above crisp" d="M77,0V428" style="fill: none; stroke-width: 2px; stroke: rgb(0, 0, 0); stroke-opacity: 1;"/><g class="overlines-above"/><g class="xaxislayer-above"><path class="xtick ticks crisp" d="M0,430v5" transform="translate(78,0)" style="stroke: rgb(68, 68, 68); stroke-opacity: 1; stroke-width: 1px;"/><path class="xtick ticks crisp" d="M0,430v5" transform="translate(134.27,0)" style="stroke: rgb(68, 68, 68); stroke-opacity: 1; stroke-width: 1px;"/><path class="xtick ticks crisp" d="M0,430v5" transform="translate(190.53,0)" style="stroke: rgb(68, 68, 68); stroke-opacity: 1; stroke-width: 1px;"/><path class="xtick ticks crisp" d="M0,430v5" transform="translate(246.8,0)" style="stroke: rgb(68, 68, 68); stroke-opacity: 1; stroke-width: 1px;"/><path class="xtick ticks crisp" d="M0,430v5" transform="translate(303.07,0)" style="stroke: rgb(68, 68, 68); stroke-opacity: 1; stroke-width: 1px;"/><path class="xtick ticks crisp" d="M0,430v5" transform="translate(359.33,0)" style="stroke: rgb(68, 68, 68); stroke-opacity: 1; stroke-width: 1px;"/><path class="xtick ticks crisp" d="M0,430v5" transform="translate(415.6,0)" style="stroke: rgb(68, 68, 68); stroke-opacity: 1; stroke-width: 1px;"/><path class="xtick ticks crisp" d="M0,430v5" transform="translate(471.87,0)" style="stroke: rgb(68, 68, 68); stroke-opacity: 1; stroke-width: 1px;"/><g class="xtick"><text text-anchor="middle" x="0" y="461.4" transform="translate(78,0)" style="font-family: 'Times New Roman', monospace; font-size: 22px; fill: rgb(105, 105, 105); fill-opacity: 1; white-space: pre; opacity: 1;">0</text></g><g class="xtick"><text text-anchor="middle" x="0" y="461.4" style="font-family: 'Times New Roman', monospace; font-size: 22px; fill: rgb(105, 105, 105); fill-opacity: 1; white-space: pre; opacity: 1;" transform="translate(134.27,0)">0.1</text></g><g class="xtick"><text text-anchor="middle" x="0" y="461.4" style="font-family: 'Times New Roman', monospace; font-size: 22px; fill: rgb(105, 105, 105); fill-opacity: 1; white-space: pre; opacity: 1;" transform="translate(190.53,0)">0.2</text></g><g class="xtick"><text text-anchor="middle" x="0" y="461.4" style="font-family: 'Times New Roman', monospace; font-size: 22px; fill: rgb(105, 105, 105); fill-opacity: 1; white-space: pre; opacity: 1;" transform="translate(246.8,0)">0.3</text></g><g class="xtick"><text text-anchor="middle" x="0" y="461.4" style="font-family: 'Times New Roman', monospace; font-size: 22px; fill: rgb(105, 105, 105); fill-opacity: 1; white-space: pre; opacity: 1;" transform="translate(303.07,0)">0.4</text></g><g class="xtick"><text text-anchor="middle" x="0" y="461.4" style="font-family: 'Times New Roman', monospace; font-size: 22px; fill: rgb(105, 105, 105); fill-opacity: 1; white-space: pre; opacity: 1;" transform="translate(359.33,0)">0.5</text></g><g class="xtick"><text text-anchor="middle" x="0" y="461.4" style="font-family: 'Times New Roman', monospace; font-size: 22px; fill: rgb(105, 105, 105); fill-opacity: 1; white-space: pre; opacity: 1;" transform="translate(415.6,0)">0.6</text></g><g class="xtick"><text text-anchor="middle" x="0" y="461.4" style="font-family: 'Times New Roman', monospace; font-size: 22px; fill: rgb(105, 105, 105); fill-opacity: 1; white-space: pre; opacity: 1;" transform="translate(471.87,0)">0.7</text></g></g><g class="yaxislayer-above"><path class="ytick ticks crisp" d="M76,0h-5" transform="translate(0,415.77)" style="stroke: rgb(68, 68, 68); stroke-opacity: 1; stroke-width: 1px;"/><path class="ytick ticks crisp" d="M76,0h-5" transform="translate(0,366.86)" style="stroke: rgb(68, 68, 68); stroke-opacity: 1; stroke-width: 1px;"/><path class="ytick ticks crisp" d="M76,0h-5" transform="translate(0,317.94)" style="stroke: rgb(68, 68, 68); stroke-opacity: 1; stroke-width: 1px;"/><path class="ytick ticks crisp" d="M76,0h-5" transform="translate(0,269.03)" style="stroke: rgb(68, 68, 68); stroke-opacity: 1; stroke-width: 1px;"/><path class="ytick ticks crisp" d="M76,0h-5" transform="translate(0,220.11)" style="stroke: rgb(68, 68, 68); stroke-opacity: 1; stroke-width: 1px;"/><path class="ytick ticks crisp" d="M76,0h-5" transform="translate(0,171.2)" style="stroke: rgb(68, 68, 68); stroke-opacity: 1; stroke-width: 1px;"/><path class="ytick ticks crisp" d="M76,0h-5" transform="translate(0,122.29)" style="stroke: rgb(68, 68, 68); stroke-opacity: 1; stroke-width: 1px;"/><path class="ytick ticks crisp" d="M76,0h-5" transform="translate(0,73.37)" style="stroke: rgb(68, 68, 68); stroke-opacity: 1; stroke-width: 1px;"/><path class="ytick ticks crisp" d="M76,0h-5" transform="translate(0,24.46)" style="stroke: rgb(68, 68, 68); stroke-opacity: 1; stroke-width: 1px;"/><g class="ytick"><text text-anchor="end" x="66.6" y="7.699999999999999" transform="translate(0,415.77)" style="font-family: 'Times New Roman', monospace; font-size: 22px; fill: rgb(105, 105, 105); fill-opacity: 1; white-space: pre; opacity: 1;">0</text></g><g class="ytick"><text text-anchor="end" x="66.6" y="7.699999999999999" style="font-family: 'Times New Roman', monospace; font-size: 22px; fill: rgb(105, 105, 105); fill-opacity: 1; white-space: pre; opacity: 1;" transform="translate(0,366.86)">20</text></g><g class="ytick"><text text-anchor="end" x="66.6" y="7.699999999999999" style="font-family: 'Times New Roman', monospace; font-size: 22px; fill: rgb(105, 105, 105); fill-opacity: 1; white-space: pre; opacity: 1;" transform="translate(0,317.94)">40</text></g><g class="ytick"><text text-anchor="end" x="66.6" y="7.699999999999999" style="font-family: 'Times New Roman', monospace; font-size: 22px; fill: rgb(105, 105, 105); fill-opacity: 1; white-space: pre; opacity: 1;" transform="translate(0,269.03)">60</text></g><g class="ytick"><text text-anchor="end" x="66.6" y="7.699999999999999" style="font-family: 'Times New Roman', monospace; font-size: 22px; fill: rgb(105, 105, 105); fill-opacity: 1; white-space: pre; opacity: 1;" transform="translate(0,220.11)">80</text></g><g class="ytick"><text text-anchor="end" x="66.6" y="7.699999999999999" style="font-family: 'Times New Roman', monospace; font-size: 22px; fill: rgb(105, 105, 105); fill-opacity: 1; white-space: pre; opacity: 1;" transform="translate(0,171.2)">100</text></g><g class="ytick"><text text-anchor="end" x="66.6" y="7.699999999999999" style="font-family: 'Times New Roman', monospace; font-size: 22px; fill: rgb(105, 105, 105); fill-opacity: 1; white-space: pre; opacity: 1;" transform="translate(0,122.29)">120</text></g><g class="ytick"><text text-anchor="end" x="66.6" y="7.699999999999999" style="font-family: 'Times New Roman', monospace; font-size: 22px; fill: rgb(105, 105, 105); fill-opacity: 1; white-space: pre; opacity: 1;" transform="translate(0,73.37)">140</text></g><g class="ytick"><text text-anchor="end" x="66.6" y="7.699999999999999" style="font-family: 'Times New Roman', monospace; font-size: 22px; fill: rgb(105, 105, 105); fill-opacity: 1; white-space: pre; opacity: 1;" transform="translate(0,24.46)">160</text></g></g><g class="overaxes-above"/></g></g><g class="polarlayer"/><g class="smithlayer"/><g class="ternarylayer"/><g class="geolayer"/><g class="funnelarealayer"/><g class="pielayer"/><g class="iciclelayer"/><g class="treemaplayer"/><g class="sunburstlayer"/><g class="glimages"/><defs id="topdefs-33cf26"><g class="clips"/><clipPath id="legend33cf26"><rect width="186" height="232" x="0" y="0"/></clipPath></defs><g class="layer-above"><g class="imagelayer"/><g class="shapelayer"/></g><g class="infolayer"><g class="legend" pointer-events="all" transform="translate(78,0)"><rect class="bg" shape-rendering="crispEdges" width="186" height="232" x="0" y="0" style="stroke: rgb(68, 68, 68); stroke-opacity: 1; fill: rgb(255, 255, 255); fill-opacity: 1; stroke-width: 0px;"/><g class="scrollbox" transform="" clip-path="url(#legend33cf26)"><g class="groups"><g class="traces" transform="translate(0,20.8)" style="opacity: 1;"><text class="legendtext" text-anchor="start" x="40" y="8.58" style="font-family: 'Times New Roman', monospace; font-size: 22px; fill: rgb(105, 105, 105); fill-opacity: 1; white-space: pre;">IrO​<tspan style="font-size:70%" dy="0.3em">x</tspan><tspan dy="-0.21em">​</tspan></text><g class="layers" style="opacity: 1;"><g class="legendfill"/><g class="legendlines"><path class="js-line" d="M5,0h30" style="fill: none; stroke: rgb(46, 145, 229); stroke-opacity: 1; stroke-width: 2px;"/></g><g class="legendsymbols"><g class="legendpoints"/></g></g><rect class="legendtoggle" x="0" y="-15.8" width="180.765625" height="31.6" style="fill: rgb(0, 0, 0); fill-opacity: 0;"/></g><g class="traces" transform="translate(0,52.400000000000006)" style="opacity: 1;"><text class="legendtext" text-anchor="start" x="40" y="8.58" style="font-family: 'Times New Roman', monospace; font-size: 22px; fill: rgb(105, 105, 105); fill-opacity: 1; white-space: pre;">Ni​<tspan style="font-size:70%" dy="0.3em">60</tspan><tspan dy="-0.21em">​</tspan>Co​<tspan style="font-size:70%" dy="0.3em">30</tspan><tspan dy="-0.21em">​</tspan>Fe​<tspan style="font-size:70%" dy="0.3em">10</tspan><tspan dy="-0.21em">​</tspan>O​<tspan style="font-size:70%" dy="0.3em">x</tspan><tspan dy="-0.21em">​</tspan></text><g class="layers" style="opacity: 1;"><g class="legendfill"/><g class="legendlines"><path class="js-line" d="M5,0h30" style="fill: none; stroke: rgb(225, 95, 153); stroke-opacity: 1; stroke-width: 2px;"/></g><g class="legendsymbols"><g class="legendpoints"/></g></g><rect class="legendtoggle" x="0" y="-15.8" width="180.765625" height="31.6" style="fill: rgb(0, 0, 0); fill-opacity: 0;"/></g><g class="traces" transform="translate(0,84)" style="opacity: 1;"><text class="legendtext" text-anchor="start" x="40" y="8.58" style="font-family: 'Times New Roman', monospace; font-size: 22px; fill: rgb(105, 105, 105); fill-opacity: 1; white-space: pre;">FeN​<tspan style="font-size:70%" dy="0.3em">x</tspan><tspan dy="-0.21em">​</tspan></text><g class="layers" style="opacity: 1;"><g class="legendfill"/><g class="legendlines"><path class="js-line" d="M5,0h30" style="fill: none; stroke: rgb(251, 13, 13); stroke-opacity: 1; stroke-width: 2px;"/></g><g class="legendsymbols"><g class="legendpoints"/></g></g><rect class="legendtoggle" x="0" y="-15.8" width="180.765625" height="31.6" style="fill: rgb(0, 0, 0); fill-opacity: 0;"/></g><g class="traces" transform="translate(0,115.60000000000001)" style="opacity: 1;"><text class="legendtext" text-anchor="start" x="40" y="8.58" style="font-family: 'Times New Roman', monospace; font-size: 22px; fill: rgb(105, 105, 105); fill-opacity: 1; white-space: pre;">CoN​<tspan style="font-size:70%" dy="0.3em">x</tspan><tspan dy="-0.21em">​</tspan></text><g class="layers" style="opacity: 1;"><g class="legendfill"/><g class="legendlines"><path class="js-line" d="M5,0h30" style="fill: none; stroke: rgb(218, 22, 255); stroke-opacity: 1; stroke-width: 2px;"/></g><g class="legendsymbols"><g class="legendpoints"/></g></g><rect class="legendtoggle" x="0" y="-15.8" width="180.765625" height="31.6" style="fill: rgb(0, 0, 0); fill-opacity: 0;"/></g><g class="traces" transform="translate(0,147.20000000000002)" style="opacity: 1;"><text class="legendtext" text-anchor="start" x="40" y="8.58" style="font-family: 'Times New Roman', monospace; font-size: 22px; fill: rgb(105, 105, 105); fill-opacity: 1; white-space: pre;">NiN​<tspan style="font-size:70%" dy="0.3em">x</tspan><tspan dy="-0.21em">​</tspan></text><g class="layers" style="opacity: 1;"><g class="legendfill"/><g class="legendlines"><path class="js-line" d="M5,0h30" style="fill: none; stroke: rgb(34, 42, 42); stroke-opacity: 1; stroke-width: 2px;"/></g><g class="legendsymbols"><g class="legendpoints"/></g></g><rect class="legendtoggle" x="0" y="-15.8" width="180.765625" height="31.6" style="fill: rgb(0, 0, 0); fill-opacity: 0;"/></g><g class="traces" transform="translate(0,178.8)" style="opacity: 1;"><text class="legendtext" text-anchor="start" x="40" y="8.58" style="font-family: 'Times New Roman', monospace; font-size: 22px; fill: rgb(105, 105, 105); fill-opacity: 1; white-space: pre;">Co​<tspan style="font-size:70%" dy="0.3em">57</tspan><tspan dy="-0.21em">​</tspan>Ni​<tspan style="font-size:70%" dy="0.3em">14</tspan><tspan dy="-0.21em">​</tspan>Fe​<tspan style="font-size:70%" dy="0.3em">29</tspan><tspan dy="-0.21em">​</tspan>N​<tspan style="font-size:70%" dy="0.3em">x</tspan><tspan dy="-0.21em">​</tspan></text><g class="layers" style="opacity: 1;"><g class="legendfill"/><g class="legendlines"><path class="js-line" d="M5,0h30" style="fill: none; stroke: rgb(28, 167, 28); stroke-opacity: 1; stroke-width: 2px;"/></g><g class="legendsymbols"><g class="legendpoints"/></g></g><rect class="legendtoggle" x="0" y="-15.8" width="180.765625" height="31.6" style="fill: rgb(0, 0, 0); fill-opacity: 0;"/></g><g class="traces" transform="translate(0,210.4)" style="opacity: 1;"><text class="legendtext" text-anchor="start" x="40" y="8.58" style="font-family: 'Times New Roman', monospace; font-size: 22px; fill: rgb(105, 105, 105); fill-opacity: 1; white-space: pre;">Co​<tspan style="font-size:70%" dy="0.3em">45</tspan><tspan dy="-0.21em">​</tspan>Ni​<tspan style="font-size:70%" dy="0.3em">45</tspan><tspan dy="-0.21em">​</tspan>Fe​<tspan style="font-size:70%" dy="0.3em">10</tspan><tspan dy="-0.21em">​</tspan>N​<tspan style="font-size:70%" dy="0.3em">x</tspan><tspan dy="-0.21em">​</tspan></text><g class="layers" style="opacity: 1;"><g class="legendfill"/><g class="legendlines"><path class="js-line" d="M5,0h30" style="fill: none; stroke: rgb(182, 129, 0); stroke-opacity: 1; stroke-width: 2px;"/></g><g class="legendsymbols"><g class="legendpoints"/></g></g><rect class="legendtoggle" x="0" y="-15.8" width="180.765625" height="31.6" style="fill: rgb(0, 0, 0); fill-opacity: 0;"/></g></g></g><rect class="scrollbar" rx="20" ry="3" width="0" height="0" x="0" y="0" style="fill: rgb(128, 139, 164); fill-opacity: 1;"/></g><g class="g-gtitle"/><g class="g-xtitle" transform="translate(0,-9.074999999999989)"><text class="xtitle" x="289" y="499.60625" text-anchor="middle" style="font-family: 'Times New Roman', monospace; font-size: 26px; fill: rgb(105, 105, 105); opacity: 1; font-weight: normal; white-space: pre;">Overpotential, η(V) - iR​<tspan style="font-size:70%" dy="0.3em">u</tspan><tspan dy="-0.21em">​</tspan></text></g><g class="g-ytitle" transform="translate(26.5283203125,0)"><text class="ytitle" transform="rotate(-90,0.39374999999999716,214)" x="0.39374999999999716" y="214" text-anchor="middle" style="font-family: 'Times New Roman', monospace; font-size: 26px; fill: rgb(105, 105, 105); opacity: 1; font-weight: normal; white-space: pre;">Current (mA/cm​<tspan style="font-size:70%" dy="-0.6em">2</tspan><tspan dy="0.42em">​</tspan>)</text></g></g></svg>