<svg class="main-svg" xmlns="http://www.w3.org/2000/svg" xmlns:xlink="http://www.w3.org/1999/xlink" width="500" height="500" style="" viewBox="0 0 500 500"><rect x="0" y="0" width="500" height="500" style="fill: rgb(255, 255, 255); fill-opacity: 1;"/><defs id="defs-50fc3c"><g class="clips"><clipPath id="clip50fc3cxyplot" class="plotclip"><rect width="422" height="416"/></clipPath><clipPath class="axesclip" id="clip50fc3cx"><rect x="78" y="0" width="422" height="500"/></clipPath><clipPath class="axesclip" id="clip50fc3cy"><rect x="0" y="12" width="500" height="416"/></clipPath><clipPath class="axesclip" id="clip50fc3cxy"><rect x="78" y="12" width="422" height="416"/></clipPath></g><g class="gradients"/><g class="patterns"/></defs><g class="bglayer"><rect class="bg" x="78" y="12" width="422" height="416" style="fill: rgb(0, 0, 0); fill-opacity: 0; stroke-width: 0;"/></g><g class="layer-below"><g class="imagelayer"/><g class="shapelayer"/></g><g class="cartesianlayer"><g class="subplot xy"><g class="layer-subplot"><g class="shapelayer"/><g class="imagelayer"/></g><g class="minor-gridlayer"><g class="x"/><g class="y"/></g><g class="gridlayer"><g class="x"/><g class="y"/></g><g class="zerolinelayer"><path class="yzl zl crisp" transform="translate(0,415.39)" d="M78,0h422" style="stroke: rgb(128, 128, 128); stroke-opacity: 1; stroke-width: 1px;"/></g><path class="xlines-below"/><path class="ylines-below"/><g class="overlines-below"/><g class="xaxislayer-below"/><g class="yaxislayer-below"/><g class="overaxes-below"/><g class="plot" transform="translate(78,12)" clip-path="url(#clip50fc3cxyplot)"><g class="scatterlayer mlayer"><g class="trace scatter trace85a549" style="stroke-miterlimit: 2; opacity: 1;"><g class="fills"/><g class="errorbars"/><g class="lines"><path class="js-line" d="M-172.67,403.54L-143.8,403.1L-142.64,403.1L-143.46,403.1L152.73,402.41L152.37,402.38L153.79,402.35L169.85,400.76L169.07,400.66L185.02,396.33L185.24,396.11L184.82,395.9L187,395.66L187,394.95L187.55,394.72L190.6,393.71L191.39,393.43L191.4,392.88L192.43,392.61L195.02,391.42L194.49,391.11L198.31,389.51L198.16,389.17L198.64,388.48L200.41,388.12L199.62,387.77L200.39,387.4L200.76,387.04L202.26,386.67L201.93,386.3L201.76,385.91L204.77,384.34L204.61,383.94L206.44,382.67L206.05,382.25L208.55,380.94L208.23,380.5L210.19,380.05L209.68,379.59L210.61,379.11L209.95,378.64L210.76,378.18L212.75,377.21L212.21,376.71L214.38,375.23L213.68,374.72L216.9,372.66L216.54,372.13L218.25,370.52L217.91,369.76L220.57,368.11L219.94,367.56L222.76,365.85L221.94,365.26L222.48,364.7L224.5,364.11L223.64,363.52L224.4,362.89L224.07,362.32L225.86,361.74L225.55,360.51L226.83,359.91L228.7,357.37L228.69,356.76L230.08,356.11L229.66,355.43L230.75,354.79L230.09,354.16L232.03,352.83L231.85,352.18L233.43,350.18L233.74,349.47L235.13,348.13L235.1,347.38L235.17,345.98L236.32,345.33L237.2,344.61L236.71,343.88L236.87,343.16L238.3,342.48L238.33,341.76L239.84,341L237.94,340.25L239.81,339.54L240.87,338.01L240.57,337.25L242.67,335.03L242.3,334.24L242.77,333.52L244.33,332.77L243.84,331.98L244.71,331.16L244,330.41L245.97,329.63L245.44,327.23L247.13,326.47L248.42,324.85L247.28,324.03L249.58,322.48L249.82,321.63L248.94,320.76L250.85,319.95L250.88,319.12L251.9,318.25L251.03,317.37L251.3,316.56L251.49,315.72L253.82,314.86L252.84,314L253.1,313.17L253.74,312.37L255.72,311.48L254.21,310.56L255.69,309.7L255.34,308.89L256.85,308.02L256.29,306.17L257.18,305.3L258.51,303.54L258.05,302.67L258.23,301.82L259.93,300.94L260.05,299.03L260.03,298.1L261.67,296.25L261.6,295.32L261.45,294.44L262.1,293.53L263.91,292.62L262.7,291.6L263.99,290.69L263.22,289.77L265.11,288.82L264.66,287.85L267.14,283.15L266.39,281.94L267.95,280.74L267.82,279.7L268.42,277.76L269.09,276.81L270.14,275.82L269.79,274.8L270.66,272.75L271.39,271.74L271.23,269.7L271.82,268.72L273.47,267.8L273.11,266.75L273.69,265.77L273,264.81L274.63,263.82L274.01,262.74L275.22,261.73L274.75,260.69L276.27,259.69L276.36,258.66L275.97,257.63L276.85,256.66L276.86,255.63L277.75,254.56L277.37,253.46L278.11,252.39L278.26,251.41L279.48,250.38L279.56,247.24L280.57,246.22L280.58,245.1L281.4,243.99L280.15,242.92L281.88,241.84L283.51,240.81L281.59,239.76L284.15,236.61L284.09,235.42L285.81,230.94L285.21,229.88L286.68,227.73L287.68,226.57L287,225.41L287.6,224.27L290.64,215.24L290.41,214.12L291.69,212.98L291.62,211.86L292.09,209.47L293.25,208.27L292.56,207.07L293.51,205.85L294.34,202.41L293.59,201.32L295.94,199.07L296.04,197.96L295.88,195.58L297.08,194.47L297.72,192.06L297.21,190.81L299.15,188.4L299.1,187.18L298.5,186.05L299.51,184.95L300.47,182.51L299.94,181.23L301.99,178.99L301.53,177.82L301.82,176.64L301.3,175.51L303.86,174.37L303.56,173.11L302.55,171.78L303.94,170.52L303.73,169.18L305.28,168.03L304.26,166.8L304.68,165.59L305.25,164.44L306.9,163.28L306.21,162.15L306.53,160.98L306.51,159.72L308.03,158.5L307.34,154.83L309.25,153.5L308.89,150.95L309.47,149.8L310.76,147.3L310.87,146.13L311.28,143.59L312.05,142.22L312.05,138.47L313.57,137.38L313.68,135.01L313.96,133.8L315.28,132.54L315.06,131.06L314.07,129.8L315.36,128.58L316.25,125.88L316.48,124.64L316.12,123.43L317.46,122.21L317.88,121L317.35,119.33L319.22,111.92L319.49,110.66L320.98,108.16L320.08,106.96L320.76,104.47L321.17,102.85L321.87,101.34L321.62,100.02L322.69,97.58L322.6,96.09L325.9,86.63L326.43,85.26L325.73,83.89L326.26,82.54L327.44,80.12L326.9,78.89L327.65,76.21L328.34,74.6L328.73,72.27L328.98,71.25L329.6,70.55L328.81,71.86L329.27,73.52L327.58,78.32L328.21,79.48L326.68,81.16L326.37,82.67L327.23,85.51L326.44,87.04L325.41,88.8L326.11,90.36L324.47,93.2L323.9,94.74L324.75,96.18L324.38,97.74L323.24,102.2L323.71,103.72L321.61,106.28L321.7,107.77L322.16,110.73L319.82,111.97L320.56,113.44L319.99,114.99L321.06,116.28L319.45,117.66L318.96,118.91L319.62,120.43L319.31,123.31L317.87,124.52L317.34,125.74L318.29,127.17L318.33,128.51L316.82,129.93L315.54,131.42L316.4,133L316.97,134.25L315.93,135.58L314.9,138.62L315.59,139.78L314.57,142.34L313.61,143.95L314.35,145.41L313.39,146.71L312.41,147.98L312.69,149.34L312.93,150.71L311.7,151.95L310.56,153.34L311.05,154.66L311.77,155.96L311.3,157.25L309.82,158.58L310.12,159.93L308.24,166.63L307.63,167.95L307.96,169.3L307.38,170.67L307.46,173.18L305.89,174.45L305.4,175.67L306.02,177.01L305.45,179.61L304.5,181L304.45,184.74L303.15,186.02L301.24,193.74L301.7,194.88L300.11,197.49L300.08,198.79L300.24,200.07L298.9,201.21L298.19,203.71L299.04,204.92L298.78,206.06L297.2,207.2L296.66,208.49L297.84,209.72L296.13,212.1L296.12,213.37L294.42,219.55L294.28,220.76L293.07,223.03L292.94,224.21L293.36,225.33L292.83,226.49L290.38,228.93L291.97,230.21L289.67,233.55L290.87,234.71L288.5,236.91L289.05,238.05L287.83,240.29L287.8,241.35L286.75,242.52L286.78,243.67L286.23,245.85L285.34,247.03L285.26,248.2L286.07,249.41L284.07,252.56L284.09,253.65L283.62,254.69L282.19,255.8L282.62,257.9L281.71,258.95L280.13,262.15L280.46,263.2L278.62,266.42L279.31,267.53L278.26,269.7L276.84,270.75L277.39,271.77L276.09,272.74L276,274.79L276.24,275.86L273.63,281.82L272.49,282.83L272.32,285.48L271.14,286.49L270.78,287.57L271.24,288.57L269.35,291.45L269.5,292.42L267.97,294.28L268,295.29L268.1,296.31L266.77,297.25L265.96,299.12L266.48,300.05L265.37,301.88L264.59,302.79L263.95,303.74L264.73,304.64L264.6,305.53L262.88,306.5L262.36,307.41L262.86,308.33L261.11,311.89L260.98,312.73L259.19,315.38L259.42,316.22L257.43,317.98L258.05,318.85L258.08,319.68L256.9,320.51L256.32,322.23L256.24,323.04L254.12,324.67L255.37,325.52L254.28,326.34L254.48,327.13L252.32,327.94L253.11,328.81L252.99,329.63L252.11,330.41L250.69,331.2L250.89,332L251.44,332.83L250.35,333.58L248.56,335.08L249.44,335.88L246.49,338.91L247.71,339.66L245.25,341.1L245.66,341.89L244.9,343.32L243.35,343.99L243.36,346.2L242.61,346.87L241.01,347.61L241.52,348.34L242.18,349.02L241.38,349.68L239.74,351.12L240.35,351.8L237.73,353.77L237.71,354.44L237.99,355.04L236.6,355.68L235.5,356.38L236.16,357.04L236.9,357.64L233.92,358.25L234.55,359.54L234.04,360.16L232.95,361.34L231.96,362L232.47,362.58L231.13,363.17L231.16,363.75L230.22,364.4L229.15,366.09L228.61,366.69L227.25,368.33L225.95,368.87L226.56,369.46L225.79,369.99L224.27,371.62L224.87,372.11L222.16,373.13L223.02,373.66L220.28,375.64L220.88,376.11L218.47,377.56L218.11,378.04L218.26,378.5L217.29,378.9L216.28,379.41L217.18,379.88L214.55,381.16L215.16,381.58L212.1,383.69L210.64,384.06L209.91,384.45L211.14,384.88L209.47,385.65L208.21,385.98L207.81,386.37L208.91,386.76L205.75,387.8L206.35,388.21L206.14,388.53L204.26,389.35L204.7,389.65L203.91,389.98L201.84,390.92L202,391.23L198.75,392.69L198.16,392.96L195.36,394.78L193.65,395.03L192.07,395.96L190.88,396.19L191.71,396.4L191,396.62L189.51,396.81L186.63,397.79L187.03,397.99L187.16,398.16L182.49,399.14L182.88,399.31L182.69,399.45L173.44,401.37L173.41,401.45L136.71,403.54L135.33,403.55L136.55,403.56L59.81,403.68L57.98,403.67L-201.44,403.47" style="vector-effect: non-scaling-stroke; fill: none; stroke: rgb(46, 145, 229); stroke-opacity: 1; stroke-width: 2px; opacity: 1;"/></g><g class="points"/><g class="text"/></g><g class="trace scatter trace9abad7" style="stroke-miterlimit: 2; opacity: 1;"><g class="fills"/><g class="errorbars"/><g class="lines"><path class="js-line" d="M-172.65,403.45L255.72,402.7L256.36,402.69L300.48,401.94L301.21,401.93L388.86,399.26L347.39,401.23L346.82,401.25L224.44,403.18L224.06,403.18L-172.85,403.43L-172.79,403.43" style="vector-effect: non-scaling-stroke; fill: none; stroke: rgb(225, 95, 153); stroke-opacity: 1; stroke-width: 2px; opacity: 1;"/></g><g class="points"/><g class="text"/></g><g class="trace scatter trace2e42ab" style="stroke-miterlimit: 2; opacity: 1;"><g class="fills"/><g class="errorbars"/><g class="lines"><path class="js-line" d="M-172.42,403.77L-15.53,401.9L-14.99,401.91L39.55,401.9L40.22,401.89L55.97,400.73L56.48,400.64L65.45,399.66L65.99,399.67L115.28,401.6L115.88,401.6L150.03,400.88L150.6,400.84L162.14,399.26L162.64,399.14L171.31,396.36L171.8,396.12L174.65,394.59L175.37,394.31L178.76,392.12L179.19,391.77L182.27,389.58L182.84,389.19L186.25,386.25L186.67,385.8L191.56,381.03L192.07,380.53L198.13,373.3L198.56,372.73L201.08,369.78L201.59,369.18L204.96,364.13L205.62,363.49L209.12,358.15L209.58,357.47L235.24,311.33L235.61,310.51L256.36,264.75L256.55,263.78L280,203.84L280.27,202.7L285.93,187.04L286.44,186.11L289.32,176.95L289.71,176.06L291.83,169.82L292.25,168.66L293.86,164.34L294.19,163.34L296.78,156.23L297.29,155.28L301.49,140.57L301.91,139.46L305.84,128.72L306.1,127.54L306.8,123.02L306.92,119.13L309.39,111.14L309.81,110.02L315.1,92.33L315.31,90.47L319.17,77.62L319.62,76.44L320.47,74.31L320.73,73.05L321.77,69.55L322.18,68.3L327.66,49.82L327.53,50.45L327.25,51.82L320.71,76.4L320.17,77.67L319.1,83L318.44,84.28L317.68,87.21L317.15,88.22L314.79,98.32L314.13,99.59L313.22,103.41L312.96,104.61L311.42,109.24L311.24,110.66L309.55,115.18L309.45,116.51L308.97,117.76L308.31,117.28L307.71,117.07L307.39,118.46L305.66,124.48L305.22,125.63L304.18,128.81L303.9,130.07L300.34,142.05L299.81,143.1L297.17,150.82L296.98,152.05L295.31,157.96L294.7,159.08L289.79,175.02L289.35,176.02L278.2,208.42L277.65,209.31L273.95,219.58L273.55,220.63L252.82,271.87L252.29,272.74L245.85,286.9L245.35,287.75L240.45,298.49L239.8,299.32L236.18,306.73L235.79,307.57L228.26,322.11L227.79,322.88L207.67,355.98L207.17,356.64L201.12,365.48L200.37,366.08L197.62,369.62L197.46,370.2L180.34,388.16L179.73,388.57L176.61,390.94L176.14,391.31L173.18,393.52L172.36,393.85L161.16,399.59L160.7,399.79L152.66,402.04L152,402.15L134.76,403.97L134.13,403.99L102.25,404.41L101.49,404.41L26.31,405.14L25.72,405.17L3.26,405.98L2.7,405.94L-27.98,404.79L-28.56,404.78L-172.84,403.78" style="vector-effect: non-scaling-stroke; fill: none; stroke: rgb(28, 167, 28); stroke-opacity: 1; stroke-width: 2px; opacity: 1;"/></g><g class="points"/><g class="text"/></g><g class="trace scatter tracec124b5" style="stroke-miterlimit: 2; opacity: 1;"><g class="fills"/><g class="errorbars"/><g class="lines"><path class="js-line" d="M-172.42,403.59L65.69,402.84L66.38,402.83L156.66,402.08L157.42,402.07L180.25,400.83L180.74,400.76L191.59,399.05L192.12,398.94L200.72,396.75L201.08,396.59L208.5,393.97L208.84,393.75L216.02,390.42L216.54,390.15L217.39,389.62L217.97,389.34L235.95,376.56L236.08,376.15L238.39,374.07L238.79,373.63L240.88,371.86L241.14,371.41L243.5,369.11L243.93,368.63L253.91,356.65L254.2,356.09L257.01,352.67L257.23,352.09L260.26,347.97L260.67,347.35L264.82,341.11L264.82,340.48L266.63,337.9L267.07,337.27L273.67,325.81L274.06,325.11L276.65,320.68L276.77,319.93L279.8,313.94L280.19,313.2L286.55,299.79L286.77,299.02L289.89,292.56L290.04,291.69L292.01,287.57L292.23,286.77L298.23,272.14L298.19,271.23L299.6,268.63L299.73,267.71L303.42,258.54L303.51,257.61L305.68,252.17L305.96,251.29L309.14,241.86L309.53,240.82L315.66,222.05L315.75,221.01L317.05,217.04L317.47,216.03L318.05,214.01L318.61,213.14L320.3,205.47L320.91,204.49L329.85,175.05L329.86,173.9L331,170.65L331.35,169.57L331.37,168.32L330.8,171.04L330.49,172.07L327.73,183.16L327.12,184.26L326.8,186.56L326.38,187.69L324.36,195.01L323.93,196.13L323.37,199.3L322.85,200.35L320.76,207.59L320.44,208.59L318.83,213.96L318.88,215.06L317.56,218L317.43,219.02L315.97,223.14L315.85,224.07L314.64,227.06L314.57,228.09L310.81,240.41L310.62,241.37L309.49,243.91L309.2,244.76L307.8,248.52L307.54,249.47L303.47,260.91L303.22,261.83L295.72,281.49L295.21,282.35L294.36,285.08L294.12,285.95L292.18,290.13L291.96,290.99L289.62,295.93L289.53,296.73L287.01,301.55L286.92,302.34L282.77,310.98L282.5,311.71L280.04,316.35L279.81,317.07L277.74,320.69L277.51,321.41L272.7,329.86L272.74,330.53L270.83,333.16L270.41,333.83L266.47,340.22L265.93,340.86L263.28,345.21L262.61,345.81L259.5,350.52L258.73,351.11L256.97,353.87L256.38,354.41L254.79,356.57L254.29,357.1L246.1,366.55L245.43,367.03L242.44,370.2L241.85,370.64L237.14,374.8L236.9,375.21L232.03,379.04L231.71,379.4L212.22,391.32L211.48,391.55L209.26,392.67L208.41,392.89L206.92,393.6L206.31,393.81L201.23,395.7L200.59,395.88L197.59,396.87L196.95,397.02L192.81,398.19L192.26,398.32L173.32,401.67L172.89,401.74L151.63,403.21L150.98,403.23L119.59,403.74L119.33,403.75L-172.61,403.59" style="vector-effect: non-scaling-stroke; fill: none; stroke: rgb(182, 129, 0); stroke-opacity: 1; stroke-width: 2px; opacity: 1;"/></g><g class="points"/><g class="text"/></g></g></g><g class="overplot"/><path class="xlines-above crisp" d="M76,429H500" style="fill: none; stroke-width: 2px; stroke: rgb(0, 0, 0); stroke-opacity: 1;"/><path class="ylines-above crisp" d="M77,12V428" style="fill: none; stroke-width: 2px; stroke: rgb(0, 0, 0); stroke-opacity: 1;"/><g class="overlines-above"/><g class="xaxislayer-above"><path class="xtick ticks crisp" d="M0,430v5" transform="translate(78,0)" style="stroke: rgb(68, 68, 68); stroke-opacity: 1; stroke-width: 1px;"/><path class="xtick ticks crisp" d="M0,430v5" transform="translate(134.27,0)" style="stroke: rgb(68, 68, 68); stroke-opacity: 1; stroke-width: 1px;"/><path class="xtick ticks crisp" d="M0,430v5" transform="translate(190.53,0)" style="stroke: rgb(68, 68, 68); stroke-opacity: 1; stroke-width: 1px;"/><path class="xtick ticks crisp" d="M0,430v5" transform="translate(246.8,0)" style="stroke: rgb(68, 68, 68); stroke-opacity: 1; stroke-width: 1px;"/><path class="xtick ticks crisp" d="M0,430v5" transform="translate(303.07,0)" style="stroke: rgb(68, 68, 68); stroke-opacity: 1; stroke-width: 1px;"/><path class="xtick ticks crisp" d="M0,430v5" transform="translate(359.33,0)" style="stroke: rgb(68, 68, 68); stroke-opacity: 1; stroke-width: 1px;"/><path class="xtick ticks crisp" d="M0,430v5" transform="translate(415.6,0)" style="stroke: rgb(68, 68, 68); stroke-opacity: 1; stroke-width: 1px;"/><path class="xtick ticks crisp" d="M0,430v5" transform="translate(471.87,0)" style="stroke: rgb(68, 68, 68); stroke-opacity: 1; stroke-width: 1px;"/><g class="xtick"><text text-anchor="middle" x="0" y="461.4" transform="translate(78,0)" style="font-family: 'Times New Roman', monospace; font-size: 22px; fill: rgb(105, 105, 105); fill-opacity: 1; white-space: pre; opacity: 1;">0</text></g><g class="xtick"><text text-anchor="middle" x="0" y="461.4" style="font-family: 'Times New Roman', monospace; font-size: 22px; fill: rgb(105, 105, 105); fill-opacity: 1; white-space: pre; opacity: 1;" transform="translate(134.27,0)">0.1</text></g><g class="xtick"><text text-anchor="middle" x="0" y="461.4" style="font-family: 'Times New Roman', monospace; font-size: 22px; fill: rgb(105, 105, 105); fill-opacity: 1; white-space: pre; opacity: 1;" transform="translate(190.53,0)">0.2</text></g><g class="xtick"><text text-anchor="middle" x="0" y="461.4" style="font-family: 'Times New Roman', monospace; font-size: 22px; fill: rgb(105, 105, 105); fill-opacity: 1; white-space: pre; opacity: 1;" transform="translate(246.8,0)">0.3</text></g><g class="xtick"><text text-anchor="middle" x="0" y="461.4" style="font-family: 'Times New Roman', monospace; font-size: 22px; fill: rgb(105, 105, 105); fill-opacity: 1; white-space: pre; opacity: 1;" transform="translate(303.07,0)">0.4</text></g><g class="xtick"><text text-anchor="middle" x="0" y="461.4" style="font-family: 'Times New Roman', monospace; font-size: 22px; fill: rgb(105, 105, 105); fill-opacity: 1; white-space: pre; opacity: 1;" transform="translate(359.33,0)">0.5</text></g><g class="xtick"><text text-anchor="middle" x="0" y="461.4" style="font-family: 'Times New Roman', monospace; font-size: 22px; fill: rgb(105, 105, 105); fill-opacity: 1; white-space: pre; opacity: 1;" transform="translate(415.6,0)">0.6</text></g><g class="xtick"><text text-anchor="middle" x="0" y="461.4" style="font-family: 'Times New Roman', monospace; font-size: 22px; fill: rgb(105, 105, 105); fill-opacity: 1; white-space: pre; opacity: 1;" transform="translate(471.87,0)">0.7</text></g></g><g class="yaxislayer-above"><path class="ytick ticks crisp" d="M76,0h-5" transform="translate(0,415.39)" style="stroke: rgb(68, 68, 68); stroke-opacity: 1; stroke-width: 1px;"/><path class="ytick ticks crisp" d="M76,0h-5" transform="translate(0,364.97)" style="stroke: rgb(68, 68, 68); stroke-opacity: 1; stroke-width: 1px;"/><path class="ytick ticks crisp" d="M76,0h-5" transform="translate(0,314.55)" style="stroke: rgb(68, 68, 68); stroke-opacity: 1; stroke-width: 1px;"/><path class="ytick ticks crisp" d="M76,0h-5" transform="translate(0,264.12)" style="stroke: rgb(68, 68, 68); stroke-opacity: 1; stroke-width: 1px;"/><path class="ytick ticks crisp" d="M76,0h-5" transform="translate(0,213.7)" style="stroke: rgb(68, 68, 68); stroke-opacity: 1; stroke-width: 1px;"/><path class="ytick ticks crisp" d="M76,0h-5" transform="translate(0,163.27)" style="stroke: rgb(68, 68, 68); stroke-opacity: 1; stroke-width: 1px;"/><path class="ytick ticks crisp" d="M76,0h-5" transform="translate(0,112.85)" style="stroke: rgb(68, 68, 68); stroke-opacity: 1; stroke-width: 1px;"/><path class="ytick ticks crisp" d="M76,0h-5" transform="translate(0,62.42)" style="stroke: rgb(68, 68, 68); stroke-opacity: 1; stroke-width: 1px;"/><path class="ytick ticks crisp" d="M76,0h-5" transform="translate(0,12)" style="stroke: rgb(68, 68, 68); stroke-opacity: 1; stroke-width: 1px;"/><g class="ytick"><text text-anchor="end" x="66.6" y="7.699999999999999" transform="translate(0,415.39)" style="font-family: 'Times New Roman', monospace; font-size: 22px; fill: rgb(105, 105, 105); fill-opacity: 1; white-space: pre; opacity: 1;">0</text></g><g class="ytick"><text text-anchor="end" x="66.6" y="7.699999999999999" style="font-family: 'Times New Roman', monospace; font-size: 22px; fill: rgb(105, 105, 105); fill-opacity: 1; white-space: pre; opacity: 1;" transform="translate(0,364.97)">20</text></g><g class="ytick"><text text-anchor="end" x="66.6" y="7.699999999999999" style="font-family: 'Times New Roman', monospace; font-size: 22px; fill: rgb(105, 105, 105); fill-opacity: 1; white-space: pre; opacity: 1;" transform="translate(0,314.55)">40</text></g><g class="ytick"><text text-anchor="end" x="66.6" y="7.699999999999999" style="font-family: 'Times New Roman', monospace; font-size: 22px; fill: rgb(105, 105, 105); fill-opacity: 1; white-space: pre; opacity: 1;" transform="translate(0,264.12)">60</text></g><g class="ytick"><text text-anchor="end" x="66.6" y="7.699999999999999" style="font-family: 'Times New Roman', monospace; font-size: 22px; fill: rgb(105, 105, 105); fill-opacity: 1; white-space: pre; opacity: 1;" transform="translate(0,213.7)">80</text></g><g class="ytick"><text text-anchor="end" x="66.6" y="7.699999999999999" style="font-family: 'Times New Roman', monospace; font-size: 22px; fill: rgb(105, 105, 105); fill-opacity: 1; white-space: pre; opacity: 1;" transform="translate(0,163.27)">100</text></g><g class="ytick"><text text-anchor="end" x="66.6" y="7.699999999999999" style="font-family: 'Times New Roman', monospace; font-size: 22px; fill: rgb(105, 105, 105); fill-opacity: 1; white-space: pre; opacity: 1;" transform="translate(0,112.85)">120</text></g><g class="ytick"><text text-anchor="end" x="66.6" y="7.699999999999999" style="font-family: 'Times New Roman', monospace; font-size: 22px; fill: rgb(105, 105, 105); fill-opacity: 1; white-space: pre; opacity: 1;" transform="translate(0,62.42)">140</text></g><g class="ytick"><text text-anchor="end" x="66.6" y="7.699999999999999" style="font-family: 'Times New Roman', monospace; font-size: 22px; fill: rgb(105, 105, 105); fill-opacity: 1; white-space: pre; opacity: 0;" transform="translate(0,12)">160</text></g></g><g class="overaxes-above"/></g></g><g class="polarlayer"/><g class="smithlayer"/><g class="ternarylayer"/><g class="geolayer"/><g class="funnelarealayer"/><g class="pielayer"/><g class="iciclelayer"/><g class="treemaplayer"/><g class="sunburstlayer"/><g class="glimages"/><defs id="topdefs-50fc3c"><g class="clips"/><clipPath id="legend50fc3c"><rect width="185" height="137" x="0" y="0"/></clipPath></defs><g class="layer-above"><g class="imagelayer"/><g class="shapelayer"/></g><g class="infolayer"><g class="legend" pointer-events="all" transform="translate(78,12)"><rect class="bg" shape-rendering="crispEdges" width="185" height="137" x="0" y="0" style="stroke: rgb(68, 68, 68); stroke-opacity: 1; fill: rgb(255, 255, 255); fill-opacity: 1; stroke-width: 0px;"/><g class="scrollbox" transform="" clip-path="url(#legend50fc3c)"><g class="groups"><g class="traces" transform="translate(0,20.8)" style="opacity: 1;"><text class="legendtext" text-anchor="start" x="40" y="8.58" style="font-family: 'Times New Roman', monospace; font-size: 22px; fill: rgb(105, 105, 105); fill-opacity: 1; white-space: pre;">IrO​<tspan style="font-size:70%" dy="0.3em">x</tspan><tspan dy="-0.21em">​</tspan></text><g class="layers" style="opacity: 1;"><g class="legendfill"/><g class="legendlines"><path class="js-line" d="M5,0h30" style="fill: none; stroke: rgb(46, 145, 229); stroke-opacity: 1; stroke-width: 2px;"/></g><g class="legendsymbols"><g class="legendpoints"/></g></g><rect class="legendtoggle" x="0" y="-15.8" width="179.765625" height="31.6" style="fill: rgb(0, 0, 0); fill-opacity: 0;"/></g><g class="traces" transform="translate(0,52.400000000000006)" style="opacity: 1;"><text class="legendtext" text-anchor="start" x="40" y="8.58" style="font-family: 'Times New Roman', monospace; font-size: 22px; fill: rgb(105, 105, 105); fill-opacity: 1; white-space: pre;">NiCoFeO​<tspan style="font-size:70%" dy="0.3em">x</tspan><tspan dy="-0.21em">​</tspan></text><g class="layers" style="opacity: 1;"><g class="legendfill"/><g class="legendlines"><path class="js-line" d="M5,0h30" style="fill: none; stroke: rgb(225, 95, 153); stroke-opacity: 1; stroke-width: 2px;"/></g><g class="legendsymbols"><g class="legendpoints"/></g></g><rect class="legendtoggle" x="0" y="-15.8" width="179.765625" height="31.6" style="fill: rgb(0, 0, 0); fill-opacity: 0;"/></g><g class="traces" transform="translate(0,84)" style="opacity: 1;"><text class="legendtext" text-anchor="start" x="40" y="8.58" style="font-family: 'Times New Roman', monospace; font-size: 22px; fill: rgb(105, 105, 105); fill-opacity: 1; white-space: pre;">Co​<tspan style="font-size:70%" dy="0.3em">57</tspan><tspan dy="-0.21em">​</tspan>Ni​<tspan style="font-size:70%" dy="0.3em">14</tspan><tspan dy="-0.21em">​</tspan>Fe​<tspan style="font-size:70%" dy="0.3em">29</tspan><tspan dy="-0.21em">​</tspan>N​<tspan style="font-size:70%" dy="0.3em">x</tspan><tspan dy="-0.21em">​</tspan></text><g class="layers" style="opacity: 1;"><g class="legendfill"/><g class="legendlines"><path class="js-line" d="M5,0h30" style="fill: none; stroke: rgb(28, 167, 28); stroke-opacity: 1; stroke-width: 2px;"/></g><g class="legendsymbols"><g class="legendpoints"/></g></g><rect class="legendtoggle" x="0" y="-15.8" width="179.765625" height="31.6" style="fill: rgb(0, 0, 0); fill-opacity: 0;"/></g><g class="traces" transform="translate(0,115.60000000000001)" style="opacity: 1;"><text class="legendtext" text-anchor="start" x="40" y="8.58" style="font-family: 'Times New Roman', monospace; font-size: 22px; fill: rgb(105, 105, 105); fill-opacity: 1; white-space: pre;">Co​<tspan style="font-size:70%" dy="0.3em">45</tspan><tspan dy="-0.21em">​</tspan>Ni​<tspan style="font-size:70%" dy="0.3em">45</tspan><tspan dy="-0.21em">​</tspan>Fe​<tspan style="font-size:70%" dy="0.3em">10</tspan><tspan dy="-0.21em">​</tspan>N​<tspan style="font-size:70%" dy="0.3em">x</tspan><tspan dy="-0.21em">​</tspan></text><g class="layers" style="opacity: 1;"><g class="legendfill"/><g class="legendlines"><path class="js-line" d="M5,0h30" style="fill: none; stroke: rgb(182, 129, 0); stroke-opacity: 1; stroke-width: 2px;"/></g><g class="legendsymbols"><g class="legendpoints"/></g></g><rect class="legendtoggle" x="0" y="-15.8" width="179.765625" height="31.6" style="fill: rgb(0, 0, 0); fill-opacity: 0;"/></g></g></g><rect class="scrollbar" rx="20" ry="3" width="0" height="0" x="0" y="0" style="fill: rgb(128, 139, 164); fill-opacity: 1;"/></g><g class="g-gtitle"/><g class="g-xtitle" transform="translate(0,-9.074999999999989)"><text class="xtitle" x="289" y="499.60625" text-anchor="middle" style="font-family: 'Times New Roman', monospace; font-size: 26px; fill: rgb(105, 105, 105); opacity: 1; font-weight: normal; white-space: pre;">Overpotential, η(V) - iR​<tspan style="font-size:70%" dy="0.3em">u</tspan><tspan dy="-0.21em">​</tspan></text></g><g class="g-ytitle" transform="translate(26.5283203125,0)"><text class="ytitle" transform="rotate(-90,0.39374999999999716,220)" x="0.39374999999999716" y="220" text-anchor="middle" style="font-family: 'Times New Roman', monospace; font-size: 26px; fill: rgb(105, 105, 105); opacity: 1; font-weight: normal; white-space: pre;">Current (mA/cm​<tspan style="font-size:70%" dy="-0.6em">2</tspan><tspan dy="0.42em">​</tspan>)</text></g></g></svg>