<svg class="main-svg" xmlns="http://www.w3.org/2000/svg" xmlns:xlink="http://www.w3.org/1999/xlink" width="500" height="500" style="" viewBox="0 0 500 500"><rect x="0" y="0" width="500" height="500" style="fill: rgb(255, 255, 255); fill-opacity: 1;"/><defs id="defs-02137c"><g class="clips"><clipPath id="clip02137cxyplot" class="plotclip"><rect width="418" height="428"/></clipPath><clipPath class="axesclip" id="clip02137cx"><rect x="68" y="0" width="418" height="500"/></clipPath><clipPath class="axesclip" id="clip02137cy"><rect x="0" y="0" width="500" height="428"/></clipPath><clipPath class="axesclip" id="clip02137cxy"><rect x="68" y="0" width="418" height="428"/></clipPath></g><g class="gradients"/><g class="patterns"/></defs><g class="bglayer"><rect class="bg" x="68" y="0" width="418" height="428" style="fill: rgb(0, 0, 0); fill-opacity: 0; stroke-width: 0;"/></g><g class="layer-below"><g class="imagelayer"/><g class="shapelayer"/></g><g class="cartesianlayer"><g class="subplot xy"><g class="layer-subplot"><g class="shapelayer"/><g class="imagelayer"/></g><g class="minor-gridlayer"><g class="x"/><g class="y"/></g><g class="gridlayer"><g class="x"/><g class="y"/></g><g class="zerolinelayer"><path class="yzl zl crisp" transform="translate(0,321)" d="M68,0h418" style="stroke: rgb(128, 128, 128); stroke-opacity: 1; stroke-width: 1px;"/></g><path class="xlines-below"/><path class="ylines-below"/><g class="overlines-below"/><g class="xaxislayer-below"/><g class="yaxislayer-below"/><g class="overaxes-below"/><g class="plot" transform="translate(68,0)" clip-path="url(#clip02137cxyplot)"><g class="scatterlayer mlayer"><g class="trace scatter tracefc0ff0" style="stroke-miterlimit: 2; opacity: 1;"><g class="fills"/><g class="errorbars"/><g class="lines"><path class="js-line" d="M-287.18,321.22L-255.79,320.62L-254.3,320.62L-57.22,319.51L-56.37,319.51L98.75,318.93L99.41,318.93L268.92,318.18L269.82,318.17L366.27,317.42L367.25,317.41L519.18,312.16L519.86,312.01L558.25,301.05L559.31,300.54L581.9,285.22L582.94,284.3L601.53,263.77L602.4,262.42L637.87,198.1L639.09,195.82L675.6,89.11L676.37,85.71L696.24,6.54L696.9,2.37L729.37,-178.87L730.48,-184.98L797.06,-726.95L790.86,-637.84L790.19,-627.76L778.96,-487.2L777.9,-478.67L742.85,-187.6L742.03,-182.06L691.54,56.7L690.64,60.12L665.63,137.33L664.51,139.9L642.86,191.93L641.95,193.99L619.22,235.15L618.31,236.65L594.19,268.14L593.07,269.23L566.53,292.17L565.55,292.85L543.7,304.84L542.65,305.28L513.67,314.16L512.58,314.37L481.48,318.47L480.53,318.55L444.53,320.01L443.49,320.03L348.19,320.68L347.28,320.68L-216,321.42L-215.75,321.48L-178.29,321L-177.34,321L-27.89,320.71L-26.82,320.71L400.9,319.96L401.99,319.95L512.74,317.52L513.75,317.43L554.5,310.19L555.26,309.86L581.53,297.78L582.49,297.12L610.18,272.88L611.02,271.76L637.37,235.85L638.46,234.25L678.73,150.15L679.5,147.69L744.68,-54.78L745.46,-58.18L811.01,-289.8L802.98,-244.28L802.02,-238.98L764.82,-56.11L763.38,-52.3L736.46,43.06L735.38,46.03L666.43,201.07L665.16,202.68L634.4,245.43L633.29,246.62L580.18,292.15L578.91,292.74L561.59,301.72L560.4,302.17L534.55,311.21L533.45,311.48L493.63,318L492.94,318.09L460.18,319.86L459.01,319.89L405.94,320.57L404.9,320.58L-200.42,321.33L-201.39,321.34L-216.51,321.41L116.5,320.66L117.73,320.65L429.02,319.9L429.88,319.89L526.24,316.4L527.48,316.28L558.61,310.17L559.53,309.86L585.51,299.16L586.21,298.61L609.07,283.58L610.1,282.76L655.8,233.58L656.66,232.2L674.04,207.02L674.81,205.42L701.48,157.28L702.43,155.35L720.65,118.34L721.17,116.14L787.28,-57.42L788.39,-60.33L814.79,-143.46L777.57,-2.01L776.69,1.05L742.73,95.52L741.97,97.89L710.31,163.81L709.24,165.55L647.98,248.87L646.88,249.89L590.71,292.16L589.61,292.71L550.09,308.62L549.08,308.92L521.12,315.07L519.71,315.24L483.56,318.97L482.52,319.03L427.61,320.43L426.51,320.43L350.34,320.76L349.46,320.76L-217.47,321.24" style="vector-effect: non-scaling-stroke; fill: none; stroke: rgb(251, 13, 13); stroke-opacity: 1; stroke-width: 2px; opacity: 1;"/></g><g class="points"/><g class="text"/></g><g class="trace scatter trace3ab224" style="stroke-miterlimit: 2; opacity: 1;"><g class="fills"/><g class="errorbars"/><g class="lines"><path class="js-line" d="M-357.14,321.23L-317.49,320.94L-316.23,320.94L-14.57,319.11L-13.15,319.07L20.96,317.32L21.59,317.25L43.75,315.24L44.37,315.11L58.76,313.08L60.12,312.91L68.24,311.43L69.48,311.23L107.85,301.04L108.97,300.68L119.02,296.85L120.33,296.44L139.87,287.7L140.61,287.18L157.39,278.06L158.4,277.44L172.3,268.57L173.03,267.86L180.31,262.77L181.45,262.01L191.64,254.16L191.96,253.35L196,250.86L196.61,250.02L201.56,245.73L203.03,244.86L206,242.24L206.71,241.35L216.66,233.1L217.14,232.17L219.03,230.29L220.87,229.34L235.78,214.69L237.12,213.69L238.55,211.67L239.83,210.66L242.69,207.62L243.37,206.64L246.9,203.6L247.52,202.58L251.47,199.5L251.86,198.48L260.29,190.27L261.43,189.23L269.22,180.95L270.62,179.96L274.49,175.84L275.55,174.8L288.9,161.58L290.11,160.56L309.36,141.86L310.66,140.91L317.41,134.13L318.66,133.19L324.89,127.52L325.63,126.55L341.05,112.66L342.37,111.75L349.31,105.55L350.6,104.65L357.34,98.42L358.73,97.54L368.69,89.02L370.23,88.18L383.2,77.47L384.49,76.67L387.35,74.25L388.52,73.52L396.45,67.08L397.58,66.29L442.72,30.04L443.47,29.06L453.93,18.75L455.11,17.65L479.42,-14.28L480.23,-15.8L491.42,-34.77L492.33,-36.52L499.83,-50.24L500.5,-52.27L543.39,-167.82L544.14,-170.99L607.47,-469.41L608.16,-474.97L652.05,-779.37L652.78,-786.35L779.92,-1850.69L764.78,-1646.3L763.78,-1637.61L705.48,-1034.89L704.62,-1027.31L616.59,-386.15L615.67,-380.72L594.99,-266.6L594.31,-261.53L581.35,-194.7L580.51,-190L560.65,-98.31L559.6,-94.11L542.22,-23.74L541.3,-20.04L522.93,46.63L521.73,49.89L509.33,90.49L508.17,93.45L477.57,176.61L476.03,178.93L467.32,198.82L466.4,200.92L459.46,215.2L458.1,217.13L447.55,237.34L446.44,239.07L440,248.97L439.29,250.55L437.49,253.76L436.01,255.31L423.26,273.73L422.11,275.07L407.86,291.8L406.42,292.89L397.49,302.03L396.39,302.97L394.36,305.18L393.13,306.04L386.03,312.12L384.74,312.93L382.84,314.53L381.51,315.31L376.79,319.02L375.23,319.77L372.31,322.11L371.42,322.79L351.36,333.95L349.7,334.46L347.71,335.92L346.23,336.4L335.67,340.67L335.02,341.08L319.31,346.22L317.99,346.52L306.83,349.46L305.82,349.68L287.23,353.02L285.93,353.16L272.66,354.64L271.39,354.73L247.66,355.72L246.07,355.7L225.31,355.33L224.14,355.29L191.33,353.26L190.58,353.17L163.79,350.85L162.76,350.75L129,347.7L128.08,347.6L8.65,338.38L7.67,338.32L-196.18,332.91L-197.62,332.91L-216.07,332.96L-185.67,328.98L-184.61,328.87L-84.41,323.51L-83.27,323.47L39.73,319.39L40.37,319.34L64.47,317.98L65.65,317.92L148.07,310.61L149.3,310.49L189.17,305.51L189.77,305.37L202.39,303.59L203.46,303.44L224.09,300.26L225.25,300.1L259.63,294.16L260.57,293.96L281.35,289.86L282.29,289.64L295.13,286.93L295.85,286.69L323.33,279.9L324.11,279.6L344.47,273.29L344.82,272.94L368.17,264.35L369.2,263.91L375.16,261.28L376.35,260.82L399.44,250.26L400.04,249.75L403.24,248.16L404.35,247.62L414.53,241.91L415.4,241.3L421.86,237.62L423.02,236.97L428.83,232.86L430,232.16L437.21,226.87L437.82,226.04L444.53,220.95L445.51,220.12L448.61,217.33L449.88,216.4L475.22,187.89L475.9,186.53L499.7,150.14L500.32,148.3L505.32,138.87L506.85,136.93L541.13,54.46L541.5,51.56L553.19,19.45L553.84,16.41L568.2,-32.75L569.27,-36.21L582.63,-87.06L583.67,-90.79L595.32,-139.74L596.34,-143.87L607.1,-190.61L607.62,-194.99L655.98,-456.7L656.74,-462.81L705.13,-788.38L706.09,-795.22L790.27,-1380.68L758.05,-1064.17L757.27,-1055.98L731.15,-855.07L730.54,-847.61L661.73,-413.17L661,-407.88L634.74,-274.45L633.88,-270.33L602.6,-133.62L601.18,-129.91L580.32,-50.02L579.11,-46.59L565.99,-0.25L564.32,2.96L545.03,62.79L543.92,65.59L529.53,105.87L528.13,108.42L499.25,176.16L498.05,178.23L489.08,196.12L488.12,198.03L482.6,209.11L481.2,210.93L470.28,229.73L469.66,231.37L460.58,245.4L459.22,246.86L455.29,252.61L453.95,254.02L446.9,263.52L446.13,264.79L443.24,268.59L442.23,269.83L438.7,273.54L438.37,274.73L429.7,283.79L429.05,284.89L424.58,289.04L424.09,290.06L420.1,293.08L419.68,294.01L417.4,295.92L415.77,296.88L411.35,301.45L410.22,302.33L406.93,305.16L405.8,305.96L403.98,307.6L403.37,308.42L399.08,310.78L399.01,311.54L390.53,317.27L389.21,317.95L370.82,328.59L369.7,329.13L367.05,330.66L365.42,331.15L361.79,333.12L360.61,333.59L357.7,334.99L356.24,335.45L353.62,336.71L352.2,337.12L323.5,346.8L322.27,347.08L310.17,350.03L308.79,350.26L286.16,354.07L284.82,354.21L263.31,356.24L262.09,356.3L225.58,356.9L224.2,356.87L199.15,355.96L198.01,355.89L145.88,352.16L144.83,352.08L-50.79,337.88L-52.17,337.84L-216.27,334.03L-193.72,330.84L-192.85,330.73L-126.16,325.84L-125.05,325.79L-12.91,322.12L-11.72,322.09L58.42,319.34L59.17,319.29L103.43,316.53L104.46,316.46L169.09,310.64L169.93,310.52L217.17,304.93L217.97,304.79L234.54,302.48L235.86,302.33L286.17,294.13L286.95,293.94L294.12,292.53L295.62,292.32L307.65,289.72L309.01,289.49L328.89,284.74L329.39,284.46L342.91,280.62L344.15,280.31L359.37,275.49L359.68,275.14L369.48,271.86L370.76,271.48L375.54,269.55L376.41,269.15L394.08,262.23L394.62,261.81L402.88,258.68L403.39,258.23L437.62,240.85L438.4,240.21L455.17,228.78L456,227.98L475.51,210.64L476.43,209.61L488.94,196.14L489.96,194.92L496.62,185.99L497.92,184.7L510.26,167.52L510.66,166.04L525.17,142.73L526.25,140.93L537.4,120.17L538,118.1L547.34,99.11L548.41,96.93L590.65,-14.77L591.5,-17.74L622.7,-124.63L623.63,-129.57L633.53,-166.66L634.75,-170.58L647.71,-225.84L649.1,-229.85L665.55,-307.25L666.65,-311.75L682.68,-388.64L683.35,-393.68L704.34,-502.56L705.32,-507.02L798.7,-1017.28L771.3,-801.5L770.74,-795.09L682.09,-304.74L680.81,-301.2L642.06,-141.26L640.95,-137.55L580.77,50.47L579.18,53.11L553.46,114.62L552.96,116.74L532.62,158.61L531.19,160.5L520.32,180.7L519.69,182.46L487.06,232.69L485.95,234.05L476.91,245.94L475.8,247.21L454.35,271.35L453.47,272.39L435.01,289.44L433.71,290.29L408.96,308.61L407.72,309.26L402.97,312.4L401.77,313.02L374.24,326.96L373.09,327.41L369.96,328.72L368.86,329.15L357.64,333.48L356.54,333.86L344.09,337.91L343.19,338.23L319.32,344.36L317.86,344.59L299.58,348.11L298.16,348.29L270.54,351.75L269.44,351.84L248.16,353.2L247.04,353.24L202.24,353.66L201.35,353.64L160.63,352.18L159.84,352.13L111.41,349.38L110.64,349.31L76.61,347.17L75.81,347.11L-139.95,336.1L-140.97,336.08L-216.61,334.95" style="vector-effect: non-scaling-stroke; fill: none; stroke: rgb(218, 22, 255); stroke-opacity: 1; stroke-width: 2px; opacity: 1;"/></g><g class="points"/><g class="text"/></g><g class="trace scatter trace3522ab" style="stroke-miterlimit: 2; opacity: 1;"><g class="fills"/><g class="errorbars"/><g class="lines"><path class="js-line" d="M-454.16,321.27L-400.92,320.97L-400.3,320.97L455.22,320.22L456.51,320.2L566.76,315.22L567.1,315.15L714.49,298.4L715.15,298.2L827.71,282.29L786.55,294.21L785.27,294.46L720.82,305.01L720,305.13L605.23,315.41L604.36,315.47L451.95,320.66L451,320.67L372.57,320.94L371.61,320.94L-216.46,320.96L550.32,317.94L551.04,317.89L719.77,304.33L720.48,304.19L828.37,291.01L632.74,315.01L631.37,315.07L485.07,320.29L483.72,320.3L409.82,320.86L408.6,320.86L-216.78,321.01L561.95,317.72L563.04,317.68L828.02,294.07L778.69,302.84L777.39,302.99L684.65,312.38L683.3,312.45L611.95,316.64L610.65,316.69L462.02,320.6L460.92,320.61L307.92,320.95L307.11,320.95L252.56,320.98L251.67,320.98L-216.33,321.05L-215.8,321.07" style="vector-effect: non-scaling-stroke; fill: none; stroke: rgb(34, 42, 42); stroke-opacity: 1; stroke-width: 2px; opacity: 1;"/></g><g class="points"/><g class="text"/></g><g class="trace scatter trace2232b6" style="stroke-miterlimit: 2; opacity: 1;"><g class="fills"/><g class="errorbars"/><g class="lines"><path class="js-line" d="M-254.79,320.88L-104.89,320.15L-104.01,320.13L-7.78,317.35L-6.53,317.28L15.43,315.27L16.81,315.14L41.75,310.81L42.68,310.56L63.55,304.16L64.39,303.75L81.23,295.95L82.1,295.37L83.97,294.19L85.47,293.6L95.53,286.86L96.36,286.13L104.77,279.78L105.4,278.93L110.01,275.08L111.15,274.18L117.56,268.42L118.43,267.38L120.31,265.34L121.61,264.29L142.07,240.99L142.95,239.71L149.02,231.85L150.07,230.53L153.26,226.54L154.48,225.17L160.33,216.96L161.3,215.58L167.61,207.38L168.48,206.01L174.27,197.77L175.66,196.42L177.58,193.83L178.45,192.49L193.97,174.24L195.23,173.16L199.18,169.04L200.38,168.05L204.2,164.56L205.35,163.71L212.26,158.73L213.5,158.08L224.22,153.93L225,153.71L229.9,153.11L230.93,153.02L239.6,153.54L240.5,153.71L251.32,156.36L252.45,156.64L258.37,158.26L259.63,158.46L267.76,158.68L269.13,158.48L272.96,157.4L274.24,156.97L291.69,146.6L292.57,146.26L296.85,145.81L298.19,145.81L303.35,147.3L304.18,147.87L309.81,151.79L310.93,152.89L322.39,165.09L323.36,166.35L336.08,178.82L337.21,179.87L345.56,186.05L347.03,186.77L356.61,191.87L357.46,192.28L363.65,194.65L364.87,195.18L379.76,197.07L380.67,197L393.18,193.85L394.09,193.33L404.27,185.6L405.24,184.5L411.99,176.19L412.53,174.6L414.34,171.1L415.77,169.24L417.45,165.43L418.07,163.23L421.44,155.96L422.15,153.32L425.76,144.89L426.03,141.81L430.57,128.26L430.97,124.37L434.44,111.98L435.05,107.53L448.5,28.25L449.31,21.32L468.77,-177.3L469.48,-188.04L503.3,-725.54L503.97,-739.79L704.41,-6138.46L556.99,-1866.31L556.06,-1850.27L497.95,-732.24L497.17,-719.44L464.47,-239.41L463.64,-228.81L448.37,-50.99L447.41,-41.97L433.27,88.88L432.1,96.2L425.88,143.42L424.56,151.54L418.31,191.71L417.25,196.71L415.44,206.92L414.59,211.87L402.73,260.59L401.8,263.95L397.27,278.81L396.05,281.54L385.59,303.59L384.65,305.25L382.61,308.39L381.36,309.81L378.42,313.67L377.2,314.9L373.43,319.28L372.11,320.19L365.33,325.6L364.1,326.23L355.98,330.44L354.62,330.85L349.41,332.62L348.51,332.94L335.85,335.67L334.72,335.85L327.48,336.82L326.88,336.75L317.43,337.78L316.47,337.89L275.44,339.02L274.51,339.02L268.14,339.05L267.28,339.02L250.29,339.06L249.07,339.05L212.53,339.59L211.35,339.65L176.86,342.15L176.02,342.35L150.29,349.09L149.21,349.68L145.2,352.9L144.13,353.89L138.79,359.74L137.95,361.05L132.42,367.15L131.29,368.07L127.36,370.68L125.93,370.94L122.03,371.45L120.96,371.3L116.6,370.01L115.85,369.51L90.54,354L89.38,353.55L76.93,349.06L75.63,348.82L58.09,345.69L56.63,345.58L24.56,344.06L23.25,344.04L-20.31,343.56L-21.41,343.49L-50.97,341.29L-52.29,341.16L-171.68,328.85L-172.68,328.81L-216.38,327.36L-174.78,324.91L-173.7,324.87L-112.32,322.98L-111.28,322.95L-50.62,319.27L-49.41,319.15L-27.45,315.23L-26.24,314.98L7.22,303.28L7.92,302.85L12.99,300.68L14,300.27L34.81,293.53L36.03,293.3L47.49,291.6L48.33,291.5L61.16,291.37L62.01,291.39L79.86,293.1L80.71,293.24L117.36,296.84L118.52,296.87L144.79,296.98L145.75,296.87L159.54,296.05L160.18,295.97L172.12,294.48L173.15,294.27L187.47,290.35L188.5,289.94L194.7,286.96L195.64,286.26L199.75,283.06L201,282.06L205.4,276.85L206.57,275.39L214.49,262.64L215.76,261.2L219.52,257.06L220.76,256.34L223.73,255.22L224.96,255.15L227.88,255.76L229.22,256.18L233.19,259.03L234.52,259.85L248.36,271.44L249.32,272.14L252.42,274.18L253.64,274.86L259.75,278.28L260.74,278.67L270.2,281.67L271.49,281.92L277.45,283.25L278.36,283.47L289.27,285.16L290.14,285.29L309.23,286.53L310.53,286.55L322.89,286.35L323.94,286.33L347.88,284.44L348.45,284.38L368.54,280.37L369.58,279.99L379.84,275.7L381.04,275L388.18,269.78L389.13,268.89L395.35,262.66L396.34,261.32L401.47,254.04L402.46,252.31L407.38,242.8L408.39,240.57L411.67,233.36L412.64,230.6L414.42,225.15L415.64,222.11L423.41,194.31L424.28,190.38L438.67,112.97L439.46,106.74L448.62,36.84L449.28,29.16L458.19,-53.95L459.04,-62.86L466.3,-140.7L467.17,-150.54L538.14,-1304.43L538.62,-1319.56L708.46,-5909.44L646.02,-3919.77L645.37,-3899.2L499.73,-696.15L498.8,-683.63L472.81,-312.78L471.7,-302.19L458.95,-151.12L458.15,-141.43L443.28,7.41L442.27,15.41L436.34,68.57L435.06,75.96L422.06,167.38L421,172.98L417.14,193.98L416.11,199.04L413.53,213.49L412.47,218.06L404.83,250.47L403.78,254.12L393.95,284.25L392.98,286.51L385.81,301.54L384.42,303.65L382.67,307.29L381.42,308.8L373.41,318.93L372.16,319.89L363.05,327.1L361.74,327.69L356.13,330.76L354.88,331.23L350.81,332.62L349.47,333L333.23,336.55L331.83,336.65L290.11,338.78L289.1,338.75L261.57,338.8L260.71,338.76L257.54,338.75L256.47,338.78L230.7,338.97L229.55,339.08L211.78,339.79L210.48,339.86L194.07,341.2L192.73,341.17L169.34,344.81L169.09,345.07L149.85,351.45L149.02,352.09L140.83,359.83L140.05,360.94L130.41,370.92L129.55,371.58L124.55,372.8L123.17,372.77L118.94,371.52L117.54,371.01L106.13,362.91L105.4,362.13L89.42,352.86L88.25,352.38L76.64,348.56L75.67,348.31L64.17,346.16L62.99,346.02L45.33,344.36L44.12,344.34L13.75,343.84L12.8,343.85L-30.21,343.46L-31.2,343.43L-72.17,339L-73.3,338.75L-131.01,331.31L-132.22,331.24L-216.22,327.42L-190.87,325.67L-190.04,325.62L-51.9,319.49L-50.62,319.36L-31.48,316.08L-30.4,315.83L-14.88,311.29L-13.89,310.93L3.83,304.15L4.95,303.74L22.36,297.46L23.46,297.16L38.99,294.07L40.17,293.96L55.08,293.61L55.98,293.65L80.89,296.3L82.05,296.43L108.22,299.08L109.3,299.12L126.76,299.75L127.72,299.75L158.21,298.55L159.36,298.41L169.58,297.21L170.92,297.05L181.62,294.89L182.32,294.58L192.42,290.77L193.67,290.2L196.75,288.34L197.53,287.63L201.17,285.07L201.86,284.08L206.12,279.3L207.46,277.42L218.54,261.14L219.79,260.18L223.73,257.92L224.95,257.73L227.9,258.04L229.02,258.38L233.29,260.9L234.31,261.66L243.94,269.3L245.01,270.16L248.1,272.52L249.25,273.17L256.55,277.48L257.79,278L263.97,280.82L264.93,281.25L283.85,286.78L285.11,287.02L290.09,288.16L291.23,288.34L307.05,290.16L308.12,290.21L323.92,290.48L324.91,290.47L332.25,290.24L333.23,290.07L341.57,289.73L342.67,289.6L361.29,286.93L362.36,286.73L373.78,283.21L374.82,282.77L383.13,278.34L384.2,277.63L389.28,273.45L390.36,272.54L396.59,265.65L397.57,264.31L403.59,254.58L404.58,252.67L407.61,246.57L408.6,244.27L416.89,222.45L417.69,219.26L420.5,209.05L421.6,205.34L427.51,180.8L428.02,176.17L440.46,105.58L441.36,99.24L472.48,-189.8L473.27,-199.59L483.73,-323.64L484.38,-334.53L625.03,-3085.89L625.67,-3104.23L713.05,-5681.27L545.52,-1361.12L544.92,-1347.06L470.24,-232.77L468.91,-223.05L452.65,-52.67L451.54,-44.38L440.25,55.3L439.44,62.35L435.47,89.88L434.73,96.49L427.64,141.3L427.2,147.58L423.15,169.69L422.42,175.07L417.41,199.89L416.56,204.65L405.74,249.65L404.64,253.04L401.02,266.08L399.84,269.03L391.03,291.84L389.97,294L382.62,307.35L381.4,308.84L372.23,319.71L371.14,320.66L368.17,323.28L366.99,323.98L356.71,330.04L355.87,330.44L345.44,333.77L344.21,334.02L334.75,335.76L333.83,335.92L328.76,336.54L327.59,336.63L323.42,337.01L322.18,337.1L303.57,338.04L302.3,338.05L247.28,338.45L246.25,338.28L238.06,338.6L236.88,338.65L219.2,339.16L217.94,339.29L191.8,341.61L190.97,341.76L167.77,345.91L166.8,346.15L157.58,349.15L156.5,349.54L149.34,352.87L148.42,353.53L145.01,355.95L144.18,356.85L130.37,369.63L129.15,370.19L126.44,371.05L125.29,371.19L120.72,370.7L119.81,370.43L110.56,364.85L109.52,364.18L91.52,353.39L90.35,352.9L77.65,348.54L76.62,348.27L58.85,345.15L57.82,345.05L32.2,343.62L31.43,343.59L-46.61,342.09L-47.82,341.97L-78.5,337.73L-79.55,337.56L-141.59,330.5L-142.59,330.43L-216.5,327.58" style="vector-effect: non-scaling-stroke; fill: none; stroke: rgb(28, 167, 28); stroke-opacity: 1; stroke-width: 2px; opacity: 1;"/></g><g class="points"/><g class="text"/></g><g class="trace scatter trace027840" style="stroke-miterlimit: 2; opacity: 1;"><g class="fills"/><g class="errorbars"/><g class="lines"><path class="js-line" d="M-357.28,321.54L-336.28,320.91L-335.2,320.9L-90.93,318.52L-90.02,318.48L-7.93,315.62L-7.04,315.58L219.66,305.25L220.64,305.17L274.29,300.13L275.01,300.01L356.34,287.77L357.15,287.56L367.76,285.34L368.73,285.09L381.32,281.84L382.05,281.52L402.29,273.81L403.28,273.29L411.32,268.55L412.09,267.84L414.35,266.42L415.23,265.66L419,263.32L419.34,262.49L424.75,257.83L425.62,256.87L433.77,247.81L434.81,246.56L447.8,228.43L449.16,226.95L467.8,192.67L468.94,190.35L489.34,126.09L489.85,122.24L498.6,84.5L499.23,79.91L523.04,-65.77L523.29,-72.35L560.31,-434.49L560.6,-443.76L641.17,-1920.99L640.98,-1935.61L708.84,-4070.47L695.69,-3440.71L695.11,-3419.36L637.17,-1591.35L636.49,-1576.89L567.52,-399.95L567.02,-390.75L552.25,-239.33L551.62,-231.54L540.51,-135.88L539.77,-128.96L536.28,-101.65L534.93,-94.94L524.04,-15.28L522.74,-9.55L513.57,43.9L512.93,49.02L509.09,73.46L507.4,78.05L495.74,133.54L494.47,137.39L472.33,213.43L471.41,216.04L455.7,252.51L454.25,254.45L451.7,260.05L450.09,261.8L447.81,266.93L446.18,268.55L441.33,276.13L440.45,277.57L437.27,281.68L436.09,282.97L433.28,286.71L432.37,287.8L422.26,298.13L421.21,299.04L413.95,304.91L412.54,305.68L407.78,308.93L406.45,309.47L399.44,313.29L398.3,313.77L391.99,316.3L391.16,316.69L379.71,320.22L378.34,320.51L372.4,321.98L371.4,322.2L351.69,325.33L350.28,325.47L333.37,327.19L331.49,327.26L289.7,329.28L288.93,329.29L258.68,329.77L257.72,329.78L198.8,329.93L198.11,329.92L145.91,330.21L144.61,330.25L124.72,330.82L123.8,330.82L99.59,330.51L98.55,330.48L-216.39,324.58L-204.8,323.92L-203.01,323.89L-94.61,321.89L-93.39,321.87L48.66,318.28L49.71,318.25L130.82,316.09L131.46,316.05L210.12,311.61L210.92,311.52L237.06,309.38L238.01,309.31L287.07,305.91L288.32,305.8L317.49,303.44L318.52,303.36L347.57,300.95L348.7,300.88L390.42,296.56L391.47,296.38L402.94,294L403.55,293.74L410.08,291.79L411.24,291.44L424.75,284.76L425.26,284.09L431.73,279.89L432.95,278.35L448.48,260.61L449.01,259.08L453.33,252.6L454.27,250.9L459.32,241.55L460.29,239.5L465.64,228.51L465.7,226.18L471.04,213.67L471.79,211.04L475.88,199.71L476.69,196.76L485.52,167.41L486.39,163.82L499.58,107.27L500.34,102.74L521.25,-18.51L521.97,-24.54L535.61,-123.77L536.18,-130.73L638.8,-1668.49L639.27,-1683.65L715.06,-3868.21L600.56,-856.29L599.79,-844.94L567.72,-417.44L566.87,-408.7L550.95,-252.69L550.41,-244.98L540.33,-158.23L539.34,-151.29L526.31,-55.25L525.3,-49.33L511.78,32.91L510.79,37.98L505.5,66.95L504.44,71.55L487.39,147.67L486.4,151.31L479.82,175.36L478.87,178.62L463.67,224.32L462.3,226.81L450.61,253.22L449.67,255.15L440.85,270.93L439.61,272.5L426.47,290.05L425.46,291.16L421.43,295.49L420.19,296.47L417.61,299.28L416.43,300.22L400.7,311.32L399.77,311.93L390.62,316.26L389.4,316.67L373.63,321.5L372.72,321.74L364.38,323.44L363.44,323.63L343.56,326.21L342.36,326.29L325.94,327.53L324.64,327.61L292.56,328.94L291.52,328.98L209.87,329.63L208.96,329.62L142.96,330.34L142.02,330.39L110.5,330.9L109.67,330.89L58.25,329.38L57.07,329.35L27.78,328.55L26.73,328.53L-216.75,324.28L-147.69,322.79L-146.61,322.78L48.75,318.76L49.56,318.74L164.18,315.69L165.08,315.65L217.46,312.26L217.82,312.17L273.66,308.7L274.36,308.61L301.8,306.68L302.55,306.61L357.44,302.63L357.73,302.55L379.9,300.75L380.99,300.62L405.14,296.74L406.05,296.49L417.33,292.56L418.62,292.09L431.06,284.83L431.7,284.05L437.28,279.79L437.89,278.45L443.32,273.01L444.51,271.81L452.23,260.9L453.73,259.37L456.22,254.45L457.56,252.71L463.35,241.44L464.39,239.4L473.95,216.23L475.72,213.62L477.95,205.46L479.22,202.64L494.72,149.92L494.95,146.16L500.92,122.34L501.68,118.1L506.67,96.16L506.86,91.6L513.28,63.05L513.67,58.01L526.51,-17.83L527.4,-23.67L534.43,-72.58L535.4,-78.95L635.32,-1411.44L635.72,-1425.05L694.12,-2859.74L694.31,-2877.33L719.93,-3669.68L660.82,-1913.34L660.2,-1897.6L621.37,-1095.29L620.32,-1083L593.48,-666.77L592.22,-656.57L569.09,-378.04L567.68,-369.74L559.72,-288.38L558.48,-280.52L552.01,-220.69L550.87,-213.36L546.19,-171.12L544.92,-164.34L540.22,-124.64L538.95,-118.16L533.77,-80.23L532.95,-74.07L511.4,54.87L510.54,59.59L505.78,82.06L504.95,86.43L493.15,138.89L491.56,142.67L488.8,154.76L487.67,158.25L481.18,181.18L480.33,184.31L467.62,220.56L466.17,223.04L462.6,232.62L461.57,234.93L451.59,255.52L451.07,257.36L444.52,267.69L443.62,269.32L437.95,278.31L436.6,279.68L431.69,286.09L430.32,287.3L428.67,289.63L427.72,290.74L421.14,296.89L420.49,297.83L414.52,302.93L412.96,303.25L410.45,306.2L408.63,306.89L403.67,310.04L402.36,310.63L399.47,312.3L398.53,312.8L391.43,315.97L390.19,316.38L379.03,320.04L377.83,320.31L368.32,322.42L367.43,322.61L337.24,326.28L336.26,326.36L316.92,327.52L315.31,327.56L264,328.75L263.37,328.77L149.29,329.52L148.66,329.56L99.12,330.09L97.72,330.08L71.63,329.33L70.78,329.31L14.74,327.92L13.03,327.9L-216.08,324.25" style="vector-effect: non-scaling-stroke; fill: none; stroke: rgb(182, 129, 0); stroke-opacity: 1; stroke-width: 2px; opacity: 1;"/></g><g class="points"/><g class="text"/></g></g></g><g class="overplot"/><path class="xlines-above crisp" d="M66,429H486" style="fill: none; stroke-width: 2px; stroke: rgb(0, 0, 0); stroke-opacity: 1;"/><path class="ylines-above crisp" d="M67,0V428" style="fill: none; stroke-width: 2px; stroke: rgb(0, 0, 0); stroke-opacity: 1;"/><g class="overlines-above"/><g class="xaxislayer-above"><path class="xtick ticks crisp" d="M0,430v5" transform="translate(68,0)" style="stroke: rgb(68, 68, 68); stroke-opacity: 1; stroke-width: 1px;"/><path class="xtick ticks crisp" d="M0,430v5" transform="translate(120.25,0)" style="stroke: rgb(68, 68, 68); stroke-opacity: 1; stroke-width: 1px;"/><path class="xtick ticks crisp" d="M0,430v5" transform="translate(172.5,0)" style="stroke: rgb(68, 68, 68); stroke-opacity: 1; stroke-width: 1px;"/><path class="xtick ticks crisp" d="M0,430v5" transform="translate(224.75,0)" style="stroke: rgb(68, 68, 68); stroke-opacity: 1; stroke-width: 1px;"/><path class="xtick ticks crisp" d="M0,430v5" transform="translate(277,0)" style="stroke: rgb(68, 68, 68); stroke-opacity: 1; stroke-width: 1px;"/><path class="xtick ticks crisp" d="M0,430v5" transform="translate(329.25,0)" style="stroke: rgb(68, 68, 68); stroke-opacity: 1; stroke-width: 1px;"/><path class="xtick ticks crisp" d="M0,430v5" transform="translate(381.5,0)" style="stroke: rgb(68, 68, 68); stroke-opacity: 1; stroke-width: 1px;"/><path class="xtick ticks crisp" d="M0,430v5" transform="translate(433.75,0)" style="stroke: rgb(68, 68, 68); stroke-opacity: 1; stroke-width: 1px;"/><path class="xtick ticks crisp" d="M0,430v5" transform="translate(486,0)" style="stroke: rgb(68, 68, 68); stroke-opacity: 1; stroke-width: 1px;"/><g class="xtick"><text text-anchor="middle" x="0" y="461.4" transform="translate(68,0)" style="font-family: 'Times New Roman', monospace; font-size: 22px; fill: rgb(105, 105, 105); fill-opacity: 1; white-space: pre; opacity: 1;">−0.1</text></g><g class="xtick"><text text-anchor="middle" x="0" y="461.4" style="font-family: 'Times New Roman', monospace; font-size: 22px; fill: rgb(105, 105, 105); fill-opacity: 1; white-space: pre; opacity: 1;" transform="translate(120.25,0)">−0.05</text></g><g class="xtick"><text text-anchor="middle" x="0" y="461.4" style="font-family: 'Times New Roman', monospace; font-size: 22px; fill: rgb(105, 105, 105); fill-opacity: 1; white-space: pre; opacity: 1;" transform="translate(172.5,0)">0</text></g><g class="xtick"><text text-anchor="middle" x="0" y="461.4" style="font-family: 'Times New Roman', monospace; font-size: 22px; fill: rgb(105, 105, 105); fill-opacity: 1; white-space: pre; opacity: 1;" transform="translate(224.75,0)">0.05</text></g><g class="xtick"><text text-anchor="middle" x="0" y="461.4" style="font-family: 'Times New Roman', monospace; font-size: 22px; fill: rgb(105, 105, 105); fill-opacity: 1; white-space: pre; opacity: 1;" transform="translate(277,0)">0.1</text></g><g class="xtick"><text text-anchor="middle" x="0" y="461.4" style="font-family: 'Times New Roman', monospace; font-size: 22px; fill: rgb(105, 105, 105); fill-opacity: 1; white-space: pre; opacity: 1;" transform="translate(329.25,0)">0.15</text></g><g class="xtick"><text text-anchor="middle" x="0" y="461.4" style="font-family: 'Times New Roman', monospace; font-size: 22px; fill: rgb(105, 105, 105); fill-opacity: 1; white-space: pre; opacity: 1;" transform="translate(381.5,0)">0.2</text></g><g class="xtick"><text text-anchor="middle" x="0" y="461.4" style="font-family: 'Times New Roman', monospace; font-size: 22px; fill: rgb(105, 105, 105); fill-opacity: 1; white-space: pre; opacity: 1;" transform="translate(433.75,0)">0.25</text></g><g class="xtick"><text text-anchor="middle" x="0" y="461.4" style="font-family: 'Times New Roman', monospace; font-size: 22px; fill: rgb(105, 105, 105); fill-opacity: 1; white-space: pre; opacity: 1;" transform="translate(486,0)">0.3</text></g></g><g class="yaxislayer-above"><path class="ytick ticks crisp" d="M66,0h-5" transform="translate(0,406.6)" style="stroke: rgb(68, 68, 68); stroke-opacity: 1; stroke-width: 1px;"/><path class="ytick ticks crisp" d="M66,0h-5" transform="translate(0,321)" style="stroke: rgb(68, 68, 68); stroke-opacity: 1; stroke-width: 1px;"/><path class="ytick ticks crisp" d="M66,0h-5" transform="translate(0,235.4)" style="stroke: rgb(68, 68, 68); stroke-opacity: 1; stroke-width: 1px;"/><path class="ytick ticks crisp" d="M66,0h-5" transform="translate(0,149.8)" style="stroke: rgb(68, 68, 68); stroke-opacity: 1; stroke-width: 1px;"/><path class="ytick ticks crisp" d="M66,0h-5" transform="translate(0,64.2)" style="stroke: rgb(68, 68, 68); stroke-opacity: 1; stroke-width: 1px;"/><g class="ytick"><text text-anchor="end" x="56.6" y="7.699999999999999" transform="translate(0,406.6)" style="font-family: 'Times New Roman', monospace; font-size: 22px; fill: rgb(105, 105, 105); fill-opacity: 1; white-space: pre; opacity: 1;">−2</text></g><g class="ytick"><text text-anchor="end" x="56.6" y="7.699999999999999" style="font-family: 'Times New Roman', monospace; font-size: 22px; fill: rgb(105, 105, 105); fill-opacity: 1; white-space: pre; opacity: 1;" transform="translate(0,321)">0</text></g><g class="ytick"><text text-anchor="end" x="56.6" y="7.699999999999999" style="font-family: 'Times New Roman', monospace; font-size: 22px; fill: rgb(105, 105, 105); fill-opacity: 1; white-space: pre; opacity: 1;" transform="translate(0,235.4)">2</text></g><g class="ytick"><text text-anchor="end" x="56.6" y="7.699999999999999" style="font-family: 'Times New Roman', monospace; font-size: 22px; fill: rgb(105, 105, 105); fill-opacity: 1; white-space: pre; opacity: 1;" transform="translate(0,149.8)">4</text></g><g class="ytick"><text text-anchor="end" x="56.6" y="7.699999999999999" style="font-family: 'Times New Roman', monospace; font-size: 22px; fill: rgb(105, 105, 105); fill-opacity: 1; white-space: pre; opacity: 1;" transform="translate(0,64.2)">6</text></g></g><g class="overaxes-above"/></g></g><g class="polarlayer"/><g class="smithlayer"/><g class="ternarylayer"/><g class="geolayer"/><g class="funnelarealayer"/><g class="pielayer"/><g class="iciclelayer"/><g class="treemaplayer"/><g class="sunburstlayer"/><g class="glimages"/><defs id="topdefs-02137c"><g class="clips"/><clipPath id="legend02137c"><rect width="185" height="168" x="0" y="0"/></clipPath></defs><g class="layer-above"><g class="imagelayer"/><g class="shapelayer"/></g><g class="infolayer"><g class="legend" pointer-events="all" transform="translate(68,0)"><rect class="bg" shape-rendering="crispEdges" width="185" height="168" x="0" y="0" style="stroke: rgb(68, 68, 68); stroke-opacity: 1; fill: rgb(255, 255, 255); fill-opacity: 1; stroke-width: 0px;"/><g class="scrollbox" transform="" clip-path="url(#legend02137c)"><g class="groups"><g class="traces" transform="translate(0,20.8)" style="opacity: 1;"><text class="legendtext" text-anchor="start" x="40" y="8.58" style="font-family: 'Times New Roman', monospace; font-size: 22px; fill: rgb(105, 105, 105); fill-opacity: 1; white-space: pre;">FeN​<tspan style="font-size:70%" dy="0.3em">x</tspan><tspan dy="-0.21em">​</tspan></text><g class="layers" style="opacity: 1;"><g class="legendfill"/><g class="legendlines"><path class="js-line" d="M5,0h30" style="fill: none; stroke: rgb(251, 13, 13); stroke-opacity: 1; stroke-width: 2px;"/></g><g class="legendsymbols"><g class="legendpoints"/></g></g><rect class="legendtoggle" x="0" y="-15.8" width="179.765625" height="31.6" style="fill: rgb(0, 0, 0); fill-opacity: 0;"/></g><g class="traces" transform="translate(0,52.400000000000006)" style="opacity: 1;"><text class="legendtext" text-anchor="start" x="40" y="8.58" style="font-family: 'Times New Roman', monospace; font-size: 22px; fill: rgb(105, 105, 105); fill-opacity: 1; white-space: pre;">CoN​<tspan style="font-size:70%" dy="0.3em">x</tspan><tspan dy="-0.21em">​</tspan></text><g class="layers" style="opacity: 1;"><g class="legendfill"/><g class="legendlines"><path class="js-line" d="M5,0h30" style="fill: none; stroke: rgb(218, 22, 255); stroke-opacity: 1; stroke-width: 2px;"/></g><g class="legendsymbols"><g class="legendpoints"/></g></g><rect class="legendtoggle" x="0" y="-15.8" width="179.765625" height="31.6" style="fill: rgb(0, 0, 0); fill-opacity: 0;"/></g><g class="traces" transform="translate(0,84)" style="opacity: 1;"><text class="legendtext" text-anchor="start" x="40" y="8.58" style="font-family: 'Times New Roman', monospace; font-size: 22px; fill: rgb(105, 105, 105); fill-opacity: 1; white-space: pre;">NiN​<tspan style="font-size:70%" dy="0.3em">x</tspan><tspan dy="-0.21em">​</tspan></text><g class="layers" style="opacity: 1;"><g class="legendfill"/><g class="legendlines"><path class="js-line" d="M5,0h30" style="fill: none; stroke: rgb(34, 42, 42); stroke-opacity: 1; stroke-width: 2px;"/></g><g class="legendsymbols"><g class="legendpoints"/></g></g><rect class="legendtoggle" x="0" y="-15.8" width="179.765625" height="31.6" style="fill: rgb(0, 0, 0); fill-opacity: 0;"/></g><g class="traces" transform="translate(0,115.60000000000001)" style="opacity: 1;"><text class="legendtext" text-anchor="start" x="40" y="8.58" style="font-family: 'Times New Roman', monospace; font-size: 22px; fill: rgb(105, 105, 105); fill-opacity: 1; white-space: pre;">Co​<tspan style="font-size:70%" dy="0.3em">57</tspan><tspan dy="-0.21em">​</tspan>Ni​<tspan style="font-size:70%" dy="0.3em">14</tspan><tspan dy="-0.21em">​</tspan>Fe​<tspan style="font-size:70%" dy="0.3em">29</tspan><tspan dy="-0.21em">​</tspan>N​<tspan style="font-size:70%" dy="0.3em">x</tspan><tspan dy="-0.21em">​</tspan></text><g class="layers" style="opacity: 1;"><g class="legendfill"/><g class="legendlines"><path class="js-line" d="M5,0h30" style="fill: none; stroke: rgb(28, 167, 28); stroke-opacity: 1; stroke-width: 2px;"/></g><g class="legendsymbols"><g class="legendpoints"/></g></g><rect class="legendtoggle" x="0" y="-15.8" width="179.765625" height="31.6" style="fill: rgb(0, 0, 0); fill-opacity: 0;"/></g><g class="traces" transform="translate(0,147.20000000000002)" style="opacity: 1;"><text class="legendtext" text-anchor="start" x="40" y="8.58" style="font-family: 'Times New Roman', monospace; font-size: 22px; fill: rgb(105, 105, 105); fill-opacity: 1; white-space: pre;">Co​<tspan style="font-size:70%" dy="0.3em">45</tspan><tspan dy="-0.21em">​</tspan>Ni​<tspan style="font-size:70%" dy="0.3em">45</tspan><tspan dy="-0.21em">​</tspan>Fe​<tspan style="font-size:70%" dy="0.3em">10</tspan><tspan dy="-0.21em">​</tspan>N​<tspan style="font-size:70%" dy="0.3em">x</tspan><tspan dy="-0.21em">​</tspan></text><g class="layers" style="opacity: 1;"><g class="legendfill"/><g class="legendlines"><path class="js-line" d="M5,0h30" style="fill: none; stroke: rgb(182, 129, 0); stroke-opacity: 1; stroke-width: 2px;"/></g><g class="legendsymbols"><g class="legendpoints"/></g></g><rect class="legendtoggle" x="0" y="-15.8" width="179.765625" height="31.6" style="fill: rgb(0, 0, 0); fill-opacity: 0;"/></g></g></g><rect class="scrollbar" rx="20" ry="3" width="0" height="0" x="0" y="0" style="fill: rgb(128, 139, 164); fill-opacity: 1;"/></g><g class="g-gtitle"/><g class="g-xtitle" transform="translate(0,-9.074999999999989)"><text class="xtitle" x="277" y="499.60625" text-anchor="middle" style="font-family: 'Times New Roman', monospace; font-size: 26px; fill: rgb(105, 105, 105); opacity: 1; font-weight: normal; white-space: pre;">Overpotential, η(V) - iR​<tspan style="font-size:70%" dy="0.3em">u</tspan><tspan dy="-0.21em">​</tspan></text></g><g class="g-ytitle" transform="translate(26.9345703125,0)"><text class="ytitle" transform="rotate(-90,-0.012500000000002842,214)" x="-0.012500000000002842" y="214" text-anchor="middle" style="font-family: 'Times New Roman', monospace; font-size: 26px; fill: rgb(105, 105, 105); opacity: 1; font-weight: normal; white-space: pre;">Current (mA/cm​<tspan style="font-size:70%" dy="-0.6em">2</tspan><tspan dy="0.42em">​</tspan>)</text></g></g></svg>