<svg class="main-svg" xmlns="http://www.w3.org/2000/svg" xmlns:xlink="http://www.w3.org/1999/xlink" width="500" height="500" style="" viewBox="0 0 500 500"><rect x="0" y="0" width="500" height="500" style="fill: rgb(255, 255, 255); fill-opacity: 1;"/><defs id="defs-460c4b"><g class="clips"><clipPath id="clip460c4bxyplot" class="plotclip"><rect width="432" height="427"/></clipPath><clipPath class="axesclip" id="clip460c4bx"><rect x="68" y="0" width="432" height="500"/></clipPath><clipPath class="axesclip" id="clip460c4by"><rect x="0" y="10" width="500" height="427"/></clipPath><clipPath class="axesclip" id="clip460c4bxy"><rect x="68" y="10" width="432" height="427"/></clipPath></g><g class="gradients"/><g class="patterns"/></defs><g class="bglayer"><rect class="bg" x="68" y="10" width="432" height="427" style="fill: rgb(0, 0, 0); fill-opacity: 0; stroke-width: 0;"/></g><g class="layer-below"><g class="imagelayer"/><g class="shapelayer"/></g><g class="cartesianlayer"><g class="subplot xy"><g class="layer-subplot"><g class="shapelayer"/><g class="imagelayer"/></g><g class="minor-gridlayer"><g class="x"/><g class="y"/></g><g class="gridlayer"><g class="x"/><g class="y"/></g><g class="zerolinelayer"><path class="yzl zl crisp" transform="translate(0,424.06)" d="M68,0h432" style="stroke: rgb(128, 128, 128); stroke-opacity: 1; stroke-width: 1px;"/></g><path class="xlines-below"/><path class="ylines-below"/><g class="overlines-below"/><g class="xaxislayer-below"/><g class="yaxislayer-below"/><g class="overaxes-below"/><g class="plot" transform="translate(68,10)" clip-path="url(#clip460c4bxyplot)"><g class="scatterlayer mlayer"><g class="trace scatter trace30ec11" style="stroke-miterlimit: 2; opacity: 1;"><g class="fills"/><g class="errorbars"/><g class="lines"><path class="js-line" d="M-176.51,414.16L-151.37,413.74L-150.68,413.74L-18.88,413.67L-18.32,413.67L36.37,413.67L37.09,413.67L83.51,413.59L84.29,413.59L153.97,412.86L154.44,412.83L169.22,411.12L170.05,411.04L174.82,409.85L175.4,409.69L182.41,407.28L183.01,407.05L196.64,399.02L196.85,398.62L201.45,394.82L201.96,394.36L212.18,383.22L212.51,382.63L215.95,378.04L216.27,377.39L219.56,372.68L220.03,371.97L225.46,363.12L225.64,362.33L227.94,358.34L228.35,357.53L240.28,332.77L240.24,331.82L243.77,324.01L243.78,323.02L245.98,317.99L246.43,316.98L256.52,288.97L256.55,287.82L259.79,278.52L259.86,277.35L262.64,269.08L262.77,267.79L263.73,265.34L264.18,264.09L264.61,261.7L265.12,260.51L266.89,254.26L267.08,253.07L269.28,245.67L269.83,244.45L270.44,240.69L271.16,239.44L272.11,235.74L272.43,234.44L285.52,181.79L285.55,180.25L290.7,158.86L290.67,157.48L292.13,150.01L292.61,148.58L294.56,139.77L294.55,138.36L297.45,126.7L297.59,125.23L299.85,113.18L300.45,111.72L303.65,96.56L303.79,94.54L305,87.27L305.53,85.67L307.23,76.25L307.38,74.42L308.16,71.75L308.73,70.54L312.98,46.21L313.54,44.73L315.18,34.01L315.85,32.81L317.5,21.39L317.93,19.53L318.58,16.84L318.66,15.4L319.89,10.82L319.92,9.09L321.15,4.79L321.31,2.82L323.31,-8.06L321.88,-2.39L321.56,-0.78L320.76,6.34L320.51,8L319.62,14.88L318.49,14.96L317.73,14.84L317.98,16.47L317.51,20.44L316.86,22.09L316.26,27.22L315.74,28.85L315.44,34.59L314.76,35.98L312.32,52.22L311.98,53.95L311.23,57.41L311.3,59.33L310.57,62.98L310.14,64.78L310.16,67.93L309.5,69.47L308.99,72.88L308.96,74.45L305.37,92.32L305.62,93.93L304.65,97.32L304.12,98.94L303.69,103.65L303.11,105.39L302.57,110.21L302.04,111.87L301.33,116.71L300.71,117.84L300.24,122.37L299.55,124.17L298.64,130.56L298.14,131.9L296.3,142.75L295.75,144.33L291.8,167.16L290.86,168.73L288.92,179.02L288.58,180.63L288.32,183.69L287.78,185.12L286.54,189.32L286.23,190.85L286.02,195.19L285.1,196.78L284.36,198.1L284.7,199.48L269.64,260.24L269.17,261.48L264.43,277.14L264.06,278.41L263.06,282.05L262.66,283.29L260.29,291.54L259.56,292.67L258.73,296.12L258.22,297.23L252.19,314.74L251.72,315.8L249.27,322.98L248.64,323.97L239.08,346.9L238.49,347.77L233.5,358.02L232.95,358.83L228.46,367.41L227.8,368.14L217.04,384.12L216.39,384.71L203.74,397.66L203.16,398.07L201.8,399.27L201.17,399.66L198.73,401.6L198.12,401.94L182.12,409.59L181.29,409.76L178.57,410.69L177.67,410.83L167.07,412.81L166.46,412.87L150.5,413.97L150.01,413.99L119.02,414.3L118.35,414.3L-176.75,414.67L-176.69,414.52" style="vector-effect: non-scaling-stroke; fill: none; stroke: rgb(46, 145, 229); stroke-opacity: 1; stroke-width: 2px; opacity: 1;"/></g><g class="points"/><g class="text"/></g><g class="trace scatter traceb190f0" style="stroke-miterlimit: 2; opacity: 1;"><g class="fills"/><g class="errorbars"/><g class="lines"><path class="js-line" d="M-176.74,414.12L-14.91,414.05L-14.31,414.05L265.9,413.3L266.41,413.29L358.36,411.15L358.84,411.12L398.07,409.82L379.61,410.88L379.07,410.91L284.92,413.38L284.34,413.39L222.95,413.87L222.32,413.87L157.47,414.01L156.87,414.01L-176.95,414.09L-176.88,414.1" style="vector-effect: non-scaling-stroke; fill: none; stroke: rgb(225, 95, 153); stroke-opacity: 1; stroke-width: 2px; opacity: 1;"/></g><g class="points"/><g class="text"/></g><g class="trace scatter trace97a743" style="stroke-miterlimit: 2; opacity: 1;"><g class="fills"/><g class="errorbars"/><g class="lines"><path class="js-line" d="M-176.68,414.08L252.69,413.33L253.17,413.31L281.46,411.48L281.99,411.42L297.26,409.71L297.76,409.64L320.71,405.96L321.23,405.85L324.77,405.08L325.53,404.97L350.33,399.06L350.69,398.91L382.84,389.04L383.29,388.85L391.51,385.98L386.51,388.22L386.11,388.46L382.55,390.01L382,390.23L372.05,394.15L371.42,394.34L363.64,397.04L363.16,397.21L346.54,401.77L346,401.91L317.9,407.31L317.08,407.39L284.92,411.12L284.19,411.16L262.32,412.63L261.71,412.66L208.36,413.94L207.69,413.94L155.18,414.04L154.44,414.04L-177.47,414.08" style="vector-effect: non-scaling-stroke; fill: none; stroke: rgb(251, 13, 13); stroke-opacity: 1; stroke-width: 2px; opacity: 1;"/></g><g class="points"/><g class="text"/></g><g class="trace scatter traced0cf35" style="stroke-miterlimit: 2; opacity: 1;"><g class="fills"/><g class="errorbars"/><g class="lines"><path class="js-line" d="M-176.35,414.84L-49.87,414.07L-49.21,414.07L44.55,413.32L45.26,413.31L93.45,412.56L94.05,412.55L142.36,411.22L143.16,411.2L184.65,409.14L185.37,409.1L212.8,406.36L213.47,406.29L226.84,404.21L227.55,404.11L244.09,400.64L244.68,400.51L269.55,393.21L270.09,393.03L281.27,388.83L281.74,388.61L288,386.15L288.11,385.92L295.21,382.93L295.57,382.69L301.05,380.26L301.33,380L306.16,377.72L306.8,377.46L311.75,374.72L312.54,374.45L316.16,372.57L316.49,372.3L325.19,367.59L325.5,367.29L327.47,366.08L327.98,365.77L343.11,356.95L343.48,356.64L346.38,354.72L347.11,354.43L352.77,350.89L353.03,350.52L361.78,345.1L362.14,344.72L366.93,342.01L367.51,341.63L380.78,333.85L381.43,333.65L382.64,333.14L381.27,334.41L380.88,334.9L366.62,346.95L365.89,347.3L359.55,352.17L358.96,352.54L355.04,355.33L354.34,355.64L345.84,361.19L345.2,361.49L343.88,362.48L343.37,362.79L337.63,365.99L337.16,366.28L332.48,368.91L331.99,369.17L321.54,374.69L321.03,374.97L312.95,378.96L312.19,379.2L307.33,381.41L306.76,381.64L296.3,386.11L295.69,386.33L262.52,397.7L261.64,397.86L225.43,406.31L224.59,406.41L212.67,408.47L211.97,408.55L178.69,412.46L178.01,412.5L159.39,413.86L158.74,413.89L112.54,415.6L111.99,415.61L82.16,415.99L81.39,416L-176.99,414.9" style="vector-effect: non-scaling-stroke; fill: none; stroke: rgb(218, 22, 255); stroke-opacity: 1; stroke-width: 2px; opacity: 1;"/></g><g class="points"/><g class="text"/></g><g class="trace scatter trace06aeda" style="stroke-miterlimit: 2; opacity: 1;"><g class="fills"/><g class="errorbars"/><g class="lines"><path class="js-line" d="M-176.6,414.06L325.33,413.31L325.82,413.3L388.44,412.55L389.06,412.54L398.8,412.43L355.36,413.18L354.89,413.19L271.94,413.83L271.35,413.83L216.57,414.01L216.1,414.01L-176.84,414.06L-176.55,414.07" style="vector-effect: non-scaling-stroke; fill: none; stroke: rgb(34, 42, 42); stroke-opacity: 1; stroke-width: 2px; opacity: 1;"/></g><g class="points"/><g class="text"/></g><g class="trace scatter tracee5061a" style="stroke-miterlimit: 2; opacity: 1;"><g class="fills"/><g class="errorbars"/><g class="lines"><path class="js-line" d="M-176.5,414.45L-33.2,412.41L-32.6,412.41L-3.63,412.68L-3.18,412.69L34.42,412.65L34.9,412.64L56.75,411.43L57.3,411.33L66.39,410.24L67,410.23L80.35,411.21L80.93,411.25L104.72,412.12L105.21,412.13L153.58,411.48L154.17,411.44L165.4,409.93L165.99,409.82L175.87,406.6L176.14,406.36L182.29,403.17L182.74,402.84L184.23,401.77L184.87,401.41L187.17,399.48L187.82,399.07L193.59,393.64L194.17,393.15L197.53,389.53L197.95,389L204.57,381.38L204.81,380.77L222.98,353.04L223.3,352.22L244.2,312.57L244.49,311.68L248.81,302.82L249.12,301.83L270.05,252.96L270.35,252.01L277.71,233.93L278,232.87L279.89,227.35L280.33,226.31L283.32,217.82L283.72,216.58L285.79,211.46L286.23,210.36L304.87,156.35L305.15,154.72L307.7,147.78L308,146.63L309.48,142.14L309.92,141.16L311.71,135.18L312.1,134.16L313.09,132.12L313.35,130.91L314.08,126.27L314.19,122.28L316.72,114.08L317.15,112.93L322.57,94.77L322.79,92.86L326.07,82.23L326.39,81.25L328.89,72.52L329.4,71.39L335.43,51.14L333.67,58.48L333.43,59.9L331.99,65.24L331.66,66.81L327.56,80.81L327.52,82L326.67,85.2L325.99,86.51L325.21,89.52L324.67,90.56L322.25,100.92L321.58,102.22L320.64,106.15L320.38,107.38L318.8,112.13L318.62,113.58L316.89,118.22L316.79,119.6L316.29,120.88L315.62,120.38L315,120.16L314.68,121.59L312.9,127.77L312.45,128.96L311.39,132.22L311.1,133.51L307.46,145.81L306.92,146.88L304.21,154.81L304.02,156.07L302.31,162.14L301.69,163.29L296.21,180.68L295.86,181.75L293.22,189.9L292.75,191.09L290.16,198.71L289.74,199.71L282.78,219.13L282.32,220.08L272.44,245.95L272.05,246.86L266.1,261.71L265.55,262.7L246.15,306.38L245.48,307.24L241.78,314.85L241.38,315.7L234.12,329.84L233.67,330.62L211.3,367.4L210.82,368.07L206.58,373.88L206.46,374.51L200.38,381.74L200.18,382.32L193.21,389.96L192.73,390.47L189.85,393.44L189.37,393.91L187.31,395.79L186.84,396.24L181.39,400.88L180.79,401.27L174.08,405.86L173.46,406.17L162.79,410.92L162.18,411.1L153.93,413.14L153.3,413.24L137.3,414.67L136.73,414.69L119.11,415.04L118.39,415.04L64.79,415.16L64.16,415.16L25.59,415.91L25.13,415.95L7.43,416.99L6.81,416.96L-47.16,415.42L-47.76,415.42L-176.93,414.46" style="vector-effect: non-scaling-stroke; fill: none; stroke: rgb(28, 167, 28); stroke-opacity: 1; stroke-width: 2px; opacity: 1;"/></g><g class="points"/><g class="text"/></g><g class="trace scatter trace382278" style="stroke-miterlimit: 2; opacity: 1;"><g class="fills"/><g class="errorbars"/><g class="lines"><path class="js-line" d="M-176.51,414.26L64.89,413.51L65.72,413.5L158.13,412.75L158.61,412.74L182.36,411.68L182.56,411.62L192.49,410.33L192.77,410.24L200.67,408.6L200.92,408.46L208.02,406.37L208.56,406.19L215.09,403.72L215.21,403.49L220.56,401.01L221.14,400.74L229.61,395.63L229.98,395.29L233.41,392.86L233.98,392.5L239.3,388.29L239.58,387.81L243.39,384.83L243.59,384.4L254.36,373.3L254.54,372.77L257.3,369.47L257.61,368.9L263.1,361.99L263.32,361.4L266.43,357.17L266.84,356.53L271.1,350.13L271.09,349.48L272.94,346.83L273.4,346.18L279.85,335.13L280.15,334.43L287.24,320.7L287.43,319.92L289.64,315.9L289.96,315.13L295.4,302.84L296.04,301.98L296.76,300.3L296.92,299.4L298.92,295.17L299.15,294.35L305.3,279.34L305.25,278.4L306.7,275.73L306.83,274.78L309.76,267.27L310,266.37L311.21,263.46L311.39,262.51L313.46,256.95L313.71,256.06L314.51,254.21L314.87,253.18L315.93,250.26L316.21,249.28L319.41,239.07L319.81,238.04L321.57,233.09L321.69,231.98L324.56,222.78L325,221.74L325.59,219.67L326.16,218.78L327.42,213.1L327.82,212.07L328.51,209.9L328.83,208.9L333.65,192.3L334.27,191.22L334.89,189.2L335.12,188.24L339.22,172.77L333.6,194.81L333.41,195.84L332.68,197.86L332.39,199.05L316.52,251.24L315.98,252.21L300.38,295.3L299.74,296.15L297.35,302.12L296.96,302.96L295.02,307.11L294.99,307.92L293.25,311.17L292.95,312.02L290.54,316.85L290.1,317.65L288.01,322.36L287.51,323.17L284.9,328.43L284.32,329.17L282.51,332.87L282.08,333.6L279.16,338.59L279.2,339.27L277.25,341.97L276.82,342.65L272.79,349.21L272.24,349.87L269.52,354.34L268.83,354.95L265.65,359.79L264.87,360.39L263.06,363.22L262.45,363.79L260.83,366L260.31,366.55L251.93,376.25L251.25,376.74L248.19,379.99L247.58,380.44L242.76,384.71L242.51,385.13L237.52,389.06L237.2,389.43L217.25,401.67L216.49,401.9L214.22,403.05L213.34,403.28L211.82,404.01L211.2,404.22L206.49,405.98L206,406.16L185.94,411.12L185.33,411.21L173.02,412.77L172.43,412.82L160.98,413.62L160.37,413.65L130.72,414.36L130.01,414.36L85.36,414.53L84.5,414.53L-176.7,414.26" style="vector-effect: non-scaling-stroke; fill: none; stroke: rgb(182, 129, 0); stroke-opacity: 1; stroke-width: 2px; opacity: 1;"/></g><g class="points"/><g class="text"/></g></g></g><g class="overplot"/><path class="xlines-above crisp" d="M66,438H500" style="fill: none; stroke-width: 2px; stroke: rgb(0, 0, 0); stroke-opacity: 1;"/><path class="ylines-above crisp" d="M67,10V437" style="fill: none; stroke-width: 2px; stroke: rgb(0, 0, 0); stroke-opacity: 1;"/><g class="overlines-above"/><g class="xaxislayer-above"><path class="xtick ticks crisp" d="M0,439v5" transform="translate(68,0)" style="stroke: rgb(68, 68, 68); stroke-opacity: 1; stroke-width: 1px;"/><path class="xtick ticks crisp" d="M0,439v5" transform="translate(125.6,0)" style="stroke: rgb(68, 68, 68); stroke-opacity: 1; stroke-width: 1px;"/><path class="xtick ticks crisp" d="M0,439v5" transform="translate(183.2,0)" style="stroke: rgb(68, 68, 68); stroke-opacity: 1; stroke-width: 1px;"/><path class="xtick ticks crisp" d="M0,439v5" transform="translate(240.8,0)" style="stroke: rgb(68, 68, 68); stroke-opacity: 1; stroke-width: 1px;"/><path class="xtick ticks crisp" d="M0,439v5" transform="translate(298.4,0)" style="stroke: rgb(68, 68, 68); stroke-opacity: 1; stroke-width: 1px;"/><path class="xtick ticks crisp" d="M0,439v5" transform="translate(356,0)" style="stroke: rgb(68, 68, 68); stroke-opacity: 1; stroke-width: 1px;"/><path class="xtick ticks crisp" d="M0,439v5" transform="translate(413.6,0)" style="stroke: rgb(68, 68, 68); stroke-opacity: 1; stroke-width: 1px;"/><path class="xtick ticks crisp" d="M0,439v5" transform="translate(471.2,0)" style="stroke: rgb(68, 68, 68); stroke-opacity: 1; stroke-width: 1px;"/><g class="xtick"><text text-anchor="middle" x="0" y="465.6" transform="translate(68,0)" style="font-family: 'Times New Roman', monospace; font-size: 18px; fill: rgb(105, 105, 105); fill-opacity: 1; white-space: pre; opacity: 1;">0</text></g><g class="xtick"><text text-anchor="middle" x="0" y="465.6" style="font-family: 'Times New Roman', monospace; font-size: 18px; fill: rgb(105, 105, 105); fill-opacity: 1; white-space: pre; opacity: 1;" transform="translate(125.6,0)">0.1</text></g><g class="xtick"><text text-anchor="middle" x="0" y="465.6" style="font-family: 'Times New Roman', monospace; font-size: 18px; fill: rgb(105, 105, 105); fill-opacity: 1; white-space: pre; opacity: 1;" transform="translate(183.2,0)">0.2</text></g><g class="xtick"><text text-anchor="middle" x="0" y="465.6" style="font-family: 'Times New Roman', monospace; font-size: 18px; fill: rgb(105, 105, 105); fill-opacity: 1; white-space: pre; opacity: 1;" transform="translate(240.8,0)">0.3</text></g><g class="xtick"><text text-anchor="middle" x="0" y="465.6" style="font-family: 'Times New Roman', monospace; font-size: 18px; fill: rgb(105, 105, 105); fill-opacity: 1; white-space: pre; opacity: 1;" transform="translate(298.4,0)">0.4</text></g><g class="xtick"><text text-anchor="middle" x="0" y="465.6" style="font-family: 'Times New Roman', monospace; font-size: 18px; fill: rgb(105, 105, 105); fill-opacity: 1; white-space: pre; opacity: 1;" transform="translate(356,0)">0.5</text></g><g class="xtick"><text text-anchor="middle" x="0" y="465.6" style="font-family: 'Times New Roman', monospace; font-size: 18px; fill: rgb(105, 105, 105); fill-opacity: 1; white-space: pre; opacity: 1;" transform="translate(413.6,0)">0.6</text></g><g class="xtick"><text text-anchor="middle" x="0" y="465.6" style="font-family: 'Times New Roman', monospace; font-size: 18px; fill: rgb(105, 105, 105); fill-opacity: 1; white-space: pre; opacity: 1;" transform="translate(471.2,0)">0.7</text></g></g><g class="yaxislayer-above"><path class="ytick ticks crisp" d="M66,0h-5" transform="translate(0,424.06)" style="stroke: rgb(68, 68, 68); stroke-opacity: 1; stroke-width: 1px;"/><path class="ytick ticks crisp" d="M66,0h-5" transform="translate(0,372.3)" style="stroke: rgb(68, 68, 68); stroke-opacity: 1; stroke-width: 1px;"/><path class="ytick ticks crisp" d="M66,0h-5" transform="translate(0,320.55)" style="stroke: rgb(68, 68, 68); stroke-opacity: 1; stroke-width: 1px;"/><path class="ytick ticks crisp" d="M66,0h-5" transform="translate(0,268.79)" style="stroke: rgb(68, 68, 68); stroke-opacity: 1; stroke-width: 1px;"/><path class="ytick ticks crisp" d="M66,0h-5" transform="translate(0,217.03)" style="stroke: rgb(68, 68, 68); stroke-opacity: 1; stroke-width: 1px;"/><path class="ytick ticks crisp" d="M66,0h-5" transform="translate(0,165.27)" style="stroke: rgb(68, 68, 68); stroke-opacity: 1; stroke-width: 1px;"/><path class="ytick ticks crisp" d="M66,0h-5" transform="translate(0,113.52)" style="stroke: rgb(68, 68, 68); stroke-opacity: 1; stroke-width: 1px;"/><path class="ytick ticks crisp" d="M66,0h-5" transform="translate(0,61.76)" style="stroke: rgb(68, 68, 68); stroke-opacity: 1; stroke-width: 1px;"/><path class="ytick ticks crisp" d="M66,0h-5" transform="translate(0,10)" style="stroke: rgb(68, 68, 68); stroke-opacity: 1; stroke-width: 1px;"/><g class="ytick"><text text-anchor="end" x="57.4" y="6.3" transform="translate(0,424.06)" style="font-family: 'Times New Roman', monospace; font-size: 18px; fill: rgb(105, 105, 105); fill-opacity: 1; white-space: pre; opacity: 1;">0</text></g><g class="ytick"><text text-anchor="end" x="57.4" y="6.3" style="font-family: 'Times New Roman', monospace; font-size: 18px; fill: rgb(105, 105, 105); fill-opacity: 1; white-space: pre; opacity: 1;" transform="translate(0,372.3)">20</text></g><g class="ytick"><text text-anchor="end" x="57.4" y="6.3" style="font-family: 'Times New Roman', monospace; font-size: 18px; fill: rgb(105, 105, 105); fill-opacity: 1; white-space: pre; opacity: 1;" transform="translate(0,320.55)">40</text></g><g class="ytick"><text text-anchor="end" x="57.4" y="6.3" style="font-family: 'Times New Roman', monospace; font-size: 18px; fill: rgb(105, 105, 105); fill-opacity: 1; white-space: pre; opacity: 1;" transform="translate(0,268.79)">60</text></g><g class="ytick"><text text-anchor="end" x="57.4" y="6.3" style="font-family: 'Times New Roman', monospace; font-size: 18px; fill: rgb(105, 105, 105); fill-opacity: 1; white-space: pre; opacity: 1;" transform="translate(0,217.03)">80</text></g><g class="ytick"><text text-anchor="end" x="57.4" y="6.3" style="font-family: 'Times New Roman', monospace; font-size: 18px; fill: rgb(105, 105, 105); fill-opacity: 1; white-space: pre; opacity: 1;" transform="translate(0,165.27)">100</text></g><g class="ytick"><text text-anchor="end" x="57.4" y="6.3" style="font-family: 'Times New Roman', monospace; font-size: 18px; fill: rgb(105, 105, 105); fill-opacity: 1; white-space: pre; opacity: 1;" transform="translate(0,113.52)">120</text></g><g class="ytick"><text text-anchor="end" x="57.4" y="6.3" style="font-family: 'Times New Roman', monospace; font-size: 18px; fill: rgb(105, 105, 105); fill-opacity: 1; white-space: pre; opacity: 1;" transform="translate(0,61.76)">140</text></g><g class="ytick"><text text-anchor="end" x="57.4" y="6.3" style="font-family: 'Times New Roman', monospace; font-size: 18px; fill: rgb(105, 105, 105); fill-opacity: 1; white-space: pre; opacity: 1;" transform="translate(0,10)">160</text></g></g><g class="overaxes-above"/></g></g><g class="polarlayer"/><g class="smithlayer"/><g class="ternarylayer"/><g class="geolayer"/><g class="funnelarealayer"/><g class="pielayer"/><g class="iciclelayer"/><g class="treemaplayer"/><g class="sunburstlayer"/><g class="glimages"/><defs id="topdefs-460c4b"><g class="clips"/><clipPath id="legend460c4b"><rect width="161" height="195" x="0" y="0"/></clipPath></defs><g class="layer-above"><g class="imagelayer"/><g class="shapelayer"/></g><g class="infolayer"><g class="legend" pointer-events="all" transform="translate(72.32,14.270000000000003)"><rect class="bg" shape-rendering="crispEdges" width="161" height="195" x="0" y="0" style="stroke: rgb(68, 68, 68); stroke-opacity: 1; fill: rgb(255, 255, 255); fill-opacity: 1; stroke-width: 0px;"/><g class="scrollbox" transform="" clip-path="url(#legend460c4b)"><g class="groups"><g class="traces" transform="translate(0,18.200000000000003)" style="opacity: 1;"><text class="legendtext" text-anchor="start" x="40" y="7.0200000000000005" style="font-family: 'Times New Roman', monospace; font-size: 18px; fill: rgb(105, 105, 105); fill-opacity: 1; white-space: pre;">IrO​<tspan style="font-size:70%" dy="0.3em">x</tspan><tspan dy="-0.21em">​</tspan></text><g class="layers" style="opacity: 1;"><g class="legendfill"/><g class="legendlines"><path class="js-line" d="M5,0h30" style="fill: none; stroke: rgb(46, 145, 229); stroke-opacity: 1; stroke-width: 2px;"/></g><g class="legendsymbols"><g class="legendpoints"/></g></g><rect class="legendtoggle" x="0" y="-13.200000000000001" width="155.8125" height="26.400000000000002" style="fill: rgb(0, 0, 0); fill-opacity: 0;"/></g><g class="traces" transform="translate(0,44.6)" style="opacity: 1;"><text class="legendtext" text-anchor="start" x="40" y="7.0200000000000005" style="font-family: 'Times New Roman', monospace; font-size: 18px; fill: rgb(105, 105, 105); fill-opacity: 1; white-space: pre;">Ni​<tspan style="font-size:70%" dy="0.3em">60</tspan><tspan dy="-0.21em">​</tspan>Co​<tspan style="font-size:70%" dy="0.3em">30</tspan><tspan dy="-0.21em">​</tspan>Fe​<tspan style="font-size:70%" dy="0.3em">10</tspan><tspan dy="-0.21em">​</tspan>O​<tspan style="font-size:70%" dy="0.3em">x</tspan><tspan dy="-0.21em">​</tspan></text><g class="layers" style="opacity: 1;"><g class="legendfill"/><g class="legendlines"><path class="js-line" d="M5,0h30" style="fill: none; stroke: rgb(225, 95, 153); stroke-opacity: 1; stroke-width: 2px;"/></g><g class="legendsymbols"><g class="legendpoints"/></g></g><rect class="legendtoggle" x="0" y="-13.200000000000001" width="155.8125" height="26.400000000000002" style="fill: rgb(0, 0, 0); fill-opacity: 0;"/></g><g class="traces" transform="translate(0,71)" style="opacity: 1;"><text class="legendtext" text-anchor="start" x="40" y="7.0200000000000005" style="font-family: 'Times New Roman', monospace; font-size: 18px; fill: rgb(105, 105, 105); fill-opacity: 1; white-space: pre;">FeN​<tspan style="font-size:70%" dy="0.3em">x</tspan><tspan dy="-0.21em">​</tspan></text><g class="layers" style="opacity: 1;"><g class="legendfill"/><g class="legendlines"><path class="js-line" d="M5,0h30" style="fill: none; stroke: rgb(251, 13, 13); stroke-opacity: 1; stroke-width: 2px;"/></g><g class="legendsymbols"><g class="legendpoints"/></g></g><rect class="legendtoggle" x="0" y="-13.200000000000001" width="155.8125" height="26.400000000000002" style="fill: rgb(0, 0, 0); fill-opacity: 0;"/></g><g class="traces" transform="translate(0,97.4)" style="opacity: 1;"><text class="legendtext" text-anchor="start" x="40" y="7.0200000000000005" style="font-family: 'Times New Roman', monospace; font-size: 18px; fill: rgb(105, 105, 105); fill-opacity: 1; white-space: pre;">CoN​<tspan style="font-size:70%" dy="0.3em">x</tspan><tspan dy="-0.21em">​</tspan></text><g class="layers" style="opacity: 1;"><g class="legendfill"/><g class="legendlines"><path class="js-line" d="M5,0h30" style="fill: none; stroke: rgb(218, 22, 255); stroke-opacity: 1; stroke-width: 2px;"/></g><g class="legendsymbols"><g class="legendpoints"/></g></g><rect class="legendtoggle" x="0" y="-13.200000000000001" width="155.8125" height="26.400000000000002" style="fill: rgb(0, 0, 0); fill-opacity: 0;"/></g><g class="traces" transform="translate(0,123.80000000000001)" style="opacity: 1;"><text class="legendtext" text-anchor="start" x="40" y="7.0200000000000005" style="font-family: 'Times New Roman', monospace; font-size: 18px; fill: rgb(105, 105, 105); fill-opacity: 1; white-space: pre;">NiN​<tspan style="font-size:70%" dy="0.3em">x</tspan><tspan dy="-0.21em">​</tspan></text><g class="layers" style="opacity: 1;"><g class="legendfill"/><g class="legendlines"><path class="js-line" d="M5,0h30" style="fill: none; stroke: rgb(34, 42, 42); stroke-opacity: 1; stroke-width: 2px;"/></g><g class="legendsymbols"><g class="legendpoints"/></g></g><rect class="legendtoggle" x="0" y="-13.200000000000001" width="155.8125" height="26.400000000000002" style="fill: rgb(0, 0, 0); fill-opacity: 0;"/></g><g class="traces" transform="translate(0,150.2)" style="opacity: 1;"><text class="legendtext" text-anchor="start" x="40" y="7.0200000000000005" style="font-family: 'Times New Roman', monospace; font-size: 18px; fill: rgb(105, 105, 105); fill-opacity: 1; white-space: pre;">Co​<tspan style="font-size:70%" dy="0.3em">57</tspan><tspan dy="-0.21em">​</tspan>Ni​<tspan style="font-size:70%" dy="0.3em">14</tspan><tspan dy="-0.21em">​</tspan>Fe​<tspan style="font-size:70%" dy="0.3em">29</tspan><tspan dy="-0.21em">​</tspan>N​<tspan style="font-size:70%" dy="0.3em">x</tspan><tspan dy="-0.21em">​</tspan></text><g class="layers" style="opacity: 1;"><g class="legendfill"/><g class="legendlines"><path class="js-line" d="M5,0h30" style="fill: none; stroke: rgb(28, 167, 28); stroke-opacity: 1; stroke-width: 2px;"/></g><g class="legendsymbols"><g class="legendpoints"/></g></g><rect class="legendtoggle" x="0" y="-13.200000000000001" width="155.8125" height="26.400000000000002" style="fill: rgb(0, 0, 0); fill-opacity: 0;"/></g><g class="traces" transform="translate(0,176.6)" style="opacity: 1;"><text class="legendtext" text-anchor="start" x="40" y="7.0200000000000005" style="font-family: 'Times New Roman', monospace; font-size: 18px; fill: rgb(105, 105, 105); fill-opacity: 1; white-space: pre;">Co​<tspan style="font-size:70%" dy="0.3em">45</tspan><tspan dy="-0.21em">​</tspan>Ni​<tspan style="font-size:70%" dy="0.3em">45</tspan><tspan dy="-0.21em">​</tspan>Fe​<tspan style="font-size:70%" dy="0.3em">10</tspan><tspan dy="-0.21em">​</tspan>N​<tspan style="font-size:70%" dy="0.3em">x</tspan><tspan dy="-0.21em">​</tspan></text><g class="layers" style="opacity: 1;"><g class="legendfill"/><g class="legendlines"><path class="js-line" d="M5,0h30" style="fill: none; stroke: rgb(182, 129, 0); stroke-opacity: 1; stroke-width: 2px;"/></g><g class="legendsymbols"><g class="legendpoints"/></g></g><rect class="legendtoggle" x="0" y="-13.200000000000001" width="155.8125" height="26.400000000000002" style="fill: rgb(0, 0, 0); fill-opacity: 0;"/></g></g></g><rect class="scrollbar" rx="20" ry="3" width="0" height="0" x="0" y="0" style="fill: rgb(128, 139, 164); fill-opacity: 1;"/></g><g class="g-gtitle"/><g class="g-xtitle" transform="translate(0,-7.634374999999977)"><text class="xtitle" x="284" y="500.009375" text-anchor="middle" style="font-family: 'Times New Roman', monospace; font-size: 22px; fill: rgb(105, 105, 105); opacity: 1; font-weight: normal; white-space: pre;">Overpotential, η(V) - iR​<tspan style="font-size:70%" dy="0.3em">u</tspan><tspan dy="-0.21em">​</tspan></text></g><g class="g-ytitle" transform="translate(23.259765625,0)"><text class="ytitle" transform="rotate(-90,-0.009375000000005684,223.5)" x="-0.009375000000005684" y="223.5" text-anchor="middle" style="font-family: 'Times New Roman', monospace; font-size: 22px; fill: rgb(105, 105, 105); opacity: 1; font-weight: normal; white-space: pre;">Current (mA/cm​<tspan style="font-size:70%" dy="-0.6em">2</tspan><tspan dy="0.42em">​</tspan>)</text></g></g></svg>