<svg class="main-svg" xmlns="http://www.w3.org/2000/svg" xmlns:xlink="http://www.w3.org/1999/xlink" width="1000" height="500" style="" viewBox="0 0 1000 500"><rect x="0" y="0" width="1000" height="500" style="fill: rgb(255, 255, 255); fill-opacity: 1;"/><defs id="defs-2a2c45"><g class="clips"><clipPath id="clip2a2c45xyplot" class="plotclip"><rect width="744" height="416"/></clipPath><clipPath class="axesclip" id="clip2a2c45x"><rect x="78" y="0" width="744" height="500"/></clipPath><clipPath class="axesclip" id="clip2a2c45y"><rect x="0" y="12" width="1000" height="416"/></clipPath><clipPath class="axesclip" id="clip2a2c45xy"><rect x="78" y="12" width="744" height="416"/></clipPath></g><g class="gradients"/><g class="patterns"/></defs><g class="bglayer"><rect class="bg" x="78" y="12" width="744" height="416" style="fill: rgb(0, 0, 0); fill-opacity: 0; stroke-width: 0;"/></g><g class="layer-below"><g class="imagelayer"/><g class="shapelayer"/></g><g class="cartesianlayer"><g class="subplot xy"><g class="layer-subplot"><g class="shapelayer"/><g class="imagelayer"/></g><g class="minor-gridlayer"><g class="x"/><g class="y"/></g><g class="gridlayer"><g class="x"/><g class="y"/></g><g class="zerolinelayer"><path class="yzl zl crisp" transform="translate(0,415.39)" d="M78,0h744" style="stroke: rgb(128, 128, 128); stroke-opacity: 1; stroke-width: 1px;"/></g><path class="xlines-below"/><path class="ylines-below"/><g class="overlines-below"/><g class="xaxislayer-below"/><g class="yaxislayer-below"/><g class="overaxes-below"/><g class="plot" transform="translate(78,12)" clip-path="url(#clip2a2c45xyplot)"><g class="scatterlayer mlayer"><g class="trace scatter trace6b91bc" style="stroke-miterlimit: 2; opacity: 1;"><g class="fills"/><g class="errorbars"/><g class="lines"><path class="js-line" d="M-296.44,403.61L-90.66,403.42L-89.66,403.42L208.06,402.67L208.92,402.66L283.06,401.91L284.02,401.9L359.71,399.67L360.68,399.61L396.94,396.91L397.86,396.82L439.32,392.09L440.24,391.97L481.7,385.39L482.22,385.23L498.68,382.14L499.55,381.96L525.9,376.38L526.69,376.17L546.25,371.59L547.26,371.37L663.73,340L662.36,340.56L661.61,340.98L643.6,348.12L642.34,348.42L624.72,354.38L623.89,354.67L612.67,358.1L611.44,358.35L608.27,359.34L607.42,359.6L581.2,366.73L580.37,366.93L560.07,371.91L559.05,372.11L514.2,381.49L513.18,381.65L465.23,389.43L464.16,389.55L456.09,390.7L455.37,390.82L400.31,396.75L399.09,396.84L371.68,398.93L370.67,398.99L313.33,401.81L312.52,401.84L229.3,403.7L228.31,403.71L86.53,404.14L85.65,404.14L-297.11,403.61" style="vector-effect: non-scaling-stroke; fill: none; stroke: rgb(46, 145, 229); stroke-opacity: 1; stroke-width: 2px; opacity: 1;"/></g><g class="points"/><g class="text"/></g><g class="trace scatter traceb3fcf1" style="stroke-miterlimit: 2; opacity: 1;"><g class="fills"/><g class="errorbars"/><g class="lines"><path class="js-line" d="M-296.24,403.65L192.66,402.9L193.58,402.89L282.5,402.14L283.69,402.12L344.69,400.83L345.57,400.8L392.54,398.2L393.35,398.13L424.22,395.14L424.98,395.03L458.08,390.47L458.82,390.32L485.88,385.45L486.75,385.27L519.68,377.94L520.53,377.72L581.73,360.58L582.51,360.29L667.76,334.27L668.49,334.22L668.32,334.05L667.97,334.4L667.1,334.87L658.97,339.26L657.92,339.65L634.11,349.65L633.31,349.95L580.93,366.52L580.16,366.76L564.87,370.8L563.94,371.01L553.99,373.47L553.2,373.68L501.64,384.46L500.64,384.62L483.15,387.64L482.27,387.79L421.4,395.59L420.5,395.68L379.25,399.04L378.26,399.1L288.01,402.73L286.97,402.75L234.76,403.6L233.58,403.61L115.81,404.1L114.56,404.1L-296.67,403.66" style="vector-effect: non-scaling-stroke; fill: none; stroke: rgb(46, 145, 229); stroke-opacity: 1; stroke-width: 2px; opacity: 1;"/></g><g class="points"/><g class="text"/></g><g class="trace scatter trace21ec4f" style="stroke-miterlimit: 2; opacity: 1;"><g class="fills"/><g class="errorbars"/><g class="lines"><path class="js-line" d="M-304.01,403.41L389.32,402.66L390.34,402.64L444.69,400.93L445.83,400.86L498.41,397.56L499.26,397.48L529.42,394.58L530.22,394.47L605.25,382.99L605.92,382.82L624.87,379.25L625.83,379.07L636.4,376.95L637.2,376.76L646.98,374.82L647.56,374.62L666.38,370.56L666.99,370.35L677.59,368.07L673.89,369.4L673.02,369.73L642.68,378.28L641.5,378.49L588.3,388.19L586.9,388.31L547.3,393.34L545.85,393.45L543.75,393.77L542.28,393.87L535.93,394.56L534.63,394.66L495.33,398L494,398.07L480.94,398.96L480.05,399.02L378.31,402.68L376.91,402.69L331.7,403.19L330.64,403.2L-304.93,403.4" style="vector-effect: non-scaling-stroke; fill: none; stroke: rgb(225, 95, 153); stroke-opacity: 1; stroke-width: 2px; opacity: 1;"/></g><g class="points"/><g class="text"/></g><g class="trace scatter tracefff23f" style="stroke-miterlimit: 2; opacity: 1;"><g class="fills"/><g class="errorbars"/><g class="lines"><path class="js-line" d="M-296.1,403.42L355.89,402.72L355.6,402.68L356.73,402.66L404.89,401.06L405.74,401.01L434.1,399.23L434.05,399.16L445.85,398.06L447.89,397.97L464.76,395.99L464.62,395.87L475.06,394.77L475,394.64L489.61,392.5L490.32,392.35L490.44,392.19L492.24,392.03L493.18,391.72L494.06,391.55L511.7,388.19L512.12,388L518.42,386.61L519.69,386.42L528.09,384.29L528.69,384.07L536.54,382.49L536.26,382.26L536.96,382.04L542.99,380.35L544.48,380.12L552.7,377.49L553.94,377.21L559.56,375.36L560.12,375.07L566.64,373.14L566.69,372.85L572.57,371.14L573.39,370.84L573.23,370.56L574.21,370.27L581.44,368.18L581.05,367.88L600.77,360.18L601.57,359.82L603.88,358.82L604.67,358.48L609.19,356.8L610.1,356.46L614.88,354.29L616.31,353.98L617.24,353.64L616.51,353.26L616.75,352.88L622.17,351.42L622.4,351.08L623.28,350.31L624.47,349.96L632.45,346.18L632.59,345.83L636.51,344.31L636.96,343.95L649.98,337.99L648.97,337.64L655.53,334.71L655.23,334.33L658.02,333.34L656.97,333.18L657.28,333.41L656.3,333.94L655.3,334.36L656.14,334.8L655.15,335.29L650.48,337.99L650.04,338.43L646.16,340.21L645.69,340.71L636.43,346.01L636.22,346.39L630.53,348.86L629.12,349.28L626.08,351.74L625.98,352.18L617.61,354.88L618.83,355.3L618.99,355.68L617.82,356.06L614.79,357.22L614.39,357.61L611.45,358.36L612.07,358.71L610.31,359.11L606.8,360.98L605.94,361.31L604.68,362.4L601.63,362.71L597.42,364.84L597.73,365.19L597.1,365.52L594.62,365.86L590.81,367.88L589.49,368.18L586.04,369.47L585.88,369.8L579.23,371.95L578.27,372.26L577.52,372.88L575.78,373.16L572.29,374.35L572.99,374.64L569.82,375.75L569.42,376.05L562.47,377.7L562.29,377.99L554.21,380.55L552.51,380.79L548.21,382.02L548.48,382.25L521.5,388.37L520.13,388.56L515.78,389.47L516.6,389.65L515.84,389.83L507.82,390.98L507.7,391.16L507.65,391.32L506.5,391.48L497.05,392.98L495.67,393.15L482.44,395L481.92,395.12L463.64,397.14L461.99,397.23L458.67,397.69L456.5,397.77L406.73,401.01L404.74,401.05L405.85,401.14L397.48,401.41L395.61,401.44L375.24,402.12L373.66,402.14L324.74,403.01L323.57,403.02L301.39,403.2L300.9,403.2L201.25,403.44L199.98,403.44L-537.67,403.42" style="vector-effect: non-scaling-stroke; fill: none; stroke: rgb(28, 167, 28); stroke-opacity: 1; stroke-width: 2px; opacity: 1;"/></g><g class="points"/><g class="text"/></g><g class="trace scatter trace145e36" style="stroke-miterlimit: 2; opacity: 1;"><g class="fills"/><g class="errorbars"/><g class="lines"><path class="js-line" d="M-296.2,403.41L377.8,402.66L379.16,402.64L377.55,402.62L398.17,402.18L401.81,402.15L400.84,402.12L411.98,401.8L411.16,401.76L414.36,401.73L414.51,401.65L417.22,401.61L416.47,401.58L424.55,401.29L423.98,401.19L426.3,401.14L465.33,398.61L465.06,398.53L476.82,397.43L476.6,397.34L477.42,397.24L489.34,395.94L490.13,395.83L495.52,395.1L496.85,394.97L497.71,394.71L499.95,394.59L508.45,393.35L509.31,393.2L509.37,392.91L512.31,392.76L513.04,392.3L515.7,392.15L520.65,391.35L520.47,391.18L520.33,391.02L528.39,389.82L527.88,389.65L554.08,383.86L553.87,383.64L563.71,382.05L561.63,381.81L562.46,381.58L562.29,381.34L566.51,381.11L565.32,380.53L568.44,380.3L574.77,378.05L578.27,377.79L577.02,377.52L578.45,377.26L579.26,377.02L585.58,375.71L584.71,375.41L585.23,374.86L587.25,374.59L586.96,374.01L588,373.76L590.71,373.51L590.26,373.22L592.46,372.92L591.08,372.64L593.35,372.37L593.6,372.09L598.25,370.92L597.57,370.62L597.95,370.31L602.4,369.12L601.25,368.82L605.11,367.56L606.02,367.27L609.05,366.97L608.76,366.34L610.12,366.03L612.44,365.38L610.77,365.03L615.59,363.74L616.38,363.42L616.98,363.12L620.53,362.78L618.76,362.44L619.84,362.13L620.93,361.81L622.3,361.11L621.39,360.74L626.1,359.39L626.91,359.06L629.41,358.36L628.54,358.01L633.16,356.97L632.81,356.62L632.42,356.26L636.82,355.14L635.91,354.78L639.97,353.69L639.53,353.34L642.92,352.25L642.3,351.82L641.85,351.46L644.77,351.1L646.16,350.7L645.2,350.31L645.88,349.93L651.62,347.64L652.46,347.17L652.3,346.75L653.61,346.37L655.77,345.19L656.34,344.8L663.33,342.57L662.99,342.69L660.48,342.81L660.09,343.21L658.11,343.68L657.8,344.09L658.97,344.51L656.04,345.79L657.01,346.23L652.87,347.49L652.04,347.97L651.74,348.39L649.25,348.79L650.75,349.24L649.78,349.66L649.26,350.07L645.89,350.84L646.03,351.28L645.92,351.7L642.35,352.95L642.01,353.35L641.49,353.71L639.47,354.12L639.24,354.95L638,355.33L637.39,355.72L634.78,356.13L634.97,356.91L632.33,357.28L632.67,358.1L631.93,358.48L631.68,358.84L629.83,359.24L628.23,360.36L627.02,360.73L625.97,361.14L626.83,361.52L626.5,361.84L623.06,362.98L622.62,363.33L619.42,364.04L620.06,364.42L619.74,364.77L615.16,365.83L615.75,366.18L614.45,366.51L612.56,366.85L613.09,367.21L612.83,367.57L604.67,370.19L605.32,370.52L601.67,371.15L602.04,371.82L602.07,372.12L598.94,372.43L599.65,372.73L600.33,373.06L594.73,374.24L594.93,374.53L590.33,375.12L590.63,375.43L591.22,375.72L588.37,376.61L588.18,376.88L587.55,377.15L584.79,377.41L584.35,377.72L586.37,377.99L578.92,378.81L579.73,379.09L581.25,379.36L575.62,380.41L574.62,380.65L575.26,380.89L572.81,381.16L570.52,381.89L568.49,382.16L569.85,382.65L566.69,382.9L567.1,383.13L566.94,383.38L565.98,383.63L559.39,385.17L559.19,385.42L556.85,385.84L555.85,386.05L556.98,386.28L554.99,386.47L553.04,386.67L553.26,387.09L529.94,391.31L528.52,391.45L529,391.79L521.29,393.16L518.42,393.29L506.66,395.07L506.65,395.19L504.66,395.43L502.68,395.54L500.82,395.89L499.14,396L499.55,396.11L499.15,396.21L496.91,396.32L489.39,397.22L487.2,397.32L450.94,400.08L449.75,400.14L450.02,400.19L446.75,400.29L446.43,400.34L383.42,402.48L380.1,402.49L231.89,403.41L234.23,403.41L231.17,403.41L-502.4,403.4" style="vector-effect: non-scaling-stroke; fill: none; stroke: rgb(28, 167, 28); stroke-opacity: 1; stroke-width: 2px; opacity: 1;"/></g><g class="points"/><g class="text"/></g><g class="trace scatter tracef8ac8f" style="stroke-miterlimit: 2; opacity: 1;"><g class="fills"/><g class="errorbars"/><g class="lines"><path class="js-line" d="M-296.67,403.4L423.96,402.67L423.86,402.65L424.55,402.63L469.52,401.43L469.09,401.39L470.54,401.35L493.06,400.22L493.5,400.15L541.52,395.23L541.92,395.09L551.25,393.75L552.19,393.59L577.89,388.03L577.92,387.8L589.33,384.86L589.66,384.6L613.44,376.23L613.36,375.89L617.43,374.46L617.71,374.03L630.64,368.54L630.95,368.16L647.87,360.08L647.67,359.63L650.62,357.94L650.66,357.52L654.6,356.65L653.61,356.22L653.76,355.75L657.18,354.43L656.54,353.97L660.44,353.06L659.39,352.62L659.77,352.2L663.59,350.82L662.93,350.4L666.98,348.99L666.04,348.61L669.85,348.42L665.41,348.68L665.7,349.13L666.57,349.6L662.17,350.57L662.24,351.03L662.81,351.53L661.76,351.95L659.78,352.92L659.57,353.38L656.68,354.76L656.46,355.22L652.96,356.63L653.22,357.08L652.75,357.55L649.63,358.44L650.33,358.89L649.93,359.31L646.66,360.66L646.23,361.07L640.96,363.64L640.92,364.09L640.55,364.51L638.66,364.89L636.47,365.71L637.35,366.15L633.92,367.34L633.7,367.79L633.41,368.17L631.92,368.56L627.03,370.84L627.18,371.25L623.8,372.35L623.68,372.75L617.29,375.19L616.95,375.53L616.58,375.89L614.48,376.21L613.02,377.26L611.71,377.56L603.07,380.72L603.55,381.02L596.28,383.01L596.35,383.32L589.59,385.17L589.55,385.43L586.97,386.18L585.59,386.42L585.29,386.68L583.83,386.92L574.12,389.62L572.12,389.82L567.52,391.05L566.76,391.23L562.63,392.24L559.93,392.42L544.07,395.26L544.05,395.39L491.62,400.42L490.27,400.48L434,402.42L432.1,402.44L409.22,402.79L408.14,402.8L360.01,403.18L358.04,403.19L-482.85,403.41" style="vector-effect: non-scaling-stroke; fill: none; stroke: rgb(28, 167, 28); stroke-opacity: 1; stroke-width: 2px; opacity: 1;"/></g><g class="points"/><g class="text"/></g><g class="trace scatter trace5d7e4e" style="stroke-miterlimit: 2; opacity: 1;"><g class="fills"/><g class="errorbars"/><g class="lines"><path class="js-line" d="M-304.61,403.4L521.02,402.66L522.27,402.64L599.82,400.55L601.23,400.51L684.49,395.58L585.23,401.06L584.13,401.1L554.94,401.91L553.9,401.93L511.38,402.67L510.07,402.69L420.22,403.27L419.18,403.27L-305.45,403.41" style="vector-effect: non-scaling-stroke; fill: none; stroke: rgb(251, 13, 13); stroke-opacity: 1; stroke-width: 2px; opacity: 1;"/></g><g class="points"/><g class="text"/></g><g class="trace scatter trace8c2916" style="stroke-miterlimit: 2; opacity: 1;"><g class="fills"/><g class="errorbars"/><g class="lines"><path class="js-line" d="M-301.23,403.88L-103.2,403.49L-102,403.49L428.31,402.74L429.33,402.73L673.7,400.04L674.91,400.02L688.63,399.85L412.46,403.02L411.39,403.02L333.99,403.24L332.88,403.24L-302.08,403.7" style="vector-effect: non-scaling-stroke; fill: none; stroke: rgb(218, 22, 255); stroke-opacity: 1; stroke-width: 2px; opacity: 1;"/></g><g class="points"/><g class="text"/></g><g class="trace scatter trace3eece1" style="stroke-miterlimit: 2; opacity: 1;"><g class="fills"/><g class="errorbars"/><g class="lines"><path class="js-line" d="M-301.21,404.38L-81.03,403.55L-80.27,403.55L357.16,402.8L358.12,402.79L517.45,400.53L518.49,400.51L687.33,395.31L656.76,396.89L656.09,396.94L531.1,400.8L529.87,400.82L475.81,401.82L474.81,401.83L391.63,402.78L390.43,402.79L265.65,403.33L264.67,403.33L187.5,403.43L186.33,403.43L-301.62,403.97" style="vector-effect: non-scaling-stroke; fill: none; stroke: rgb(218, 22, 255); stroke-opacity: 1; stroke-width: 2px; opacity: 1;"/></g><g class="points"/><g class="text"/></g><g class="trace scatter trace211d36" style="stroke-miterlimit: 2; opacity: 1;"><g class="fills"/><g class="errorbars"/><g class="lines"><path class="js-line" d="M-296.19,403.4L432.09,402.65L433.04,402.63L476.05,401.03L477.05,400.97L507.16,398.64L508.1,398.55L532.68,395.62L533.57,395.49L561.47,390.8L562.31,390.62L582.46,386.27L583.33,386.06L619,376.18L619.88,375.9L653.95,363.81L654.85,363.47L667.6,358.27L668.42,357.91L675.41,354.86L659.27,362.71L658.46,363.09L629.49,374.95L628.65,375.26L610.22,381.19L609.35,381.46L579.62,388.8L578.71,388.99L547.83,394.3L546.86,394.43L514.72,398.1L513.7,398.19L475.11,400.85L474.15,400.89L426.82,402.52L425.86,402.54L351.32,403.3L350.41,403.3L273.06,403.37L271.97,403.37L-296.53,403.41" style="vector-effect: non-scaling-stroke; fill: none; stroke: rgb(34, 42, 42); stroke-opacity: 1; stroke-width: 2px; opacity: 1;"/></g><g class="points"/><g class="text"/></g><g class="trace scatter trace44ada1" style="stroke-miterlimit: 2; opacity: 1;"><g class="fills"/><g class="errorbars"/><g class="lines"><path class="js-line" d="M-296.24,403.39L432.11,402.64L433.02,402.61L476.07,401.02L476.96,400.96L506.2,398.76L507.09,398.67L538.24,394.9L539.11,394.76L565.04,390.3L565.96,390.12L593.18,384.03L593.94,383.81L617.27,377.45L618,377.19L655.59,364.33L656.4,363.99L675.11,356.37L675.16,356.21L668.17,359.57L667.36,359.97L647.42,368.96L646.51,369.31L628.51,376.11L627.68,376.4L603.05,383.77L602.02,384L583.08,388.43L582.09,388.63L556.19,393.28L554.99,393.42L526.87,396.97L525.9,397.07L487.53,400.14L486.58,400.2L432.57,402.35L431.55,402.37L379.47,403.16L378.5,403.17L-296.85,403.4" style="vector-effect: non-scaling-stroke; fill: none; stroke: rgb(34, 42, 42); stroke-opacity: 1; stroke-width: 2px; opacity: 1;"/></g><g class="points"/><g class="text"/></g><g class="trace scatter trace6b11a9" style="stroke-miterlimit: 2; opacity: 1;"><g class="fills"/><g class="errorbars"/><g class="lines"><path class="js-line" d="M-295.68,403.4L449.62,402.65L451.27,402.63L540.68,401.03L541.48,401.01L677.67,396.29L678.43,396.25L691.22,395.84L659.29,397.75L658.59,397.8L582.72,400.43L581.75,400.46L442.22,402.72L440.93,402.72L321.39,403.34L320.02,403.34L-296.58,403.4L-296.04,403.4" style="vector-effect: non-scaling-stroke; fill: none; stroke: rgb(182, 129, 0); stroke-opacity: 1; stroke-width: 2px; opacity: 1;"/></g><g class="points"/><g class="text"/></g><g class="trace scatter trace9b2c39" style="stroke-miterlimit: 2; opacity: 1;"><g class="fills"/><g class="errorbars"/><g class="lines"><path class="js-line" d="M-296.42,403.41L379.62,402.66L380.49,402.64L433.77,400.95L434.42,400.91L476.57,397.85L477.57,397.76L520.68,392.29L521.3,392.14L536.75,389.57L537.46,389.4L561.96,384.48L562.85,384.27L577.65,380.68L578.62,380.45L592.57,376.69L593.46,376.43L622.19,367.51L622.93,367.21L628.08,365.37L629.33,365.07L643.45,360.01L644.54,359.71L676.76,347.9L677.91,347.59L678.52,347.23L669.06,352.06L667.86,352.48L662.58,354.89L661.85,355.28L653.24,359.15L652.24,359.53L611.73,374.18L610.62,374.47L607.07,375.61L606.1,375.89L604.46,376.43L603.5,376.7L574.91,384.31L573.84,384.52L564.1,386.81L562.6,387.02L545.03,390.49L543.86,390.66L539.72,391.46L538.44,391.61L486.38,397.97L485.36,398.05L447.32,400.5L446.52,400.55L371.5,402.64L370.4,402.66L218.31,403.41L217.46,403.41L-297.02,403.42" style="vector-effect: non-scaling-stroke; fill: none; stroke: rgb(117, 13, 134); stroke-opacity: 1; stroke-width: 2px; opacity: 1;"/></g><g class="points"/><g class="text"/></g><g class="trace scatter tracee9dd83" style="stroke-miterlimit: 2; opacity: 1;"><g class="fills"/><g class="errorbars"/><g class="lines"><path class="js-line" d="M-296.71,403.41L385.43,402.66L386.34,402.64L450.16,400.39L451.19,400.33L492.6,396.86L493.25,396.75L538.49,389.92L538.57,389.74L546.19,388.26L547.33,388.07L564.67,384L565.44,383.74L579.81,379.74L580.65,379.46L614.76,367.43L615.31,367.04L631.01,360.71L631.11,360.35L636.78,358.1L637.57,357.69L639.21,357.02L640.55,356.63L643.35,355.22L644.31,354.87L650.42,352.23L651.33,351.85L658.78,348.51L659.28,348.01L659.46,347.67L660.71,347.3L666.31,344.97L666.54,344.59L670.29,343.05L671.41,342.95L669.3,343.55L668.35,344.09L668.45,344.55L667.2,345.02L661.16,348.23L660.62,348.71L657.22,350.43L656.57,350.93L640.61,358.69L639.94,359.11L639.74,359.52L638.34,359.93L610.1,371.65L609.16,371.96L604.31,373.82L602.94,374.13L598.45,375.95L597.24,376.25L561.65,386.36L560.55,386.57L537.8,391.33L536.33,391.49L526.73,393.27L525.62,393.41L490.84,397.67L489.89,397.76L433.64,401.2L432.24,401.24L356.05,402.88L354.43,402.89L170.81,403.43L169.53,403.43L-297.26,403.43" style="vector-effect: non-scaling-stroke; fill: none; stroke: rgb(117, 13, 134); stroke-opacity: 1; stroke-width: 2px; opacity: 1;"/></g><g class="points"/><g class="text"/></g><g class="trace scatter tracef1d38b" style="stroke-miterlimit: 2; opacity: 1;"><g class="fills"/><g class="errorbars"/><g class="lines"><path class="js-line" d="M139.84,403.38L410.55,402.63L411.25,402.61L487.63,400.96L488.09,400.92L541.8,398.84L543.17,398.79L591.96,396.24L593.48,396.19L688.59,390.93L676.88,392.18L675.89,392.28L587.31,397.71L585.84,397.76L579.78,398.05L578.45,398.09L544.9,399.52L543.12,399.55L520.85,400.34L519.54,400.36L419.16,402.52L417.58,402.54L278.17,403.33L276.8,403.34L-298.1,403.5" style="vector-effect: non-scaling-stroke; fill: none; stroke: rgb(235, 102, 59); stroke-opacity: 1; stroke-width: 2px; opacity: 1;"/></g><g class="points"/><g class="text"/></g><g class="trace scatter trace3cbacf" style="stroke-miterlimit: 2; opacity: 1;"><g class="fills"/><g class="errorbars"/><g class="lines"><path class="js-line" d="M-295.82,404.55L-54.51,402.88L-52.96,402.86L37.7,401.27L38.31,401.25L48.81,401.03L49.6,401.01L56.13,400.85L57.72,400.83L80.93,400.33L82.31,400.32L155.68,399.13L156.77,399.12L194.61,398.36L196.02,398.34L247.95,396.57L248.98,396.52L310.69,393.48L311.06,393.44L343.46,391.41L344.51,391.32L382.29,386.06L382.7,385.89L385.16,385.17L386.65,384.99L392.19,383.86L393.65,383.67L403.27,381.49L403.76,381.28L413.35,379.37L413.46,379.16L417.09,378.29L417.28,378.06L425.47,376.48L425.81,376.24L438.48,372.85L439.93,372.6L447.87,370.61L448.16,370.38L452.33,369.1L454.06,368.82L458.52,367.25L459.88,366.99L469.7,364.02L470.64,363.74L474.65,362.62L475.39,362.33L488,358.24L488.33,357.93L497.96,354.86L498.05,354.55L517.51,347.78L518.13,347.47L523.36,345.76L523.35,345.42L531.17,342.35L531.82,342L541.13,338.58L541.66,338.03L544.87,337.05L545.42,336.69L549.07,335.27L549.27,334.92L556.24,332.74L555.73,332.37L560.95,330.5L561.37,330.13L567.3,327.97L567.12,327.61L579.22,322.77L579.5,322.4L580.05,322.02L582.07,321.65L582.16,321.28L583.07,320.9L587.5,319.01L589.05,318.61L588.82,318.22L590.93,317.84L590.5,317.46L592.37,317.08L592.61,316.7L594.75,316.34L595.62,315.58L596.79,315.21L601.4,312.86L602.93,312.48L605.12,310.9L607.14,310.52L607.78,309.75L609.37,309.39L613.99,307.42L614.8,307.08L622.75,303.54L622.33,303.15L624.78,302.77L626,302.05L627.75,301.68L627.34,301.32L629.26,300.94L632.94,299.07L633.6,298.7L641.73,295.15L642.08,294.78L647.96,292.58L648.74,292.23L655.31,289.62L656.54,289.24L659.34,288.28L658.59,287.84L658.87,288.99L657.53,289.51L651.72,292.46L652.06,292.88L642.93,297.32L642.58,297.77L637.97,300L637.01,300.43L633.91,302.18L632.75,302.65L625.55,306.5L624.07,306.9L619.85,308.92L619.82,309.33L615.34,310.95L614.52,311.34L613.07,312.19L611.96,312.59L609.72,313.84L608.25,314.25L608.12,314.67L606.81,315.09L604.33,316.12L603.38,316.53L598.77,318.89L597.55,319.28L565.01,332.87L563.92,333.23L563.94,333.57L562.27,333.94L561.82,334.29L559.81,334.65L559.1,335.38L558.4,335.74L552.55,337.78L552.3,338.13L548.15,339.48L547.83,339.83L543.3,341.17L543.47,341.52L531.23,345.77L530.34,346.08L524.33,348.29L523.28,348.62L516.34,351.1L515.23,351.39L513.93,352L512.18,352.31L492.81,358.75L491.75,359.05L491.17,359.63L488.38,359.92L488.88,360.2L486.49,360.49L485.82,361.04L484.78,361.32L478.87,363L478.9,363.28L472.79,364.92L472.11,365.19L470.08,365.99L467.58,366.27L453.94,370.43L452.78,370.67L420.18,379.2L418.81,379.43L418.64,379.65L417.15,379.87L401.2,383.51L400.18,383.72L398.7,384.14L397.3,384.33L396.38,384.74L394.91,384.95L382.97,387.49L382.08,387.69L339.78,395.42L338.04,395.57L338.08,395.72L336.38,395.87L325.74,397.44L324.52,397.57L319.64,398.38L318.08,398.51L317.64,398.76L314.88,398.89L312.17,399.38L310.51,399.5L305.17,400.22L303.99,400.33L293.58,401.54L292.28,401.64L249.73,405.26L248.41,405.32L248.64,405.38L247.58,405.44L246,405.49L213.92,406.98L212.71,407.02L134.32,408.08L133.19,408.07L67.3,407.32L65.01,407.31L-11.6,406.09L-13.71,406.08L-295.57,404.53" style="vector-effect: non-scaling-stroke; fill: none; stroke: rgb(81, 28, 251); stroke-opacity: 1; stroke-width: 2px; opacity: 1;"/></g><g class="points"/><g class="text"/></g><g class="trace scatter traced8c810" style="stroke-miterlimit: 2; opacity: 1;"><g class="fills"/><g class="errorbars"/><g class="lines"><path class="js-line" d="M-304.29,403.39L-118.87,403.39L-117.72,403.39L563.37,402.65L563.96,402.63L658.26,400.23L659.15,400.19L686.38,399.02L654.95,400.46L653.94,400.5L585.12,402.31L583.55,402.33L388.96,403.37L387.47,403.37L-304.63,403.4L-304.34,403.4" style="vector-effect: non-scaling-stroke; fill: none; stroke: rgb(0, 160, 139); stroke-opacity: 1; stroke-width: 2px; opacity: 1;"/></g><g class="points"/><g class="text"/></g><g class="trace scatter trace513f79" style="stroke-miterlimit: 2; opacity: 1;"><g class="fills"/><g class="errorbars"/><g class="lines"><path class="js-line" d="M-301.49,403.44L-77.71,403.41L-77.1,403.41L394.24,402.66L395.26,402.64L444.78,401.52L445.18,401.5L488.11,400.02L489.27,399.98L553.43,396.42L554.06,396.38L587.41,393.72L588.75,393.6L608.19,391.9L609.68,391.87L617.05,391.14L618.63,391.05L620.77,390.91L621.68,390.81L687.48,385.38L685.64,386L684.62,386.19L671.39,388.07L670.74,388.2L606.1,394.21L604.91,394.3L563.94,396.95L562.75,397L506.41,399.69L505.47,399.71L483.86,400.48L482.19,400.52L408.35,402.35L406.91,402.37L400.46,402.49L399.71,402.51L182.79,403.36L181.35,403.36L-302.44,403.43L-301.91,403.34" style="vector-effect: non-scaling-stroke; fill: none; stroke: rgb(251, 0, 209); stroke-opacity: 1; stroke-width: 2px; opacity: 1;"/></g><g class="points"/><g class="text"/></g><g class="trace scatter trace27e9d8" style="stroke-miterlimit: 2; opacity: 1;"><g class="fills"/><g class="errorbars"/><g class="lines"><path class="js-line" d="M-301.46,403.45L369.9,402.7L370.78,402.69L463.45,400.98L464.03,400.96L526.05,398.64L526.69,398.6L561.63,396.86L562.04,396.81L594.19,394.99L595.18,394.93L633.82,392.59L634.85,392.54L651.73,391.42L652.98,391.38L682.65,389.5L606.7,394.64L605.55,394.68L524.53,398.7L523.34,398.73L431.14,401.64L429.9,401.66L269.49,403.34L268.46,403.35L-302.15,403.45" style="vector-effect: non-scaling-stroke; fill: none; stroke: rgb(252, 0, 128); stroke-opacity: 1; stroke-width: 2px; opacity: 1;"/></g><g class="points"/><g class="text"/></g><g class="trace scatter trace24428e" style="stroke-miterlimit: 2; opacity: 1;"><g class="fills"/><g class="errorbars"/><g class="lines"><path class="js-line" d="M-301.85,403.42L423.27,402.67L424.52,402.66L566.6,400.21L567.94,400.18L687.83,396.66L618.71,399.05L617.84,399.08L417.3,402.68L415.94,402.69L371.84,403.01L370.59,403.01L275.32,403.35L274.94,403.35L-302.23,403.41L-301.29,403.42" style="vector-effect: non-scaling-stroke; fill: none; stroke: rgb(252, 0, 128); stroke-opacity: 1; stroke-width: 2px; opacity: 1;"/></g><g class="points"/><g class="text"/></g><g class="trace scatter trace7803c1" style="stroke-miterlimit: 2; opacity: 1;"><g class="fills"/><g class="errorbars"/><g class="lines"><path class="js-line" d="M-304.45,403.46L259.69,402.71L260.78,402.7L305.13,401.97L306.15,401.94L336.97,399.63L337.96,399.51L357.19,396.36L358.09,396.17L372.52,392.63L373.31,392.38L380.81,389.9L381.94,389.61L396.2,384.03L396.93,383.67L419.44,371.85L420.08,371.38L442.44,355.74L443.04,355.19L452.41,347.57L452.85,346.96L457.4,343.29L458.01,342.65L479.08,322.16L479.67,321.42L483.45,317.08L484.31,316.38L493.97,305.28L494.4,304.52L500.97,296.98L501.33,296.19L506.19,289.56L506.71,288.74L510.79,284.08L511.23,283.29L518.1,274.61L518.48,273.82L523.88,266.41L524.49,265.59L527.05,262.28L527.53,261.43L531.33,256.47L531.84,255.63L556.1,218.9L556.3,218.03L559.06,214.7L559.49,213.67L562.44,209.37L563.05,208.48L570.22,196.95L571.28,196.11L573.7,191.26L573.88,190.33L578.18,183.81L578.5,182.98L580.91,179.29L574.13,191.58L573.71,192.62L571.92,195.57L571.59,196.53L568.16,202.51L567.8,203.42L565.94,206.26L565.56,207.13L562.4,212.99L561.69,213.93L560.22,216.7L559.42,217.58L558.04,220.3L557.27,221.27L554.18,226.71L553.59,227.67L550.62,232.33L550.09,233.3L549.27,235.08L548.41,235.88L543.12,243.67L542.87,244.5L532.32,260.2L531.45,260.98L528.23,266.09L527.49,266.9L518.91,278.33L518.67,279.15L513.74,285.75L513.2,286.52L494.7,308.38L494.01,309.11L477.63,326.67L476.74,327.34L462.46,340.89L461.79,341.49L453.77,348.13L453.28,348.72L433.38,363.25L432.64,363.74L424.16,368.99L423.42,369.44L416.35,373.42L415.53,373.84L405.13,379.02L404.33,379.39L391,384.94L390.18,385.25L377.5,389.61L376.51,389.88L352.26,395.86L351.28,396.03L339.41,398.04L338.62,398.18L317.85,400.58L316.81,400.67L291.95,402.27L290.73,402.33L228.6,403.48L227.78,403.49L-305.09,403.48" style="vector-effect: non-scaling-stroke; fill: none; stroke: rgb(178, 130, 141); stroke-opacity: 1; stroke-width: 2px; opacity: 1;"/></g><g class="points"/><g class="text"/></g><g class="trace scatter trace06f716" style="stroke-miterlimit: 2; opacity: 1;"><g class="fills"/><g class="errorbars"/><g class="lines"><path class="js-line" d="M-295.52,403.4L478.89,402.65L479.62,402.63L520.92,401.6L521.9,401.55L533.01,401.03L534.86,400.99L552.97,399.81L554.77,399.74L581.61,397.28L581.97,397.17L609.85,393.47L610.27,393.32L646.16,386.47L646.36,386.27L654.62,384.64L655.14,384.4L674.49,379.5L675.24,379.28L685.74,376.75L678.57,379.05L678.33,379.34L659.99,384.75L659.46,384.99L646.23,388.16L645.67,388.37L610.75,394.68L609.66,394.81L560.07,399.72L558.75,399.78L497.6,402.29L496.31,402.32L400.39,403.27L399.08,403.28L-296.69,403.4L-296.04,403.41" style="vector-effect: non-scaling-stroke; fill: none; stroke: rgb(108, 124, 50); stroke-opacity: 1; stroke-width: 2px; opacity: 1;"/></g><g class="points"/><g class="text"/></g><g class="trace scatter trace56edc7" style="stroke-miterlimit: 2; opacity: 1;"><g class="fills"/><g class="errorbars"/><g class="lines"><path class="js-line" d="M-296.32,403.4L328.88,402.66L330.17,402.64L370.77,401.13L371.9,401.05L400.81,398.6L401.4,398.5L428.83,394.59L429.89,394.43L464.12,386.83L464.96,386.6L493.06,378.09L493.27,377.81L499.39,375.69L499.98,375.39L507.07,372.7L506.99,372.36L524.89,364.61L525.43,364.26L531.03,361.68L531.85,361.31L533.26,360.55L534.41,360.15L539.89,357.53L540.74,357.18L548.06,353.29L548.92,352.9L553.82,350.18L554.42,349.66L556.5,348.3L557.4,347.81L560.03,345.97L561.09,345.55L596.66,323.57L596.89,322.95L599.04,321.22L599.46,320.59L601.97,319.07L602.12,318.52L607.51,314.66L607.9,314.17L620.09,305.26L620.72,304.92L622.16,303.91L623.02,303.45L624.64,301.92L625.85,301.35L635.29,294.78L633.21,294.84L634.14,295.03L633.27,295.47L633.14,296.03L629.2,298.76L628.86,299.35L616.64,307.97L615.55,308.4L613.66,310.2L613.29,310.66L607.16,315.65L606.96,316.21L601.8,319.49L600.99,320.14L601.42,320.67L600.31,321.27L596.92,324.03L596.35,324.55L591.98,327.97L591.53,328.54L587.07,331.66L586.85,332.16L557.18,350.11L555.93,350.51L543.8,357.12L542.98,357.52L539.63,359.63L538.16,360.04L532.48,363.17L531.23,363.56L526.75,365.77L526.03,366.17L521.37,368.32L520.01,368.7L487.65,381.18L486.72,381.44L458.6,389.14L457.69,389.35L421.18,395.92L420,396.05L415.69,396.66L414.41,396.78L405.86,397.77L405.06,397.88L376.19,400.44L374.51,400.51L357.73,401.49L357.02,401.54L314.65,402.87L313.32,402.89L270.35,403.37L269.14,403.38L-297.36,403.41L-297.01,403.42" style="vector-effect: non-scaling-stroke; fill: none; stroke: rgb(167, 119, 241); stroke-opacity: 1; stroke-width: 2px; opacity: 1;"/></g><g class="points"/><g class="text"/></g><g class="trace scatter trace1840c7" style="stroke-miterlimit: 2; opacity: 1;"><g class="fills"/><g class="errorbars"/><g class="lines"><path class="js-line" d="M-296.64,403.41L350.96,402.67L351.91,402.65L395.76,401.49L396.73,401.45L434.37,399.28L435.36,399.21L465.43,396.35L466.26,396.25L492.16,392.77L493.02,392.62L537.53,383.93L538.37,383.72L587.5,369.31L588.28,369.03L647.16,350.04L648.15,349.8L660.83,346.06L658.7,347.15L657.99,347.56L644.28,354.45L643.38,354.81L624.49,362.71L623.54,363.01L614.67,366.33L613.84,366.62L584.75,375.82L583.75,376.05L575.45,378.39L574.35,378.62L558.89,382.47L558.04,382.67L541.32,386.25L540.47,386.42L509.03,391.87L508.07,392L479.19,395.68L478.39,395.78L437.69,399.23L436.77,399.29L384.63,401.74L383.64,401.77L324.54,402.98L323.52,402.99L214.71,403.48L213.64,403.48L-297.5,403.42" style="vector-effect: non-scaling-stroke; fill: none; stroke: rgb(167, 119, 241); stroke-opacity: 1; stroke-width: 2px; opacity: 1;"/></g><g class="points"/><g class="text"/></g></g></g><g class="overplot"/><path class="xlines-above crisp" d="M76,429H822" style="fill: none; stroke-width: 2px; stroke: rgb(0, 0, 0); stroke-opacity: 1;"/><path class="ylines-above crisp" d="M77,12V428" style="fill: none; stroke-width: 2px; stroke: rgb(0, 0, 0); stroke-opacity: 1;"/><g class="overlines-above"/><g class="xaxislayer-above"><path class="xtick ticks crisp" d="M0,430v5" transform="translate(78,0)" style="stroke: rgb(68, 68, 68); stroke-opacity: 1; stroke-width: 1px;"/><path class="xtick ticks crisp" d="M0,430v5" transform="translate(177.2,0)" style="stroke: rgb(68, 68, 68); stroke-opacity: 1; stroke-width: 1px;"/><path class="xtick ticks crisp" d="M0,430v5" transform="translate(276.4,0)" style="stroke: rgb(68, 68, 68); stroke-opacity: 1; stroke-width: 1px;"/><path class="xtick ticks crisp" d="M0,430v5" transform="translate(375.6,0)" style="stroke: rgb(68, 68, 68); stroke-opacity: 1; stroke-width: 1px;"/><path class="xtick ticks crisp" d="M0,430v5" transform="translate(474.8,0)" style="stroke: rgb(68, 68, 68); stroke-opacity: 1; stroke-width: 1px;"/><path class="xtick ticks crisp" d="M0,430v5" transform="translate(574,0)" style="stroke: rgb(68, 68, 68); stroke-opacity: 1; stroke-width: 1px;"/><path class="xtick ticks crisp" d="M0,430v5" transform="translate(673.2,0)" style="stroke: rgb(68, 68, 68); stroke-opacity: 1; stroke-width: 1px;"/><path class="xtick ticks crisp" d="M0,430v5" transform="translate(772.4,0)" style="stroke: rgb(68, 68, 68); stroke-opacity: 1; stroke-width: 1px;"/><g class="xtick"><text text-anchor="middle" x="0" y="461.4" transform="translate(78,0)" style="font-family: 'Times New Roman', monospace; font-size: 22px; fill: rgb(105, 105, 105); fill-opacity: 1; white-space: pre; opacity: 1;">0</text></g><g class="xtick"><text text-anchor="middle" x="0" y="461.4" style="font-family: 'Times New Roman', monospace; font-size: 22px; fill: rgb(105, 105, 105); fill-opacity: 1; white-space: pre; opacity: 1;" transform="translate(177.2,0)">0.1</text></g><g class="xtick"><text text-anchor="middle" x="0" y="461.4" style="font-family: 'Times New Roman', monospace; font-size: 22px; fill: rgb(105, 105, 105); fill-opacity: 1; white-space: pre; opacity: 1;" transform="translate(276.4,0)">0.2</text></g><g class="xtick"><text text-anchor="middle" x="0" y="461.4" style="font-family: 'Times New Roman', monospace; font-size: 22px; fill: rgb(105, 105, 105); fill-opacity: 1; white-space: pre; opacity: 1;" transform="translate(375.6,0)">0.3</text></g><g class="xtick"><text text-anchor="middle" x="0" y="461.4" style="font-family: 'Times New Roman', monospace; font-size: 22px; fill: rgb(105, 105, 105); fill-opacity: 1; white-space: pre; opacity: 1;" transform="translate(474.8,0)">0.4</text></g><g class="xtick"><text text-anchor="middle" x="0" y="461.4" style="font-family: 'Times New Roman', monospace; font-size: 22px; fill: rgb(105, 105, 105); fill-opacity: 1; white-space: pre; opacity: 1;" transform="translate(574,0)">0.5</text></g><g class="xtick"><text text-anchor="middle" x="0" y="461.4" style="font-family: 'Times New Roman', monospace; font-size: 22px; fill: rgb(105, 105, 105); fill-opacity: 1; white-space: pre; opacity: 1;" transform="translate(673.2,0)">0.6</text></g><g class="xtick"><text text-anchor="middle" x="0" y="461.4" style="font-family: 'Times New Roman', monospace; font-size: 22px; fill: rgb(105, 105, 105); fill-opacity: 1; white-space: pre; opacity: 1;" transform="translate(772.4,0)">0.7</text></g></g><g class="yaxislayer-above"><path class="ytick ticks crisp" d="M76,0h-5" transform="translate(0,415.39)" style="stroke: rgb(68, 68, 68); stroke-opacity: 1; stroke-width: 1px;"/><path class="ytick ticks crisp" d="M76,0h-5" transform="translate(0,364.97)" style="stroke: rgb(68, 68, 68); stroke-opacity: 1; stroke-width: 1px;"/><path class="ytick ticks crisp" d="M76,0h-5" transform="translate(0,314.55)" style="stroke: rgb(68, 68, 68); stroke-opacity: 1; stroke-width: 1px;"/><path class="ytick ticks crisp" d="M76,0h-5" transform="translate(0,264.12)" style="stroke: rgb(68, 68, 68); stroke-opacity: 1; stroke-width: 1px;"/><path class="ytick ticks crisp" d="M76,0h-5" transform="translate(0,213.7)" style="stroke: rgb(68, 68, 68); stroke-opacity: 1; stroke-width: 1px;"/><path class="ytick ticks crisp" d="M76,0h-5" transform="translate(0,163.27)" style="stroke: rgb(68, 68, 68); stroke-opacity: 1; stroke-width: 1px;"/><path class="ytick ticks crisp" d="M76,0h-5" transform="translate(0,112.85)" style="stroke: rgb(68, 68, 68); stroke-opacity: 1; stroke-width: 1px;"/><path class="ytick ticks crisp" d="M76,0h-5" transform="translate(0,62.42)" style="stroke: rgb(68, 68, 68); stroke-opacity: 1; stroke-width: 1px;"/><path class="ytick ticks crisp" d="M76,0h-5" transform="translate(0,12)" style="stroke: rgb(68, 68, 68); stroke-opacity: 1; stroke-width: 1px;"/><g class="ytick"><text text-anchor="end" x="66.6" y="7.699999999999999" transform="translate(0,415.39)" style="font-family: 'Times New Roman', monospace; font-size: 22px; fill: rgb(105, 105, 105); fill-opacity: 1; white-space: pre; opacity: 1;">0</text></g><g class="ytick"><text text-anchor="end" x="66.6" y="7.699999999999999" style="font-family: 'Times New Roman', monospace; font-size: 22px; fill: rgb(105, 105, 105); fill-opacity: 1; white-space: pre; opacity: 1;" transform="translate(0,364.97)">20</text></g><g class="ytick"><text text-anchor="end" x="66.6" y="7.699999999999999" style="font-family: 'Times New Roman', monospace; font-size: 22px; fill: rgb(105, 105, 105); fill-opacity: 1; white-space: pre; opacity: 1;" transform="translate(0,314.55)">40</text></g><g class="ytick"><text text-anchor="end" x="66.6" y="7.699999999999999" style="font-family: 'Times New Roman', monospace; font-size: 22px; fill: rgb(105, 105, 105); fill-opacity: 1; white-space: pre; opacity: 1;" transform="translate(0,264.12)">60</text></g><g class="ytick"><text text-anchor="end" x="66.6" y="7.699999999999999" style="font-family: 'Times New Roman', monospace; font-size: 22px; fill: rgb(105, 105, 105); fill-opacity: 1; white-space: pre; opacity: 1;" transform="translate(0,213.7)">80</text></g><g class="ytick"><text text-anchor="end" x="66.6" y="7.699999999999999" style="font-family: 'Times New Roman', monospace; font-size: 22px; fill: rgb(105, 105, 105); fill-opacity: 1; white-space: pre; opacity: 1;" transform="translate(0,163.27)">100</text></g><g class="ytick"><text text-anchor="end" x="66.6" y="7.699999999999999" style="font-family: 'Times New Roman', monospace; font-size: 22px; fill: rgb(105, 105, 105); fill-opacity: 1; white-space: pre; opacity: 1;" transform="translate(0,112.85)">120</text></g><g class="ytick"><text text-anchor="end" x="66.6" y="7.699999999999999" style="font-family: 'Times New Roman', monospace; font-size: 22px; fill: rgb(105, 105, 105); fill-opacity: 1; white-space: pre; opacity: 1;" transform="translate(0,62.42)">140</text></g><g class="ytick"><text text-anchor="end" x="66.6" y="7.699999999999999" style="font-family: 'Times New Roman', monospace; font-size: 22px; fill: rgb(105, 105, 105); fill-opacity: 1; white-space: pre; opacity: 0;" transform="translate(0,12)">160</text></g></g><g class="overaxes-above"/></g></g><g class="polarlayer"/><g class="smithlayer"/><g class="ternarylayer"/><g class="geolayer"/><g class="funnelarealayer"/><g class="pielayer"/><g class="iciclelayer"/><g class="treemaplayer"/><g class="sunburstlayer"/><g class="glimages"/><defs id="topdefs-2a2c45"><g class="clips"/><clipPath id="legend2a2c45"><rect width="178" height="416" x="0" y="0"/></clipPath></defs><g class="layer-above"><g class="imagelayer"/><g class="shapelayer"/></g><g class="infolayer"><g class="legend" pointer-events="all" transform="translate(822,12)"><rect class="bg" shape-rendering="crispEdges" width="178" height="416" x="0" y="0" style="stroke: rgb(68, 68, 68); stroke-opacity: 1; fill: rgb(255, 255, 255); fill-opacity: 1; stroke-width: 0px;"/><g class="scrollbox" transform="" clip-path="url(#legend2a2c45)"><g class="groups"><g class="traces" transform="translate(0,14.5)" style="opacity: 1;"><text class="legendtext" text-anchor="start" x="40" y="3.9" style="font-family: 'Times New Roman', monospace; font-size: 10px; fill: rgb(105, 105, 105); fill-opacity: 1; white-space: pre;">Co50 Ni0 Fe50 300C 2h_</text><g class="layers" style="opacity: 1;"><g class="legendfill"/><g class="legendlines"><path class="js-line" d="M5,0h30" style="fill: none; stroke: rgb(46, 145, 229); stroke-opacity: 1; stroke-width: 2px;"/></g><g class="legendsymbols"><g class="legendpoints"/></g></g><rect class="legendtoggle" x="0" y="-9.5" width="172.21875" height="19" style="fill: rgb(0, 0, 0); fill-opacity: 0;"/></g><g class="traces" transform="translate(0,33.5)" style="opacity: 1;"><text class="legendtext" text-anchor="start" x="40" y="3.9" style="font-family: 'Times New Roman', monospace; font-size: 10px; fill: rgb(105, 105, 105); fill-opacity: 1; white-space: pre;">Co50 Ni0 Fe50 300C 2h</text><g class="layers" style="opacity: 1;"><g class="legendfill"/><g class="legendlines"><path class="js-line" d="M5,0h30" style="fill: none; stroke: rgb(46, 145, 229); stroke-opacity: 1; stroke-width: 2px;"/></g><g class="legendsymbols"><g class="legendpoints"/></g></g><rect class="legendtoggle" x="0" y="-9.5" width="172.21875" height="19" style="fill: rgb(0, 0, 0); fill-opacity: 0;"/></g><g class="traces" transform="translate(0,52.5)" style="opacity: 1;"><text class="legendtext" text-anchor="start" x="40" y="3.9" style="font-family: 'Times New Roman', monospace; font-size: 10px; fill: rgb(105, 105, 105); fill-opacity: 1; white-space: pre;">Co0 Ni50 Fe50 400C 2h</text><g class="layers" style="opacity: 1;"><g class="legendfill"/><g class="legendlines"><path class="js-line" d="M5,0h30" style="fill: none; stroke: rgb(225, 95, 153); stroke-opacity: 1; stroke-width: 2px;"/></g><g class="legendsymbols"><g class="legendpoints"/></g></g><rect class="legendtoggle" x="0" y="-9.5" width="172.21875" height="19" style="fill: rgb(0, 0, 0); fill-opacity: 0;"/></g><g class="traces" transform="translate(0,71.5)" style="opacity: 1;"><text class="legendtext" text-anchor="start" x="40" y="3.9" style="font-family: 'Times New Roman', monospace; font-size: 10px; fill: rgb(105, 105, 105); fill-opacity: 1; white-space: pre;">Co25 Ni25 Fe50 600C 2h_elect1</text><g class="layers" style="opacity: 1;"><g class="legendfill"/><g class="legendlines"><path class="js-line" d="M5,0h30" style="fill: none; stroke: rgb(28, 167, 28); stroke-opacity: 1; stroke-width: 2px;"/></g><g class="legendsymbols"><g class="legendpoints"/></g></g><rect class="legendtoggle" x="0" y="-9.5" width="172.21875" height="19" style="fill: rgb(0, 0, 0); fill-opacity: 0;"/></g><g class="traces" transform="translate(0,90.5)" style="opacity: 1;"><text class="legendtext" text-anchor="start" x="40" y="3.9" style="font-family: 'Times New Roman', monospace; font-size: 10px; fill: rgb(105, 105, 105); fill-opacity: 1; white-space: pre;">Co25 Ni25 Fe50 600C 2h_elect2</text><g class="layers" style="opacity: 1;"><g class="legendfill"/><g class="legendlines"><path class="js-line" d="M5,0h30" style="fill: none; stroke: rgb(28, 167, 28); stroke-opacity: 1; stroke-width: 2px;"/></g><g class="legendsymbols"><g class="legendpoints"/></g></g><rect class="legendtoggle" x="0" y="-9.5" width="172.21875" height="19" style="fill: rgb(0, 0, 0); fill-opacity: 0;"/></g><g class="traces" transform="translate(0,109.5)" style="opacity: 1;"><text class="legendtext" text-anchor="start" x="40" y="3.9" style="font-family: 'Times New Roman', monospace; font-size: 10px; fill: rgb(105, 105, 105); fill-opacity: 1; white-space: pre;">Co25 Ni25 Fe50 600C 2h_elect2</text><g class="layers" style="opacity: 1;"><g class="legendfill"/><g class="legendlines"><path class="js-line" d="M5,0h30" style="fill: none; stroke: rgb(28, 167, 28); stroke-opacity: 1; stroke-width: 2px;"/></g><g class="legendsymbols"><g class="legendpoints"/></g></g><rect class="legendtoggle" x="0" y="-9.5" width="172.21875" height="19" style="fill: rgb(0, 0, 0); fill-opacity: 0;"/></g><g class="traces" transform="translate(0,128.5)" style="opacity: 1;"><text class="legendtext" text-anchor="start" x="40" y="3.9" style="font-family: 'Times New Roman', monospace; font-size: 10px; fill: rgb(105, 105, 105); fill-opacity: 1; white-space: pre;">Co33 Ni33 Fe33 800C 2h</text><g class="layers" style="opacity: 1;"><g class="legendfill"/><g class="legendlines"><path class="js-line" d="M5,0h30" style="fill: none; stroke: rgb(251, 13, 13); stroke-opacity: 1; stroke-width: 2px;"/></g><g class="legendsymbols"><g class="legendpoints"/></g></g><rect class="legendtoggle" x="0" y="-9.5" width="172.21875" height="19" style="fill: rgb(0, 0, 0); fill-opacity: 0;"/></g><g class="traces" transform="translate(0,147.5)" style="opacity: 1;"><text class="legendtext" text-anchor="start" x="40" y="3.9" style="font-family: 'Times New Roman', monospace; font-size: 10px; fill: rgb(105, 105, 105); fill-opacity: 1; white-space: pre;">Co50 Ni50 Fe0 300C 6h</text><g class="layers" style="opacity: 1;"><g class="legendfill"/><g class="legendlines"><path class="js-line" d="M5,0h30" style="fill: none; stroke: rgb(218, 22, 255); stroke-opacity: 1; stroke-width: 2px;"/></g><g class="legendsymbols"><g class="legendpoints"/></g></g><rect class="legendtoggle" x="0" y="-9.5" width="172.21875" height="19" style="fill: rgb(0, 0, 0); fill-opacity: 0;"/></g><g class="traces" transform="translate(0,166.5)" style="opacity: 1;"><text class="legendtext" text-anchor="start" x="40" y="3.9" style="font-family: 'Times New Roman', monospace; font-size: 10px; fill: rgb(105, 105, 105); fill-opacity: 1; white-space: pre;">Co50 Ni50 Fe0 300C 6h</text><g class="layers" style="opacity: 1;"><g class="legendfill"/><g class="legendlines"><path class="js-line" d="M5,0h30" style="fill: none; stroke: rgb(218, 22, 255); stroke-opacity: 1; stroke-width: 2px;"/></g><g class="legendsymbols"><g class="legendpoints"/></g></g><rect class="legendtoggle" x="0" y="-9.5" width="172.21875" height="19" style="fill: rgb(0, 0, 0); fill-opacity: 0;"/></g><g class="traces" transform="translate(0,185.5)" style="opacity: 1;"><text class="legendtext" text-anchor="start" x="40" y="3.9" style="font-family: 'Times New Roman', monospace; font-size: 10px; fill: rgb(105, 105, 105); fill-opacity: 1; white-space: pre;">Co0 Ni0 Fe100 400C 6h</text><g class="layers" style="opacity: 1;"><g class="legendfill"/><g class="legendlines"><path class="js-line" d="M5,0h30" style="fill: none; stroke: rgb(34, 42, 42); stroke-opacity: 1; stroke-width: 2px;"/></g><g class="legendsymbols"><g class="legendpoints"/></g></g><rect class="legendtoggle" x="0" y="-9.5" width="172.21875" height="19" style="fill: rgb(0, 0, 0); fill-opacity: 0;"/></g><g class="traces" transform="translate(0,204.5)" style="opacity: 1;"><text class="legendtext" text-anchor="start" x="40" y="3.9" style="font-family: 'Times New Roman', monospace; font-size: 10px; fill: rgb(105, 105, 105); fill-opacity: 1; white-space: pre;">Co0 Ni0 Fe100 400C 6h</text><g class="layers" style="opacity: 1;"><g class="legendfill"/><g class="legendlines"><path class="js-line" d="M5,0h30" style="fill: none; stroke: rgb(34, 42, 42); stroke-opacity: 1; stroke-width: 2px;"/></g><g class="legendsymbols"><g class="legendpoints"/></g></g><rect class="legendtoggle" x="0" y="-9.5" width="172.21875" height="19" style="fill: rgb(0, 0, 0); fill-opacity: 0;"/></g><g class="traces" transform="translate(0,223.5)" style="opacity: 1;"><text class="legendtext" text-anchor="start" x="40" y="3.9" style="font-family: 'Times New Roman', monospace; font-size: 10px; fill: rgb(105, 105, 105); fill-opacity: 1; white-space: pre;">Co25 Ni75 Fe0 600C 6h</text><g class="layers" style="opacity: 1;"><g class="legendfill"/><g class="legendlines"><path class="js-line" d="M5,0h30" style="fill: none; stroke: rgb(182, 129, 0); stroke-opacity: 1; stroke-width: 2px;"/></g><g class="legendsymbols"><g class="legendpoints"/></g></g><rect class="legendtoggle" x="0" y="-9.5" width="172.21875" height="19" style="fill: rgb(0, 0, 0); fill-opacity: 0;"/></g><g class="traces" transform="translate(0,242.5)" style="opacity: 1;"><text class="legendtext" text-anchor="start" x="40" y="3.9" style="font-family: 'Times New Roman', monospace; font-size: 10px; fill: rgb(105, 105, 105); fill-opacity: 1; white-space: pre;">Co25 Ni0 Fe75 800C 6h</text><g class="layers" style="opacity: 1;"><g class="legendfill"/><g class="legendlines"><path class="js-line" d="M5,0h30" style="fill: none; stroke: rgb(117, 13, 134); stroke-opacity: 1; stroke-width: 2px;"/></g><g class="legendsymbols"><g class="legendpoints"/></g></g><rect class="legendtoggle" x="0" y="-9.5" width="172.21875" height="19" style="fill: rgb(0, 0, 0); fill-opacity: 0;"/></g><g class="traces" transform="translate(0,261.5)" style="opacity: 1;"><text class="legendtext" text-anchor="start" x="40" y="3.9" style="font-family: 'Times New Roman', monospace; font-size: 10px; fill: rgb(105, 105, 105); fill-opacity: 1; white-space: pre;">Co25 Ni0 Fe75 800C 6h</text><g class="layers" style="opacity: 1;"><g class="legendfill"/><g class="legendlines"><path class="js-line" d="M5,0h30" style="fill: none; stroke: rgb(117, 13, 134); stroke-opacity: 1; stroke-width: 2px;"/></g><g class="legendsymbols"><g class="legendpoints"/></g></g><rect class="legendtoggle" x="0" y="-9.5" width="172.21875" height="19" style="fill: rgb(0, 0, 0); fill-opacity: 0;"/></g><g class="traces" transform="translate(0,280.5)" style="opacity: 1;"><text class="legendtext" text-anchor="start" x="40" y="3.9" style="font-family: 'Times New Roman', monospace; font-size: 10px; fill: rgb(105, 105, 105); fill-opacity: 1; white-space: pre;">Co25 Ni50 Fe25 300C 12h</text><g class="layers" style="opacity: 1;"><g class="legendfill"/><g class="legendlines"><path class="js-line" d="M5,0h30" style="fill: none; stroke: rgb(235, 102, 59); stroke-opacity: 1; stroke-width: 2px;"/></g><g class="legendsymbols"><g class="legendpoints"/></g></g><rect class="legendtoggle" x="0" y="-9.5" width="172.21875" height="19" style="fill: rgb(0, 0, 0); fill-opacity: 0;"/></g><g class="traces" transform="translate(0,299.5)" style="opacity: 1;"><text class="legendtext" text-anchor="start" x="40" y="3.9" style="font-family: 'Times New Roman', monospace; font-size: 10px; fill: rgb(105, 105, 105); fill-opacity: 1; white-space: pre;">Co100 Ni0 Fe0 400C 12h</text><g class="layers" style="opacity: 1;"><g class="legendfill"/><g class="legendlines"><path class="js-line" d="M5,0h30" style="fill: none; stroke: rgb(81, 28, 251); stroke-opacity: 1; stroke-width: 2px;"/></g><g class="legendsymbols"><g class="legendpoints"/></g></g><rect class="legendtoggle" x="0" y="-9.5" width="172.21875" height="19" style="fill: rgb(0, 0, 0); fill-opacity: 0;"/></g><g class="traces" transform="translate(0,318.5)" style="opacity: 1;"><text class="legendtext" text-anchor="start" x="40" y="3.9" style="font-family: 'Times New Roman', monospace; font-size: 10px; fill: rgb(105, 105, 105); fill-opacity: 1; white-space: pre;">Co0 Ni25 Fe75 600C 12h</text><g class="layers" style="opacity: 1;"><g class="legendfill"/><g class="legendlines"><path class="js-line" d="M5,0h30" style="fill: none; stroke: rgb(0, 160, 139); stroke-opacity: 1; stroke-width: 2px;"/></g><g class="legendsymbols"><g class="legendpoints"/></g></g><rect class="legendtoggle" x="0" y="-9.5" width="172.21875" height="19" style="fill: rgb(0, 0, 0); fill-opacity: 0;"/></g><g class="traces" transform="translate(0,337.5)" style="opacity: 1;"><text class="legendtext" text-anchor="start" x="40" y="3.9" style="font-family: 'Times New Roman', monospace; font-size: 10px; fill: rgb(105, 105, 105); fill-opacity: 1; white-space: pre;">Co0 Ni100 Fe0 800C 12h 2</text><g class="layers" style="opacity: 1;"><g class="legendfill"/><g class="legendlines"><path class="js-line" d="M5,0h30" style="fill: none; stroke: rgb(251, 0, 209); stroke-opacity: 1; stroke-width: 2px;"/></g><g class="legendsymbols"><g class="legendpoints"/></g></g><rect class="legendtoggle" x="0" y="-9.5" width="172.21875" height="19" style="fill: rgb(0, 0, 0); fill-opacity: 0;"/></g><g class="traces" transform="translate(0,356.5)" style="opacity: 1;"><text class="legendtext" text-anchor="start" x="40" y="3.9" style="font-family: 'Times New Roman', monospace; font-size: 10px; fill: rgb(105, 105, 105); fill-opacity: 1; white-space: pre;">Co75 Ni25 Fe0 300C 24h</text><g class="layers" style="opacity: 1;"><g class="legendfill"/><g class="legendlines"><path class="js-line" d="M5,0h30" style="fill: none; stroke: rgb(252, 0, 128); stroke-opacity: 1; stroke-width: 2px;"/></g><g class="legendsymbols"><g class="legendpoints"/></g></g><rect class="legendtoggle" x="0" y="-9.5" width="172.21875" height="19" style="fill: rgb(0, 0, 0); fill-opacity: 0;"/></g><g class="traces" transform="translate(0,375.5)" style="opacity: 1;"><text class="legendtext" text-anchor="start" x="40" y="3.9" style="font-family: 'Times New Roman', monospace; font-size: 10px; fill: rgb(105, 105, 105); fill-opacity: 1; white-space: pre;">Co75 Ni25 Fe0 300C 24h</text><g class="layers" style="opacity: 1;"><g class="legendfill"/><g class="legendlines"><path class="js-line" d="M5,0h30" style="fill: none; stroke: rgb(252, 0, 128); stroke-opacity: 1; stroke-width: 2px;"/></g><g class="legendsymbols"><g class="legendpoints"/></g></g><rect class="legendtoggle" x="0" y="-9.5" width="172.21875" height="19" style="fill: rgb(0, 0, 0); fill-opacity: 0;"/></g><g class="traces" transform="translate(0,394.5)" style="opacity: 1;"><text class="legendtext" text-anchor="start" x="40" y="3.9" style="font-family: 'Times New Roman', monospace; font-size: 10px; fill: rgb(105, 105, 105); fill-opacity: 1; white-space: pre;">Co50 Ni25 Fe25 400C 24h</text><g class="layers" style="opacity: 1;"><g class="legendfill"/><g class="legendlines"><path class="js-line" d="M5,0h30" style="fill: none; stroke: rgb(178, 130, 141); stroke-opacity: 1; stroke-width: 2px;"/></g><g class="legendsymbols"><g class="legendpoints"/></g></g><rect class="legendtoggle" x="0" y="-9.5" width="172.21875" height="19" style="fill: rgb(0, 0, 0); fill-opacity: 0;"/></g><g class="traces" transform="translate(0,413.5)" style="opacity: 1;"><text class="legendtext" text-anchor="start" x="40" y="3.9" style="font-family: 'Times New Roman', monospace; font-size: 10px; fill: rgb(105, 105, 105); fill-opacity: 1; white-space: pre;">Co0 Ni75 Fe25 600C 24h</text><g class="layers" style="opacity: 1;"><g class="legendfill"/><g class="legendlines"><path class="js-line" d="M5,0h30" style="fill: none; stroke: rgb(108, 124, 50); stroke-opacity: 1; stroke-width: 2px;"/></g><g class="legendsymbols"><g class="legendpoints"/></g></g><rect class="legendtoggle" x="0" y="-9.5" width="172.21875" height="19" style="fill: rgb(0, 0, 0); fill-opacity: 0;"/></g><g class="traces" transform="translate(0,432.5)" style="opacity: 1;"><text class="legendtext" text-anchor="start" x="40" y="3.9" style="font-family: 'Times New Roman', monospace; font-size: 10px; fill: rgb(105, 105, 105); fill-opacity: 1; white-space: pre;">Co75 Ni0 Fe25 800C 24h</text><g class="layers" style="opacity: 1;"><g class="legendfill"/><g class="legendlines"><path class="js-line" d="M5,0h30" style="fill: none; stroke: rgb(167, 119, 241); stroke-opacity: 1; stroke-width: 2px;"/></g><g class="legendsymbols"><g class="legendpoints"/></g></g><rect class="legendtoggle" x="0" y="-9.5" width="172.21875" height="19" style="fill: rgb(0, 0, 0); fill-opacity: 0;"/></g><g class="traces" transform="translate(0,451.5)" style="opacity: 1;"><text class="legendtext" text-anchor="start" x="40" y="3.9" style="font-family: 'Times New Roman', monospace; font-size: 10px; fill: rgb(105, 105, 105); fill-opacity: 1; white-space: pre;">Co75 Ni0 Fe25 800C 24h</text><g class="layers" style="opacity: 1;"><g class="legendfill"/><g class="legendlines"><path class="js-line" d="M5,0h30" style="fill: none; stroke: rgb(167, 119, 241); stroke-opacity: 1; stroke-width: 2px;"/></g><g class="legendsymbols"><g class="legendpoints"/></g></g><rect class="legendtoggle" x="0" y="-9.5" width="172.21875" height="19" style="fill: rgb(0, 0, 0); fill-opacity: 0;"/></g></g></g><rect class="scrollbar" rx="20" ry="3" width="0" height="0" x="0" y="0" style="fill: rgb(128, 139, 164); fill-opacity: 1;"/></g><g class="g-gtitle"/><g class="g-xtitle" transform="translate(0,-9.074999999999989)"><text class="xtitle" x="450" y="499.60625" text-anchor="middle" style="font-family: 'Times New Roman', monospace; font-size: 26px; fill: rgb(105, 105, 105); opacity: 1; font-weight: normal; white-space: pre;">Overpotential, (V) - iR<tspan style="font-size:70%" dy="0.3em">u</tspan><tspan dy="-0.21em"></tspan></text></g><g class="g-ytitle" transform="translate(26.5283203125,0)"><text class="ytitle" transform="rotate(-90,0.39374999999999716,220)" x="0.39374999999999716" y="220" text-anchor="middle" style="font-family: 'Times New Roman', monospace; font-size: 26px; fill: rgb(105, 105, 105); opacity: 1; font-weight: normal; white-space: pre;">Current (mA/cm<tspan style="font-size:70%" dy="-0.6em">2</tspan><tspan dy="0.42em"></tspan>)</text></g></g></svg>