<svg class="main-svg" xmlns="http://www.w3.org/2000/svg" xmlns:xlink="http://www.w3.org/1999/xlink" width="500" height="500" style="" viewBox="0 0 500 500"><rect x="0" y="0" width="500" height="500" style="fill: rgb(255, 255, 255); fill-opacity: 1;"/><defs id="defs-718000"><g class="clips"><clipPath id="clip718000xyplot" class="plotclip"><rect width="422" height="416"/></clipPath><clipPath class="axesclip" id="clip718000x"><rect x="78" y="0" width="422" height="500"/></clipPath><clipPath class="axesclip" id="clip718000y"><rect x="0" y="12" width="500" height="416"/></clipPath><clipPath class="axesclip" id="clip718000xy"><rect x="78" y="12" width="422" height="416"/></clipPath></g><g class="gradients"/><g class="patterns"/></defs><g class="bglayer"><rect class="bg" x="78" y="12" width="422" height="416" style="fill: rgb(0, 0, 0); fill-opacity: 0; stroke-width: 0;"/></g><g class="layer-below"><g class="imagelayer"/><g class="shapelayer"/></g><g class="cartesianlayer"><g class="subplot xy"><g class="layer-subplot"><g class="shapelayer"/><g class="imagelayer"/></g><g class="minor-gridlayer"><g class="x"/><g class="y"/></g><g class="gridlayer"><g class="x"/><g class="y"/></g><g class="zerolinelayer"><path class="yzl zl crisp" transform="translate(0,415.39)" d="M78,0h422" style="stroke: rgb(128, 128, 128); stroke-opacity: 1; stroke-width: 1px;"/></g><path class="xlines-below"/><path class="ylines-below"/><g class="overlines-below"/><g class="xaxislayer-below"/><g class="yaxislayer-below"/><g class="overaxes-below"/><g class="plot" transform="translate(78,12)" clip-path="url(#clip718000xyplot)"><g class="scatterlayer mlayer"><g class="trace scatter trace06036e" style="stroke-miterlimit: 2; opacity: 1;"><g class="fills"/><g class="errorbars"/><g class="lines"><path class="js-line" d="M-202.91,402.93L-154.76,402.89L-153.93,402.87L-154.97,402.88L-26.72,402.83L-25.75,402.85L-26.61,402.84L32.92,402.79L32.15,402.78L33.92,402.79L152.87,401.32L153.47,401.25L152.68,401.21L157.88,400.75L157.09,400.67L164.78,399.53L163.76,399.4L169.36,398.61L168.54,398.47L169.16,398.31L176.75,395.92L176.5,395.71L179.86,394.54L179.88,394.28L185.22,391.53L184.92,391.22L187.16,390.27L186.96,389.96L189.12,388.94L189.5,388.6L191.25,387.15L191.4,386.79L193.1,385.63L193.9,385.25L195.04,384.45L195.05,384.03L197.18,383.2L196.54,382.77L197.08,382.34L199.38,380.57L198.98,380.11L200.88,379.66L200.66,379.18L200.96,378.72L202.86,377.27L204.07,376.78L202.79,376.29L204.66,375.79L204.35,375.28L205.6,374.78L204.62,374.26L206.2,373.75L207.34,372.69L207.06,372.17L208.28,371.09L208.27,370.63L209.98,369.77L208.88,369.24L210.83,368.13L211.07,367.56L211.01,367.01L212.35,366.44L213.37,365.27L212.87,364.69L214.95,363.49L214.18,362.88L216.79,360.47L216.46,359.84L218.99,358.62L218.35,357.98L218.56,356.72L220.65,356.08L219.96,354.14L222.27,353.54L221.68,352.84L222.9,352.18L222.3,351.53L224.24,350.92L224.09,349.52L225.31,348.85L225.99,346.79L225.75,346.1L227.28,344.78L228.21,344.09L227.36,343.43L228.78,342.79L229.86,341.44L229.68,340.77L231.65,338.78L231.24,338.08L233.11,336.12L233.48,335.39L233.4,334.74L234.95,334.05L235.76,332.58L235.02,331.88L237.53,330.44L236.78,329.67L236.84,328.96L237.67,328.27L238.79,326.78L238.7,326.01L241.18,323.75L240.53,322.95L240.71,322.21L242.27,321.44L242.77,320.64L242.19,319.82L242.32,319.08L243.66,318.32L244.64,316.75L243.91,316L245.58,315.23L245.38,314.39L246.39,313.56L245.93,312.69L247.19,311.06L247.16,310.18L249.42,307.74L248.97,306.87L249.14,306.03L250.34,305.21L250.34,304.38L251.75,303.48L250.75,302.6L251.62,301.74L252.76,298.22L254.03,297.37L255.31,293.82L255.87,292.95L255.98,291.15L257.09,290.28L258.38,289.39L257.83,288.42L257.93,286.65L259.24,285.8L258.93,284.88L259.55,283.96L259.66,283.08L260.83,282.17L261.46,280.25L261.23,279.3L262.36,277.5L263.2,276.57L263.41,274.74L263.83,273.83L265.66,272.9L263.85,271.92L265.38,271L265.4,270.08L266.73,269.16L266.04,268.25L267.29,267.38L266.94,266.47L268.04,265.53L267.84,264.53L267.67,263.6L268.45,262.62L269.93,261.55L269.51,260.6L270.11,258.76L271.58,257.81L271.32,254.78L273.18,253.81L273.06,251.87L273,250.92L274.54,248.99L274.24,248.01L276.27,244.14L276.24,243.16L277.35,241.14L277.35,240.05L277.4,239L278.34,237.96L279.49,235.91L279.32,234.95L279.58,233.99L280.86,232.91L280.82,229.59L282.24,228.58L282.49,226.39L282.05,225.38L283.88,223.41L284.07,222.39L284.07,221.38L285.19,220.37L285.64,219.21L285.01,218.03L285.71,215.78L287.32,214.68L287.52,213.66L286.11,212.59L288.05,211.59L287.61,210.44L289.02,209.26L287.87,207.97L290.83,204.5L289.94,203.31L291.23,202.32L291.15,201.32L292.37,200.17L291.22,199.01L292.1,196.6L294.1,195.58L292.5,193.16L293.94,192L295.65,189.79L294.51,188.66L296.42,184.71L295.72,183.58L296.5,182.57L296,181.23L298.24,179.89L297.2,178.63L299.2,173.76L298.36,172.6L300.29,170.13L300.38,168.97L300.63,166.9L301.53,165.68L302.03,164.44L301.46,163.2L303.89,159.53L302.68,158.31L304.01,157.24L304.12,156.15L305.15,155.01L304.73,153.85L304.95,152.72L306.02,151.61L305.86,147.49L306.93,146.32L307.88,145.08L307.88,143.73L307.42,141.44L309.19,140.07L309.2,136.14L310.14,135.02L309.86,133.48L310.81,132.27L310.6,131.21L311.33,130L312.12,128.64L311.54,127.17L312.18,124.94L314.14,123.67L312.73,122.49L312.81,121.31L315.37,117.69L314.42,116.63L316.15,112.54L316.28,111.31L316.54,110.02L317.82,108.92L316.98,107.67L317.94,106.42L317.39,105.29L318.94,104.03L318.53,102.73L319.38,101.5L318.58,100.21L319.78,99.17L321.24,96.41L320.04,94.97L320.45,93.91L321.75,92.67L321.07,90.27L322.11,89.01L323.67,86.36L322.78,85.05L325.36,81.35L324.33,80.3L324.39,79.14L325.68,77.79L326.26,76.42L325.8,74.91L326.03,72.12L326.97,70.46L326.88,69.09L327.73,67.97L327.55,66.76L329.23,65.41L328.06,64.57L329.05,63.81L327.87,66.84L328,68.78L328.35,70.41L327.21,71.64L327.21,73.47L325.96,74.99L327.07,76.45L326.28,78.01L325.01,81.3L326.28,83.11L324.87,85.87L324.55,87.33L324.78,88.85L324.2,90.18L323.3,91.57L323.05,93.37L322.89,97.68L321.78,99.44L321.55,104.02L321.17,105.45L320.14,106.96L321.32,108.6L319.01,111.25L319.75,112.76L317.91,117.33L318.19,118.73L318.94,121.76L317.67,123.06L316.23,124.45L316.48,125.83L316.68,128.76L315.4,129.97L315.86,131.57L315.06,133.32L315.1,134.54L314.08,135.85L314.06,140.27L313.4,141.48L312.22,142.8L313.4,144.17L311.06,149.67L311.48,150.93L310.29,152.24L310.66,153.61L309.68,155.08L310.48,156.4L308.74,158.87L309.39,160.27L308.33,161.54L308.55,162.8L307.25,164.1L307.72,165.54L307.11,166.84L307.78,168.2L305.77,169.55L305.95,171.18L305.94,172.53L306.78,173.7L305.1,175L305.27,176.31L302.86,182.87L304.36,184.08L302.19,186.45L301.79,187.77L302.18,189.12L300.94,190.47L300,196.55L298.32,197.85L299.87,199.28L298.78,200.52L297.37,203.03L298.4,204.31L297.47,206.75L295.39,208L296.63,209.22L296.02,210.44L295.73,211.58L294.13,212.78L294.65,214L294.3,215.21L295.06,216.3L293.15,217.48L293.23,219.99L293.57,221.24L292.08,223.61L292.51,224.72L292.1,225.88L290.73,227.08L290.3,229.34L291.47,230.52L289.57,231.65L289.63,232.87L288.81,234.04L289.91,235.18L287.11,238.65L288.11,239.8L288.03,240.86L286.93,242.01L285.35,243.2L286.31,244.38L284.82,246.63L284.85,247.79L285.02,250.04L284.04,251.08L283.1,252.2L283.82,253.26L281.48,256.39L281.53,257.53L280.83,259.74L279.49,260.81L280.34,261.98L279.32,263.07L279.74,264.08L278.48,265.09L279.29,266.14L277.82,267.17L279.15,268.16L276.54,269.21L277.25,271.39L275.32,272.39L276.12,273.43L274.39,274.47L275.74,275.52L275.09,276.55L273.19,280.52L273.8,281.48L272.04,282.49L272.12,283.51L271.41,286.52L270.04,287.57L270.46,288.57L269.67,289.49L269.54,290.44L268.38,291.4L269.08,292.35L268.66,293.27L266.64,295.2L266.53,296.13L267.45,297.07L266.25,298.01L265.18,299.92L265.77,300.86L263.41,303.63L264.16,304.52L262.77,305.37L263.16,306.27L261.95,307.21L262.51,308.15L260.57,309.91L260.39,310.81L260.56,312.57L259.73,313.41L258.76,314.26L258.95,315.2L258.16,316.03L258.67,316.88L256.65,317.73L256.63,318.62L257.27,319.49L256.53,320.3L255.13,321.99L255.67,322.81L253.27,325.31L253.8,326.17L251.21,328.51L252.11,329.34L251.34,330.91L249.76,331.7L249.72,333.32L249.4,334.08L248.22,335.6L248.26,336.36L246.51,338.62L246.66,339.38L244.26,341.55L244.8,342.31L244.02,343.69L242.52,344.43L243.18,345.16L242.25,345.86L241.86,346.52L240.02,347.24L240.71,348.68L240.55,349.37L238.76,350.04L239.77,350.76L237.25,353.4L237.68,354.07L237.1,354.71L235.51,355.33L235.62,356.66L234.36,357.3L234.63,357.92L233.29,358.54L233.96,359.2L232.88,359.79L232.63,360.38L231.13,360.97L231.53,362.19L230.72,362.76L229.47,363.34L230.11,363.97L229.48,365.16L227.02,365.72L227.96,366.3L227.58,366.89L228.1,367.43L226.11,368.52L225.68,369.08L225.87,369.62L224.41,370.11L223.1,372.26L221.7,372.78L221.95,373.82L220.76,374.3L217.27,377.69L217.79,378.17L215.39,379.55L216.09,379.99L214,380.84L214.32,381.29L213.68,381.71L211.4,382.52L212.3,382.96L212,383.38L210.73,383.79L210.49,384.18L209.27,384.59L210.2,385L208.84,385.36L208.75,385.72L207.68,386.09L208.05,386.49L206.85,386.83L206.82,387.17L205.39,387.53L205.78,387.93L204.75,388.28L203.46,388.95L203.96,389.29L202.69,389.45L200.59,390.69L201.81,390.99L198.38,391.9L199.18,392.19L198.19,392.48L196.54,393.57L195.38,393.84L192.22,395.33L192.43,395.57L187.56,397.08L188.71,397.27L183.61,398.56L184.05,398.72L183.69,398.88L176.94,400.43L177.29,400.55L169.46,401.73L171.04,401.8L153.95,403.12L154.1,403.15L154.06,403.17L94.43,403.64L94.59,403.64L92.97,403.64L73.83,403.66L73.57,403.66L-173.76,403.98L-51.38,403.03L-50.6,403.04L152.33,402.32L152.06,402.29L163.22,401.29L164.16,401.22L164,401.14L164.46,401.06L165.79,400.98L177.41,398.29L177.86,398.12L177.4,397.95L178.95,397.78L179.13,397.59L183.97,395.98L183.38,395.74L188.27,394.03L188.07,393.77L191.16,392.67L190.9,392.39L191.33,392.09L191.01,391.8L192.86,391.5L193.62,390.56L194.9,390.23L194.76,389.91L195.8,389.57L195.23,389.25L196.38,388.9L199.26,387.13L199.31,386.76L199.38,386.38L200.41,386L203.06,384.04L203.37,383.64L203.54,382.8L205.42,382.37L205.28,381.95L206.21,381.51L205.32,381.07L207.15,380.64L207.72,379.27L207.84,378.83L209.7,378.35L209.19,377.89L209.57,377.4L212.03,375.94L211.2,375.45L213.57,373.92L213.11,373.41L213.65,372.88L215.32,372.38L215.39,370.77L216.78,370.13L219.33,367.25L218.6,366.65L221.39,364.98L220.88,364.39L222.01,363.23L223.59,362.63L222.78,362.03L223.86,361.39L224.83,358.93L225,358.32L226.22,357.11L226.47,356.47L227.01,355.83L228.66,355.21L228.64,353.25L229.55,352.6L231.12,351.22L230.7,350.57L232.44,348.58L232.28,347.88L234.95,345.86L234.14,345.09L235.79,344.44L235.35,343.73L236.13,343L235.81,342.25L238.18,340.16L237.6,339.39L238.92,338.68L238.18,337.98L240.18,337.24L239.46,336.46L241.91,334.21L242.32,333.43L241.42,332.65L242.76,331.82L242.34,330.92L243.65,330.12L243.1,329.34L244.53,328.58L245.4,325.4L246.09,324.63L247.19,322.96L247.18,322.15L248.53,319.75L248.21,318.94L248.83,318.15L250.73,317.31L250.2,315.49L250.93,314.67L252.46,312.06L251.75,311.24L254.36,309.56L254.08,308.67L254.39,306.97L255.54,306.1L255.08,305.21L256.19,304.31L256.31,303.44L257.42,302.52L257.23,301.6L257.91,300.67L257.19,299.8L258.44,298.92L259.76,295.3L261.56,294.38L261.17,292.54L261.42,291.61L262.21,289.69L262.34,288.77L263.68,286.95L264.11,285.93L263.79,284.99L265.03,284.1L265.11,283.14L266.43,282.19L265.56,281.27L265.74,280.3L267.3,279.33L267.14,278.34L267,276.41L268.89,275.26L269.22,273.21L268.4,272.26L270.16,271.33L270.37,270.34L270.73,268.28L271.36,267.32L271.97,266.23L271.31,265.11L273.74,260.12L273.81,259.17L275.7,258.19L274.61,257.15L274.81,256.12L276.06,255.12L276.59,251.86L276.13,250.88L277.86,249.95L278.06,248.89L278.77,245.8L279.96,244.76L280.27,242.49L280.28,241.43L281.58,240.38L281.14,239.3L283.49,235.08L283.11,234L283.13,232.94L284.19,231.83L284.98,230.67L284.69,229.46L285.1,227.31L286.54,226.2L285.33,225.13L285.92,224.07L287.72,220.84L287.42,219.75L289.07,216.48L289.27,215.39L291.25,209.64L291.22,208.52L292.88,207.37L291.43,206.31L292.72,205.23L292.59,204.04L294,202.83L293.38,201.62L295.88,195.89L295.23,194.76L296.56,193.65L296.69,192.55L296.58,191.39L297.46,190.23L297.34,189.08L298.74,187.98L298.24,186.75L299.16,185.56L299.9,182.89L299.23,181.65L301.83,175.92L301.49,174.85L303.06,173.68L302.31,172.36L302.92,170.15L303.79,168.92L304.31,167.71L303.81,166.34L304.49,163.81L305.79,162.64L305.25,161.41L305.57,160.27L305.86,159.05L307.42,157.97L306.63,156.63L307.18,155.24L307.72,152.94L308.73,151.72L307.92,149.31L310.57,147.92L309.28,144.24L311.23,143.1L310.98,141.81L311.59,140.54L312.46,138.4L313.1,136.98L312.8,134.15L312.91,132.82L314.6,131.61L314.65,130.23L314.58,128.15L315.33,126.92L316.51,121.64L317.23,120.24L317.6,118.98L316.49,117.75L318.05,115.43L318.07,114.15L318.55,112.7L319.83,111.7L319.22,107.91L320.91,106.68L320.17,105.32L321.53,104.2L320.59,103.02L321.3,101.44L322.55,99.95L322.43,98.51L323.21,96L324.15,94.84L324.26,93.62L323.56,92.18L325.28,88.19L324.85,86.99L325.45,85.73L324.98,84.42L327.06,83.16L325.73,81.82L327.64,80.71L327.14,79.53L328.6,78.25L328.21,76.69L327.12,75.28L327.69,74.01L329.86,72.84L328.56,71.57L330.99,70.34L329.14,71.13L329.3,72.61L329.35,74.19L328.47,75.68L327.57,78.92L328.25,80.47L327.23,81.97L327.82,83.28L326.49,84.96L327.23,86.42L325.83,87.74L326.2,89.49L324.91,91.32L325.59,92.52L325.16,95.42L324.33,96.9L323.72,101.47L322.7,102.95L323.62,104.46L322.62,105.8L321.95,108.53L320.91,109.61L322,110.68L320.44,112.16L320.37,115.07L320.58,116.42L317.47,126.41L317.74,127.77L318.21,129.19L316.83,130.61L316.77,131.9L315.89,133.5L316.75,134.9L316.32,136.25L314.95,139.09L315.53,140.35L314.41,141.57L314.4,142.92L313.42,144.49L314.07,145.88L312.21,149.75L312.36,151.04L312.66,152.27L311.31,153.59L310.8,159.06L309.03,160.39L309.99,161.77L309.68,163.11L308.24,168.34L308.72,169.64L307.02,170.92L306.88,172.31L307.32,173.74L306.79,175.05L305.29,177.49L306.42,178.57L303.87,183.88L305.03,185.24L303.36,186.43L303.28,187.62L302.44,191.45L302.63,192.66L300.46,193.99L302.23,195.23L300.63,196.46L300.47,197.69L299.5,198.92L300.86,200.28L299.32,202.59L299.05,203.84L298.37,205.06L298.72,206.27L297.18,210.12L297.31,211.26L294.97,215.05L296.09,216.25L294.84,217.29L295.29,218.42L293.36,219.68L294.73,220.89L292.89,223.19L292.85,224.42L292.44,226.87L291.37,228L290.87,230.28L291.68,231.39L289.08,235L289.87,236.22L287.9,239.48L288.56,240.64L287.28,241.79L287.54,242.77L286.28,244.92L286.39,246.02L285.63,248.21L285.02,249.39L285.66,250.48L284.23,251.53L283.23,253.78L283.81,254.84L282.39,255.84L282.9,256.96L281.83,258.08L282.78,259.14L280.98,260.05L281.64,261.08L280.13,262.21L281.12,263.3L279.66,264.38L280,265.4L278.43,266.52L278.67,267.59L278.66,268.59L277.35,269.61L277.11,271.58L277.97,272.58L275.1,275.77L276.02,276.79L273.63,279.81L274.35,280.84L274.12,281.78L272.81,282.79L272.39,284.69L272.61,285.59L269.88,287.6L271.11,288.63L271.45,289.6L269.83,290.53L267.86,292.49L269.34,293.46L268.98,294.38L267.51,295.34L268.25,297.21L267.15,298.13L266.25,299.06L266.48,300.04L263.98,303.79L264.9,304.72L262.67,307.4L262.9,308.32L262.2,310.05L261.29,310.93L261.4,311.86L260.58,312.71L258.9,314.42L259.4,315.32L258.88,317.07L257.61,317.94L257.5,319.65L257.65,320.48L255.85,321.27L255.78,322.13L255.96,323.74L254.33,324.55L253.5,326.23L254.61,327.04L252.25,328.68L252.39,329.51L252.43,330.31L251.66,331.05L250.31,333.43L250.06,334.14L248.65,335.71L248.64,336.47L248.46,337.22L247.07,337.96L246.55,339.48L246.81,340.2L245.04,342.4L245.21,343.11L242.76,345.28L243.92,345.98L242.13,347.37L240.83,348.1L241.72,348.82L240.91,349.47L239.46,350.83L240.1,351.52L237.04,354.17L237.67,354.82L236.02,356.09L235.83,356.74L235.38,357.98L233.53,358.59L234.63,359.23L233.9,359.84L231.63,361.66L232,362.28L231.3,363.46L229.87,364.06L229.94,365.24L228.61,365.8L227.3,368.03L226.22,368.57L226.64,369.15L225.64,369.71L225.95,370.24L223.98,370.76L224.48,371.85L223.55,372.36L221.51,373.89L222.17,374.36L220.45,374.84L220.85,375.33L220.74,375.87L218.16,377.28L218.62,377.77L218.54,378.25L216.25,380.04L215.8,380.45L213.96,380.88L214.27,381.32L213.93,381.78L214.26,382.18L212.32,382.61L212.71,383.45L211.24,383.85L209.95,385.39L208.49,385.74L207.99,386.51L208.07,386.91L205.56,387.97L206.14,388.34L204.67,388.99L202.96,389.13L203.73,390.08L201.1,390.4L202.31,390.72L201.81,391.02L201.08,391.34L194.13,394.87L193,395.11L192.78,395.58L192.33,395.81L188.22,396.88L189.39,397.08L181.94,399.35L182.45,399.5L174.95,400.88L175.37,400.99L144.16,403.47L143.53,403.47L52.21,403.69L50.3,403.68L50.7,403.69L22.18,403.72L21.24,403.72L21.88,403.72L-172.84,403.95L-9.05,403.06L-7.7,403.06L153.79,402.35L153.79,402.32L154.63,402.3L158.37,402.01L158.21,401.97L160.04,401.93L159.42,401.87L162.44,401.54L164.23,401.46L172.25,400.14L172.24,400.05L173.37,399.92L176.02,399L177.46,398.85L182.72,397.32L182.49,397.14L182.59,396.94L189.53,394.47L189.35,394.22L189.07,393.97L191.4,392.88L192.43,392.61L195.02,391.42L194.49,391.11L198.31,389.51L198.16,389.17L198.64,388.48L200.41,388.12L199.62,387.77L200.39,387.4L200.76,387.04L202.26,386.67L201.93,386.3L201.76,385.91L204.77,384.34L204.61,383.94L206.44,382.67L206.05,382.25L208.55,380.94L208.23,380.5L210.19,380.05L209.68,379.59L210.61,379.11L209.95,378.64L210.76,378.18L212.75,377.21L212.21,376.71L214.38,375.23L213.68,374.72L216.9,372.66L216.54,372.13L218.25,370.52L217.91,369.76L220.57,368.11L219.94,367.56L222.76,365.85L221.94,365.26L222.48,364.7L224.5,364.11L223.64,363.52L224.4,362.89L224.07,362.32L225.86,361.74L225.55,360.51L226.83,359.91L228.7,357.37L228.69,356.76L230.08,356.11L229.66,355.43L230.75,354.79L230.09,354.16L232.03,352.83L231.85,352.18L233.43,350.18L233.74,349.47L235.13,348.13L235.1,347.38L235.17,345.98L236.32,345.33L237.2,344.61L236.71,343.88L236.87,343.16L238.3,342.48L238.33,341.76L239.84,341L237.94,340.25L239.81,339.54L240.87,338.01L240.57,337.25L242.67,335.03L242.3,334.24L242.77,333.52L244.33,332.77L243.84,331.98L244.71,331.16L244,330.41L245.97,329.63L245.44,327.23L247.13,326.47L248.42,324.85L247.28,324.03L249.58,322.48L249.82,321.63L248.94,320.76L250.85,319.95L250.88,319.12L251.9,318.25L251.03,317.37L251.3,316.56L251.49,315.72L253.82,314.86L252.84,314L253.1,313.17L253.74,312.37L255.72,311.48L254.21,310.56L255.69,309.7L255.34,308.89L256.85,308.02L256.29,306.17L257.18,305.3L258.51,303.54L258.05,302.67L258.23,301.82L259.93,300.94L260.05,299.03L260.03,298.1L261.67,296.25L261.6,295.32L261.45,294.44L262.1,293.53L263.91,292.62L262.7,291.6L263.99,290.69L263.22,289.77L265.11,288.82L264.66,287.85L267.14,283.15L266.39,281.94L267.95,280.74L267.82,279.7L268.42,277.76L269.09,276.81L270.14,275.82L269.79,274.8L270.66,272.75L271.39,271.74L271.23,269.7L271.82,268.72L273.47,267.8L273.11,266.75L273.69,265.77L273,264.81L274.63,263.82L274.01,262.74L275.22,261.73L274.75,260.69L276.27,259.69L276.36,258.66L275.97,257.63L276.85,256.66L276.86,255.63L277.75,254.56L277.37,253.46L278.11,252.39L278.26,251.41L279.48,250.38L279.56,247.24L280.57,246.22L280.58,245.1L281.4,243.99L280.15,242.92L281.88,241.84L283.51,240.81L281.59,239.76L284.15,236.61L284.09,235.42L285.81,230.94L285.21,229.88L286.68,227.73L287.68,226.57L287,225.41L287.6,224.27L290.64,215.24L290.41,214.12L291.69,212.98L291.62,211.86L292.09,209.47L293.25,208.27L292.56,207.07L293.51,205.85L294.34,202.41L293.59,201.32L295.94,199.07L296.04,197.96L295.88,195.58L297.08,194.47L297.72,192.06L297.21,190.81L299.15,188.4L299.1,187.18L298.5,186.05L299.51,184.95L300.47,182.51L299.94,181.23L301.99,178.99L301.53,177.82L301.82,176.64L301.3,175.51L303.86,174.37L303.56,173.11L302.55,171.78L303.94,170.52L303.73,169.18L305.28,168.03L304.26,166.8L304.68,165.59L305.25,164.44L306.9,163.28L306.21,162.15L306.53,160.98L306.51,159.72L308.03,158.5L307.34,154.83L309.25,153.5L308.89,150.95L309.47,149.8L310.76,147.3L310.87,146.13L311.28,143.59L312.05,142.22L312.05,138.47L313.57,137.38L313.68,135.01L313.96,133.8L315.28,132.54L315.06,131.06L314.07,129.8L315.36,128.58L316.25,125.88L316.48,124.64L316.12,123.43L317.46,122.21L317.88,121L317.35,119.33L319.22,111.92L319.49,110.66L320.98,108.16L320.08,106.96L320.76,104.47L321.17,102.85L321.87,101.34L321.62,100.02L322.69,97.58L322.6,96.09L325.9,86.63L326.43,85.26L325.73,83.89L326.26,82.54L327.44,80.12L326.9,78.89L327.65,76.21L328.34,74.6L328.73,72.27L328.98,71.25L329.6,70.55L328.81,71.86L329.27,73.52L327.58,78.32L328.21,79.48L326.68,81.16L326.37,82.67L327.23,85.51L326.44,87.04L325.41,88.8L326.11,90.36L324.47,93.2L323.9,94.74L324.75,96.18L324.38,97.74L323.24,102.2L323.71,103.72L321.61,106.28L321.7,107.77L322.16,110.73L319.82,111.97L320.56,113.44L319.99,114.99L321.06,116.28L319.45,117.66L318.96,118.91L319.62,120.43L319.31,123.31L317.87,124.52L317.34,125.74L318.29,127.17L318.33,128.51L316.82,129.93L315.54,131.42L316.4,133L316.97,134.25L315.93,135.58L314.9,138.62L315.59,139.78L314.57,142.34L313.61,143.95L314.35,145.41L313.39,146.71L312.41,147.98L312.69,149.34L312.93,150.71L311.7,151.95L310.56,153.34L311.05,154.66L311.77,155.96L311.3,157.25L309.82,158.58L310.12,159.93L308.24,166.63L307.63,167.95L307.96,169.3L307.38,170.67L307.46,173.18L305.89,174.45L305.4,175.67L306.02,177.01L305.45,179.61L304.5,181L304.45,184.74L303.15,186.02L301.24,193.74L301.7,194.88L300.11,197.49L300.08,198.79L300.24,200.07L298.9,201.21L298.19,203.71L299.04,204.92L298.78,206.06L297.2,207.2L296.66,208.49L297.84,209.72L296.13,212.1L296.12,213.37L294.42,219.55L294.28,220.76L293.07,223.03L292.94,224.21L293.36,225.33L292.83,226.49L290.38,228.93L291.97,230.21L289.67,233.55L290.87,234.71L288.5,236.91L289.05,238.05L287.83,240.29L287.8,241.35L286.75,242.52L286.78,243.67L286.23,245.85L285.34,247.03L285.26,248.2L286.07,249.41L284.07,252.56L284.09,253.65L283.62,254.69L282.19,255.8L282.62,257.9L281.71,258.95L280.13,262.15L280.46,263.2L278.62,266.42L279.31,267.53L278.26,269.7L276.84,270.75L277.39,271.77L276.09,272.74L276,274.79L276.24,275.86L273.63,281.82L272.49,282.83L272.32,285.48L271.14,286.49L270.78,287.57L271.24,288.57L269.35,291.45L269.5,292.42L267.97,294.28L268,295.29L268.1,296.31L266.77,297.25L265.96,299.12L266.48,300.05L265.37,301.88L264.59,302.79L263.95,303.74L264.73,304.64L264.6,305.53L262.88,306.5L262.36,307.41L262.86,308.33L261.11,311.89L260.98,312.73L259.19,315.38L259.42,316.22L257.43,317.98L258.05,318.85L258.08,319.68L256.9,320.51L256.32,322.23L256.24,323.04L254.12,324.67L255.37,325.52L254.28,326.34L254.48,327.13L252.32,327.94L253.11,328.81L252.99,329.63L252.11,330.41L250.69,331.2L250.89,332L251.44,332.83L250.35,333.58L248.56,335.08L249.44,335.88L246.49,338.91L247.71,339.66L245.25,341.1L245.66,341.89L244.9,343.32L243.35,343.99L243.36,346.2L242.61,346.87L241.01,347.61L241.52,348.34L242.18,349.02L241.38,349.68L239.74,351.12L240.35,351.8L237.73,353.77L237.71,354.44L237.99,355.04L236.6,355.68L235.5,356.38L236.16,357.04L236.9,357.64L233.92,358.25L234.55,359.54L234.04,360.16L232.95,361.34L231.96,362L232.47,362.58L231.13,363.17L231.16,363.75L230.22,364.4L229.15,366.09L228.61,366.69L227.25,368.33L225.95,368.87L226.56,369.46L225.79,369.99L224.27,371.62L224.87,372.11L222.16,373.13L223.02,373.66L220.28,375.64L220.88,376.11L218.47,377.56L218.11,378.04L218.26,378.5L217.29,378.9L216.28,379.41L217.18,379.88L214.55,381.16L215.16,381.58L212.1,383.69L210.64,384.06L209.91,384.45L211.14,384.88L209.47,385.65L208.21,385.98L207.81,386.37L208.91,386.76L205.75,387.8L206.35,388.21L206.14,388.53L204.26,389.35L204.7,389.65L203.91,389.98L201.84,390.92L202,391.23L198.75,392.69L198.16,392.96L195.36,394.78L193.65,395.03L192.07,395.96L190.88,396.19L191.71,396.4L191,396.62L189.51,396.81L186.63,397.79L187.03,397.99L187.16,398.16L182.49,399.14L182.88,399.31L182.69,399.45L173.44,401.37L173.41,401.45L136.71,403.54L135.33,403.55L136.55,403.56L59.81,403.68L57.98,403.67L-201.44,403.47" style="vector-effect: non-scaling-stroke; fill: none; stroke: rgb(46, 145, 229); stroke-opacity: 1; stroke-width: 2px; opacity: 1;"/></g><g class="points"/><g class="text"/></g><g class="trace scatter trace432a01" style="stroke-miterlimit: 2; opacity: 1;"><g class="fills"/><g class="errorbars"/><g class="lines"><path class="js-line" d="M-241.57,403.39L102.38,402.64L103.04,402.63L198.68,401.88L199.15,401.87L239.43,401.12L240.05,401.1L276.97,399.67L277.51,399.64L323.45,396.52L324.06,396.47L387.55,392.89L385.98,393.18L385.5,393.28L375.97,394.94L375.15,395.04L325.07,399.75L324.51,399.78L273.84,401.96L273.34,401.97L220.86,402.95L220.43,402.95L180.52,403.23L179.97,403.23L-172.95,403.48L236.03,402.73L236.8,402.72L280.98,401.97L281.51,401.96L388.69,397.74L372.78,398.98L372.21,399.02L315.41,401.62L314.87,401.63L260.52,402.76L259.86,402.77L180.45,403.29L179.77,403.29L-172.85,403.45L255.72,402.7L256.36,402.69L300.48,401.94L301.21,401.93L388.86,399.26L347.39,401.23L346.82,401.25L224.44,403.18L224.06,403.18L-172.85,403.43L-172.79,403.43" style="vector-effect: non-scaling-stroke; fill: none; stroke: rgb(225, 95, 153); stroke-opacity: 1; stroke-width: 2px; opacity: 1;"/></g><g class="points"/><g class="text"/></g><g class="trace scatter tracea87f58" style="stroke-miterlimit: 2; opacity: 1;"><g class="fills"/><g class="errorbars"/><g class="lines"><path class="js-line" d="M-193.46,403.39L-19.83,402.3L-19.39,402.28L12.94,399.6L13.51,399.54L63.14,393.59L63.79,393.57L81.86,393.78L82.36,393.8L96.8,393.36L97.47,393.32L108.77,393.28L109.3,393.32L141.27,396.01L141.71,396.02L159.71,395.58L160.42,395.52L168.84,394.1L169.49,393.96L175.24,392.24L175.57,392.04L177.16,391.33L177.65,391.08L181.88,388.4L182.78,388.05L186.72,384.89L187.05,384.44L193.78,377.05L194.42,376.47L204.85,360.11L205.23,359.35L208.62,353.93L208.79,353.14L210.14,350.74L210.57,349.93L212.24,346.71L212.64,345.89L219.24,332.5L219.65,331.65L235.18,298.25L235.59,297.3L244.42,277.54L244.9,276.73L263.43,234.57L263.65,233.26L265.78,225.92L266.22,224.92L266.6,223.93L266.64,221.47L268.1,216.6L268.44,215.55L272.54,203.77L272.94,202.82L277.07,191.22L277.34,189.16L285.11,159.59L285.26,157.96L288.72,148.76L288.87,146.64L289.3,142.48L289.95,141.78L290.82,139.55L290.98,138.34L292.24,134.98L292.41,133.35L294.51,125.75L295.2,124.79L295.56,120.46L296.13,119.12L300.63,105.81L300.89,104.75L302.95,97.11L303.34,95.82L304.09,94.1L304.39,92.48L307.72,81.97L308.13,81.24L309.87,75.79L310.19,74.07L311.97,68.1L312.46,67.06L313,62.3L313.61,61.15L315.7,53.93L315.95,52.69L319.64,41.62L319.95,39.73L321.62,27.5L322.11,26.81L323.02,22.89L317.33,47.42L316.89,48.34L316.05,52.37L315.6,53.61L310.54,74.32L310.05,75.56L305.45,92.63L305.46,94.1L304.17,97.63L303.79,98.89L302.47,105.54L302.12,106.83L300.27,113.61L300.06,114.38L297.74,121.57L297.46,123.04L289.15,149.67L288.94,150.95L287.53,155.47L287.26,156.7L286.75,157.78L285.85,156.74L284.77,159.78L284.41,161.07L277.56,182.73L277.09,183.75L270.01,206.28L269.48,207.27L265.15,218.26L264.91,219.29L262.56,225.45L262.09,226.54L258.45,236.69L257.98,237.76L235.78,293.24L235.23,293.53L233.08,297.99L232.57,299.16L230.6,303.69L230.14,304.59L221.6,322.78L221.08,323.64L214.91,335.9L214.46,336.7L208.07,348.1L207.61,348.84L190.71,374.66L190.23,375.26L187,379.28L186.51,379.84L180.5,386.54L179.91,387.01L166.96,396.97L166.34,397.24L159.1,400.4L158.46,400.58L152.06,402.22L151.35,402.37L141.31,403.58L140.9,403.62L125.31,404.25L124.57,404.26L66.82,404.47L66.21,404.47L22.27,405.22L21.91,405.27L6.52,406.28L6.11,406.25L-37.01,404.77L-37.63,404.77L-172.77,403.77L-83.52,403.29L-82.87,403.28L-39.68,401.84L-39.03,401.82L-3.11,401.89L-2.62,401.9L50.36,401.26L50.82,401.21L68.19,399.65L68.65,399.7L102.16,401.32L102.81,401.32L136.37,401.15L137.07,401.13L155.5,400.1L156.07,400.03L165.91,398.07L166.29,397.91L172.6,395.46L173.13,395.2L177.85,392.54L178.29,392.2L188.16,383.84L188.48,383.35L197.27,373.25L197.62,372.65L200.19,368.95L200.75,368.3L208.22,356.67L208.66,355.93L215.55,343.61L215.96,342.81L221.02,333.1L221.41,332.28L224.69,325.68L225.06,324.84L227.73,319.76L228.08,318.91L230.94,312.86L231.41,311.98L249.2,271.59L249.51,270.65L261.08,241.14L261.6,240.18L271.43,213.32L271.76,212.3L273.05,209.3L272.9,206.07L274.57,199.94L275.05,198.84L277.55,190.81L277.86,189.68L279.11,186.22L279.32,185.05L280.75,179.97L281.05,178.93L284.06,170.33L284.42,169.25L287.04,161.45L287.31,160.34L290.4,151.6L290.61,150.44L300.17,119.5L300.38,118.02L307.39,96.82L307.87,95.72L309.27,91.12L309.52,89.91L311.38,84.32L311.67,83.4L312.81,79.83L313.17,78.36L315.87,67.64L316.06,66.2L317.18,62.42L317.6,61.39L319.26,55.87L319.69,54.88L320.58,52.85L320.72,51.19L323.46,41.47L323.98,40.22L325.51,36.43L322.64,45.48L322.32,47L321.29,50.18L320.85,51.37L311.67,88.18L311.21,89.39L305.65,111.03L305.06,111.22L302.27,119.13L302.02,120.53L301.46,122.87L300.95,124.16L296.79,138.25L296.3,139.38L293.49,148.62L293.03,149.28L290.77,155.93L290.46,156.92L289.47,160.37L288.9,161.39L285.32,172.73L285.06,173.88L281.42,185.09L280.98,186.18L277.6,195.93L277.29,196.88L268.6,221.15L268.14,221.82L266.59,225.76L266.2,226.81L250.6,266.16L250.11,267L246.67,275.3L246.2,276.23L241.82,286.36L241.53,287.28L239.92,290.82L239.47,291.7L238.21,294.41L237.94,295.31L235.97,299.12L235.59,299.99L228.18,315.28L227.67,316.1L218.39,333.72L217.88,334.48L213.4,342.74L212.8,343.48L192.3,373.86L191.82,374.44L177.99,388.96L177.45,389.37L171.52,394.01L170.99,394.34L160.08,399.86L159.64,400.05L148.52,402.76L147.99,402.83L141.29,403.58L140.73,403.62L132.62,404.08L131.9,404.1L93.73,404.44L93.22,404.44L19.56,405.68L19.14,405.75L7.78,406.37L7.02,406.34L-39.14,404.74L-39.83,404.74L-172.69,403.78L-64.78,402.84L-64.28,402.82L-14.99,401.91L-14.24,401.92L50.09,401.43L50.93,401.38L69.9,399.9L70.48,399.94L89.83,401.18L90.37,401.2L121.98,401.58L122.63,401.58L155.5,400.36L156.01,400.29L165.37,398.44L165.88,398.28L173.92,395.14L174.2,394.86L184,388.38L184.36,387.97L189.11,383.5L189.67,383.02L192.96,379.5L193.37,378.98L199.84,371.55L200.07,370.96L217.4,344.67L217.81,343.95L220.35,339.14L220.9,338.39L227.28,326.71L227.5,325.9L231.48,318.75L231.93,317.91L242.72,295.95L243.05,295.02L245.34,289.62L245.84,288.73L248.51,283.32L248.67,282.41L250.69,277.96L251.13,277.04L255,267.59L255.42,266.64L257.98,260.88L258.31,259.89L259.77,256.18L260.17,255.24L264.48,244.65L264.87,243.73L268.51,234.88L268.85,233.87L278.32,207.94L278.67,207L280.61,201.62L281.03,200.58L297.81,152.32L298.09,150.73L300.58,143.98L300.87,142.86L302.32,138.48L302.74,137.53L304.49,131.69L304.88,130.7L305.84,128.72L306.1,127.54L306.8,123.02L306.92,119.13L309.39,111.14L309.81,110.02L315.1,92.33L315.31,90.47L319.17,77.62L319.62,76.44L320.47,74.31L320.73,73.05L321.77,69.55L322.18,68.3L327.66,49.82L327.53,50.45L327.25,51.82L320.71,76.4L320.17,77.67L319.1,83L318.44,84.28L317.68,87.21L317.15,88.22L314.79,98.32L314.13,99.59L313.22,103.41L312.96,104.61L311.42,109.24L311.24,110.66L309.55,115.18L309.45,116.51L308.97,117.76L308.31,117.28L307.71,117.07L307.39,118.46L305.66,124.48L305.22,125.63L304.18,128.81L303.9,130.07L300.34,142.05L299.81,143.1L297.17,150.82L296.98,152.05L295.31,157.96L294.7,159.08L289.79,175.02L289.35,176.02L278.2,208.42L277.65,209.31L273.95,219.58L273.55,220.63L252.82,271.87L252.29,272.74L245.85,286.9L245.35,287.75L240.45,298.49L239.8,299.32L236.18,306.73L235.79,307.57L228.26,322.11L227.79,322.88L207.67,355.98L207.17,356.64L201.12,365.48L200.37,366.08L197.62,369.62L197.46,370.2L180.34,388.16L179.73,388.57L176.61,390.94L176.14,391.31L173.18,393.52L172.36,393.85L161.16,399.59L160.7,399.79L152.66,402.04L152,402.15L134.76,403.97L134.13,403.99L102.25,404.41L101.49,404.41L26.31,405.14L25.72,405.17L3.26,405.98L2.7,405.94L-27.98,404.79L-28.56,404.78L-172.84,403.78" style="vector-effect: non-scaling-stroke; fill: none; stroke: rgb(28, 167, 28); stroke-opacity: 1; stroke-width: 2px; opacity: 1;"/></g><g class="points"/><g class="text"/></g><g class="trace scatter traceddcba8" style="stroke-miterlimit: 2; opacity: 1;"><g class="fills"/><g class="errorbars"/><g class="lines"><path class="js-line" d="M-248.64,403.43L-145.63,403.35L-145.15,403.35L42.41,402.6L43.18,402.59L112.94,401.84L113.69,401.83L149.05,401.09L149.44,401.07L176.39,399.23L176.87,399.16L201.56,394.12L202.07,393.94L211.62,389.73L212.2,389.46L217.41,386.25L217.87,385.93L221.41,383.57L221.6,383.21L223.57,381.76L224.17,381.38L234.47,371.85L234.86,371.38L253.54,347.16L253.93,346.53L256.59,342.77L256.84,342.11L265.87,326.43L266.14,325.74L271.65,315.17L271.73,314.39L273.34,311.18L273.6,310.36L275.43,306.32L275.8,305.53L284.3,285.01L284.62,284.05L288.4,272.21L288.96,271.33L289.34,269.6L289.68,268.72L291.05,264.86L291.36,263.91L293.85,257.46L293.96,256.49L295.79,251.74L296.06,250.83L298.6,242.86L298.76,241.68L301.84,232.88L301.98,231.98L313.61,189.97L313.7,188.88L315.46,183.49L315.47,182.33L316.5,178.8L316.67,177.69L317.72,174.63L318.02,173.35L325.4,144.71L324.73,149.25L324.59,150.84L321.73,166.41L321.19,167.54L320.79,170.99L320.3,172.17L319.6,175.86L319.37,177.07L315.04,196.11L314.5,197.16L314.08,199.15L313.92,200.31L311.67,209.43L311.42,210.65L309.41,218.47L309.18,219.56L307.47,224.9L307.23,226.04L304.74,235.92L304.15,236.85L302.59,243.11L302.27,244.09L299.1,254.39L298.88,255.4L297.19,260.35L297.04,261.32L295.1,266.32L294.96,267.32L293.12,271.98L293.06,272.99L291.36,277.81L291.08,278.69L286.81,290.74L286.44,291.6L283.73,297.8L283.59,298.78L278.33,311.47L277.69,312.26L276.76,314.61L276.27,315.39L274.79,319.38L274.11,320.17L271.66,325.56L271.08,326.36L266.6,334.93L266.21,335.64L262.74,341.77L262.06,342.42L260.37,345.68L259.65,346.32L257.85,349.43L257.3,350.03L256.34,351.86L255.73,352.45L241.58,369.93L241.08,370.39L237.9,373.54L237.48,373.97L231.04,379.66L230.86,380.04L226.91,382.55L226.75,382.9L220.91,386.77L220.26,387.07L216.94,389.08L216.51,389.35L208.81,393.04L208.27,393.32L196.61,397.51L195.69,397.66L194.42,398.09L193.67,398.23L189.1,399.36L188.32,399.47L184.85,400.21L183.97,400.3L174.88,401.64L174.44,401.7L141.5,403.51L140.83,403.52L100.57,403.88L99.72,403.88L-172.78,403.6L-3.51,403.16L-2.76,403.16L109.03,402.41L109.62,402.4L165.16,401.65L165.63,401.63L184.52,399.92L185.21,399.84L191.57,398.59L192.21,398.47L195.57,397.52L196.53,397.37L198.8,396.59L199.26,396.42L205.62,394.13L206.15,393.92L208.53,392.79L209.33,392.55L226.67,381.59L227.09,381.22L233.87,375.53L234.24,375.11L240.36,369.26L240.62,368.78L242.45,366.84L242.78,366.35L253.01,353.05L253.46,352.43L266.33,331.48L266.54,330.77L269.59,325.81L269.58,325.14L271.19,322.21L271.52,321.45L282.25,298.52L282.83,297.74L283.48,295.33L284.17,294.5L284.9,292L285.52,291.18L289.37,281.94L289.55,281.06L290.95,278.27L290.82,277.37L292.28,273.86L292.71,272.96L294.72,267.64L295.26,266.8L298.59,256.4L299.29,255.54L304.9,239.49L304.92,238.56L306.98,232.47L307.24,231.41L308.7,226.35L309.03,225.43L312,216.27L312.16,215.22L315.83,202.75L316.04,201.58L317.32,197.3L317.61,196.15L318.84,191.86L319.16,190.86L328.75,156.62L325.1,171.04L324.94,172.41L318.81,197.09L318.35,198.11L317.44,201.42L317.29,202.55L314.05,213.16L314,214.31L311.79,221.46L311.48,222.59L295.71,270.41L295.27,271.37L294.42,274.1L293.71,274.99L293.48,276.82L293.16,277.69L292.37,279.55L292.1,280.46L289.51,286.71L289.3,287.6L288.16,290.09L287.88,290.97L277.82,313.82L277.39,314.58L274.42,320.61L273.95,321.34L272.66,324.28L272.2,325L270.12,329.23L269.52,329.93L256.67,350.39L256.07,350.99L243.26,366.84L242.85,367.32L238.2,371.83L237.86,372.27L230.83,378.32L230.32,378.7L223.74,383.61L223.18,383.94L218.44,387.02L217.98,387.31L200.06,395.57L199.45,395.75L182.11,400.25L181.62,400.35L165.5,402.39L164.96,402.43L149.55,403.29L148.75,403.31L87.27,403.89L86.74,403.89L-172.97,403.59L-2.07,403.2L-1.3,403.2L60.29,402.88L60.82,402.88L78.02,402.75L78.56,402.75L160.1,402.01L160.71,401.99L179.51,400.89L180.25,400.83L196.99,397.8L197.48,397.66L206.38,394.79L206.7,394.59L212.39,392.17L212.78,391.93L217.97,389.34L218.37,389.06L233.76,378.28L234.04,377.81L237.75,374.91L237.95,374.49L247,365.2L247.48,364.69L251.65,359.4L252.14,358.86L259.53,349.16L259.66,348.57L262.29,344.88L262.76,344.27L265.87,339.19L266.36,338.55L268.87,333.99L269.49,333.33L271.52,329.98L271.82,329.28L285.81,301.34L286.03,300.54L287.93,296.65L288.33,295.86L290.04,291.69L290.57,290.85L291.34,288.37L292.01,287.57L294.49,280.71L295.18,279.83L295.1,278.98L295.79,278.14L309.94,239.69L310.03,238.64L314.13,227.09L314.24,226.01L317.05,217.04L317.47,216.03L318.05,214.01L318.61,213.14L320.3,205.47L320.91,204.49L329.85,175.05L329.86,173.9L331,170.65L331.35,169.57L331.37,168.32L330.8,171.04L330.49,172.07L327.73,183.16L327.12,184.26L326.8,186.56L326.38,187.69L324.36,195.01L323.93,196.13L323.37,199.3L322.85,200.35L320.76,207.59L320.44,208.59L318.83,213.96L318.88,215.06L317.56,218L317.43,219.02L315.97,223.14L315.85,224.07L314.64,227.06L314.57,228.09L310.81,240.41L310.62,241.37L309.49,243.91L309.2,244.76L307.8,248.52L307.54,249.47L303.47,260.91L303.22,261.83L295.72,281.49L295.21,282.35L294.36,285.08L294.12,285.95L292.18,290.13L291.96,290.99L289.62,295.93L289.53,296.73L287.01,301.55L286.92,302.34L282.77,310.98L282.5,311.71L280.04,316.35L279.81,317.07L277.74,320.69L277.51,321.41L272.7,329.86L272.74,330.53L270.83,333.16L270.41,333.83L266.47,340.22L265.93,340.86L263.28,345.21L262.61,345.81L259.5,350.52L258.73,351.11L256.97,353.87L256.38,354.41L254.79,356.57L254.29,357.1L246.1,366.55L245.43,367.03L242.44,370.2L241.85,370.64L237.14,374.8L236.9,375.21L232.03,379.04L231.71,379.4L212.22,391.32L211.48,391.55L209.26,392.67L208.41,392.89L206.92,393.6L206.31,393.81L201.23,395.7L200.59,395.88L197.59,396.87L196.95,397.02L192.81,398.19L192.26,398.32L173.32,401.67L172.89,401.74L151.63,403.21L150.98,403.23L119.59,403.74L119.33,403.75L-172.61,403.59" style="vector-effect: non-scaling-stroke; fill: none; stroke: rgb(182, 129, 0); stroke-opacity: 1; stroke-width: 2px; opacity: 1;"/></g><g class="points"/><g class="text"/></g></g></g><g class="overplot"/><path class="xlines-above crisp" d="M76,429H500" style="fill: none; stroke-width: 2px; stroke: rgb(0, 0, 0); stroke-opacity: 1;"/><path class="ylines-above crisp" d="M77,12V428" style="fill: none; stroke-width: 2px; stroke: rgb(0, 0, 0); stroke-opacity: 1;"/><g class="overlines-above"/><g class="xaxislayer-above"><path class="xtick ticks crisp" d="M0,430v5" transform="translate(78,0)" style="stroke: rgb(68, 68, 68); stroke-opacity: 1; stroke-width: 1px;"/><path class="xtick ticks crisp" d="M0,430v5" transform="translate(134.27,0)" style="stroke: rgb(68, 68, 68); stroke-opacity: 1; stroke-width: 1px;"/><path class="xtick ticks crisp" d="M0,430v5" transform="translate(190.53,0)" style="stroke: rgb(68, 68, 68); stroke-opacity: 1; stroke-width: 1px;"/><path class="xtick ticks crisp" d="M0,430v5" transform="translate(246.8,0)" style="stroke: rgb(68, 68, 68); stroke-opacity: 1; stroke-width: 1px;"/><path class="xtick ticks crisp" d="M0,430v5" transform="translate(303.07,0)" style="stroke: rgb(68, 68, 68); stroke-opacity: 1; stroke-width: 1px;"/><path class="xtick ticks crisp" d="M0,430v5" transform="translate(359.33,0)" style="stroke: rgb(68, 68, 68); stroke-opacity: 1; stroke-width: 1px;"/><path class="xtick ticks crisp" d="M0,430v5" transform="translate(415.6,0)" style="stroke: rgb(68, 68, 68); stroke-opacity: 1; stroke-width: 1px;"/><path class="xtick ticks crisp" d="M0,430v5" transform="translate(471.87,0)" style="stroke: rgb(68, 68, 68); stroke-opacity: 1; stroke-width: 1px;"/><g class="xtick"><text text-anchor="middle" x="0" y="461.4" transform="translate(78,0)" style="font-family: 'Times New Roman', monospace; font-size: 22px; fill: rgb(105, 105, 105); fill-opacity: 1; white-space: pre; opacity: 1;">0</text></g><g class="xtick"><text text-anchor="middle" x="0" y="461.4" style="font-family: 'Times New Roman', monospace; font-size: 22px; fill: rgb(105, 105, 105); fill-opacity: 1; white-space: pre; opacity: 1;" transform="translate(134.27,0)">0.1</text></g><g class="xtick"><text text-anchor="middle" x="0" y="461.4" style="font-family: 'Times New Roman', monospace; font-size: 22px; fill: rgb(105, 105, 105); fill-opacity: 1; white-space: pre; opacity: 1;" transform="translate(190.53,0)">0.2</text></g><g class="xtick"><text text-anchor="middle" x="0" y="461.4" style="font-family: 'Times New Roman', monospace; font-size: 22px; fill: rgb(105, 105, 105); fill-opacity: 1; white-space: pre; opacity: 1;" transform="translate(246.8,0)">0.3</text></g><g class="xtick"><text text-anchor="middle" x="0" y="461.4" style="font-family: 'Times New Roman', monospace; font-size: 22px; fill: rgb(105, 105, 105); fill-opacity: 1; white-space: pre; opacity: 1;" transform="translate(303.07,0)">0.4</text></g><g class="xtick"><text text-anchor="middle" x="0" y="461.4" style="font-family: 'Times New Roman', monospace; font-size: 22px; fill: rgb(105, 105, 105); fill-opacity: 1; white-space: pre; opacity: 1;" transform="translate(359.33,0)">0.5</text></g><g class="xtick"><text text-anchor="middle" x="0" y="461.4" style="font-family: 'Times New Roman', monospace; font-size: 22px; fill: rgb(105, 105, 105); fill-opacity: 1; white-space: pre; opacity: 1;" transform="translate(415.6,0)">0.6</text></g><g class="xtick"><text text-anchor="middle" x="0" y="461.4" style="font-family: 'Times New Roman', monospace; font-size: 22px; fill: rgb(105, 105, 105); fill-opacity: 1; white-space: pre; opacity: 1;" transform="translate(471.87,0)">0.7</text></g></g><g class="yaxislayer-above"><path class="ytick ticks crisp" d="M76,0h-5" transform="translate(0,415.39)" style="stroke: rgb(68, 68, 68); stroke-opacity: 1; stroke-width: 1px;"/><path class="ytick ticks crisp" d="M76,0h-5" transform="translate(0,364.97)" style="stroke: rgb(68, 68, 68); stroke-opacity: 1; stroke-width: 1px;"/><path class="ytick ticks crisp" d="M76,0h-5" transform="translate(0,314.55)" style="stroke: rgb(68, 68, 68); stroke-opacity: 1; stroke-width: 1px;"/><path class="ytick ticks crisp" d="M76,0h-5" transform="translate(0,264.12)" style="stroke: rgb(68, 68, 68); stroke-opacity: 1; stroke-width: 1px;"/><path class="ytick ticks crisp" d="M76,0h-5" transform="translate(0,213.7)" style="stroke: rgb(68, 68, 68); stroke-opacity: 1; stroke-width: 1px;"/><path class="ytick ticks crisp" d="M76,0h-5" transform="translate(0,163.27)" style="stroke: rgb(68, 68, 68); stroke-opacity: 1; stroke-width: 1px;"/><path class="ytick ticks crisp" d="M76,0h-5" transform="translate(0,112.85)" style="stroke: rgb(68, 68, 68); stroke-opacity: 1; stroke-width: 1px;"/><path class="ytick ticks crisp" d="M76,0h-5" transform="translate(0,62.42)" style="stroke: rgb(68, 68, 68); stroke-opacity: 1; stroke-width: 1px;"/><path class="ytick ticks crisp" d="M76,0h-5" transform="translate(0,12)" style="stroke: rgb(68, 68, 68); stroke-opacity: 1; stroke-width: 1px;"/><g class="ytick"><text text-anchor="end" x="66.6" y="7.699999999999999" transform="translate(0,415.39)" style="font-family: 'Times New Roman', monospace; font-size: 22px; fill: rgb(105, 105, 105); fill-opacity: 1; white-space: pre; opacity: 1;">0</text></g><g class="ytick"><text text-anchor="end" x="66.6" y="7.699999999999999" style="font-family: 'Times New Roman', monospace; font-size: 22px; fill: rgb(105, 105, 105); fill-opacity: 1; white-space: pre; opacity: 1;" transform="translate(0,364.97)">20</text></g><g class="ytick"><text text-anchor="end" x="66.6" y="7.699999999999999" style="font-family: 'Times New Roman', monospace; font-size: 22px; fill: rgb(105, 105, 105); fill-opacity: 1; white-space: pre; opacity: 1;" transform="translate(0,314.55)">40</text></g><g class="ytick"><text text-anchor="end" x="66.6" y="7.699999999999999" style="font-family: 'Times New Roman', monospace; font-size: 22px; fill: rgb(105, 105, 105); fill-opacity: 1; white-space: pre; opacity: 1;" transform="translate(0,264.12)">60</text></g><g class="ytick"><text text-anchor="end" x="66.6" y="7.699999999999999" style="font-family: 'Times New Roman', monospace; font-size: 22px; fill: rgb(105, 105, 105); fill-opacity: 1; white-space: pre; opacity: 1;" transform="translate(0,213.7)">80</text></g><g class="ytick"><text text-anchor="end" x="66.6" y="7.699999999999999" style="font-family: 'Times New Roman', monospace; font-size: 22px; fill: rgb(105, 105, 105); fill-opacity: 1; white-space: pre; opacity: 1;" transform="translate(0,163.27)">100</text></g><g class="ytick"><text text-anchor="end" x="66.6" y="7.699999999999999" style="font-family: 'Times New Roman', monospace; font-size: 22px; fill: rgb(105, 105, 105); fill-opacity: 1; white-space: pre; opacity: 1;" transform="translate(0,112.85)">120</text></g><g class="ytick"><text text-anchor="end" x="66.6" y="7.699999999999999" style="font-family: 'Times New Roman', monospace; font-size: 22px; fill: rgb(105, 105, 105); fill-opacity: 1; white-space: pre; opacity: 1;" transform="translate(0,62.42)">140</text></g><g class="ytick"><text text-anchor="end" x="66.6" y="7.699999999999999" style="font-family: 'Times New Roman', monospace; font-size: 22px; fill: rgb(105, 105, 105); fill-opacity: 1; white-space: pre; opacity: 0;" transform="translate(0,12)">160</text></g></g><g class="overaxes-above"/></g></g><g class="polarlayer"/><g class="smithlayer"/><g class="ternarylayer"/><g class="geolayer"/><g class="funnelarealayer"/><g class="pielayer"/><g class="iciclelayer"/><g class="treemaplayer"/><g class="sunburstlayer"/><g class="glimages"/><defs id="topdefs-718000"><g class="clips"/><clipPath id="legend718000"><rect width="185" height="137" x="0" y="0"/></clipPath></defs><g class="layer-above"><g class="imagelayer"/><g class="shapelayer"/></g><g class="infolayer"><g class="legend" pointer-events="all" transform="translate(78,12)"><rect class="bg" shape-rendering="crispEdges" width="185" height="137" x="0" y="0" style="stroke: rgb(68, 68, 68); stroke-opacity: 1; fill: rgb(255, 255, 255); fill-opacity: 1; stroke-width: 0px;"/><g class="scrollbox" transform="" clip-path="url(#legend718000)"><g class="groups"><g class="traces" transform="translate(0,20.8)" style="opacity: 1;"><text class="legendtext" text-anchor="start" x="40" y="8.58" style="font-family: 'Times New Roman', monospace; font-size: 22px; fill: rgb(105, 105, 105); fill-opacity: 1; white-space: pre;">IrO​<tspan style="font-size:70%" dy="0.3em">x</tspan><tspan dy="-0.21em">​</tspan></text><g class="layers" style="opacity: 1;"><g class="legendfill"/><g class="legendlines"><path class="js-line" d="M5,0h30" style="fill: none; stroke: rgb(46, 145, 229); stroke-opacity: 1; stroke-width: 2px;"/></g><g class="legendsymbols"><g class="legendpoints"/></g></g><rect class="legendtoggle" x="0" y="-15.8" width="179.765625" height="31.6" style="fill: rgb(0, 0, 0); fill-opacity: 0;"/></g><g class="traces" transform="translate(0,52.400000000000006)" style="opacity: 1;"><text class="legendtext" text-anchor="start" x="40" y="8.58" style="font-family: 'Times New Roman', monospace; font-size: 22px; fill: rgb(105, 105, 105); fill-opacity: 1; white-space: pre;">NiCoFeO​<tspan style="font-size:70%" dy="0.3em">x</tspan><tspan dy="-0.21em">​</tspan></text><g class="layers" style="opacity: 1;"><g class="legendfill"/><g class="legendlines"><path class="js-line" d="M5,0h30" style="fill: none; stroke: rgb(225, 95, 153); stroke-opacity: 1; stroke-width: 2px;"/></g><g class="legendsymbols"><g class="legendpoints"/></g></g><rect class="legendtoggle" x="0" y="-15.8" width="179.765625" height="31.6" style="fill: rgb(0, 0, 0); fill-opacity: 0;"/></g><g class="traces" transform="translate(0,84)" style="opacity: 1;"><text class="legendtext" text-anchor="start" x="40" y="8.58" style="font-family: 'Times New Roman', monospace; font-size: 22px; fill: rgb(105, 105, 105); fill-opacity: 1; white-space: pre;">Co​<tspan style="font-size:70%" dy="0.3em">57</tspan><tspan dy="-0.21em">​</tspan>Ni​<tspan style="font-size:70%" dy="0.3em">14</tspan><tspan dy="-0.21em">​</tspan>Fe​<tspan style="font-size:70%" dy="0.3em">29</tspan><tspan dy="-0.21em">​</tspan>N​<tspan style="font-size:70%" dy="0.3em">x</tspan><tspan dy="-0.21em">​</tspan></text><g class="layers" style="opacity: 1;"><g class="legendfill"/><g class="legendlines"><path class="js-line" d="M5,0h30" style="fill: none; stroke: rgb(28, 167, 28); stroke-opacity: 1; stroke-width: 2px;"/></g><g class="legendsymbols"><g class="legendpoints"/></g></g><rect class="legendtoggle" x="0" y="-15.8" width="179.765625" height="31.6" style="fill: rgb(0, 0, 0); fill-opacity: 0;"/></g><g class="traces" transform="translate(0,115.60000000000001)" style="opacity: 1;"><text class="legendtext" text-anchor="start" x="40" y="8.58" style="font-family: 'Times New Roman', monospace; font-size: 22px; fill: rgb(105, 105, 105); fill-opacity: 1; white-space: pre;">Co​<tspan style="font-size:70%" dy="0.3em">45</tspan><tspan dy="-0.21em">​</tspan>Ni​<tspan style="font-size:70%" dy="0.3em">45</tspan><tspan dy="-0.21em">​</tspan>Fe​<tspan style="font-size:70%" dy="0.3em">10</tspan><tspan dy="-0.21em">​</tspan>N​<tspan style="font-size:70%" dy="0.3em">x</tspan><tspan dy="-0.21em">​</tspan></text><g class="layers" style="opacity: 1;"><g class="legendfill"/><g class="legendlines"><path class="js-line" d="M5,0h30" style="fill: none; stroke: rgb(182, 129, 0); stroke-opacity: 1; stroke-width: 2px;"/></g><g class="legendsymbols"><g class="legendpoints"/></g></g><rect class="legendtoggle" x="0" y="-15.8" width="179.765625" height="31.6" style="fill: rgb(0, 0, 0); fill-opacity: 0;"/></g></g></g><rect class="scrollbar" rx="20" ry="3" width="0" height="0" x="0" y="0" style="fill: rgb(128, 139, 164); fill-opacity: 1;"/></g><g class="g-gtitle"/><g class="g-xtitle" transform="translate(0,-9.074999999999989)"><text class="xtitle" x="289" y="499.60625" text-anchor="middle" style="font-family: 'Times New Roman', monospace; font-size: 26px; fill: rgb(105, 105, 105); opacity: 1; font-weight: normal; white-space: pre;">Overpotential, η(V) - iR​<tspan style="font-size:70%" dy="0.3em">u</tspan><tspan dy="-0.21em">​</tspan></text></g><g class="g-ytitle" transform="translate(26.5283203125,0)"><text class="ytitle" transform="rotate(-90,0.39374999999999716,220)" x="0.39374999999999716" y="220" text-anchor="middle" style="font-family: 'Times New Roman', monospace; font-size: 26px; fill: rgb(105, 105, 105); opacity: 1; font-weight: normal; white-space: pre;">Current (mA/cm​<tspan style="font-size:70%" dy="-0.6em">2</tspan><tspan dy="0.42em">​</tspan>)</text></g></g></svg>