<svg class="main-svg" xmlns="http://www.w3.org/2000/svg" xmlns:xlink="http://www.w3.org/1999/xlink" width="500" height="500" style="" viewBox="0 0 500 500"><rect x="0" y="0" width="500" height="500" style="fill: rgb(255, 255, 255); fill-opacity: 1;"/><defs id="defs-cc75ef"><g class="clips"><clipPath id="clipcc75efxyplot" class="plotclip"><rect width="422" height="416"/></clipPath><clipPath class="axesclip" id="clipcc75efx"><rect x="78" y="0" width="422" height="500"/></clipPath><clipPath class="axesclip" id="clipcc75efy"><rect x="0" y="12" width="500" height="416"/></clipPath><clipPath class="axesclip" id="clipcc75efxy"><rect x="78" y="12" width="422" height="416"/></clipPath></g><g class="gradients"/><g class="patterns"/></defs><g class="bglayer"><rect class="bg" x="78" y="12" width="422" height="416" style="fill: rgb(0, 0, 0); fill-opacity: 0; stroke-width: 0;"/></g><g class="layer-below"><g class="imagelayer"/><g class="shapelayer"/></g><g class="cartesianlayer"><g class="subplot xy"><g class="layer-subplot"><g class="shapelayer"/><g class="imagelayer"/></g><g class="minor-gridlayer"><g class="x"/><g class="y"/></g><g class="gridlayer"><g class="x"/><g class="y"/></g><g class="zerolinelayer"><path class="yzl zl crisp" transform="translate(0,415.39)" d="M78,0h422" style="stroke: rgb(128, 128, 128); stroke-opacity: 1; stroke-width: 1px;"/></g><path class="xlines-below"/><path class="ylines-below"/><g class="overlines-below"/><g class="xaxislayer-below"/><g class="yaxislayer-below"/><g class="overaxes-below"/><g class="plot" transform="translate(78,12)" clip-path="url(#clipcc75efxyplot)"><g class="scatterlayer mlayer"><g class="trace scatter trace01fbce" style="stroke-miterlimit: 2; opacity: 1;"><g class="fills"/><g class="errorbars"/><g class="lines"><path class="js-line" d="M-172.42,403.49L-146.84,403.08L-146.07,403.07L148.67,402.32L149.12,402.29L165.3,400.53L166.11,400.45L172.77,398.68L173.56,398.51L181.81,395.12L182.47,394.86L194.45,386.75L194.96,386.33L195.85,385.51L196.4,385.08L209.44,370.37L209.98,369.7L218.83,355.97L219.3,355.26L221.04,352.23L221.45,351.46L224.72,345.15L225.29,344.34L227.26,340.17L227.88,339.33L230.47,333.28L231.11,332.39L244.39,299.74L244.39,298.71L249.61,283.78L250.16,282.69L253.78,271.35L253.85,270.21L256.56,262.15L256.68,260.89L258.48,254.96L258.98,253.8L260.71,247.71L260.9,246.55L263.04,239.34L263.59,238.16L264.18,234.49L264.88,233.27L265.81,229.67L266.13,228.4L283.94,153.43L284.12,151.89L288.54,131.99L289.12,130.65L289.76,126.33L290.45,124.82L291.24,119L291.85,117.51L292.62,112.9L292.92,111.58L293.5,108.85L293.84,107.47L296.76,92.11L296.86,90.8L304.99,50L305.09,48.15L306.28,43.58L306.49,42.08L306.75,39.24L307.44,37.67L308.96,28.8L309.22,27.26L311.21,16.4L311.29,15.01L312.48,10.54L312.51,8.85L313.71,4.67L313.87,2.74L315.82,-7.85L314.43,-2.33L314.12,-0.76L313.34,6.18L313.09,7.79L312.22,14.5L311.11,14.58L310.38,14.45L310.62,16.05L310.16,19.91L309.52,21.52L308.94,26.51L308.43,28.1L308.13,33.7L307.48,35.05L304.76,52.56L304.25,54.35L300.26,81.02L299.68,82.16L297.6,94.82L297.08,96.39L296.66,100.98L296.09,102.68L295.57,107.37L295.05,108.99L294.36,113.7L293.75,114.81L293.29,119.22L292.62,120.97L291.73,127.2L291.24,128.5L289.44,139.07L288.9,140.61L285.76,156.84L285.27,158.26L283.96,165.75L283.75,167.22L282.23,174.41L281.9,175.98L281.65,178.96L281.12,180.35L279.91,184.44L279.6,185.93L279.4,190.16L278.5,191.71L277.78,193L278.11,194.34L269.71,229.59L269.52,231L261.69,259.52L261.06,260.03L258.31,270L257.95,271.24L256.97,274.78L256.58,275.99L254.26,284.03L253.55,285.13L252.74,288.49L252.25,289.58L245.34,309.7L244.83,310.67L242.48,316.63L242.22,317.62L238.34,327.16L237.67,328.09L236.11,331.74L235.75,332.64L233.92,337.09L233.55,337.96L230.85,343.05L230.67,343.89L227.2,350.38L226.76,351.18L220.81,361.5L220.12,362.19L219.16,364.24L218.59,364.91L216.88,367.53L216.42,368.16L214.22,371.27L213.89,371.87L210.05,376.48L209.55,377.02L195.41,390.21L194.81,390.56L192.04,392.57L191.37,392.88L183.34,397.09L182.72,397.31L169.31,401.19L168.57,401.29L162.6,402.24L162.01,402.3L142.01,403.44L141.44,403.44L107.44,403.64L107.16,403.64L-172.66,403.98L-172.6,403.84" style="vector-effect: non-scaling-stroke; fill: none; stroke: rgb(46, 145, 229); stroke-opacity: 1; stroke-width: 2px; opacity: 1;"/></g><g class="points"/><g class="text"/></g><g class="trace scatter trace7a0108" style="stroke-miterlimit: 2; opacity: 1;"><g class="fills"/><g class="errorbars"/><g class="lines"><path class="js-line" d="M-172.65,403.45L255.72,402.7L256.36,402.69L300.48,401.94L301.21,401.93L388.86,399.26L347.39,401.23L346.82,401.25L224.44,403.18L224.06,403.18L-172.85,403.43L-172.79,403.43" style="vector-effect: non-scaling-stroke; fill: none; stroke: rgb(225, 95, 153); stroke-opacity: 1; stroke-width: 2px; opacity: 1;"/></g><g class="points"/><g class="text"/></g><g class="trace scatter tracee8b919" style="stroke-miterlimit: 2; opacity: 1;"><g class="fills"/><g class="errorbars"/><g class="lines"><path class="js-line" d="M-172.59,403.41L247.31,402.66L247.81,402.64L272.23,401.14L272.7,401.09L293.78,398.72L294.31,398.64L335.32,390.55L335.79,390.41L347.25,387.32L347.78,387.17L356.41,384.71L356.8,384.55L367.63,381.1L368.23,380.93L382.45,376.03L377.17,378.45L376.83,378.68L344.29,389.97L343.65,390.11L335.32,392.18L334.74,392.3L318.65,395.51L318.08,395.6L296.94,398.64L296.32,398.7L279.01,400.48L278.33,400.53L224.84,403.03L224.32,403.04L143.21,403.38L142.7,403.38L-173.36,403.41" style="vector-effect: non-scaling-stroke; fill: none; stroke: rgb(251, 13, 13); stroke-opacity: 1; stroke-width: 2px; opacity: 1;"/></g><g class="points"/><g class="text"/></g><g class="trace scatter tracea3ed5a" style="stroke-miterlimit: 2; opacity: 1;"><g class="fills"/><g class="errorbars"/><g class="lines"><path class="js-line" d="M-172.27,404.16L-68.83,403.48L-68.4,403.48L10.54,403.03L11.27,403.03L158.63,399.8L159.16,399.78L187.01,398.1L187.63,398.05L204.66,396.32L205.16,396.25L227.75,392.68L228.18,392.57L251.7,386.78L252.16,386.62L262.75,383.26L263.31,383.08L281.33,376.2L281.44,375.98L289.94,372.37L290.57,372.13L301.87,366.65L302.09,366.39L313.46,360.48L313.92,360.19L316.97,358.39L317.66,358.12L320.39,356.35L320.91,356.07L331.48,349.9L331.96,349.59L346.93,340.26L347.35,339.94L359,332.83L359.5,332.51L373.79,324.56L373.42,324.84L362.03,335.07L361.31,335.44L358.13,338.02L357.42,338.36L349.36,344.54L348.65,344.79L335.42,353.45L334.9,353.66L330.32,356.26L329.81,356.56L318.76,362.64L318.18,362.94L296.72,373.12L296.12,373.37L285.69,377.62L285.41,377.82L265.84,384.6L265.14,384.76L246.16,390.17L245.54,390.31L218.71,396.14L218.08,396.23L163.93,402.66L163.26,402.7L144.62,403.77L144.25,403.8L77.35,405.29L76.75,405.29L-172.9,404.22" style="vector-effect: non-scaling-stroke; fill: none; stroke: rgb(218, 22, 255); stroke-opacity: 1; stroke-width: 2px; opacity: 1;"/></g><g class="points"/><g class="text"/></g><g class="trace scatter tracedee6c3" style="stroke-miterlimit: 2; opacity: 1;"><g class="fills"/><g class="errorbars"/><g class="lines"><path class="js-line" d="M-172.51,403.4L318.66,402.65L319.31,402.64L382.83,401.89L383.33,401.88L389.57,401.81L259.63,403.2L259.18,403.2L-172.74,403.4L-172.46,403.4" style="vector-effect: non-scaling-stroke; fill: none; stroke: rgb(34, 42, 42); stroke-opacity: 1; stroke-width: 2px; opacity: 1;"/></g><g class="points"/><g class="text"/></g><g class="trace scatter trace4b143b" style="stroke-miterlimit: 2; opacity: 1;"><g class="fills"/><g class="errorbars"/><g class="lines"><path class="js-line" d="M-172.42,403.77L-15.53,401.9L-14.99,401.91L39.55,401.9L40.22,401.89L55.97,400.73L56.48,400.64L65.45,399.66L65.99,399.67L115.28,401.6L115.88,401.6L150.03,400.88L150.6,400.84L162.14,399.26L162.64,399.14L171.31,396.36L171.8,396.12L174.65,394.59L175.37,394.31L178.76,392.12L179.19,391.77L182.27,389.58L182.84,389.19L186.25,386.25L186.67,385.8L191.56,381.03L192.07,380.53L198.13,373.3L198.56,372.73L201.08,369.78L201.59,369.18L204.96,364.13L205.62,363.49L209.12,358.15L209.58,357.47L235.24,311.33L235.61,310.51L256.36,264.75L256.55,263.78L280,203.84L280.27,202.7L285.93,187.04L286.44,186.11L289.32,176.95L289.71,176.06L291.83,169.82L292.25,168.66L293.86,164.34L294.19,163.34L296.78,156.23L297.29,155.28L301.49,140.57L301.91,139.46L305.84,128.72L306.1,127.54L306.8,123.02L306.92,119.13L309.39,111.14L309.81,110.02L315.1,92.33L315.31,90.47L319.17,77.62L319.62,76.44L320.47,74.31L320.73,73.05L321.77,69.55L322.18,68.3L327.66,49.82L327.53,50.45L327.25,51.82L320.71,76.4L320.17,77.67L319.1,83L318.44,84.28L317.68,87.21L317.15,88.22L314.79,98.32L314.13,99.59L313.22,103.41L312.96,104.61L311.42,109.24L311.24,110.66L309.55,115.18L309.45,116.51L308.97,117.76L308.31,117.28L307.71,117.07L307.39,118.46L305.66,124.48L305.22,125.63L304.18,128.81L303.9,130.07L300.34,142.05L299.81,143.1L297.17,150.82L296.98,152.05L295.31,157.96L294.7,159.08L289.79,175.02L289.35,176.02L278.2,208.42L277.65,209.31L273.95,219.58L273.55,220.63L252.82,271.87L252.29,272.74L245.85,286.9L245.35,287.75L240.45,298.49L239.8,299.32L236.18,306.73L235.79,307.57L228.26,322.11L227.79,322.88L207.67,355.98L207.17,356.64L201.12,365.48L200.37,366.08L197.62,369.62L197.46,370.2L180.34,388.16L179.73,388.57L176.61,390.94L176.14,391.31L173.18,393.52L172.36,393.85L161.16,399.59L160.7,399.79L152.66,402.04L152,402.15L134.76,403.97L134.13,403.99L102.25,404.41L101.49,404.41L26.31,405.14L25.72,405.17L3.26,405.98L2.7,405.94L-27.98,404.79L-28.56,404.78L-172.84,403.78" style="vector-effect: non-scaling-stroke; fill: none; stroke: rgb(28, 167, 28); stroke-opacity: 1; stroke-width: 2px; opacity: 1;"/></g><g class="points"/><g class="text"/></g><g class="trace scatter trace3da5d1" style="stroke-miterlimit: 2; opacity: 1;"><g class="fills"/><g class="errorbars"/><g class="lines"><path class="js-line" d="M-172.42,403.59L65.69,402.84L66.38,402.83L156.66,402.08L157.42,402.07L180.25,400.83L180.74,400.76L191.59,399.05L192.12,398.94L200.72,396.75L201.08,396.59L208.5,393.97L208.84,393.75L216.02,390.42L216.54,390.15L217.39,389.62L217.97,389.34L235.95,376.56L236.08,376.15L238.39,374.07L238.79,373.63L240.88,371.86L241.14,371.41L243.5,369.11L243.93,368.63L253.91,356.65L254.2,356.09L257.01,352.67L257.23,352.09L260.26,347.97L260.67,347.35L264.82,341.11L264.82,340.48L266.63,337.9L267.07,337.27L273.67,325.81L274.06,325.11L276.65,320.68L276.77,319.93L279.8,313.94L280.19,313.2L286.55,299.79L286.77,299.02L289.89,292.56L290.04,291.69L292.01,287.57L292.23,286.77L298.23,272.14L298.19,271.23L299.6,268.63L299.73,267.71L303.42,258.54L303.51,257.61L305.68,252.17L305.96,251.29L309.14,241.86L309.53,240.82L315.66,222.05L315.75,221.01L317.05,217.04L317.47,216.03L318.05,214.01L318.61,213.14L320.3,205.47L320.91,204.49L329.85,175.05L329.86,173.9L331,170.65L331.35,169.57L331.37,168.32L330.8,171.04L330.49,172.07L327.73,183.16L327.12,184.26L326.8,186.56L326.38,187.69L324.36,195.01L323.93,196.13L323.37,199.3L322.85,200.35L320.76,207.59L320.44,208.59L318.83,213.96L318.88,215.06L317.56,218L317.43,219.02L315.97,223.14L315.85,224.07L314.64,227.06L314.57,228.09L310.81,240.41L310.62,241.37L309.49,243.91L309.2,244.76L307.8,248.52L307.54,249.47L303.47,260.91L303.22,261.83L295.72,281.49L295.21,282.35L294.36,285.08L294.12,285.95L292.18,290.13L291.96,290.99L289.62,295.93L289.53,296.73L287.01,301.55L286.92,302.34L282.77,310.98L282.5,311.71L280.04,316.35L279.81,317.07L277.74,320.69L277.51,321.41L272.7,329.86L272.74,330.53L270.83,333.16L270.41,333.83L266.47,340.22L265.93,340.86L263.28,345.21L262.61,345.81L259.5,350.52L258.73,351.11L256.97,353.87L256.38,354.41L254.79,356.57L254.29,357.1L246.1,366.55L245.43,367.03L242.44,370.2L241.85,370.64L237.14,374.8L236.9,375.21L232.03,379.04L231.71,379.4L212.22,391.32L211.48,391.55L209.26,392.67L208.41,392.89L206.92,393.6L206.31,393.81L201.23,395.7L200.59,395.88L197.59,396.87L196.95,397.02L192.81,398.19L192.26,398.32L173.32,401.67L172.89,401.74L151.63,403.21L150.98,403.23L119.59,403.74L119.33,403.75L-172.61,403.59" style="vector-effect: non-scaling-stroke; fill: none; stroke: rgb(182, 129, 0); stroke-opacity: 1; stroke-width: 2px; opacity: 1;"/></g><g class="points"/><g class="text"/></g></g></g><g class="overplot"/><path class="xlines-above crisp" d="M76,429H500" style="fill: none; stroke-width: 2px; stroke: rgb(0, 0, 0); stroke-opacity: 1;"/><path class="ylines-above crisp" d="M77,12V428" style="fill: none; stroke-width: 2px; stroke: rgb(0, 0, 0); stroke-opacity: 1;"/><g class="overlines-above"/><g class="xaxislayer-above"><path class="xtick ticks crisp" d="M0,430v5" transform="translate(78,0)" style="stroke: rgb(68, 68, 68); stroke-opacity: 1; stroke-width: 1px;"/><path class="xtick ticks crisp" d="M0,430v5" transform="translate(134.27,0)" style="stroke: rgb(68, 68, 68); stroke-opacity: 1; stroke-width: 1px;"/><path class="xtick ticks crisp" d="M0,430v5" transform="translate(190.53,0)" style="stroke: rgb(68, 68, 68); stroke-opacity: 1; stroke-width: 1px;"/><path class="xtick ticks crisp" d="M0,430v5" transform="translate(246.8,0)" style="stroke: rgb(68, 68, 68); stroke-opacity: 1; stroke-width: 1px;"/><path class="xtick ticks crisp" d="M0,430v5" transform="translate(303.07,0)" style="stroke: rgb(68, 68, 68); stroke-opacity: 1; stroke-width: 1px;"/><path class="xtick ticks crisp" d="M0,430v5" transform="translate(359.33,0)" style="stroke: rgb(68, 68, 68); stroke-opacity: 1; stroke-width: 1px;"/><path class="xtick ticks crisp" d="M0,430v5" transform="translate(415.6,0)" style="stroke: rgb(68, 68, 68); stroke-opacity: 1; stroke-width: 1px;"/><path class="xtick ticks crisp" d="M0,430v5" transform="translate(471.87,0)" style="stroke: rgb(68, 68, 68); stroke-opacity: 1; stroke-width: 1px;"/><g class="xtick"><text text-anchor="middle" x="0" y="461.4" transform="translate(78,0)" style="font-family: 'Times New Roman', monospace; font-size: 22px; fill: rgb(105, 105, 105); fill-opacity: 1; white-space: pre; opacity: 1;">0</text></g><g class="xtick"><text text-anchor="middle" x="0" y="461.4" style="font-family: 'Times New Roman', monospace; font-size: 22px; fill: rgb(105, 105, 105); fill-opacity: 1; white-space: pre; opacity: 1;" transform="translate(134.27,0)">0.1</text></g><g class="xtick"><text text-anchor="middle" x="0" y="461.4" style="font-family: 'Times New Roman', monospace; font-size: 22px; fill: rgb(105, 105, 105); fill-opacity: 1; white-space: pre; opacity: 1;" transform="translate(190.53,0)">0.2</text></g><g class="xtick"><text text-anchor="middle" x="0" y="461.4" style="font-family: 'Times New Roman', monospace; font-size: 22px; fill: rgb(105, 105, 105); fill-opacity: 1; white-space: pre; opacity: 1;" transform="translate(246.8,0)">0.3</text></g><g class="xtick"><text text-anchor="middle" x="0" y="461.4" style="font-family: 'Times New Roman', monospace; font-size: 22px; fill: rgb(105, 105, 105); fill-opacity: 1; white-space: pre; opacity: 1;" transform="translate(303.07,0)">0.4</text></g><g class="xtick"><text text-anchor="middle" x="0" y="461.4" style="font-family: 'Times New Roman', monospace; font-size: 22px; fill: rgb(105, 105, 105); fill-opacity: 1; white-space: pre; opacity: 1;" transform="translate(359.33,0)">0.5</text></g><g class="xtick"><text text-anchor="middle" x="0" y="461.4" style="font-family: 'Times New Roman', monospace; font-size: 22px; fill: rgb(105, 105, 105); fill-opacity: 1; white-space: pre; opacity: 1;" transform="translate(415.6,0)">0.6</text></g><g class="xtick"><text text-anchor="middle" x="0" y="461.4" style="font-family: 'Times New Roman', monospace; font-size: 22px; fill: rgb(105, 105, 105); fill-opacity: 1; white-space: pre; opacity: 1;" transform="translate(471.87,0)">0.7</text></g></g><g class="yaxislayer-above"><path class="ytick ticks crisp" d="M76,0h-5" transform="translate(0,415.39)" style="stroke: rgb(68, 68, 68); stroke-opacity: 1; stroke-width: 1px;"/><path class="ytick ticks crisp" d="M76,0h-5" transform="translate(0,364.97)" style="stroke: rgb(68, 68, 68); stroke-opacity: 1; stroke-width: 1px;"/><path class="ytick ticks crisp" d="M76,0h-5" transform="translate(0,314.55)" style="stroke: rgb(68, 68, 68); stroke-opacity: 1; stroke-width: 1px;"/><path class="ytick ticks crisp" d="M76,0h-5" transform="translate(0,264.12)" style="stroke: rgb(68, 68, 68); stroke-opacity: 1; stroke-width: 1px;"/><path class="ytick ticks crisp" d="M76,0h-5" transform="translate(0,213.7)" style="stroke: rgb(68, 68, 68); stroke-opacity: 1; stroke-width: 1px;"/><path class="ytick ticks crisp" d="M76,0h-5" transform="translate(0,163.27)" style="stroke: rgb(68, 68, 68); stroke-opacity: 1; stroke-width: 1px;"/><path class="ytick ticks crisp" d="M76,0h-5" transform="translate(0,112.85)" style="stroke: rgb(68, 68, 68); stroke-opacity: 1; stroke-width: 1px;"/><path class="ytick ticks crisp" d="M76,0h-5" transform="translate(0,62.42)" style="stroke: rgb(68, 68, 68); stroke-opacity: 1; stroke-width: 1px;"/><path class="ytick ticks crisp" d="M76,0h-5" transform="translate(0,12)" style="stroke: rgb(68, 68, 68); stroke-opacity: 1; stroke-width: 1px;"/><g class="ytick"><text text-anchor="end" x="66.6" y="7.699999999999999" transform="translate(0,415.39)" style="font-family: 'Times New Roman', monospace; font-size: 22px; fill: rgb(105, 105, 105); fill-opacity: 1; white-space: pre; opacity: 1;">0</text></g><g class="ytick"><text text-anchor="end" x="66.6" y="7.699999999999999" style="font-family: 'Times New Roman', monospace; font-size: 22px; fill: rgb(105, 105, 105); fill-opacity: 1; white-space: pre; opacity: 1;" transform="translate(0,364.97)">20</text></g><g class="ytick"><text text-anchor="end" x="66.6" y="7.699999999999999" style="font-family: 'Times New Roman', monospace; font-size: 22px; fill: rgb(105, 105, 105); fill-opacity: 1; white-space: pre; opacity: 1;" transform="translate(0,314.55)">40</text></g><g class="ytick"><text text-anchor="end" x="66.6" y="7.699999999999999" style="font-family: 'Times New Roman', monospace; font-size: 22px; fill: rgb(105, 105, 105); fill-opacity: 1; white-space: pre; opacity: 1;" transform="translate(0,264.12)">60</text></g><g class="ytick"><text text-anchor="end" x="66.6" y="7.699999999999999" style="font-family: 'Times New Roman', monospace; font-size: 22px; fill: rgb(105, 105, 105); fill-opacity: 1; white-space: pre; opacity: 1;" transform="translate(0,213.7)">80</text></g><g class="ytick"><text text-anchor="end" x="66.6" y="7.699999999999999" style="font-family: 'Times New Roman', monospace; font-size: 22px; fill: rgb(105, 105, 105); fill-opacity: 1; white-space: pre; opacity: 1;" transform="translate(0,163.27)">100</text></g><g class="ytick"><text text-anchor="end" x="66.6" y="7.699999999999999" style="font-family: 'Times New Roman', monospace; font-size: 22px; fill: rgb(105, 105, 105); fill-opacity: 1; white-space: pre; opacity: 1;" transform="translate(0,112.85)">120</text></g><g class="ytick"><text text-anchor="end" x="66.6" y="7.699999999999999" style="font-family: 'Times New Roman', monospace; font-size: 22px; fill: rgb(105, 105, 105); fill-opacity: 1; white-space: pre; opacity: 1;" transform="translate(0,62.42)">140</text></g><g class="ytick"><text text-anchor="end" x="66.6" y="7.699999999999999" style="font-family: 'Times New Roman', monospace; font-size: 22px; fill: rgb(105, 105, 105); fill-opacity: 1; white-space: pre; opacity: 0;" transform="translate(0,12)">160</text></g></g><g class="overaxes-above"/></g></g><g class="polarlayer"/><g class="smithlayer"/><g class="ternarylayer"/><g class="geolayer"/><g class="funnelarealayer"/><g class="pielayer"/><g class="iciclelayer"/><g class="treemaplayer"/><g class="sunburstlayer"/><g class="glimages"/><defs id="topdefs-cc75ef"><g class="clips"/><clipPath id="legendcc75ef"><rect width="186" height="232" x="0" y="0"/></clipPath></defs><g class="layer-above"><g class="imagelayer"/><g class="shapelayer"/></g><g class="infolayer"><g class="legend" pointer-events="all" transform="translate(78,12)"><rect class="bg" shape-rendering="crispEdges" width="186" height="232" x="0" y="0" style="stroke: rgb(68, 68, 68); stroke-opacity: 1; fill: rgb(255, 255, 255); fill-opacity: 1; stroke-width: 0px;"/><g class="scrollbox" transform="" clip-path="url(#legendcc75ef)"><g class="groups"><g class="traces" transform="translate(0,20.8)" style="opacity: 1;"><text class="legendtext" text-anchor="start" x="40" y="8.58" style="font-family: 'Times New Roman', monospace; font-size: 22px; fill: rgb(105, 105, 105); fill-opacity: 1; white-space: pre;">IrO​<tspan style="font-size:70%" dy="0.3em">x</tspan><tspan dy="-0.21em">​</tspan></text><g class="layers" style="opacity: 1;"><g class="legendfill"/><g class="legendlines"><path class="js-line" d="M5,0h30" style="fill: none; stroke: rgb(46, 145, 229); stroke-opacity: 1; stroke-width: 2px;"/></g><g class="legendsymbols"><g class="legendpoints"/></g></g><rect class="legendtoggle" x="0" y="-15.8" width="180.765625" height="31.6" style="fill: rgb(0, 0, 0); fill-opacity: 0;"/></g><g class="traces" transform="translate(0,52.400000000000006)" style="opacity: 1;"><text class="legendtext" text-anchor="start" x="40" y="8.58" style="font-family: 'Times New Roman', monospace; font-size: 22px; fill: rgb(105, 105, 105); fill-opacity: 1; white-space: pre;">Ni​<tspan style="font-size:70%" dy="0.3em">60</tspan><tspan dy="-0.21em">​</tspan>Co​<tspan style="font-size:70%" dy="0.3em">30</tspan><tspan dy="-0.21em">​</tspan>Fe​<tspan style="font-size:70%" dy="0.3em">10</tspan><tspan dy="-0.21em">​</tspan>O​<tspan style="font-size:70%" dy="0.3em">x</tspan><tspan dy="-0.21em">​</tspan></text><g class="layers" style="opacity: 1;"><g class="legendfill"/><g class="legendlines"><path class="js-line" d="M5,0h30" style="fill: none; stroke: rgb(225, 95, 153); stroke-opacity: 1; stroke-width: 2px;"/></g><g class="legendsymbols"><g class="legendpoints"/></g></g><rect class="legendtoggle" x="0" y="-15.8" width="180.765625" height="31.6" style="fill: rgb(0, 0, 0); fill-opacity: 0;"/></g><g class="traces" transform="translate(0,84)" style="opacity: 1;"><text class="legendtext" text-anchor="start" x="40" y="8.58" style="font-family: 'Times New Roman', monospace; font-size: 22px; fill: rgb(105, 105, 105); fill-opacity: 1; white-space: pre;">FeN​<tspan style="font-size:70%" dy="0.3em">x</tspan><tspan dy="-0.21em">​</tspan></text><g class="layers" style="opacity: 1;"><g class="legendfill"/><g class="legendlines"><path class="js-line" d="M5,0h30" style="fill: none; stroke: rgb(251, 13, 13); stroke-opacity: 1; stroke-width: 2px;"/></g><g class="legendsymbols"><g class="legendpoints"/></g></g><rect class="legendtoggle" x="0" y="-15.8" width="180.765625" height="31.6" style="fill: rgb(0, 0, 0); fill-opacity: 0;"/></g><g class="traces" transform="translate(0,115.60000000000001)" style="opacity: 1;"><text class="legendtext" text-anchor="start" x="40" y="8.58" style="font-family: 'Times New Roman', monospace; font-size: 22px; fill: rgb(105, 105, 105); fill-opacity: 1; white-space: pre;">CoN​<tspan style="font-size:70%" dy="0.3em">x</tspan><tspan dy="-0.21em">​</tspan></text><g class="layers" style="opacity: 1;"><g class="legendfill"/><g class="legendlines"><path class="js-line" d="M5,0h30" style="fill: none; stroke: rgb(218, 22, 255); stroke-opacity: 1; stroke-width: 2px;"/></g><g class="legendsymbols"><g class="legendpoints"/></g></g><rect class="legendtoggle" x="0" y="-15.8" width="180.765625" height="31.6" style="fill: rgb(0, 0, 0); fill-opacity: 0;"/></g><g class="traces" transform="translate(0,147.20000000000002)" style="opacity: 1;"><text class="legendtext" text-anchor="start" x="40" y="8.58" style="font-family: 'Times New Roman', monospace; font-size: 22px; fill: rgb(105, 105, 105); fill-opacity: 1; white-space: pre;">NiN​<tspan style="font-size:70%" dy="0.3em">x</tspan><tspan dy="-0.21em">​</tspan></text><g class="layers" style="opacity: 1;"><g class="legendfill"/><g class="legendlines"><path class="js-line" d="M5,0h30" style="fill: none; stroke: rgb(34, 42, 42); stroke-opacity: 1; stroke-width: 2px;"/></g><g class="legendsymbols"><g class="legendpoints"/></g></g><rect class="legendtoggle" x="0" y="-15.8" width="180.765625" height="31.6" style="fill: rgb(0, 0, 0); fill-opacity: 0;"/></g><g class="traces" transform="translate(0,178.8)" style="opacity: 1;"><text class="legendtext" text-anchor="start" x="40" y="8.58" style="font-family: 'Times New Roman', monospace; font-size: 22px; fill: rgb(105, 105, 105); fill-opacity: 1; white-space: pre;">Co​<tspan style="font-size:70%" dy="0.3em">57</tspan><tspan dy="-0.21em">​</tspan>Ni​<tspan style="font-size:70%" dy="0.3em">14</tspan><tspan dy="-0.21em">​</tspan>Fe​<tspan style="font-size:70%" dy="0.3em">29</tspan><tspan dy="-0.21em">​</tspan>N​<tspan style="font-size:70%" dy="0.3em">x</tspan><tspan dy="-0.21em">​</tspan></text><g class="layers" style="opacity: 1;"><g class="legendfill"/><g class="legendlines"><path class="js-line" d="M5,0h30" style="fill: none; stroke: rgb(28, 167, 28); stroke-opacity: 1; stroke-width: 2px;"/></g><g class="legendsymbols"><g class="legendpoints"/></g></g><rect class="legendtoggle" x="0" y="-15.8" width="180.765625" height="31.6" style="fill: rgb(0, 0, 0); fill-opacity: 0;"/></g><g class="traces" transform="translate(0,210.4)" style="opacity: 1;"><text class="legendtext" text-anchor="start" x="40" y="8.58" style="font-family: 'Times New Roman', monospace; font-size: 22px; fill: rgb(105, 105, 105); fill-opacity: 1; white-space: pre;">Co​<tspan style="font-size:70%" dy="0.3em">45</tspan><tspan dy="-0.21em">​</tspan>Ni​<tspan style="font-size:70%" dy="0.3em">45</tspan><tspan dy="-0.21em">​</tspan>Fe​<tspan style="font-size:70%" dy="0.3em">10</tspan><tspan dy="-0.21em">​</tspan>N​<tspan style="font-size:70%" dy="0.3em">x</tspan><tspan dy="-0.21em">​</tspan></text><g class="layers" style="opacity: 1;"><g class="legendfill"/><g class="legendlines"><path class="js-line" d="M5,0h30" style="fill: none; stroke: rgb(182, 129, 0); stroke-opacity: 1; stroke-width: 2px;"/></g><g class="legendsymbols"><g class="legendpoints"/></g></g><rect class="legendtoggle" x="0" y="-15.8" width="180.765625" height="31.6" style="fill: rgb(0, 0, 0); fill-opacity: 0;"/></g></g></g><rect class="scrollbar" rx="20" ry="3" width="0" height="0" x="0" y="0" style="fill: rgb(128, 139, 164); fill-opacity: 1;"/></g><g class="g-gtitle"/><g class="g-xtitle" transform="translate(0,-9.074999999999989)"><text class="xtitle" x="289" y="499.60625" text-anchor="middle" style="font-family: 'Times New Roman', monospace; font-size: 26px; fill: rgb(105, 105, 105); opacity: 1; font-weight: normal; white-space: pre;">Overpotential, η(V) - iR​<tspan style="font-size:70%" dy="0.3em">u</tspan><tspan dy="-0.21em">​</tspan></text></g><g class="g-ytitle" transform="translate(26.5283203125,0)"><text class="ytitle" transform="rotate(-90,0.39374999999999716,220)" x="0.39374999999999716" y="220" text-anchor="middle" style="font-family: 'Times New Roman', monospace; font-size: 26px; fill: rgb(105, 105, 105); opacity: 1; font-weight: normal; white-space: pre;">Current (mA/cm​<tspan style="font-size:70%" dy="-0.6em">2</tspan><tspan dy="0.42em">​</tspan>)</text></g></g></svg>