<svg class="main-svg" xmlns="http://www.w3.org/2000/svg" xmlns:xlink="http://www.w3.org/1999/xlink" width="500" height="500" style="" viewBox="0 0 500 500"><rect x="0" y="0" width="500" height="500" style="fill: rgb(255, 255, 255); fill-opacity: 1;"/><defs id="defs-dd5fcc"><g class="clips"><clipPath id="clipdd5fccxyplot" class="plotclip"><rect width="418" height="428"/></clipPath><clipPath class="axesclip" id="clipdd5fccx"><rect x="68" y="0" width="418" height="500"/></clipPath><clipPath class="axesclip" id="clipdd5fccy"><rect x="0" y="0" width="500" height="428"/></clipPath><clipPath class="axesclip" id="clipdd5fccxy"><rect x="68" y="0" width="418" height="428"/></clipPath></g><g class="gradients"/><g class="patterns"/></defs><g class="bglayer"><rect class="bg" x="68" y="0" width="418" height="428" style="fill: rgb(0, 0, 0); fill-opacity: 0; stroke-width: 0;"/></g><g class="layer-below"><g class="imagelayer"/><g class="shapelayer"/></g><g class="cartesianlayer"><g class="subplot xy"><g class="layer-subplot"><g class="shapelayer"/><g class="imagelayer"/></g><g class="minor-gridlayer"><g class="x"/><g class="y"/></g><g class="gridlayer"><g class="x"/><g class="y"/></g><g class="zerolinelayer"><path class="yzl zl crisp" transform="translate(0,321)" d="M68,0h418" style="stroke: rgb(128, 128, 128); stroke-opacity: 1; stroke-width: 1px;"/></g><path class="xlines-below"/><path class="ylines-below"/><g class="overlines-below"/><g class="xaxislayer-below"/><g class="yaxislayer-below"/><g class="overaxes-below"/><g class="plot" transform="translate(68,0)" clip-path="url(#clipdd5fccxyplot)"><g class="scatterlayer mlayer"><g class="trace scatter tracebac345" style="stroke-miterlimit: 2; opacity: 1;"><g class="fills"/><g class="errorbars"/><g class="lines"><path class="js-line" d="M-254.79,320.88L-104.89,320.15L-104.01,320.13L-7.78,317.35L-6.53,317.28L15.43,315.27L16.81,315.14L41.75,310.81L42.68,310.56L63.55,304.16L64.39,303.75L81.23,295.95L82.1,295.37L83.97,294.19L85.47,293.6L95.53,286.86L96.36,286.13L104.77,279.78L105.4,278.93L110.01,275.08L111.15,274.18L117.56,268.42L118.43,267.38L120.31,265.34L121.61,264.29L142.07,240.99L142.95,239.71L149.02,231.85L150.07,230.53L153.26,226.54L154.48,225.17L160.33,216.96L161.3,215.58L167.61,207.38L168.48,206.01L174.27,197.77L175.66,196.42L177.58,193.83L178.45,192.49L193.97,174.24L195.23,173.16L199.18,169.04L200.38,168.05L204.2,164.56L205.35,163.71L212.26,158.73L213.5,158.08L224.22,153.93L225,153.71L229.9,153.11L230.93,153.02L239.6,153.54L240.5,153.71L251.32,156.36L252.45,156.64L258.37,158.26L259.63,158.46L267.76,158.68L269.13,158.48L272.96,157.4L274.24,156.97L291.69,146.6L292.57,146.26L296.85,145.81L298.19,145.81L303.35,147.3L304.18,147.87L309.81,151.79L310.93,152.89L322.39,165.09L323.36,166.35L336.08,178.82L337.21,179.87L345.56,186.05L347.03,186.77L356.61,191.87L357.46,192.28L363.65,194.65L364.87,195.18L379.76,197.07L380.67,197L393.18,193.85L394.09,193.33L404.27,185.6L405.24,184.5L411.99,176.19L412.53,174.6L414.34,171.1L415.77,169.24L417.45,165.43L418.07,163.23L421.44,155.96L422.15,153.32L425.76,144.89L426.03,141.81L430.57,128.26L430.97,124.37L434.44,111.98L435.05,107.53L448.5,28.25L449.31,21.32L468.77,-177.3L469.48,-188.04L503.3,-725.54L503.97,-739.79L704.41,-6138.46L556.99,-1866.31L556.06,-1850.27L497.95,-732.24L497.17,-719.44L464.47,-239.41L463.64,-228.81L448.37,-50.99L447.41,-41.97L433.27,88.88L432.1,96.2L425.88,143.42L424.56,151.54L418.31,191.71L417.25,196.71L415.44,206.92L414.59,211.87L402.73,260.59L401.8,263.95L397.27,278.81L396.05,281.54L385.59,303.59L384.65,305.25L382.61,308.39L381.36,309.81L378.42,313.67L377.2,314.9L373.43,319.28L372.11,320.19L365.33,325.6L364.1,326.23L355.98,330.44L354.62,330.85L349.41,332.62L348.51,332.94L335.85,335.67L334.72,335.85L327.48,336.82L326.88,336.75L317.43,337.78L316.47,337.89L275.44,339.02L274.51,339.02L268.14,339.05L267.28,339.02L250.29,339.06L249.07,339.05L212.53,339.59L211.35,339.65L176.86,342.15L176.02,342.35L150.29,349.09L149.21,349.68L145.2,352.9L144.13,353.89L138.79,359.74L137.95,361.05L132.42,367.15L131.29,368.07L127.36,370.68L125.93,370.94L122.03,371.45L120.96,371.3L116.6,370.01L115.85,369.51L90.54,354L89.38,353.55L76.93,349.06L75.63,348.82L58.09,345.69L56.63,345.58L24.56,344.06L23.25,344.04L-20.31,343.56L-21.41,343.49L-50.97,341.29L-52.29,341.16L-171.68,328.85L-172.68,328.81L-216.38,327.36L-174.78,324.91L-173.7,324.87L-112.32,322.98L-111.28,322.95L-50.62,319.27L-49.41,319.15L-27.45,315.23L-26.24,314.98L7.22,303.28L7.92,302.85L12.99,300.68L14,300.27L34.81,293.53L36.03,293.3L47.49,291.6L48.33,291.5L61.16,291.37L62.01,291.39L79.86,293.1L80.71,293.24L117.36,296.84L118.52,296.87L144.79,296.98L145.75,296.87L159.54,296.05L160.18,295.97L172.12,294.48L173.15,294.27L187.47,290.35L188.5,289.94L194.7,286.96L195.64,286.26L199.75,283.06L201,282.06L205.4,276.85L206.57,275.39L214.49,262.64L215.76,261.2L219.52,257.06L220.76,256.34L223.73,255.22L224.96,255.15L227.88,255.76L229.22,256.18L233.19,259.03L234.52,259.85L248.36,271.44L249.32,272.14L252.42,274.18L253.64,274.86L259.75,278.28L260.74,278.67L270.2,281.67L271.49,281.92L277.45,283.25L278.36,283.47L289.27,285.16L290.14,285.29L309.23,286.53L310.53,286.55L322.89,286.35L323.94,286.33L347.88,284.44L348.45,284.38L368.54,280.37L369.58,279.99L379.84,275.7L381.04,275L388.18,269.78L389.13,268.89L395.35,262.66L396.34,261.32L401.47,254.04L402.46,252.31L407.38,242.8L408.39,240.57L411.67,233.36L412.64,230.6L414.42,225.15L415.64,222.11L423.41,194.31L424.28,190.38L438.67,112.97L439.46,106.74L448.62,36.84L449.28,29.16L458.19,-53.95L459.04,-62.86L466.3,-140.7L467.17,-150.54L538.14,-1304.43L538.62,-1319.56L708.46,-5909.44L646.02,-3919.77L645.37,-3899.2L499.73,-696.15L498.8,-683.63L472.81,-312.78L471.7,-302.19L458.95,-151.12L458.15,-141.43L443.28,7.41L442.27,15.41L436.34,68.57L435.06,75.96L422.06,167.38L421,172.98L417.14,193.98L416.11,199.04L413.53,213.49L412.47,218.06L404.83,250.47L403.78,254.12L393.95,284.25L392.98,286.51L385.81,301.54L384.42,303.65L382.67,307.29L381.42,308.8L373.41,318.93L372.16,319.89L363.05,327.1L361.74,327.69L356.13,330.76L354.88,331.23L350.81,332.62L349.47,333L333.23,336.55L331.83,336.65L290.11,338.78L289.1,338.75L261.57,338.8L260.71,338.76L257.54,338.75L256.47,338.78L230.7,338.97L229.55,339.08L211.78,339.79L210.48,339.86L194.07,341.2L192.73,341.17L169.34,344.81L169.09,345.07L149.85,351.45L149.02,352.09L140.83,359.83L140.05,360.94L130.41,370.92L129.55,371.58L124.55,372.8L123.17,372.77L118.94,371.52L117.54,371.01L106.13,362.91L105.4,362.13L89.42,352.86L88.25,352.38L76.64,348.56L75.67,348.31L64.17,346.16L62.99,346.02L45.33,344.36L44.12,344.34L13.75,343.84L12.8,343.85L-30.21,343.46L-31.2,343.43L-72.17,339L-73.3,338.75L-131.01,331.31L-132.22,331.24L-216.22,327.42L-190.87,325.67L-190.04,325.62L-51.9,319.49L-50.62,319.36L-31.48,316.08L-30.4,315.83L-14.88,311.29L-13.89,310.93L3.83,304.15L4.95,303.74L22.36,297.46L23.46,297.16L38.99,294.07L40.17,293.96L55.08,293.61L55.98,293.65L80.89,296.3L82.05,296.43L108.22,299.08L109.3,299.12L126.76,299.75L127.72,299.75L158.21,298.55L159.36,298.41L169.58,297.21L170.92,297.05L181.62,294.89L182.32,294.58L192.42,290.77L193.67,290.2L196.75,288.34L197.53,287.63L201.17,285.07L201.86,284.08L206.12,279.3L207.46,277.42L218.54,261.14L219.79,260.18L223.73,257.92L224.95,257.73L227.9,258.04L229.02,258.38L233.29,260.9L234.31,261.66L243.94,269.3L245.01,270.16L248.1,272.52L249.25,273.17L256.55,277.48L257.79,278L263.97,280.82L264.93,281.25L283.85,286.78L285.11,287.02L290.09,288.16L291.23,288.34L307.05,290.16L308.12,290.21L323.92,290.48L324.91,290.47L332.25,290.24L333.23,290.07L341.57,289.73L342.67,289.6L361.29,286.93L362.36,286.73L373.78,283.21L374.82,282.77L383.13,278.34L384.2,277.63L389.28,273.45L390.36,272.54L396.59,265.65L397.57,264.31L403.59,254.58L404.58,252.67L407.61,246.57L408.6,244.27L416.89,222.45L417.69,219.26L420.5,209.05L421.6,205.34L427.51,180.8L428.02,176.17L440.46,105.58L441.36,99.24L472.48,-189.8L473.27,-199.59L483.73,-323.64L484.38,-334.53L625.03,-3085.89L625.67,-3104.23L713.05,-5681.27L545.52,-1361.12L544.92,-1347.06L470.24,-232.77L468.91,-223.05L452.65,-52.67L451.54,-44.38L440.25,55.3L439.44,62.35L435.47,89.88L434.73,96.49L427.64,141.3L427.2,147.58L423.15,169.69L422.42,175.07L417.41,199.89L416.56,204.65L405.74,249.65L404.64,253.04L401.02,266.08L399.84,269.03L391.03,291.84L389.97,294L382.62,307.35L381.4,308.84L372.23,319.71L371.14,320.66L368.17,323.28L366.99,323.98L356.71,330.04L355.87,330.44L345.44,333.77L344.21,334.02L334.75,335.76L333.83,335.92L328.76,336.54L327.59,336.63L323.42,337.01L322.18,337.1L303.57,338.04L302.3,338.05L247.28,338.45L246.25,338.28L238.06,338.6L236.88,338.65L219.2,339.16L217.94,339.29L191.8,341.61L190.97,341.76L167.77,345.91L166.8,346.15L157.58,349.15L156.5,349.54L149.34,352.87L148.42,353.53L145.01,355.95L144.18,356.85L130.37,369.63L129.15,370.19L126.44,371.05L125.29,371.19L120.72,370.7L119.81,370.43L110.56,364.85L109.52,364.18L91.52,353.39L90.35,352.9L77.65,348.54L76.62,348.27L58.85,345.15L57.82,345.05L32.2,343.62L31.43,343.59L-46.61,342.09L-47.82,341.97L-78.5,337.73L-79.55,337.56L-141.59,330.5L-142.59,330.43L-216.5,327.58" style="vector-effect: non-scaling-stroke; fill: none; stroke: rgb(28, 167, 28); stroke-opacity: 1; stroke-width: 2px; opacity: 1;"/></g><g class="points"/><g class="text"/></g></g></g><g class="overplot"/><path class="xlines-above crisp" d="M66,429H486" style="fill: none; stroke-width: 2px; stroke: rgb(0, 0, 0); stroke-opacity: 1;"/><path class="ylines-above crisp" d="M67,0V428" style="fill: none; stroke-width: 2px; stroke: rgb(0, 0, 0); stroke-opacity: 1;"/><g class="overlines-above"/><g class="xaxislayer-above"><path class="xtick ticks crisp" d="M0,430v5" transform="translate(68,0)" style="stroke: rgb(68, 68, 68); stroke-opacity: 1; stroke-width: 1px;"/><path class="xtick ticks crisp" d="M0,430v5" transform="translate(120.25,0)" style="stroke: rgb(68, 68, 68); stroke-opacity: 1; stroke-width: 1px;"/><path class="xtick ticks crisp" d="M0,430v5" transform="translate(172.5,0)" style="stroke: rgb(68, 68, 68); stroke-opacity: 1; stroke-width: 1px;"/><path class="xtick ticks crisp" d="M0,430v5" transform="translate(224.75,0)" style="stroke: rgb(68, 68, 68); stroke-opacity: 1; stroke-width: 1px;"/><path class="xtick ticks crisp" d="M0,430v5" transform="translate(277,0)" style="stroke: rgb(68, 68, 68); stroke-opacity: 1; stroke-width: 1px;"/><path class="xtick ticks crisp" d="M0,430v5" transform="translate(329.25,0)" style="stroke: rgb(68, 68, 68); stroke-opacity: 1; stroke-width: 1px;"/><path class="xtick ticks crisp" d="M0,430v5" transform="translate(381.5,0)" style="stroke: rgb(68, 68, 68); stroke-opacity: 1; stroke-width: 1px;"/><path class="xtick ticks crisp" d="M0,430v5" transform="translate(433.75,0)" style="stroke: rgb(68, 68, 68); stroke-opacity: 1; stroke-width: 1px;"/><path class="xtick ticks crisp" d="M0,430v5" transform="translate(486,0)" style="stroke: rgb(68, 68, 68); stroke-opacity: 1; stroke-width: 1px;"/><g class="xtick"><text text-anchor="middle" x="0" y="461.4" transform="translate(68,0)" style="font-family: 'Times New Roman', monospace; font-size: 22px; fill: rgb(105, 105, 105); fill-opacity: 1; white-space: pre; opacity: 1;">−0.1</text></g><g class="xtick"><text text-anchor="middle" x="0" y="461.4" style="font-family: 'Times New Roman', monospace; font-size: 22px; fill: rgb(105, 105, 105); fill-opacity: 1; white-space: pre; opacity: 1;" transform="translate(120.25,0)">−0.05</text></g><g class="xtick"><text text-anchor="middle" x="0" y="461.4" style="font-family: 'Times New Roman', monospace; font-size: 22px; fill: rgb(105, 105, 105); fill-opacity: 1; white-space: pre; opacity: 1;" transform="translate(172.5,0)">0</text></g><g class="xtick"><text text-anchor="middle" x="0" y="461.4" style="font-family: 'Times New Roman', monospace; font-size: 22px; fill: rgb(105, 105, 105); fill-opacity: 1; white-space: pre; opacity: 1;" transform="translate(224.75,0)">0.05</text></g><g class="xtick"><text text-anchor="middle" x="0" y="461.4" style="font-family: 'Times New Roman', monospace; font-size: 22px; fill: rgb(105, 105, 105); fill-opacity: 1; white-space: pre; opacity: 1;" transform="translate(277,0)">0.1</text></g><g class="xtick"><text text-anchor="middle" x="0" y="461.4" style="font-family: 'Times New Roman', monospace; font-size: 22px; fill: rgb(105, 105, 105); fill-opacity: 1; white-space: pre; opacity: 1;" transform="translate(329.25,0)">0.15</text></g><g class="xtick"><text text-anchor="middle" x="0" y="461.4" style="font-family: 'Times New Roman', monospace; font-size: 22px; fill: rgb(105, 105, 105); fill-opacity: 1; white-space: pre; opacity: 1;" transform="translate(381.5,0)">0.2</text></g><g class="xtick"><text text-anchor="middle" x="0" y="461.4" style="font-family: 'Times New Roman', monospace; font-size: 22px; fill: rgb(105, 105, 105); fill-opacity: 1; white-space: pre; opacity: 1;" transform="translate(433.75,0)">0.25</text></g><g class="xtick"><text text-anchor="middle" x="0" y="461.4" style="font-family: 'Times New Roman', monospace; font-size: 22px; fill: rgb(105, 105, 105); fill-opacity: 1; white-space: pre; opacity: 1;" transform="translate(486,0)">0.3</text></g></g><g class="yaxislayer-above"><path class="ytick ticks crisp" d="M66,0h-5" transform="translate(0,406.6)" style="stroke: rgb(68, 68, 68); stroke-opacity: 1; stroke-width: 1px;"/><path class="ytick ticks crisp" d="M66,0h-5" transform="translate(0,321)" style="stroke: rgb(68, 68, 68); stroke-opacity: 1; stroke-width: 1px;"/><path class="ytick ticks crisp" d="M66,0h-5" transform="translate(0,235.4)" style="stroke: rgb(68, 68, 68); stroke-opacity: 1; stroke-width: 1px;"/><path class="ytick ticks crisp" d="M66,0h-5" transform="translate(0,149.8)" style="stroke: rgb(68, 68, 68); stroke-opacity: 1; stroke-width: 1px;"/><path class="ytick ticks crisp" d="M66,0h-5" transform="translate(0,64.2)" style="stroke: rgb(68, 68, 68); stroke-opacity: 1; stroke-width: 1px;"/><g class="ytick"><text text-anchor="end" x="56.6" y="7.699999999999999" transform="translate(0,406.6)" style="font-family: 'Times New Roman', monospace; font-size: 22px; fill: rgb(105, 105, 105); fill-opacity: 1; white-space: pre; opacity: 1;">−2</text></g><g class="ytick"><text text-anchor="end" x="56.6" y="7.699999999999999" style="font-family: 'Times New Roman', monospace; font-size: 22px; fill: rgb(105, 105, 105); fill-opacity: 1; white-space: pre; opacity: 1;" transform="translate(0,321)">0</text></g><g class="ytick"><text text-anchor="end" x="56.6" y="7.699999999999999" style="font-family: 'Times New Roman', monospace; font-size: 22px; fill: rgb(105, 105, 105); fill-opacity: 1; white-space: pre; opacity: 1;" transform="translate(0,235.4)">2</text></g><g class="ytick"><text text-anchor="end" x="56.6" y="7.699999999999999" style="font-family: 'Times New Roman', monospace; font-size: 22px; fill: rgb(105, 105, 105); fill-opacity: 1; white-space: pre; opacity: 1;" transform="translate(0,149.8)">4</text></g><g class="ytick"><text text-anchor="end" x="56.6" y="7.699999999999999" style="font-family: 'Times New Roman', monospace; font-size: 22px; fill: rgb(105, 105, 105); fill-opacity: 1; white-space: pre; opacity: 1;" transform="translate(0,64.2)">6</text></g></g><g class="overaxes-above"/></g></g><g class="polarlayer"/><g class="smithlayer"/><g class="ternarylayer"/><g class="geolayer"/><g class="funnelarealayer"/><g class="pielayer"/><g class="iciclelayer"/><g class="treemaplayer"/><g class="sunburstlayer"/><g class="glimages"/><defs id="topdefs-dd5fcc"><g class="clips"/></defs><g class="layer-above"><g class="imagelayer"/><g class="shapelayer"/></g><g class="infolayer"><g class="g-gtitle"/><g class="g-xtitle" transform="translate(0,-9.074999999999989)"><text class="xtitle" x="277" y="499.60625" text-anchor="middle" style="font-family: 'Times New Roman', monospace; font-size: 26px; fill: rgb(105, 105, 105); opacity: 1; font-weight: normal; white-space: pre;">Overpotential, η(V) - iR​<tspan style="font-size:70%" dy="0.3em">u</tspan><tspan dy="-0.21em">​</tspan></text></g><g class="g-ytitle" transform="translate(26.9345703125,0)"><text class="ytitle" transform="rotate(-90,-0.012500000000002842,214)" x="-0.012500000000002842" y="214" text-anchor="middle" style="font-family: 'Times New Roman', monospace; font-size: 26px; fill: rgb(105, 105, 105); opacity: 1; font-weight: normal; white-space: pre;">Current (mA/cm​<tspan style="font-size:70%" dy="-0.6em">2</tspan><tspan dy="0.42em">​</tspan>)</text></g></g></svg>