<svg class="main-svg" xmlns="http://www.w3.org/2000/svg" xmlns:xlink="http://www.w3.org/1999/xlink" width="500" height="500" style="" viewBox="0 0 500 500"><rect x="0" y="0" width="500" height="500" style="fill: rgb(255, 255, 255); fill-opacity: 1;"/><defs id="defs-134a09"><g class="clips"><clipPath id="clip134a09xyplot" class="plotclip"><rect width="396" height="408"/></clipPath><clipPath class="axesclip" id="clip134a09x"><rect x="87" y="0" width="396" height="500"/></clipPath><clipPath class="axesclip" id="clip134a09y"><rect x="0" y="16" width="500" height="408"/></clipPath><clipPath class="axesclip" id="clip134a09xy"><rect x="87" y="16" width="396" height="408"/></clipPath></g><g class="gradients"/><g class="patterns"/></defs><g class="bglayer"><rect class="bg" x="87" y="16" width="396" height="408" style="fill: rgb(0, 0, 0); fill-opacity: 0; stroke-width: 0;"/></g><g class="layer-below"><g class="imagelayer"/><g class="shapelayer"/></g><g class="cartesianlayer"><g class="subplot xy"><g class="layer-subplot"><g class="shapelayer"/><g class="imagelayer"/></g><g class="minor-gridlayer"><g class="x"/><g class="y"/></g><g class="gridlayer"><g class="x"/><g class="y"/></g><g class="zerolinelayer"><path class="yzl zl crisp" transform="translate(0,398.5)" d="M87,0h396" style="stroke: rgb(128, 128, 128); stroke-opacity: 1; stroke-width: 1px;"/></g><path class="xlines-below"/><path class="ylines-below"/><g class="overlines-below"/><g class="xaxislayer-below"/><g class="yaxislayer-below"/><g class="overaxes-below"/><g class="plot" transform="translate(87,16)" clip-path="url(#clip134a09xyplot)"><g class="scatterlayer mlayer"><g class="trace scatter tracefb2034" style="stroke-miterlimit: 2; opacity: 1;"><g class="fills"/><g class="errorbars"/><g class="lines"><path class="js-line" d="M-173.35,382.88L-15.61,380.99L-15.07,381L39.77,380.99L40.44,380.98L55.74,379.9L56.28,379.81L65.2,378.73L65.8,378.73L76.07,379.47L76.57,379.53L103.33,380.6L104.03,380.6L139.01,380.47L139.59,380.46L158.66,379.12L159.2,379.04L171.07,375.83L171.66,375.61L177.27,372.72L177.52,372.41L181.57,370.03L181.87,369.67L189.61,362.86L190.13,362.38L194.01,358.33L194.42,357.8L200.92,350.3L201.15,349.7L217.76,324.57L218.2,323.83L241.61,279.06L241.75,278.2L262.92,229.58L263.14,228.61L272.75,205.01L273.04,203.96L274.89,198.52L275.32,197.5L278.26,189.14L278.65,187.91L280.69,182.86L281.12,181.78L299.42,128.56L299.7,126.95L302.2,120.12L302.5,118.99L303.96,114.56L304.38,113.6L307.5,104.69L307.76,103.5L308.47,98.92L308.58,94.99L311.06,86.91L311.49,85.77L316.81,67.88L317.02,66L320.9,53.01L321.35,51.81L322.2,49.66L322.46,48.38L323.52,44.84L323.92,43.58L329.44,24.89L329.3,25.52L329.03,26.92L322.44,51.77L321.9,53.05L320.83,58.45L320.17,59.74L319.4,62.71L318.87,63.73L316.5,73.94L315.84,75.23L314.92,79.09L314.66,80.31L313.11,84.99L312.93,86.42L311.23,90.99L311.13,92.34L310.64,93.61L309.98,93.12L309.38,92.91L309.06,94.31L307.32,100.4L306.87,101.57L305.83,104.78L305.54,106.06L301.97,118.18L301.44,119.23L298.78,127.04L298.59,128.28L296.91,134.27L296.3,135.4L291.36,151.52L290.92,152.53L281.21,180.99L280.72,182.09L275.04,197.65L274.62,198.7L257.8,240.99L257.28,241.92L248.5,261.93L247.93,262.82L243.97,271.73L243.34,272.6L236.25,287.27L235.74,288.13L232.42,294.69L232.01,295.48L210.13,332.55L209.7,333.22L204.58,341.01L203.82,341.64L202.77,343.52L202.21,344.15L200.67,345.96L200.41,346.56L197.28,350.09L196.8,350.66L195.61,352.34L194.97,352.9L185.98,362.65L185.67,363.13L174.11,372.51L173.29,372.84L163.08,378.25L162.48,378.45L156.63,380.36L156.25,380.49L147.8,382.09L147.1,382.17L136.53,383.04L136.08,383.06L113.37,383.49L112.81,383.48L84.02,383.53L83.52,383.53L26.46,384.27L25.86,384.29L4.39,385.2L3.79,385.16L-19.09,384.03L-19.54,384.02L-173.77,382.89" style="vector-effect: non-scaling-stroke; fill: none; stroke: rgb(28, 167, 28); stroke-opacity: 1; stroke-width: 3px; opacity: 1;"/></g><g class="points"/><g class="text"/></g><g class="trace scatter traceab9ad1" style="stroke-miterlimit: 2; opacity: 1;"><g class="fills"/><g class="errorbars"/><g class="lines"><path class="js-line" d="M-173.36,382.7L-17.8,382.34L-17.23,382.34L43.36,382.12L44.04,382.12L141.24,381.37L141.83,381.36L172.95,380.62L173.27,380.59L189.06,378.83L189.33,378.73L197.09,377.12L197.33,376.98L204.3,374.92L204.83,374.74L211.25,372.31L211.37,372.08L216.62,369.64L217.19,369.37L225.51,364.34L225.88,364.01L229.8,361.25L230.37,360.89L235.03,357.1L235.3,356.63L239.04,353.7L239.24,353.27L248.82,343.36L249.14,342.85L251.48,340.23L251.85,339.69L262.56,325.18L262.67,324.56L267.8,316.91L268.07,316.26L273.65,306.83L273.86,306.12L274.85,304.72L275.15,304.03L282.11,290.5L282.3,289.73L284.47,285.78L284.78,285.01L290.79,271.25L291.46,270.41L292.2,267.84L292.8,266.99L293.81,264.54L294.16,263.73L306.3,232.2L306.31,231.27L307.87,227.69L308.11,226.81L308.89,224.99L309.25,223.97L310.28,221.09L310.56,220.13L313.71,210.07L314.1,209.05L315.83,204.18L315.94,203.09L319.77,190.96L320.34,190.08L322.03,182.32L322.64,181.33L331.64,151.55L331.65,150.39L332.79,147.1L333.15,146.01L333.16,144.74L332.59,147.49L332.28,148.54L329.51,159.75L328.9,160.87L328.57,163.19L328.15,164.33L326.12,171.73L325.69,172.87L325.12,176.07L324.6,177.13L322.49,184.46L322.18,185.47L320.56,190.91L320.61,192.01L319.28,194.99L319.15,196.02L317.68,200.19L317.56,201.13L316.35,204.16L316.27,205.19L307.54,231.79L307.35,232.72L305.11,238.39L304.86,239.32L297.74,258.41L297.32,259.2L295.95,262.84L295.71,263.72L293.76,267.94L293.54,268.81L291.19,273.81L291.1,274.62L288.57,279.49L288.48,280.3L284.7,288.27L284.3,289.03L281.32,295.19L280.74,295.92L279.81,298.12L279.24,298.85L277.46,302.5L277.04,303.21L274.17,308.13L274.22,308.8L272.3,311.46L271.87,312.14L267.91,318.6L267.38,319.25L264.71,323.65L264.03,324.26L260.91,329.02L260.14,329.62L258.36,332.41L257.77,332.96L256.17,335.14L255.67,335.68L247.43,345.24L246.76,345.72L243.76,348.93L243.16,349.37L238.42,353.58L238.18,353.99L233.28,357.87L232.96,358.23L213.37,370.29L212.62,370.52L209.28,372.17L208.39,372.38L204.81,373.79L204.42,373.98L193.86,377.23L193.3,377.37L174.26,380.76L173.82,380.82L156.9,382.13L156.22,382.15L147.46,382.48L146.71,382.49L133.94,382.73L133.27,382.74L100.04,382.94L99.36,382.94L-173.54,382.69" style="vector-effect: non-scaling-stroke; fill: none; stroke: rgb(182, 129, 0); stroke-opacity: 1; stroke-width: 3px; opacity: 1;"/></g><g class="points"/><g class="text"/></g></g></g><g class="overplot"/><path class="xlines-above crisp" d="M85,425H483" style="fill: none; stroke-width: 2px; stroke: rgb(0, 0, 0); stroke-opacity: 1;"/><path class="ylines-above crisp" d="M86,16V424" style="fill: none; stroke-width: 2px; stroke: rgb(0, 0, 0); stroke-opacity: 1;"/><g class="overlines-above"/><g class="xaxislayer-above"><path class="xtick ticks crisp" d="M0,426v5" transform="translate(87,0)" style="stroke: rgb(68, 68, 68); stroke-opacity: 1; stroke-width: 1px;"/><path class="xtick ticks crisp" d="M0,426v5" transform="translate(143.57,0)" style="stroke: rgb(68, 68, 68); stroke-opacity: 1; stroke-width: 1px;"/><path class="xtick ticks crisp" d="M0,426v5" transform="translate(200.14,0)" style="stroke: rgb(68, 68, 68); stroke-opacity: 1; stroke-width: 1px;"/><path class="xtick ticks crisp" d="M0,426v5" transform="translate(256.71000000000004,0)" style="stroke: rgb(68, 68, 68); stroke-opacity: 1; stroke-width: 1px;"/><path class="xtick ticks crisp" d="M0,426v5" transform="translate(313.28999999999996,0)" style="stroke: rgb(68, 68, 68); stroke-opacity: 1; stroke-width: 1px;"/><path class="xtick ticks crisp" d="M0,426v5" transform="translate(369.86,0)" style="stroke: rgb(68, 68, 68); stroke-opacity: 1; stroke-width: 1px;"/><path class="xtick ticks crisp" d="M0,426v5" transform="translate(426.43,0)" style="stroke: rgb(68, 68, 68); stroke-opacity: 1; stroke-width: 1px;"/><path class="xtick ticks crisp" d="M0,426v5" transform="translate(483,0)" style="stroke: rgb(68, 68, 68); stroke-opacity: 1; stroke-width: 1px;"/><g class="xtick"><text text-anchor="middle" x="0" y="459.8" transform="translate(87,0)" style="font-family: Arial, monospace; font-size: 24px; fill: rgb(0, 0, 0); fill-opacity: 1; white-space: pre; opacity: 1;">0</text></g><g class="xtick"><text text-anchor="middle" x="0" y="459.8" style="font-family: Arial, monospace; font-size: 24px; fill: rgb(0, 0, 0); fill-opacity: 1; white-space: pre; opacity: 1;" transform="translate(143.57,0)">0.1</text></g><g class="xtick"><text text-anchor="middle" x="0" y="459.8" style="font-family: Arial, monospace; font-size: 24px; fill: rgb(0, 0, 0); fill-opacity: 1; white-space: pre; opacity: 1;" transform="translate(200.14,0)">0.2</text></g><g class="xtick"><text text-anchor="middle" x="0" y="459.8" style="font-family: Arial, monospace; font-size: 24px; fill: rgb(0, 0, 0); fill-opacity: 1; white-space: pre; opacity: 1;" transform="translate(256.71000000000004,0)">0.3</text></g><g class="xtick"><text text-anchor="middle" x="0" y="459.8" style="font-family: Arial, monospace; font-size: 24px; fill: rgb(0, 0, 0); fill-opacity: 1; white-space: pre; opacity: 1;" transform="translate(313.28999999999996,0)">0.4</text></g><g class="xtick"><text text-anchor="middle" x="0" y="459.8" style="font-family: Arial, monospace; font-size: 24px; fill: rgb(0, 0, 0); fill-opacity: 1; white-space: pre; opacity: 1;" transform="translate(369.86,0)">0.5</text></g><g class="xtick"><text text-anchor="middle" x="0" y="459.8" style="font-family: Arial, monospace; font-size: 24px; fill: rgb(0, 0, 0); fill-opacity: 1; white-space: pre; opacity: 1;" transform="translate(426.43,0)">0.6</text></g><g class="xtick"><text text-anchor="middle" x="0" y="459.8" style="font-family: Arial, monospace; font-size: 24px; fill: rgb(0, 0, 0); fill-opacity: 1; white-space: pre; opacity: 1;" transform="translate(483,0)">0.7</text></g></g><g class="yaxislayer-above"><path class="ytick ticks crisp" d="M85,0h-5" transform="translate(0,398.5)" style="stroke: rgb(68, 68, 68); stroke-opacity: 1; stroke-width: 1px;"/><path class="ytick ticks crisp" d="M85,0h-5" transform="translate(0,347.5)" style="stroke: rgb(68, 68, 68); stroke-opacity: 1; stroke-width: 1px;"/><path class="ytick ticks crisp" d="M85,0h-5" transform="translate(0,296.5)" style="stroke: rgb(68, 68, 68); stroke-opacity: 1; stroke-width: 1px;"/><path class="ytick ticks crisp" d="M85,0h-5" transform="translate(0,245.5)" style="stroke: rgb(68, 68, 68); stroke-opacity: 1; stroke-width: 1px;"/><path class="ytick ticks crisp" d="M85,0h-5" transform="translate(0,194.5)" style="stroke: rgb(68, 68, 68); stroke-opacity: 1; stroke-width: 1px;"/><path class="ytick ticks crisp" d="M85,0h-5" transform="translate(0,143.5)" style="stroke: rgb(68, 68, 68); stroke-opacity: 1; stroke-width: 1px;"/><path class="ytick ticks crisp" d="M85,0h-5" transform="translate(0,92.5)" style="stroke: rgb(68, 68, 68); stroke-opacity: 1; stroke-width: 1px;"/><path class="ytick ticks crisp" d="M85,0h-5" transform="translate(0,41.5)" style="stroke: rgb(68, 68, 68); stroke-opacity: 1; stroke-width: 1px;"/><g class="ytick"><text text-anchor="end" x="75.2" y="8.399999999999999" transform="translate(0,398.5)" style="font-family: Arial, monospace; font-size: 24px; fill: rgb(0, 0, 0); fill-opacity: 1; white-space: pre; opacity: 1;">0</text></g><g class="ytick"><text text-anchor="end" x="75.2" y="8.399999999999999" style="font-family: Arial, monospace; font-size: 24px; fill: rgb(0, 0, 0); fill-opacity: 1; white-space: pre; opacity: 1;" transform="translate(0,347.5)">20</text></g><g class="ytick"><text text-anchor="end" x="75.2" y="8.399999999999999" style="font-family: Arial, monospace; font-size: 24px; fill: rgb(0, 0, 0); fill-opacity: 1; white-space: pre; opacity: 1;" transform="translate(0,296.5)">40</text></g><g class="ytick"><text text-anchor="end" x="75.2" y="8.399999999999999" style="font-family: Arial, monospace; font-size: 24px; fill: rgb(0, 0, 0); fill-opacity: 1; white-space: pre; opacity: 1;" transform="translate(0,245.5)">60</text></g><g class="ytick"><text text-anchor="end" x="75.2" y="8.399999999999999" style="font-family: Arial, monospace; font-size: 24px; fill: rgb(0, 0, 0); fill-opacity: 1; white-space: pre; opacity: 1;" transform="translate(0,194.5)">80</text></g><g class="ytick"><text text-anchor="end" x="75.2" y="8.399999999999999" style="font-family: Arial, monospace; font-size: 24px; fill: rgb(0, 0, 0); fill-opacity: 1; white-space: pre; opacity: 1;" transform="translate(0,143.5)">100</text></g><g class="ytick"><text text-anchor="end" x="75.2" y="8.399999999999999" style="font-family: Arial, monospace; font-size: 24px; fill: rgb(0, 0, 0); fill-opacity: 1; white-space: pre; opacity: 1;" transform="translate(0,92.5)">120</text></g><g class="ytick"><text text-anchor="end" x="75.2" y="8.399999999999999" style="font-family: Arial, monospace; font-size: 24px; fill: rgb(0, 0, 0); fill-opacity: 1; white-space: pre; opacity: 1;" transform="translate(0,41.5)">140</text></g></g><g class="overaxes-above"/></g></g><g class="polarlayer"/><g class="smithlayer"/><g class="ternarylayer"/><g class="geolayer"/><g class="funnelarealayer"/><g class="pielayer"/><g class="iciclelayer"/><g class="treemaplayer"/><g class="sunburstlayer"/><g class="glimages"/><defs id="topdefs-134a09"><g class="clips"/><clipPath id="legend134a09"><rect width="209" height="79" x="0" y="0"/></clipPath></defs><g class="layer-above"><g class="imagelayer"/><g class="shapelayer"/></g><g class="infolayer"><g class="legend" pointer-events="all" transform="translate(87,0)"><rect class="bg" shape-rendering="crispEdges" width="209" height="79" x="0" y="0" style="stroke: rgb(68, 68, 68); stroke-opacity: 1; fill: rgb(255, 255, 255); fill-opacity: 1; stroke-width: 0px;"/><g class="scrollbox" transform="" clip-path="url(#legend134a09)"><g class="groups"><g class="traces" transform="translate(0,22.1)" style="opacity: 1;"><text class="legendtext" text-anchor="start" x="40" y="9.360000000000001" style="font-family: Arial, monospace; font-size: 24px; fill: rgb(0, 0, 0); fill-opacity: 1; white-space: pre;">Co​<tspan style="font-size:70%" dy="0.3em">57</tspan><tspan dy="-0.21em">​</tspan>Ni​<tspan style="font-size:70%" dy="0.3em">14</tspan><tspan dy="-0.21em">​</tspan>Fe​<tspan style="font-size:70%" dy="0.3em">29</tspan><tspan dy="-0.21em">​</tspan>N​<tspan style="font-size:70%" dy="0.3em">x</tspan><tspan dy="-0.21em">​</tspan></text><g class="layers" style="opacity: 1;"><g class="legendfill"/><g class="legendlines"><path class="js-line" d="M5,0h30" style="fill: none; stroke: rgb(28, 167, 28); stroke-opacity: 1; stroke-width: 3px;"/></g><g class="legendsymbols"><g class="legendpoints"/></g></g><rect class="legendtoggle" x="0" y="-17.1" width="203.71875" height="34.2" style="fill: rgb(0, 0, 0); fill-opacity: 0;"/></g><g class="traces" transform="translate(0,56.300000000000004)" style="opacity: 1;"><text class="legendtext" text-anchor="start" x="40" y="9.360000000000001" style="font-family: Arial, monospace; font-size: 24px; fill: rgb(0, 0, 0); fill-opacity: 1; white-space: pre;">Co​<tspan style="font-size:70%" dy="0.3em">45</tspan><tspan dy="-0.21em">​</tspan>Ni​<tspan style="font-size:70%" dy="0.3em">45</tspan><tspan dy="-0.21em">​</tspan>Fe​<tspan style="font-size:70%" dy="0.3em">10</tspan><tspan dy="-0.21em">​</tspan>N​<tspan style="font-size:70%" dy="0.3em">x</tspan><tspan dy="-0.21em">​</tspan></text><g class="layers" style="opacity: 1;"><g class="legendfill"/><g class="legendlines"><path class="js-line" d="M5,0h30" style="fill: none; stroke: rgb(182, 129, 0); stroke-opacity: 1; stroke-width: 3px;"/></g><g class="legendsymbols"><g class="legendpoints"/></g></g><rect class="legendtoggle" x="0" y="-17.1" width="203.71875" height="34.2" style="fill: rgb(0, 0, 0); fill-opacity: 0;"/></g></g></g><rect class="scrollbar" rx="20" ry="3" width="0" height="0" x="0" y="0" style="fill: rgb(128, 139, 164); fill-opacity: 1;"/></g><g class="g-gtitle"/><g class="g-xtitle" transform="translate(0,-10.206250000000011)"><text class="xtitle" x="285" y="500.1125" text-anchor="middle" style="font-family: Arial, monospace; font-size: 29px; fill: rgb(0, 0, 0); opacity: 1; font-weight: normal; white-space: pre;">Overpotential, η(V) - iR​<tspan style="font-size:70%" dy="0.3em">u</tspan><tspan dy="-0.21em">​</tspan></text></g><g class="g-ytitle" transform="translate(30.3310546875,0)"><text class="ytitle" transform="rotate(-90,-0.14374999999999716,220)" x="-0.14374999999999716" y="220" text-anchor="middle" style="font-family: Arial, monospace; font-size: 29px; fill: rgb(0, 0, 0); opacity: 1; font-weight: normal; white-space: pre;">Current Density (mA/cm​<tspan style="font-size:70%" dy="-0.6em">2</tspan><tspan dy="0.42em">​</tspan>)</text></g></g></svg>